%TF.GenerationSoftware,KiCad,Pcbnew,10.0.6*%
%TF.CreationDate,2026-09-30T11:40:26+03:00*%
%TF.ProjectId,capture-clip,63617074-7572-4652-9d63-6c69702e6b69,rev?*%
%TF.SameCoordinates,Original*%
%TF.FileFunction,Copper,L1,Top*%
%TF.FilePolarity,Positive*%
%FSLAX46Y46*%
G04 Gerber Fmt 4.6, Leading zero omitted, Abs format (unit mm)*
G04 Created by KiCad (PCBNEW 10.0.6) date 2026-09-30 11:40:26*
%MOMM*%
%LPD*%
G01*
G04 APERTURE LIST*
G04 Aperture macros list*
%AMRoundRect*
0 Rectangle with rounded corners*
0 $1 Rounding radius*
0 $2 $3 $4 $5 $6 $7 $8 $9 X,Y pos of 4 corners*
0 Add a 4 corners polygon primitive as box body*
4,1,4,$2,$3,$4,$5,$6,$7,$8,$9,$2,$3,0*
0 Add four circle primitives for the rounded corners*
1,1,$1+$1,$2,$3*
1,1,$1+$1,$4,$5*
1,1,$1+$1,$6,$7*
1,1,$1+$1,$8,$9*
0 Add four rect primitives between the rounded corners*
20,1,$1+$1,$2,$3,$4,$5,0*
20,1,$1+$1,$4,$5,$6,$7,0*
20,1,$1+$1,$6,$7,$8,$9,0*
20,1,$1+$1,$8,$9,$2,$3,0*%
%AMFreePoly0*
4,1,64,0.235856,1.440014,0.383010,1.379061,0.515445,1.290571,0.628071,1.177945,0.716561,1.045510,0.777514,0.898356,0.808588,0.742139,0.808588,0.582861,0.777514,0.426644,0.716561,0.279490,0.628071,0.147055,0.515445,0.034429,0.383010,-0.054061,0.235856,-0.115014,0.079639,-0.146088,0.031751,-0.146088,0.029264,-0.147118,-0.029264,-0.147118,-0.031751,-0.146088,-0.079639,-0.146088,
-0.235856,-0.115014,-0.383010,-0.054061,-0.515445,0.034429,-0.628071,0.147055,-0.716561,0.279490,-0.777514,0.426644,-0.808588,0.582861,-0.808588,0.729972,-0.512500,0.729972,-0.512500,0.595028,-0.477574,0.464683,-0.410102,0.347818,-0.314682,0.252398,-0.197817,0.184926,-0.067472,0.150000,0.067472,0.150000,0.197817,0.184926,0.314682,0.252398,0.410102,0.347818,0.477574,0.464683,
0.512500,0.595028,0.512500,0.729972,0.477574,0.860317,0.410102,0.977182,0.314682,1.072602,0.197817,1.140074,0.067472,1.175000,-0.067472,1.175000,-0.197817,1.140074,-0.314682,1.072602,-0.410102,0.977182,-0.477574,0.860317,-0.512500,0.729972,-0.808588,0.729972,-0.808588,0.742139,-0.777514,0.898356,-0.716561,1.045510,-0.628071,1.177945,-0.515445,1.290571,-0.383010,1.379061,
-0.235856,1.440014,-0.079639,1.471088,0.079639,1.471088,0.235856,1.440014,0.235856,1.440014,$1*%
G04 Aperture macros list end*
%TA.AperFunction,SMDPad,CuDef*%
%ADD10R,0.650000X0.850000*%
%TD*%
%TA.AperFunction,SMDPad,CuDef*%
%ADD11RoundRect,0.250000X0.450000X-0.262500X0.450000X0.262500X-0.450000X0.262500X-0.450000X-0.262500X0*%
%TD*%
%TA.AperFunction,SMDPad,CuDef*%
%ADD12RoundRect,0.250000X-0.262500X-0.450000X0.262500X-0.450000X0.262500X0.450000X-0.262500X0.450000X0*%
%TD*%
%TA.AperFunction,SMDPad,CuDef*%
%ADD13RoundRect,0.150000X-0.587500X-0.150000X0.587500X-0.150000X0.587500X0.150000X-0.587500X0.150000X0*%
%TD*%
%TA.AperFunction,SMDPad,CuDef*%
%ADD14C,1.500000*%
%TD*%
%TA.AperFunction,SMDPad,CuDef*%
%ADD15RoundRect,0.250000X0.300000X-0.300000X0.300000X0.300000X-0.300000X0.300000X-0.300000X-0.300000X0*%
%TD*%
%TA.AperFunction,SMDPad,CuDef*%
%ADD16RoundRect,0.150000X0.150000X-0.587500X0.150000X0.587500X-0.150000X0.587500X-0.150000X-0.587500X0*%
%TD*%
%TA.AperFunction,SMDPad,CuDef*%
%ADD17RoundRect,0.250000X-0.250000X-0.475000X0.250000X-0.475000X0.250000X0.475000X-0.250000X0.475000X0*%
%TD*%
%TA.AperFunction,SMDPad,CuDef*%
%ADD18RoundRect,0.150000X-0.512500X-0.150000X0.512500X-0.150000X0.512500X0.150000X-0.512500X0.150000X0*%
%TD*%
%TA.AperFunction,SMDPad,CuDef*%
%ADD19RoundRect,0.250000X0.475000X-0.250000X0.475000X0.250000X-0.475000X0.250000X-0.475000X-0.250000X0*%
%TD*%
%TA.AperFunction,SMDPad,CuDef*%
%ADD20R,1.500000X0.900000*%
%TD*%
%TA.AperFunction,SMDPad,CuDef*%
%ADD21R,0.900000X1.500000*%
%TD*%
%TA.AperFunction,HeatsinkPad*%
%ADD22C,0.600000*%
%TD*%
%TA.AperFunction,HeatsinkPad*%
%ADD23R,3.900000X3.900000*%
%TD*%
%TA.AperFunction,SMDPad,CuDef*%
%ADD24RoundRect,0.250000X-0.275000X-0.750000X0.275000X-0.750000X0.275000X0.750000X-0.275000X0.750000X0*%
%TD*%
%TA.AperFunction,SMDPad,CuDef*%
%ADD25RoundRect,0.243750X0.456250X-0.243750X0.456250X0.243750X-0.456250X0.243750X-0.456250X-0.243750X0*%
%TD*%
%TA.AperFunction,SMDPad,CuDef*%
%ADD26RoundRect,0.250000X-0.300000X-0.300000X0.300000X-0.300000X0.300000X0.300000X-0.300000X0.300000X0*%
%TD*%
%TA.AperFunction,SMDPad,CuDef*%
%ADD27RoundRect,0.500000X0.500000X0.500000X-0.500000X0.500000X-0.500000X-0.500000X0.500000X-0.500000X0*%
%TD*%
%TA.AperFunction,SMDPad,CuDef*%
%ADD28R,0.600000X0.522000*%
%TD*%
%TA.AperFunction,SMDPad,CuDef*%
%ADD29FreePoly0,90.000000*%
%TD*%
%TA.AperFunction,SMDPad,CuDef*%
%ADD30RoundRect,0.250000X0.250000X1.500000X-0.250000X1.500000X-0.250000X-1.500000X0.250000X-1.500000X0*%
%TD*%
%TA.AperFunction,SMDPad,CuDef*%
%ADD31RoundRect,0.250001X0.499999X1.449999X-0.499999X1.449999X-0.499999X-1.449999X0.499999X-1.449999X0*%
%TD*%
%TA.AperFunction,SMDPad,CuDef*%
%ADD32RoundRect,0.150000X0.150000X-0.512500X0.150000X0.512500X-0.150000X0.512500X-0.150000X-0.512500X0*%
%TD*%
%TA.AperFunction,SMDPad,CuDef*%
%ADD33RoundRect,0.150000X-0.150000X-0.575000X0.150000X-0.575000X0.150000X0.575000X-0.150000X0.575000X0*%
%TD*%
%TA.AperFunction,SMDPad,CuDef*%
%ADD34RoundRect,0.075000X-0.075000X-0.650000X0.075000X-0.650000X0.075000X0.650000X-0.075000X0.650000X0*%
%TD*%
%TA.AperFunction,ComponentPad*%
%ADD35O,1.000000X2.100000*%
%TD*%
%TA.AperFunction,ComponentPad*%
%ADD36O,1.000000X1.600000*%
%TD*%
%TA.AperFunction,ViaPad*%
%ADD37C,0.600000*%
%TD*%
%TA.AperFunction,ViaPad*%
%ADD38C,0.800000*%
%TD*%
%TA.AperFunction,Conductor*%
%ADD39C,0.200000*%
%TD*%
%TA.AperFunction,Conductor*%
%ADD40C,0.300000*%
%TD*%
G04 APERTURE END LIST*
D10*
%TO.P,D4,1*%
%TO.N,/LED_R_K*%
X14575000Y32525000D03*
%TO.P,D4,2*%
%TO.N,/LED_G_K*%
X15425000Y32525000D03*
%TO.P,D4,3*%
%TO.N,/LED_B_K*%
X15425000Y31075000D03*
%TO.P,D4,4*%
%TO.N,/VSYS*%
X14575000Y31075000D03*
%TD*%
D11*
%TO.P,R14,1*%
%TO.N,/BAT_DIV*%
X28000000Y30787500D03*
%TO.P,R14,2*%
%TO.N,/BAT_ADC*%
X28000000Y32612500D03*
%TD*%
D12*
%TO.P,R6,1*%
%TO.N,VBUS*%
X6987500Y19600000D03*
%TO.P,R6,2*%
%TO.N,GND*%
X8812500Y19600000D03*
%TD*%
D13*
%TO.P,Q1,1*%
%TO.N,VBUS*%
X2062500Y21750000D03*
%TO.P,Q1,2*%
%TO.N,/VSYS*%
X2062500Y19850000D03*
%TO.P,Q1,3*%
%TO.N,+BATT*%
X3937500Y20800000D03*
%TD*%
D11*
%TO.P,R13,1*%
%TO.N,+BATT*%
X19200000Y13487500D03*
%TO.P,R13,2*%
%TO.N,/BAT_DIV*%
X19200000Y15312500D03*
%TD*%
D14*
%TO.P,TP5,1*%
%TO.N,GND*%
X15500000Y17000000D03*
%TD*%
D15*
%TO.P,D3,1*%
%TO.N,VBUS*%
X7600000Y9100000D03*
%TO.P,D3,2*%
%TO.N,GND*%
X7600000Y11900000D03*
%TD*%
D14*
%TO.P,TP2,1*%
%TO.N,/VSYS*%
X15500000Y20000000D03*
%TD*%
D16*
%TO.P,U3,1*%
%TO.N,/USB_D+*%
X14050000Y12862500D03*
%TO.P,U3,2*%
%TO.N,/USB_D-*%
X15950000Y12862500D03*
%TO.P,U3,3*%
%TO.N,GND*%
X15000000Y14737500D03*
%TD*%
D11*
%TO.P,R11,1*%
%TO.N,/LED_G_K*%
X10200000Y30787500D03*
%TO.P,R11,2*%
%TO.N,/LED_G_N*%
X10200000Y32612500D03*
%TD*%
D17*
%TO.P,C2,1*%
%TO.N,+BATT*%
X24850000Y10250000D03*
%TO.P,C2,2*%
%TO.N,GND*%
X26750000Y10250000D03*
%TD*%
%TO.P,C3,1*%
%TO.N,/VSYS*%
X2550000Y24400000D03*
%TO.P,C3,2*%
%TO.N,GND*%
X4450000Y24400000D03*
%TD*%
D18*
%TO.P,U4,1*%
%TO.N,/VSYS*%
X2362500Y28450000D03*
%TO.P,U4,2*%
%TO.N,GND*%
X2362500Y27500000D03*
%TO.P,U4,3*%
%TO.N,/VSYS*%
X2362500Y26550000D03*
%TO.P,U4,4*%
%TO.N,unconnected-(U4-NC-Pad4)*%
X4637500Y26550000D03*
%TO.P,U4,5*%
%TO.N,+3V3*%
X4637500Y28450000D03*
%TD*%
D11*
%TO.P,R12,1*%
%TO.N,/LED_B_K*%
X12400000Y30787500D03*
%TO.P,R12,2*%
%TO.N,/LED_B_N*%
X12400000Y32612500D03*
%TD*%
D12*
%TO.P,R19,1*%
%TO.N,/CHG_PROG*%
X24887500Y8150000D03*
%TO.P,R19,2*%
%TO.N,/CHG_FAST_N*%
X26712500Y8150000D03*
%TD*%
D19*
%TO.P,C9,1*%
%TO.N,/BAT_ADC*%
X25800000Y30750000D03*
%TO.P,C9,2*%
%TO.N,GND*%
X25800000Y32650000D03*
%TD*%
D14*
%TO.P,TP6,1*%
%TO.N,/UART_TX*%
X27400000Y52000000D03*
%TD*%
D11*
%TO.P,R4,1*%
%TO.N,VBUS*%
X5200000Y8587500D03*
%TO.P,R4,2*%
%TO.N,/CHRG_LED*%
X5200000Y10412500D03*
%TD*%
D20*
%TO.P,U1,1*%
%TO.N,GND*%
X6250000Y52510000D03*
%TO.P,U1,2*%
%TO.N,+3V3*%
X6250000Y51240000D03*
%TO.P,U1,3*%
%TO.N,/EN*%
X6250000Y49970000D03*
%TO.P,U1,4*%
%TO.N,/CHRG_SENSE*%
X6250000Y48700000D03*
%TO.P,U1,5*%
%TO.N,/STDBY_N*%
X6250000Y47430000D03*
%TO.P,U1,6*%
%TO.N,/MIC_PWR*%
X6250000Y46160000D03*
%TO.P,U1,7*%
%TO.N,/CHG_FAST_N*%
X6250000Y44890000D03*
%TO.P,U1,8*%
%TO.N,unconnected-(U1-IO15-Pad8)*%
X6250000Y43620000D03*
%TO.P,U1,9*%
%TO.N,unconnected-(U1-IO16-Pad9)*%
X6250000Y42350000D03*
%TO.P,U1,10*%
%TO.N,unconnected-(U1-IO17-Pad10)*%
X6250000Y41080000D03*
%TO.P,U1,11*%
%TO.N,unconnected-(U1-IO18-Pad11)*%
X6250000Y39810000D03*
%TO.P,U1,12*%
%TO.N,/LED_R_N*%
X6250000Y38540000D03*
%TO.P,U1,13*%
%TO.N,/USB_D-*%
X6250000Y37270000D03*
%TO.P,U1,14*%
%TO.N,/USB_D+*%
X6250000Y36000000D03*
D21*
%TO.P,U1,15*%
%TO.N,unconnected-(U1-IO3-Pad15)*%
X8015000Y34750000D03*
%TO.P,U1,16*%
%TO.N,unconnected-(U1-IO46-Pad16)*%
X9285000Y34750000D03*
%TO.P,U1,17*%
%TO.N,/LED_G_N*%
X10555000Y34750000D03*
%TO.P,U1,18*%
%TO.N,/LED_B_N*%
X11825000Y34750000D03*
%TO.P,U1,19*%
%TO.N,/I2S_SCK*%
X13095000Y34750000D03*
%TO.P,U1,20*%
%TO.N,/I2S_WS*%
X14365000Y34750000D03*
%TO.P,U1,21*%
%TO.N,/I2S_SD*%
X15635000Y34750000D03*
%TO.P,U1,22*%
%TO.N,unconnected-(U1-IO14-Pad22)*%
X16905000Y34750000D03*
%TO.P,U1,23*%
%TO.N,/SPARE_IO21*%
X18175000Y34750000D03*
%TO.P,U1,24*%
%TO.N,unconnected-(U1-IO47-Pad24)*%
X19445000Y34750000D03*
%TO.P,U1,25*%
%TO.N,unconnected-(U1-IO48-Pad25)*%
X20715000Y34750000D03*
%TO.P,U1,26*%
%TO.N,unconnected-(U1-IO45-Pad26)*%
X21985000Y34750000D03*
D20*
%TO.P,U1,27*%
%TO.N,/BUTTON_N*%
X23750000Y36000000D03*
%TO.P,U1,28*%
%TO.N,unconnected-(U1-IO35-Pad28)*%
X23750000Y37270000D03*
%TO.P,U1,29*%
%TO.N,unconnected-(U1-IO36-Pad29)*%
X23750000Y38540000D03*
%TO.P,U1,30*%
%TO.N,unconnected-(U1-IO37-Pad30)*%
X23750000Y39810000D03*
%TO.P,U1,31*%
%TO.N,unconnected-(U1-IO38-Pad31)*%
X23750000Y41080000D03*
%TO.P,U1,32*%
%TO.N,unconnected-(U1-IO39-Pad32)*%
X23750000Y42350000D03*
%TO.P,U1,33*%
%TO.N,unconnected-(U1-IO40-Pad33)*%
X23750000Y43620000D03*
%TO.P,U1,34*%
%TO.N,unconnected-(U1-IO41-Pad34)*%
X23750000Y44890000D03*
%TO.P,U1,35*%
%TO.N,unconnected-(U1-IO42-Pad35)*%
X23750000Y46160000D03*
%TO.P,U1,36*%
%TO.N,/UART_RX*%
X23750000Y47430000D03*
%TO.P,U1,37*%
%TO.N,/UART_TX*%
X23750000Y48700000D03*
%TO.P,U1,38*%
%TO.N,/VBUS_SENSE*%
X23750000Y49970000D03*
%TO.P,U1,39*%
%TO.N,/BAT_ADC*%
X23750000Y51240000D03*
%TO.P,U1,40*%
%TO.N,GND*%
X23750000Y52510000D03*
D22*
%TO.P,U1,41*%
X12100000Y45490000D03*
X12100000Y44090000D03*
X12800000Y46190000D03*
X12800000Y44790000D03*
X12800000Y43390000D03*
X13500000Y45490000D03*
D23*
X13500000Y44790000D03*
D22*
X13500000Y44090000D03*
X14200000Y46190000D03*
X14200000Y44790000D03*
X14200000Y43390000D03*
X14900000Y45490000D03*
X14900000Y44090000D03*
%TD*%
D12*
%TO.P,R5,1*%
%TO.N,/CHRG_N*%
X2087500Y18000000D03*
%TO.P,R5,2*%
%TO.N,/CHRG_SENSE*%
X3912500Y18000000D03*
%TD*%
D19*
%TO.P,C4,1*%
%TO.N,+3V3*%
X8000000Y27050000D03*
%TO.P,C4,2*%
%TO.N,GND*%
X8000000Y28950000D03*
%TD*%
D24*
%TO.P,SW2,1*%
%TO.N,/EN*%
X1075000Y3000000D03*
%TO.P,SW2,2*%
%TO.N,GND*%
X5525000Y3000000D03*
%TD*%
D25*
%TO.P,D1,1*%
%TO.N,/CHRG_N*%
X7600000Y2562500D03*
%TO.P,D1,2*%
%TO.N,/CHRG_LED*%
X7600000Y4437500D03*
%TD*%
D17*
%TO.P,C1,1*%
%TO.N,VBUS*%
X21250000Y10250000D03*
%TO.P,C1,2*%
%TO.N,GND*%
X23150000Y10250000D03*
%TD*%
D19*
%TO.P,C5,1*%
%TO.N,+3V3*%
X3000000Y50450000D03*
%TO.P,C5,2*%
%TO.N,GND*%
X3000000Y52350000D03*
%TD*%
D26*
%TO.P,D2,1*%
%TO.N,/VSYS*%
X6500000Y22000000D03*
%TO.P,D2,2*%
%TO.N,VBUS*%
X9300000Y22000000D03*
%TD*%
D11*
%TO.P,R10,1*%
%TO.N,/LED_R_K*%
X8000000Y30787500D03*
%TO.P,R10,2*%
%TO.N,/LED_R_N*%
X8000000Y32612500D03*
%TD*%
D12*
%TO.P,R3,1*%
%TO.N,/CHG_PROG*%
X21287500Y8150000D03*
%TO.P,R3,2*%
%TO.N,GND*%
X23112500Y8150000D03*
%TD*%
%TO.P,R16,1*%
%TO.N,VBUS*%
X1287500Y14000000D03*
%TO.P,R16,2*%
%TO.N,/VBUS_SENSE*%
X3112500Y14000000D03*
%TD*%
D27*
%TO.P,SW1,1*%
%TO.N,/BUTTON_N*%
X18000000Y26200000D03*
%TO.P,SW1,2*%
%TO.N,GND*%
X12000000Y26200000D03*
%TD*%
D17*
%TO.P,C7,1*%
%TO.N,/EN*%
X1250000Y35600000D03*
%TO.P,C7,2*%
%TO.N,GND*%
X3150000Y35600000D03*
%TD*%
D12*
%TO.P,R2,1*%
%TO.N,/CC2*%
X17587500Y10900000D03*
%TO.P,R2,2*%
%TO.N,GND*%
X19412500Y10900000D03*
%TD*%
D19*
%TO.P,C6,1*%
%TO.N,+3V3*%
X3000000Y46850000D03*
%TO.P,C6,2*%
%TO.N,GND*%
X3000000Y48750000D03*
%TD*%
D28*
%TO.P,MK1,1*%
%TO.N,/I2S_WS*%
X26400000Y41764000D03*
%TO.P,MK1,2*%
%TO.N,GND*%
X26400000Y40942000D03*
D29*
%TO.P,MK1,3*%
X27962500Y39690000D03*
D28*
%TO.P,MK1,4*%
%TO.N,/I2S_SCK*%
X28200000Y40942000D03*
%TO.P,MK1,5*%
%TO.N,/MIC_VDD*%
X28200000Y41764000D03*
%TO.P,MK1,6*%
%TO.N,/I2S_SD*%
X27300000Y41764000D03*
%TD*%
D30*
%TO.P,J2,1*%
%TO.N,+BATT*%
X25900000Y14650000D03*
%TO.P,J2,2*%
%TO.N,GND*%
X23900000Y14650000D03*
D31*
%TO.P,J2,MP*%
%TO.N,unconnected-(J2-MountPin-PadMP)*%
X28250000Y20400000D03*
X21550000Y20400000D03*
%TD*%
D14*
%TO.P,TP4,1*%
%TO.N,+3V3*%
X12500000Y17000000D03*
%TD*%
%TO.P,TP3,1*%
%TO.N,+BATT*%
X18500000Y20000000D03*
%TD*%
D12*
%TO.P,R7,1*%
%TO.N,+3V3*%
X1287500Y37800000D03*
%TO.P,R7,2*%
%TO.N,/EN*%
X3112500Y37800000D03*
%TD*%
D14*
%TO.P,TP7,1*%
%TO.N,/UART_RX*%
X27400000Y49000000D03*
%TD*%
D12*
%TO.P,R1,1*%
%TO.N,/CC1*%
X10587500Y10900000D03*
%TO.P,R1,2*%
%TO.N,GND*%
X12412500Y10900000D03*
%TD*%
%TO.P,R9,1*%
%TO.N,/I2S_SD*%
X26487500Y37000000D03*
%TO.P,R9,2*%
%TO.N,GND*%
X28312500Y37000000D03*
%TD*%
D32*
%TO.P,U2,1*%
%TO.N,/CHRG_N*%
X21450000Y2862500D03*
%TO.P,U2,2*%
%TO.N,GND*%
X22400000Y2862500D03*
%TO.P,U2,3*%
%TO.N,+BATT*%
X23350000Y2862500D03*
%TO.P,U2,4*%
%TO.N,VBUS*%
X23350000Y5137500D03*
%TO.P,U2,5*%
%TO.N,/STDBY_N*%
X22400000Y5137500D03*
%TO.P,U2,6*%
%TO.N,/CHG_PROG*%
X21450000Y5137500D03*
%TD*%
D11*
%TO.P,R15,1*%
%TO.N,/BAT_ADC*%
X23600000Y30787500D03*
%TO.P,R15,2*%
%TO.N,GND*%
X23600000Y32612500D03*
%TD*%
D12*
%TO.P,R17,1*%
%TO.N,/VBUS_SENSE*%
X1287500Y11800000D03*
%TO.P,R17,2*%
%TO.N,GND*%
X3112500Y11800000D03*
%TD*%
D14*
%TO.P,TP8,1*%
%TO.N,/SPARE_IO21*%
X21000000Y32000000D03*
%TD*%
D11*
%TO.P,R8,1*%
%TO.N,+3V3*%
X18000000Y30787500D03*
%TO.P,R8,2*%
%TO.N,/BUTTON_N*%
X18000000Y32612500D03*
%TD*%
D12*
%TO.P,R18,1*%
%TO.N,/MIC_PWR*%
X26487500Y46400000D03*
%TO.P,R18,2*%
%TO.N,/MIC_VDD*%
X28312500Y46400000D03*
%TD*%
D17*
%TO.P,C8,1*%
%TO.N,/MIC_VDD*%
X26450000Y44200000D03*
%TO.P,C8,2*%
%TO.N,GND*%
X28350000Y44200000D03*
%TD*%
D33*
%TO.P,J1,A1*%
%TO.N,GND*%
X11750000Y7745000D03*
%TO.P,J1,A4*%
%TO.N,VBUS*%
X12550000Y7745000D03*
D34*
%TO.P,J1,A5*%
%TO.N,/CC1*%
X13750000Y7745000D03*
%TO.P,J1,A6*%
%TO.N,/USB_D+*%
X14750000Y7745000D03*
%TO.P,J1,A7*%
%TO.N,/USB_D-*%
X15250000Y7745000D03*
%TO.P,J1,A8*%
%TO.N,unconnected-(J1-SBU1-PadA8)*%
X16250000Y7745000D03*
D33*
%TO.P,J1,A9*%
%TO.N,VBUS*%
X17450000Y7745000D03*
%TO.P,J1,A12*%
%TO.N,GND*%
X18250000Y7745000D03*
%TO.P,J1,B1*%
X18250000Y7745000D03*
%TO.P,J1,B4*%
%TO.N,VBUS*%
X17450000Y7745000D03*
D34*
%TO.P,J1,B5*%
%TO.N,/CC2*%
X16750000Y7745000D03*
%TO.P,J1,B6*%
%TO.N,/USB_D+*%
X15750000Y7745000D03*
%TO.P,J1,B7*%
%TO.N,/USB_D-*%
X14250000Y7745000D03*
%TO.P,J1,B8*%
%TO.N,unconnected-(J1-SBU2-PadB8)*%
X13250000Y7745000D03*
D33*
%TO.P,J1,B9*%
%TO.N,VBUS*%
X12550000Y7745000D03*
%TO.P,J1,B12*%
%TO.N,GND*%
X11750000Y7745000D03*
D35*
%TO.P,J1,SH*%
X10680000Y6830000D03*
D36*
X10680000Y2650000D03*
D35*
X19320000Y6830000D03*
D36*
X19320000Y2650000D03*
%TD*%
D14*
%TO.P,TP1,1*%
%TO.N,VBUS*%
X12500000Y20000000D03*
%TD*%
D37*
%TO.N,/LED_R_K*%
X7057600Y30005400D03*
X14475600Y33461800D03*
%TO.N,/LED_G_K*%
X16133900Y31816000D03*
X11060800Y29926700D03*
%TO.N,/BAT_DIV*%
X26083900Y26564500D03*
X20030500Y24340200D03*
D38*
%TO.N,VBUS*%
X17953300Y9585300D03*
X6236700Y18315200D03*
X2596700Y20800000D03*
%TO.N,GND*%
X19412500Y9586500D03*
D37*
X4450000Y52550000D03*
X10450000Y19550000D03*
X28450000Y34550000D03*
X25450000Y52550000D03*
X10450000Y28550000D03*
X22450000Y28550000D03*
X28450000Y10550000D03*
D38*
X4571900Y38240200D03*
X28350000Y42828800D03*
D37*
X4450000Y13550000D03*
X22450000Y1550000D03*
X1450000Y46550000D03*
D38*
X26358000Y35045600D03*
X17919100Y36347100D03*
X13362500Y24983800D03*
D37*
X28450000Y7550000D03*
X1450000Y49550000D03*
X1450000Y52550000D03*
D38*
X20928400Y18010500D03*
%TO.N,+BATT*%
X24850000Y11613200D03*
X3937500Y21705700D03*
X17888800Y18675000D03*
D37*
%TO.N,/USB_D+*%
X15836200Y10772900D03*
X14829500Y13065400D03*
X6271100Y31299000D03*
%TO.N,/USB_D-*%
X17124100Y12557300D03*
X5839600Y28761800D03*
D38*
%TO.N,+3V3*%
X4333400Y35976300D03*
X2123700Y38938400D03*
X5243200Y27500000D03*
X12935900Y21370400D03*
D37*
%TO.N,/CHG_FAST_N*%
X9301100Y36006400D03*
X26635700Y27133700D03*
%TO.N,/CHRG_LED*%
X7600000Y8036100D03*
X5200000Y11378300D03*
%TO.N,/EN*%
X1068200Y10629900D03*
X1167800Y29588800D03*
%TO.N,/CHRG_SENSE*%
X9663300Y43283400D03*
X815500Y31786900D03*
%TO.N,/STDBY_N*%
X10382800Y37611900D03*
X22400000Y6289500D03*
X10360200Y45066100D03*
X8812400Y45066100D03*
%TO.N,/MIC_PWR*%
X7472700Y45646600D03*
X26839600Y47836200D03*
%TO.N,/I2S_SCK*%
X28970000Y40928300D03*
X13095000Y37760300D03*
%TO.N,/I2S_WS*%
X14365000Y36775700D03*
X25366300Y37479100D03*
%TO.N,/I2S_SD*%
X26487500Y38159000D03*
X15635000Y37965800D03*
%TO.N,/BUTTON_N*%
X24751700Y33406300D03*
X24651600Y29911100D03*
%TO.N,/VBUS_SENSE*%
X4092800Y14701600D03*
X22527200Y42276400D03*
%TO.N,/CHRG_N*%
X21450000Y1729400D03*
X1876400Y15389700D03*
X8602400Y1847900D03*
%TO.N,unconnected-(J2-MountPin-PadMP)*%
X28250000Y23489300D03*
X20795400Y24267000D03*
%TO.N,/CC1*%
X10587500Y9668400D03*
X13750000Y6544600D03*
%TD*%
%TO.N,/LED_R_K*%
D39*
X7057600Y30005400D02*
X7217900Y30005400D01*
X14575000Y32525000D02*
X14575000Y33201700D01*
X14475600Y33301100D02*
X14475600Y33461800D01*
X14575000Y33201700D02*
X14475600Y33301100D01*
X7217900Y30005400D02*
X8000000Y30787500D01*
%TO.N,/LED_G_K*%
X11060800Y29926700D02*
X10200000Y30787500D01*
X16001700Y31948200D02*
X16133900Y31816000D01*
X15425000Y32525000D02*
X16001700Y32525000D01*
X16001700Y32525000D02*
X16001700Y31948200D01*
%TO.N,/LED_B_K*%
X13414200Y31801700D02*
X12400000Y30787500D01*
X15425000Y31751700D02*
X15375000Y31801700D01*
X15375000Y31801700D02*
X13414200Y31801700D01*
X15425000Y31075000D02*
X15425000Y31751700D01*
%TO.N,/VSYS*%
D40*
X14575000Y31075000D02*
X14575000Y22942200D01*
X1815500Y26550000D02*
X1348300Y27017200D01*
X2362500Y26550000D02*
X2362500Y24587500D01*
X2362500Y26550000D02*
X1815500Y26550000D01*
X14575000Y22942200D02*
X7442200Y22942200D01*
X5038400Y20421300D02*
X4467100Y19850000D01*
X1348300Y27017200D02*
X1348300Y27927900D01*
X6500000Y22000000D02*
X5038400Y22000000D01*
X1348300Y27927900D02*
X1870400Y28450000D01*
X4467100Y19850000D02*
X2062500Y19850000D01*
X1870400Y28450000D02*
X2362500Y28450000D01*
X5038400Y22000000D02*
X5038400Y20421300D01*
X4950000Y22000000D02*
X2550000Y24400000D01*
X14575000Y20925000D02*
X15500000Y20000000D01*
X2362500Y24587500D02*
X2550000Y24400000D01*
X5038400Y22000000D02*
X4950000Y22000000D01*
X7442200Y22942200D02*
X6500000Y22000000D01*
X14575000Y22942200D02*
X14575000Y20925000D01*
%TO.N,/BAT_DIV*%
D39*
X19200000Y15312500D02*
X20030500Y16143000D01*
X26083900Y28871400D02*
X26083900Y26564500D01*
X20030500Y16143000D02*
X20030500Y24340200D01*
X28000000Y30787500D02*
X26083900Y28871400D01*
%TO.N,/BAT_ADC*%
X28000000Y32612500D02*
X26137500Y30750000D01*
X22551400Y33078200D02*
X22748300Y33275100D01*
X22748300Y40427600D02*
X21965600Y41210300D01*
X23637500Y30750000D02*
X25800000Y30750000D01*
X21965600Y41210300D02*
X21965600Y50457300D01*
X26137500Y30750000D02*
X25800000Y30750000D01*
X23600000Y30787500D02*
X22551400Y31836100D01*
X21965600Y50457300D02*
X22748300Y51240000D01*
X22551400Y31836100D02*
X22551400Y33078200D01*
X23600000Y30787500D02*
X23637500Y30750000D01*
X23750000Y51240000D02*
X22748300Y51240000D01*
X22748300Y33275100D02*
X22748300Y40427600D01*
%TO.N,VBUS*%
D40*
X12550000Y7745000D02*
X12550000Y8964300D01*
X6236700Y18315200D02*
X6667100Y18315200D01*
X17953300Y8822900D02*
X17953300Y9585300D01*
X6753400Y9691600D02*
X6753400Y11133400D01*
X1287500Y14000000D02*
X1408300Y14000000D01*
X17827400Y8822900D02*
X17953300Y8822900D01*
X7600000Y9100000D02*
X7008400Y9691600D01*
X2062500Y21750000D02*
X2596700Y21215800D01*
X23350000Y5137500D02*
X23350000Y4674800D01*
X10500000Y22000000D02*
X12500000Y20000000D01*
X2596700Y21215800D02*
X2596700Y20800000D01*
X3096600Y15175100D02*
X6236700Y18315200D01*
X11500000Y14532000D02*
X11387500Y14644500D01*
X2583400Y15175100D02*
X3096600Y15175100D01*
X5649300Y8587500D02*
X6753400Y9691600D01*
X11500000Y10014300D02*
X11500000Y14532000D01*
X6667100Y19279600D02*
X6667100Y18315200D01*
X20200200Y5003500D02*
X20200200Y8822900D01*
X1408300Y14000000D02*
X2583400Y15175100D01*
X6987500Y19600000D02*
X6667100Y19279600D01*
X11387500Y14644500D02*
X11387500Y18887500D01*
X23350000Y4674800D02*
X22792000Y4116800D01*
X9300000Y22000000D02*
X10500000Y22000000D01*
X5200000Y8587500D02*
X5649300Y8587500D01*
X7008400Y9691600D02*
X6753400Y9691600D01*
X12550000Y8964300D02*
X11500000Y10014300D01*
X17450000Y7745000D02*
X17450000Y8445500D01*
X11387500Y18887500D02*
X12500000Y20000000D01*
X6753400Y11133400D02*
X6667100Y11219700D01*
X9300000Y22000000D02*
X6987500Y19687500D01*
X6987500Y19687500D02*
X6987500Y19600000D01*
X20200200Y9200200D02*
X21250000Y10250000D01*
X6667100Y11219700D02*
X6667100Y18315200D01*
X22792000Y4116800D02*
X21086900Y4116800D01*
X17953300Y8822900D02*
X20200200Y8822900D01*
X21086900Y4116800D02*
X20200200Y5003500D01*
X17450000Y8445500D02*
X17827400Y8822900D01*
X20200200Y8822900D02*
X20200200Y9200200D01*
%TO.N,GND*%
X28350000Y44200000D02*
X28350000Y42828800D01*
X23112500Y10067200D02*
X21817400Y11362300D01*
X11263300Y8231700D02*
X11750000Y7745000D01*
X12412500Y12710700D02*
X12412500Y10900000D01*
X25762500Y32612500D02*
X25800000Y32650000D01*
X4128100Y4396900D02*
X4128100Y9110400D01*
X26358000Y35045600D02*
X26358100Y35045600D01*
X26750000Y10250000D02*
X26839700Y10339700D01*
X13362500Y24983800D02*
X13216200Y24983800D01*
X23600000Y32612500D02*
X25762500Y32612500D01*
X26358000Y35045600D02*
X26358000Y33208000D01*
X19874800Y11362300D02*
X19412500Y10900000D01*
X8000000Y28950000D02*
X9250000Y28950000D01*
X23900000Y11000000D02*
X23150000Y10250000D01*
X3160000Y52510000D02*
X3000000Y52350000D01*
X1923100Y51273100D02*
X3000000Y52350000D01*
X3342500Y12030000D02*
X3112500Y11800000D01*
X19320000Y8231700D02*
X18736700Y8231700D01*
X26839700Y10339700D02*
X26839700Y16312900D01*
X17919100Y41070900D02*
X17919100Y36347100D01*
X1923100Y49826900D02*
X1923100Y51273100D01*
X6250000Y52510000D02*
X3160000Y52510000D01*
X3389300Y35360700D02*
X3150000Y35600000D01*
X4128100Y9110400D02*
X4566000Y9548300D01*
X8812500Y11900000D02*
X8812500Y10099200D01*
X10346800Y1165100D02*
X10680000Y1498300D01*
X10200000Y24400000D02*
X4450000Y24400000D01*
X6054200Y11123200D02*
X6054200Y11516900D01*
X12100000Y47761700D02*
X7351700Y52510000D01*
X14900000Y45490000D02*
X21920000Y52510000D01*
X19320000Y2650000D02*
X19320000Y6830000D01*
X4566000Y9548300D02*
X5900700Y9548300D01*
X23112500Y10212500D02*
X23150000Y10250000D01*
X23900000Y15275700D02*
X23900000Y14650000D01*
X12100000Y45490000D02*
X12100000Y47761700D01*
X4450000Y24400000D02*
X3389300Y25460700D01*
X23900000Y14650000D02*
X23900000Y11000000D01*
X3000000Y48750000D02*
X1923100Y49826900D01*
X23112500Y8150000D02*
X23112500Y9545800D01*
X3150000Y35855800D02*
X3150000Y35600000D01*
X3389300Y25460700D02*
X3389300Y27500000D01*
X19320000Y6830000D02*
X19320000Y8231700D01*
X8812500Y10099200D02*
X10680000Y8231700D01*
X4571900Y38240200D02*
X4571900Y37277700D01*
X26400000Y39371200D02*
X26400000Y40942000D01*
X22400000Y2862500D02*
X22400000Y1751900D01*
X22400000Y1751900D02*
X21671900Y1023800D01*
X14439300Y14737500D02*
X12412500Y12710700D01*
X14900000Y44090000D02*
X17919100Y41070900D01*
X21817400Y11362300D02*
X20928400Y11362300D01*
X27137700Y38727900D02*
X27043300Y38727900D01*
X15075000Y14812500D02*
X15500000Y14812500D01*
X15790500Y14812500D02*
X15500000Y14812500D01*
X19412500Y11190500D02*
X15790500Y14812500D01*
X23112500Y9545800D02*
X23112500Y10212500D01*
X21671900Y1023800D02*
X19794500Y1023800D01*
X9250000Y28950000D02*
X12000000Y26200000D01*
X19794500Y1023800D02*
X19320000Y1498300D01*
X23112500Y9545800D02*
X23112500Y10067200D01*
X19412500Y10900000D02*
X19412500Y11190500D01*
X3389300Y27500000D02*
X2362500Y27500000D01*
X20928400Y11362300D02*
X20928400Y18010500D01*
X28312500Y37553100D02*
X27137700Y38727900D01*
X6250000Y52510000D02*
X7351700Y52510000D01*
X15000000Y14737500D02*
X15075000Y14812500D01*
X20928400Y11362300D02*
X19874800Y11362300D01*
X5541100Y12030000D02*
X3342500Y12030000D01*
X8812500Y19600000D02*
X8812500Y11900000D01*
X7600000Y11900000D02*
X8812500Y11900000D01*
X10680000Y8231700D02*
X11263300Y8231700D01*
X13216200Y24983800D02*
X12000000Y26200000D01*
X28312500Y37000000D02*
X28312500Y37553100D01*
X26358100Y35045600D02*
X28312500Y37000000D01*
X5900700Y9548300D02*
X6251700Y9899300D01*
X25404500Y16780200D02*
X23900000Y15275700D01*
X7359900Y1165100D02*
X10346800Y1165100D01*
X26372400Y16780200D02*
X25404500Y16780200D01*
X5525000Y3000000D02*
X4128100Y4396900D01*
X26358000Y33208000D02*
X25800000Y32650000D01*
X18736700Y8231700D02*
X18250000Y7745000D01*
X4571900Y37277700D02*
X3150000Y35855800D01*
X15500000Y14812500D02*
X15500000Y17000000D01*
X10680000Y6830000D02*
X10680000Y8231700D01*
X13500000Y44090000D02*
X13500000Y44790000D01*
X15000000Y14737500D02*
X14439300Y14737500D01*
X19320000Y2650000D02*
X19320000Y1498300D01*
X12000000Y26200000D02*
X10200000Y24400000D01*
X6054200Y11516900D02*
X5541100Y12030000D01*
X6251700Y10925700D02*
X6054200Y11123200D01*
X13500000Y44790000D02*
X13500000Y45490000D01*
X3389300Y27500000D02*
X3389300Y35360700D01*
X27043300Y38727900D02*
X26400000Y39371200D01*
X6251700Y9899300D02*
X6251700Y10925700D01*
X19412500Y10900000D02*
X19412500Y9586500D01*
X10680000Y2650000D02*
X10680000Y6830000D01*
X21920000Y52510000D02*
X23750000Y52510000D01*
X5525000Y3000000D02*
X7359900Y1165100D01*
X10680000Y2650000D02*
X10680000Y1498300D01*
X26839700Y16312900D02*
X26372400Y16780200D01*
%TO.N,+BATT*%
X17888800Y14798700D02*
X17888800Y18675000D01*
X25800000Y5312500D02*
X23350000Y2862500D01*
X25800000Y10250000D02*
X24850000Y10250000D01*
X18500000Y19286200D02*
X17888800Y18675000D01*
X25800000Y10250000D02*
X25800000Y5312500D01*
X3937500Y20800000D02*
X3937500Y21705700D01*
X24850000Y11613200D02*
X24850000Y10250000D01*
X25900000Y14650000D02*
X25800000Y14550000D01*
X18500000Y20000000D02*
X18500000Y19286200D01*
X25800000Y14550000D02*
X25800000Y10250000D01*
X19200000Y13487500D02*
X17888800Y14798700D01*
%TO.N,/USB_D+*%
X14475000Y12710800D02*
X14829500Y13065300D01*
X14475000Y12710800D02*
X14750000Y12435800D01*
X15750000Y10686700D02*
X15836200Y10772900D01*
X14750000Y12435800D02*
X14750000Y7745000D01*
X14829500Y13065300D02*
X14829500Y13065400D01*
X14475000Y12710800D02*
X14201700Y12710800D01*
X6271100Y35978900D02*
X6271100Y31299000D01*
X15750000Y7745000D02*
X15750000Y10686700D01*
X6250000Y36000000D02*
X6271100Y35978900D01*
X14201700Y12710800D02*
X14050000Y12862500D01*
%TO.N,/USB_D-*%
X14517600Y6718300D02*
X14982400Y6718300D01*
X5198300Y29403100D02*
X5839600Y28761800D01*
X17124100Y12557300D02*
X16255200Y12557300D01*
X15234500Y7760500D02*
X15250000Y7745000D01*
X15950000Y12862500D02*
X15234500Y12147000D01*
X6250000Y37270000D02*
X5198300Y37270000D01*
X14250000Y7745000D02*
X14250000Y6985900D01*
X15250000Y6985900D02*
X15250000Y7745000D01*
X16255200Y12557300D02*
X15950000Y12862500D01*
X15234500Y12147000D02*
X15234500Y7760500D01*
X14982400Y6718300D02*
X15250000Y6985900D01*
X5198300Y37270000D02*
X5198300Y29403100D01*
X14250000Y6985900D02*
X14517600Y6718300D01*
%TO.N,/LED_G_N*%
D39*
X10555000Y34750000D02*
X10555000Y32967500D01*
X10555000Y32967500D02*
X10200000Y32612500D01*
%TO.N,+3V3*%
D40*
X19365500Y23968900D02*
X16633800Y21237200D01*
X16633800Y19573900D02*
X15938300Y18878400D01*
X13837500Y20468800D02*
X12935900Y21370400D01*
X13837500Y18878400D02*
X13837500Y20468800D01*
X19365500Y29422000D02*
X19365500Y23968900D01*
X6250000Y51240000D02*
X5148300Y51240000D01*
X13837500Y18337500D02*
X13837500Y18878400D01*
X4400300Y41215000D02*
X4400300Y46850000D01*
X4637500Y28105700D02*
X5243200Y27500000D01*
X1287500Y37800000D02*
X2123700Y38636200D01*
X5243200Y27500000D02*
X7550000Y27500000D01*
X5148300Y51240000D02*
X5148300Y51198000D01*
X4400300Y50450000D02*
X4400300Y46850000D01*
X3000000Y46850000D02*
X4400300Y46850000D01*
X4637500Y28450000D02*
X4637500Y35672200D01*
X7550000Y27500000D02*
X8000000Y27050000D01*
X4400300Y50450000D02*
X3000000Y50450000D01*
X4637500Y28450000D02*
X4637500Y28105700D01*
X2123700Y38938400D02*
X4400300Y41215000D01*
X15938300Y18878400D02*
X13837500Y18878400D01*
X18000000Y30787500D02*
X19365500Y29422000D01*
X5148300Y51198000D02*
X4400300Y50450000D01*
X2123700Y38636200D02*
X2123700Y38938400D01*
X16633800Y21237200D02*
X16633800Y19573900D01*
X12500000Y17000000D02*
X13837500Y18337500D01*
X4637500Y35672200D02*
X4333400Y35976300D01*
%TO.N,/LED_B_N*%
D39*
X11825000Y34750000D02*
X11825000Y33187500D01*
X11825000Y33187500D02*
X12400000Y32612500D01*
%TO.N,/CHG_PROG*%
X21287500Y8150000D02*
X21287500Y7283100D01*
X21450000Y7120600D02*
X23858100Y7120600D01*
X23858100Y7120600D02*
X24887500Y8150000D01*
X21287500Y7283100D02*
X21450000Y7120600D01*
X21450000Y7120600D02*
X21450000Y5137500D01*
%TO.N,/CHG_FAST_N*%
X7251700Y44890000D02*
X9301100Y42840600D01*
X27563000Y17486000D02*
X26635700Y18413300D01*
X27563000Y9000500D02*
X27563000Y17486000D01*
X9301100Y42840600D02*
X9301100Y36006400D01*
X6250000Y44890000D02*
X7251700Y44890000D01*
X26712500Y8150000D02*
X27563000Y9000500D01*
X26635700Y18413300D02*
X26635700Y27133700D01*
%TO.N,/UART_TX*%
X23750000Y48700000D02*
X24751700Y48700000D01*
X24751700Y48700000D02*
X24751700Y49351700D01*
X24751700Y49351700D02*
X27400000Y52000000D01*
%TO.N,/CHRG_LED*%
X7600000Y4437500D02*
X7600000Y8036100D01*
X5200000Y10412500D02*
X5200000Y11378300D01*
%TO.N,/EN*%
X1399800Y29820800D02*
X1167800Y29588800D01*
X1068200Y3006800D02*
X1068200Y10629900D01*
X3112500Y37462500D02*
X3112500Y37800000D01*
X6250000Y49970000D02*
X5248300Y49970000D01*
X5248300Y39935800D02*
X3112500Y37800000D01*
X1399800Y35450200D02*
X1399800Y29820800D01*
X5248300Y49970000D02*
X5248300Y39935800D01*
X1250000Y35600000D02*
X1399800Y35450200D01*
X1250000Y35600000D02*
X3112500Y37462500D01*
X1075000Y3000000D02*
X1068200Y3006800D01*
%TO.N,/CHRG_SENSE*%
X7251700Y48700000D02*
X9663300Y46288400D01*
X1286100Y19223900D02*
X2688600Y19223900D01*
X815500Y31786900D02*
X616100Y31587500D01*
X616100Y31587500D02*
X616100Y19893900D01*
X2688600Y19223900D02*
X3912500Y18000000D01*
X6250000Y48700000D02*
X7251700Y48700000D01*
X616100Y19893900D02*
X1286100Y19223900D01*
X9663300Y46288400D02*
X9663300Y43283400D01*
%TO.N,/STDBY_N*%
X10360200Y37634500D02*
X10382800Y37611900D01*
X10360200Y45066100D02*
X10360200Y37634500D01*
X7251700Y47430000D02*
X8812400Y45869300D01*
X8812400Y45869300D02*
X8812400Y45066100D01*
X6250000Y47430000D02*
X7251700Y47430000D01*
X22400000Y5137500D02*
X22400000Y6289500D01*
%TO.N,/MIC_PWR*%
X6250000Y46160000D02*
X7251700Y46160000D01*
X7251700Y46160000D02*
X7251700Y45867600D01*
X26839600Y46752100D02*
X26487500Y46400000D01*
X7251700Y45867600D02*
X7472700Y45646600D01*
X26839600Y47836200D02*
X26839600Y46752100D01*
%TO.N,/LED_R_N*%
X7251700Y38540000D02*
X7251700Y33360800D01*
X7251700Y33360800D02*
X8000000Y32612500D01*
X6250000Y38540000D02*
X7251700Y38540000D01*
%TO.N,/I2S_SCK*%
X28970000Y40928300D02*
X28765400Y40928300D01*
X13095000Y34750000D02*
X13095000Y37760300D01*
X28765400Y40928300D02*
X28751700Y40942000D01*
X28200000Y40942000D02*
X28751700Y40942000D01*
%TO.N,/I2S_WS*%
X25366300Y41282000D02*
X25848300Y41764000D01*
X14365000Y34750000D02*
X14365000Y36775700D01*
X26400000Y41764000D02*
X25848300Y41764000D01*
X25366300Y37479100D02*
X25366300Y41282000D01*
%TO.N,/I2S_SD*%
X25852500Y42276700D02*
X27300000Y42276700D01*
X26396900Y36909400D02*
X25129000Y36909400D01*
X25129000Y36909400D02*
X24782200Y37256200D01*
X26487500Y37000000D02*
X26487500Y38159000D01*
X15635000Y34750000D02*
X15635000Y37965800D01*
X24782200Y37256200D02*
X24782200Y41206400D01*
X26487500Y37000000D02*
X26396900Y36909400D01*
X24782200Y41206400D02*
X25852500Y42276700D01*
X27300000Y41764000D02*
X27300000Y42276700D01*
%TO.N,/SPARE_IO21*%
X19251700Y33748300D02*
X21000000Y32000000D01*
X18175000Y33748300D02*
X19251700Y33748300D01*
X18175000Y34750000D02*
X18175000Y33748300D01*
%TO.N,/BUTTON_N*%
X16987700Y31600200D02*
X18000000Y32612500D01*
X23750000Y36000000D02*
X24751700Y36000000D01*
X24751700Y36000000D02*
X24751700Y33406300D01*
X18000000Y32612500D02*
X20701400Y29911100D01*
X20701400Y29911100D02*
X24651600Y29911100D01*
X18000000Y26200000D02*
X16987700Y27212300D01*
X16987700Y27212300D02*
X16987700Y31600200D01*
%TO.N,/UART_RX*%
X27223300Y49000000D02*
X25653300Y47430000D01*
X27400000Y49000000D02*
X27223300Y49000000D01*
X25653300Y47430000D02*
X23750000Y47430000D01*
%TO.N,/VBUS_SENSE*%
X4092800Y14701600D02*
X3391200Y14000000D01*
X3391200Y14000000D02*
X3112500Y14000000D01*
X22748300Y42497500D02*
X22527200Y42276400D01*
X22748300Y49970000D02*
X22748300Y42497500D01*
X1287500Y12175000D02*
X3112500Y14000000D01*
X1287500Y11800000D02*
X1287500Y12175000D01*
X23750000Y49970000D02*
X22748300Y49970000D01*
%TO.N,/CHRG_N*%
X1876400Y15389700D02*
X1876400Y17788900D01*
X1876400Y17788900D02*
X2087500Y18000000D01*
X21450000Y2862500D02*
X21450000Y1729400D01*
X7600000Y2562500D02*
X7887800Y2562500D01*
X7887800Y2562500D02*
X8602400Y1847900D01*
%TO.N,/CC2*%
X16750000Y10062500D02*
X17587500Y10900000D01*
X16750000Y7745000D02*
X16750000Y10062500D01*
%TO.N,/MIC_VDD*%
X26989200Y43106000D02*
X28200000Y41895200D01*
X26989200Y44200000D02*
X26989200Y43106000D01*
X26989200Y44200000D02*
X26450000Y44200000D01*
X26989200Y45076700D02*
X28312500Y46400000D01*
X28200000Y41895200D02*
X28200000Y41764000D01*
X26989200Y44200000D02*
X26989200Y45076700D01*
%TO.N,unconnected-(J2-MountPin-PadMP)*%
X20795400Y21154600D02*
X20795400Y24267000D01*
X28250000Y23489300D02*
X28250000Y20400000D01*
X21550000Y20400000D02*
X20795400Y21154600D01*
%TO.N,/CC1*%
X13750000Y7745000D02*
X13750000Y6544600D01*
X10587500Y10900000D02*
X10587500Y9668400D01*
%TD*%
%TA.AperFunction,Conductor*%
%TO.N,GND*%
G36*
X10329074Y21529815D02*
G01*
X10349716Y21513181D01*
X11454054Y20408843D01*
X11487539Y20347520D01*
X11487990Y20296971D01*
X11449500Y20103470D01*
X11449500Y19896531D01*
X11487989Y19703031D01*
X11481762Y19633439D01*
X11454054Y19591159D01*
X11027010Y19164114D01*
X10967700Y19061387D01*
X10967699Y19061384D01*
X10961212Y19037176D01*
X10961213Y19037175D01*
X10937000Y18946809D01*
X10937000Y14585192D01*
X10952401Y14527714D01*
X10967701Y14470612D01*
X10972995Y14461443D01*
X11012246Y14393459D01*
X11031075Y14360848D01*
X11028703Y14359479D01*
X11049069Y14306814D01*
X11049500Y14296486D01*
X11049500Y12021501D01*
X11029815Y11954462D01*
X10977011Y11908707D01*
X10910721Y11898385D01*
X10893102Y11900500D01*
X10281898Y11900500D01*
X10242853Y11895812D01*
X10193438Y11889878D01*
X10052656Y11834361D01*
X9932077Y11742923D01*
X9840639Y11622344D01*
X9785122Y11481562D01*
X9780839Y11445889D01*
X9774500Y11393102D01*
X9774500Y10406898D01*
X9780126Y10360046D01*
X9785122Y10318439D01*
X9840639Y10177657D01*
X9932078Y10057077D01*
X9980251Y10020546D01*
X10021774Y9964354D01*
X10026325Y9894632D01*
X10025100Y9889650D01*
X9999182Y9792922D01*
X9987000Y9747457D01*
X9987000Y9589343D01*
X10026187Y9443097D01*
X10027923Y9436617D01*
X10027926Y9436610D01*
X10106975Y9299691D01*
X10106979Y9299686D01*
X10106980Y9299684D01*
X10218784Y9187880D01*
X10218786Y9187879D01*
X10218790Y9187876D01*
X10338246Y9118909D01*
X10355716Y9108823D01*
X10508443Y9067900D01*
X10508445Y9067900D01*
X10666555Y9067900D01*
X10666557Y9067900D01*
X10819284Y9108823D01*
X10956216Y9187880D01*
X11068020Y9299684D01*
X11147077Y9436616D01*
X11153514Y9460642D01*
X11189876Y9520299D01*
X11252722Y9550830D01*
X11322098Y9542537D01*
X11360969Y9516228D01*
X12063181Y8814016D01*
X12096666Y8752693D01*
X12099500Y8726335D01*
X12099500Y8712289D01*
X12079815Y8645250D01*
X12075271Y8638656D01*
X11997207Y8532882D01*
X11997206Y8532881D01*
X11952353Y8404702D01*
X11952353Y8404700D01*
X11949500Y8374270D01*
X11949500Y7115731D01*
X11952353Y7085301D01*
X11952353Y7085299D01*
X11985342Y6991027D01*
X11997069Y6957511D01*
X11998914Y6952241D01*
X12002477Y6882463D01*
X11967748Y6821835D01*
X11913972Y6791513D01*
X11907169Y6789690D01*
X11907161Y6789687D01*
X11787338Y6720508D01*
X11787333Y6720504D01*
X11689496Y6622667D01*
X11687794Y6620448D01*
X11685882Y6619053D01*
X11683748Y6616918D01*
X11683415Y6617251D01*
X11631364Y6579249D01*
X11561618Y6575097D01*
X11501741Y6608259D01*
X11480000Y6630000D01*
X10980000Y6630000D01*
X10980000Y7030000D01*
X11480000Y7030000D01*
X11480000Y7458794D01*
X11479999Y7458798D01*
X11449258Y7613344D01*
X11449256Y7613352D01*
X11388952Y7758940D01*
X11388947Y7758949D01*
X11301401Y7889970D01*
X11301398Y7889974D01*
X11189973Y8001399D01*
X11189969Y8001402D01*
X11058948Y8088948D01*
X11058939Y8088953D01*
X10913351Y8149257D01*
X10913343Y8149259D01*
X10880000Y8155892D01*
X10880000Y7604265D01*
X10864205Y7620060D01*
X10795796Y7659556D01*
X10719496Y7680000D01*
X10640504Y7680000D01*
X10564204Y7659556D01*
X10495795Y7620060D01*
X10480000Y7604265D01*
X10480000Y8155891D01*
X10479999Y8155892D01*
X10446656Y8149259D01*
X10446648Y8149257D01*
X10301060Y8088953D01*
X10301051Y8088948D01*
X10170030Y8001402D01*
X10170026Y8001399D01*
X10058601Y7889974D01*
X10058598Y7889970D01*
X9971052Y7758949D01*
X9971047Y7758940D01*
X9910743Y7613352D01*
X9910741Y7613344D01*
X9880000Y7458798D01*
X9880000Y7030000D01*
X10380000Y7030000D01*
X10380000Y6630000D01*
X9880000Y6630000D01*
X9880000Y6201203D01*
X9910741Y6046657D01*
X9910743Y6046649D01*
X9971047Y5901061D01*
X9971052Y5901052D01*
X10058598Y5770031D01*
X10058601Y5770027D01*
X10170026Y5658602D01*
X10170030Y5658599D01*
X10301051Y5571053D01*
X10301061Y5571048D01*
X10446647Y5510744D01*
X10446653Y5510742D01*
X10479999Y5504110D01*
X10480000Y5504110D01*
X10480000Y6055735D01*
X10495795Y6039940D01*
X10564204Y6000444D01*
X10640504Y5980000D01*
X10719496Y5980000D01*
X10795796Y6000444D01*
X10864205Y6039940D01*
X10880000Y6055735D01*
X10880000Y5504110D01*
X10913346Y5510742D01*
X10913352Y5510744D01*
X11058938Y5571048D01*
X11058948Y5571053D01*
X11189969Y5658599D01*
X11189973Y5658602D01*
X11301398Y5770027D01*
X11301401Y5770031D01*
X11388947Y5901052D01*
X11388954Y5901065D01*
X11436671Y6016265D01*
X11480511Y6070669D01*
X11546805Y6092734D01*
X11614505Y6075455D01*
X11658619Y6030813D01*
X11689492Y5977339D01*
X11689494Y5977336D01*
X11689495Y5977335D01*
X11787335Y5879495D01*
X11787336Y5879494D01*
X11787338Y5879493D01*
X11816111Y5862881D01*
X11907164Y5810312D01*
X12040817Y5774500D01*
X12040819Y5774500D01*
X12179181Y5774500D01*
X12179183Y5774500D01*
X12312836Y5810312D01*
X12432665Y5879495D01*
X12530505Y5977335D01*
X12599688Y6097164D01*
X12635500Y6230817D01*
X12635500Y6369183D01*
X12599688Y6502836D01*
X12581983Y6533501D01*
X12565511Y6601400D01*
X12588363Y6667427D01*
X12643284Y6710617D01*
X12689371Y6719500D01*
X12754270Y6719500D01*
X12778612Y6721784D01*
X12784699Y6722354D01*
X12909258Y6765940D01*
X12979035Y6769502D01*
X13004672Y6760298D01*
X13075026Y6725904D01*
X13073912Y6723627D01*
X13120339Y6692865D01*
X13148473Y6628909D01*
X13149500Y6612980D01*
X13149500Y6465543D01*
X13175488Y6368557D01*
X13190423Y6312817D01*
X13190426Y6312810D01*
X13269475Y6175891D01*
X13269479Y6175886D01*
X13269480Y6175884D01*
X13381284Y6064080D01*
X13381286Y6064079D01*
X13381290Y6064076D01*
X13518209Y5985027D01*
X13518216Y5985023D01*
X13670943Y5944100D01*
X13670945Y5944100D01*
X13829055Y5944100D01*
X13829057Y5944100D01*
X13981784Y5985023D01*
X14118716Y6064080D01*
X14230520Y6175884D01*
X14259418Y6225939D01*
X14309984Y6274155D01*
X14378591Y6287379D01*
X14398887Y6283718D01*
X14458291Y6267800D01*
X14458294Y6267800D01*
X15041708Y6267800D01*
X15041709Y6267800D01*
X15132073Y6292014D01*
X15156287Y6298501D01*
X15259014Y6357811D01*
X15502603Y6601400D01*
X15584385Y6683181D01*
X15645708Y6716666D01*
X15672066Y6719500D01*
X15860630Y6719500D01*
X15860636Y6719500D01*
X15933625Y6730134D01*
X15945539Y6735959D01*
X16014408Y6747719D01*
X16054458Y6735960D01*
X16066375Y6730134D01*
X16139364Y6719500D01*
X16139370Y6719500D01*
X16360630Y6719500D01*
X16360636Y6719500D01*
X16433625Y6730134D01*
X16445539Y6735959D01*
X16514408Y6747719D01*
X16554458Y6735960D01*
X16566375Y6730134D01*
X16639364Y6719500D01*
X16639370Y6719500D01*
X16860630Y6719500D01*
X16860636Y6719500D01*
X16933625Y6730134D01*
X16995326Y6760299D01*
X17064199Y6772058D01*
X17090742Y6765939D01*
X17215299Y6722354D01*
X17245730Y6719500D01*
X17245734Y6719500D01*
X17310629Y6719500D01*
X17377668Y6699815D01*
X17423423Y6647011D01*
X17433367Y6577853D01*
X17418016Y6533500D01*
X17400313Y6502839D01*
X17400312Y6502836D01*
X17364500Y6369183D01*
X17364500Y6230817D01*
X17379220Y6175883D01*
X17400312Y6097165D01*
X17400313Y6097162D01*
X17469492Y5977339D01*
X17469494Y5977336D01*
X17469495Y5977335D01*
X17567335Y5879495D01*
X17567336Y5879494D01*
X17567338Y5879493D01*
X17596111Y5862881D01*
X17687164Y5810312D01*
X17820817Y5774500D01*
X17820819Y5774500D01*
X17959181Y5774500D01*
X17959183Y5774500D01*
X18092836Y5810312D01*
X18212665Y5879495D01*
X18310505Y5977335D01*
X18341380Y6030814D01*
X18391946Y6079028D01*
X18460553Y6092252D01*
X18525418Y6066284D01*
X18563328Y6016266D01*
X18611047Y5901062D01*
X18611052Y5901052D01*
X18698598Y5770031D01*
X18698601Y5770027D01*
X18810026Y5658602D01*
X18810030Y5658599D01*
X18941051Y5571053D01*
X18941061Y5571048D01*
X19086647Y5510744D01*
X19086653Y5510742D01*
X19119999Y5504110D01*
X19120000Y5504110D01*
X19120000Y6055735D01*
X19135795Y6039940D01*
X19204204Y6000444D01*
X19280504Y5980000D01*
X19359496Y5980000D01*
X19435796Y6000444D01*
X19504205Y6039940D01*
X19520000Y6055735D01*
X19520000Y5504110D01*
X19553346Y5510742D01*
X19553352Y5510744D01*
X19578247Y5521055D01*
X19647716Y5528524D01*
X19710195Y5497249D01*
X19745848Y5437160D01*
X19749700Y5406494D01*
X19749700Y4944192D01*
X19771722Y4862001D01*
X19780400Y4829615D01*
X19780400Y4829614D01*
X19780401Y4829613D01*
X19839711Y4726886D01*
X20810286Y3756311D01*
X20842655Y3737623D01*
X20890870Y3687055D01*
X20904092Y3618448D01*
X20897696Y3589282D01*
X20852353Y3459699D01*
X20849500Y3429270D01*
X20849500Y2295731D01*
X20852353Y2265301D01*
X20852353Y2265299D01*
X20897206Y2137120D01*
X20902181Y2130379D01*
X20926152Y2064750D01*
X20910837Y1996580D01*
X20909800Y1994748D01*
X20890424Y1961187D01*
X20890423Y1961184D01*
X20849500Y1808457D01*
X20849500Y1650343D01*
X20876803Y1548449D01*
X20890423Y1497617D01*
X20890426Y1497610D01*
X20969475Y1360691D01*
X20969479Y1360686D01*
X20969480Y1360684D01*
X21081284Y1248880D01*
X21081286Y1248879D01*
X21081290Y1248876D01*
X21218209Y1169827D01*
X21218216Y1169823D01*
X21370943Y1128900D01*
X21370945Y1128900D01*
X21529055Y1128900D01*
X21529057Y1128900D01*
X21681784Y1169823D01*
X21818716Y1248880D01*
X21930520Y1360684D01*
X22009577Y1497616D01*
X22050500Y1650343D01*
X22050500Y1808457D01*
X22009577Y1961184D01*
X21990200Y1994745D01*
X21973728Y2062644D01*
X21996580Y2128671D01*
X21997822Y2130383D01*
X22002793Y2137118D01*
X22027212Y2206904D01*
X22047646Y2265299D01*
X22047646Y2265301D01*
X22050500Y2295731D01*
X22050500Y3429270D01*
X22047646Y3459700D01*
X22047646Y3459702D01*
X22033074Y3501345D01*
X22029511Y3571123D01*
X22064240Y3631751D01*
X22126233Y3663979D01*
X22150115Y3666300D01*
X22649885Y3666300D01*
X22716924Y3646615D01*
X22762679Y3593811D01*
X22772623Y3524653D01*
X22766926Y3501345D01*
X22752353Y3459702D01*
X22752353Y3459700D01*
X22749500Y3429270D01*
X22749500Y2295731D01*
X22752353Y2265301D01*
X22752353Y2265299D01*
X22797206Y2137120D01*
X22797207Y2137118D01*
X22877850Y2027850D01*
X22987118Y1947207D01*
X23029845Y1932256D01*
X23115299Y1902354D01*
X23145730Y1899500D01*
X23145734Y1899500D01*
X23554270Y1899500D01*
X23584699Y1902354D01*
X23584701Y1902354D01*
X23655005Y1926955D01*
X23712882Y1947207D01*
X23822150Y2027850D01*
X23902793Y2137118D01*
X23927212Y2206904D01*
X23947646Y2265299D01*
X23947646Y2265301D01*
X23950500Y2295731D01*
X23950500Y2774535D01*
X23970185Y2841574D01*
X23986819Y2862216D01*
X24811658Y3687055D01*
X25640569Y4515967D01*
X25701890Y4549450D01*
X25771582Y4544466D01*
X25827515Y4502594D01*
X25851932Y4437130D01*
X25837080Y4368857D01*
X25828566Y4355399D01*
X25759423Y4260232D01*
X25655770Y4056804D01*
X25585215Y3839661D01*
X25549500Y3614163D01*
X25549500Y3385838D01*
X25585215Y3160340D01*
X25655770Y2943197D01*
X25703841Y2848854D01*
X25759421Y2739772D01*
X25893621Y2555063D01*
X26055063Y2393621D01*
X26239772Y2259421D01*
X26323778Y2216618D01*
X26443196Y2155771D01*
X26443198Y2155771D01*
X26443201Y2155769D01*
X26558100Y2118436D01*
X26660339Y2085216D01*
X26885838Y2049500D01*
X26885843Y2049500D01*
X27114162Y2049500D01*
X27339660Y2085216D01*
X27436400Y2116649D01*
X27556799Y2155769D01*
X27760228Y2259421D01*
X27944937Y2393621D01*
X28106379Y2555063D01*
X28240579Y2739772D01*
X28344231Y2943201D01*
X28414784Y3160340D01*
X28450500Y3385838D01*
X28450500Y3614163D01*
X28414784Y3839661D01*
X28344229Y4056804D01*
X28264252Y4213767D01*
X28240579Y4260228D01*
X28106379Y4444937D01*
X27944937Y4606379D01*
X27760228Y4740579D01*
X27556803Y4844230D01*
X27339660Y4914785D01*
X27114162Y4950500D01*
X27114157Y4950500D01*
X26885843Y4950500D01*
X26885838Y4950500D01*
X26660339Y4914785D01*
X26443196Y4844230D01*
X26239768Y4740577D01*
X26144601Y4671434D01*
X26078795Y4647954D01*
X26010741Y4663780D01*
X25962046Y4713885D01*
X25948171Y4782363D01*
X25973520Y4847472D01*
X25984027Y4859425D01*
X26160489Y5035886D01*
X26219799Y5138613D01*
X26235392Y5196809D01*
X26250500Y5253191D01*
X26250500Y7028500D01*
X26270185Y7095539D01*
X26322989Y7141294D01*
X26389284Y7151615D01*
X26406896Y7149500D01*
X26406898Y7149500D01*
X27018097Y7149500D01*
X27018102Y7149500D01*
X27106564Y7160123D01*
X27247342Y7215639D01*
X27367922Y7307078D01*
X27459361Y7427658D01*
X27514877Y7568436D01*
X27525500Y7656898D01*
X27525500Y8345247D01*
X27545185Y8412286D01*
X27561815Y8432924D01*
X27798703Y8669813D01*
X27798708Y8669816D01*
X27808911Y8680020D01*
X27808913Y8680020D01*
X27883480Y8754587D01*
X27936207Y8845913D01*
X27941084Y8864114D01*
X27943290Y8872344D01*
X27951487Y8902941D01*
X27963501Y8947773D01*
X27963501Y9053227D01*
X27963501Y9060822D01*
X27963500Y9060840D01*
X27963500Y17538725D01*
X27963500Y17538727D01*
X27947216Y17599500D01*
X27947216Y17599501D01*
X27936208Y17640587D01*
X27920543Y17667719D01*
X27883480Y17731913D01*
X27358195Y18257198D01*
X27324710Y18318521D01*
X27329694Y18388213D01*
X27371566Y18444146D01*
X27437030Y18468563D01*
X27491363Y18460235D01*
X27618436Y18410124D01*
X27706901Y18399500D01*
X28793098Y18399501D01*
X28881564Y18410124D01*
X29022342Y18465639D01*
X29142922Y18557078D01*
X29234361Y18677658D01*
X29260146Y18743046D01*
X29303050Y18798188D01*
X29368958Y18821382D01*
X29436943Y18805262D01*
X29485420Y18754945D01*
X29499500Y18697555D01*
X29499500Y2004428D01*
X29499184Y1995581D01*
X29484869Y1795443D01*
X29482351Y1777932D01*
X29440645Y1586210D01*
X29435661Y1569235D01*
X29367093Y1385395D01*
X29359743Y1369301D01*
X29265709Y1197092D01*
X29256144Y1182209D01*
X29138561Y1025136D01*
X29126975Y1011765D01*
X28988235Y873025D01*
X28974864Y861439D01*
X28817791Y743856D01*
X28802908Y734291D01*
X28630699Y640257D01*
X28614605Y632907D01*
X28430765Y564339D01*
X28413790Y559355D01*
X28222068Y517649D01*
X28204557Y515131D01*
X28023779Y502201D01*
X28004417Y500816D01*
X27995572Y500500D01*
X2004428Y500500D01*
X1995582Y500816D01*
X1973622Y502387D01*
X1795442Y515131D01*
X1777931Y517649D01*
X1586209Y559355D01*
X1569234Y564339D01*
X1385394Y632907D01*
X1369300Y640257D01*
X1197091Y734291D01*
X1182208Y743856D01*
X1025135Y861439D01*
X1011764Y873025D01*
X873024Y1011765D01*
X861438Y1025136D01*
X743855Y1182209D01*
X734290Y1197092D01*
X706014Y1248876D01*
X640253Y1369306D01*
X632909Y1385389D01*
X575577Y1539101D01*
X570594Y1608791D01*
X604079Y1670114D01*
X665402Y1703598D01*
X706542Y1705547D01*
X756898Y1699500D01*
X1393097Y1699500D01*
X1393102Y1699500D01*
X1481564Y1710123D01*
X1622342Y1765639D01*
X1742922Y1857078D01*
X1834361Y1977658D01*
X1889877Y2118436D01*
X1900500Y2206898D01*
X1900500Y2848860D01*
X6599500Y2848860D01*
X6599500Y2276140D01*
X6601508Y2259422D01*
X6610003Y2188678D01*
X6664887Y2049503D01*
X6664888Y2049501D01*
X6755288Y1930289D01*
X6874500Y1839889D01*
X6874502Y1839888D01*
X6944089Y1812446D01*
X7013679Y1785003D01*
X7101140Y1774500D01*
X7905236Y1774500D01*
X7972275Y1754815D01*
X8018030Y1702011D01*
X8025009Y1682598D01*
X8033652Y1650344D01*
X8042823Y1616117D01*
X8042826Y1616110D01*
X8121875Y1479191D01*
X8121879Y1479186D01*
X8121880Y1479184D01*
X8233684Y1367380D01*
X8233686Y1367379D01*
X8233690Y1367376D01*
X8370609Y1288327D01*
X8370616Y1288323D01*
X8523343Y1247400D01*
X8523345Y1247400D01*
X8681455Y1247400D01*
X8681457Y1247400D01*
X8834184Y1288323D01*
X8971116Y1367380D01*
X9082920Y1479184D01*
X9161977Y1616116D01*
X9202900Y1768843D01*
X9202900Y1926957D01*
X9161977Y2079684D01*
X9144509Y2109940D01*
X9082924Y2216610D01*
X9082918Y2216618D01*
X8971117Y2328419D01*
X8971112Y2328423D01*
X8868735Y2387530D01*
X8868731Y2387532D01*
X8834184Y2407477D01*
X8689127Y2446345D01*
X8685911Y2447398D01*
X8659803Y2465339D01*
X8632746Y2481831D01*
X8631214Y2484985D01*
X8628326Y2486969D01*
X8616061Y2516179D01*
X8602217Y2544678D01*
X8601751Y2550259D01*
X8601276Y2551390D01*
X8601533Y2552860D01*
X8600500Y2565241D01*
X8600500Y2848854D01*
X8600500Y2848860D01*
X8589997Y2936321D01*
X8553528Y3028798D01*
X9880000Y3028798D01*
X9880000Y2850000D01*
X10380000Y2850000D01*
X10380000Y2450000D01*
X9880000Y2450000D01*
X9880000Y2271203D01*
X9910741Y2116657D01*
X9910743Y2116649D01*
X9971047Y1971061D01*
X9971052Y1971052D01*
X10058598Y1840031D01*
X10058601Y1840027D01*
X10170026Y1728602D01*
X10170030Y1728599D01*
X10301051Y1641053D01*
X10301061Y1641048D01*
X10446647Y1580744D01*
X10446653Y1580742D01*
X10479999Y1574110D01*
X10480000Y1574110D01*
X10480000Y2125735D01*
X10495795Y2109940D01*
X10564204Y2070444D01*
X10640504Y2050000D01*
X10719496Y2050000D01*
X10795796Y2070444D01*
X10864205Y2109940D01*
X10880000Y2125735D01*
X10880000Y1574110D01*
X10913346Y1580742D01*
X10913352Y1580744D01*
X11058938Y1641048D01*
X11058948Y1641053D01*
X11189969Y1728599D01*
X11189973Y1728602D01*
X11301398Y1840027D01*
X11301401Y1840031D01*
X11388947Y1971052D01*
X11388952Y1971061D01*
X11449256Y2116649D01*
X11449258Y2116657D01*
X11479999Y2271203D01*
X11480000Y2271206D01*
X11480000Y2450000D01*
X10980000Y2450000D01*
X10980000Y2850000D01*
X11480000Y2850000D01*
X11480000Y3028794D01*
X11479999Y3028798D01*
X18520000Y3028798D01*
X18520000Y2850000D01*
X19020000Y2850000D01*
X19020000Y2450000D01*
X18520000Y2450000D01*
X18520000Y2271203D01*
X18550741Y2116657D01*
X18550743Y2116649D01*
X18611047Y1971061D01*
X18611052Y1971052D01*
X18698598Y1840031D01*
X18698601Y1840027D01*
X18810026Y1728602D01*
X18810030Y1728599D01*
X18941051Y1641053D01*
X18941061Y1641048D01*
X19086647Y1580744D01*
X19086653Y1580742D01*
X19119999Y1574110D01*
X19120000Y1574110D01*
X19120000Y2125735D01*
X19135795Y2109940D01*
X19204204Y2070444D01*
X19280504Y2050000D01*
X19359496Y2050000D01*
X19435796Y2070444D01*
X19504205Y2109940D01*
X19520000Y2125735D01*
X19520000Y1574110D01*
X19553346Y1580742D01*
X19553352Y1580744D01*
X19698938Y1641048D01*
X19698948Y1641053D01*
X19829969Y1728599D01*
X19829973Y1728602D01*
X19941398Y1840027D01*
X19941401Y1840031D01*
X20028947Y1971052D01*
X20028952Y1971061D01*
X20089256Y2116649D01*
X20089258Y2116657D01*
X20119999Y2271203D01*
X20120000Y2271206D01*
X20120000Y2450000D01*
X19620000Y2450000D01*
X19620000Y2850000D01*
X20120000Y2850000D01*
X20120000Y3028794D01*
X20119999Y3028798D01*
X20089258Y3183344D01*
X20089256Y3183352D01*
X20028952Y3328940D01*
X20028947Y3328949D01*
X19941401Y3459970D01*
X19941398Y3459974D01*
X19829973Y3571399D01*
X19829969Y3571402D01*
X19698948Y3658948D01*
X19698939Y3658953D01*
X19553351Y3719257D01*
X19553343Y3719259D01*
X19520000Y3725892D01*
X19520000Y3174265D01*
X19504205Y3190060D01*
X19435796Y3229556D01*
X19359496Y3250000D01*
X19280504Y3250000D01*
X19204204Y3229556D01*
X19135795Y3190060D01*
X19120000Y3174265D01*
X19120000Y3725891D01*
X19119999Y3725892D01*
X19086656Y3719259D01*
X19086648Y3719257D01*
X18941060Y3658953D01*
X18941051Y3658948D01*
X18810030Y3571402D01*
X18810026Y3571399D01*
X18698601Y3459974D01*
X18698598Y3459970D01*
X18611052Y3328949D01*
X18611047Y3328940D01*
X18550743Y3183352D01*
X18550741Y3183344D01*
X18520000Y3028798D01*
X11479999Y3028798D01*
X11449258Y3183344D01*
X11449256Y3183352D01*
X11388952Y3328940D01*
X11388947Y3328949D01*
X11301401Y3459970D01*
X11301398Y3459974D01*
X11189973Y3571399D01*
X11189969Y3571402D01*
X11058948Y3658948D01*
X11058939Y3658953D01*
X10913351Y3719257D01*
X10913343Y3719259D01*
X10880000Y3725892D01*
X10880000Y3174265D01*
X10864205Y3190060D01*
X10795796Y3229556D01*
X10719496Y3250000D01*
X10640504Y3250000D01*
X10564204Y3229556D01*
X10495795Y3190060D01*
X10480000Y3174265D01*
X10480000Y3725891D01*
X10479999Y3725892D01*
X10446656Y3719259D01*
X10446648Y3719257D01*
X10301060Y3658953D01*
X10301051Y3658948D01*
X10170030Y3571402D01*
X10170026Y3571399D01*
X10058601Y3459974D01*
X10058598Y3459970D01*
X9971052Y3328949D01*
X9971047Y3328940D01*
X9910743Y3183352D01*
X9910741Y3183344D01*
X9880000Y3028798D01*
X8553528Y3028798D01*
X8535111Y3075500D01*
X8490594Y3134205D01*
X8444711Y3194712D01*
X8325499Y3285112D01*
X8325497Y3285113D01*
X8186322Y3339997D01*
X8173826Y3341498D01*
X8098860Y3350500D01*
X7101140Y3350500D01*
X7035544Y3342623D01*
X7013677Y3339997D01*
X6874502Y3285113D01*
X6874500Y3285112D01*
X6755288Y3194712D01*
X6664888Y3075500D01*
X6664887Y3075498D01*
X6610003Y2936323D01*
X6610003Y2936321D01*
X6599500Y2848860D01*
X1900500Y2848860D01*
X1900500Y3793102D01*
X1889877Y3881564D01*
X1834361Y4022342D01*
X1834360Y4022343D01*
X1834360Y4022344D01*
X1742922Y4142923D01*
X1622341Y4234362D01*
X1547209Y4263991D01*
X1492065Y4306897D01*
X1468873Y4372805D01*
X1468700Y4379345D01*
X1468700Y10129802D01*
X1488385Y10196841D01*
X1505019Y10217483D01*
X1513443Y10225907D01*
X1548720Y10261184D01*
X1627777Y10398116D01*
X1668700Y10550843D01*
X1668700Y10708957D01*
X1668700Y10717085D01*
X1671309Y10717085D01*
X1680079Y10773329D01*
X1726458Y10825585D01*
X1746756Y10835832D01*
X1822342Y10865639D01*
X1942922Y10957078D01*
X2034361Y11077658D01*
X2089877Y11218436D01*
X2100500Y11306898D01*
X2100500Y12293102D01*
X2093909Y12347987D01*
X2105459Y12416894D01*
X2129340Y12450449D01*
X2649550Y12970659D01*
X2710871Y13004142D01*
X2752012Y13006091D01*
X2788049Y13001764D01*
X2806897Y12999500D01*
X2806898Y12999500D01*
X3418097Y12999500D01*
X3418102Y12999500D01*
X3506564Y13010123D01*
X3647342Y13065639D01*
X3767922Y13157078D01*
X3859361Y13277658D01*
X3914877Y13418436D01*
X3925500Y13506898D01*
X3925500Y13916545D01*
X3945185Y13983584D01*
X3961819Y14004226D01*
X4022374Y14064781D01*
X4083697Y14098266D01*
X4110055Y14101100D01*
X4171855Y14101100D01*
X4171857Y14101100D01*
X4324584Y14142023D01*
X4461516Y14221080D01*
X4573320Y14332884D01*
X4652377Y14469816D01*
X4693300Y14622543D01*
X4693300Y14780657D01*
X4652377Y14933384D01*
X4619761Y14989877D01*
X4573324Y15070310D01*
X4573318Y15070318D01*
X4461517Y15182119D01*
X4461509Y15182125D01*
X4324590Y15261174D01*
X4324586Y15261176D01*
X4324584Y15261177D01*
X4171857Y15302100D01*
X4160064Y15302100D01*
X4093025Y15321785D01*
X4047270Y15374589D01*
X4037326Y15443747D01*
X4066351Y15507303D01*
X4072383Y15513781D01*
X4918857Y16360255D01*
X6004921Y17446319D01*
X6066242Y17479802D01*
X6135934Y17474818D01*
X6191867Y17432946D01*
X6216284Y17367482D01*
X6216600Y17358636D01*
X6216600Y11185872D01*
X6196915Y11118833D01*
X6144111Y11073078D01*
X6074953Y11063134D01*
X6017675Y11087068D01*
X5922341Y11159362D01*
X5922339Y11159363D01*
X5879010Y11176450D01*
X5823866Y11219356D01*
X5800673Y11285264D01*
X5800500Y11291804D01*
X5800500Y11457355D01*
X5800500Y11457357D01*
X5759577Y11610084D01*
X5752499Y11622344D01*
X5680524Y11747010D01*
X5680518Y11747018D01*
X5568717Y11858819D01*
X5568709Y11858825D01*
X5431790Y11937874D01*
X5431786Y11937876D01*
X5431784Y11937877D01*
X5279057Y11978800D01*
X5120943Y11978800D01*
X4968216Y11937877D01*
X4968209Y11937874D01*
X4831290Y11858825D01*
X4831282Y11858819D01*
X4719481Y11747018D01*
X4719475Y11747010D01*
X4640426Y11610091D01*
X4640423Y11610084D01*
X4599500Y11457357D01*
X4599500Y11291804D01*
X4579815Y11224765D01*
X4527011Y11179010D01*
X4520990Y11176450D01*
X4477660Y11159363D01*
X4477658Y11159362D01*
X4357077Y11067923D01*
X4265639Y10947344D01*
X4210122Y10806562D01*
X4206132Y10773329D01*
X4199500Y10718102D01*
X4199500Y10106898D01*
X4203820Y10070926D01*
X4210122Y10018439D01*
X4265639Y9877657D01*
X4357077Y9757078D01*
X4477656Y9665640D01*
X4477657Y9665640D01*
X4477658Y9665639D01*
X4605171Y9615354D01*
X4660314Y9572449D01*
X4683507Y9506541D01*
X4667386Y9438556D01*
X4617070Y9390080D01*
X4605178Y9384649D01*
X4556116Y9365301D01*
X4477656Y9334361D01*
X4357077Y9242923D01*
X4265639Y9122344D01*
X4210122Y8981562D01*
X4206065Y8947775D01*
X4199500Y8893102D01*
X4199500Y8281898D01*
X4201183Y8267884D01*
X4210122Y8193439D01*
X4265639Y8052657D01*
X4357077Y7932078D01*
X4477656Y7840640D01*
X4477657Y7840640D01*
X4477658Y7840639D01*
X4618436Y7785123D01*
X4706898Y7774500D01*
X4706903Y7774500D01*
X5693097Y7774500D01*
X5693102Y7774500D01*
X5781564Y7785123D01*
X5922342Y7840639D01*
X6042922Y7932078D01*
X6134361Y8052658D01*
X6189877Y8193436D01*
X6200500Y8281898D01*
X6200500Y8450235D01*
X6220185Y8517274D01*
X6236819Y8537916D01*
X6378923Y8680020D01*
X6537931Y8839029D01*
X6599252Y8872512D01*
X6668943Y8867528D01*
X6724877Y8825657D01*
X6749294Y8760192D01*
X6749388Y8758769D01*
X6749499Y8756906D01*
X6760122Y8668439D01*
X6760122Y8668437D01*
X6760123Y8668436D01*
X6770489Y8642150D01*
X6815639Y8527657D01*
X6907077Y8407078D01*
X6982475Y8349902D01*
X7023999Y8293709D01*
X7028550Y8223988D01*
X7027325Y8219006D01*
X6999500Y8115159D01*
X6999500Y8115157D01*
X6999500Y7957043D01*
X7030691Y7840639D01*
X7040423Y7804317D01*
X7040426Y7804310D01*
X7119475Y7667391D01*
X7119481Y7667383D01*
X7163181Y7623683D01*
X7196666Y7562360D01*
X7199500Y7536002D01*
X7199500Y5347312D01*
X7179815Y5280273D01*
X7127011Y5234518D01*
X7090286Y5224197D01*
X7046132Y5218895D01*
X7013677Y5214997D01*
X6874502Y5160113D01*
X6874500Y5160112D01*
X6755288Y5069712D01*
X6664888Y4950500D01*
X6664887Y4950498D01*
X6610003Y4811323D01*
X6610003Y4811321D01*
X6599500Y4723860D01*
X6599500Y4151140D01*
X6608690Y4074612D01*
X6610003Y4063678D01*
X6664887Y3924503D01*
X6664888Y3924501D01*
X6755288Y3805289D01*
X6874500Y3714889D01*
X6874502Y3714888D01*
X6919860Y3697001D01*
X7013679Y3660003D01*
X7101140Y3649500D01*
X7101146Y3649500D01*
X8098854Y3649500D01*
X8098860Y3649500D01*
X8186321Y3660003D01*
X8325500Y3714889D01*
X8444711Y3805289D01*
X8535111Y3924500D01*
X8589997Y4063679D01*
X8600500Y4151140D01*
X8600500Y4723860D01*
X8589997Y4811321D01*
X8549196Y4914784D01*
X8535112Y4950498D01*
X8535111Y4950500D01*
X8444711Y5069712D01*
X8325499Y5160112D01*
X8325497Y5160113D01*
X8186322Y5214997D01*
X8165733Y5217470D01*
X8109714Y5224197D01*
X8045501Y5251734D01*
X8006369Y5309616D01*
X8000500Y5347312D01*
X8000500Y7536002D01*
X8020185Y7603041D01*
X8036819Y7623683D01*
X8080520Y7667384D01*
X8159577Y7804316D01*
X8200500Y7957043D01*
X8200500Y8115157D01*
X8172673Y8219009D01*
X8174336Y8288854D01*
X8213498Y8346716D01*
X8217485Y8349873D01*
X8292922Y8407078D01*
X8384361Y8527658D01*
X8439877Y8668436D01*
X8450500Y8756898D01*
X8450500Y9443102D01*
X8439877Y9531564D01*
X8384361Y9672342D01*
X8384360Y9672343D01*
X8384360Y9672344D01*
X8292922Y9792923D01*
X8172343Y9884361D01*
X8031561Y9939878D01*
X7985926Y9945358D01*
X7943102Y9950500D01*
X7943097Y9950500D01*
X7437965Y9950500D01*
X7370926Y9970185D01*
X7350284Y9986819D01*
X7285016Y10052087D01*
X7285014Y10052089D01*
X7265898Y10063126D01*
X7217683Y10113694D01*
X7203900Y10170512D01*
X7203900Y11192707D01*
X7203900Y11192709D01*
X7173199Y11307286D01*
X7158655Y11332477D01*
X7134210Y11374817D01*
X7117600Y11436814D01*
X7117600Y18475500D01*
X7137285Y18542539D01*
X7190089Y18588294D01*
X7241600Y18599500D01*
X7293097Y18599500D01*
X7293102Y18599500D01*
X7381564Y18610123D01*
X7522342Y18665639D01*
X7642922Y18757078D01*
X7734361Y18877658D01*
X7789877Y19018436D01*
X7800500Y19106898D01*
X7800500Y19812035D01*
X7820185Y19879074D01*
X7836819Y19899716D01*
X9050284Y21113181D01*
X9111607Y21146666D01*
X9137965Y21149500D01*
X9643097Y21149500D01*
X9643102Y21149500D01*
X9731564Y21160123D01*
X9872342Y21215639D01*
X9992922Y21307078D01*
X10084361Y21427658D01*
X10091362Y21445411D01*
X10101450Y21470990D01*
X10144356Y21526134D01*
X10210264Y21549327D01*
X10216804Y21549500D01*
X10262035Y21549500D01*
X10329074Y21529815D01*
G37*
%TD.AperFunction*%
%TA.AperFunction,Conductor*%
G36*
X19069013Y8352715D02*
G01*
X19114768Y8299911D01*
X19124712Y8230753D01*
X19095687Y8167197D01*
X19049427Y8133839D01*
X18941060Y8088953D01*
X18941051Y8088948D01*
X18810030Y8001402D01*
X18810026Y8001399D01*
X18698601Y7889974D01*
X18698598Y7889970D01*
X18611052Y7758949D01*
X18611047Y7758940D01*
X18550743Y7613352D01*
X18550741Y7613344D01*
X18520000Y7458798D01*
X18520000Y7030000D01*
X19020000Y7030000D01*
X19020000Y6630000D01*
X18519999Y6630000D01*
X18498257Y6608258D01*
X18436934Y6574774D01*
X18367242Y6579759D01*
X18316563Y6617230D01*
X18316252Y6616918D01*
X18314172Y6618998D01*
X18312200Y6620456D01*
X18310505Y6622665D01*
X18212666Y6720504D01*
X18212661Y6720508D01*
X18092838Y6789687D01*
X18092834Y6789689D01*
X18086029Y6791512D01*
X18026370Y6827879D01*
X17995842Y6890727D01*
X18001085Y6952242D01*
X18002789Y6957114D01*
X18002793Y6957118D01*
X18047646Y7085301D01*
X18050500Y7115734D01*
X18050500Y8248400D01*
X18070185Y8315439D01*
X18122989Y8361194D01*
X18174500Y8372400D01*
X19001974Y8372400D01*
X19069013Y8352715D01*
G37*
%TD.AperFunction*%
%TA.AperFunction,Conductor*%
G36*
X19205703Y30839959D02*
G01*
X19212181Y30833927D01*
X20376579Y29669529D01*
X20376589Y29669518D01*
X20380919Y29665188D01*
X20380920Y29665187D01*
X20455487Y29590620D01*
X20455489Y29590619D01*
X20455493Y29590616D01*
X20517355Y29554900D01*
X20517357Y29554899D01*
X20546807Y29537896D01*
X20546808Y29537895D01*
X20546810Y29537895D01*
X20546813Y29537893D01*
X20648674Y29510599D01*
X20648677Y29510599D01*
X20761723Y29510599D01*
X20761739Y29510600D01*
X24151502Y29510600D01*
X24218541Y29490915D01*
X24239183Y29474281D01*
X24282884Y29430580D01*
X24282886Y29430579D01*
X24282890Y29430576D01*
X24410300Y29357017D01*
X24419816Y29351523D01*
X24572543Y29310600D01*
X24572545Y29310600D01*
X24730655Y29310600D01*
X24730657Y29310600D01*
X24883384Y29351523D01*
X25020316Y29430580D01*
X25132120Y29542384D01*
X25211177Y29679316D01*
X25252100Y29832043D01*
X25252100Y29832052D01*
X25253161Y29840103D01*
X25256267Y29839694D01*
X25271785Y29892539D01*
X25324589Y29938294D01*
X25376100Y29949500D01*
X26296245Y29949500D01*
X26363284Y29929815D01*
X26409039Y29877011D01*
X26418983Y29807853D01*
X26389958Y29744297D01*
X26383926Y29737819D01*
X25763422Y29117316D01*
X25763418Y29117310D01*
X25710692Y29025987D01*
X25710691Y29025985D01*
X25702011Y28993587D01*
X25702011Y28993585D01*
X25683400Y28924127D01*
X25683400Y27064598D01*
X25663715Y26997559D01*
X25647081Y26976917D01*
X25603381Y26933218D01*
X25603375Y26933210D01*
X25524326Y26796291D01*
X25524323Y26796284D01*
X25483400Y26643557D01*
X25483400Y26485443D01*
X25502963Y26412435D01*
X25524323Y26332717D01*
X25524326Y26332710D01*
X25603375Y26195791D01*
X25603379Y26195786D01*
X25603380Y26195784D01*
X25715184Y26083980D01*
X25715186Y26083979D01*
X25715190Y26083976D01*
X25852109Y26004927D01*
X25852116Y26004923D01*
X26004843Y25964000D01*
X26004845Y25964000D01*
X26111200Y25964000D01*
X26178239Y25944315D01*
X26223994Y25891511D01*
X26235200Y25840000D01*
X26235200Y18360574D01*
X26262493Y18258711D01*
X26279959Y18228460D01*
X26315220Y18167387D01*
X26315222Y18167385D01*
X27126181Y17356426D01*
X27159666Y17295103D01*
X27162500Y17268745D01*
X27162500Y9272942D01*
X27142815Y9205903D01*
X27090011Y9160148D01*
X27023728Y9149825D01*
X27018102Y9150500D01*
X26406898Y9150500D01*
X26389279Y9148385D01*
X26320371Y9159939D01*
X26268649Y9206913D01*
X26250500Y9271501D01*
X26250500Y12513479D01*
X26270185Y12580518D01*
X26322989Y12626273D01*
X26328990Y12628826D01*
X26422342Y12665639D01*
X26542922Y12757078D01*
X26634361Y12877658D01*
X26689877Y13018436D01*
X26700500Y13106898D01*
X26700500Y16193102D01*
X26689877Y16281564D01*
X26634361Y16422342D01*
X26634360Y16422343D01*
X26634360Y16422344D01*
X26542922Y16542923D01*
X26422343Y16634361D01*
X26281561Y16689878D01*
X26235926Y16695358D01*
X26193102Y16700500D01*
X25606898Y16700500D01*
X25567853Y16695812D01*
X25518438Y16689878D01*
X25377656Y16634361D01*
X25257077Y16542923D01*
X25165639Y16422344D01*
X25110122Y16281562D01*
X25109043Y16272574D01*
X25099500Y16193102D01*
X25099500Y13106898D01*
X25104455Y13065639D01*
X25110122Y13018439D01*
X25110122Y13018437D01*
X25110123Y13018436D01*
X25127722Y12973808D01*
X25165639Y12877657D01*
X25257077Y12757078D01*
X25300425Y12724207D01*
X25341948Y12668015D01*
X25349500Y12625403D01*
X25349500Y12350096D01*
X25329815Y12283057D01*
X25277011Y12237302D01*
X25207853Y12227358D01*
X25178048Y12235535D01*
X25054332Y12286779D01*
X25054322Y12286782D01*
X24918995Y12313700D01*
X24918993Y12313700D01*
X24781007Y12313700D01*
X24781005Y12313700D01*
X24645677Y12286782D01*
X24645667Y12286779D01*
X24518195Y12233979D01*
X24518182Y12233972D01*
X24403458Y12157315D01*
X24403454Y12157312D01*
X24305888Y12059746D01*
X24305885Y12059742D01*
X24229228Y11945018D01*
X24229221Y11945005D01*
X24176421Y11817533D01*
X24176418Y11817523D01*
X24149500Y11682196D01*
X24149500Y11682193D01*
X24149500Y11544207D01*
X24149500Y11544205D01*
X24149499Y11544205D01*
X24176418Y11408878D01*
X24176421Y11408868D01*
X24229222Y11281394D01*
X24229223Y11281392D01*
X24229375Y11281165D01*
X24229417Y11281029D01*
X24232094Y11276022D01*
X24231144Y11275515D01*
X24250256Y11214489D01*
X24231774Y11147108D01*
X24211836Y11125151D01*
X24213072Y11123915D01*
X24207074Y11117918D01*
X24115639Y10997344D01*
X24060122Y10856562D01*
X24057097Y10831369D01*
X24049500Y10768102D01*
X24049500Y9731898D01*
X24054628Y9689197D01*
X24060122Y9643439D01*
X24115639Y9502657D01*
X24207077Y9382078D01*
X24254800Y9345889D01*
X24327658Y9290639D01*
X24327663Y9290637D01*
X24333424Y9287397D01*
X24382212Y9237382D01*
X24396215Y9168929D01*
X24370986Y9103773D01*
X24347575Y9080507D01*
X24232077Y8992923D01*
X24140639Y8872344D01*
X24085122Y8731562D01*
X24082808Y8712289D01*
X24074500Y8643102D01*
X24074500Y8643097D01*
X24074500Y7954755D01*
X24054815Y7887716D01*
X24038181Y7867074D01*
X23728526Y7557419D01*
X23667203Y7523934D01*
X23640845Y7521100D01*
X22223974Y7521100D01*
X22156935Y7540785D01*
X22111180Y7593589D01*
X22101904Y7653107D01*
X22100279Y7653204D01*
X22100500Y7656896D01*
X22100500Y8643097D01*
X22100500Y8643102D01*
X22089877Y8731564D01*
X22034361Y8872342D01*
X22034360Y8872343D01*
X22034360Y8872344D01*
X21942922Y8992923D01*
X21822342Y9084361D01*
X21815650Y9087000D01*
X21760506Y9129905D01*
X21737312Y9195813D01*
X21753432Y9263797D01*
X21786212Y9301158D01*
X21892922Y9382078D01*
X21984361Y9502658D01*
X22039877Y9643436D01*
X22050500Y9731898D01*
X22050500Y10768102D01*
X22039877Y10856564D01*
X21984361Y10997342D01*
X21984360Y10997343D01*
X21984360Y10997344D01*
X21892922Y11117923D01*
X21772343Y11209361D01*
X21631561Y11264878D01*
X21585926Y11270358D01*
X21543102Y11275500D01*
X20956898Y11275500D01*
X20917853Y11270812D01*
X20868438Y11264878D01*
X20727656Y11209361D01*
X20607077Y11117923D01*
X20515639Y10997344D01*
X20460122Y10856562D01*
X20457097Y10831369D01*
X20449500Y10768102D01*
X20449500Y10768097D01*
X20449500Y10137965D01*
X20429815Y10070926D01*
X20413181Y10050284D01*
X19839713Y9476817D01*
X19839709Y9476811D01*
X19780401Y9374088D01*
X19780400Y9374083D01*
X19780399Y9374081D01*
X19778046Y9365301D01*
X19741679Y9305642D01*
X19678831Y9275116D01*
X19658273Y9273400D01*
X18756577Y9273400D01*
X18689538Y9293085D01*
X18643783Y9345889D01*
X18633839Y9415047D01*
X18634960Y9421592D01*
X18653800Y9516305D01*
X18653800Y9654296D01*
X18626881Y9789623D01*
X18626880Y9789624D01*
X18626880Y9789628D01*
X18625515Y9792923D01*
X18574078Y9917105D01*
X18574071Y9917118D01*
X18497414Y10031842D01*
X18497411Y10031846D01*
X18396746Y10132511D01*
X18363261Y10193834D01*
X18368245Y10263526D01*
X18369044Y10265609D01*
X18389877Y10318436D01*
X18400500Y10406898D01*
X18400500Y11393102D01*
X18389877Y11481564D01*
X18334361Y11622342D01*
X18334360Y11622343D01*
X18334360Y11622344D01*
X18242922Y11742923D01*
X18122343Y11834361D01*
X17981561Y11889878D01*
X17935926Y11895358D01*
X17893102Y11900500D01*
X17615898Y11900500D01*
X17548859Y11920185D01*
X17503104Y11972989D01*
X17493160Y12042147D01*
X17522185Y12105703D01*
X17528217Y12112181D01*
X17604620Y12188584D01*
X17683677Y12325516D01*
X17724600Y12478243D01*
X17724600Y12636357D01*
X17683677Y12789084D01*
X17632540Y12877657D01*
X17604624Y12926010D01*
X17604618Y12926018D01*
X17492817Y13037819D01*
X17492809Y13037825D01*
X17355890Y13116874D01*
X17355886Y13116876D01*
X17355884Y13116877D01*
X17203157Y13157800D01*
X17045043Y13157800D01*
X16892316Y13116877D01*
X16892309Y13116874D01*
X16755390Y13037825D01*
X16749988Y13033679D01*
X16684819Y13008484D01*
X16616374Y13022522D01*
X16566383Y13071335D01*
X16550500Y13132054D01*
X16550500Y13504270D01*
X16547646Y13534700D01*
X16547646Y13534702D01*
X16502793Y13662881D01*
X16502792Y13662883D01*
X16422150Y13772150D01*
X16312882Y13852793D01*
X16312880Y13852794D01*
X16184700Y13897647D01*
X16154270Y13900500D01*
X16154266Y13900500D01*
X15745734Y13900500D01*
X15745730Y13900500D01*
X15715300Y13897647D01*
X15715298Y13897647D01*
X15587119Y13852794D01*
X15587117Y13852793D01*
X15477850Y13772150D01*
X15397207Y13662883D01*
X15379144Y13611262D01*
X15338421Y13554486D01*
X15273468Y13528740D01*
X15204907Y13542197D01*
X15200104Y13544830D01*
X15061284Y13624977D01*
X15044512Y13629471D01*
X14908557Y13665900D01*
X14750443Y13665900D01*
X14750439Y13665900D01*
X14706969Y13654252D01*
X14637120Y13655916D01*
X14579258Y13695079D01*
X14575108Y13700394D01*
X14522151Y13772149D01*
X14493767Y13793097D01*
X14412882Y13852793D01*
X14412880Y13852794D01*
X14284700Y13897647D01*
X14254270Y13900500D01*
X14254266Y13900500D01*
X13845734Y13900500D01*
X13845730Y13900500D01*
X13815300Y13897647D01*
X13815298Y13897647D01*
X13687119Y13852794D01*
X13687117Y13852793D01*
X13577850Y13772150D01*
X13497207Y13662883D01*
X13497206Y13662881D01*
X13452353Y13534702D01*
X13452353Y13534700D01*
X13449500Y13504270D01*
X13449500Y12220731D01*
X13452353Y12190301D01*
X13452353Y12190299D01*
X13492078Y12076776D01*
X13497207Y12062118D01*
X13577850Y11952850D01*
X13687118Y11872207D01*
X13713182Y11863087D01*
X13815299Y11827354D01*
X13845730Y11824500D01*
X14175500Y11824500D01*
X14242539Y11804815D01*
X14288294Y11752011D01*
X14299500Y11700500D01*
X14299500Y8894500D01*
X14279815Y8827461D01*
X14227011Y8781706D01*
X14175500Y8770500D01*
X14139364Y8770500D01*
X14076802Y8761386D01*
X14066374Y8759866D01*
X14060320Y8756906D01*
X14054457Y8754040D01*
X13985584Y8742283D01*
X13945543Y8754040D01*
X13933625Y8759866D01*
X13860636Y8770500D01*
X13639364Y8770500D01*
X13576802Y8761386D01*
X13566374Y8759866D01*
X13560320Y8756906D01*
X13554457Y8754040D01*
X13485584Y8742283D01*
X13445543Y8754040D01*
X13433625Y8759866D01*
X13360636Y8770500D01*
X13139364Y8770500D01*
X13139363Y8770500D01*
X13134895Y8770176D01*
X13134762Y8772003D01*
X13073130Y8780785D01*
X13020269Y8826474D01*
X13000500Y8893488D01*
X13000500Y9023607D01*
X13000500Y9023609D01*
X12974965Y9118908D01*
X12974965Y9118909D01*
X12974965Y9118910D01*
X12969799Y9138186D01*
X12969799Y9138187D01*
X12957240Y9159939D01*
X12910489Y9240914D01*
X11986819Y10164584D01*
X11953334Y10225907D01*
X11950500Y10252265D01*
X11950500Y14591307D01*
X11950500Y14591309D01*
X11919799Y14705886D01*
X11919799Y14705887D01*
X11860489Y14808614D01*
X11860488Y14808615D01*
X11856425Y14815653D01*
X11858792Y14817021D01*
X11838429Y14869712D01*
X11838000Y14880015D01*
X11838000Y15951578D01*
X11857685Y16018617D01*
X11910489Y16064372D01*
X11979647Y16074316D01*
X12009448Y16066141D01*
X12193580Y15989870D01*
X12386088Y15951578D01*
X12396530Y15949501D01*
X12396534Y15949500D01*
X12396535Y15949500D01*
X12603466Y15949500D01*
X12603467Y15949501D01*
X12806420Y15989870D01*
X12997598Y16069059D01*
X13169655Y16184023D01*
X13315977Y16330345D01*
X13430941Y16502402D01*
X13510130Y16693580D01*
X13550500Y16896535D01*
X13550500Y17103465D01*
X13546446Y17123847D01*
X13512010Y17296971D01*
X13518237Y17366563D01*
X13545946Y17408843D01*
X13803259Y17666156D01*
X14197990Y18060886D01*
X14257299Y18163614D01*
X14269355Y18208608D01*
X14288000Y18278191D01*
X14288000Y18303900D01*
X14307685Y18370939D01*
X14360489Y18416694D01*
X14412000Y18427900D01*
X15997608Y18427900D01*
X15997609Y18427900D01*
X16087973Y18452114D01*
X16112187Y18458601D01*
X16214914Y18517911D01*
X16994290Y19297287D01*
X17053599Y19400014D01*
X17053600Y19400017D01*
X17060592Y19426111D01*
X17060592Y19426112D01*
X17071877Y19468230D01*
X17084300Y19514591D01*
X17084300Y20999235D01*
X17103985Y21066274D01*
X17120619Y21086916D01*
X19418319Y23384616D01*
X19479642Y23418101D01*
X19549334Y23413117D01*
X19605267Y23371245D01*
X19629684Y23305781D01*
X19630000Y23296935D01*
X19630000Y20608459D01*
X19610315Y20541420D01*
X19557511Y20495665D01*
X19488353Y20485721D01*
X19424797Y20514746D01*
X19402898Y20539569D01*
X19315980Y20669651D01*
X19315974Y20669659D01*
X19169657Y20815976D01*
X19083626Y20873459D01*
X18997598Y20930941D01*
X18806420Y21010130D01*
X18806412Y21010132D01*
X18603469Y21050500D01*
X18603465Y21050500D01*
X18396535Y21050500D01*
X18396530Y21050500D01*
X18193587Y21010132D01*
X18193579Y21010130D01*
X18002403Y20930942D01*
X17830342Y20815976D01*
X17684024Y20669658D01*
X17569058Y20497597D01*
X17489870Y20306421D01*
X17489868Y20306413D01*
X17449500Y20103470D01*
X17449500Y19896531D01*
X17487990Y19703031D01*
X17489870Y19693580D01*
X17569059Y19502402D01*
X17591892Y19468230D01*
X17612769Y19401553D01*
X17594284Y19334173D01*
X17557680Y19296238D01*
X17442258Y19219115D01*
X17442254Y19219112D01*
X17344688Y19121546D01*
X17344685Y19121542D01*
X17268028Y19006818D01*
X17268021Y19006805D01*
X17215221Y18879333D01*
X17215218Y18879323D01*
X17188300Y18743996D01*
X17188300Y18743993D01*
X17188300Y18606007D01*
X17188300Y18606005D01*
X17188299Y18606005D01*
X17215218Y18470678D01*
X17215221Y18470668D01*
X17268021Y18343196D01*
X17268028Y18343183D01*
X17344684Y18228460D01*
X17344685Y18228459D01*
X17344686Y18228458D01*
X17401982Y18171162D01*
X17435466Y18109841D01*
X17438300Y18083482D01*
X17438300Y14739391D01*
X17447278Y14705886D01*
X17460356Y14657077D01*
X17460356Y14657076D01*
X17468999Y14624816D01*
X17487799Y14592254D01*
X17528311Y14522086D01*
X17528313Y14522084D01*
X18163335Y13887062D01*
X18196820Y13825739D01*
X18199058Y13796808D01*
X18199500Y13796808D01*
X18199500Y13793102D01*
X18199500Y13181898D01*
X18202394Y13157800D01*
X18210122Y13093439D01*
X18265639Y12952657D01*
X18357077Y12832078D01*
X18477656Y12740640D01*
X18477657Y12740640D01*
X18477658Y12740639D01*
X18618436Y12685123D01*
X18706898Y12674500D01*
X18706903Y12674500D01*
X19693097Y12674500D01*
X19693102Y12674500D01*
X19781564Y12685123D01*
X19922342Y12740639D01*
X20042922Y12832078D01*
X20134361Y12952658D01*
X20189877Y13093436D01*
X20200500Y13181898D01*
X20200500Y13793102D01*
X20189877Y13881564D01*
X20134361Y14022342D01*
X20134360Y14022343D01*
X20134360Y14022344D01*
X20042922Y14142923D01*
X19922343Y14234361D01*
X19872295Y14254097D01*
X19794826Y14284647D01*
X19739685Y14327551D01*
X19716492Y14393459D01*
X19732612Y14461443D01*
X19782929Y14509920D01*
X19794814Y14515349D01*
X19922342Y14565639D01*
X20042922Y14657078D01*
X20134361Y14777658D01*
X20189877Y14918436D01*
X20200500Y15006898D01*
X20200500Y15618102D01*
X20199630Y15625343D01*
X20193909Y15672986D01*
X20205459Y15741894D01*
X20229340Y15775449D01*
X20350980Y15897087D01*
X20381112Y15949277D01*
X20403707Y15988413D01*
X20431000Y16090273D01*
X20431000Y18486470D01*
X20450685Y18553509D01*
X20503489Y18599264D01*
X20572647Y18609208D01*
X20636203Y18580183D01*
X20653805Y18561394D01*
X20657078Y18557078D01*
X20741442Y18493102D01*
X20777658Y18465639D01*
X20918436Y18410124D01*
X21006901Y18399500D01*
X22093098Y18399501D01*
X22181564Y18410124D01*
X22322342Y18465639D01*
X22442922Y18557078D01*
X22534361Y18677658D01*
X22589876Y18818436D01*
X22600500Y18906901D01*
X22600499Y21893098D01*
X22589876Y21981564D01*
X22534361Y22122342D01*
X22534359Y22122345D01*
X22442922Y22242923D01*
X22322344Y22334360D01*
X22322342Y22334361D01*
X22181564Y22389876D01*
X22181561Y22389877D01*
X22093099Y22400500D01*
X21319900Y22400500D01*
X21252861Y22420185D01*
X21207106Y22472989D01*
X21195900Y22524500D01*
X21195900Y23766902D01*
X21215585Y23833941D01*
X21232219Y23854583D01*
X21235654Y23858018D01*
X21275920Y23898284D01*
X21354977Y24035216D01*
X21395900Y24187943D01*
X21395900Y24346057D01*
X21354977Y24498784D01*
X21306667Y24582460D01*
X21275924Y24635710D01*
X21275918Y24635718D01*
X21164117Y24747519D01*
X21164109Y24747525D01*
X21027190Y24826574D01*
X21027186Y24826576D01*
X21027184Y24826577D01*
X20874457Y24867500D01*
X20716343Y24867500D01*
X20563616Y24826577D01*
X20563613Y24826576D01*
X20537197Y24811325D01*
X20469296Y24794855D01*
X20406264Y24816673D01*
X20406255Y24816657D01*
X20406173Y24816704D01*
X20403270Y24817709D01*
X20399712Y24820339D01*
X20399209Y24820725D01*
X20262290Y24899774D01*
X20262286Y24899776D01*
X20262284Y24899777D01*
X20109557Y24940700D01*
X19951443Y24940700D01*
X19943316Y24940700D01*
X19943316Y24943328D01*
X19887131Y24952099D01*
X19834883Y24998488D01*
X19816000Y25064264D01*
X19816000Y29481307D01*
X19816000Y29481309D01*
X19785299Y29595886D01*
X19779333Y29606220D01*
X19725990Y29698614D01*
X19383964Y30040640D01*
X19036665Y30387939D01*
X19003180Y30449262D01*
X19000943Y30478191D01*
X19000500Y30478191D01*
X19000500Y30746246D01*
X19020185Y30813285D01*
X19072989Y30859040D01*
X19142147Y30868984D01*
X19205703Y30839959D01*
G37*
%TD.AperFunction*%
%TA.AperFunction,Conductor*%
G36*
X5118834Y39137428D02*
G01*
X5174767Y39095556D01*
X5199184Y39030092D01*
X5199500Y39021246D01*
X5199500Y38045144D01*
X5199502Y38045118D01*
X5202413Y38020013D01*
X5202414Y38020012D01*
X5202414Y38020010D01*
X5202415Y38020009D01*
X5210492Y38001717D01*
X5231081Y37955086D01*
X5240152Y37885808D01*
X5231080Y37854915D01*
X5200108Y37784770D01*
X5155023Y37731394D01*
X5118769Y37715082D01*
X5024414Y37689799D01*
X5024412Y37689799D01*
X5024412Y37689798D01*
X4921687Y37630489D01*
X4921684Y37630487D01*
X4837813Y37546616D01*
X4837811Y37546613D01*
X4791097Y37465702D01*
X4778501Y37443886D01*
X4747800Y37329309D01*
X4747800Y37329307D01*
X4747800Y36748445D01*
X4728115Y36681406D01*
X4675311Y36635651D01*
X4606153Y36625707D01*
X4576349Y36633883D01*
X4560601Y36640406D01*
X4537728Y36649880D01*
X4537726Y36649881D01*
X4537722Y36649882D01*
X4402395Y36676800D01*
X4402393Y36676800D01*
X4264407Y36676800D01*
X4264405Y36676800D01*
X4129077Y36649882D01*
X4129067Y36649879D01*
X4001595Y36597079D01*
X4001582Y36597072D01*
X3886858Y36520415D01*
X3886854Y36520412D01*
X3789288Y36422846D01*
X3789285Y36422842D01*
X3712628Y36308118D01*
X3712621Y36308105D01*
X3659821Y36180633D01*
X3659818Y36180623D01*
X3632900Y36045296D01*
X3632900Y36045293D01*
X3632900Y35907307D01*
X3632900Y35907305D01*
X3632899Y35907305D01*
X3659818Y35771978D01*
X3659821Y35771968D01*
X3712621Y35644496D01*
X3712628Y35644483D01*
X3789285Y35529759D01*
X3789288Y35529755D01*
X3886854Y35432189D01*
X3886858Y35432186D01*
X4001582Y35355529D01*
X4001594Y35355522D01*
X4079392Y35323298D01*
X4110452Y35310433D01*
X4164856Y35266593D01*
X4186921Y35200299D01*
X4187000Y35195872D01*
X4187000Y29174274D01*
X4167315Y29107235D01*
X4114511Y29061480D01*
X4073546Y29051556D01*
X4073620Y29050771D01*
X4040300Y29047647D01*
X4040298Y29047647D01*
X3912119Y29002794D01*
X3912117Y29002793D01*
X3802850Y28922150D01*
X3722207Y28812883D01*
X3722206Y28812881D01*
X3677353Y28684702D01*
X3677353Y28684700D01*
X3674500Y28654270D01*
X3674500Y28245731D01*
X3677353Y28215301D01*
X3677353Y28215299D01*
X3720447Y28092147D01*
X3722207Y28087118D01*
X3802850Y27977850D01*
X3912118Y27897207D01*
X3954845Y27882256D01*
X4040299Y27852354D01*
X4070730Y27849500D01*
X4070734Y27849500D01*
X4205235Y27849500D01*
X4272274Y27829815D01*
X4292916Y27813181D01*
X4506381Y27599716D01*
X4539866Y27538393D01*
X4542700Y27512035D01*
X4542700Y27431007D01*
X4542700Y27431005D01*
X4542699Y27431005D01*
X4569019Y27298692D01*
X4562792Y27229100D01*
X4519929Y27173923D01*
X4454039Y27150678D01*
X4447402Y27150500D01*
X4070730Y27150500D01*
X4040300Y27147647D01*
X4040298Y27147647D01*
X3912119Y27102794D01*
X3912117Y27102793D01*
X3802850Y27022150D01*
X3722207Y26912883D01*
X3722206Y26912881D01*
X3677353Y26784702D01*
X3677353Y26784700D01*
X3674500Y26754270D01*
X3674500Y26345731D01*
X3677353Y26315301D01*
X3677353Y26315299D01*
X3719175Y26195783D01*
X3722207Y26187118D01*
X3802850Y26077850D01*
X3912118Y25997207D01*
X3951696Y25983358D01*
X4040299Y25952354D01*
X4070730Y25949500D01*
X4070734Y25949500D01*
X5204270Y25949500D01*
X5234699Y25952354D01*
X5234701Y25952354D01*
X5298790Y25974781D01*
X5362882Y25997207D01*
X5472150Y26077850D01*
X5552793Y26187118D01*
X5575219Y26251210D01*
X5597646Y26315299D01*
X5597646Y26315301D01*
X5600500Y26345731D01*
X5600500Y26754270D01*
X5597647Y26784690D01*
X5597646Y26784692D01*
X5597646Y26784699D01*
X5597643Y26784707D01*
X5596036Y26792065D01*
X5597791Y26792449D01*
X5594715Y26852663D01*
X5629442Y26913292D01*
X5646426Y26926944D01*
X5689742Y26955886D01*
X5747038Y27013183D01*
X5808359Y27046666D01*
X5834718Y27049500D01*
X6850500Y27049500D01*
X6917539Y27029815D01*
X6963294Y26977011D01*
X6974500Y26925500D01*
X6974500Y26756898D01*
X6979916Y26711797D01*
X6985122Y26668439D01*
X7040639Y26527657D01*
X7132077Y26407078D01*
X7252656Y26315640D01*
X7252657Y26315640D01*
X7252658Y26315639D01*
X7393436Y26260123D01*
X7481898Y26249500D01*
X7481903Y26249500D01*
X8518097Y26249500D01*
X8518102Y26249500D01*
X8606564Y26260123D01*
X8747342Y26315639D01*
X8867922Y26407078D01*
X8959361Y26527658D01*
X9014877Y26668436D01*
X9025500Y26756898D01*
X9025500Y27343102D01*
X9014877Y27431564D01*
X8959361Y27572342D01*
X8959360Y27572343D01*
X8959360Y27572344D01*
X8867922Y27692923D01*
X8747343Y27784361D01*
X8606561Y27839878D01*
X8560926Y27845358D01*
X8518102Y27850500D01*
X8518097Y27850500D01*
X7877141Y27850500D01*
X7815141Y27867113D01*
X7723887Y27919799D01*
X7679049Y27931813D01*
X7679046Y27931814D01*
X7649572Y27939712D01*
X7609309Y27950500D01*
X7609308Y27950500D01*
X6073813Y27950500D01*
X6006774Y27970185D01*
X5961019Y28022989D01*
X5951075Y28092147D01*
X5980100Y28155703D01*
X6038878Y28193477D01*
X6041686Y28194266D01*
X6071384Y28202223D01*
X6208316Y28281280D01*
X6320120Y28393084D01*
X6399177Y28530016D01*
X6440100Y28682743D01*
X6440100Y28840857D01*
X6399177Y28993584D01*
X6399173Y28993591D01*
X6320124Y29130510D01*
X6320118Y29130518D01*
X6208317Y29242319D01*
X6208309Y29242325D01*
X6071390Y29321374D01*
X6071386Y29321376D01*
X6071384Y29321377D01*
X5958874Y29351524D01*
X5918650Y29362302D01*
X5911493Y29363244D01*
X5847597Y29391513D01*
X5840002Y29398501D01*
X5685119Y29553384D01*
X5651634Y29614707D01*
X5648800Y29641065D01*
X5648800Y30772702D01*
X5668485Y30839741D01*
X5721289Y30885496D01*
X5790447Y30895440D01*
X5854003Y30866415D01*
X5860481Y30860383D01*
X5902384Y30818480D01*
X5902386Y30818479D01*
X5902390Y30818476D01*
X6027498Y30746246D01*
X6039316Y30739423D01*
X6192043Y30698500D01*
X6192045Y30698500D01*
X6350155Y30698500D01*
X6350157Y30698500D01*
X6502884Y30739423D01*
X6639816Y30818480D01*
X6751620Y30930284D01*
X6768112Y30958851D01*
X6818679Y31007066D01*
X6887286Y31020290D01*
X6952151Y30994322D01*
X6992680Y30937409D01*
X6999500Y30896851D01*
X6999500Y30706664D01*
X6979815Y30639625D01*
X6927011Y30593870D01*
X6907597Y30586891D01*
X6881931Y30580013D01*
X6825814Y30564977D01*
X6825809Y30564974D01*
X6688890Y30485925D01*
X6688882Y30485919D01*
X6577081Y30374118D01*
X6577075Y30374110D01*
X6498026Y30237191D01*
X6498023Y30237184D01*
X6457100Y30084457D01*
X6457100Y29926343D01*
X6488850Y29807853D01*
X6498023Y29773617D01*
X6498026Y29773610D01*
X6577075Y29636691D01*
X6577079Y29636686D01*
X6577080Y29636684D01*
X6688884Y29524880D01*
X6688886Y29524879D01*
X6688890Y29524876D01*
X6790189Y29466392D01*
X6825816Y29445823D01*
X6978543Y29404900D01*
X6978545Y29404900D01*
X7136655Y29404900D01*
X7136657Y29404900D01*
X7289384Y29445823D01*
X7426316Y29524880D01*
X7538120Y29636684D01*
X7617177Y29773616D01*
X7632247Y29829861D01*
X7664342Y29885449D01*
X7717076Y29938182D01*
X7778399Y29971666D01*
X7804756Y29974500D01*
X8493097Y29974500D01*
X8493102Y29974500D01*
X8581564Y29985123D01*
X8722342Y30040639D01*
X8842922Y30132078D01*
X8934361Y30252658D01*
X8984646Y30380174D01*
X9027551Y30435315D01*
X9093459Y30458508D01*
X9161443Y30442388D01*
X9209920Y30392071D01*
X9215348Y30380186D01*
X9235237Y30329752D01*
X9265639Y30252657D01*
X9357077Y30132078D01*
X9477656Y30040640D01*
X9477657Y30040640D01*
X9477658Y30040639D01*
X9618436Y29985123D01*
X9706898Y29974500D01*
X10336300Y29974500D01*
X10403339Y29954815D01*
X10449094Y29902011D01*
X10459170Y29855694D01*
X10459239Y29855703D01*
X10459347Y29854878D01*
X10460300Y29850500D01*
X10460300Y29847643D01*
X10487992Y29744297D01*
X10501223Y29694917D01*
X10501226Y29694910D01*
X10580275Y29557991D01*
X10580279Y29557986D01*
X10580280Y29557984D01*
X10692084Y29446180D01*
X10692086Y29446179D01*
X10692090Y29446176D01*
X10774667Y29398501D01*
X10829016Y29367123D01*
X10981743Y29326200D01*
X10981745Y29326200D01*
X11139855Y29326200D01*
X11139857Y29326200D01*
X11292584Y29367123D01*
X11429516Y29446180D01*
X11541320Y29557984D01*
X11620377Y29694916D01*
X11661300Y29847643D01*
X11661300Y29865599D01*
X11680985Y29932638D01*
X11733789Y29978393D01*
X11802947Y29988337D01*
X11815693Y29985816D01*
X11818432Y29985124D01*
X11818434Y29985124D01*
X11818436Y29985123D01*
X11906898Y29974500D01*
X11906903Y29974500D01*
X12893097Y29974500D01*
X12893102Y29974500D01*
X12981564Y29985123D01*
X13122342Y30040639D01*
X13242922Y30132078D01*
X13334361Y30252658D01*
X13389877Y30393436D01*
X13400500Y30481898D01*
X13400500Y31093102D01*
X13393909Y31147987D01*
X13405459Y31216894D01*
X13429343Y31250451D01*
X13543775Y31364882D01*
X13605098Y31398366D01*
X13631455Y31401200D01*
X13825500Y31401200D01*
X13892539Y31381515D01*
X13938294Y31328711D01*
X13949500Y31277200D01*
X13949500Y30605144D01*
X13949502Y30605118D01*
X13952413Y30580013D01*
X13952415Y30580009D01*
X13997793Y30477236D01*
X14085360Y30389669D01*
X14082921Y30387231D01*
X14114755Y30348241D01*
X14124500Y30300056D01*
X14124500Y23516700D01*
X14104815Y23449661D01*
X14052011Y23403906D01*
X14000500Y23392700D01*
X7382891Y23392700D01*
X7292525Y23368487D01*
X7292524Y23368488D01*
X7268316Y23362001D01*
X7268313Y23362000D01*
X7165586Y23302689D01*
X7165583Y23302687D01*
X6749716Y22886819D01*
X6688393Y22853334D01*
X6662035Y22850500D01*
X6156898Y22850500D01*
X6117853Y22845812D01*
X6068438Y22839878D01*
X5927656Y22784361D01*
X5807077Y22692923D01*
X5715638Y22572342D01*
X5715637Y22572340D01*
X5698550Y22529010D01*
X5655644Y22473866D01*
X5589736Y22450673D01*
X5583196Y22450500D01*
X5187965Y22450500D01*
X5120926Y22470185D01*
X5100284Y22486819D01*
X3386819Y24200284D01*
X3353334Y24261607D01*
X3350500Y24287965D01*
X3350500Y24918097D01*
X3350500Y24918102D01*
X3339877Y25006564D01*
X3284361Y25147342D01*
X3284360Y25147343D01*
X3284360Y25147344D01*
X3192922Y25267923D01*
X3072343Y25359361D01*
X2931559Y25414879D01*
X2922212Y25416001D01*
X2857999Y25443540D01*
X2818868Y25501424D01*
X2813000Y25539116D01*
X2813000Y25825727D01*
X2832685Y25892766D01*
X2885489Y25938521D01*
X2926455Y25948424D01*
X2926380Y25949229D01*
X2959699Y25952354D01*
X2959701Y25952354D01*
X3023790Y25974781D01*
X3087882Y25997207D01*
X3197150Y26077850D01*
X3277793Y26187118D01*
X3300219Y26251210D01*
X3322646Y26315299D01*
X3322646Y26315301D01*
X3325500Y26345731D01*
X3325500Y26754270D01*
X3322646Y26784700D01*
X3322646Y26784702D01*
X3289006Y26880837D01*
X3277793Y26912882D01*
X3197150Y27022150D01*
X3087882Y27102793D01*
X3087880Y27102794D01*
X2959700Y27147647D01*
X2929270Y27150500D01*
X2929266Y27150500D01*
X1922800Y27150500D01*
X1855761Y27170185D01*
X1810006Y27222989D01*
X1798800Y27274500D01*
X1798800Y27689935D01*
X1818485Y27756974D01*
X1835119Y27777616D01*
X1870684Y27813181D01*
X1932007Y27846666D01*
X1958365Y27849500D01*
X2929270Y27849500D01*
X2959699Y27852354D01*
X2959701Y27852354D01*
X3023790Y27874781D01*
X3087882Y27897207D01*
X3197150Y27977850D01*
X3277793Y28087118D01*
X3303750Y28161300D01*
X3322646Y28215299D01*
X3322646Y28215301D01*
X3325500Y28245731D01*
X3325500Y28654270D01*
X3322646Y28684700D01*
X3322646Y28684702D01*
X3277793Y28812881D01*
X3277792Y28812883D01*
X3257148Y28840855D01*
X3197150Y28922150D01*
X3087882Y29002793D01*
X3087880Y29002794D01*
X2959700Y29047647D01*
X2929270Y29050500D01*
X2929266Y29050500D01*
X1795734Y29050500D01*
X1786751Y29049658D01*
X1775342Y29048588D01*
X1706758Y29061930D01*
X1656274Y29110232D01*
X1639919Y29178161D01*
X1656381Y29234047D01*
X1727377Y29357016D01*
X1768300Y29509743D01*
X1768300Y29632322D01*
X1772524Y29664411D01*
X1773007Y29666213D01*
X1776912Y29680787D01*
X1780697Y29694910D01*
X1793930Y29744297D01*
X1800301Y29768073D01*
X1800301Y29873527D01*
X1800301Y29881122D01*
X1800300Y29881140D01*
X1800300Y34600252D01*
X1819985Y34667291D01*
X1849373Y34699055D01*
X1892922Y34732078D01*
X1984361Y34852658D01*
X2039877Y34993436D01*
X2050500Y35081898D01*
X2050500Y35782746D01*
X2070185Y35849785D01*
X2086819Y35870427D01*
X2979573Y36763181D01*
X3040896Y36796666D01*
X3067254Y36799500D01*
X3418097Y36799500D01*
X3418102Y36799500D01*
X3506564Y36810123D01*
X3647342Y36865639D01*
X3767922Y36957078D01*
X3859361Y37077658D01*
X3914877Y37218436D01*
X3925500Y37306898D01*
X3925500Y37995246D01*
X3945185Y38062285D01*
X3961814Y38082922D01*
X4987819Y39108928D01*
X5049142Y39142412D01*
X5118834Y39137428D01*
G37*
%TD.AperFunction*%
%TA.AperFunction,Conductor*%
G36*
X25980323Y41227119D02*
G01*
X25987072Y41224374D01*
X26030009Y41205415D01*
X26055135Y41202500D01*
X26744864Y41202501D01*
X26744879Y41202503D01*
X26744882Y41202503D01*
X26769987Y41205414D01*
X26769987Y41205415D01*
X26769991Y41205415D01*
X26799913Y41218628D01*
X26869190Y41227699D01*
X26900086Y41218627D01*
X26930007Y41205416D01*
X26930009Y41205415D01*
X26955135Y41202500D01*
X27475500Y41202501D01*
X27542539Y41182817D01*
X27588294Y41130013D01*
X27599500Y41078501D01*
X27599500Y40636144D01*
X27599502Y40636118D01*
X27602413Y40611013D01*
X27602415Y40611009D01*
X27647793Y40508236D01*
X27647794Y40508235D01*
X27727235Y40428794D01*
X27830009Y40383415D01*
X27855135Y40380500D01*
X28544864Y40380501D01*
X28544879Y40380503D01*
X28544882Y40380503D01*
X28569985Y40383414D01*
X28569987Y40383415D01*
X28569991Y40383415D01*
X28593316Y40393715D01*
X28662591Y40402787D01*
X28705398Y40387670D01*
X28738216Y40368723D01*
X28890943Y40327800D01*
X28890945Y40327800D01*
X29049055Y40327800D01*
X29049057Y40327800D01*
X29201784Y40368723D01*
X29313500Y40433223D01*
X29381400Y40449695D01*
X29447427Y40426842D01*
X29490618Y40371921D01*
X29499500Y40325835D01*
X29499500Y29624500D01*
X29479815Y29557461D01*
X29427011Y29511706D01*
X29375500Y29500500D01*
X27578754Y29500500D01*
X27511715Y29520185D01*
X27465960Y29572989D01*
X27456016Y29642147D01*
X27485041Y29705703D01*
X27491073Y29712181D01*
X27717073Y29938181D01*
X27778396Y29971666D01*
X27804754Y29974500D01*
X28493097Y29974500D01*
X28493102Y29974500D01*
X28581564Y29985123D01*
X28722342Y30040639D01*
X28842922Y30132078D01*
X28934361Y30252658D01*
X28989877Y30393436D01*
X29000500Y30481898D01*
X29000500Y31093102D01*
X28989877Y31181564D01*
X28934361Y31322342D01*
X28934360Y31322343D01*
X28934360Y31322344D01*
X28842922Y31442923D01*
X28722343Y31534361D01*
X28684339Y31549348D01*
X28594826Y31584647D01*
X28539685Y31627551D01*
X28516492Y31693459D01*
X28532612Y31761443D01*
X28582929Y31809920D01*
X28594814Y31815349D01*
X28722342Y31865639D01*
X28842922Y31957078D01*
X28934361Y32077658D01*
X28989877Y32218436D01*
X29000500Y32306898D01*
X29000500Y32918102D01*
X28989877Y33006564D01*
X28934361Y33147342D01*
X28934360Y33147343D01*
X28934360Y33147344D01*
X28842922Y33267923D01*
X28722343Y33359361D01*
X28581561Y33414878D01*
X28535926Y33420358D01*
X28493102Y33425500D01*
X27506898Y33425500D01*
X27467853Y33420812D01*
X27418438Y33414878D01*
X27277656Y33359361D01*
X27157077Y33267923D01*
X27065639Y33147344D01*
X27010122Y33006562D01*
X27005094Y32964686D01*
X26999500Y32918102D01*
X26999500Y32306898D01*
X27006091Y32252016D01*
X26994539Y32183108D01*
X26970656Y32149551D01*
X26407925Y31586819D01*
X26346602Y31553334D01*
X26320244Y31550500D01*
X26318102Y31550500D01*
X25281898Y31550500D01*
X25242853Y31545812D01*
X25193438Y31539878D01*
X25052656Y31484361D01*
X24932077Y31392923D01*
X24840638Y31272342D01*
X24840637Y31272340D01*
X24823550Y31229010D01*
X24780644Y31173866D01*
X24714736Y31150673D01*
X24708196Y31150500D01*
X24686521Y31150500D01*
X24619482Y31170185D01*
X24573727Y31222989D01*
X24571174Y31228991D01*
X24534361Y31322342D01*
X24534360Y31322343D01*
X24534360Y31322344D01*
X24442922Y31442923D01*
X24322343Y31534361D01*
X24194831Y31584645D01*
X24181564Y31589877D01*
X24181563Y31589878D01*
X24181561Y31589878D01*
X24135926Y31595358D01*
X24093102Y31600500D01*
X24093097Y31600500D01*
X23404755Y31600500D01*
X23337716Y31620185D01*
X23317074Y31636819D01*
X22988219Y31965674D01*
X22954734Y32026997D01*
X22951900Y32053355D01*
X22951900Y32860945D01*
X22971585Y32927984D01*
X22988219Y32948626D01*
X22994213Y32954620D01*
X23068780Y33029187D01*
X23121507Y33120513D01*
X23125328Y33134773D01*
X23126177Y33137939D01*
X23143397Y33202206D01*
X23148801Y33222373D01*
X23148801Y33327827D01*
X23148801Y33335422D01*
X23148800Y33335440D01*
X23148800Y35125501D01*
X23168485Y35192540D01*
X23221289Y35238295D01*
X23272800Y35249501D01*
X24227200Y35249501D01*
X24294239Y35229816D01*
X24339994Y35177012D01*
X24351200Y35125501D01*
X24351200Y33906398D01*
X24331515Y33839359D01*
X24314881Y33818717D01*
X24271181Y33775018D01*
X24271175Y33775010D01*
X24192126Y33638091D01*
X24192123Y33638084D01*
X24151200Y33485357D01*
X24151200Y33327243D01*
X24179300Y33222375D01*
X24192123Y33174517D01*
X24192126Y33174510D01*
X24271175Y33037591D01*
X24271179Y33037586D01*
X24271180Y33037584D01*
X24382984Y32925780D01*
X24382986Y32925779D01*
X24382990Y32925776D01*
X24519909Y32846727D01*
X24519916Y32846723D01*
X24672643Y32805800D01*
X24672645Y32805800D01*
X24830755Y32805800D01*
X24830757Y32805800D01*
X24983484Y32846723D01*
X25120416Y32925780D01*
X25232220Y33037584D01*
X25311277Y33174516D01*
X25352200Y33327243D01*
X25352200Y33485357D01*
X25311277Y33638084D01*
X25307200Y33645146D01*
X25232224Y33775010D01*
X25232218Y33775018D01*
X25188519Y33818717D01*
X25155034Y33880040D01*
X25152200Y33906398D01*
X25152200Y36052725D01*
X25152200Y36052727D01*
X25124907Y36154587D01*
X25072180Y36245913D01*
X25020874Y36297219D01*
X24987389Y36358542D01*
X24992373Y36428234D01*
X25034245Y36484167D01*
X25099709Y36508584D01*
X25108555Y36508900D01*
X25181727Y36508900D01*
X25565700Y36508900D01*
X25632739Y36489215D01*
X25678494Y36436411D01*
X25682258Y36425701D01*
X25740639Y36277657D01*
X25832077Y36157078D01*
X25952656Y36065640D01*
X25952657Y36065640D01*
X25952658Y36065639D01*
X26093436Y36010123D01*
X26181898Y35999500D01*
X26181903Y35999500D01*
X26793097Y35999500D01*
X26793102Y35999500D01*
X26881564Y36010123D01*
X27022342Y36065639D01*
X27142922Y36157078D01*
X27234361Y36277658D01*
X27289877Y36418436D01*
X27300500Y36506898D01*
X27300500Y37493102D01*
X27289877Y37581564D01*
X27234361Y37722342D01*
X27234360Y37722343D01*
X27234360Y37722344D01*
X27142921Y37842923D01*
X27110916Y37867194D01*
X27069393Y37923386D01*
X27064842Y37993108D01*
X27066057Y37998052D01*
X27088000Y38079943D01*
X27088000Y38238057D01*
X27047077Y38390784D01*
X27015011Y38446325D01*
X26968024Y38527710D01*
X26968018Y38527718D01*
X26856217Y38639519D01*
X26856209Y38639525D01*
X26719290Y38718574D01*
X26719286Y38718576D01*
X26719284Y38718577D01*
X26566557Y38759500D01*
X26408443Y38759500D01*
X26255716Y38718577D01*
X26255709Y38718574D01*
X26118790Y38639525D01*
X26118782Y38639519D01*
X26006979Y38527716D01*
X25998187Y38512486D01*
X25947620Y38464271D01*
X25879012Y38451049D01*
X25814148Y38477017D01*
X25773620Y38533931D01*
X25766800Y38574487D01*
X25766800Y39749309D01*
X26849500Y39749309D01*
X26849500Y39630691D01*
X26880201Y39516114D01*
X26939511Y39413387D01*
X27023387Y39329511D01*
X27126114Y39270201D01*
X27240691Y39239500D01*
X27240694Y39239500D01*
X27359306Y39239500D01*
X27359309Y39239500D01*
X27473886Y39270201D01*
X27576613Y39329511D01*
X27660489Y39413387D01*
X27719799Y39516114D01*
X27750500Y39630691D01*
X27750500Y39749309D01*
X27719799Y39863886D01*
X27660489Y39966613D01*
X27576613Y40050489D01*
X27473886Y40109799D01*
X27359309Y40140500D01*
X27240691Y40140500D01*
X27126114Y40109799D01*
X27126112Y40109799D01*
X27126112Y40109798D01*
X27023387Y40050489D01*
X27023384Y40050487D01*
X26939513Y39966616D01*
X26939511Y39966613D01*
X26880201Y39863886D01*
X26849500Y39749309D01*
X25766800Y39749309D01*
X25766800Y41064745D01*
X25786485Y41131784D01*
X25803118Y41152425D01*
X25808267Y41157574D01*
X25849311Y41198619D01*
X25910632Y41232103D01*
X25980323Y41227119D01*
G37*
%TD.AperFunction*%
%TA.AperFunction,Conductor*%
G36*
X29442539Y53980315D02*
G01*
X29488294Y53927511D01*
X29499500Y53876000D01*
X29499500Y41530766D01*
X29479815Y41463727D01*
X29427011Y41417972D01*
X29357853Y41408028D01*
X29313501Y41423378D01*
X29201784Y41487877D01*
X29049057Y41528800D01*
X28924499Y41528800D01*
X28857460Y41548485D01*
X28811705Y41601289D01*
X28800499Y41652800D01*
X28800499Y42069857D01*
X28800499Y42069864D01*
X28798111Y42090456D01*
X28797586Y42094988D01*
X28797585Y42094990D01*
X28797585Y42094991D01*
X28752206Y42197765D01*
X28672765Y42277206D01*
X28569992Y42322585D01*
X28544868Y42325500D01*
X28544865Y42325500D01*
X28387454Y42325500D01*
X28320415Y42345185D01*
X28299773Y42361819D01*
X27426019Y43235574D01*
X27392534Y43296897D01*
X27389700Y43323255D01*
X27389700Y44859446D01*
X27409385Y44926485D01*
X27426015Y44947123D01*
X27849550Y45370659D01*
X27910871Y45404142D01*
X27952012Y45406091D01*
X27988049Y45401764D01*
X28006897Y45399500D01*
X28006898Y45399500D01*
X28618097Y45399500D01*
X28618102Y45399500D01*
X28706564Y45410123D01*
X28847342Y45465639D01*
X28967922Y45557078D01*
X29059361Y45677658D01*
X29114877Y45818436D01*
X29125500Y45906898D01*
X29125500Y46893102D01*
X29114877Y46981564D01*
X29059361Y47122342D01*
X29059360Y47122343D01*
X29059360Y47122344D01*
X28967922Y47242923D01*
X28847343Y47334361D01*
X28706561Y47389878D01*
X28660926Y47395358D01*
X28618102Y47400500D01*
X28006898Y47400500D01*
X27967853Y47395812D01*
X27918438Y47389878D01*
X27777656Y47334361D01*
X27657077Y47242923D01*
X27565638Y47122342D01*
X27515353Y46994829D01*
X27472447Y46939686D01*
X27406539Y46916493D01*
X27338555Y46932614D01*
X27290078Y46982931D01*
X27284652Y46994813D01*
X27248744Y47085868D01*
X27240100Y47131355D01*
X27240100Y47336102D01*
X27259785Y47403141D01*
X27276419Y47423783D01*
X27320120Y47467484D01*
X27399177Y47604416D01*
X27440100Y47757143D01*
X27440100Y47835132D01*
X27459785Y47902171D01*
X27512589Y47947926D01*
X27539909Y47956749D01*
X27567160Y47962170D01*
X27706420Y47989870D01*
X27897598Y48069059D01*
X28069655Y48184023D01*
X28215977Y48330345D01*
X28330941Y48502402D01*
X28410130Y48693580D01*
X28450500Y48896535D01*
X28450500Y49103465D01*
X28410130Y49306420D01*
X28330941Y49497598D01*
X28215977Y49669655D01*
X28215975Y49669658D01*
X28069657Y49815976D01*
X27983626Y49873459D01*
X27897598Y49930941D01*
X27706420Y50010130D01*
X27706412Y50010132D01*
X27503469Y50050500D01*
X27503465Y50050500D01*
X27296535Y50050500D01*
X27296530Y50050500D01*
X27093587Y50010132D01*
X27093579Y50010130D01*
X26902403Y49930942D01*
X26730342Y49815976D01*
X26584024Y49669658D01*
X26469058Y49497597D01*
X26389870Y49306421D01*
X26389868Y49306413D01*
X26349500Y49103470D01*
X26349500Y49103466D01*
X26349500Y49103465D01*
X26349500Y48896535D01*
X26349501Y48896531D01*
X26370405Y48791434D01*
X26364176Y48721842D01*
X26336468Y48679563D01*
X25523726Y47866819D01*
X25462403Y47833334D01*
X25436045Y47830500D01*
X24921893Y47830500D01*
X24912580Y47833235D01*
X24902961Y47831954D01*
X24879606Y47842917D01*
X24854854Y47850185D01*
X24848499Y47857519D01*
X24839713Y47861643D01*
X24825991Y47883495D01*
X24809099Y47902989D01*
X24806727Y47914171D01*
X24802556Y47920814D01*
X24798718Y47940217D01*
X24797824Y47947926D01*
X24797585Y47949991D01*
X24768919Y48014914D01*
X24759847Y48084192D01*
X24768919Y48115087D01*
X24797584Y48180007D01*
X24797585Y48180009D01*
X24800500Y48205135D01*
X24800500Y48205150D01*
X24800706Y48208704D01*
X24800912Y48208693D01*
X24800913Y48208694D01*
X24800946Y48208691D01*
X24801740Y48208645D01*
X24810519Y48237423D01*
X24820185Y48270339D01*
X24820695Y48270782D01*
X24820893Y48271429D01*
X24847108Y48293669D01*
X24872989Y48316094D01*
X24873951Y48316440D01*
X24874173Y48316628D01*
X24874651Y48316692D01*
X24892399Y48323072D01*
X24906287Y48326793D01*
X24997613Y48379520D01*
X25072180Y48454087D01*
X25124907Y48545413D01*
X25152200Y48647273D01*
X25152200Y49134447D01*
X25171885Y49201486D01*
X25188514Y49222123D01*
X26937896Y50971506D01*
X26999217Y51004989D01*
X27068909Y51000005D01*
X27072969Y50998408D01*
X27093580Y50989870D01*
X27296530Y50949501D01*
X27296534Y50949500D01*
X27296535Y50949500D01*
X27503466Y50949500D01*
X27503467Y50949501D01*
X27706420Y50989870D01*
X27897598Y51069059D01*
X28069655Y51184023D01*
X28215977Y51330345D01*
X28330941Y51502402D01*
X28410130Y51693580D01*
X28450500Y51896535D01*
X28450500Y52103465D01*
X28410130Y52306420D01*
X28330941Y52497598D01*
X28215977Y52669655D01*
X28215975Y52669658D01*
X28069657Y52815976D01*
X27983626Y52873459D01*
X27897598Y52930941D01*
X27706420Y53010130D01*
X27706412Y53010132D01*
X27503469Y53050500D01*
X27503465Y53050500D01*
X27296535Y53050500D01*
X27296530Y53050500D01*
X27093587Y53010132D01*
X27093579Y53010130D01*
X26902403Y52930942D01*
X26730342Y52815976D01*
X26584024Y52669658D01*
X26469058Y52497597D01*
X26389870Y52306421D01*
X26389868Y52306413D01*
X26349500Y52103470D01*
X26349500Y51896531D01*
X26389867Y51693588D01*
X26389870Y51693580D01*
X26398383Y51673027D01*
X26405850Y51603558D01*
X26374574Y51541079D01*
X26371502Y51537896D01*
X25012180Y50178574D01*
X24950857Y50145089D01*
X24881165Y50150073D01*
X24825232Y50191945D01*
X24800815Y50257409D01*
X24800499Y50266255D01*
X24800499Y50464857D01*
X24800499Y50464864D01*
X24800497Y50464883D01*
X24797586Y50489988D01*
X24797585Y50489990D01*
X24797585Y50489991D01*
X24768919Y50554914D01*
X24759847Y50624192D01*
X24768919Y50655087D01*
X24790168Y50703210D01*
X24797585Y50720009D01*
X24800500Y50745135D01*
X24800499Y51734864D01*
X24800497Y51734883D01*
X24797586Y51759988D01*
X24797585Y51759990D01*
X24797585Y51759991D01*
X24752206Y51862765D01*
X24672765Y51942206D01*
X24672763Y51942207D01*
X24569992Y51987585D01*
X24544865Y51990500D01*
X22955143Y51990500D01*
X22955117Y51990498D01*
X22930012Y51987587D01*
X22930008Y51987585D01*
X22827235Y51942207D01*
X22747794Y51862766D01*
X22702415Y51759994D01*
X22702415Y51759992D01*
X22699500Y51734869D01*
X22699294Y51731296D01*
X22699087Y51731308D01*
X22699087Y51731306D01*
X22699053Y51731310D01*
X22697935Y51731375D01*
X22679815Y51669662D01*
X22627011Y51623907D01*
X22607596Y51616928D01*
X22602354Y51615523D01*
X22593710Y51613207D01*
X22502387Y51560480D01*
X22502384Y51560478D01*
X21645122Y50703216D01*
X21645118Y50703210D01*
X21592392Y50611888D01*
X21592393Y50611887D01*
X21565100Y50510027D01*
X21565100Y41263027D01*
X21565100Y41157573D01*
X21568604Y41144495D01*
X21592393Y41055711D01*
X21600821Y41041114D01*
X21645120Y40964387D01*
X21645122Y40964385D01*
X22311481Y40298026D01*
X22344966Y40236703D01*
X22347800Y40210345D01*
X22347800Y35924500D01*
X22328115Y35857461D01*
X22275311Y35811706D01*
X22223800Y35800500D01*
X21490143Y35800500D01*
X21490117Y35800498D01*
X21465012Y35797587D01*
X21465010Y35797586D01*
X21400085Y35768919D01*
X21330807Y35759848D01*
X21299915Y35768919D01*
X21234992Y35797585D01*
X21209865Y35800500D01*
X20220143Y35800500D01*
X20220117Y35800498D01*
X20195012Y35797587D01*
X20195010Y35797586D01*
X20130085Y35768919D01*
X20060807Y35759848D01*
X20029915Y35768919D01*
X19964992Y35797585D01*
X19939865Y35800500D01*
X18950143Y35800500D01*
X18950117Y35800498D01*
X18925012Y35797587D01*
X18925010Y35797586D01*
X18860085Y35768919D01*
X18790807Y35759848D01*
X18759915Y35768919D01*
X18694992Y35797585D01*
X18669865Y35800500D01*
X17680143Y35800500D01*
X17680117Y35800498D01*
X17655012Y35797587D01*
X17655010Y35797586D01*
X17590085Y35768919D01*
X17520807Y35759848D01*
X17489915Y35768919D01*
X17424992Y35797585D01*
X17399865Y35800500D01*
X16410143Y35800500D01*
X16410117Y35800498D01*
X16385012Y35797587D01*
X16385010Y35797586D01*
X16320085Y35768919D01*
X16250807Y35759848D01*
X16219915Y35768919D01*
X16154992Y35797585D01*
X16145208Y35798720D01*
X16080884Y35826001D01*
X16041520Y35883727D01*
X16035500Y35921894D01*
X16035500Y37465702D01*
X16055185Y37532741D01*
X16071819Y37553383D01*
X16115520Y37597084D01*
X16194577Y37734016D01*
X16235500Y37886743D01*
X16235500Y38044857D01*
X16194577Y38197584D01*
X16171210Y38238057D01*
X16115524Y38334510D01*
X16115518Y38334518D01*
X16003717Y38446319D01*
X16003709Y38446325D01*
X15866790Y38525374D01*
X15866786Y38525376D01*
X15866784Y38525377D01*
X15714057Y38566300D01*
X15555943Y38566300D01*
X15403216Y38525377D01*
X15403209Y38525374D01*
X15266290Y38446325D01*
X15266282Y38446319D01*
X15154481Y38334518D01*
X15154475Y38334510D01*
X15075426Y38197591D01*
X15075423Y38197584D01*
X15034500Y38044857D01*
X15034500Y37886743D01*
X15043029Y37854915D01*
X15075423Y37734017D01*
X15075426Y37734010D01*
X15154475Y37597091D01*
X15154481Y37597083D01*
X15198181Y37553383D01*
X15231666Y37492060D01*
X15234500Y37465702D01*
X15234500Y35921894D01*
X15214815Y35854855D01*
X15162011Y35809100D01*
X15124789Y35798720D01*
X15115010Y35797586D01*
X15050085Y35768919D01*
X14980807Y35759848D01*
X14949915Y35768919D01*
X14884992Y35797585D01*
X14875208Y35798720D01*
X14810884Y35826001D01*
X14771520Y35883727D01*
X14765500Y35921894D01*
X14765500Y36275602D01*
X14785185Y36342641D01*
X14801819Y36363283D01*
X14813654Y36375118D01*
X14845520Y36406984D01*
X14924577Y36543916D01*
X14965500Y36696643D01*
X14965500Y36854757D01*
X14924577Y37007484D01*
X14922316Y37011401D01*
X14845524Y37144410D01*
X14845518Y37144418D01*
X14733717Y37256219D01*
X14733709Y37256225D01*
X14596790Y37335274D01*
X14596786Y37335276D01*
X14596784Y37335277D01*
X14444057Y37376200D01*
X14285943Y37376200D01*
X14133216Y37335277D01*
X14133209Y37335274D01*
X13996290Y37256225D01*
X13996282Y37256219D01*
X13884481Y37144418D01*
X13884475Y37144410D01*
X13805426Y37007491D01*
X13805423Y37007484D01*
X13764500Y36854757D01*
X13764500Y36696643D01*
X13793365Y36588920D01*
X13805423Y36543917D01*
X13805426Y36543910D01*
X13884475Y36406991D01*
X13884481Y36406983D01*
X13928181Y36363283D01*
X13961666Y36301960D01*
X13964500Y36275602D01*
X13964500Y35921894D01*
X13944815Y35854855D01*
X13892011Y35809100D01*
X13854789Y35798720D01*
X13845010Y35797586D01*
X13780085Y35768919D01*
X13710807Y35759848D01*
X13679915Y35768919D01*
X13614992Y35797585D01*
X13605208Y35798720D01*
X13540884Y35826001D01*
X13501520Y35883727D01*
X13495500Y35921894D01*
X13495500Y37260202D01*
X13515185Y37327241D01*
X13531819Y37347883D01*
X13575520Y37391584D01*
X13654577Y37528516D01*
X13695500Y37681243D01*
X13695500Y37839357D01*
X13654577Y37992084D01*
X13651109Y37998091D01*
X13575524Y38129010D01*
X13575518Y38129018D01*
X13463717Y38240819D01*
X13463709Y38240825D01*
X13326790Y38319874D01*
X13326786Y38319876D01*
X13326784Y38319877D01*
X13174057Y38360800D01*
X13015943Y38360800D01*
X12863216Y38319877D01*
X12863209Y38319874D01*
X12726290Y38240825D01*
X12726282Y38240819D01*
X12614481Y38129018D01*
X12614475Y38129010D01*
X12535426Y37992091D01*
X12535423Y37992084D01*
X12494500Y37839357D01*
X12494500Y37681243D01*
X12534264Y37532844D01*
X12535423Y37528517D01*
X12535426Y37528510D01*
X12614475Y37391591D01*
X12614481Y37391583D01*
X12658181Y37347883D01*
X12691666Y37286560D01*
X12694500Y37260202D01*
X12694500Y35921894D01*
X12674815Y35854855D01*
X12622011Y35809100D01*
X12584789Y35798720D01*
X12575010Y35797586D01*
X12510085Y35768919D01*
X12440807Y35759848D01*
X12409915Y35768919D01*
X12344992Y35797585D01*
X12319865Y35800500D01*
X11330143Y35800500D01*
X11330117Y35800498D01*
X11305012Y35797587D01*
X11305010Y35797586D01*
X11240085Y35768919D01*
X11170807Y35759848D01*
X11139915Y35768919D01*
X11074992Y35797585D01*
X11049865Y35800500D01*
X10060143Y35800500D01*
X10060122Y35800498D01*
X10039879Y35798151D01*
X9971019Y35809985D01*
X9919488Y35857168D01*
X9901600Y35921326D01*
X9901600Y36085455D01*
X9901600Y36085457D01*
X9860677Y36238184D01*
X9839074Y36275602D01*
X9781624Y36375110D01*
X9781618Y36375118D01*
X9737919Y36418817D01*
X9704434Y36480140D01*
X9701600Y36506498D01*
X9701600Y37144502D01*
X9721285Y37211541D01*
X9774089Y37257296D01*
X9843247Y37267240D01*
X9906803Y37238215D01*
X9913281Y37232183D01*
X10014084Y37131380D01*
X10014086Y37131379D01*
X10014090Y37131376D01*
X10151009Y37052327D01*
X10151016Y37052323D01*
X10303743Y37011400D01*
X10303745Y37011400D01*
X10461855Y37011400D01*
X10461857Y37011400D01*
X10614584Y37052323D01*
X10751516Y37131380D01*
X10863320Y37243184D01*
X10942377Y37380116D01*
X10983300Y37532843D01*
X10983300Y37690957D01*
X10942377Y37843684D01*
X10917516Y37886745D01*
X10863324Y37980610D01*
X10863318Y37980618D01*
X10797019Y38046917D01*
X10763534Y38108240D01*
X10760700Y38134598D01*
X10760700Y44566002D01*
X10780385Y44633041D01*
X10797019Y44653683D01*
X10810600Y44667264D01*
X10840720Y44697384D01*
X10919777Y44834316D01*
X10960700Y44987043D01*
X10960700Y45145157D01*
X10919777Y45297884D01*
X10869549Y45384883D01*
X10840724Y45434810D01*
X10840718Y45434818D01*
X10728917Y45546619D01*
X10728909Y45546625D01*
X10591990Y45625674D01*
X10591986Y45625676D01*
X10591984Y45625677D01*
X10439257Y45666600D01*
X10281143Y45666600D01*
X10219892Y45650189D01*
X10150043Y45651851D01*
X10092181Y45691014D01*
X10064677Y45755242D01*
X10063800Y45769963D01*
X10063800Y46341125D01*
X10063800Y46341127D01*
X10036507Y46442987D01*
X9983780Y46534313D01*
X9909213Y46608880D01*
X7497613Y49020480D01*
X7406288Y49073207D01*
X7392402Y49076928D01*
X7332743Y49113295D01*
X7302215Y49176143D01*
X7300949Y49191306D01*
X7300705Y49191291D01*
X7300499Y49194849D01*
X7300499Y49194864D01*
X7299731Y49201486D01*
X7297586Y49219988D01*
X7297585Y49219990D01*
X7297585Y49219991D01*
X7268919Y49284914D01*
X7259847Y49354192D01*
X7268919Y49385087D01*
X7297584Y49450007D01*
X7297585Y49450009D01*
X7300500Y49475135D01*
X7300499Y50464864D01*
X7300497Y50464883D01*
X7297586Y50489988D01*
X7297585Y50489990D01*
X7297585Y50489991D01*
X7268919Y50554914D01*
X7259847Y50624192D01*
X7268919Y50655087D01*
X7290168Y50703210D01*
X7297585Y50720009D01*
X7300500Y50745135D01*
X7300499Y51734864D01*
X7300497Y51734883D01*
X7297586Y51759988D01*
X7297585Y51759990D01*
X7297585Y51759991D01*
X7252206Y51862765D01*
X7172765Y51942206D01*
X7172763Y51942207D01*
X7069992Y51987585D01*
X7044865Y51990500D01*
X5455143Y51990500D01*
X5455117Y51990498D01*
X5430012Y51987587D01*
X5430008Y51987585D01*
X5327235Y51942207D01*
X5247794Y51862766D01*
X5204367Y51764413D01*
X5159281Y51711037D01*
X5097006Y51691897D01*
X5097051Y51691561D01*
X5095062Y51691300D01*
X5092495Y51690510D01*
X5090933Y51690500D01*
X5088991Y51690500D01*
X4974414Y51659799D01*
X4974412Y51659799D01*
X4974412Y51659798D01*
X4871687Y51600490D01*
X4787810Y51516613D01*
X4738599Y51431379D01*
X4718894Y51405700D01*
X4250014Y50936818D01*
X4188693Y50903334D01*
X4162335Y50900500D01*
X4072086Y50900500D01*
X4005047Y50920185D01*
X3965361Y50965985D01*
X3963519Y50964948D01*
X3959361Y50972342D01*
X3867922Y51092923D01*
X3747343Y51184361D01*
X3606561Y51239878D01*
X3560926Y51245358D01*
X3518102Y51250500D01*
X2481898Y51250500D01*
X2442853Y51245812D01*
X2393438Y51239878D01*
X2252656Y51184361D01*
X2132077Y51092923D01*
X2040639Y50972344D01*
X1985122Y50831562D01*
X1979188Y50782147D01*
X1974500Y50743102D01*
X1974500Y50156898D01*
X1978380Y50124587D01*
X1985122Y50068439D01*
X2040639Y49927657D01*
X2132077Y49807078D01*
X2252656Y49715640D01*
X2252657Y49715640D01*
X2252658Y49715639D01*
X2393436Y49660123D01*
X2481898Y49649500D01*
X2481903Y49649500D01*
X3518097Y49649500D01*
X3518102Y49649500D01*
X3606564Y49660123D01*
X3747342Y49715639D01*
X3748654Y49716635D01*
X3750874Y49718317D01*
X3754674Y49719762D01*
X3754734Y49719795D01*
X3754739Y49719787D01*
X3816186Y49743141D01*
X3884549Y49728713D01*
X3934261Y49679616D01*
X3949800Y49619514D01*
X3949800Y47680487D01*
X3930115Y47613448D01*
X3877311Y47567693D01*
X3808153Y47557749D01*
X3750880Y47581679D01*
X3747344Y47584360D01*
X3747342Y47584361D01*
X3606564Y47639877D01*
X3606563Y47639878D01*
X3606561Y47639878D01*
X3560926Y47645358D01*
X3518102Y47650500D01*
X2481898Y47650500D01*
X2442853Y47645812D01*
X2393438Y47639878D01*
X2252656Y47584361D01*
X2132077Y47492923D01*
X2040639Y47372344D01*
X1985122Y47231562D01*
X1979188Y47182147D01*
X1974500Y47143102D01*
X1974500Y46556898D01*
X1977345Y46533207D01*
X1985122Y46468439D01*
X2040639Y46327657D01*
X2132077Y46207078D01*
X2252656Y46115640D01*
X2252657Y46115640D01*
X2252658Y46115639D01*
X2393436Y46060123D01*
X2481898Y46049500D01*
X2481903Y46049500D01*
X3518097Y46049500D01*
X3518102Y46049500D01*
X3606564Y46060123D01*
X3747342Y46115639D01*
X3748654Y46116635D01*
X3750874Y46118317D01*
X3754674Y46119762D01*
X3754734Y46119795D01*
X3754739Y46119787D01*
X3816186Y46143141D01*
X3884549Y46128713D01*
X3934261Y46079616D01*
X3949800Y46019514D01*
X3949800Y44153893D01*
X3930115Y44086854D01*
X3877311Y44041099D01*
X3808153Y44031155D01*
X3744597Y44060180D01*
X3725482Y44081007D01*
X3700883Y44114864D01*
X3606379Y44244937D01*
X3444937Y44406379D01*
X3260228Y44540579D01*
X3251057Y44545252D01*
X3056803Y44644230D01*
X2839660Y44714785D01*
X2614162Y44750500D01*
X2614157Y44750500D01*
X2385843Y44750500D01*
X2385838Y44750500D01*
X2160339Y44714785D01*
X1943196Y44644230D01*
X1739771Y44540579D01*
X1555061Y44406378D01*
X1393622Y44244939D01*
X1259421Y44060229D01*
X1155770Y43856804D01*
X1085215Y43639661D01*
X1049500Y43414163D01*
X1049500Y43185838D01*
X1085215Y42960340D01*
X1155770Y42743197D01*
X1248269Y42561659D01*
X1259421Y42539772D01*
X1393621Y42355063D01*
X1555063Y42193621D01*
X1739772Y42059421D01*
X1824704Y42016146D01*
X1943196Y41955771D01*
X1943198Y41955771D01*
X1943201Y41955769D01*
X2059592Y41917951D01*
X2160339Y41885216D01*
X2385838Y41849500D01*
X2385843Y41849500D01*
X2614162Y41849500D01*
X2839660Y41885216D01*
X3056799Y41955769D01*
X3260228Y42059421D01*
X3444937Y42193621D01*
X3606379Y42355063D01*
X3725483Y42518996D01*
X3780812Y42561659D01*
X3850426Y42567638D01*
X3912221Y42535032D01*
X3946578Y42474193D01*
X3949800Y42446108D01*
X3949800Y41452966D01*
X3930115Y41385927D01*
X3913481Y41365285D01*
X2223416Y39675219D01*
X2162093Y39641734D01*
X2135735Y39638900D01*
X2054705Y39638900D01*
X1919377Y39611982D01*
X1919367Y39611979D01*
X1791895Y39559179D01*
X1791882Y39559172D01*
X1677158Y39482515D01*
X1677154Y39482512D01*
X1579588Y39384946D01*
X1579585Y39384942D01*
X1502928Y39270218D01*
X1502921Y39270205D01*
X1450121Y39142733D01*
X1450118Y39142723D01*
X1423200Y39007396D01*
X1423200Y38924500D01*
X1403515Y38857461D01*
X1350711Y38811706D01*
X1299200Y38800500D01*
X981898Y38800500D01*
X943251Y38795859D01*
X893438Y38789878D01*
X752656Y38734361D01*
X699425Y38693994D01*
X634113Y38669171D01*
X565749Y38683599D01*
X516038Y38732697D01*
X500500Y38792798D01*
X500500Y53876000D01*
X520185Y53943039D01*
X572989Y53988794D01*
X624500Y54000000D01*
X29375500Y54000000D01*
X29442539Y53980315D01*
G37*
%TD.AperFunction*%
%TD*%
M02*
