M48
; DRILL file KiCad 10.0.6 date 2026-09-30T11:40:27
; FORMAT={-:-/ absolute / metric / decimal}
; #@! TF.CreationDate,2026-09-30T11:40:27+03:00
; #@! TF.GenerationSoftware,Kicad,Pcbnew,10.0.6
; #@! TF.FileFunction,MixedPlating,1,2
FMAT,2
METRIC
; #@! TA.AperFunction,Plated,PTH,ViaDrill
T1C0.300
; #@! TA.AperFunction,Plated,PTH,ComponentDrill
T2C0.300
; #@! TA.AperFunction,Plated,PTH,ViaDrill
T3C0.400
; #@! TA.AperFunction,Plated,PTH,ComponentDrill
T4C0.600
; #@! TA.AperFunction,NonPlated,NPTH,ComponentDrill
T5C0.500
; #@! TA.AperFunction,NonPlated,NPTH,ComponentDrill
T6C0.650
; #@! TA.AperFunction,NonPlated,NPTH,ComponentDrill
T7C2.500
%
G90
G05
T1
X0.816Y31.787
X1.068Y10.63
X1.168Y29.589
X1.45Y52.55
X1.45Y49.55
X1.45Y46.55
X1.876Y15.39
X4.093Y14.702
X4.45Y52.55
X4.45Y13.55
X5.2Y11.378
X5.84Y28.762
X6.271Y31.299
X7.058Y30.005
X7.473Y45.647
X7.6Y8.036
X8.602Y1.848
X8.812Y45.066
X9.301Y36.006
X9.663Y43.283
X10.36Y45.066
X10.383Y37.612
X10.45Y28.55
X10.45Y19.55
X10.588Y9.668
X11.061Y29.927
X13.095Y37.76
X13.75Y6.545
X14.365Y36.776
X14.476Y33.462
X14.829Y13.065
X15.635Y37.966
X15.836Y10.773
X16.134Y31.816
X17.124Y12.557
X20.03Y24.34
X20.795Y24.267
X21.45Y1.729
X22.4Y6.289
X22.45Y28.55
X22.45Y1.55
X22.527Y42.276
X24.652Y29.911
X24.752Y33.406
X25.366Y37.479
X25.45Y52.55
X26.084Y26.564
X26.487Y38.159
X26.636Y27.134
X26.84Y47.836
X28.25Y23.489
X28.45Y34.55
X28.45Y10.55
X28.45Y7.55
X28.97Y40.928
T2
X12.1Y45.49
X12.1Y44.09
X12.8Y46.19
X12.8Y44.79
X12.8Y43.39
X13.5Y45.49
X13.5Y44.09
X14.2Y46.19
X14.2Y44.79
X14.2Y43.39
X14.9Y45.49
X14.9Y44.09
T3
X2.124Y38.938
X2.597Y20.8
X3.938Y21.706
X4.333Y35.976
X4.572Y38.24
X5.243Y27.5
X6.237Y18.315
X12.936Y21.37
X13.362Y24.984
X17.889Y18.675
X17.919Y36.347
X17.953Y9.585
X19.412Y9.586
X20.928Y18.011
X24.85Y11.613
X26.358Y35.046
X28.35Y42.829
T5
X27.3Y39.69
T6
X12.11Y6.3
X17.89Y6.3
T7
X2.5Y43.3
X27.0Y3.5
T4
X10.68Y7.38G85X10.68Y6.28
G05
X10.68Y2.95G85X10.68Y2.35
G05
X19.32Y7.38G85X19.32Y6.28
G05
X19.32Y2.95G85X19.32Y2.35
G05
M30
