%TF.GenerationSoftware,KiCad,Pcbnew,10.0.6*%
%TF.CreationDate,2026-09-30T11:40:26+03:00*%
%TF.ProjectId,capture-clip,63617074-7572-4652-9d63-6c69702e6b69,rev?*%
%TF.SameCoordinates,Original*%
%TF.FileFunction,Paste,Top*%
%TF.FilePolarity,Positive*%
%FSLAX46Y46*%
G04 Gerber Fmt 4.6, Leading zero omitted, Abs format (unit mm)*
G04 Created by KiCad (PCBNEW 10.0.6) date 2026-09-30 11:40:26*
%MOMM*%
%LPD*%
G01*
G04 APERTURE LIST*
G04 Aperture macros list*
%AMRoundRect*
0 Rectangle with rounded corners*
0 $1 Rounding radius*
0 $2 $3 $4 $5 $6 $7 $8 $9 X,Y pos of 4 corners*
0 Add a 4 corners polygon primitive as box body*
4,1,4,$2,$3,$4,$5,$6,$7,$8,$9,$2,$3,0*
0 Add four circle primitives for the rounded corners*
1,1,$1+$1,$2,$3*
1,1,$1+$1,$4,$5*
1,1,$1+$1,$6,$7*
1,1,$1+$1,$8,$9*
0 Add four rect primitives between the rounded corners*
20,1,$1+$1,$2,$3,$4,$5,0*
20,1,$1+$1,$4,$5,$6,$7,0*
20,1,$1+$1,$6,$7,$8,$9,0*
20,1,$1+$1,$8,$9,$2,$3,0*%
G04 Aperture macros list end*
%ADD10C,0.000000*%
%ADD11R,0.650000X0.850000*%
%ADD12RoundRect,0.250000X0.450000X-0.262500X0.450000X0.262500X-0.450000X0.262500X-0.450000X-0.262500X0*%
%ADD13RoundRect,0.250000X-0.262500X-0.450000X0.262500X-0.450000X0.262500X0.450000X-0.262500X0.450000X0*%
%ADD14RoundRect,0.150000X-0.587500X-0.150000X0.587500X-0.150000X0.587500X0.150000X-0.587500X0.150000X0*%
%ADD15RoundRect,0.250000X0.300000X-0.300000X0.300000X0.300000X-0.300000X0.300000X-0.300000X-0.300000X0*%
%ADD16RoundRect,0.150000X0.150000X-0.587500X0.150000X0.587500X-0.150000X0.587500X-0.150000X-0.587500X0*%
%ADD17RoundRect,0.250000X-0.250000X-0.475000X0.250000X-0.475000X0.250000X0.475000X-0.250000X0.475000X0*%
%ADD18RoundRect,0.150000X-0.512500X-0.150000X0.512500X-0.150000X0.512500X0.150000X-0.512500X0.150000X0*%
%ADD19RoundRect,0.250000X0.475000X-0.250000X0.475000X0.250000X-0.475000X0.250000X-0.475000X-0.250000X0*%
%ADD20R,0.900000X0.900000*%
%ADD21R,1.500000X0.900000*%
%ADD22R,0.900000X1.500000*%
%ADD23RoundRect,0.250000X-0.275000X-0.750000X0.275000X-0.750000X0.275000X0.750000X-0.275000X0.750000X0*%
%ADD24RoundRect,0.243750X0.456250X-0.243750X0.456250X0.243750X-0.456250X0.243750X-0.456250X-0.243750X0*%
%ADD25RoundRect,0.250000X-0.300000X-0.300000X0.300000X-0.300000X0.300000X0.300000X-0.300000X0.300000X0*%
%ADD26RoundRect,0.500000X0.500000X0.500000X-0.500000X0.500000X-0.500000X-0.500000X0.500000X-0.500000X0*%
%ADD27RoundRect,0.250000X0.250000X1.500000X-0.250000X1.500000X-0.250000X-1.500000X0.250000X-1.500000X0*%
%ADD28RoundRect,0.250001X0.499999X1.449999X-0.499999X1.449999X-0.499999X-1.449999X0.499999X-1.449999X0*%
%ADD29RoundRect,0.150000X0.150000X-0.512500X0.150000X0.512500X-0.150000X0.512500X-0.150000X-0.512500X0*%
%ADD30RoundRect,0.150000X-0.150000X-0.575000X0.150000X-0.575000X0.150000X0.575000X-0.150000X0.575000X0*%
%ADD31RoundRect,0.075000X-0.075000X-0.650000X0.075000X-0.650000X0.075000X0.650000X-0.075000X0.650000X0*%
G04 APERTURE END LIST*
%TO.C,MK1*%
G36*
X26150000Y41975000D02*
G01*
X26650000Y41975000D01*
X26650000Y41553000D01*
X26150000Y41553000D01*
X26150000Y41975000D01*
G37*
G36*
X26150000Y41153000D02*
G01*
X26650000Y41153000D01*
X26650000Y40731000D01*
X26150000Y40731000D01*
X26150000Y41153000D01*
G37*
G36*
X27050000Y41975000D02*
G01*
X27550000Y41975000D01*
X27550000Y41553000D01*
X27050000Y41553000D01*
X27050000Y41975000D01*
G37*
G36*
X27950000Y41153000D02*
G01*
X28450000Y41153000D01*
X28450000Y40731000D01*
X27950000Y40731000D01*
X27950000Y41153000D01*
G37*
G36*
X27950000Y41975000D02*
G01*
X28450000Y41975000D01*
X28450000Y41553000D01*
X27950000Y41553000D01*
X27950000Y41975000D01*
G37*
D10*
G36*
X27250000Y40250300D02*
G01*
X27140200Y40229300D01*
X27036800Y40187100D01*
X26943700Y40125300D01*
X26864700Y40046300D01*
X26802900Y39953200D01*
X26760700Y39849800D01*
X26739700Y39740000D01*
X26489000Y39740000D01*
X26516600Y39905500D01*
X26577500Y40061700D01*
X26669200Y40202200D01*
X26787800Y40320800D01*
X26928300Y40412500D01*
X27084500Y40473400D01*
X27250000Y40501000D01*
X27250000Y40250300D01*
G37*
G36*
X26760700Y39530200D02*
G01*
X26802900Y39426800D01*
X26864700Y39333700D01*
X26943700Y39254700D01*
X27036800Y39192900D01*
X27140200Y39150700D01*
X27250000Y39129700D01*
X27250000Y38879000D01*
X27084500Y38906600D01*
X26928300Y38967500D01*
X26787800Y39059200D01*
X26669200Y39177800D01*
X26577500Y39318300D01*
X26516600Y39474500D01*
X26489000Y39640000D01*
X26739700Y39640000D01*
X26760700Y39530200D01*
G37*
G36*
X27515500Y40473400D02*
G01*
X27671700Y40412500D01*
X27812200Y40320800D01*
X27930800Y40202200D01*
X28022500Y40061700D01*
X28083400Y39905500D01*
X28111000Y39740000D01*
X27860300Y39740000D01*
X27839300Y39849800D01*
X27797100Y39953200D01*
X27735300Y40046300D01*
X27656300Y40125300D01*
X27563200Y40187100D01*
X27459800Y40229300D01*
X27350000Y40250300D01*
X27350000Y40501000D01*
X27515500Y40473400D01*
G37*
G36*
X28083400Y39474500D02*
G01*
X28022500Y39318300D01*
X27930800Y39177800D01*
X27812200Y39059200D01*
X27671700Y38967500D01*
X27515500Y38906600D01*
X27350000Y38879000D01*
X27350000Y39129700D01*
X27459800Y39150700D01*
X27563200Y39192900D01*
X27656300Y39254700D01*
X27735300Y39333700D01*
X27797100Y39426800D01*
X27839300Y39530200D01*
X27860300Y39640000D01*
X28111000Y39640000D01*
X28083400Y39474500D01*
G37*
%TD*%
D11*
%TO.C,D4*%
X14575000Y32525000D03*
X15425000Y32525000D03*
X15425000Y31075000D03*
X14575000Y31075000D03*
%TD*%
D12*
%TO.C,R14*%
X28000000Y30787500D03*
X28000000Y32612500D03*
%TD*%
D13*
%TO.C,R6*%
X6987500Y19600000D03*
X8812500Y19600000D03*
%TD*%
D14*
%TO.C,Q1*%
X2062500Y21750000D03*
X2062500Y19850000D03*
X3937500Y20800000D03*
%TD*%
D12*
%TO.C,R13*%
X19200000Y13487500D03*
X19200000Y15312500D03*
%TD*%
D15*
%TO.C,D3*%
X7600000Y9100000D03*
X7600000Y11900000D03*
%TD*%
D16*
%TO.C,U3*%
X14050000Y12862500D03*
X15950000Y12862500D03*
X15000000Y14737500D03*
%TD*%
D12*
%TO.C,R11*%
X10200000Y30787500D03*
X10200000Y32612500D03*
%TD*%
D17*
%TO.C,C2*%
X24850000Y10250000D03*
X26750000Y10250000D03*
%TD*%
%TO.C,C3*%
X2550000Y24400000D03*
X4450000Y24400000D03*
%TD*%
D18*
%TO.C,U4*%
X2362500Y28450000D03*
X2362500Y27500000D03*
X2362500Y26550000D03*
X4637500Y26550000D03*
X4637500Y28450000D03*
%TD*%
D12*
%TO.C,R12*%
X12400000Y30787500D03*
X12400000Y32612500D03*
%TD*%
D13*
%TO.C,R19*%
X24887500Y8150000D03*
X26712500Y8150000D03*
%TD*%
D19*
%TO.C,C9*%
X25800000Y30750000D03*
X25800000Y32650000D03*
%TD*%
D12*
%TO.C,R4*%
X5200000Y8587500D03*
X5200000Y10412500D03*
%TD*%
D20*
%TO.C,U1*%
X12100000Y46190000D03*
X12100000Y44790000D03*
X12100000Y43390000D03*
X13500000Y46190000D03*
X13500000Y44790000D03*
X13500000Y43390000D03*
X14900000Y46190000D03*
X14900000Y44790000D03*
X14900000Y43390000D03*
D21*
X6250000Y52510000D03*
X6250000Y51240000D03*
X6250000Y49970000D03*
X6250000Y48700000D03*
X6250000Y47430000D03*
X6250000Y46160000D03*
X6250000Y44890000D03*
X6250000Y43620000D03*
X6250000Y42350000D03*
X6250000Y41080000D03*
X6250000Y39810000D03*
X6250000Y38540000D03*
X6250000Y37270000D03*
X6250000Y36000000D03*
D22*
X8015000Y34750000D03*
X9285000Y34750000D03*
X10555000Y34750000D03*
X11825000Y34750000D03*
X13095000Y34750000D03*
X14365000Y34750000D03*
X15635000Y34750000D03*
X16905000Y34750000D03*
X18175000Y34750000D03*
X19445000Y34750000D03*
X20715000Y34750000D03*
X21985000Y34750000D03*
D21*
X23750000Y36000000D03*
X23750000Y37270000D03*
X23750000Y38540000D03*
X23750000Y39810000D03*
X23750000Y41080000D03*
X23750000Y42350000D03*
X23750000Y43620000D03*
X23750000Y44890000D03*
X23750000Y46160000D03*
X23750000Y47430000D03*
X23750000Y48700000D03*
X23750000Y49970000D03*
X23750000Y51240000D03*
X23750000Y52510000D03*
%TD*%
D13*
%TO.C,R5*%
X2087500Y18000000D03*
X3912500Y18000000D03*
%TD*%
D19*
%TO.C,C4*%
X8000000Y27050000D03*
X8000000Y28950000D03*
%TD*%
D23*
%TO.C,SW2*%
X1075000Y3000000D03*
X5525000Y3000000D03*
%TD*%
D24*
%TO.C,D1*%
X7600000Y2562500D03*
X7600000Y4437500D03*
%TD*%
D17*
%TO.C,C1*%
X21250000Y10250000D03*
X23150000Y10250000D03*
%TD*%
D19*
%TO.C,C5*%
X3000000Y50450000D03*
X3000000Y52350000D03*
%TD*%
D25*
%TO.C,D2*%
X6500000Y22000000D03*
X9300000Y22000000D03*
%TD*%
D12*
%TO.C,R10*%
X8000000Y30787500D03*
X8000000Y32612500D03*
%TD*%
D13*
%TO.C,R3*%
X21287500Y8150000D03*
X23112500Y8150000D03*
%TD*%
%TO.C,R16*%
X1287500Y14000000D03*
X3112500Y14000000D03*
%TD*%
D26*
%TO.C,SW1*%
X18000000Y26200000D03*
X12000000Y26200000D03*
%TD*%
D17*
%TO.C,C7*%
X1250000Y35600000D03*
X3150000Y35600000D03*
%TD*%
D13*
%TO.C,R2*%
X17587500Y10900000D03*
X19412500Y10900000D03*
%TD*%
D19*
%TO.C,C6*%
X3000000Y46850000D03*
X3000000Y48750000D03*
%TD*%
D27*
%TO.C,J2*%
X25900000Y14650000D03*
X23900000Y14650000D03*
D28*
X28250000Y20400000D03*
X21550000Y20400000D03*
%TD*%
D13*
%TO.C,R7*%
X1287500Y37800000D03*
X3112500Y37800000D03*
%TD*%
%TO.C,R1*%
X10587500Y10900000D03*
X12412500Y10900000D03*
%TD*%
%TO.C,R9*%
X26487500Y37000000D03*
X28312500Y37000000D03*
%TD*%
D29*
%TO.C,U2*%
X21450000Y2862500D03*
X22400000Y2862500D03*
X23350000Y2862500D03*
X23350000Y5137500D03*
X22400000Y5137500D03*
X21450000Y5137500D03*
%TD*%
D12*
%TO.C,R15*%
X23600000Y30787500D03*
X23600000Y32612500D03*
%TD*%
D13*
%TO.C,R17*%
X1287500Y11800000D03*
X3112500Y11800000D03*
%TD*%
D12*
%TO.C,R8*%
X18000000Y30787500D03*
X18000000Y32612500D03*
%TD*%
D13*
%TO.C,R18*%
X26487500Y46400000D03*
X28312500Y46400000D03*
%TD*%
D17*
%TO.C,C8*%
X26450000Y44200000D03*
X28350000Y44200000D03*
%TD*%
D30*
%TO.C,J1*%
X11750000Y7745000D03*
X12550000Y7745000D03*
D31*
X13750000Y7745000D03*
X14750000Y7745000D03*
X15250000Y7745000D03*
X16250000Y7745000D03*
D30*
X17450000Y7745000D03*
X18250000Y7745000D03*
X18250000Y7745000D03*
X17450000Y7745000D03*
D31*
X16750000Y7745000D03*
X15750000Y7745000D03*
X14250000Y7745000D03*
X13250000Y7745000D03*
D30*
X12550000Y7745000D03*
X11750000Y7745000D03*
%TD*%
M02*
