%TF.GenerationSoftware,KiCad,Pcbnew,10.0.6*%
%TF.CreationDate,2026-09-29T14:36:59+03:00*%
%TF.ProjectId,starter,73746172-7465-4722-9e6b-696361645f70,rev?*%
%TF.SameCoordinates,Original*%
%TF.FileFunction,Copper,L2,Bot*%
%TF.FilePolarity,Positive*%
%FSLAX46Y46*%
G04 Gerber Fmt 4.6, Leading zero omitted, Abs format (unit mm)*
G04 Created by KiCad (PCBNEW 10.0.6) date 2026-09-29 14:36:59*
%MOMM*%
%LPD*%
G01*
G04 APERTURE LIST*
%TA.AperFunction,HeatsinkPad*%
%ADD10C,0.600000*%
%TD*%
%TA.AperFunction,ComponentPad*%
%ADD11O,1.000000X2.100000*%
%TD*%
%TA.AperFunction,ComponentPad*%
%ADD12O,1.000000X1.600000*%
%TD*%
%TA.AperFunction,ViaPad*%
%ADD13C,0.600000*%
%TD*%
%TA.AperFunction,ViaPad*%
%ADD14C,0.800000*%
%TD*%
%TA.AperFunction,Conductor*%
%ADD15C,0.200000*%
%TD*%
%TA.AperFunction,Conductor*%
%ADD16C,0.300000*%
%TD*%
G04 APERTURE END LIST*
D10*
%TO.P,U1,41*%
%TO.N,GND*%
X22100000Y35490000D03*
X22100000Y34090000D03*
X22800000Y36190000D03*
X22800000Y34790000D03*
X22800000Y33390000D03*
X23500000Y35490000D03*
X23500000Y34090000D03*
X24200000Y36190000D03*
X24200000Y34790000D03*
X24200000Y33390000D03*
X24900000Y35490000D03*
X24900000Y34090000D03*
%TD*%
D11*
%TO.P,J1,SH*%
%TO.N,GND*%
X20680000Y6830000D03*
D12*
X20680000Y2650000D03*
D11*
X29320000Y6830000D03*
D12*
X29320000Y2650000D03*
%TD*%
D13*
%TO.N,/BOOT*%
X33654000Y7282500D03*
X33654000Y25086900D03*
%TO.N,GND*%
X37450000Y36550000D03*
X7450000Y6550000D03*
X43450000Y12550000D03*
X4450000Y18550000D03*
X10450000Y9550000D03*
X40450000Y30550000D03*
X40450000Y27550000D03*
X31450000Y3550000D03*
X40450000Y24550000D03*
X31450000Y21550000D03*
X46450000Y12550000D03*
X37450000Y21550000D03*
X31450000Y18550000D03*
X37450000Y15550000D03*
X7450000Y9550000D03*
X10450000Y18550000D03*
X37450000Y42550000D03*
X28450000Y21550000D03*
X37450000Y12550000D03*
X34450000Y15550000D03*
D14*
X15445000Y24661800D03*
D13*
X46450000Y9550000D03*
X7450000Y15550000D03*
X34450000Y9550000D03*
X7450000Y42550000D03*
X10450000Y39550000D03*
X1450000Y9550000D03*
D14*
X15222500Y16842100D03*
D13*
X10450000Y12550000D03*
X43450000Y9550000D03*
X1450000Y12550000D03*
X16450000Y3550000D03*
X22450000Y21550000D03*
X16450000Y6550000D03*
X31450000Y9550000D03*
X19450000Y9550000D03*
X1450000Y21550000D03*
X10450000Y42550000D03*
X1450000Y18550000D03*
X28450000Y12550000D03*
X40450000Y42550000D03*
X7450000Y12550000D03*
X37450000Y18550000D03*
X37450000Y30550000D03*
X31450000Y6550000D03*
X4450000Y9550000D03*
X1450000Y15550000D03*
X28450000Y15550000D03*
X31450000Y12550000D03*
X34450000Y18550000D03*
X37450000Y33550000D03*
X34450000Y3550000D03*
X25450000Y21550000D03*
X4450000Y15550000D03*
%TO.N,+3V3*%
X6950000Y29050000D03*
X8950000Y29050000D03*
X4950000Y35050000D03*
X4950000Y31050000D03*
X2950000Y33050000D03*
D14*
X42904300Y25971400D03*
X42979300Y23215400D03*
D13*
X4950000Y33050000D03*
X8950000Y35050000D03*
X2950000Y31050000D03*
X10950000Y29050000D03*
X6950000Y33050000D03*
X8950000Y33050000D03*
X10950000Y35050000D03*
X6950000Y35050000D03*
X2950000Y35050000D03*
X2950000Y27050000D03*
X2950000Y29050000D03*
X6950000Y31050000D03*
X8950000Y31050000D03*
X4950000Y29050000D03*
X2950000Y25050000D03*
%TO.N,/EN*%
X13116100Y8001700D03*
X13116100Y28933900D03*
%TO.N,/USB_D-*%
X19778500Y26752500D03*
X19778500Y16033400D03*
%TO.N,/USB_D+*%
X22612600Y13062500D03*
X25476000Y9210800D03*
X16700000Y24742000D03*
%TO.N,/UART_RX*%
X35222100Y37430000D03*
X35222100Y26963500D03*
%TO.N,/UART_TX*%
X36401800Y30249600D03*
X36401800Y38700000D03*
%TO.N,/I2C_SDA*%
X44828600Y22738600D03*
X46235200Y29090200D03*
D14*
%TO.N,VBUS*%
X21051700Y9295000D03*
X27619500Y9091300D03*
X19256300Y13600000D03*
%TD*%
%TO.N,/BOOT*%
D15*
X33654000Y7282500D02*
X33654000Y25086900D01*
%TO.N,GND*%
D16*
X22800000Y34790000D02*
X22800000Y36190000D01*
X15445000Y27435000D02*
X15445000Y24661800D01*
X22100000Y34790000D02*
X22100000Y34090000D01*
X20680000Y6830000D02*
X20680000Y8231700D01*
X20680000Y2650000D02*
X20680000Y6830000D01*
X15445000Y24661800D02*
X15222500Y24439300D01*
X29320000Y2650000D02*
X29320000Y6830000D01*
X22800000Y34790000D02*
X22100000Y34790000D01*
X15222500Y24439300D02*
X15222500Y16842100D01*
X22100000Y34090000D02*
X15445000Y27435000D01*
X20680000Y8231700D02*
X15222500Y13689200D01*
X22800000Y33390000D02*
X22800000Y34790000D01*
X22100000Y35490000D02*
X22100000Y34790000D01*
X15222500Y13689200D02*
X15222500Y16842100D01*
%TO.N,+3V3*%
X42979300Y23215400D02*
X42979300Y25896400D01*
X42979300Y25896400D02*
X42904300Y25971400D01*
%TO.N,/EN*%
D15*
X13116100Y28933900D02*
X13116100Y8001700D01*
%TO.N,/USB_D-*%
D16*
X19778500Y26752500D02*
X19778500Y16033400D01*
%TO.N,/USB_D+*%
X22612600Y13062500D02*
X21840800Y13062500D01*
X21840800Y13062500D02*
X16700000Y18203300D01*
X25476000Y10199100D02*
X25476000Y9210800D01*
X22612600Y13062500D02*
X25476000Y10199100D01*
X16700000Y18203300D02*
X16700000Y24742000D01*
%TO.N,/UART_RX*%
D15*
X35222100Y26963500D02*
X35222100Y37430000D01*
%TO.N,/UART_TX*%
X36401800Y30249600D02*
X36401800Y38700000D01*
%TO.N,/I2C_SDA*%
X46235200Y24145200D02*
X46235200Y29090200D01*
X44828600Y22738600D02*
X46235200Y24145200D01*
%TO.N,VBUS*%
D16*
X21051700Y9295000D02*
X21838600Y8508100D01*
X19256300Y11090400D02*
X19256300Y13600000D01*
X27036300Y8508100D02*
X27619500Y9091300D01*
X21051700Y9295000D02*
X19256300Y11090400D01*
X21838600Y8508100D02*
X27036300Y8508100D01*
%TD*%
%TA.AperFunction,Conductor*%
%TO.N,+3V3*%
G36*
X12943039Y35980315D02*
G01*
X12988794Y35927511D01*
X13000000Y35876000D01*
X13000000Y29619623D01*
X12980315Y29552584D01*
X12927511Y29506829D01*
X12908101Y29499851D01*
X12884316Y29493477D01*
X12884315Y29493477D01*
X12884313Y29493476D01*
X12884309Y29493474D01*
X12747390Y29414425D01*
X12747382Y29414419D01*
X12635581Y29302618D01*
X12635575Y29302610D01*
X12556526Y29165691D01*
X12556523Y29165684D01*
X12515600Y29012957D01*
X12515600Y28854844D01*
X12556523Y28702117D01*
X12556526Y28702110D01*
X12635575Y28565191D01*
X12635581Y28565183D01*
X12679281Y28521483D01*
X12712766Y28460160D01*
X12715600Y28433802D01*
X12715600Y24124000D01*
X12695915Y24056961D01*
X12643111Y24011206D01*
X12591600Y24000000D01*
X1124000Y24000000D01*
X1056961Y24019685D01*
X1011206Y24072489D01*
X1000000Y24124000D01*
X1000000Y35876000D01*
X1019685Y35943039D01*
X1072489Y35988794D01*
X1124000Y36000000D01*
X12876000Y36000000D01*
X12943039Y35980315D01*
G37*
%TD.AperFunction*%
%TD*%
%TA.AperFunction,Conductor*%
%TO.N,GND*%
G36*
X885870Y48899168D02*
G01*
X890971Y48900014D01*
X900158Y48896058D01*
X933805Y48888735D01*
X946390Y48876149D01*
X955144Y48872379D01*
X965444Y48857094D01*
X983200Y48839336D01*
X984833Y48836347D01*
X988130Y48823427D01*
X994188Y48814437D01*
X994538Y48798318D01*
X1000000Y48776921D01*
X1000000Y44000000D01*
X49000000Y44000000D01*
X49000000Y48769571D01*
X49000006Y48769618D01*
X49000000Y48769640D01*
X49000019Y48769706D01*
X49005021Y48804498D01*
X49008207Y48815351D01*
X49017878Y48830403D01*
X49019722Y48836668D01*
X49024638Y48840924D01*
X49045977Y48874132D01*
X49109531Y48903161D01*
X49178686Y48893223D01*
X49181793Y48891804D01*
X49229547Y48853322D01*
X49253485Y48821345D01*
X49258533Y48814074D01*
X49263319Y48806627D01*
X49267836Y48799013D01*
X49357614Y48634595D01*
X49357850Y48633510D01*
X49361575Y48626684D01*
X49365248Y48618642D01*
X49368637Y48610461D01*
X49434116Y48434908D01*
X49436913Y48426503D01*
X49439399Y48418035D01*
X49441586Y48409463D01*
X49481407Y48226404D01*
X49482978Y48217703D01*
X49484238Y48208944D01*
X49485185Y48200135D01*
X49499026Y48006629D01*
X49499263Y48002209D01*
X49499421Y47997786D01*
X49499500Y47993359D01*
X49499500Y2006643D01*
X49499421Y2002216D01*
X49499263Y1997793D01*
X49499026Y1993373D01*
X49485185Y1799868D01*
X49484238Y1791059D01*
X49482978Y1782300D01*
X49481407Y1773598D01*
X49441586Y1590546D01*
X49439398Y1581973D01*
X49436906Y1573485D01*
X49434110Y1565083D01*
X49368639Y1389545D01*
X49365249Y1381360D01*
X49361579Y1373325D01*
X49357619Y1365416D01*
X49267834Y1200988D01*
X49263315Y1193371D01*
X49258528Y1185923D01*
X49253482Y1178657D01*
X49141218Y1028689D01*
X49135664Y1021797D01*
X49129868Y1015108D01*
X49123836Y1008629D01*
X48991371Y876164D01*
X48984892Y870132D01*
X48978203Y864336D01*
X48971311Y858782D01*
X48821343Y746518D01*
X48814077Y741472D01*
X48806629Y736685D01*
X48799012Y732166D01*
X48634584Y642381D01*
X48626675Y638421D01*
X48618640Y634751D01*
X48610455Y631361D01*
X48434917Y565890D01*
X48426515Y563094D01*
X48418027Y560602D01*
X48409454Y558414D01*
X48226402Y518593D01*
X48217698Y517022D01*
X48208938Y515762D01*
X48200130Y514815D01*
X48021728Y502056D01*
X48021729Y502055D01*
X48006616Y500974D01*
X48002206Y500738D01*
X47997773Y500579D01*
X47993356Y500500D01*
X2006643Y500500D01*
X2002218Y500579D01*
X1997792Y500738D01*
X1993374Y500974D01*
X1986118Y501493D01*
X1973622Y502387D01*
X1973621Y502388D01*
X1799866Y514815D01*
X1791059Y515762D01*
X1782299Y517022D01*
X1773596Y518593D01*
X1590537Y558414D01*
X1581965Y560601D01*
X1573497Y563087D01*
X1565092Y565884D01*
X1389539Y631363D01*
X1381358Y634752D01*
X1373316Y638425D01*
X1365405Y642386D01*
X1200987Y732164D01*
X1193375Y736680D01*
X1185937Y741460D01*
X1178664Y746509D01*
X1028675Y858790D01*
X1021782Y864346D01*
X1015106Y870131D01*
X1008629Y876161D01*
X876159Y1008631D01*
X870129Y1015108D01*
X864344Y1021784D01*
X858788Y1028677D01*
X856702Y1031463D01*
X746489Y1178689D01*
X741459Y1185935D01*
X736663Y1193400D01*
X732163Y1200987D01*
X642376Y1365422D01*
X638424Y1373317D01*
X634750Y1381361D01*
X631360Y1389543D01*
X565880Y1565100D01*
X563087Y1573491D01*
X560594Y1581987D01*
X558414Y1590532D01*
X518589Y1773607D01*
X517017Y1782319D01*
X515760Y1791062D01*
X514814Y1799861D01*
X514813Y1799868D01*
X511941Y1840027D01*
X500973Y1993376D01*
X500737Y1997794D01*
X500579Y2002220D01*
X500500Y2006644D01*
X500500Y4118013D01*
X2199500Y4118013D01*
X2199500Y3881989D01*
X2199503Y3881960D01*
X2228861Y3658957D01*
X2230306Y3647990D01*
X2280685Y3459974D01*
X2280684Y3459974D01*
X2291391Y3420016D01*
X2291397Y3419998D01*
X2381715Y3201952D01*
X2381719Y3201944D01*
X2420829Y3134205D01*
X2499730Y2997545D01*
X2499939Y2997230D01*
X2500947Y2995960D01*
X2643399Y2810311D01*
X2643403Y2810306D01*
X2643406Y2810303D01*
X2643412Y2810296D01*
X2643420Y2810288D01*
X2810281Y2643426D01*
X2810297Y2643411D01*
X2810305Y2643405D01*
X2997548Y2499728D01*
X2997550Y2499727D01*
X3083680Y2450000D01*
X3083681Y2449999D01*
X3198503Y2383706D01*
X3200241Y2382626D01*
X3201710Y2381811D01*
X3202427Y2381519D01*
X3420007Y2291394D01*
X3647986Y2230307D01*
X3881989Y2199500D01*
X3881996Y2199500D01*
X4118004Y2199500D01*
X4118011Y2199500D01*
X4352014Y2230307D01*
X4579993Y2291394D01*
X4798049Y2381716D01*
X5002450Y2499727D01*
X5189699Y2643408D01*
X5356592Y2810301D01*
X5500273Y2997550D01*
X5518316Y3028802D01*
X19880000Y3028802D01*
X19880000Y3028798D01*
X19880000Y2850000D01*
X20256000Y2850000D01*
X20323039Y2830315D01*
X20368794Y2777511D01*
X20380000Y2726000D01*
X20380000Y2574000D01*
X20360315Y2506961D01*
X20307511Y2461206D01*
X20256000Y2450000D01*
X19880000Y2450000D01*
X19880000Y2271200D01*
X19910735Y2116683D01*
X19910743Y2116648D01*
X19971043Y1971067D01*
X19971048Y1971057D01*
X20058599Y1840029D01*
X20058600Y1840028D01*
X20058605Y1840022D01*
X20170020Y1728607D01*
X20170026Y1728602D01*
X20170027Y1728601D01*
X20301043Y1641058D01*
X20301048Y1641055D01*
X20301051Y1641053D01*
X20301061Y1641048D01*
X20446647Y1580744D01*
X20446653Y1580742D01*
X20479999Y1574110D01*
X20480000Y1574110D01*
X20480000Y1574111D01*
X20480000Y1931408D01*
X20499685Y1998447D01*
X20552489Y2044202D01*
X20621647Y2054146D01*
X20636084Y2051185D01*
X20640504Y2050000D01*
X20719493Y2050000D01*
X20719496Y2050000D01*
X20723903Y2051181D01*
X20793750Y2049522D01*
X20851615Y2010362D01*
X20879122Y1946135D01*
X20880000Y1931408D01*
X20880000Y1574111D01*
X20880000Y1574110D01*
X20913346Y1580742D01*
X20913352Y1580744D01*
X21058938Y1641048D01*
X21058948Y1641053D01*
X21189969Y1728599D01*
X21189973Y1728602D01*
X21301398Y1840027D01*
X21301401Y1840031D01*
X21388947Y1971052D01*
X21388952Y1971061D01*
X21388955Y1971067D01*
X21421649Y2050000D01*
X21449256Y2116649D01*
X21449258Y2116657D01*
X21478480Y2263568D01*
X21479203Y2266297D01*
X21480000Y2271205D01*
X21480000Y2450000D01*
X21104000Y2450000D01*
X21036961Y2469685D01*
X20991206Y2522489D01*
X20980000Y2574000D01*
X20980000Y2726000D01*
X20999685Y2793039D01*
X21052489Y2838794D01*
X21104000Y2850000D01*
X21480000Y2850000D01*
X21480000Y3026181D01*
X21480000Y3028794D01*
X21479999Y3028798D01*
X21479998Y3028802D01*
X28520000Y3028802D01*
X28520000Y3028798D01*
X28520000Y2850000D01*
X28896000Y2850000D01*
X28963039Y2830315D01*
X29008794Y2777511D01*
X29020000Y2726000D01*
X29020000Y2574000D01*
X29000315Y2506961D01*
X28947511Y2461206D01*
X28896000Y2450000D01*
X28520000Y2450000D01*
X28520000Y2271200D01*
X28550735Y2116683D01*
X28550743Y2116648D01*
X28611043Y1971067D01*
X28611048Y1971057D01*
X28698599Y1840029D01*
X28698600Y1840028D01*
X28698605Y1840022D01*
X28810020Y1728607D01*
X28810026Y1728602D01*
X28810027Y1728601D01*
X28941043Y1641058D01*
X28941048Y1641055D01*
X28941051Y1641053D01*
X28941061Y1641048D01*
X29086647Y1580744D01*
X29086653Y1580742D01*
X29119999Y1574110D01*
X29120000Y1574110D01*
X29120000Y1574111D01*
X29120000Y1931408D01*
X29139685Y1998447D01*
X29192489Y2044202D01*
X29261647Y2054146D01*
X29276084Y2051185D01*
X29280504Y2050000D01*
X29359493Y2050000D01*
X29359496Y2050000D01*
X29363903Y2051181D01*
X29433750Y2049522D01*
X29491615Y2010362D01*
X29519122Y1946135D01*
X29520000Y1931408D01*
X29520000Y1574111D01*
X29520000Y1574110D01*
X29553346Y1580742D01*
X29553352Y1580744D01*
X29698938Y1641048D01*
X29698948Y1641053D01*
X29829969Y1728599D01*
X29829973Y1728602D01*
X29941398Y1840027D01*
X29941401Y1840031D01*
X30028947Y1971052D01*
X30028952Y1971061D01*
X30028955Y1971067D01*
X30061649Y2050000D01*
X30089256Y2116649D01*
X30089258Y2116657D01*
X30118480Y2263568D01*
X30119203Y2266297D01*
X30120000Y2271205D01*
X30120000Y2450000D01*
X29744000Y2450000D01*
X29676961Y2469685D01*
X29631206Y2522489D01*
X29620000Y2574000D01*
X29620000Y2726000D01*
X29639685Y2793039D01*
X29692489Y2838794D01*
X29744000Y2850000D01*
X30120000Y2850000D01*
X30120000Y3028796D01*
X30119909Y3029534D01*
X30119408Y3031769D01*
X30089263Y3183319D01*
X30089262Y3183320D01*
X30089258Y3183344D01*
X30089256Y3183352D01*
X30059248Y3255799D01*
X30028955Y3328935D01*
X30028950Y3328945D01*
X29985174Y3394460D01*
X29941401Y3459970D01*
X29941398Y3459974D01*
X29941393Y3459980D01*
X29829978Y3571395D01*
X29829972Y3571400D01*
X29829971Y3571401D01*
X29698942Y3658952D01*
X29698943Y3658952D01*
X29698933Y3658957D01*
X29553351Y3719257D01*
X29553331Y3719262D01*
X29520000Y3725893D01*
X29520000Y3368593D01*
X29500315Y3301554D01*
X29447511Y3255799D01*
X29378353Y3245855D01*
X29363918Y3248816D01*
X29359496Y3250000D01*
X29359494Y3250000D01*
X29280506Y3250000D01*
X29280504Y3250000D01*
X29276089Y3248818D01*
X29206241Y3250482D01*
X29148379Y3289646D01*
X29120877Y3353875D01*
X29120000Y3368593D01*
X29120000Y3725891D01*
X29119999Y3725893D01*
X29086674Y3719263D01*
X29086647Y3719257D01*
X28941065Y3658957D01*
X28941055Y3658952D01*
X28810027Y3571401D01*
X28810026Y3571400D01*
X28810020Y3571395D01*
X28698605Y3459980D01*
X28698600Y3459974D01*
X28611048Y3328945D01*
X28611043Y3328935D01*
X28550743Y3183354D01*
X28550735Y3183319D01*
X28520000Y3028802D01*
X21479998Y3028802D01*
X21449258Y3183344D01*
X21449256Y3183352D01*
X21419248Y3255799D01*
X21388955Y3328935D01*
X21388950Y3328945D01*
X21345174Y3394460D01*
X21301401Y3459970D01*
X21301398Y3459974D01*
X21301393Y3459980D01*
X21189978Y3571395D01*
X21189972Y3571400D01*
X21189971Y3571401D01*
X21058942Y3658952D01*
X21058943Y3658952D01*
X21058933Y3658957D01*
X20913351Y3719257D01*
X20913331Y3719262D01*
X20880000Y3725893D01*
X20880000Y3368593D01*
X20860315Y3301554D01*
X20807511Y3255799D01*
X20738353Y3245855D01*
X20723918Y3248816D01*
X20719496Y3250000D01*
X20719494Y3250000D01*
X20640506Y3250000D01*
X20640504Y3250000D01*
X20636089Y3248818D01*
X20566241Y3250482D01*
X20508379Y3289646D01*
X20480877Y3353875D01*
X20480000Y3368593D01*
X20480000Y3725891D01*
X20479999Y3725893D01*
X20446674Y3719263D01*
X20446647Y3719257D01*
X20301065Y3658957D01*
X20301055Y3658952D01*
X20170027Y3571401D01*
X20170026Y3571400D01*
X20170020Y3571395D01*
X20058605Y3459980D01*
X20058600Y3459974D01*
X19971048Y3328945D01*
X19971043Y3328935D01*
X19910743Y3183354D01*
X19910735Y3183319D01*
X19880000Y3028802D01*
X5518316Y3028802D01*
X5579171Y3134205D01*
X5618280Y3201944D01*
X5618280Y3201945D01*
X5618284Y3201951D01*
X5708606Y3420007D01*
X5769693Y3647986D01*
X5800500Y3881989D01*
X5800500Y4118011D01*
X5800500Y4118013D01*
X44199500Y4118013D01*
X44199500Y3881989D01*
X44199503Y3881960D01*
X44228861Y3658957D01*
X44230306Y3647990D01*
X44280685Y3459974D01*
X44280684Y3459974D01*
X44291391Y3420016D01*
X44291397Y3419998D01*
X44381715Y3201952D01*
X44381719Y3201944D01*
X44420829Y3134205D01*
X44499730Y2997545D01*
X44499939Y2997230D01*
X44500947Y2995960D01*
X44643399Y2810311D01*
X44643403Y2810306D01*
X44643406Y2810303D01*
X44643412Y2810296D01*
X44643420Y2810288D01*
X44810281Y2643426D01*
X44810297Y2643411D01*
X44810305Y2643405D01*
X44997548Y2499728D01*
X44997550Y2499727D01*
X45083680Y2450000D01*
X45083681Y2449999D01*
X45198503Y2383706D01*
X45200241Y2382626D01*
X45201710Y2381811D01*
X45202427Y2381519D01*
X45420007Y2291394D01*
X45647986Y2230307D01*
X45881989Y2199500D01*
X45881996Y2199500D01*
X46118004Y2199500D01*
X46118011Y2199500D01*
X46352014Y2230307D01*
X46579993Y2291394D01*
X46798049Y2381716D01*
X47002450Y2499727D01*
X47189699Y2643408D01*
X47356592Y2810301D01*
X47500273Y2997550D01*
X47618284Y3201951D01*
X47708606Y3420007D01*
X47769693Y3647986D01*
X47800500Y3881989D01*
X47800500Y4118011D01*
X47769693Y4352014D01*
X47708606Y4579993D01*
X47618489Y4797553D01*
X47618189Y4798292D01*
X47617382Y4799745D01*
X47616297Y4801491D01*
X47576118Y4871082D01*
X47500273Y5002450D01*
X47500272Y5002452D01*
X47356595Y5189695D01*
X47356589Y5189703D01*
X47356574Y5189719D01*
X47189712Y5356580D01*
X47189704Y5356588D01*
X47189697Y5356594D01*
X47189694Y5356597D01*
X47189689Y5356601D01*
X47004040Y5499053D01*
X47002776Y5500056D01*
X47002447Y5500275D01*
X47002445Y5500277D01*
X46920957Y5547323D01*
X46920955Y5547325D01*
X46798065Y5618276D01*
X46798048Y5618285D01*
X46579997Y5708605D01*
X46352006Y5769695D01*
X46119889Y5800253D01*
X46118208Y5800500D01*
X46118017Y5800500D01*
X46118011Y5800500D01*
X45881989Y5800500D01*
X45881983Y5800500D01*
X45881981Y5800500D01*
X45875861Y5799747D01*
X45874955Y5799575D01*
X45647992Y5769695D01*
X45420001Y5708605D01*
X45201950Y5618285D01*
X45201942Y5618281D01*
X44997545Y5500270D01*
X44997536Y5500264D01*
X44810309Y5356601D01*
X44810294Y5356587D01*
X44810286Y5356580D01*
X44643420Y5189714D01*
X44643413Y5189706D01*
X44643399Y5189691D01*
X44499736Y5002464D01*
X44499730Y5002455D01*
X44381719Y4798058D01*
X44381715Y4798050D01*
X44291395Y4579999D01*
X44230305Y4352008D01*
X44199503Y4118037D01*
X44199500Y4118013D01*
X5800500Y4118013D01*
X5769693Y4352014D01*
X5708606Y4579993D01*
X5618489Y4797553D01*
X5618189Y4798292D01*
X5617382Y4799745D01*
X5616297Y4801491D01*
X5576118Y4871082D01*
X5500273Y5002450D01*
X5500272Y5002452D01*
X5356595Y5189695D01*
X5356589Y5189703D01*
X5356574Y5189719D01*
X5189712Y5356580D01*
X5189704Y5356588D01*
X5189697Y5356594D01*
X5189694Y5356597D01*
X5189689Y5356601D01*
X5004040Y5499053D01*
X5002776Y5500056D01*
X5002447Y5500275D01*
X5002445Y5500277D01*
X4920957Y5547323D01*
X4920955Y5547325D01*
X4798065Y5618276D01*
X4798048Y5618285D01*
X4579997Y5708605D01*
X4352006Y5769695D01*
X4119889Y5800253D01*
X4118208Y5800500D01*
X4118017Y5800500D01*
X4118011Y5800500D01*
X3881989Y5800500D01*
X3881983Y5800500D01*
X3881981Y5800500D01*
X3875861Y5799747D01*
X3874955Y5799575D01*
X3647992Y5769695D01*
X3420001Y5708605D01*
X3201950Y5618285D01*
X3201942Y5618281D01*
X2997545Y5500270D01*
X2997536Y5500264D01*
X2810309Y5356601D01*
X2810294Y5356587D01*
X2810286Y5356580D01*
X2643420Y5189714D01*
X2643413Y5189706D01*
X2643399Y5189691D01*
X2499736Y5002464D01*
X2499730Y5002455D01*
X2381719Y4798058D01*
X2381715Y4798050D01*
X2291395Y4579999D01*
X2230305Y4352008D01*
X2199503Y4118037D01*
X2199500Y4118013D01*
X500500Y4118013D01*
X500500Y23893248D01*
X520185Y23960287D01*
X572989Y24006042D01*
X642147Y24015986D01*
X705703Y23986961D01*
X731538Y23955848D01*
X780320Y23872437D01*
X780325Y23872429D01*
X826081Y23819624D01*
X826091Y23819613D01*
X870807Y23777452D01*
X870809Y23777451D01*
X870813Y23777447D01*
X970889Y23726561D01*
X1037928Y23706876D01*
X1124000Y23694500D01*
X1124003Y23694500D01*
X12591600Y23694500D01*
X12658639Y23674815D01*
X12704394Y23622011D01*
X12715600Y23570500D01*
X12715600Y8519628D01*
X12710576Y8484691D01*
X12703164Y8459450D01*
X12671869Y8406706D01*
X12635586Y8370424D01*
X12635580Y8370418D01*
X12635570Y8370402D01*
X12556530Y8233500D01*
X12556525Y8233490D01*
X12556524Y8233489D01*
X12556522Y8233482D01*
X12517797Y8088957D01*
X12515600Y8080757D01*
X12515600Y7922644D01*
X12524352Y7889980D01*
X12556522Y7769920D01*
X12556524Y7769913D01*
X12556525Y7769912D01*
X12556526Y7769910D01*
X12564418Y7756240D01*
X12633729Y7636187D01*
X12635112Y7633616D01*
X12635498Y7633066D01*
X12747436Y7521128D01*
X12747952Y7520748D01*
X12750575Y7519337D01*
X12884309Y7442127D01*
X12884316Y7442123D01*
X13037043Y7401200D01*
X13037045Y7401200D01*
X13195155Y7401200D01*
X13195157Y7401200D01*
X13347884Y7442123D01*
X13376772Y7458802D01*
X19880000Y7458802D01*
X19880000Y7458798D01*
X19880000Y7030000D01*
X20256000Y7030000D01*
X20323039Y7010315D01*
X20368794Y6957511D01*
X20380000Y6906000D01*
X20380000Y6754000D01*
X20360315Y6686961D01*
X20307511Y6641206D01*
X20256000Y6630000D01*
X19880000Y6630000D01*
X19880000Y6201200D01*
X19910735Y6046683D01*
X19910743Y6046648D01*
X19971043Y5901067D01*
X19971048Y5901057D01*
X20058599Y5770029D01*
X20058600Y5770028D01*
X20058605Y5770022D01*
X20170020Y5658607D01*
X20170026Y5658602D01*
X20170027Y5658601D01*
X20301043Y5571058D01*
X20301048Y5571055D01*
X20301051Y5571053D01*
X20301061Y5571048D01*
X20446647Y5510744D01*
X20446653Y5510742D01*
X20479999Y5504110D01*
X20480000Y5504110D01*
X20480000Y5504111D01*
X20480000Y5861408D01*
X20499685Y5928447D01*
X20552489Y5974202D01*
X20621647Y5984146D01*
X20636084Y5981185D01*
X20640504Y5980000D01*
X20719493Y5980000D01*
X20719496Y5980000D01*
X20723903Y5981181D01*
X20793750Y5979522D01*
X20851615Y5940362D01*
X20879122Y5876135D01*
X20880000Y5861408D01*
X20880000Y5504111D01*
X20880000Y5504110D01*
X20913346Y5510742D01*
X20913352Y5510744D01*
X21058938Y5571048D01*
X21058948Y5571053D01*
X21189969Y5658599D01*
X21189973Y5658602D01*
X21301398Y5770027D01*
X21301401Y5770031D01*
X21388947Y5901052D01*
X21388954Y5901065D01*
X21429850Y5999799D01*
X21447850Y6030139D01*
X21455682Y6039858D01*
X21513071Y6079707D01*
X21582896Y6082205D01*
X21640440Y6049210D01*
X21645615Y6043973D01*
X21647411Y6042155D01*
X21666593Y6017001D01*
X21689488Y5977345D01*
X21689492Y5977339D01*
X21689494Y5977336D01*
X21689495Y5977335D01*
X21787335Y5879495D01*
X21787336Y5879494D01*
X21787338Y5879493D01*
X21818663Y5861408D01*
X21907164Y5810312D01*
X22040817Y5774500D01*
X22040819Y5774500D01*
X22179181Y5774500D01*
X22179183Y5774500D01*
X22312836Y5810312D01*
X22432665Y5879495D01*
X22530505Y5977335D01*
X22599688Y6097164D01*
X22635500Y6230817D01*
X22635500Y6369183D01*
X27364500Y6369183D01*
X27364500Y6230818D01*
X27383069Y6161515D01*
X27400308Y6097179D01*
X27400313Y6097162D01*
X27400317Y6097154D01*
X27469488Y5977345D01*
X27469492Y5977339D01*
X27469494Y5977336D01*
X27469495Y5977335D01*
X27567335Y5879495D01*
X27567336Y5879494D01*
X27567338Y5879493D01*
X27598663Y5861408D01*
X27687164Y5810312D01*
X27820817Y5774500D01*
X27820819Y5774500D01*
X27959181Y5774500D01*
X27959183Y5774500D01*
X28092836Y5810312D01*
X28212665Y5879495D01*
X28310505Y5977335D01*
X28332467Y6015378D01*
X28354279Y6043114D01*
X28363313Y6051728D01*
X28425414Y6083741D01*
X28494967Y6077099D01*
X28547705Y6036879D01*
X28552812Y6030141D01*
X28553697Y6028973D01*
X28569431Y6001531D01*
X28611049Y5901057D01*
X28611050Y5901055D01*
X28611056Y5901045D01*
X28698599Y5770029D01*
X28698600Y5770028D01*
X28698605Y5770022D01*
X28810020Y5658607D01*
X28810026Y5658602D01*
X28810027Y5658601D01*
X28941043Y5571058D01*
X28941048Y5571055D01*
X28941051Y5571053D01*
X28941061Y5571048D01*
X29086647Y5510744D01*
X29086653Y5510742D01*
X29119999Y5504110D01*
X29120000Y5504110D01*
X29120000Y5504111D01*
X29120000Y5861408D01*
X29139685Y5928447D01*
X29192489Y5974202D01*
X29261647Y5984146D01*
X29276084Y5981185D01*
X29280504Y5980000D01*
X29359493Y5980000D01*
X29359496Y5980000D01*
X29363903Y5981181D01*
X29433750Y5979522D01*
X29491615Y5940362D01*
X29519122Y5876135D01*
X29520000Y5861408D01*
X29520000Y5504111D01*
X29520000Y5504110D01*
X29553346Y5510742D01*
X29553352Y5510744D01*
X29698938Y5571048D01*
X29698948Y5571053D01*
X29829969Y5658599D01*
X29829973Y5658602D01*
X29941398Y5770027D01*
X29941401Y5770031D01*
X30028947Y5901052D01*
X30028952Y5901061D01*
X30028954Y5901065D01*
X30028955Y5901067D01*
X30061649Y5980000D01*
X30089256Y6046649D01*
X30089258Y6046657D01*
X30118480Y6193568D01*
X30119203Y6196297D01*
X30120000Y6201205D01*
X30120000Y6630000D01*
X29744000Y6630000D01*
X29676961Y6649685D01*
X29631206Y6702489D01*
X29620000Y6754000D01*
X29620000Y6906000D01*
X29639685Y6973039D01*
X29692489Y7018794D01*
X29744000Y7030000D01*
X30120000Y7030000D01*
X30120000Y7458796D01*
X30119909Y7459534D01*
X30119408Y7461769D01*
X30089263Y7613319D01*
X30089262Y7613320D01*
X30089258Y7613344D01*
X30089256Y7613352D01*
X30061450Y7680482D01*
X30028955Y7758935D01*
X30028950Y7758945D01*
X29941399Y7889973D01*
X29941398Y7889974D01*
X29941393Y7889980D01*
X29829978Y8001395D01*
X29829972Y8001400D01*
X29829971Y8001401D01*
X29698942Y8088952D01*
X29698943Y8088952D01*
X29698933Y8088957D01*
X29553351Y8149257D01*
X29553331Y8149262D01*
X29520000Y8155893D01*
X29520000Y7798593D01*
X29500315Y7731554D01*
X29447511Y7685799D01*
X29378353Y7675855D01*
X29363918Y7678816D01*
X29359496Y7680000D01*
X29359494Y7680000D01*
X29280506Y7680000D01*
X29280504Y7680000D01*
X29276089Y7678818D01*
X29206241Y7680482D01*
X29148379Y7719646D01*
X29120877Y7783875D01*
X29120000Y7798593D01*
X29120000Y8155891D01*
X29119999Y8155893D01*
X29086674Y8149263D01*
X29086647Y8149257D01*
X28941065Y8088957D01*
X28941055Y8088952D01*
X28810027Y8001401D01*
X28810026Y8001400D01*
X28810020Y8001395D01*
X28698605Y7889980D01*
X28698600Y7889974D01*
X28698599Y7889973D01*
X28611048Y7758945D01*
X28611043Y7758935D01*
X28550743Y7613354D01*
X28550735Y7613319D01*
X28520000Y7458802D01*
X28520000Y7458798D01*
X28520000Y7030000D01*
X28896000Y7030000D01*
X28963039Y7010315D01*
X29008794Y6957511D01*
X29020000Y6906000D01*
X29020000Y6754000D01*
X29000315Y6686961D01*
X28947511Y6641206D01*
X28896000Y6630000D01*
X28519999Y6630000D01*
X28510864Y6620865D01*
X28482608Y6599714D01*
X28470209Y6592944D01*
X28401936Y6578094D01*
X28337063Y6602073D01*
X28321599Y6613507D01*
X28307640Y6625531D01*
X28212674Y6720497D01*
X28212667Y6720503D01*
X28212661Y6720508D01*
X28212660Y6720509D01*
X28154650Y6754000D01*
X28106973Y6781527D01*
X28100442Y6786538D01*
X28085230Y6792839D01*
X28077068Y6793913D01*
X28046954Y6801982D01*
X27959183Y6825500D01*
X27959182Y6825500D01*
X27820817Y6825500D01*
X27687177Y6789692D01*
X27687160Y6789687D01*
X27687148Y6789681D01*
X27567347Y6720515D01*
X27567337Y6720508D01*
X27567331Y6720503D01*
X27567324Y6720497D01*
X27469503Y6622676D01*
X27469497Y6622669D01*
X27469492Y6622663D01*
X27469485Y6622653D01*
X27400319Y6502852D01*
X27400313Y6502840D01*
X27400308Y6502823D01*
X27364500Y6369183D01*
X22635500Y6369183D01*
X22599688Y6502836D01*
X22532622Y6618998D01*
X22530507Y6622662D01*
X22530503Y6622667D01*
X22530501Y6622669D01*
X22530495Y6622676D01*
X22432674Y6720497D01*
X22432667Y6720503D01*
X22432661Y6720508D01*
X22432660Y6720509D01*
X22374650Y6754000D01*
X22326973Y6781527D01*
X22320442Y6786538D01*
X22305230Y6792839D01*
X22297068Y6793913D01*
X22266954Y6801982D01*
X22179183Y6825500D01*
X22179182Y6825500D01*
X22040817Y6825500D01*
X21907177Y6789692D01*
X21907160Y6789687D01*
X21907148Y6789681D01*
X21787347Y6720515D01*
X21787337Y6720508D01*
X21787332Y6720504D01*
X21692676Y6625848D01*
X21678114Y6613382D01*
X21661985Y6601606D01*
X21596234Y6577973D01*
X21528789Y6593280D01*
X21517004Y6599807D01*
X21489400Y6620600D01*
X21480000Y6630000D01*
X21104000Y6630000D01*
X21036961Y6649685D01*
X20991206Y6702489D01*
X20980000Y6754000D01*
X20980000Y6906000D01*
X20999685Y6973039D01*
X21052489Y7018794D01*
X21104000Y7030000D01*
X21480000Y7030000D01*
X21480000Y7458796D01*
X21479909Y7459534D01*
X21479408Y7461769D01*
X21449263Y7613319D01*
X21449262Y7613320D01*
X21449258Y7613344D01*
X21449256Y7613352D01*
X21421450Y7680482D01*
X21388955Y7758935D01*
X21388950Y7758945D01*
X21301399Y7889973D01*
X21301398Y7889974D01*
X21301393Y7889980D01*
X21189978Y8001395D01*
X21189972Y8001400D01*
X21189971Y8001401D01*
X21058942Y8088952D01*
X21058943Y8088952D01*
X21058933Y8088957D01*
X20913351Y8149257D01*
X20913331Y8149262D01*
X20880000Y8155893D01*
X20880000Y7798593D01*
X20860315Y7731554D01*
X20807511Y7685799D01*
X20738353Y7675855D01*
X20723918Y7678816D01*
X20719496Y7680000D01*
X20719494Y7680000D01*
X20640506Y7680000D01*
X20640504Y7680000D01*
X20636089Y7678818D01*
X20566241Y7680482D01*
X20508379Y7719646D01*
X20480877Y7783875D01*
X20480000Y7798593D01*
X20480000Y8155891D01*
X20479999Y8155893D01*
X20446674Y8149263D01*
X20446647Y8149257D01*
X20301065Y8088957D01*
X20301055Y8088952D01*
X20170027Y8001401D01*
X20170026Y8001400D01*
X20170020Y8001395D01*
X20058605Y7889980D01*
X20058600Y7889974D01*
X20058599Y7889973D01*
X19971048Y7758945D01*
X19971043Y7758935D01*
X19910743Y7613354D01*
X19910735Y7613319D01*
X19880000Y7458802D01*
X13376772Y7458802D01*
X13407716Y7476668D01*
X13484812Y7521177D01*
X13484813Y7521179D01*
X13484816Y7521180D01*
X13596620Y7632984D01*
X13675677Y7769916D01*
X13716600Y7922643D01*
X13716600Y8080757D01*
X13675677Y8233484D01*
X13605820Y8354481D01*
X13596624Y8370410D01*
X13596622Y8370414D01*
X13596621Y8370415D01*
X13591403Y8375633D01*
X13565523Y8401513D01*
X13544372Y8429769D01*
X13541647Y8434759D01*
X13540338Y8437158D01*
X13531766Y8452857D01*
X13516600Y8512280D01*
X13516600Y24821057D01*
X16099500Y24821057D01*
X16099500Y24662943D01*
X16122711Y24576321D01*
X16124545Y24569476D01*
X16140423Y24510217D01*
X16140424Y24510213D01*
X16220472Y24371564D01*
X16220312Y24371472D01*
X16229443Y24353152D01*
X16241156Y24322859D01*
X16249500Y24278142D01*
X16249500Y18143991D01*
X16273711Y18053631D01*
X16275974Y18045186D01*
X16277048Y18037022D01*
X16283350Y18021808D01*
X16288363Y18015276D01*
X16339508Y17926690D01*
X16339510Y17926688D01*
X16339511Y17926686D01*
X21564186Y12702011D01*
X21666913Y12642701D01*
X21689190Y12636734D01*
X21693015Y12635642D01*
X21703683Y12632412D01*
X21706892Y12631989D01*
X21721232Y12628147D01*
X21721247Y12628143D01*
X21781491Y12612000D01*
X22144839Y12612000D01*
X22179775Y12606977D01*
X22208658Y12598496D01*
X22236015Y12584599D01*
X22236848Y12586041D01*
X22242294Y12582897D01*
X22245490Y12580988D01*
X22252132Y12576883D01*
X22254752Y12575705D01*
X22380809Y12502927D01*
X22380816Y12502923D01*
X22533543Y12462000D01*
X22533544Y12462000D01*
X22537004Y12461073D01*
X22555072Y12454699D01*
X22584527Y12441670D01*
X22622047Y12415950D01*
X24976573Y10061424D01*
X24997723Y10033172D01*
X25010331Y10010083D01*
X25025500Y9950654D01*
X25025500Y9678561D01*
X25020476Y9643623D01*
X25011832Y9614187D01*
X24997317Y9583138D01*
X24997506Y9583029D01*
X24996246Y9580849D01*
X24995964Y9580243D01*
X24995474Y9579511D01*
X24916434Y9442608D01*
X24916425Y9442590D01*
X24916424Y9442589D01*
X24916422Y9442582D01*
X24875500Y9289857D01*
X24875500Y9131740D01*
X24876560Y9123687D01*
X24876440Y9123672D01*
X24879643Y9096875D01*
X24879313Y9082999D01*
X24858040Y9016446D01*
X24804166Y8971961D01*
X24796351Y8968614D01*
X24747533Y8958600D01*
X22094396Y8958600D01*
X22059460Y8963623D01*
X22034218Y8971035D01*
X21981473Y9002331D01*
X21801126Y9182678D01*
X21779974Y9210934D01*
X21767367Y9234023D01*
X21752200Y9293448D01*
X21752200Y9363999D01*
X21725041Y9500530D01*
X21722959Y9504931D01*
X21709327Y9537842D01*
X21709325Y9537846D01*
X21689693Y9585243D01*
X21672478Y9626805D01*
X21672471Y9626818D01*
X21595814Y9741542D01*
X21595811Y9741546D01*
X21595806Y9741552D01*
X21498250Y9839108D01*
X21498244Y9839113D01*
X21498243Y9839114D01*
X21383523Y9915768D01*
X21383522Y9915769D01*
X21383517Y9915772D01*
X21383504Y9915779D01*
X21383497Y9915783D01*
X21256054Y9968571D01*
X21256040Y9968576D01*
X21256032Y9968579D01*
X21256022Y9968582D01*
X21256019Y9968583D01*
X21256015Y9968584D01*
X21120698Y9995500D01*
X21120695Y9995500D01*
X21120693Y9995500D01*
X21057495Y9995500D01*
X21022559Y10000523D01*
X20997317Y10007935D01*
X20944572Y10039231D01*
X19755726Y11228077D01*
X19734574Y11256333D01*
X19721967Y11279422D01*
X19706800Y11338847D01*
X19706800Y12990653D01*
X19711823Y13025588D01*
X19719235Y13050831D01*
X19750528Y13103574D01*
X19800414Y13153458D01*
X19877075Y13268189D01*
X19929880Y13395672D01*
X19953304Y13513430D01*
X19956800Y13531005D01*
X19956800Y13668999D01*
X19929940Y13804025D01*
X19929793Y13804775D01*
X19929652Y13805506D01*
X19927560Y13809928D01*
X19877078Y13931805D01*
X19877071Y13931818D01*
X19800414Y14046542D01*
X19800411Y14046546D01*
X19800406Y14046552D01*
X19702850Y14144108D01*
X19702844Y14144113D01*
X19702843Y14144114D01*
X19588123Y14220768D01*
X19588122Y14220769D01*
X19588117Y14220772D01*
X19588104Y14220779D01*
X19588097Y14220783D01*
X19460654Y14273571D01*
X19460640Y14273576D01*
X19460632Y14273579D01*
X19460622Y14273582D01*
X19460619Y14273583D01*
X19460615Y14273584D01*
X19325298Y14300500D01*
X19325295Y14300500D01*
X19325293Y14300500D01*
X19187307Y14300500D01*
X19187305Y14300500D01*
X19187300Y14300500D01*
X19051983Y14273584D01*
X19051977Y14273582D01*
X19051967Y14273579D01*
X19051962Y14273578D01*
X19051944Y14273571D01*
X18924501Y14220783D01*
X18924492Y14220778D01*
X18924475Y14220768D01*
X18809755Y14144114D01*
X18809754Y14144113D01*
X18809748Y14144108D01*
X18712192Y14046552D01*
X18712187Y14046546D01*
X18712186Y14046545D01*
X18635532Y13931825D01*
X18635522Y13931808D01*
X18635517Y13931799D01*
X18582729Y13804356D01*
X18582716Y13804317D01*
X18555800Y13669000D01*
X18555800Y13575374D01*
X18550537Y13557454D01*
X18582716Y13395685D01*
X18582717Y13395681D01*
X18582718Y13395678D01*
X18582721Y13395668D01*
X18582724Y13395660D01*
X18582729Y13395646D01*
X18635517Y13268203D01*
X18635522Y13268194D01*
X18635532Y13268177D01*
X18712183Y13153461D01*
X18756874Y13108770D01*
X18778024Y13080518D01*
X18790631Y13057431D01*
X18805800Y12998002D01*
X18805800Y11031091D01*
X18830011Y10940731D01*
X18832274Y10932286D01*
X18833348Y10924122D01*
X18839650Y10908908D01*
X18844663Y10902376D01*
X18895808Y10813790D01*
X18895813Y10813784D01*
X20302273Y9407324D01*
X20323423Y9379072D01*
X20336031Y9355983D01*
X20351200Y9296554D01*
X20351200Y9270374D01*
X20345937Y9252454D01*
X20378116Y9090685D01*
X20378117Y9090681D01*
X20378118Y9090678D01*
X20378121Y9090668D01*
X20378124Y9090660D01*
X20378129Y9090646D01*
X20430917Y8963203D01*
X20430922Y8963194D01*
X20430932Y8963177D01*
X20507586Y8848457D01*
X20507587Y8848456D01*
X20507592Y8848450D01*
X20605148Y8750894D01*
X20605154Y8750889D01*
X20605158Y8750886D01*
X20719882Y8674229D01*
X20719895Y8674222D01*
X20841772Y8623740D01*
X20846194Y8621648D01*
X20846925Y8621507D01*
X20847579Y8621379D01*
X20903172Y8610321D01*
X20982702Y8594500D01*
X20982704Y8594500D01*
X20982707Y8594500D01*
X21045905Y8594500D01*
X21080837Y8589479D01*
X21106081Y8582066D01*
X21158826Y8550771D01*
X21561986Y8147610D01*
X21664713Y8088301D01*
X21686990Y8082334D01*
X21690815Y8081242D01*
X21701483Y8078012D01*
X21704692Y8077589D01*
X21719032Y8073747D01*
X21719047Y8073743D01*
X21779291Y8057600D01*
X21779293Y8057600D01*
X27095608Y8057600D01*
X27095609Y8057600D01*
X27182021Y8080755D01*
X27185966Y8081812D01*
X27185966Y8081813D01*
X27185971Y8081814D01*
X27185973Y8081814D01*
X27210187Y8088301D01*
X27312914Y8147611D01*
X27507179Y8341877D01*
X27535429Y8363025D01*
X27558521Y8375633D01*
X27617946Y8390800D01*
X27688496Y8390800D01*
X27742330Y8401509D01*
X27779541Y8408911D01*
X27823828Y8417720D01*
X27951311Y8470525D01*
X28066042Y8547186D01*
X28163614Y8644758D01*
X28240275Y8759489D01*
X28293080Y8886972D01*
X28307502Y8959477D01*
X28316027Y9002331D01*
X28320000Y9022304D01*
X28320000Y9160299D01*
X28292841Y9296831D01*
X28290755Y9301241D01*
X28277437Y9333393D01*
X28277437Y9333394D01*
X28252037Y9394716D01*
X28240278Y9423105D01*
X28240271Y9423118D01*
X28163614Y9537842D01*
X28163612Y9537845D01*
X28163611Y9537846D01*
X28163606Y9537852D01*
X28066050Y9635408D01*
X28066044Y9635413D01*
X28066043Y9635414D01*
X27951323Y9712068D01*
X27951322Y9712069D01*
X27951317Y9712072D01*
X27951304Y9712079D01*
X27951297Y9712083D01*
X27823854Y9764871D01*
X27823840Y9764876D01*
X27823832Y9764879D01*
X27823822Y9764882D01*
X27823819Y9764883D01*
X27823815Y9764884D01*
X27688498Y9791800D01*
X27688495Y9791800D01*
X27688493Y9791800D01*
X27550507Y9791800D01*
X27550505Y9791800D01*
X27550500Y9791800D01*
X27415183Y9764884D01*
X27415177Y9764882D01*
X27415167Y9764879D01*
X27415162Y9764878D01*
X27415144Y9764871D01*
X27287701Y9712083D01*
X27287692Y9712078D01*
X27287675Y9712068D01*
X27172955Y9635414D01*
X27172954Y9635413D01*
X27172948Y9635408D01*
X27075392Y9537852D01*
X27075387Y9537846D01*
X27075386Y9537845D01*
X26998732Y9423125D01*
X26998722Y9423108D01*
X26998717Y9423099D01*
X26945929Y9295656D01*
X26945916Y9295617D01*
X26919000Y9160300D01*
X26919000Y9100430D01*
X26913975Y9065486D01*
X26909570Y9050488D01*
X26871827Y8991745D01*
X26870458Y8990558D01*
X26815597Y8963082D01*
X26808039Y8961437D01*
X26781668Y8958600D01*
X26209536Y8958600D01*
X26174597Y8963624D01*
X26161279Y8967535D01*
X26102502Y9005311D01*
X26073481Y9068860D01*
X26072270Y9077281D01*
X26075237Y9127034D01*
X26076500Y9131743D01*
X26076500Y9289857D01*
X26035577Y9442584D01*
X26002813Y9499333D01*
X25962793Y9568651D01*
X25961615Y9571271D01*
X25957512Y9577910D01*
X25955620Y9581076D01*
X25954735Y9582608D01*
X25946456Y9599907D01*
X25934840Y9629951D01*
X25926500Y9674659D01*
X25926500Y10258407D01*
X25926500Y10258409D01*
X25895799Y10372986D01*
X25895799Y10372987D01*
X25836489Y10475714D01*
X23261907Y13050296D01*
X23240756Y13078549D01*
X23226329Y13104970D01*
X23216813Y13134139D01*
X23215203Y13133707D01*
X23209911Y13153458D01*
X23172177Y13294284D01*
X23172173Y13294291D01*
X23093124Y13431210D01*
X23093118Y13431218D01*
X23093114Y13431222D01*
X23093113Y13431224D01*
X22981322Y13543015D01*
X22981320Y13543016D01*
X22981317Y13543019D01*
X22981309Y13543025D01*
X22925278Y13575374D01*
X22844407Y13622065D01*
X22844383Y13622078D01*
X22732579Y13652036D01*
X22691657Y13663000D01*
X22691656Y13663000D01*
X22533543Y13663000D01*
X22380818Y13622078D01*
X22380811Y13622076D01*
X22380810Y13622075D01*
X22380805Y13622072D01*
X22240761Y13541219D01*
X22223480Y13532951D01*
X22218452Y13531007D01*
X22193456Y13521344D01*
X22148742Y13513000D01*
X22096595Y13513000D01*
X22061659Y13518023D01*
X22036417Y13525435D01*
X21983672Y13556731D01*
X20167657Y15372746D01*
X20146505Y15401002D01*
X20139013Y15414723D01*
X20124161Y15482983D01*
X20124290Y15484792D01*
X20143654Y15542985D01*
X20147838Y15549497D01*
X20164473Y15570138D01*
X20259017Y15664681D01*
X20259017Y15664682D01*
X20259020Y15664684D01*
X20338077Y15801616D01*
X20379000Y15954343D01*
X20379000Y16112457D01*
X20338077Y16265184D01*
X20265297Y16391244D01*
X20264116Y16393870D01*
X20260013Y16400508D01*
X20258106Y16403699D01*
X20257222Y16405230D01*
X20248956Y16422506D01*
X20237340Y16452551D01*
X20229000Y16497259D01*
X20229000Y25165957D01*
X33053500Y25165957D01*
X33053500Y25007843D01*
X33063388Y24970943D01*
X33066636Y24958819D01*
X33066637Y24958815D01*
X33094422Y24855120D01*
X33094424Y24855113D01*
X33094425Y24855112D01*
X33094430Y24855102D01*
X33114086Y24821057D01*
X33173475Y24718191D01*
X33173481Y24718183D01*
X33204575Y24687089D01*
X33225725Y24658836D01*
X33238332Y24635748D01*
X33253500Y24576321D01*
X33253500Y7800428D01*
X33248476Y7765491D01*
X33241064Y7740250D01*
X33209769Y7687506D01*
X33173486Y7651224D01*
X33173480Y7651218D01*
X33173470Y7651202D01*
X33094430Y7514300D01*
X33094425Y7514290D01*
X33094424Y7514289D01*
X33094422Y7514282D01*
X33064122Y7401200D01*
X33053500Y7361557D01*
X33053500Y7203444D01*
X33077126Y7115270D01*
X33094422Y7050720D01*
X33094424Y7050713D01*
X33094425Y7050712D01*
X33094428Y7050707D01*
X33162781Y6932312D01*
X33162783Y6932310D01*
X33173475Y6913791D01*
X33173479Y6913786D01*
X33173480Y6913784D01*
X33285284Y6801980D01*
X33285286Y6801979D01*
X33285290Y6801976D01*
X33306576Y6789687D01*
X33422216Y6722923D01*
X33574943Y6682000D01*
X33574945Y6682000D01*
X33733055Y6682000D01*
X33733057Y6682000D01*
X33885784Y6722923D01*
X34022716Y6801980D01*
X34134520Y6913784D01*
X34213577Y7050716D01*
X34254500Y7203443D01*
X34254500Y7361557D01*
X34213577Y7514284D01*
X34213577Y7514285D01*
X34209598Y7521177D01*
X34156400Y7613319D01*
X34134524Y7651210D01*
X34134518Y7651218D01*
X34103423Y7682313D01*
X34082272Y7710569D01*
X34079547Y7715559D01*
X34070814Y7731554D01*
X34069666Y7733657D01*
X34054500Y7793080D01*
X34054500Y24568973D01*
X34059522Y24603906D01*
X34066934Y24629151D01*
X34098229Y24681894D01*
X34134520Y24718184D01*
X34213577Y24855116D01*
X34254500Y25007843D01*
X34254500Y25165957D01*
X34213577Y25318684D01*
X34157021Y25416643D01*
X34134524Y25455610D01*
X34134518Y25455618D01*
X34134513Y25455624D01*
X34022722Y25567415D01*
X34022720Y25567416D01*
X34022717Y25567419D01*
X34022709Y25567425D01*
X33996147Y25582760D01*
X33885807Y25646465D01*
X33885783Y25646478D01*
X33773979Y25676436D01*
X33733057Y25687400D01*
X33733056Y25687400D01*
X33574943Y25687400D01*
X33422218Y25646478D01*
X33422211Y25646476D01*
X33422210Y25646475D01*
X33422200Y25646470D01*
X33285298Y25567430D01*
X33285294Y25567428D01*
X33285290Y25567425D01*
X33285282Y25567419D01*
X33285278Y25567416D01*
X33285276Y25567415D01*
X33173485Y25455624D01*
X33173484Y25455622D01*
X33173481Y25455619D01*
X33173481Y25455618D01*
X33173475Y25455610D01*
X33173472Y25455606D01*
X33173470Y25455602D01*
X33094430Y25318700D01*
X33094425Y25318690D01*
X33094424Y25318689D01*
X33094422Y25318682D01*
X33054080Y25168122D01*
X33053500Y25165957D01*
X20229000Y25165957D01*
X20229000Y25928854D01*
X42198537Y25928854D01*
X42230716Y25767085D01*
X42230717Y25767081D01*
X42230718Y25767078D01*
X42230721Y25767068D01*
X42230724Y25767060D01*
X42230729Y25767046D01*
X42283517Y25639603D01*
X42283521Y25639596D01*
X42283527Y25639584D01*
X42283532Y25639577D01*
X42360186Y25524857D01*
X42360187Y25524856D01*
X42360192Y25524850D01*
X42457744Y25427298D01*
X42457750Y25427293D01*
X42457754Y25427289D01*
X42457757Y25427287D01*
X42457763Y25427282D01*
X42458884Y25426533D01*
X42461082Y25424558D01*
X42462469Y25423420D01*
X42462456Y25423405D01*
X42462803Y25423149D01*
X42462849Y25423111D01*
X42462782Y25423031D01*
X42485120Y25402964D01*
X42498573Y25386868D01*
X42524823Y25332633D01*
X42526194Y25326051D01*
X42528800Y25300765D01*
X42528800Y23824749D01*
X42523776Y23789812D01*
X42516364Y23764571D01*
X42485069Y23711827D01*
X42435193Y23661952D01*
X42435185Y23661943D01*
X42435182Y23661938D01*
X42358532Y23547225D01*
X42358522Y23547208D01*
X42358517Y23547199D01*
X42305729Y23419756D01*
X42305716Y23419717D01*
X42278800Y23284400D01*
X42278800Y23190774D01*
X42273537Y23172854D01*
X42305716Y23011085D01*
X42305717Y23011081D01*
X42305718Y23011078D01*
X42305721Y23011068D01*
X42305724Y23011060D01*
X42305729Y23011046D01*
X42358517Y22883603D01*
X42358522Y22883594D01*
X42358532Y22883577D01*
X42435186Y22768857D01*
X42435187Y22768856D01*
X42435192Y22768850D01*
X42532748Y22671294D01*
X42532754Y22671289D01*
X42532758Y22671286D01*
X42647482Y22594629D01*
X42647495Y22594622D01*
X42769372Y22544140D01*
X42773794Y22542048D01*
X42774525Y22541907D01*
X42775179Y22541779D01*
X42819257Y22533011D01*
X42910302Y22514900D01*
X43048295Y22514900D01*
X43048296Y22514900D01*
X43093818Y22523956D01*
X43139341Y22533011D01*
X43183628Y22541820D01*
X43311111Y22594625D01*
X43425842Y22671286D01*
X43523414Y22768858D01*
X43556021Y22817657D01*
X44228100Y22817657D01*
X44228100Y22659543D01*
X44245493Y22594634D01*
X44245496Y22594622D01*
X44269023Y22506817D01*
X44269024Y22506813D01*
X44269025Y22506812D01*
X44269028Y22506807D01*
X44346229Y22373087D01*
X44347612Y22370516D01*
X44347998Y22369966D01*
X44459936Y22258028D01*
X44460452Y22257648D01*
X44463075Y22256237D01*
X44596809Y22179027D01*
X44596816Y22179023D01*
X44749543Y22138100D01*
X44749545Y22138100D01*
X44907655Y22138100D01*
X44907657Y22138100D01*
X45060384Y22179023D01*
X45197316Y22258080D01*
X45309120Y22369884D01*
X45388177Y22506816D01*
X45429100Y22659543D01*
X45429100Y22703516D01*
X45434122Y22738449D01*
X45441534Y22763694D01*
X45472828Y22816436D01*
X45998327Y23341934D01*
X46555680Y23899287D01*
X46608407Y23990612D01*
X46635700Y24092473D01*
X46635700Y24197927D01*
X46635700Y28572273D01*
X46640722Y28607206D01*
X46648134Y28632451D01*
X46679429Y28685194D01*
X46715720Y28721484D01*
X46794777Y28858416D01*
X46835700Y29011143D01*
X46835700Y29169257D01*
X46794777Y29321984D01*
X46738933Y29418710D01*
X46715724Y29458910D01*
X46715718Y29458918D01*
X46715713Y29458924D01*
X46603922Y29570715D01*
X46603920Y29570716D01*
X46603917Y29570719D01*
X46603909Y29570725D01*
X46537929Y29608818D01*
X46467007Y29649765D01*
X46466983Y29649778D01*
X46355179Y29679736D01*
X46314257Y29690700D01*
X46314256Y29690700D01*
X46156143Y29690700D01*
X46003418Y29649778D01*
X46003411Y29649776D01*
X46003410Y29649775D01*
X46003400Y29649770D01*
X45866498Y29570730D01*
X45866494Y29570728D01*
X45866490Y29570725D01*
X45866482Y29570719D01*
X45866478Y29570716D01*
X45866476Y29570715D01*
X45754685Y29458924D01*
X45754684Y29458922D01*
X45754681Y29458919D01*
X45754681Y29458918D01*
X45754675Y29458910D01*
X45754672Y29458906D01*
X45754670Y29458902D01*
X45675630Y29322000D01*
X45675625Y29321990D01*
X45675624Y29321989D01*
X45675622Y29321982D01*
X45634700Y29169257D01*
X45634700Y29011143D01*
X45645471Y28970948D01*
X45645472Y28970944D01*
X45675622Y28858420D01*
X45675624Y28858413D01*
X45675625Y28858412D01*
X45675630Y28858402D01*
X45677685Y28854843D01*
X45754675Y28721491D01*
X45754681Y28721483D01*
X45785775Y28690389D01*
X45806925Y28662136D01*
X45819532Y28639048D01*
X45834700Y28579621D01*
X45834700Y24380285D01*
X45829676Y24345348D01*
X45822264Y24320107D01*
X45790969Y24267363D01*
X44911633Y23388027D01*
X44883382Y23366878D01*
X44860294Y23354270D01*
X44800864Y23339100D01*
X44749543Y23339100D01*
X44596818Y23298178D01*
X44596811Y23298176D01*
X44596810Y23298175D01*
X44596800Y23298170D01*
X44459898Y23219130D01*
X44459894Y23219128D01*
X44459890Y23219125D01*
X44459882Y23219119D01*
X44459878Y23219116D01*
X44459876Y23219115D01*
X44348085Y23107324D01*
X44348084Y23107322D01*
X44348081Y23107319D01*
X44348081Y23107318D01*
X44348075Y23107310D01*
X44348072Y23107306D01*
X44348070Y23107302D01*
X44269030Y22970400D01*
X44269025Y22970390D01*
X44269024Y22970389D01*
X44269023Y22970384D01*
X44228100Y22817657D01*
X43556021Y22817657D01*
X43600075Y22883589D01*
X43652880Y23011072D01*
X43661689Y23055359D01*
X43679800Y23146405D01*
X43679800Y23284399D01*
X43652940Y23419425D01*
X43652793Y23420175D01*
X43652652Y23420906D01*
X43650560Y23425328D01*
X43600078Y23547205D01*
X43600071Y23547218D01*
X43523414Y23661942D01*
X43523411Y23661946D01*
X43523407Y23661951D01*
X43478726Y23706631D01*
X43457572Y23734890D01*
X43454847Y23739880D01*
X43453538Y23742279D01*
X43444966Y23757978D01*
X43429800Y23817401D01*
X43429800Y25441556D01*
X43434822Y25476489D01*
X43444164Y25508305D01*
X43460033Y25542248D01*
X43522128Y25635180D01*
X43524146Y25637937D01*
X43525662Y25640347D01*
X43527396Y25645194D01*
X43529595Y25650500D01*
X43576203Y25763025D01*
X43577365Y25765572D01*
X43577873Y25767059D01*
X43577878Y25767068D01*
X43577880Y25767072D01*
X43604800Y25902407D01*
X43604800Y26040393D01*
X43604800Y26040396D01*
X43604800Y26040399D01*
X43577641Y26176931D01*
X43575554Y26181343D01*
X43525342Y26302567D01*
X43525341Y26302570D01*
X43525086Y26303187D01*
X43525080Y26303199D01*
X43525078Y26303205D01*
X43525071Y26303218D01*
X43448414Y26417942D01*
X43448411Y26417946D01*
X43448406Y26417952D01*
X43350850Y26515508D01*
X43350844Y26515513D01*
X43350843Y26515514D01*
X43312427Y26541183D01*
X43236117Y26592172D01*
X43236104Y26592179D01*
X43236097Y26592183D01*
X43108654Y26644971D01*
X43108640Y26644976D01*
X43108632Y26644979D01*
X43108622Y26644982D01*
X43108619Y26644983D01*
X43108615Y26644984D01*
X42973298Y26671900D01*
X42973295Y26671900D01*
X42973293Y26671900D01*
X42835307Y26671900D01*
X42835305Y26671900D01*
X42835300Y26671900D01*
X42699983Y26644984D01*
X42699977Y26644982D01*
X42699967Y26644979D01*
X42699962Y26644978D01*
X42699944Y26644971D01*
X42572501Y26592183D01*
X42572492Y26592178D01*
X42572487Y26592175D01*
X42572482Y26592172D01*
X42526654Y26561551D01*
X42457755Y26515514D01*
X42457754Y26515513D01*
X42457748Y26515508D01*
X42360192Y26417952D01*
X42360187Y26417946D01*
X42283532Y26303225D01*
X42283522Y26303208D01*
X42283517Y26303199D01*
X42230729Y26175756D01*
X42230716Y26175717D01*
X42203800Y26040400D01*
X42203800Y25946774D01*
X42198537Y25928854D01*
X20229000Y25928854D01*
X20229000Y26284741D01*
X20234022Y26319673D01*
X20238041Y26333361D01*
X20242293Y26347841D01*
X20256264Y26373594D01*
X20253918Y26374948D01*
X20259022Y26383788D01*
X20270650Y26403927D01*
X20320588Y26490424D01*
X20338077Y26520716D01*
X20379000Y26673443D01*
X20379000Y26831557D01*
X20338077Y26984284D01*
X20304435Y27042555D01*
X20304435Y27042556D01*
X20279261Y27086158D01*
X20259024Y27121210D01*
X20259018Y27121218D01*
X20259017Y27121219D01*
X20259013Y27121224D01*
X20147222Y27233015D01*
X20147220Y27233016D01*
X20147217Y27233019D01*
X20147209Y27233025D01*
X20120647Y27248360D01*
X20010307Y27312065D01*
X20010283Y27312078D01*
X19898479Y27342036D01*
X19857557Y27353000D01*
X19857556Y27353000D01*
X19699443Y27353000D01*
X19546718Y27312078D01*
X19546711Y27312076D01*
X19546710Y27312075D01*
X19546700Y27312070D01*
X19409798Y27233030D01*
X19409794Y27233028D01*
X19409790Y27233025D01*
X19409782Y27233019D01*
X19409778Y27233016D01*
X19409776Y27233015D01*
X19297985Y27121224D01*
X19297984Y27121222D01*
X19297981Y27121219D01*
X19297981Y27121218D01*
X19297975Y27121210D01*
X19297972Y27121206D01*
X19297970Y27121202D01*
X19218930Y26984300D01*
X19218925Y26984290D01*
X19218924Y26984289D01*
X19218923Y26984285D01*
X19218923Y26984284D01*
X19178000Y26831557D01*
X19178000Y26673443D01*
X19198219Y26597987D01*
X19199777Y26592172D01*
X19218923Y26520717D01*
X19218924Y26520713D01*
X19240711Y26482976D01*
X19286349Y26403927D01*
X19298972Y26382064D01*
X19298812Y26381972D01*
X19307943Y26363652D01*
X19319656Y26333359D01*
X19328000Y26288642D01*
X19328000Y16529595D01*
X19322976Y16494657D01*
X19319789Y16483804D01*
X19282014Y16425027D01*
X19218457Y16396004D01*
X19149307Y16405945D01*
X19142329Y16409132D01*
X19106157Y16434246D01*
X17199426Y18340977D01*
X17178274Y18369233D01*
X17165667Y18392322D01*
X17150500Y18451747D01*
X17150500Y24274241D01*
X17155523Y24309176D01*
X17163793Y24337341D01*
X17177618Y24363180D01*
X17175419Y24364449D01*
X17184562Y24380285D01*
X17259577Y24510216D01*
X17300500Y24662943D01*
X17300500Y24821057D01*
X17259577Y24973784D01*
X17239912Y25007845D01*
X17180524Y25110710D01*
X17180518Y25110718D01*
X17180513Y25110724D01*
X17068722Y25222515D01*
X17068720Y25222516D01*
X17068717Y25222519D01*
X17068709Y25222525D01*
X17042147Y25237860D01*
X16931807Y25301565D01*
X16931783Y25301578D01*
X16815881Y25332633D01*
X16779057Y25342500D01*
X16779056Y25342500D01*
X16620943Y25342500D01*
X16468218Y25301578D01*
X16468211Y25301576D01*
X16468210Y25301575D01*
X16468200Y25301570D01*
X16331298Y25222530D01*
X16331294Y25222528D01*
X16331290Y25222525D01*
X16331282Y25222519D01*
X16331278Y25222516D01*
X16331276Y25222515D01*
X16219485Y25110724D01*
X16219484Y25110722D01*
X16219481Y25110719D01*
X16219481Y25110718D01*
X16219475Y25110710D01*
X16219472Y25110706D01*
X16219470Y25110702D01*
X16140430Y24973800D01*
X16140425Y24973790D01*
X16140424Y24973789D01*
X16140422Y24973782D01*
X16136412Y24958815D01*
X16099500Y24821057D01*
X13516600Y24821057D01*
X13516600Y28415973D01*
X13521622Y28450906D01*
X13529034Y28476151D01*
X13560329Y28528894D01*
X13596620Y28565184D01*
X13675677Y28702116D01*
X13716600Y28854843D01*
X13716600Y29012957D01*
X13675677Y29165684D01*
X13673619Y29169248D01*
X13673617Y29169258D01*
X13673615Y29169256D01*
X13642368Y29223377D01*
X13596624Y29302610D01*
X13596618Y29302618D01*
X13596614Y29302622D01*
X13596613Y29302624D01*
X13484822Y29414415D01*
X13484820Y29414416D01*
X13484817Y29414419D01*
X13484809Y29414425D01*
X13436669Y29442219D01*
X13364683Y29483779D01*
X13316467Y29534346D01*
X13303244Y29602953D01*
X13303946Y29608818D01*
X13305500Y29619623D01*
X13305500Y35876000D01*
X13298518Y35940941D01*
X13287312Y35992452D01*
X13276354Y36030658D01*
X13219675Y36127571D01*
X13173920Y36180375D01*
X13173918Y36180377D01*
X13173908Y36180388D01*
X13129192Y36222549D01*
X13129189Y36222551D01*
X13129187Y36222553D01*
X13029111Y36273439D01*
X13029110Y36273440D01*
X13029109Y36273440D01*
X12962078Y36293123D01*
X12962072Y36293124D01*
X12876000Y36305500D01*
X12875997Y36305500D01*
X1124010Y36305500D01*
X1124000Y36305500D01*
X1123991Y36305500D01*
X1123990Y36305499D01*
X1059064Y36298519D01*
X1059052Y36298517D01*
X1007546Y36287312D01*
X969345Y36276356D01*
X969341Y36276354D01*
X872431Y36219677D01*
X872428Y36219675D01*
X819623Y36173919D01*
X819612Y36173909D01*
X777451Y36129193D01*
X777446Y36129186D01*
X735032Y36045770D01*
X687100Y35994934D01*
X619293Y35978082D01*
X553139Y36000565D01*
X509642Y36055244D01*
X500500Y36101973D01*
X500500Y37509057D01*
X34621600Y37509057D01*
X34621600Y37350943D01*
X34651521Y37239279D01*
X34658479Y37213311D01*
X34658479Y37213309D01*
X34662520Y37198226D01*
X34662524Y37198214D01*
X34662530Y37198202D01*
X34716058Y37105488D01*
X34741575Y37061291D01*
X34741581Y37061283D01*
X34772675Y37030189D01*
X34793825Y37001936D01*
X34806432Y36978848D01*
X34821600Y36919421D01*
X34821600Y27481428D01*
X34816576Y27446491D01*
X34809164Y27421250D01*
X34777869Y27368506D01*
X34741586Y27332224D01*
X34741580Y27332218D01*
X34741570Y27332202D01*
X34662530Y27195300D01*
X34662525Y27195290D01*
X34662524Y27195289D01*
X34662522Y27195282D01*
X34642678Y27121222D01*
X34621600Y27042557D01*
X34621600Y26884443D01*
X34635771Y26831557D01*
X34639346Y26818216D01*
X34662523Y26731717D01*
X34662524Y26731713D01*
X34662525Y26731712D01*
X34662528Y26731707D01*
X34739729Y26597987D01*
X34741112Y26595416D01*
X34741498Y26594866D01*
X34853436Y26482928D01*
X34853952Y26482548D01*
X34856575Y26481137D01*
X34929506Y26439031D01*
X34966026Y26417946D01*
X34986326Y26406227D01*
X34990316Y26403923D01*
X35143043Y26363000D01*
X35143045Y26363000D01*
X35301155Y26363000D01*
X35301157Y26363000D01*
X35453884Y26403923D01*
X35590816Y26482980D01*
X35702620Y26594784D01*
X35781677Y26731716D01*
X35822600Y26884443D01*
X35822600Y27042557D01*
X35781677Y27195284D01*
X35759892Y27233016D01*
X35759891Y27233019D01*
X35759889Y27233021D01*
X35714252Y27312070D01*
X35702624Y27332210D01*
X35702618Y27332218D01*
X35671523Y27363313D01*
X35650372Y27391569D01*
X35647647Y27396559D01*
X35646338Y27398958D01*
X35637766Y27414657D01*
X35622600Y27474080D01*
X35622600Y29917611D01*
X35627621Y29952538D01*
X35630807Y29963391D01*
X35668577Y30022172D01*
X35732131Y30051201D01*
X35801232Y30041288D01*
X35801795Y30041031D01*
X35845954Y30007169D01*
X35847386Y30005435D01*
X35859162Y29988476D01*
X35921277Y29880888D01*
X35921281Y29880883D01*
X36033136Y29769028D01*
X36033656Y29768646D01*
X36036298Y29767224D01*
X36168835Y29690704D01*
X36168836Y29690704D01*
X36168843Y29690700D01*
X36170016Y29690023D01*
X36322743Y29649100D01*
X36322745Y29649100D01*
X36480855Y29649100D01*
X36480857Y29649100D01*
X36633584Y29690023D01*
X36770516Y29769080D01*
X36882320Y29880884D01*
X36961377Y30017816D01*
X37002300Y30170543D01*
X37002300Y30328657D01*
X36961377Y30481384D01*
X36956156Y30490427D01*
X36882324Y30618310D01*
X36882318Y30618318D01*
X36850150Y30650486D01*
X36848126Y30653550D01*
X36830072Y30677669D01*
X36827347Y30682659D01*
X36826038Y30685058D01*
X36817466Y30700757D01*
X36804601Y30751164D01*
X36802310Y30758618D01*
X36802513Y30759345D01*
X36802300Y30760180D01*
X36802300Y38182073D01*
X36807322Y38217006D01*
X36814734Y38242251D01*
X36846029Y38294994D01*
X36882320Y38331284D01*
X36961377Y38468216D01*
X37002300Y38620943D01*
X37002300Y38779057D01*
X36961377Y38931784D01*
X36923410Y38997546D01*
X36923410Y38997547D01*
X36903579Y39031894D01*
X36882324Y39068710D01*
X36882318Y39068718D01*
X36882314Y39068722D01*
X36882313Y39068724D01*
X36770522Y39180515D01*
X36770520Y39180516D01*
X36770517Y39180519D01*
X36770509Y39180525D01*
X36733391Y39201955D01*
X36633607Y39259565D01*
X36633583Y39259578D01*
X36521779Y39289536D01*
X36480857Y39300500D01*
X36480856Y39300500D01*
X36322743Y39300500D01*
X36170018Y39259578D01*
X36170011Y39259576D01*
X36170010Y39259575D01*
X36170000Y39259570D01*
X36033098Y39180530D01*
X36033094Y39180528D01*
X36033090Y39180525D01*
X36033082Y39180519D01*
X36033078Y39180516D01*
X36033076Y39180515D01*
X35921285Y39068724D01*
X35921284Y39068722D01*
X35921281Y39068719D01*
X35921281Y39068718D01*
X35921275Y39068710D01*
X35921272Y39068706D01*
X35921270Y39068702D01*
X35842230Y38931800D01*
X35842225Y38931790D01*
X35842224Y38931789D01*
X35842223Y38931785D01*
X35842223Y38931784D01*
X35801300Y38779057D01*
X35801300Y38620944D01*
X35824926Y38532770D01*
X35842222Y38468220D01*
X35842224Y38468213D01*
X35842225Y38468212D01*
X35842230Y38468202D01*
X35892163Y38381715D01*
X35921275Y38331291D01*
X35921281Y38331283D01*
X35952375Y38300189D01*
X35973525Y38271936D01*
X35986132Y38248848D01*
X36001300Y38189421D01*
X36001300Y37761991D01*
X35996276Y37727053D01*
X35993089Y37716200D01*
X35955314Y37657423D01*
X35891757Y37628400D01*
X35822599Y37638345D01*
X35822588Y37638350D01*
X35822032Y37638604D01*
X35777965Y37672410D01*
X35776529Y37674148D01*
X35764738Y37691124D01*
X35702622Y37798713D01*
X35702618Y37798718D01*
X35702614Y37798722D01*
X35702610Y37798727D01*
X35590822Y37910515D01*
X35590820Y37910516D01*
X35590817Y37910519D01*
X35590809Y37910525D01*
X35564247Y37925860D01*
X35453907Y37989565D01*
X35453883Y37989578D01*
X35342079Y38019536D01*
X35301157Y38030500D01*
X35301156Y38030500D01*
X35143043Y38030500D01*
X34990318Y37989578D01*
X34990311Y37989576D01*
X34990310Y37989575D01*
X34990300Y37989570D01*
X34853398Y37910530D01*
X34853394Y37910528D01*
X34853390Y37910525D01*
X34853382Y37910519D01*
X34853378Y37910516D01*
X34853376Y37910515D01*
X34741585Y37798724D01*
X34741584Y37798722D01*
X34741583Y37798720D01*
X34741581Y37798718D01*
X34741575Y37798710D01*
X34741572Y37798706D01*
X34741570Y37798702D01*
X34662530Y37661800D01*
X34662525Y37661790D01*
X34662524Y37661789D01*
X34662522Y37661782D01*
X34651708Y37621423D01*
X34621600Y37509057D01*
X500500Y37509057D01*
X500500Y40118013D01*
X2199500Y40118013D01*
X2199500Y39881989D01*
X2199503Y39881965D01*
X2230305Y39647994D01*
X2291395Y39420003D01*
X2381715Y39201952D01*
X2381724Y39201935D01*
X2452675Y39079046D01*
X2452677Y39079043D01*
X2499723Y38997555D01*
X2499725Y38997553D01*
X2499944Y38997224D01*
X2500947Y38995960D01*
X2643399Y38810311D01*
X2643403Y38810306D01*
X2643406Y38810303D01*
X2643412Y38810296D01*
X2810295Y38643413D01*
X2810302Y38643407D01*
X2839575Y38620945D01*
X2839577Y38620944D01*
X2839578Y38620943D01*
X2997548Y38499728D01*
X2997550Y38499727D01*
X3128918Y38423882D01*
X3198516Y38383699D01*
X3200255Y38382618D01*
X3201708Y38381811D01*
X3202447Y38381511D01*
X3420007Y38291394D01*
X3647986Y38230307D01*
X3881989Y38199500D01*
X3881996Y38199500D01*
X4118004Y38199500D01*
X4118011Y38199500D01*
X4352014Y38230307D01*
X4579993Y38291394D01*
X4798049Y38381716D01*
X5002450Y38499727D01*
X5189699Y38643408D01*
X5356592Y38810301D01*
X5500273Y38997550D01*
X5618284Y39201951D01*
X5708606Y39420007D01*
X5769693Y39647986D01*
X5800500Y39881989D01*
X5800500Y40118011D01*
X5800500Y40118013D01*
X44199500Y40118013D01*
X44199500Y39881989D01*
X44199503Y39881965D01*
X44230305Y39647994D01*
X44291395Y39420003D01*
X44381715Y39201952D01*
X44381724Y39201935D01*
X44452675Y39079046D01*
X44452677Y39079043D01*
X44499723Y38997555D01*
X44499725Y38997553D01*
X44499944Y38997224D01*
X44500947Y38995960D01*
X44643399Y38810311D01*
X44643403Y38810306D01*
X44643406Y38810303D01*
X44643412Y38810296D01*
X44810295Y38643413D01*
X44810302Y38643407D01*
X44839575Y38620945D01*
X44839577Y38620944D01*
X44839578Y38620943D01*
X44997548Y38499728D01*
X44997550Y38499727D01*
X45128918Y38423882D01*
X45198516Y38383699D01*
X45200255Y38382618D01*
X45201708Y38381811D01*
X45202447Y38381511D01*
X45420007Y38291394D01*
X45647986Y38230307D01*
X45881989Y38199500D01*
X45881996Y38199500D01*
X46118004Y38199500D01*
X46118011Y38199500D01*
X46352014Y38230307D01*
X46579993Y38291394D01*
X46798049Y38381716D01*
X47002450Y38499727D01*
X47189699Y38643408D01*
X47356592Y38810301D01*
X47500273Y38997550D01*
X47618284Y39201951D01*
X47708606Y39420007D01*
X47769693Y39647986D01*
X47800500Y39881989D01*
X47800500Y40118011D01*
X47769693Y40352014D01*
X47708606Y40579993D01*
X47618489Y40797553D01*
X47618189Y40798292D01*
X47617382Y40799745D01*
X47616297Y40801491D01*
X47576118Y40871082D01*
X47500273Y41002450D01*
X47500272Y41002452D01*
X47356595Y41189695D01*
X47356589Y41189703D01*
X47356574Y41189719D01*
X47189712Y41356580D01*
X47189704Y41356588D01*
X47189697Y41356594D01*
X47189694Y41356597D01*
X47189689Y41356601D01*
X47004040Y41499053D01*
X47002776Y41500056D01*
X47002447Y41500275D01*
X47002445Y41500277D01*
X46920957Y41547323D01*
X46920955Y41547325D01*
X46798065Y41618276D01*
X46798048Y41618285D01*
X46579997Y41708605D01*
X46352006Y41769695D01*
X46119889Y41800253D01*
X46118208Y41800500D01*
X46118017Y41800500D01*
X46118011Y41800500D01*
X45881989Y41800500D01*
X45881983Y41800500D01*
X45881981Y41800500D01*
X45875861Y41799747D01*
X45874955Y41799575D01*
X45647992Y41769695D01*
X45420001Y41708605D01*
X45201950Y41618285D01*
X45201942Y41618281D01*
X44997545Y41500270D01*
X44997536Y41500264D01*
X44810309Y41356601D01*
X44810294Y41356587D01*
X44810286Y41356580D01*
X44643420Y41189714D01*
X44643413Y41189706D01*
X44643399Y41189691D01*
X44499736Y41002464D01*
X44499730Y41002455D01*
X44381719Y40798058D01*
X44381715Y40798050D01*
X44291395Y40579999D01*
X44230305Y40352008D01*
X44199503Y40118037D01*
X44199500Y40118013D01*
X5800500Y40118013D01*
X5769693Y40352014D01*
X5708606Y40579993D01*
X5618489Y40797553D01*
X5618189Y40798292D01*
X5617382Y40799745D01*
X5616297Y40801491D01*
X5576118Y40871082D01*
X5500273Y41002450D01*
X5500272Y41002452D01*
X5356595Y41189695D01*
X5356589Y41189703D01*
X5356574Y41189719D01*
X5189712Y41356580D01*
X5189704Y41356588D01*
X5189697Y41356594D01*
X5189694Y41356597D01*
X5189689Y41356601D01*
X5004040Y41499053D01*
X5002776Y41500056D01*
X5002447Y41500275D01*
X5002445Y41500277D01*
X4920957Y41547323D01*
X4920955Y41547325D01*
X4798065Y41618276D01*
X4798048Y41618285D01*
X4579997Y41708605D01*
X4352006Y41769695D01*
X4119889Y41800253D01*
X4118208Y41800500D01*
X4118017Y41800500D01*
X4118011Y41800500D01*
X3881989Y41800500D01*
X3881983Y41800500D01*
X3881981Y41800500D01*
X3875861Y41799747D01*
X3874955Y41799575D01*
X3647992Y41769695D01*
X3420001Y41708605D01*
X3201950Y41618285D01*
X3201942Y41618281D01*
X2997545Y41500270D01*
X2997536Y41500264D01*
X2810309Y41356601D01*
X2810294Y41356587D01*
X2810286Y41356580D01*
X2643420Y41189714D01*
X2643413Y41189706D01*
X2643399Y41189691D01*
X2499736Y41002464D01*
X2499730Y41002455D01*
X2381719Y40798058D01*
X2381715Y40798050D01*
X2291395Y40579999D01*
X2230305Y40352008D01*
X2199503Y40118037D01*
X2199500Y40118013D01*
X500500Y40118013D01*
X500500Y47993358D01*
X500579Y47997782D01*
X500737Y48002208D01*
X500974Y48006629D01*
X514069Y48189729D01*
X519274Y48216681D01*
X519629Y48231182D01*
X558415Y48409479D01*
X560602Y48418044D01*
X563089Y48426514D01*
X565884Y48434912D01*
X631366Y48610478D01*
X633054Y48613944D01*
X634751Y48618648D01*
X638415Y48626672D01*
X642373Y48634577D01*
X716086Y48769571D01*
X732171Y48799030D01*
X736691Y48806646D01*
X741465Y48814073D01*
X746491Y48821314D01*
X766054Y48847448D01*
X791005Y48872398D01*
X800070Y48879184D01*
X819810Y48886544D01*
X822045Y48888567D01*
X827799Y48889523D01*
X865534Y48903593D01*
X885870Y48899168D01*
G37*
%TD.AperFunction*%
%TD*%
M02*
