M48
; DRILL file KiCad 10.0.6 date 2026-09-29T09:54:56
; FORMAT={-:-/ absolute / metric / decimal}
; #@! TF.CreationDate,2026-09-29T09:54:56+03:00
; #@! TF.GenerationSoftware,Kicad,Pcbnew,10.0.6
; #@! TF.FileFunction,MixedPlating,1,2
FMAT,2
METRIC
; #@! TA.AperFunction,Plated,PTH,ComponentDrill
T1C0.200
; #@! TA.AperFunction,Plated,PTH,ViaDrill
T2C0.300
; #@! TA.AperFunction,Plated,PTH,ViaDrill
T3C0.400
; #@! TA.AperFunction,Plated,PTH,ComponentDrill
T4C0.600
; #@! TA.AperFunction,NonPlated,NPTH,ComponentDrill
T5C0.650
; #@! TA.AperFunction,NonPlated,NPTH,ComponentDrill
T6C3.200
%
G90
G05
T1
X22.1Y35.49
X22.1Y34.09
X22.8Y36.19
X22.8Y34.79
X22.8Y33.39
X23.5Y35.49
X23.5Y34.09
X24.2Y36.19
X24.2Y34.79
X24.2Y33.39
X24.9Y35.49
X24.9Y34.09
T2
X1.45Y36.55
X1.45Y33.55
X1.45Y30.55
X1.45Y27.55
X1.45Y24.55
X1.45Y21.55
X1.45Y18.55
X1.45Y15.55
X1.45Y12.55
X1.45Y9.55
X4.45Y33.55
X4.45Y30.55
X4.45Y18.55
X4.45Y15.55
X4.45Y9.55
X7.45Y42.55
X7.45Y36.55
X7.45Y33.55
X7.45Y15.55
X7.45Y12.55
X7.45Y9.55
X7.45Y6.55
X10.236Y7.375
X10.45Y42.55
X10.45Y39.55
X10.45Y36.55
X13.45Y24.55
X13.45Y9.55
X13.913Y33.234
X16.45Y6.55
X16.45Y3.55
X17.456Y39.97
X17.459Y27.27
X19.45Y21.55
X19.45Y15.55
X19.45Y9.55
X22.45Y21.55
X22.45Y18.55
X22.45Y12.55
X23.568Y26.0
X23.568Y14.222
X23.75Y9.296
X25.45Y21.55
X25.45Y18.55
X25.498Y8.922
X28.45Y21.55
X28.45Y18.55
X28.45Y15.55
X31.45Y21.55
X31.45Y18.55
X31.45Y15.55
X31.45Y12.55
X31.45Y9.55
X31.45Y6.55
X31.45Y3.55
X34.45Y15.55
X34.45Y12.55
X34.45Y9.55
X34.45Y6.55
X34.45Y3.55
X34.968Y26.0
X36.812Y38.468
X36.812Y30.013
X37.45Y42.55
X37.45Y21.55
X37.45Y18.55
X37.45Y15.55
X39.147Y41.008
X39.147Y36.266
X40.28Y11.368
X40.45Y42.55
X40.45Y39.55
X40.45Y30.55
X40.45Y27.55
X40.45Y24.55
X40.45Y18.55
X40.45Y15.55
X40.45Y12.55
X43.45Y36.55
X43.45Y9.55
X44.147Y22.911
X46.45Y33.55
X46.45Y30.55
X46.45Y21.55
X46.45Y12.55
X46.45Y9.55
X46.9Y18.45
T3
X12.328Y17.45
X13.955Y31.0
X18.483Y13.16
X21.091Y9.633
X27.953Y19.5
X42.2Y30.906
X43.49Y12.625
T5
X22.11Y6.3
X27.89Y6.3
T6
X4.0Y40.0
X4.0Y4.0
X46.0Y40.0
X46.0Y4.0
T4
X20.68Y7.38G85X20.68Y6.28
G05
X20.68Y2.95G85X20.68Y2.35
G05
X29.32Y7.38G85X29.32Y6.28
G05
X29.32Y2.95G85X29.32Y2.35
G05
M30
