%TF.GenerationSoftware,KiCad,Pcbnew,10.0.6*%
%TF.CreationDate,2026-09-29T16:20:15+03:00*%
%TF.ProjectId,starter,73746172-7465-4722-9e6b-696361645f70,rev?*%
%TF.SameCoordinates,Original*%
%TF.FileFunction,Copper,L2,Bot*%
%TF.FilePolarity,Positive*%
%FSLAX46Y46*%
G04 Gerber Fmt 4.6, Leading zero omitted, Abs format (unit mm)*
G04 Created by KiCad (PCBNEW 10.0.6) date 2026-09-29 16:20:15*
%MOMM*%
%LPD*%
G01*
G04 APERTURE LIST*
%TA.AperFunction,ComponentPad*%
%ADD10O,1.000000X2.100000*%
%TD*%
%TA.AperFunction,ComponentPad*%
%ADD11O,1.000000X1.600000*%
%TD*%
%TA.AperFunction,HeatsinkPad*%
%ADD12C,0.600000*%
%TD*%
%TA.AperFunction,ViaPad*%
%ADD13C,0.600000*%
%TD*%
%TA.AperFunction,ViaPad*%
%ADD14C,0.800000*%
%TD*%
%TA.AperFunction,Conductor*%
%ADD15C,0.300000*%
%TD*%
%TA.AperFunction,Conductor*%
%ADD16C,0.200000*%
%TD*%
G04 APERTURE END LIST*
D10*
%TO.P,J1,SH*%
%TO.N,GND*%
X20680000Y6830000D03*
D11*
X20680000Y2650000D03*
D10*
X29320000Y6830000D03*
D11*
X29320000Y2650000D03*
%TD*%
D12*
%TO.P,U1,41*%
%TO.N,GND*%
X22100000Y35490000D03*
X22100000Y34090000D03*
X22800000Y36190000D03*
X22800000Y34790000D03*
X22800000Y33390000D03*
X23500000Y35490000D03*
X23500000Y34090000D03*
X24200000Y36190000D03*
X24200000Y34790000D03*
X24200000Y33390000D03*
X24900000Y35490000D03*
X24900000Y34090000D03*
%TD*%
D13*
%TO.N,GND*%
X37450000Y39550000D03*
X25450000Y21550000D03*
X4450000Y15550000D03*
X46450000Y9550000D03*
X16450000Y6550000D03*
X46450000Y30550000D03*
X34450000Y6550000D03*
X1450000Y21550000D03*
X31450000Y18550000D03*
X19450000Y12550000D03*
X1450000Y18550000D03*
X43450000Y12550000D03*
X31450000Y21550000D03*
X28450000Y21550000D03*
X16450000Y3550000D03*
X31450000Y3550000D03*
X34450000Y18550000D03*
X1450000Y15550000D03*
X4450000Y18550000D03*
X43450000Y9550000D03*
X28450000Y18550000D03*
X22450000Y15550000D03*
X22450000Y21550000D03*
X31450000Y12550000D03*
X46450000Y12550000D03*
X31450000Y6550000D03*
X31450000Y15550000D03*
X19450000Y15550000D03*
X34450000Y3550000D03*
X34450000Y9550000D03*
X31450000Y9550000D03*
X16450000Y21550000D03*
X1450000Y9550000D03*
X46450000Y33550000D03*
X19450000Y18550000D03*
X46450000Y21550000D03*
X10450000Y42550000D03*
X34450000Y15550000D03*
X40450000Y42550000D03*
X34450000Y12550000D03*
X10450000Y39550000D03*
X1450000Y12550000D03*
X28450000Y15550000D03*
D14*
X18613200Y42935700D03*
D13*
X7450000Y42550000D03*
X25450000Y18550000D03*
X19450000Y9550000D03*
X28450000Y12550000D03*
%TO.N,/I2C_SCL*%
X42346000Y29371000D03*
X43797100Y22674500D03*
%TO.N,/I2C_SDA*%
X46265900Y19099000D03*
X42433200Y19829700D03*
X39762700Y36386600D03*
%TO.N,+3V3*%
X6950000Y35050000D03*
X10950000Y35050000D03*
X2950000Y27050000D03*
X8950000Y29050000D03*
X2950000Y29050000D03*
X2950000Y33050000D03*
X8950000Y35050000D03*
X2950000Y31050000D03*
X4950000Y35050000D03*
X10950000Y29050000D03*
X8950000Y31050000D03*
X4950000Y29050000D03*
X6950000Y33050000D03*
X8950000Y33050000D03*
X6950000Y29050000D03*
X4950000Y33050000D03*
X6950000Y31050000D03*
X4950000Y31050000D03*
X2950000Y25050000D03*
X2950000Y35050000D03*
D14*
%TO.N,VBUS*%
X21891300Y13600000D03*
X27991800Y9464500D03*
X24047900Y10271400D03*
D13*
%TO.N,/CC1*%
X19596900Y10836700D03*
X23657300Y8946100D03*
%TO.N,/USB_D+*%
X25928000Y11177900D03*
X24638200Y11982800D03*
%TO.N,/EN*%
X15045000Y39945000D03*
X12818500Y29748500D03*
X12818500Y7503200D03*
%TO.N,/UART_TX*%
X36812500Y30219000D03*
X36812500Y36859000D03*
%TO.N,/UART_RX*%
X35519100Y37004900D03*
X35519100Y26963500D03*
%TD*%
%TO.N,GND*%
D15*
X22100000Y35490000D02*
X18613200Y38976800D01*
X22800000Y34790000D02*
X22800000Y36190000D01*
X18613200Y38976800D02*
X18613200Y42935700D01*
X29320000Y6830000D02*
X29320000Y28270000D01*
X20680000Y2650000D02*
X20680000Y6830000D01*
X29320000Y2650000D02*
X29320000Y6830000D01*
X29320000Y28270000D02*
X24200000Y33390000D01*
%TO.N,/I2C_SCL*%
D16*
X43797100Y22674500D02*
X42346000Y24125600D01*
X42346000Y24125600D02*
X42346000Y29371000D01*
%TO.N,/I2C_SDA*%
X43163900Y19099000D02*
X42433200Y19829700D01*
X46265900Y19099000D02*
X43163900Y19099000D01*
X42433200Y19829700D02*
X39762700Y22500200D01*
X39762700Y22500200D02*
X39762700Y36386600D01*
%TO.N,VBUS*%
D15*
X24047900Y10271400D02*
X27184900Y10271400D01*
X21891300Y12428000D02*
X24047900Y10271400D01*
X21891300Y13600000D02*
X21891300Y12428000D01*
X27184900Y10271400D02*
X27991800Y9464500D01*
%TO.N,/CC1*%
D16*
X21487500Y8946100D02*
X23657300Y8946100D01*
X19596900Y10836700D02*
X21487500Y8946100D01*
%TO.N,/USB_D+*%
D15*
X25123100Y11982800D02*
X24638200Y11982800D01*
X25928000Y11177900D02*
X25123100Y11982800D01*
%TO.N,/EN*%
D16*
X12818500Y29748500D02*
X15045000Y31975000D01*
X12818500Y7503200D02*
X12818500Y29748500D01*
X15045000Y31975000D02*
X15045000Y39945000D01*
%TO.N,/UART_TX*%
X36812500Y30219000D02*
X36812500Y36859000D01*
%TO.N,/UART_RX*%
X35519100Y37004900D02*
X35519100Y26963500D01*
%TD*%
%TA.AperFunction,Conductor*%
%TO.N,GND*%
G36*
X885870Y48899167D02*
G01*
X890971Y48900014D01*
X900157Y48896058D01*
X933804Y48888736D01*
X946390Y48876149D01*
X955144Y48872379D01*
X965444Y48857094D01*
X983200Y48839336D01*
X984656Y48836671D01*
X984833Y48836347D01*
X988130Y48823427D01*
X994188Y48814437D01*
X994538Y48798318D01*
X1000000Y48776921D01*
X1000000Y44000000D01*
X49000000Y44000000D01*
X49000000Y48769573D01*
X49000006Y48769620D01*
X49000000Y48769642D01*
X49000019Y48769708D01*
X49005021Y48804500D01*
X49006681Y48810156D01*
X49008207Y48815355D01*
X49017878Y48830404D01*
X49019722Y48836671D01*
X49024640Y48840928D01*
X49045977Y48874134D01*
X49109531Y48903163D01*
X49178686Y48893225D01*
X49181800Y48891803D01*
X49229544Y48853324D01*
X49253495Y48821329D01*
X49258544Y48814058D01*
X49263317Y48806631D01*
X49267833Y48799019D01*
X49357620Y48634587D01*
X49357856Y48633502D01*
X49361578Y48626681D01*
X49365256Y48618628D01*
X49368640Y48610458D01*
X49434111Y48434920D01*
X49436906Y48426522D01*
X49439398Y48418035D01*
X49441587Y48409458D01*
X49481407Y48226405D01*
X49482978Y48217703D01*
X49484238Y48208944D01*
X49485185Y48200135D01*
X49499026Y48006629D01*
X49499263Y48002209D01*
X49499421Y47997786D01*
X49499500Y47993359D01*
X49499500Y2006643D01*
X49499421Y2002216D01*
X49499263Y1997793D01*
X49499026Y1993373D01*
X49485185Y1799867D01*
X49484238Y1791058D01*
X49482978Y1782299D01*
X49481407Y1773597D01*
X49441587Y1590544D01*
X49439398Y1581967D01*
X49436906Y1573480D01*
X49434111Y1565082D01*
X49368640Y1389544D01*
X49365250Y1381359D01*
X49361580Y1373324D01*
X49357620Y1365415D01*
X49267835Y1200987D01*
X49263316Y1193370D01*
X49258529Y1185922D01*
X49253483Y1178656D01*
X49141219Y1028688D01*
X49135665Y1021796D01*
X49129869Y1015107D01*
X49123837Y1008628D01*
X48991372Y876163D01*
X48984893Y870131D01*
X48978204Y864335D01*
X48971312Y858781D01*
X48821344Y746517D01*
X48814078Y741471D01*
X48806630Y736684D01*
X48799013Y732165D01*
X48634585Y642380D01*
X48626676Y638420D01*
X48618641Y634750D01*
X48610456Y631360D01*
X48434918Y565889D01*
X48426520Y563094D01*
X48418033Y560602D01*
X48409456Y558413D01*
X48226403Y518593D01*
X48217699Y517022D01*
X48208939Y515762D01*
X48200132Y514815D01*
X48023779Y502201D01*
X48015674Y501622D01*
X48006618Y500974D01*
X48002234Y500739D01*
X47997929Y500585D01*
X47997810Y500580D01*
X47993356Y500500D01*
X2006643Y500500D01*
X2002218Y500579D01*
X1997792Y500738D01*
X1993374Y500974D01*
X1986118Y501493D01*
X1973622Y502387D01*
X1973621Y502388D01*
X1799866Y514815D01*
X1791059Y515762D01*
X1782299Y517022D01*
X1773595Y518593D01*
X1590542Y558413D01*
X1581965Y560602D01*
X1573478Y563094D01*
X1565080Y565889D01*
X1389542Y631360D01*
X1381372Y634744D01*
X1373317Y638423D01*
X1365413Y642380D01*
X1200985Y732165D01*
X1193368Y736684D01*
X1185920Y741471D01*
X1178654Y746517D01*
X1028686Y858781D01*
X1021794Y864335D01*
X1015105Y870131D01*
X1008626Y876163D01*
X876161Y1008628D01*
X870129Y1015107D01*
X864333Y1021796D01*
X858779Y1028688D01*
X746515Y1178656D01*
X741469Y1185922D01*
X736682Y1193370D01*
X732171Y1200972D01*
X642366Y1365436D01*
X638417Y1373328D01*
X634747Y1381365D01*
X631366Y1389526D01*
X565878Y1565104D01*
X563090Y1573483D01*
X560595Y1581983D01*
X558412Y1590540D01*
X547424Y1641053D01*
X518587Y1773615D01*
X517020Y1782299D01*
X515757Y1791083D01*
X514814Y1799853D01*
X511941Y1840027D01*
X500973Y1993376D01*
X500737Y1997794D01*
X500579Y2002220D01*
X500500Y2006644D01*
X500500Y4118013D01*
X2199500Y4118013D01*
X2199500Y3881989D01*
X2199503Y3881960D01*
X2228861Y3658957D01*
X2230306Y3647990D01*
X2280685Y3459974D01*
X2280684Y3459974D01*
X2291391Y3420016D01*
X2291397Y3419998D01*
X2381715Y3201952D01*
X2381719Y3201944D01*
X2420829Y3134205D01*
X2499730Y2997545D01*
X2499939Y2997230D01*
X2500947Y2995960D01*
X2643399Y2810311D01*
X2643403Y2810306D01*
X2643406Y2810303D01*
X2643412Y2810296D01*
X2643420Y2810288D01*
X2810281Y2643426D01*
X2810297Y2643411D01*
X2810305Y2643405D01*
X2997548Y2499728D01*
X2997550Y2499727D01*
X3083680Y2450000D01*
X3083681Y2449999D01*
X3198503Y2383706D01*
X3200241Y2382626D01*
X3201710Y2381811D01*
X3202427Y2381519D01*
X3420007Y2291394D01*
X3647986Y2230307D01*
X3881989Y2199500D01*
X3881996Y2199500D01*
X4118004Y2199500D01*
X4118011Y2199500D01*
X4352014Y2230307D01*
X4579993Y2291394D01*
X4798049Y2381716D01*
X5002450Y2499727D01*
X5189699Y2643408D01*
X5356592Y2810301D01*
X5500273Y2997550D01*
X5518316Y3028802D01*
X19880000Y3028802D01*
X19880000Y3028798D01*
X19880000Y2850000D01*
X20256000Y2850000D01*
X20323039Y2830315D01*
X20368794Y2777511D01*
X20380000Y2726000D01*
X20380000Y2574000D01*
X20360315Y2506961D01*
X20307511Y2461206D01*
X20256000Y2450000D01*
X19880000Y2450000D01*
X19880000Y2271200D01*
X19910735Y2116683D01*
X19910743Y2116648D01*
X19971043Y1971067D01*
X19971048Y1971057D01*
X20058599Y1840029D01*
X20058605Y1840022D01*
X20170020Y1728607D01*
X20170026Y1728602D01*
X20170027Y1728601D01*
X20301043Y1641058D01*
X20301048Y1641055D01*
X20301051Y1641053D01*
X20301061Y1641048D01*
X20446647Y1580744D01*
X20446653Y1580742D01*
X20479999Y1574110D01*
X20480000Y1574110D01*
X20480000Y1574111D01*
X20480000Y1931408D01*
X20499685Y1998447D01*
X20552489Y2044202D01*
X20621647Y2054146D01*
X20636084Y2051185D01*
X20640504Y2050000D01*
X20719493Y2050000D01*
X20719496Y2050000D01*
X20723903Y2051181D01*
X20793750Y2049522D01*
X20851615Y2010362D01*
X20879122Y1946135D01*
X20880000Y1931408D01*
X20880000Y1574111D01*
X20880000Y1574110D01*
X20913346Y1580742D01*
X20913352Y1580744D01*
X21058938Y1641048D01*
X21058948Y1641053D01*
X21189969Y1728599D01*
X21189973Y1728602D01*
X21301398Y1840027D01*
X21301401Y1840031D01*
X21388947Y1971052D01*
X21388952Y1971061D01*
X21388955Y1971067D01*
X21421649Y2050000D01*
X21449256Y2116649D01*
X21449258Y2116657D01*
X21478480Y2263568D01*
X21479203Y2266297D01*
X21480000Y2271205D01*
X21480000Y2450000D01*
X21104000Y2450000D01*
X21036961Y2469685D01*
X20991206Y2522489D01*
X20980000Y2574000D01*
X20980000Y2726000D01*
X20999685Y2793039D01*
X21052489Y2838794D01*
X21104000Y2850000D01*
X21480000Y2850000D01*
X21480000Y3026181D01*
X21480000Y3028794D01*
X21479999Y3028798D01*
X21479998Y3028802D01*
X28520000Y3028802D01*
X28520000Y3028798D01*
X28520000Y2850000D01*
X28896000Y2850000D01*
X28963039Y2830315D01*
X29008794Y2777511D01*
X29020000Y2726000D01*
X29020000Y2574000D01*
X29000315Y2506961D01*
X28947511Y2461206D01*
X28896000Y2450000D01*
X28520000Y2450000D01*
X28520000Y2271200D01*
X28550735Y2116683D01*
X28550743Y2116648D01*
X28611043Y1971067D01*
X28611048Y1971057D01*
X28698599Y1840029D01*
X28698605Y1840022D01*
X28810020Y1728607D01*
X28810026Y1728602D01*
X28810027Y1728601D01*
X28941043Y1641058D01*
X28941048Y1641055D01*
X28941051Y1641053D01*
X28941061Y1641048D01*
X29086647Y1580744D01*
X29086653Y1580742D01*
X29119999Y1574110D01*
X29120000Y1574110D01*
X29120000Y1574111D01*
X29120000Y1931408D01*
X29139685Y1998447D01*
X29192489Y2044202D01*
X29261647Y2054146D01*
X29276084Y2051185D01*
X29280504Y2050000D01*
X29359493Y2050000D01*
X29359496Y2050000D01*
X29363903Y2051181D01*
X29433750Y2049522D01*
X29491615Y2010362D01*
X29519122Y1946135D01*
X29520000Y1931408D01*
X29520000Y1574111D01*
X29520000Y1574110D01*
X29553346Y1580742D01*
X29553352Y1580744D01*
X29698938Y1641048D01*
X29698948Y1641053D01*
X29829969Y1728599D01*
X29829973Y1728602D01*
X29941398Y1840027D01*
X29941401Y1840031D01*
X30028947Y1971052D01*
X30028952Y1971061D01*
X30028955Y1971067D01*
X30061649Y2050000D01*
X30089256Y2116649D01*
X30089258Y2116657D01*
X30118480Y2263568D01*
X30119203Y2266297D01*
X30120000Y2271205D01*
X30120000Y2450000D01*
X29744000Y2450000D01*
X29676961Y2469685D01*
X29631206Y2522489D01*
X29620000Y2574000D01*
X29620000Y2726000D01*
X29639685Y2793039D01*
X29692489Y2838794D01*
X29744000Y2850000D01*
X30120000Y2850000D01*
X30120000Y3028796D01*
X30119909Y3029534D01*
X30119408Y3031769D01*
X30089263Y3183319D01*
X30089262Y3183320D01*
X30089258Y3183344D01*
X30089256Y3183352D01*
X30059248Y3255799D01*
X30028955Y3328935D01*
X30028950Y3328945D01*
X29985174Y3394460D01*
X29941401Y3459970D01*
X29941398Y3459974D01*
X29941393Y3459980D01*
X29829978Y3571395D01*
X29829972Y3571400D01*
X29829971Y3571401D01*
X29698942Y3658952D01*
X29698943Y3658952D01*
X29698933Y3658957D01*
X29553351Y3719257D01*
X29553331Y3719262D01*
X29520000Y3725893D01*
X29520000Y3368593D01*
X29500315Y3301554D01*
X29447511Y3255799D01*
X29378353Y3245855D01*
X29363918Y3248816D01*
X29359496Y3250000D01*
X29359494Y3250000D01*
X29280506Y3250000D01*
X29280504Y3250000D01*
X29276089Y3248818D01*
X29206241Y3250482D01*
X29148379Y3289646D01*
X29120877Y3353875D01*
X29120000Y3368593D01*
X29120000Y3725891D01*
X29119999Y3725893D01*
X29086674Y3719263D01*
X29086647Y3719257D01*
X28941065Y3658957D01*
X28941055Y3658952D01*
X28810027Y3571401D01*
X28810026Y3571400D01*
X28810020Y3571395D01*
X28698605Y3459980D01*
X28698600Y3459974D01*
X28611048Y3328945D01*
X28611043Y3328935D01*
X28550743Y3183354D01*
X28550735Y3183319D01*
X28520000Y3028802D01*
X21479998Y3028802D01*
X21449258Y3183344D01*
X21449256Y3183352D01*
X21419248Y3255799D01*
X21388955Y3328935D01*
X21388950Y3328945D01*
X21345174Y3394460D01*
X21301401Y3459970D01*
X21301398Y3459974D01*
X21301393Y3459980D01*
X21189978Y3571395D01*
X21189972Y3571400D01*
X21189971Y3571401D01*
X21058942Y3658952D01*
X21058943Y3658952D01*
X21058933Y3658957D01*
X20913351Y3719257D01*
X20913331Y3719262D01*
X20880000Y3725893D01*
X20880000Y3368593D01*
X20860315Y3301554D01*
X20807511Y3255799D01*
X20738353Y3245855D01*
X20723918Y3248816D01*
X20719496Y3250000D01*
X20719494Y3250000D01*
X20640506Y3250000D01*
X20640504Y3250000D01*
X20636089Y3248818D01*
X20566241Y3250482D01*
X20508379Y3289646D01*
X20480877Y3353875D01*
X20480000Y3368593D01*
X20480000Y3725891D01*
X20479999Y3725893D01*
X20446674Y3719263D01*
X20446647Y3719257D01*
X20301065Y3658957D01*
X20301055Y3658952D01*
X20170027Y3571401D01*
X20170026Y3571400D01*
X20170020Y3571395D01*
X20058605Y3459980D01*
X20058600Y3459974D01*
X19971048Y3328945D01*
X19971043Y3328935D01*
X19910743Y3183354D01*
X19910735Y3183319D01*
X19880000Y3028802D01*
X5518316Y3028802D01*
X5579171Y3134205D01*
X5618280Y3201944D01*
X5618280Y3201945D01*
X5618284Y3201951D01*
X5708606Y3420007D01*
X5769693Y3647986D01*
X5800500Y3881989D01*
X5800500Y4118011D01*
X5800500Y4118013D01*
X44199500Y4118013D01*
X44199500Y3881989D01*
X44199503Y3881960D01*
X44228861Y3658957D01*
X44230306Y3647990D01*
X44280685Y3459974D01*
X44280684Y3459974D01*
X44291391Y3420016D01*
X44291397Y3419998D01*
X44381715Y3201952D01*
X44381719Y3201944D01*
X44420829Y3134205D01*
X44499730Y2997545D01*
X44499939Y2997230D01*
X44500947Y2995960D01*
X44643399Y2810311D01*
X44643403Y2810306D01*
X44643406Y2810303D01*
X44643412Y2810296D01*
X44643420Y2810288D01*
X44810281Y2643426D01*
X44810297Y2643411D01*
X44810305Y2643405D01*
X44997548Y2499728D01*
X44997550Y2499727D01*
X45083680Y2450000D01*
X45083681Y2449999D01*
X45198503Y2383706D01*
X45200241Y2382626D01*
X45201710Y2381811D01*
X45202427Y2381519D01*
X45420007Y2291394D01*
X45647986Y2230307D01*
X45881989Y2199500D01*
X45881996Y2199500D01*
X46118004Y2199500D01*
X46118011Y2199500D01*
X46352014Y2230307D01*
X46579993Y2291394D01*
X46798049Y2381716D01*
X47002450Y2499727D01*
X47189699Y2643408D01*
X47356592Y2810301D01*
X47500273Y2997550D01*
X47618284Y3201951D01*
X47708606Y3420007D01*
X47769693Y3647986D01*
X47800500Y3881989D01*
X47800500Y4118011D01*
X47769693Y4352014D01*
X47708606Y4579993D01*
X47618489Y4797553D01*
X47618189Y4798292D01*
X47617382Y4799745D01*
X47616297Y4801491D01*
X47576118Y4871082D01*
X47500273Y5002450D01*
X47500272Y5002452D01*
X47356595Y5189695D01*
X47356589Y5189703D01*
X47356574Y5189719D01*
X47189712Y5356580D01*
X47189704Y5356588D01*
X47189697Y5356594D01*
X47189694Y5356597D01*
X47189689Y5356601D01*
X47004040Y5499053D01*
X47002776Y5500056D01*
X47002447Y5500275D01*
X47002445Y5500277D01*
X46920957Y5547323D01*
X46920955Y5547325D01*
X46798065Y5618276D01*
X46798048Y5618285D01*
X46579997Y5708605D01*
X46352006Y5769695D01*
X46119889Y5800253D01*
X46118208Y5800500D01*
X46118017Y5800500D01*
X46118011Y5800500D01*
X45881989Y5800500D01*
X45881983Y5800500D01*
X45881981Y5800500D01*
X45875861Y5799747D01*
X45874955Y5799575D01*
X45647992Y5769695D01*
X45420001Y5708605D01*
X45201950Y5618285D01*
X45201942Y5618281D01*
X44997545Y5500270D01*
X44997536Y5500264D01*
X44810309Y5356601D01*
X44810294Y5356587D01*
X44810286Y5356580D01*
X44643420Y5189714D01*
X44643413Y5189706D01*
X44643399Y5189691D01*
X44499736Y5002464D01*
X44499730Y5002455D01*
X44381719Y4798058D01*
X44381715Y4798050D01*
X44291395Y4579999D01*
X44230305Y4352008D01*
X44199503Y4118037D01*
X44199500Y4118013D01*
X5800500Y4118013D01*
X5769693Y4352014D01*
X5708606Y4579993D01*
X5618489Y4797553D01*
X5618189Y4798292D01*
X5617382Y4799745D01*
X5616297Y4801491D01*
X5576118Y4871082D01*
X5500273Y5002450D01*
X5500272Y5002452D01*
X5356595Y5189695D01*
X5356589Y5189703D01*
X5356574Y5189719D01*
X5189712Y5356580D01*
X5189704Y5356588D01*
X5189697Y5356594D01*
X5189694Y5356597D01*
X5189689Y5356601D01*
X5004040Y5499053D01*
X5002776Y5500056D01*
X5002447Y5500275D01*
X5002445Y5500277D01*
X4920957Y5547323D01*
X4920955Y5547325D01*
X4798065Y5618276D01*
X4798048Y5618285D01*
X4579997Y5708605D01*
X4352006Y5769695D01*
X4119889Y5800253D01*
X4118208Y5800500D01*
X4118017Y5800500D01*
X4118011Y5800500D01*
X3881989Y5800500D01*
X3881983Y5800500D01*
X3881981Y5800500D01*
X3875861Y5799747D01*
X3874955Y5799575D01*
X3647992Y5769695D01*
X3420001Y5708605D01*
X3201950Y5618285D01*
X3201942Y5618281D01*
X2997545Y5500270D01*
X2997536Y5500264D01*
X2810309Y5356601D01*
X2810294Y5356587D01*
X2810286Y5356580D01*
X2643420Y5189714D01*
X2643413Y5189706D01*
X2643399Y5189691D01*
X2499736Y5002464D01*
X2499730Y5002455D01*
X2381719Y4798058D01*
X2381715Y4798050D01*
X2291395Y4579999D01*
X2230305Y4352008D01*
X2199503Y4118037D01*
X2199500Y4118013D01*
X500500Y4118013D01*
X500500Y23893248D01*
X520185Y23960287D01*
X572989Y24006042D01*
X642147Y24015986D01*
X705703Y23986961D01*
X731538Y23955848D01*
X780320Y23872437D01*
X780325Y23872429D01*
X826081Y23819624D01*
X826091Y23819613D01*
X870807Y23777452D01*
X870809Y23777451D01*
X870813Y23777447D01*
X970889Y23726561D01*
X1037928Y23706876D01*
X1124000Y23694500D01*
X1124003Y23694500D01*
X12294000Y23694500D01*
X12361039Y23674815D01*
X12406794Y23622011D01*
X12418000Y23570500D01*
X12418000Y8021128D01*
X12412976Y7986191D01*
X12405564Y7960950D01*
X12374269Y7908206D01*
X12337986Y7871924D01*
X12337980Y7871918D01*
X12337970Y7871902D01*
X12258930Y7735000D01*
X12258925Y7734990D01*
X12258924Y7734989D01*
X12258922Y7734982D01*
X12254813Y7719646D01*
X12218000Y7582257D01*
X12218000Y7424144D01*
X12241626Y7335970D01*
X12258922Y7271420D01*
X12258924Y7271413D01*
X12258925Y7271412D01*
X12258928Y7271407D01*
X12336129Y7137687D01*
X12337512Y7135116D01*
X12337898Y7134566D01*
X12449836Y7022628D01*
X12450352Y7022248D01*
X12452975Y7020837D01*
X12586709Y6943627D01*
X12586716Y6943623D01*
X12739443Y6902700D01*
X12739445Y6902700D01*
X12897555Y6902700D01*
X12897557Y6902700D01*
X13050284Y6943623D01*
X13187216Y7022680D01*
X13299020Y7134484D01*
X13378077Y7271416D01*
X13419000Y7424143D01*
X13419000Y7458802D01*
X19880000Y7458802D01*
X19880000Y7458798D01*
X19880000Y7030000D01*
X20256000Y7030000D01*
X20323039Y7010315D01*
X20368794Y6957511D01*
X20380000Y6906000D01*
X20380000Y6754000D01*
X20360315Y6686961D01*
X20307511Y6641206D01*
X20256000Y6630000D01*
X19880000Y6630000D01*
X19880000Y6201200D01*
X19910735Y6046683D01*
X19910743Y6046648D01*
X19971043Y5901067D01*
X19971048Y5901057D01*
X20058599Y5770029D01*
X20058600Y5770028D01*
X20058605Y5770022D01*
X20170020Y5658607D01*
X20170026Y5658602D01*
X20170027Y5658601D01*
X20301043Y5571058D01*
X20301048Y5571055D01*
X20301051Y5571053D01*
X20301061Y5571048D01*
X20446647Y5510744D01*
X20446653Y5510742D01*
X20479999Y5504110D01*
X20480000Y5504110D01*
X20480000Y5504111D01*
X20480000Y5861408D01*
X20499685Y5928447D01*
X20552489Y5974202D01*
X20621647Y5984146D01*
X20636084Y5981185D01*
X20640504Y5980000D01*
X20719493Y5980000D01*
X20719496Y5980000D01*
X20723903Y5981181D01*
X20793750Y5979522D01*
X20851615Y5940362D01*
X20879122Y5876135D01*
X20880000Y5861408D01*
X20880000Y5504111D01*
X20880000Y5504110D01*
X20913346Y5510742D01*
X20913352Y5510744D01*
X21058938Y5571048D01*
X21058948Y5571053D01*
X21189969Y5658599D01*
X21189973Y5658602D01*
X21301398Y5770027D01*
X21301401Y5770031D01*
X21388947Y5901052D01*
X21388954Y5901065D01*
X21429850Y5999799D01*
X21447850Y6030139D01*
X21455682Y6039858D01*
X21513071Y6079707D01*
X21582896Y6082205D01*
X21640440Y6049210D01*
X21645615Y6043973D01*
X21647411Y6042155D01*
X21666593Y6017001D01*
X21689488Y5977345D01*
X21689492Y5977339D01*
X21689494Y5977336D01*
X21689495Y5977335D01*
X21787335Y5879495D01*
X21787336Y5879494D01*
X21787338Y5879493D01*
X21818663Y5861408D01*
X21907164Y5810312D01*
X22040817Y5774500D01*
X22040819Y5774500D01*
X22179181Y5774500D01*
X22179183Y5774500D01*
X22312836Y5810312D01*
X22432665Y5879495D01*
X22530505Y5977335D01*
X22599688Y6097164D01*
X22635500Y6230817D01*
X22635500Y6369183D01*
X27364500Y6369183D01*
X27364500Y6230818D01*
X27383069Y6161515D01*
X27400308Y6097179D01*
X27400313Y6097162D01*
X27400317Y6097154D01*
X27469488Y5977345D01*
X27469492Y5977339D01*
X27469494Y5977336D01*
X27469495Y5977335D01*
X27567335Y5879495D01*
X27567336Y5879494D01*
X27567338Y5879493D01*
X27598663Y5861408D01*
X27687164Y5810312D01*
X27820817Y5774500D01*
X27820819Y5774500D01*
X27959181Y5774500D01*
X27959183Y5774500D01*
X28092836Y5810312D01*
X28212665Y5879495D01*
X28310505Y5977335D01*
X28332467Y6015378D01*
X28354279Y6043114D01*
X28363313Y6051728D01*
X28425414Y6083741D01*
X28494967Y6077099D01*
X28547705Y6036879D01*
X28552812Y6030141D01*
X28553697Y6028973D01*
X28569431Y6001531D01*
X28611049Y5901057D01*
X28611050Y5901055D01*
X28611056Y5901045D01*
X28698599Y5770029D01*
X28698600Y5770028D01*
X28698605Y5770022D01*
X28810020Y5658607D01*
X28810026Y5658602D01*
X28810027Y5658601D01*
X28941043Y5571058D01*
X28941048Y5571055D01*
X28941051Y5571053D01*
X28941061Y5571048D01*
X29086647Y5510744D01*
X29086653Y5510742D01*
X29119999Y5504110D01*
X29120000Y5504110D01*
X29120000Y5504111D01*
X29120000Y5861408D01*
X29139685Y5928447D01*
X29192489Y5974202D01*
X29261647Y5984146D01*
X29276084Y5981185D01*
X29280504Y5980000D01*
X29359493Y5980000D01*
X29359496Y5980000D01*
X29363903Y5981181D01*
X29433750Y5979522D01*
X29491615Y5940362D01*
X29519122Y5876135D01*
X29520000Y5861408D01*
X29520000Y5504111D01*
X29520000Y5504110D01*
X29553346Y5510742D01*
X29553352Y5510744D01*
X29698938Y5571048D01*
X29698948Y5571053D01*
X29829969Y5658599D01*
X29829973Y5658602D01*
X29941398Y5770027D01*
X29941401Y5770031D01*
X30028947Y5901052D01*
X30028952Y5901061D01*
X30028954Y5901065D01*
X30028955Y5901067D01*
X30061649Y5980000D01*
X30089256Y6046649D01*
X30089258Y6046657D01*
X30118480Y6193568D01*
X30119203Y6196297D01*
X30120000Y6201205D01*
X30120000Y6630000D01*
X29744000Y6630000D01*
X29676961Y6649685D01*
X29631206Y6702489D01*
X29620000Y6754000D01*
X29620000Y6906000D01*
X29639685Y6973039D01*
X29692489Y7018794D01*
X29744000Y7030000D01*
X30120000Y7030000D01*
X30120000Y7458796D01*
X30119909Y7459534D01*
X30119408Y7461769D01*
X30089263Y7613319D01*
X30089262Y7613320D01*
X30089258Y7613344D01*
X30089256Y7613352D01*
X30028952Y7758940D01*
X30028947Y7758949D01*
X29941401Y7889970D01*
X29941398Y7889974D01*
X29941393Y7889980D01*
X29829978Y8001395D01*
X29829972Y8001400D01*
X29829971Y8001401D01*
X29698942Y8088952D01*
X29698943Y8088952D01*
X29698933Y8088957D01*
X29553351Y8149257D01*
X29553331Y8149262D01*
X29520000Y8155893D01*
X29520000Y7798593D01*
X29500315Y7731554D01*
X29447511Y7685799D01*
X29378353Y7675855D01*
X29363918Y7678816D01*
X29359496Y7680000D01*
X29359494Y7680000D01*
X29280506Y7680000D01*
X29280504Y7680000D01*
X29276089Y7678818D01*
X29206241Y7680482D01*
X29148379Y7719646D01*
X29120877Y7783875D01*
X29120000Y7798593D01*
X29120000Y8155891D01*
X29119999Y8155893D01*
X29086674Y8149263D01*
X29086647Y8149257D01*
X28941065Y8088957D01*
X28941055Y8088952D01*
X28810027Y8001401D01*
X28810026Y8001400D01*
X28810020Y8001395D01*
X28698605Y7889980D01*
X28698600Y7889974D01*
X28698599Y7889973D01*
X28611051Y7758948D01*
X28611046Y7758940D01*
X28550743Y7613354D01*
X28550735Y7613319D01*
X28520000Y7458802D01*
X28520000Y7458798D01*
X28520000Y7030000D01*
X28896000Y7030000D01*
X28963039Y7010315D01*
X29008794Y6957511D01*
X29020000Y6906000D01*
X29020000Y6754000D01*
X29000315Y6686961D01*
X28947511Y6641206D01*
X28896000Y6630000D01*
X28519999Y6630000D01*
X28510864Y6620865D01*
X28482608Y6599714D01*
X28470209Y6592944D01*
X28401936Y6578094D01*
X28337063Y6602073D01*
X28321599Y6613507D01*
X28307640Y6625531D01*
X28212674Y6720497D01*
X28212667Y6720503D01*
X28212661Y6720508D01*
X28212660Y6720509D01*
X28154650Y6754000D01*
X28106973Y6781527D01*
X28100442Y6786538D01*
X28085230Y6792839D01*
X28077068Y6793913D01*
X28076059Y6794184D01*
X27959183Y6825500D01*
X27959182Y6825500D01*
X27820817Y6825500D01*
X27687177Y6789692D01*
X27687160Y6789687D01*
X27687148Y6789681D01*
X27567347Y6720515D01*
X27567337Y6720508D01*
X27567331Y6720503D01*
X27567324Y6720497D01*
X27469503Y6622676D01*
X27469497Y6622669D01*
X27469492Y6622663D01*
X27469485Y6622653D01*
X27400319Y6502852D01*
X27400313Y6502840D01*
X27400308Y6502823D01*
X27364500Y6369183D01*
X22635500Y6369183D01*
X22599688Y6502836D01*
X22532622Y6618998D01*
X22530507Y6622662D01*
X22530503Y6622667D01*
X22530501Y6622669D01*
X22530495Y6622676D01*
X22432674Y6720497D01*
X22432667Y6720503D01*
X22432661Y6720508D01*
X22432660Y6720509D01*
X22374650Y6754000D01*
X22326973Y6781527D01*
X22320442Y6786538D01*
X22305230Y6792839D01*
X22297068Y6793913D01*
X22296059Y6794184D01*
X22179183Y6825500D01*
X22179182Y6825500D01*
X22040817Y6825500D01*
X21907177Y6789692D01*
X21907160Y6789687D01*
X21907148Y6789681D01*
X21787347Y6720515D01*
X21787337Y6720508D01*
X21787332Y6720504D01*
X21692676Y6625848D01*
X21678114Y6613382D01*
X21661985Y6601606D01*
X21596234Y6577973D01*
X21528789Y6593280D01*
X21517004Y6599807D01*
X21489400Y6620600D01*
X21480000Y6630000D01*
X21104000Y6630000D01*
X21036961Y6649685D01*
X20991206Y6702489D01*
X20980000Y6754000D01*
X20980000Y6906000D01*
X20999685Y6973039D01*
X21052489Y7018794D01*
X21104000Y7030000D01*
X21480000Y7030000D01*
X21480000Y7458796D01*
X21479909Y7459534D01*
X21479408Y7461769D01*
X21449263Y7613319D01*
X21449262Y7613320D01*
X21449258Y7613344D01*
X21449256Y7613352D01*
X21388952Y7758940D01*
X21388947Y7758949D01*
X21301401Y7889970D01*
X21301398Y7889974D01*
X21301393Y7889980D01*
X21189978Y8001395D01*
X21189972Y8001400D01*
X21189971Y8001401D01*
X21058942Y8088952D01*
X21058943Y8088952D01*
X21058933Y8088957D01*
X20913351Y8149257D01*
X20913331Y8149262D01*
X20880000Y8155893D01*
X20880000Y7798593D01*
X20860315Y7731554D01*
X20807511Y7685799D01*
X20738353Y7675855D01*
X20723918Y7678816D01*
X20719496Y7680000D01*
X20719494Y7680000D01*
X20640506Y7680000D01*
X20640504Y7680000D01*
X20636089Y7678818D01*
X20566241Y7680482D01*
X20508379Y7719646D01*
X20480877Y7783875D01*
X20480000Y7798593D01*
X20480000Y8155891D01*
X20479999Y8155893D01*
X20446674Y8149263D01*
X20446647Y8149257D01*
X20301065Y8088957D01*
X20301055Y8088952D01*
X20170027Y8001401D01*
X20170026Y8001400D01*
X20170020Y8001395D01*
X20058605Y7889980D01*
X20058600Y7889974D01*
X20058599Y7889973D01*
X19971051Y7758948D01*
X19971046Y7758940D01*
X19910743Y7613354D01*
X19910735Y7613319D01*
X19880000Y7458802D01*
X13419000Y7458802D01*
X13419000Y7582257D01*
X13378077Y7734984D01*
X13375150Y7740054D01*
X13364242Y7758948D01*
X13337774Y7804792D01*
X13299024Y7871910D01*
X13299018Y7871918D01*
X13267923Y7903013D01*
X13246772Y7931269D01*
X13244047Y7936259D01*
X13242738Y7938658D01*
X13234166Y7954357D01*
X13219000Y8013780D01*
X13219000Y10915757D01*
X18996400Y10915757D01*
X18996400Y10757643D01*
X19005978Y10721900D01*
X19009243Y10709712D01*
X19009244Y10709708D01*
X19037322Y10604920D01*
X19037324Y10604913D01*
X19037325Y10604912D01*
X19037328Y10604907D01*
X19114529Y10471187D01*
X19115912Y10468616D01*
X19116298Y10468066D01*
X19228236Y10356128D01*
X19228754Y10355747D01*
X19231389Y10354329D01*
X19269401Y10332383D01*
X19308528Y10309793D01*
X19308529Y10309793D01*
X19365116Y10277123D01*
X19517843Y10236200D01*
X19561815Y10236200D01*
X19596747Y10231179D01*
X19621991Y10223766D01*
X19674737Y10192470D01*
X21241587Y8625620D01*
X21332912Y8572893D01*
X21434773Y8545600D01*
X21540227Y8545600D01*
X23139372Y8545600D01*
X23174304Y8540579D01*
X23199548Y8533166D01*
X23252294Y8501870D01*
X23288636Y8465528D01*
X23289152Y8465148D01*
X23291775Y8463737D01*
X23425509Y8386527D01*
X23425516Y8386523D01*
X23578243Y8345600D01*
X23578245Y8345600D01*
X23736355Y8345600D01*
X23736357Y8345600D01*
X23889084Y8386523D01*
X24026016Y8465580D01*
X24137820Y8577384D01*
X24216877Y8714316D01*
X24257800Y8867043D01*
X24257800Y9025157D01*
X24216877Y9177884D01*
X24169371Y9260168D01*
X24169371Y9260169D01*
X24154145Y9286541D01*
X24137824Y9314810D01*
X24137818Y9314818D01*
X24137814Y9314822D01*
X24137814Y9314823D01*
X24097398Y9355238D01*
X24076245Y9383495D01*
X24072512Y9390331D01*
X24069718Y9395448D01*
X24054868Y9463720D01*
X24079286Y9529184D01*
X24128042Y9568118D01*
X24135601Y9571489D01*
X24161895Y9579852D01*
X24196238Y9586683D01*
X24252228Y9597820D01*
X24379711Y9650625D01*
X24494442Y9727286D01*
X24539131Y9771977D01*
X24567387Y9793128D01*
X24590475Y9805734D01*
X24649898Y9820900D01*
X26929105Y9820900D01*
X26964037Y9815879D01*
X26989281Y9808466D01*
X27042027Y9777170D01*
X27242373Y9576824D01*
X27263523Y9548572D01*
X27276131Y9525483D01*
X27291300Y9466054D01*
X27291300Y9439874D01*
X27286037Y9421954D01*
X27318216Y9260185D01*
X27318217Y9260181D01*
X27318218Y9260178D01*
X27318221Y9260168D01*
X27318224Y9260160D01*
X27318229Y9260146D01*
X27371017Y9132703D01*
X27371022Y9132694D01*
X27371032Y9132677D01*
X27447686Y9017957D01*
X27447687Y9017956D01*
X27447692Y9017950D01*
X27545248Y8920394D01*
X27545254Y8920389D01*
X27545258Y8920386D01*
X27659982Y8843729D01*
X27659995Y8843722D01*
X27781872Y8793240D01*
X27786294Y8791148D01*
X27787025Y8791007D01*
X27787679Y8790879D01*
X27831757Y8782111D01*
X27922802Y8764000D01*
X28060795Y8764000D01*
X28060796Y8764000D01*
X28106318Y8773056D01*
X28151841Y8782111D01*
X28196128Y8790920D01*
X28323611Y8843725D01*
X28438342Y8920386D01*
X28535914Y9017958D01*
X28612575Y9132689D01*
X28665380Y9260172D01*
X28682572Y9346600D01*
X28688097Y9374376D01*
X28692300Y9395504D01*
X28692300Y9533499D01*
X28670034Y9645432D01*
X28665381Y9668823D01*
X28665380Y9668824D01*
X28665141Y9670028D01*
X28663060Y9674428D01*
X28660664Y9680213D01*
X28612578Y9796305D01*
X28612571Y9796318D01*
X28535914Y9911042D01*
X28535911Y9911046D01*
X28535906Y9911052D01*
X28438350Y10008608D01*
X28438344Y10008613D01*
X28438343Y10008614D01*
X28323623Y10085268D01*
X28323622Y10085269D01*
X28323617Y10085272D01*
X28323604Y10085279D01*
X28323597Y10085283D01*
X28196154Y10138071D01*
X28196140Y10138076D01*
X28196132Y10138079D01*
X28196122Y10138082D01*
X28196119Y10138083D01*
X28196115Y10138084D01*
X28060798Y10165000D01*
X28060795Y10165000D01*
X28060793Y10165000D01*
X27997595Y10165000D01*
X27962659Y10170023D01*
X27937417Y10177435D01*
X27884672Y10208731D01*
X27461516Y10631887D01*
X27461514Y10631889D01*
X27410150Y10661544D01*
X27399292Y10667813D01*
X27358789Y10691199D01*
X27346677Y10694444D01*
X27346677Y10694445D01*
X27334575Y10697687D01*
X27334575Y10697688D01*
X27334570Y10697688D01*
X27306606Y10705182D01*
X27296375Y10707923D01*
X27296375Y10707924D01*
X27244214Y10721900D01*
X27244209Y10721900D01*
X27244208Y10721900D01*
X26590730Y10721900D01*
X26555791Y10726924D01*
X26542473Y10730835D01*
X26483696Y10768611D01*
X26454674Y10832168D01*
X26454672Y10832179D01*
X26454441Y10833787D01*
X26460001Y10891977D01*
X26461644Y10896722D01*
X26471434Y10918156D01*
X26474427Y10923339D01*
X26486922Y10944982D01*
X26487576Y10946114D01*
X26487578Y10946121D01*
X26528500Y11098843D01*
X26528500Y11256957D01*
X26487577Y11409684D01*
X26442654Y11487494D01*
X26408524Y11546610D01*
X26408518Y11546618D01*
X26408513Y11546624D01*
X26296722Y11658415D01*
X26296720Y11658416D01*
X26296717Y11658419D01*
X26296709Y11658425D01*
X26270147Y11673760D01*
X26159807Y11737465D01*
X26159784Y11737477D01*
X26008022Y11778142D01*
X26006069Y11778683D01*
X26002672Y11779653D01*
X26002813Y11780148D01*
X25985522Y11785703D01*
X25956061Y11798737D01*
X25918549Y11824454D01*
X25399716Y12343287D01*
X25399714Y12343289D01*
X25348350Y12372944D01*
X25337492Y12379213D01*
X25296989Y12402599D01*
X25284877Y12405844D01*
X25284877Y12405845D01*
X25272775Y12409087D01*
X25272775Y12409088D01*
X25272770Y12409088D01*
X25244806Y12416582D01*
X25234575Y12419323D01*
X25234575Y12419324D01*
X25182414Y12433300D01*
X25182409Y12433300D01*
X25182408Y12433300D01*
X25105961Y12433300D01*
X25071023Y12438324D01*
X25041584Y12446969D01*
X25010534Y12461485D01*
X25010425Y12461295D01*
X25008233Y12462561D01*
X25007635Y12462840D01*
X25006910Y12463325D01*
X24869997Y12542370D01*
X24869983Y12542378D01*
X24758179Y12572336D01*
X24717257Y12583300D01*
X24717256Y12583300D01*
X24559143Y12583300D01*
X24406418Y12542378D01*
X24406411Y12542376D01*
X24406410Y12542375D01*
X24406400Y12542370D01*
X24269498Y12463330D01*
X24269494Y12463328D01*
X24269490Y12463325D01*
X24269482Y12463319D01*
X24269478Y12463316D01*
X24269476Y12463315D01*
X24157685Y12351524D01*
X24157684Y12351522D01*
X24157681Y12351519D01*
X24157681Y12351518D01*
X24157675Y12351510D01*
X24157672Y12351506D01*
X24157670Y12351502D01*
X24078630Y12214600D01*
X24078625Y12214590D01*
X24078624Y12214589D01*
X24078622Y12214582D01*
X24037700Y12061857D01*
X24037700Y11903744D01*
X24071285Y11778402D01*
X24078623Y11751017D01*
X24078625Y11751012D01*
X24078628Y11751007D01*
X24155829Y11617287D01*
X24157212Y11614716D01*
X24157598Y11614166D01*
X24269536Y11502228D01*
X24270058Y11501844D01*
X24272690Y11500428D01*
X24287648Y11491793D01*
X24295094Y11487494D01*
X24406416Y11423223D01*
X24559143Y11382300D01*
X24559145Y11382300D01*
X24717255Y11382300D01*
X24717257Y11382300D01*
X24869984Y11423223D01*
X24883461Y11431005D01*
X24916222Y11444122D01*
X24931415Y11447808D01*
X25001200Y11444488D01*
X25009588Y11441585D01*
X25056710Y11412087D01*
X25278691Y11190106D01*
X25299842Y11161853D01*
X25314545Y11134927D01*
X25326232Y11102715D01*
X25326447Y11102772D01*
X25327110Y11100297D01*
X25327330Y11099691D01*
X25327495Y11098859D01*
X25368422Y10946121D01*
X25368424Y10946114D01*
X25368425Y10946112D01*
X25381573Y10923339D01*
X25394690Y10890576D01*
X25397962Y10877090D01*
X25394639Y10807299D01*
X25354112Y10750384D01*
X25354108Y10750381D01*
X25352830Y10749376D01*
X25299652Y10725091D01*
X25294723Y10724141D01*
X25271262Y10721900D01*
X24657248Y10721900D01*
X24622312Y10726923D01*
X24597070Y10734335D01*
X24544325Y10765631D01*
X24494439Y10815517D01*
X24379723Y10892168D01*
X24379722Y10892169D01*
X24379717Y10892172D01*
X24379704Y10892179D01*
X24379697Y10892183D01*
X24252254Y10944971D01*
X24252240Y10944976D01*
X24252232Y10944979D01*
X24252222Y10944982D01*
X24252219Y10944983D01*
X24252215Y10944984D01*
X24116898Y10971900D01*
X24116895Y10971900D01*
X24116893Y10971900D01*
X24053695Y10971900D01*
X24018759Y10976923D01*
X23993517Y10984335D01*
X23940772Y11015631D01*
X22390726Y12565677D01*
X22369574Y12593933D01*
X22356967Y12617022D01*
X22341800Y12676447D01*
X22341800Y12990653D01*
X22346823Y13025588D01*
X22354235Y13050831D01*
X22385528Y13103574D01*
X22435414Y13153458D01*
X22512075Y13268189D01*
X22564880Y13395672D01*
X22591800Y13531007D01*
X22591800Y13668993D01*
X22591800Y13668996D01*
X22591800Y13668999D01*
X22564940Y13804025D01*
X22564793Y13804775D01*
X22564652Y13805506D01*
X22562560Y13809928D01*
X22512078Y13931805D01*
X22512071Y13931818D01*
X22435414Y14046542D01*
X22435411Y14046546D01*
X22435406Y14046552D01*
X22337850Y14144108D01*
X22337844Y14144113D01*
X22337843Y14144114D01*
X22223123Y14220768D01*
X22223122Y14220769D01*
X22223117Y14220772D01*
X22223104Y14220779D01*
X22223097Y14220783D01*
X22095654Y14273571D01*
X22095640Y14273576D01*
X22095632Y14273579D01*
X22095622Y14273582D01*
X22095619Y14273583D01*
X22095615Y14273584D01*
X21960298Y14300500D01*
X21960295Y14300500D01*
X21960293Y14300500D01*
X21822307Y14300500D01*
X21822305Y14300500D01*
X21822300Y14300500D01*
X21686983Y14273584D01*
X21686977Y14273582D01*
X21686967Y14273579D01*
X21686962Y14273578D01*
X21686944Y14273571D01*
X21559501Y14220783D01*
X21559492Y14220778D01*
X21559475Y14220768D01*
X21444755Y14144114D01*
X21444754Y14144113D01*
X21444748Y14144108D01*
X21347192Y14046552D01*
X21347187Y14046546D01*
X21347186Y14046545D01*
X21270532Y13931825D01*
X21270522Y13931808D01*
X21270517Y13931799D01*
X21217729Y13804356D01*
X21217716Y13804317D01*
X21190800Y13669000D01*
X21190800Y13575374D01*
X21185537Y13557454D01*
X21217716Y13395685D01*
X21217717Y13395681D01*
X21217718Y13395678D01*
X21217721Y13395668D01*
X21217724Y13395660D01*
X21217729Y13395646D01*
X21270517Y13268203D01*
X21270522Y13268194D01*
X21270532Y13268177D01*
X21347183Y13153461D01*
X21391874Y13108770D01*
X21413024Y13080518D01*
X21425631Y13057431D01*
X21440800Y12998002D01*
X21440800Y12368690D01*
X21445402Y12351516D01*
X21465011Y12278331D01*
X21467274Y12269886D01*
X21468348Y12261722D01*
X21474650Y12246508D01*
X21479663Y12239976D01*
X21530808Y12151390D01*
X21530813Y12151384D01*
X23298473Y10383724D01*
X23319623Y10355472D01*
X23332231Y10332383D01*
X23347400Y10272954D01*
X23347400Y10246774D01*
X23342137Y10228854D01*
X23374316Y10067085D01*
X23374317Y10067081D01*
X23374318Y10067078D01*
X23374321Y10067068D01*
X23374324Y10067060D01*
X23374329Y10067046D01*
X23427117Y9939603D01*
X23427121Y9939596D01*
X23427128Y9939583D01*
X23503785Y9824859D01*
X23503788Y9824855D01*
X23574502Y9754141D01*
X23595652Y9725887D01*
X23602303Y9713706D01*
X23617154Y9645432D01*
X23592736Y9579969D01*
X23592716Y9579942D01*
X23591743Y9578643D01*
X23546671Y9541442D01*
X23542162Y9539252D01*
X23520083Y9531018D01*
X23425525Y9505680D01*
X23425511Y9505676D01*
X23425510Y9505675D01*
X23425500Y9505670D01*
X23288598Y9426630D01*
X23288582Y9426620D01*
X23288576Y9426614D01*
X23257489Y9395526D01*
X23229237Y9374376D01*
X23206150Y9361769D01*
X23146721Y9346600D01*
X21722585Y9346600D01*
X21687649Y9351623D01*
X21662407Y9359035D01*
X21609662Y9390331D01*
X20246326Y10753667D01*
X20225174Y10781923D01*
X20212567Y10805012D01*
X20197400Y10864437D01*
X20197400Y10915755D01*
X20197400Y10915757D01*
X20156477Y11068484D01*
X20156473Y11068491D01*
X20077424Y11205410D01*
X20077418Y11205418D01*
X20077414Y11205422D01*
X20077413Y11205424D01*
X19965622Y11317215D01*
X19965620Y11317216D01*
X19965617Y11317219D01*
X19965609Y11317225D01*
X19939047Y11332560D01*
X19828707Y11396265D01*
X19828683Y11396278D01*
X19699088Y11431002D01*
X19675957Y11437200D01*
X19675956Y11437200D01*
X19517843Y11437200D01*
X19365118Y11396278D01*
X19365111Y11396276D01*
X19365110Y11396275D01*
X19365100Y11396270D01*
X19228198Y11317230D01*
X19228194Y11317228D01*
X19228190Y11317225D01*
X19228182Y11317219D01*
X19228178Y11317216D01*
X19228176Y11317215D01*
X19116385Y11205424D01*
X19116384Y11205422D01*
X19116381Y11205419D01*
X19116381Y11205418D01*
X19116375Y11205410D01*
X19116372Y11205406D01*
X19116370Y11205402D01*
X19037330Y11068500D01*
X19037325Y11068490D01*
X19037324Y11068489D01*
X19037322Y11068482D01*
X18997043Y10918156D01*
X18996400Y10915757D01*
X13219000Y10915757D01*
X13219000Y29230573D01*
X13224022Y29265506D01*
X13231434Y29290751D01*
X13262729Y29343494D01*
X13299020Y29379784D01*
X13378077Y29516716D01*
X13419000Y29669443D01*
X13419000Y29713416D01*
X13424022Y29748349D01*
X13431434Y29773594D01*
X13462728Y29826336D01*
X14355491Y30719098D01*
X15365480Y31729087D01*
X15418206Y31820412D01*
X15418207Y31820413D01*
X15445500Y31922273D01*
X15445500Y37083957D01*
X34918600Y37083957D01*
X34918600Y36925844D01*
X34957694Y36779944D01*
X34959524Y36773115D01*
X34959530Y36773102D01*
X34996413Y36709218D01*
X35038575Y36636191D01*
X35038581Y36636183D01*
X35069675Y36605089D01*
X35090825Y36576836D01*
X35103432Y36553748D01*
X35118600Y36494321D01*
X35118600Y27481428D01*
X35113576Y27446491D01*
X35106164Y27421250D01*
X35074869Y27368506D01*
X35038586Y27332224D01*
X35038580Y27332218D01*
X35038570Y27332202D01*
X34959530Y27195300D01*
X34959525Y27195290D01*
X34959524Y27195289D01*
X34959523Y27195285D01*
X34959523Y27195284D01*
X34918600Y27042557D01*
X34918600Y26884443D01*
X34936346Y26818216D01*
X34959523Y26731717D01*
X34959524Y26731713D01*
X34959525Y26731712D01*
X34959528Y26731707D01*
X35036729Y26597987D01*
X35038112Y26595416D01*
X35038498Y26594866D01*
X35150436Y26482928D01*
X35150952Y26482548D01*
X35153575Y26481137D01*
X35287309Y26403927D01*
X35287316Y26403923D01*
X35440043Y26363000D01*
X35440045Y26363000D01*
X35598155Y26363000D01*
X35598157Y26363000D01*
X35750884Y26403923D01*
X35887816Y26482980D01*
X35999620Y26594784D01*
X36078677Y26731716D01*
X36119600Y26884443D01*
X36119600Y27042557D01*
X36078677Y27195284D01*
X36028733Y27281791D01*
X35999624Y27332210D01*
X35999618Y27332218D01*
X35968523Y27363313D01*
X35947372Y27391569D01*
X35944647Y27396559D01*
X35943338Y27398958D01*
X35934766Y27414657D01*
X35919600Y27474080D01*
X35919600Y36486973D01*
X35924622Y36521906D01*
X35932034Y36547151D01*
X35963330Y36599895D01*
X35999620Y36636184D01*
X36012394Y36658311D01*
X36034208Y36686050D01*
X36042399Y36693860D01*
X36104500Y36725873D01*
X36174053Y36719229D01*
X36228973Y36676037D01*
X36228978Y36676030D01*
X36233427Y36669781D01*
X36252181Y36629982D01*
X36252919Y36627228D01*
X36252922Y36627221D01*
X36252923Y36627217D01*
X36252924Y36627214D01*
X36252926Y36627209D01*
X36252930Y36627202D01*
X36299150Y36547147D01*
X36331975Y36490291D01*
X36331981Y36490283D01*
X36363075Y36459189D01*
X36384225Y36430936D01*
X36396832Y36407848D01*
X36412000Y36348421D01*
X36412000Y30736928D01*
X36406976Y30701991D01*
X36399564Y30676750D01*
X36368269Y30624006D01*
X36331986Y30587724D01*
X36331980Y30587718D01*
X36331970Y30587702D01*
X36252930Y30450800D01*
X36252925Y30450790D01*
X36252924Y30450789D01*
X36252922Y30450782D01*
X36212000Y30298057D01*
X36212000Y30139943D01*
X36218092Y30117210D01*
X36218093Y30117206D01*
X36252922Y29987220D01*
X36252924Y29987213D01*
X36252925Y29987212D01*
X36252928Y29987207D01*
X36330129Y29853487D01*
X36331512Y29850916D01*
X36331898Y29850366D01*
X36443836Y29738428D01*
X36444352Y29738048D01*
X36446975Y29736637D01*
X36524538Y29691857D01*
X36563356Y29669445D01*
X36577863Y29661070D01*
X36580716Y29659423D01*
X36733443Y29618500D01*
X36733445Y29618500D01*
X36891555Y29618500D01*
X36891557Y29618500D01*
X37044284Y29659423D01*
X37181216Y29738480D01*
X37293020Y29850284D01*
X37372077Y29987216D01*
X37413000Y30139943D01*
X37413000Y30298057D01*
X37372077Y30450784D01*
X37303551Y30569476D01*
X37293024Y30587710D01*
X37293018Y30587718D01*
X37261923Y30618813D01*
X37240772Y30647069D01*
X37238047Y30652059D01*
X37236738Y30654458D01*
X37228166Y30670157D01*
X37213000Y30729580D01*
X37213000Y36341074D01*
X37217808Y36357452D01*
X37218022Y36376010D01*
X37219580Y36381312D01*
X37219581Y36381319D01*
X37220707Y36387217D01*
X37223402Y36386703D01*
X37244778Y36440719D01*
X37254874Y36452139D01*
X37268392Y36465657D01*
X39162200Y36465657D01*
X39162200Y36307544D01*
X39184973Y36222555D01*
X39203122Y36154820D01*
X39203124Y36154813D01*
X39203125Y36154812D01*
X39203130Y36154802D01*
X39218852Y36127571D01*
X39282175Y36017891D01*
X39282181Y36017883D01*
X39313275Y35986789D01*
X39334425Y35958536D01*
X39347032Y35935448D01*
X39362200Y35876021D01*
X39362200Y22447473D01*
X39363476Y22442711D01*
X39363477Y22442707D01*
X39389490Y22345619D01*
X39389493Y22345610D01*
X39412484Y22305791D01*
X39412485Y22305789D01*
X39442217Y22254291D01*
X39442222Y22254285D01*
X41783773Y19912734D01*
X41804923Y19884482D01*
X41817531Y19861393D01*
X41832700Y19801964D01*
X41832700Y19750645D01*
X41873622Y19597920D01*
X41873624Y19597913D01*
X41873625Y19597912D01*
X41873626Y19597910D01*
X41884243Y19579520D01*
X41950829Y19464187D01*
X41952212Y19461616D01*
X41952598Y19461066D01*
X42064536Y19349128D01*
X42065052Y19348748D01*
X42067675Y19347337D01*
X42201409Y19270127D01*
X42201416Y19270123D01*
X42354143Y19229200D01*
X42398115Y19229200D01*
X42433047Y19224179D01*
X42458291Y19216766D01*
X42511037Y19185470D01*
X42917987Y18778520D01*
X43009312Y18725793D01*
X43111173Y18698500D01*
X45747972Y18698500D01*
X45782904Y18693479D01*
X45808148Y18686066D01*
X45860894Y18654770D01*
X45897236Y18618428D01*
X45897752Y18618048D01*
X45900375Y18616637D01*
X46034109Y18539427D01*
X46034116Y18539423D01*
X46186843Y18498500D01*
X46186845Y18498500D01*
X46344955Y18498500D01*
X46344957Y18498500D01*
X46497684Y18539423D01*
X46634616Y18618480D01*
X46746420Y18730284D01*
X46825477Y18867216D01*
X46866400Y19019943D01*
X46866400Y19178057D01*
X46825477Y19330784D01*
X46825473Y19330791D01*
X46746424Y19467710D01*
X46746418Y19467718D01*
X46746414Y19467722D01*
X46746413Y19467724D01*
X46634622Y19579515D01*
X46634620Y19579516D01*
X46634617Y19579519D01*
X46634609Y19579525D01*
X46602753Y19597917D01*
X46497707Y19658565D01*
X46497683Y19658578D01*
X46385879Y19688536D01*
X46344957Y19699500D01*
X46344956Y19699500D01*
X46186843Y19699500D01*
X46034118Y19658578D01*
X46034111Y19658576D01*
X46034110Y19658575D01*
X46034100Y19658570D01*
X45897198Y19579530D01*
X45897182Y19579520D01*
X45897176Y19579514D01*
X45866089Y19548426D01*
X45837837Y19527276D01*
X45814750Y19514669D01*
X45755321Y19499500D01*
X43398985Y19499500D01*
X43364049Y19504523D01*
X43338807Y19511935D01*
X43286062Y19543231D01*
X43082626Y19746667D01*
X43061474Y19774923D01*
X43048867Y19798012D01*
X43033700Y19857437D01*
X43033700Y19908755D01*
X43033700Y19908757D01*
X42992777Y20061484D01*
X42992773Y20061491D01*
X42913724Y20198410D01*
X42913718Y20198418D01*
X42913714Y20198422D01*
X42913713Y20198424D01*
X42801922Y20310215D01*
X42801920Y20310216D01*
X42801917Y20310219D01*
X42801909Y20310225D01*
X42775347Y20325560D01*
X42665007Y20389265D01*
X42664983Y20389278D01*
X42553179Y20419236D01*
X42512257Y20430200D01*
X42512256Y20430200D01*
X42468285Y20430200D01*
X42433349Y20435223D01*
X42408107Y20442635D01*
X42355362Y20473931D01*
X40212126Y22617167D01*
X40190974Y22645423D01*
X40178367Y22668512D01*
X40163200Y22727937D01*
X40163200Y29450057D01*
X41745500Y29450057D01*
X41745500Y29291944D01*
X41745821Y29290747D01*
X41786422Y29139220D01*
X41786424Y29139213D01*
X41786425Y29139212D01*
X41786430Y29139202D01*
X41846450Y29035244D01*
X41865475Y29002291D01*
X41865481Y29002283D01*
X41896575Y28971189D01*
X41917725Y28942936D01*
X41930332Y28919848D01*
X41945500Y28860421D01*
X41945500Y24072871D01*
X41972791Y23971014D01*
X41981547Y23955848D01*
X41999156Y23925350D01*
X42025520Y23879687D01*
X42025522Y23879685D01*
X43147673Y22757534D01*
X43168823Y22729282D01*
X43181431Y22706193D01*
X43196600Y22646764D01*
X43196600Y22595444D01*
X43236249Y22447472D01*
X43236249Y22447470D01*
X43237521Y22442720D01*
X43237524Y22442715D01*
X43237528Y22442707D01*
X43314729Y22308987D01*
X43316112Y22306416D01*
X43316498Y22305866D01*
X43428436Y22193928D01*
X43428952Y22193548D01*
X43431575Y22192137D01*
X43565309Y22114927D01*
X43565316Y22114923D01*
X43718043Y22074000D01*
X43718045Y22074000D01*
X43876155Y22074000D01*
X43876157Y22074000D01*
X44028884Y22114923D01*
X44165816Y22193980D01*
X44277620Y22305784D01*
X44281151Y22311901D01*
X44356675Y22442711D01*
X44356676Y22442715D01*
X44356677Y22442716D01*
X44397600Y22595443D01*
X44397600Y22753557D01*
X44356677Y22906284D01*
X44356673Y22906291D01*
X44277624Y23043210D01*
X44277618Y23043218D01*
X44277614Y23043222D01*
X44277613Y23043224D01*
X44165822Y23155015D01*
X44165820Y23155016D01*
X44165817Y23155019D01*
X44165809Y23155025D01*
X44139247Y23170360D01*
X44028907Y23234065D01*
X44028883Y23234078D01*
X43917079Y23264036D01*
X43876157Y23275000D01*
X43876156Y23275000D01*
X43832185Y23275000D01*
X43797249Y23280023D01*
X43772007Y23287435D01*
X43719262Y23318731D01*
X42795426Y24242567D01*
X42774274Y24270823D01*
X42761667Y24293912D01*
X42746500Y24353337D01*
X42746500Y28853073D01*
X42751522Y28888006D01*
X42758934Y28913251D01*
X42790237Y28966002D01*
X42795181Y28970945D01*
X42826520Y29002284D01*
X42905577Y29139216D01*
X42946500Y29291943D01*
X42946500Y29450057D01*
X42905577Y29602784D01*
X42901655Y29609577D01*
X42901655Y29609578D01*
X42865391Y29672390D01*
X42826524Y29739710D01*
X42826518Y29739718D01*
X42826514Y29739722D01*
X42826513Y29739724D01*
X42714722Y29851515D01*
X42714720Y29851516D01*
X42714717Y29851519D01*
X42714709Y29851525D01*
X42688147Y29866860D01*
X42577807Y29930565D01*
X42577783Y29930578D01*
X42465979Y29960536D01*
X42425057Y29971500D01*
X42425056Y29971500D01*
X42266943Y29971500D01*
X42114218Y29930578D01*
X42114211Y29930576D01*
X42114210Y29930575D01*
X42114200Y29930570D01*
X41977298Y29851530D01*
X41977294Y29851528D01*
X41977290Y29851525D01*
X41977282Y29851519D01*
X41977278Y29851516D01*
X41977276Y29851515D01*
X41865485Y29739724D01*
X41865484Y29739722D01*
X41865481Y29739719D01*
X41865481Y29739718D01*
X41865475Y29739710D01*
X41865472Y29739706D01*
X41865470Y29739702D01*
X41786430Y29602800D01*
X41786425Y29602790D01*
X41786424Y29602789D01*
X41786422Y29602782D01*
X41745500Y29450057D01*
X40163200Y29450057D01*
X40163200Y35868673D01*
X40168222Y35903606D01*
X40175634Y35928851D01*
X40206929Y35981594D01*
X40243220Y36017884D01*
X40322277Y36154816D01*
X40363200Y36307543D01*
X40363200Y36465657D01*
X40322277Y36618384D01*
X40307580Y36643840D01*
X40243224Y36755310D01*
X40243218Y36755318D01*
X40243213Y36755324D01*
X40131422Y36867115D01*
X40131420Y36867116D01*
X40131417Y36867119D01*
X40131409Y36867125D01*
X40104847Y36882460D01*
X39994507Y36946165D01*
X39994483Y36946178D01*
X39882679Y36976136D01*
X39841757Y36987100D01*
X39841756Y36987100D01*
X39683643Y36987100D01*
X39530918Y36946178D01*
X39530911Y36946176D01*
X39530910Y36946175D01*
X39530900Y36946170D01*
X39393998Y36867130D01*
X39393994Y36867128D01*
X39393990Y36867125D01*
X39393982Y36867119D01*
X39393978Y36867116D01*
X39393976Y36867115D01*
X39282185Y36755324D01*
X39282184Y36755322D01*
X39282181Y36755319D01*
X39282181Y36755318D01*
X39282175Y36755310D01*
X39282172Y36755306D01*
X39282170Y36755302D01*
X39203130Y36618400D01*
X39203125Y36618390D01*
X39203124Y36618389D01*
X39203122Y36618382D01*
X39168798Y36490282D01*
X39162200Y36465657D01*
X37268392Y36465657D01*
X37293020Y36490284D01*
X37372077Y36627216D01*
X37413000Y36779943D01*
X37413000Y36938057D01*
X37372077Y37090784D01*
X37335184Y37154685D01*
X37314708Y37190152D01*
X37293028Y37227704D01*
X37293020Y37227716D01*
X37293013Y37227724D01*
X37181222Y37339515D01*
X37181220Y37339516D01*
X37181217Y37339519D01*
X37181209Y37339525D01*
X37122185Y37373602D01*
X37044307Y37418565D01*
X37044283Y37418578D01*
X36932479Y37448536D01*
X36891557Y37459500D01*
X36891556Y37459500D01*
X36733443Y37459500D01*
X36580718Y37418578D01*
X36580711Y37418576D01*
X36580710Y37418575D01*
X36580700Y37418570D01*
X36443798Y37339530D01*
X36443794Y37339528D01*
X36443790Y37339525D01*
X36443782Y37339519D01*
X36443778Y37339516D01*
X36443776Y37339515D01*
X36331988Y37227727D01*
X36331982Y37227720D01*
X36331977Y37227715D01*
X36331972Y37227707D01*
X36319204Y37205591D01*
X36297385Y37177847D01*
X36289201Y37170044D01*
X36227098Y37138029D01*
X36157545Y37144673D01*
X36102625Y37187865D01*
X36102623Y37187867D01*
X36098175Y37194114D01*
X36079409Y37233951D01*
X36078677Y37236684D01*
X36019306Y37339519D01*
X36019300Y37339530D01*
X35999624Y37373610D01*
X35999618Y37373618D01*
X35999613Y37373624D01*
X35887822Y37485415D01*
X35887820Y37485416D01*
X35887817Y37485419D01*
X35887809Y37485425D01*
X35861247Y37500760D01*
X35750907Y37564465D01*
X35750883Y37564478D01*
X35639079Y37594436D01*
X35598157Y37605400D01*
X35598156Y37605400D01*
X35440043Y37605400D01*
X35287318Y37564478D01*
X35287311Y37564476D01*
X35287310Y37564475D01*
X35287300Y37564470D01*
X35150398Y37485430D01*
X35150394Y37485428D01*
X35150390Y37485425D01*
X35150382Y37485419D01*
X35150378Y37485416D01*
X35150376Y37485415D01*
X35038585Y37373624D01*
X35038584Y37373622D01*
X35038581Y37373619D01*
X35038581Y37373618D01*
X35038575Y37373610D01*
X35038572Y37373606D01*
X35038570Y37373602D01*
X34959530Y37236700D01*
X34959525Y37236690D01*
X34959524Y37236689D01*
X34959522Y37236682D01*
X34918600Y37083957D01*
X15445500Y37083957D01*
X15445500Y39427073D01*
X15450522Y39462006D01*
X15457934Y39487251D01*
X15489229Y39539994D01*
X15525520Y39576284D01*
X15604577Y39713216D01*
X15645500Y39865943D01*
X15645500Y40024057D01*
X15620325Y40118013D01*
X44199500Y40118013D01*
X44199500Y39881989D01*
X44199503Y39881965D01*
X44230305Y39647994D01*
X44291395Y39420003D01*
X44381715Y39201952D01*
X44381724Y39201935D01*
X44452675Y39079046D01*
X44452677Y39079043D01*
X44499723Y38997555D01*
X44499725Y38997553D01*
X44499944Y38997224D01*
X44500947Y38995960D01*
X44643399Y38810311D01*
X44643403Y38810306D01*
X44643406Y38810303D01*
X44643412Y38810296D01*
X44643420Y38810288D01*
X44810281Y38643426D01*
X44810297Y38643411D01*
X44810305Y38643405D01*
X44997548Y38499728D01*
X44997550Y38499727D01*
X45128918Y38423882D01*
X45198516Y38383699D01*
X45200255Y38382618D01*
X45201708Y38381811D01*
X45202447Y38381511D01*
X45420007Y38291394D01*
X45647986Y38230307D01*
X45881989Y38199500D01*
X45881996Y38199500D01*
X46118004Y38199500D01*
X46118011Y38199500D01*
X46352014Y38230307D01*
X46579993Y38291394D01*
X46798049Y38381716D01*
X47002450Y38499727D01*
X47189699Y38643408D01*
X47356592Y38810301D01*
X47500273Y38997550D01*
X47618284Y39201951D01*
X47708606Y39420007D01*
X47769693Y39647986D01*
X47800500Y39881989D01*
X47800500Y40118011D01*
X47769693Y40352014D01*
X47708606Y40579993D01*
X47618489Y40797553D01*
X47618189Y40798292D01*
X47617382Y40799745D01*
X47616297Y40801491D01*
X47576118Y40871082D01*
X47500273Y41002450D01*
X47500272Y41002452D01*
X47356595Y41189695D01*
X47356589Y41189703D01*
X47356574Y41189719D01*
X47189712Y41356580D01*
X47189704Y41356588D01*
X47189697Y41356594D01*
X47189694Y41356597D01*
X47189689Y41356601D01*
X47004040Y41499053D01*
X47002776Y41500056D01*
X47002447Y41500275D01*
X47002445Y41500277D01*
X46920957Y41547323D01*
X46920955Y41547325D01*
X46798065Y41618276D01*
X46798048Y41618285D01*
X46579997Y41708605D01*
X46352006Y41769695D01*
X46119889Y41800253D01*
X46118208Y41800500D01*
X46118017Y41800500D01*
X46118011Y41800500D01*
X45881989Y41800500D01*
X45881983Y41800500D01*
X45881981Y41800500D01*
X45875861Y41799747D01*
X45874955Y41799575D01*
X45647992Y41769695D01*
X45420001Y41708605D01*
X45201950Y41618285D01*
X45201942Y41618281D01*
X44997545Y41500270D01*
X44997536Y41500264D01*
X44810309Y41356601D01*
X44810294Y41356587D01*
X44810286Y41356580D01*
X44643420Y41189714D01*
X44643413Y41189706D01*
X44643399Y41189691D01*
X44499736Y41002464D01*
X44499730Y41002455D01*
X44381719Y40798058D01*
X44381715Y40798050D01*
X44291395Y40579999D01*
X44230305Y40352008D01*
X44199503Y40118037D01*
X44199500Y40118013D01*
X15620325Y40118013D01*
X15604577Y40176784D01*
X15604573Y40176791D01*
X15525524Y40313710D01*
X15525518Y40313718D01*
X15525514Y40313722D01*
X15525513Y40313724D01*
X15413722Y40425515D01*
X15413720Y40425516D01*
X15413717Y40425519D01*
X15413709Y40425525D01*
X15387147Y40440860D01*
X15276807Y40504565D01*
X15276783Y40504578D01*
X15164979Y40534536D01*
X15124057Y40545500D01*
X15124056Y40545500D01*
X14965943Y40545500D01*
X14813218Y40504578D01*
X14813211Y40504576D01*
X14813210Y40504575D01*
X14813200Y40504570D01*
X14676298Y40425530D01*
X14676294Y40425528D01*
X14676290Y40425525D01*
X14676282Y40425519D01*
X14676278Y40425516D01*
X14676276Y40425515D01*
X14564485Y40313724D01*
X14564484Y40313722D01*
X14564481Y40313719D01*
X14564481Y40313718D01*
X14564475Y40313710D01*
X14564472Y40313706D01*
X14564470Y40313702D01*
X14485430Y40176800D01*
X14485425Y40176790D01*
X14485424Y40176789D01*
X14485422Y40176782D01*
X14469675Y40118013D01*
X14444500Y40024057D01*
X14444500Y39865944D01*
X14468126Y39777770D01*
X14485422Y39713220D01*
X14485424Y39713213D01*
X14485425Y39713212D01*
X14485430Y39713202D01*
X14545450Y39609244D01*
X14564475Y39576291D01*
X14564481Y39576283D01*
X14595575Y39545189D01*
X14616725Y39516936D01*
X14629332Y39493848D01*
X14644500Y39434421D01*
X14644500Y32210085D01*
X14639476Y32175148D01*
X14632064Y32149907D01*
X14600769Y32097163D01*
X13517181Y31013574D01*
X13455858Y30980089D01*
X13386166Y30985073D01*
X13330233Y31026945D01*
X13305816Y31092409D01*
X13305500Y31101255D01*
X13305500Y35875990D01*
X13305500Y35876000D01*
X13298518Y35940941D01*
X13287312Y35992452D01*
X13276354Y36030658D01*
X13219675Y36127571D01*
X13173920Y36180375D01*
X13173918Y36180377D01*
X13173908Y36180388D01*
X13129192Y36222549D01*
X13129189Y36222551D01*
X13129187Y36222553D01*
X13029111Y36273439D01*
X13029110Y36273440D01*
X13029109Y36273440D01*
X12962078Y36293123D01*
X12962072Y36293124D01*
X12876000Y36305500D01*
X12875997Y36305500D01*
X1124010Y36305500D01*
X1124000Y36305500D01*
X1123991Y36305500D01*
X1123990Y36305499D01*
X1059064Y36298519D01*
X1059052Y36298517D01*
X1007546Y36287312D01*
X969345Y36276356D01*
X969341Y36276354D01*
X872431Y36219677D01*
X872428Y36219675D01*
X819623Y36173919D01*
X819612Y36173909D01*
X777451Y36129193D01*
X777446Y36129186D01*
X735032Y36045770D01*
X687100Y35994934D01*
X619293Y35978082D01*
X553139Y36000565D01*
X509642Y36055244D01*
X500500Y36101973D01*
X500500Y40118013D01*
X2199500Y40118013D01*
X2199500Y39881989D01*
X2199503Y39881965D01*
X2230305Y39647994D01*
X2291395Y39420003D01*
X2381715Y39201952D01*
X2381724Y39201935D01*
X2452675Y39079046D01*
X2452677Y39079043D01*
X2499723Y38997555D01*
X2499725Y38997553D01*
X2499944Y38997224D01*
X2500947Y38995960D01*
X2643399Y38810311D01*
X2643403Y38810306D01*
X2643406Y38810303D01*
X2643412Y38810296D01*
X2643420Y38810288D01*
X2810281Y38643426D01*
X2810297Y38643411D01*
X2810305Y38643405D01*
X2997548Y38499728D01*
X2997550Y38499727D01*
X3128918Y38423882D01*
X3198516Y38383699D01*
X3200255Y38382618D01*
X3201708Y38381811D01*
X3202447Y38381511D01*
X3420007Y38291394D01*
X3647986Y38230307D01*
X3881989Y38199500D01*
X3881996Y38199500D01*
X4118004Y38199500D01*
X4118011Y38199500D01*
X4352014Y38230307D01*
X4579993Y38291394D01*
X4798049Y38381716D01*
X5002450Y38499727D01*
X5189699Y38643408D01*
X5356592Y38810301D01*
X5500273Y38997550D01*
X5618284Y39201951D01*
X5708606Y39420007D01*
X5769693Y39647986D01*
X5800500Y39881989D01*
X5800500Y40118011D01*
X5769693Y40352014D01*
X5708606Y40579993D01*
X5618489Y40797553D01*
X5618189Y40798292D01*
X5617382Y40799745D01*
X5616297Y40801491D01*
X5576118Y40871082D01*
X5500273Y41002450D01*
X5500272Y41002452D01*
X5356595Y41189695D01*
X5356589Y41189703D01*
X5356574Y41189719D01*
X5189712Y41356580D01*
X5189704Y41356588D01*
X5189697Y41356594D01*
X5189694Y41356597D01*
X5189689Y41356601D01*
X5004040Y41499053D01*
X5002776Y41500056D01*
X5002447Y41500275D01*
X5002445Y41500277D01*
X4920957Y41547323D01*
X4920955Y41547325D01*
X4798065Y41618276D01*
X4798048Y41618285D01*
X4579997Y41708605D01*
X4352006Y41769695D01*
X4119889Y41800253D01*
X4118208Y41800500D01*
X4118017Y41800500D01*
X4118011Y41800500D01*
X3881989Y41800500D01*
X3881983Y41800500D01*
X3881981Y41800500D01*
X3875861Y41799747D01*
X3874955Y41799575D01*
X3647992Y41769695D01*
X3420001Y41708605D01*
X3201950Y41618285D01*
X3201942Y41618281D01*
X2997545Y41500270D01*
X2997536Y41500264D01*
X2810309Y41356601D01*
X2810294Y41356587D01*
X2810286Y41356580D01*
X2643420Y41189714D01*
X2643413Y41189706D01*
X2643399Y41189691D01*
X2499736Y41002464D01*
X2499730Y41002455D01*
X2381719Y40798058D01*
X2381715Y40798050D01*
X2291395Y40579999D01*
X2230305Y40352008D01*
X2199503Y40118037D01*
X2199500Y40118013D01*
X500500Y40118013D01*
X500500Y47993358D01*
X500579Y47997782D01*
X500737Y48002208D01*
X500974Y48006629D01*
X514069Y48189729D01*
X519274Y48216681D01*
X519629Y48231182D01*
X558415Y48409479D01*
X560602Y48418044D01*
X563089Y48426514D01*
X565884Y48434912D01*
X631359Y48610458D01*
X631366Y48610478D01*
X633054Y48613944D01*
X634751Y48618648D01*
X638419Y48626678D01*
X642373Y48634577D01*
X732175Y48799039D01*
X736681Y48806631D01*
X741469Y48814082D01*
X746502Y48821329D01*
X766053Y48847447D01*
X791009Y48872401D01*
X800066Y48879180D01*
X819808Y48886543D01*
X822045Y48888567D01*
X827802Y48889524D01*
X865532Y48903593D01*
X885870Y48899167D01*
G37*
%TD.AperFunction*%
%TD*%
%TA.AperFunction,Conductor*%
%TO.N,+3V3*%
G36*
X12943039Y35980315D02*
G01*
X12988794Y35927511D01*
X13000000Y35876000D01*
X13000000Y30547755D01*
X12980315Y30480716D01*
X12963681Y30460074D01*
X12888926Y30385319D01*
X12827603Y30351834D01*
X12801245Y30349000D01*
X12739443Y30349000D01*
X12586716Y30308077D01*
X12586709Y30308074D01*
X12449790Y30229025D01*
X12449782Y30229019D01*
X12337981Y30117218D01*
X12337975Y30117210D01*
X12258926Y29980291D01*
X12258923Y29980284D01*
X12218000Y29827557D01*
X12218000Y29669444D01*
X12258923Y29516717D01*
X12258926Y29516710D01*
X12337975Y29379791D01*
X12337981Y29379783D01*
X12381681Y29336083D01*
X12415166Y29274760D01*
X12418000Y29248402D01*
X12418000Y24124000D01*
X12398315Y24056961D01*
X12345511Y24011206D01*
X12294000Y24000000D01*
X1124000Y24000000D01*
X1056961Y24019685D01*
X1011206Y24072489D01*
X1000000Y24124000D01*
X1000000Y35876000D01*
X1019685Y35943039D01*
X1072489Y35988794D01*
X1124000Y36000000D01*
X12876000Y36000000D01*
X12943039Y35980315D01*
G37*
%TD.AperFunction*%
%TD*%
M02*
