M48
; DRILL file KiCad 10.0.6 date 2026-09-29T15:18:22
; FORMAT={-:-/ absolute / metric / decimal}
; #@! TF.CreationDate,2026-09-29T15:18:22+03:00
; #@! TF.GenerationSoftware,Kicad,Pcbnew,10.0.6
; #@! TF.FileFunction,MixedPlating,1,2
FMAT,2
METRIC
; #@! TA.AperFunction,Plated,PTH,ViaDrill
T1C0.300
; #@! TA.AperFunction,Plated,PTH,ComponentDrill
T2C0.300
; #@! TA.AperFunction,Plated,PTH,ViaDrill
T3C0.400
; #@! TA.AperFunction,Plated,PTH,ComponentDrill
T4C0.600
; #@! TA.AperFunction,NonPlated,NPTH,ComponentDrill
T5C0.650
; #@! TA.AperFunction,NonPlated,NPTH,ComponentDrill
T6C3.200
%
G90
G05
T1
X1.45Y21.55
X1.45Y18.55
X1.45Y15.55
X1.45Y12.55
X1.45Y9.55
X2.95Y35.05
X2.95Y33.05
X2.95Y31.05
X2.95Y29.05
X2.95Y27.05
X2.95Y25.05
X4.45Y18.55
X4.45Y9.55
X4.95Y35.05
X4.95Y33.05
X4.95Y31.05
X4.95Y29.05
X5.412Y14.664
X6.36Y10.236
X6.95Y35.05
X6.95Y33.05
X6.95Y31.05
X6.95Y29.05
X7.45Y42.55
X7.45Y15.55
X7.45Y12.55
X7.45Y9.55
X8.95Y35.05
X8.95Y33.05
X8.95Y31.05
X8.95Y29.05
X10.236Y7.375
X10.45Y42.55
X10.45Y39.55
X10.45Y18.55
X10.45Y12.55
X10.45Y9.55
X10.95Y35.05
X10.95Y29.05
X13.913Y33.235
X14.999Y31.0
X16.45Y6.55
X16.45Y3.55
X17.456Y39.97
X17.459Y27.27
X19.45Y21.55
X19.45Y18.55
X19.45Y15.55
X19.45Y9.55
X22.45Y21.55
X22.45Y18.55
X22.45Y15.55
X22.45Y12.55
X23.568Y26.0
X23.568Y14.222
X23.727Y9.303
X25.45Y21.55
X25.45Y18.55
X25.498Y8.923
X28.45Y21.55
X28.45Y15.55
X28.45Y12.55
X31.45Y21.55
X31.45Y18.55
X31.45Y12.55
X31.45Y9.55
X31.45Y6.55
X31.45Y3.55
X34.45Y21.55
X34.45Y18.55
X34.45Y15.55
X34.45Y9.55
X34.45Y6.55
X34.45Y3.55
X34.957Y37.43
X34.968Y26.0
X36.636Y26.364
X36.65Y38.468
X36.65Y29.85
X37.45Y42.55
X37.45Y36.55
X37.45Y33.55
X37.45Y30.55
X37.45Y21.55
X37.45Y18.55
X37.45Y15.55
X37.45Y12.55
X39.125Y41.008
X39.125Y36.288
X40.28Y11.368
X40.45Y42.55
X40.45Y39.55
X40.45Y30.55
X40.45Y27.55
X40.45Y24.55
X43.45Y36.55
X43.45Y9.55
X44.147Y22.911
X46.45Y33.55
X46.45Y30.55
X46.45Y21.55
X46.45Y12.55
X46.45Y9.55
X46.9Y18.45
T2
X22.1Y35.49
X22.1Y34.09
X22.8Y36.19
X22.8Y34.79
X22.8Y33.39
X23.5Y35.49
X23.5Y34.09
X24.2Y36.19
X24.2Y34.79
X24.2Y33.39
X24.9Y35.49
X24.9Y34.09
T3
X4.446Y14.623
X11.408Y19.5
X11.408Y8.6
X18.483Y13.16
X21.134Y9.381
X27.619Y9.092
X31.798Y17.033
X42.2Y30.906
X43.49Y12.625
T5
X22.11Y6.3
X27.89Y6.3
T6
X4.0Y40.0
X4.0Y4.0
X46.0Y40.0
X46.0Y4.0
T4
X20.68Y7.38G85X20.68Y6.28
G05
X20.68Y2.95G85X20.68Y2.35
G05
X29.32Y7.38G85X29.32Y6.28
G05
X29.32Y2.95G85X29.32Y2.35
G05
M30
