%TF.GenerationSoftware,KiCad,Pcbnew,10.0.6*%
%TF.CreationDate,2026-09-29T09:54:55+03:00*%
%TF.ProjectId,starter,73746172-7465-4722-9e6b-696361645f70,rev?*%
%TF.SameCoordinates,Original*%
%TF.FileFunction,Legend,Top*%
%TF.FilePolarity,Positive*%
%FSLAX46Y46*%
G04 Gerber Fmt 4.6, Leading zero omitted, Abs format (unit mm)*
G04 Created by KiCad (PCBNEW 10.0.6) date 2026-09-29 09:54:55*
%MOMM*%
%LPD*%
G01*
G04 APERTURE LIST*
G04 Aperture macros list*
%AMRoundRect*
0 Rectangle with rounded corners*
0 $1 Rounding radius*
0 $2 $3 $4 $5 $6 $7 $8 $9 X,Y pos of 4 corners*
0 Add a 4 corners polygon primitive as box body*
4,1,4,$2,$3,$4,$5,$6,$7,$8,$9,$2,$3,0*
0 Add four circle primitives for the rounded corners*
1,1,$1+$1,$2,$3*
1,1,$1+$1,$4,$5*
1,1,$1+$1,$6,$7*
1,1,$1+$1,$8,$9*
0 Add four rect primitives between the rounded corners*
20,1,$1+$1,$2,$3,$4,$5,0*
20,1,$1+$1,$4,$5,$6,$7,0*
20,1,$1+$1,$6,$7,$8,$9,0*
20,1,$1+$1,$8,$9,$2,$3,0*%
G04 Aperture macros list end*
%ADD10C,0.150000*%
%ADD11C,0.120000*%
%ADD12RoundRect,0.250000X0.450000X-0.262500X0.450000X0.262500X-0.450000X0.262500X-0.450000X-0.262500X0*%
%ADD13RoundRect,0.250000X0.475000X-0.250000X0.475000X0.250000X-0.475000X0.250000X-0.475000X-0.250000X0*%
%ADD14R,1.000000X0.750000*%
%ADD15RoundRect,0.150000X0.150000X-0.587500X0.150000X0.587500X-0.150000X0.587500X-0.150000X-0.587500X0*%
%ADD16RoundRect,0.150000X0.625000X-0.150000X0.625000X0.150000X-0.625000X0.150000X-0.625000X-0.150000X0*%
%ADD17RoundRect,0.250000X0.650000X-0.350000X0.650000X0.350000X-0.650000X0.350000X-0.650000X-0.350000X0*%
%ADD18RoundRect,0.250000X-0.262500X-0.450000X0.262500X-0.450000X0.262500X0.450000X-0.262500X0.450000X0*%
%ADD19C,1.500000*%
%ADD20C,3.200000*%
%ADD21RoundRect,0.375000X0.375000X-0.625000X0.375000X0.625000X-0.375000X0.625000X-0.375000X-0.625000X0*%
%ADD22RoundRect,0.500000X1.400000X-0.500000X1.400000X0.500000X-1.400000X0.500000X-1.400000X-0.500000X0*%
%ADD23RoundRect,0.250000X-0.250000X-0.475000X0.250000X-0.475000X0.250000X0.475000X-0.250000X0.475000X0*%
%ADD24RoundRect,0.250000X0.250000X0.475000X-0.250000X0.475000X-0.250000X-0.475000X0.250000X-0.475000X0*%
%ADD25C,0.650000*%
%ADD26RoundRect,0.150000X-0.150000X-0.575000X0.150000X-0.575000X0.150000X0.575000X-0.150000X0.575000X0*%
%ADD27RoundRect,0.075000X-0.075000X-0.650000X0.075000X-0.650000X0.075000X0.650000X-0.075000X0.650000X0*%
%ADD28O,1.000000X2.100000*%
%ADD29O,1.000000X1.600000*%
%ADD30R,1.500000X0.900000*%
%ADD31R,0.900000X1.500000*%
%ADD32C,0.600000*%
%ADD33R,3.900000X3.900000*%
%ADD34RoundRect,0.243750X-0.243750X-0.456250X0.243750X-0.456250X0.243750X0.456250X-0.243750X0.456250X0*%
%ADD35R,0.300000X0.500000*%
%ADD36RoundRect,0.250000X0.300000X-0.300000X0.300000X0.300000X-0.300000X0.300000X-0.300000X-0.300000X0*%
%ADD37RoundRect,0.250000X0.625000X-0.375000X0.625000X0.375000X-0.625000X0.375000X-0.625000X-0.375000X0*%
G04 APERTURE END LIST*
D10*
X3166667Y8745181D02*
X3166667Y9745181D01*
X3166667Y9745181D02*
X3547619Y9745181D01*
X3547619Y9745181D02*
X3642857Y9697562D01*
X3642857Y9697562D02*
X3690476Y9649943D01*
X3690476Y9649943D02*
X3738095Y9554705D01*
X3738095Y9554705D02*
X3738095Y9411848D01*
X3738095Y9411848D02*
X3690476Y9316610D01*
X3690476Y9316610D02*
X3642857Y9268991D01*
X3642857Y9268991D02*
X3547619Y9221372D01*
X3547619Y9221372D02*
X3166667Y9221372D01*
X4071429Y9745181D02*
X4309524Y8745181D01*
X4309524Y8745181D02*
X4500000Y9459467D01*
X4500000Y9459467D02*
X4690476Y8745181D01*
X4690476Y8745181D02*
X4928572Y9745181D01*
X5880952Y8745181D02*
X5547619Y9221372D01*
X5309524Y8745181D02*
X5309524Y9745181D01*
X5309524Y9745181D02*
X5690476Y9745181D01*
X5690476Y9745181D02*
X5785714Y9697562D01*
X5785714Y9697562D02*
X5833333Y9649943D01*
X5833333Y9649943D02*
X5880952Y9554705D01*
X5880952Y9554705D02*
X5880952Y9411848D01*
X5880952Y9411848D02*
X5833333Y9316610D01*
X5833333Y9316610D02*
X5785714Y9268991D01*
X5785714Y9268991D02*
X5690476Y9221372D01*
X5690476Y9221372D02*
X5309524Y9221372D01*
X10047618Y1145181D02*
X9714285Y1621372D01*
X9476190Y1145181D02*
X9476190Y2145181D01*
X9476190Y2145181D02*
X9857142Y2145181D01*
X9857142Y2145181D02*
X9952380Y2097562D01*
X9952380Y2097562D02*
X9999999Y2049943D01*
X9999999Y2049943D02*
X10047618Y1954705D01*
X10047618Y1954705D02*
X10047618Y1811848D01*
X10047618Y1811848D02*
X9999999Y1716610D01*
X9999999Y1716610D02*
X9952380Y1668991D01*
X9952380Y1668991D02*
X9857142Y1621372D01*
X9857142Y1621372D02*
X9476190Y1621372D01*
X10476190Y1668991D02*
X10809523Y1668991D01*
X10952380Y1145181D02*
X10476190Y1145181D01*
X10476190Y1145181D02*
X10476190Y2145181D01*
X10476190Y2145181D02*
X10952380Y2145181D01*
X11333333Y1192800D02*
X11476190Y1145181D01*
X11476190Y1145181D02*
X11714285Y1145181D01*
X11714285Y1145181D02*
X11809523Y1192800D01*
X11809523Y1192800D02*
X11857142Y1240420D01*
X11857142Y1240420D02*
X11904761Y1335658D01*
X11904761Y1335658D02*
X11904761Y1430896D01*
X11904761Y1430896D02*
X11857142Y1526134D01*
X11857142Y1526134D02*
X11809523Y1573753D01*
X11809523Y1573753D02*
X11714285Y1621372D01*
X11714285Y1621372D02*
X11523809Y1668991D01*
X11523809Y1668991D02*
X11428571Y1716610D01*
X11428571Y1716610D02*
X11380952Y1764229D01*
X11380952Y1764229D02*
X11333333Y1859467D01*
X11333333Y1859467D02*
X11333333Y1954705D01*
X11333333Y1954705D02*
X11380952Y2049943D01*
X11380952Y2049943D02*
X11428571Y2097562D01*
X11428571Y2097562D02*
X11523809Y2145181D01*
X11523809Y2145181D02*
X11761904Y2145181D01*
X11761904Y2145181D02*
X11904761Y2097562D01*
X12333333Y1668991D02*
X12666666Y1668991D01*
X12809523Y1145181D02*
X12333333Y1145181D01*
X12333333Y1145181D02*
X12333333Y2145181D01*
X12333333Y2145181D02*
X12809523Y2145181D01*
X13095238Y2145181D02*
X13666666Y2145181D01*
X13380952Y1145181D02*
X13380952Y2145181D01*
X13809523Y21745181D02*
X13333333Y21745181D01*
X13333333Y21745181D02*
X13285714Y21268991D01*
X13285714Y21268991D02*
X13333333Y21316610D01*
X13333333Y21316610D02*
X13428571Y21364229D01*
X13428571Y21364229D02*
X13666666Y21364229D01*
X13666666Y21364229D02*
X13761904Y21316610D01*
X13761904Y21316610D02*
X13809523Y21268991D01*
X13809523Y21268991D02*
X13857142Y21173753D01*
X13857142Y21173753D02*
X13857142Y20935658D01*
X13857142Y20935658D02*
X13809523Y20840420D01*
X13809523Y20840420D02*
X13761904Y20792800D01*
X13761904Y20792800D02*
X13666666Y20745181D01*
X13666666Y20745181D02*
X13428571Y20745181D01*
X13428571Y20745181D02*
X13333333Y20792800D01*
X13333333Y20792800D02*
X13285714Y20840420D01*
X14142857Y21745181D02*
X14476190Y20745181D01*
X14476190Y20745181D02*
X14809523Y21745181D01*
X16261905Y21745181D02*
X16880952Y21745181D01*
X16880952Y21745181D02*
X16547619Y21364229D01*
X16547619Y21364229D02*
X16690476Y21364229D01*
X16690476Y21364229D02*
X16785714Y21316610D01*
X16785714Y21316610D02*
X16833333Y21268991D01*
X16833333Y21268991D02*
X16880952Y21173753D01*
X16880952Y21173753D02*
X16880952Y20935658D01*
X16880952Y20935658D02*
X16833333Y20840420D01*
X16833333Y20840420D02*
X16785714Y20792800D01*
X16785714Y20792800D02*
X16690476Y20745181D01*
X16690476Y20745181D02*
X16404762Y20745181D01*
X16404762Y20745181D02*
X16309524Y20792800D01*
X16309524Y20792800D02*
X16261905Y20840420D01*
X17166667Y21745181D02*
X17500000Y20745181D01*
X17500000Y20745181D02*
X17833333Y21745181D01*
X18071429Y21745181D02*
X18690476Y21745181D01*
X18690476Y21745181D02*
X18357143Y21364229D01*
X18357143Y21364229D02*
X18500000Y21364229D01*
X18500000Y21364229D02*
X18595238Y21316610D01*
X18595238Y21316610D02*
X18642857Y21268991D01*
X18642857Y21268991D02*
X18690476Y21173753D01*
X18690476Y21173753D02*
X18690476Y20935658D01*
X18690476Y20935658D02*
X18642857Y20840420D01*
X18642857Y20840420D02*
X18595238Y20792800D01*
X18595238Y20792800D02*
X18500000Y20745181D01*
X18500000Y20745181D02*
X18214286Y20745181D01*
X18214286Y20745181D02*
X18119048Y20792800D01*
X18119048Y20792800D02*
X18071429Y20840420D01*
X20238095Y21697562D02*
X20142857Y21745181D01*
X20142857Y21745181D02*
X20000000Y21745181D01*
X20000000Y21745181D02*
X19857143Y21697562D01*
X19857143Y21697562D02*
X19761905Y21602324D01*
X19761905Y21602324D02*
X19714286Y21507086D01*
X19714286Y21507086D02*
X19666667Y21316610D01*
X19666667Y21316610D02*
X19666667Y21173753D01*
X19666667Y21173753D02*
X19714286Y20983277D01*
X19714286Y20983277D02*
X19761905Y20888039D01*
X19761905Y20888039D02*
X19857143Y20792800D01*
X19857143Y20792800D02*
X20000000Y20745181D01*
X20000000Y20745181D02*
X20095238Y20745181D01*
X20095238Y20745181D02*
X20238095Y20792800D01*
X20238095Y20792800D02*
X20285714Y20840420D01*
X20285714Y20840420D02*
X20285714Y21173753D01*
X20285714Y21173753D02*
X20095238Y21173753D01*
X20714286Y20745181D02*
X20714286Y21745181D01*
X20714286Y21745181D02*
X21285714Y20745181D01*
X21285714Y20745181D02*
X21285714Y21745181D01*
X21761905Y20745181D02*
X21761905Y21745181D01*
X21761905Y21745181D02*
X22000000Y21745181D01*
X22000000Y21745181D02*
X22142857Y21697562D01*
X22142857Y21697562D02*
X22238095Y21602324D01*
X22238095Y21602324D02*
X22285714Y21507086D01*
X22285714Y21507086D02*
X22333333Y21316610D01*
X22333333Y21316610D02*
X22333333Y21173753D01*
X22333333Y21173753D02*
X22285714Y20983277D01*
X22285714Y20983277D02*
X22238095Y20888039D01*
X22238095Y20888039D02*
X22142857Y20792800D01*
X22142857Y20792800D02*
X22000000Y20745181D01*
X22000000Y20745181D02*
X21761905Y20745181D01*
X36738095Y31345181D02*
X37309523Y31345181D01*
X37023809Y30345181D02*
X37023809Y31345181D01*
X37547619Y31345181D02*
X38214285Y30345181D01*
X38214285Y31345181D02*
X37547619Y30345181D01*
X37333333Y23245181D02*
X37000000Y23721372D01*
X36761905Y23245181D02*
X36761905Y24245181D01*
X36761905Y24245181D02*
X37142857Y24245181D01*
X37142857Y24245181D02*
X37238095Y24197562D01*
X37238095Y24197562D02*
X37285714Y24149943D01*
X37285714Y24149943D02*
X37333333Y24054705D01*
X37333333Y24054705D02*
X37333333Y23911848D01*
X37333333Y23911848D02*
X37285714Y23816610D01*
X37285714Y23816610D02*
X37238095Y23768991D01*
X37238095Y23768991D02*
X37142857Y23721372D01*
X37142857Y23721372D02*
X36761905Y23721372D01*
X37666667Y24245181D02*
X38333333Y23245181D01*
X38333333Y24245181D02*
X37666667Y23245181D01*
X37142857Y1668991D02*
X37285714Y1621372D01*
X37285714Y1621372D02*
X37333333Y1573753D01*
X37333333Y1573753D02*
X37380952Y1478515D01*
X37380952Y1478515D02*
X37380952Y1335658D01*
X37380952Y1335658D02*
X37333333Y1240420D01*
X37333333Y1240420D02*
X37285714Y1192800D01*
X37285714Y1192800D02*
X37190476Y1145181D01*
X37190476Y1145181D02*
X36809524Y1145181D01*
X36809524Y1145181D02*
X36809524Y2145181D01*
X36809524Y2145181D02*
X37142857Y2145181D01*
X37142857Y2145181D02*
X37238095Y2097562D01*
X37238095Y2097562D02*
X37285714Y2049943D01*
X37285714Y2049943D02*
X37333333Y1954705D01*
X37333333Y1954705D02*
X37333333Y1859467D01*
X37333333Y1859467D02*
X37285714Y1764229D01*
X37285714Y1764229D02*
X37238095Y1716610D01*
X37238095Y1716610D02*
X37142857Y1668991D01*
X37142857Y1668991D02*
X36809524Y1668991D01*
X38000000Y2145181D02*
X38190476Y2145181D01*
X38190476Y2145181D02*
X38285714Y2097562D01*
X38285714Y2097562D02*
X38380952Y2002324D01*
X38380952Y2002324D02*
X38428571Y1811848D01*
X38428571Y1811848D02*
X38428571Y1478515D01*
X38428571Y1478515D02*
X38380952Y1288039D01*
X38380952Y1288039D02*
X38285714Y1192800D01*
X38285714Y1192800D02*
X38190476Y1145181D01*
X38190476Y1145181D02*
X38000000Y1145181D01*
X38000000Y1145181D02*
X37904762Y1192800D01*
X37904762Y1192800D02*
X37809524Y1288039D01*
X37809524Y1288039D02*
X37761905Y1478515D01*
X37761905Y1478515D02*
X37761905Y1811848D01*
X37761905Y1811848D02*
X37809524Y2002324D01*
X37809524Y2002324D02*
X37904762Y2097562D01*
X37904762Y2097562D02*
X38000000Y2145181D01*
X39047619Y2145181D02*
X39238095Y2145181D01*
X39238095Y2145181D02*
X39333333Y2097562D01*
X39333333Y2097562D02*
X39428571Y2002324D01*
X39428571Y2002324D02*
X39476190Y1811848D01*
X39476190Y1811848D02*
X39476190Y1478515D01*
X39476190Y1478515D02*
X39428571Y1288039D01*
X39428571Y1288039D02*
X39333333Y1192800D01*
X39333333Y1192800D02*
X39238095Y1145181D01*
X39238095Y1145181D02*
X39047619Y1145181D01*
X39047619Y1145181D02*
X38952381Y1192800D01*
X38952381Y1192800D02*
X38857143Y1288039D01*
X38857143Y1288039D02*
X38809524Y1478515D01*
X38809524Y1478515D02*
X38809524Y1811848D01*
X38809524Y1811848D02*
X38857143Y2002324D01*
X38857143Y2002324D02*
X38952381Y2097562D01*
X38952381Y2097562D02*
X39047619Y2145181D01*
X39761905Y2145181D02*
X40333333Y2145181D01*
X40047619Y1145181D02*
X40047619Y2145181D01*
X39957142Y16545181D02*
X39480952Y16545181D01*
X39480952Y16545181D02*
X39480952Y17545181D01*
X40290476Y17068991D02*
X40623809Y17068991D01*
X40766666Y16545181D02*
X40290476Y16545181D01*
X40290476Y16545181D02*
X40290476Y17545181D01*
X40290476Y17545181D02*
X40766666Y17545181D01*
X41195238Y16545181D02*
X41195238Y17545181D01*
X41195238Y17545181D02*
X41433333Y17545181D01*
X41433333Y17545181D02*
X41576190Y17497562D01*
X41576190Y17497562D02*
X41671428Y17402324D01*
X41671428Y17402324D02*
X41719047Y17307086D01*
X41719047Y17307086D02*
X41766666Y17116610D01*
X41766666Y17116610D02*
X41766666Y16973753D01*
X41766666Y16973753D02*
X41719047Y16783277D01*
X41719047Y16783277D02*
X41671428Y16688039D01*
X41671428Y16688039D02*
X41576190Y16592800D01*
X41576190Y16592800D02*
X41433333Y16545181D01*
X41433333Y16545181D02*
X41195238Y16545181D01*
X40285714Y18792800D02*
X40428571Y18745181D01*
X40428571Y18745181D02*
X40666666Y18745181D01*
X40666666Y18745181D02*
X40761904Y18792800D01*
X40761904Y18792800D02*
X40809523Y18840420D01*
X40809523Y18840420D02*
X40857142Y18935658D01*
X40857142Y18935658D02*
X40857142Y19030896D01*
X40857142Y19030896D02*
X40809523Y19126134D01*
X40809523Y19126134D02*
X40761904Y19173753D01*
X40761904Y19173753D02*
X40666666Y19221372D01*
X40666666Y19221372D02*
X40476190Y19268991D01*
X40476190Y19268991D02*
X40380952Y19316610D01*
X40380952Y19316610D02*
X40333333Y19364229D01*
X40333333Y19364229D02*
X40285714Y19459467D01*
X40285714Y19459467D02*
X40285714Y19554705D01*
X40285714Y19554705D02*
X40333333Y19649943D01*
X40333333Y19649943D02*
X40380952Y19697562D01*
X40380952Y19697562D02*
X40476190Y19745181D01*
X40476190Y19745181D02*
X40714285Y19745181D01*
X40714285Y19745181D02*
X40857142Y19697562D01*
X41285714Y18745181D02*
X41285714Y19745181D01*
X41285714Y19745181D02*
X41523809Y19745181D01*
X41523809Y19745181D02*
X41666666Y19697562D01*
X41666666Y19697562D02*
X41761904Y19602324D01*
X41761904Y19602324D02*
X41809523Y19507086D01*
X41809523Y19507086D02*
X41857142Y19316610D01*
X41857142Y19316610D02*
X41857142Y19173753D01*
X41857142Y19173753D02*
X41809523Y18983277D01*
X41809523Y18983277D02*
X41761904Y18888039D01*
X41761904Y18888039D02*
X41666666Y18792800D01*
X41666666Y18792800D02*
X41523809Y18745181D01*
X41523809Y18745181D02*
X41285714Y18745181D01*
X42238095Y19030896D02*
X42714285Y19030896D01*
X42142857Y18745181D02*
X42476190Y19745181D01*
X42476190Y19745181D02*
X42809523Y18745181D01*
X43309524Y18792800D02*
X43452381Y18745181D01*
X43452381Y18745181D02*
X43690476Y18745181D01*
X43690476Y18745181D02*
X43785714Y18792800D01*
X43785714Y18792800D02*
X43833333Y18840420D01*
X43833333Y18840420D02*
X43880952Y18935658D01*
X43880952Y18935658D02*
X43880952Y19030896D01*
X43880952Y19030896D02*
X43833333Y19126134D01*
X43833333Y19126134D02*
X43785714Y19173753D01*
X43785714Y19173753D02*
X43690476Y19221372D01*
X43690476Y19221372D02*
X43500000Y19268991D01*
X43500000Y19268991D02*
X43404762Y19316610D01*
X43404762Y19316610D02*
X43357143Y19364229D01*
X43357143Y19364229D02*
X43309524Y19459467D01*
X43309524Y19459467D02*
X43309524Y19554705D01*
X43309524Y19554705D02*
X43357143Y19649943D01*
X43357143Y19649943D02*
X43404762Y19697562D01*
X43404762Y19697562D02*
X43500000Y19745181D01*
X43500000Y19745181D02*
X43738095Y19745181D01*
X43738095Y19745181D02*
X43880952Y19697562D01*
X44880952Y18840420D02*
X44833333Y18792800D01*
X44833333Y18792800D02*
X44690476Y18745181D01*
X44690476Y18745181D02*
X44595238Y18745181D01*
X44595238Y18745181D02*
X44452381Y18792800D01*
X44452381Y18792800D02*
X44357143Y18888039D01*
X44357143Y18888039D02*
X44309524Y18983277D01*
X44309524Y18983277D02*
X44261905Y19173753D01*
X44261905Y19173753D02*
X44261905Y19316610D01*
X44261905Y19316610D02*
X44309524Y19507086D01*
X44309524Y19507086D02*
X44357143Y19602324D01*
X44357143Y19602324D02*
X44452381Y19697562D01*
X44452381Y19697562D02*
X44595238Y19745181D01*
X44595238Y19745181D02*
X44690476Y19745181D01*
X44690476Y19745181D02*
X44833333Y19697562D01*
X44833333Y19697562D02*
X44880952Y19649943D01*
X45785714Y18745181D02*
X45309524Y18745181D01*
X45309524Y18745181D02*
X45309524Y19745181D01*
X45252381Y30149943D02*
X45157143Y30197562D01*
X45157143Y30197562D02*
X45061905Y30292800D01*
X45061905Y30292800D02*
X44919048Y30435658D01*
X44919048Y30435658D02*
X44823810Y30483277D01*
X44823810Y30483277D02*
X44728572Y30483277D01*
X44776191Y30245181D02*
X44680953Y30292800D01*
X44680953Y30292800D02*
X44585715Y30388039D01*
X44585715Y30388039D02*
X44538096Y30578515D01*
X44538096Y30578515D02*
X44538096Y30911848D01*
X44538096Y30911848D02*
X44585715Y31102324D01*
X44585715Y31102324D02*
X44680953Y31197562D01*
X44680953Y31197562D02*
X44776191Y31245181D01*
X44776191Y31245181D02*
X44966667Y31245181D01*
X44966667Y31245181D02*
X45061905Y31197562D01*
X45061905Y31197562D02*
X45157143Y31102324D01*
X45157143Y31102324D02*
X45204762Y30911848D01*
X45204762Y30911848D02*
X45204762Y30578515D01*
X45204762Y30578515D02*
X45157143Y30388039D01*
X45157143Y30388039D02*
X45061905Y30292800D01*
X45061905Y30292800D02*
X44966667Y30245181D01*
X44966667Y30245181D02*
X44776191Y30245181D01*
X45538096Y30911848D02*
X45728572Y30245181D01*
X45728572Y30245181D02*
X45919048Y30721372D01*
X45919048Y30721372D02*
X46109524Y30245181D01*
X46109524Y30245181D02*
X46300000Y30911848D01*
X46680953Y30245181D02*
X46680953Y30911848D01*
X46680953Y31245181D02*
X46633334Y31197562D01*
X46633334Y31197562D02*
X46680953Y31149943D01*
X46680953Y31149943D02*
X46728572Y31197562D01*
X46728572Y31197562D02*
X46680953Y31245181D01*
X46680953Y31245181D02*
X46680953Y31149943D01*
X47157143Y30245181D02*
X47157143Y30911848D01*
X47157143Y31245181D02*
X47109524Y31197562D01*
X47109524Y31197562D02*
X47157143Y31149943D01*
X47157143Y31149943D02*
X47204762Y31197562D01*
X47204762Y31197562D02*
X47157143Y31245181D01*
X47157143Y31245181D02*
X47157143Y31149943D01*
X48061904Y30292800D02*
X47966666Y30245181D01*
X47966666Y30245181D02*
X47776190Y30245181D01*
X47776190Y30245181D02*
X47680952Y30292800D01*
X47680952Y30292800D02*
X47633333Y30340420D01*
X47633333Y30340420D02*
X47585714Y30435658D01*
X47585714Y30435658D02*
X47585714Y30721372D01*
X47585714Y30721372D02*
X47633333Y30816610D01*
X47633333Y30816610D02*
X47680952Y30864229D01*
X47680952Y30864229D02*
X47776190Y30911848D01*
X47776190Y30911848D02*
X47966666Y30911848D01*
X47966666Y30911848D02*
X48061904Y30864229D01*
%TO.C,R7*%
D11*
X39265000Y34272936D02*
X39265000Y34727064D01*
X40735000Y34272936D02*
X40735000Y34727064D01*
%TO.C,R8*%
X41465000Y34272936D02*
X41465000Y34727064D01*
X42935000Y34272936D02*
X42935000Y34727064D01*
%TO.C,C4*%
X12465000Y37138748D02*
X12465000Y37661252D01*
X13935000Y37138748D02*
X13935000Y37661252D01*
%TO.C,SW2*%
X35750000Y6500000D02*
X35750000Y4500000D01*
X36750000Y7800000D02*
X37200000Y8250000D01*
X36750000Y3200000D02*
X37200000Y2750000D01*
X37200000Y8250000D02*
X39800000Y8250000D01*
X37200000Y2750000D02*
X39800000Y2750000D01*
X40250000Y7800000D02*
X39800000Y8250000D01*
X40250000Y3200000D02*
X39800000Y2750000D01*
X41250000Y6500000D02*
X41250000Y4500000D01*
%TO.C,C2*%
X10265000Y16238748D02*
X10265000Y16761252D01*
X11735000Y16238748D02*
X11735000Y16761252D01*
%TO.C,U3*%
X23440000Y14760000D02*
X24440000Y14760000D01*
X23440000Y13240000D02*
X23440000Y14760000D01*
X23490000Y13240000D02*
X23440000Y13240000D01*
X25390000Y13240000D02*
X24610000Y13240000D01*
X25560000Y14760000D02*
X26560000Y14760000D01*
X26560000Y14760000D02*
X26560000Y13240000D01*
X26560000Y13240000D02*
X26510000Y13240000D01*
X24620000Y12700000D02*
X24950000Y12940000D01*
X24950000Y12460000D01*
X24620000Y12700000D01*
G36*
X24950000Y12460000D02*
G01*
X24620000Y12700000D01*
X24950000Y12940000D01*
X24950000Y12460000D01*
G37*
%TO.C,J2*%
X44515000Y29110000D02*
X44515000Y28060000D01*
X44515000Y23940000D02*
X43525000Y23940000D01*
X44515000Y22890000D02*
X44515000Y23940000D01*
X47015000Y29110000D02*
X44515000Y29110000D01*
X47015000Y22890000D02*
X44515000Y22890000D01*
X48985000Y24060000D02*
X48985000Y27940000D01*
%TO.C,R2*%
X28272936Y11735000D02*
X28727064Y11735000D01*
X28272936Y10265000D02*
X28727064Y10265000D01*
%TO.C,TP2*%
X18450000Y19500000D02*
G75*
G02*
X16550000Y19500000I-950000J0D01*
G01*
X16550000Y19500000D02*
G75*
G02*
X18450000Y19500000I950000J0D01*
G01*
%TO.C,U2*%
X4090000Y25910000D02*
X5350000Y25910000D01*
X4090000Y22150000D02*
X4090000Y25910000D01*
X10910000Y25910000D02*
X9650000Y25910000D01*
X10910000Y22150000D02*
X10910000Y25910000D01*
X4190000Y20870000D02*
X3860000Y20630000D01*
X3860000Y21110000D01*
X4190000Y20870000D01*
G36*
X4190000Y20870000D02*
G01*
X3860000Y20630000D01*
X3860000Y21110000D01*
X4190000Y20870000D01*
G37*
%TO.C,R1*%
X21272936Y11735000D02*
X21727064Y11735000D01*
X21272936Y10265000D02*
X21727064Y10265000D01*
%TO.C,C5*%
X11738748Y31735000D02*
X12261252Y31735000D01*
X11738748Y30265000D02*
X12261252Y30265000D01*
%TO.C,R5*%
X38272936Y11235000D02*
X38727064Y11235000D01*
X38272936Y9765000D02*
X38727064Y9765000D01*
%TO.C,TP7*%
X45450000Y21000000D02*
G75*
G02*
X43550000Y21000000I-950000J0D01*
G01*
X43550000Y21000000D02*
G75*
G02*
X45450000Y21000000I950000J0D01*
G01*
%TO.C,TP5*%
X38450000Y25500000D02*
G75*
G02*
X36550000Y25500000I-950000J0D01*
G01*
X36550000Y25500000D02*
G75*
G02*
X38450000Y25500000I950000J0D01*
G01*
%TO.C,C1*%
X7761252Y18935000D02*
X7238748Y18935000D01*
X7761252Y17465000D02*
X7238748Y17465000D01*
%TO.C,R6*%
X37272936Y20735000D02*
X37727064Y20735000D01*
X37272936Y19265000D02*
X37727064Y19265000D01*
%TO.C,J1*%
X20300000Y5600000D02*
X20300000Y3600000D01*
X20300000Y1700000D02*
X20300000Y-200000D01*
X20300000Y-200000D02*
X29700000Y-200000D01*
X29700000Y5600000D02*
X29700000Y3600000D01*
X29700000Y1700000D02*
X29700000Y-200000D01*
%TO.C,U1*%
X15800000Y50150000D02*
X15800000Y43950000D01*
X15800000Y50150000D02*
X34200000Y50150000D01*
X15800000Y25300000D02*
X15800000Y24300000D01*
X15800000Y24300000D02*
X17300000Y24300000D01*
X34200000Y50150000D02*
X34200000Y43950000D01*
X34200000Y24300000D02*
X32700000Y24300000D01*
X34200000Y24300000D02*
X34200000Y25300000D01*
X15800000Y43275000D02*
X15300000Y43275000D01*
X15800000Y43775000D01*
X15800000Y43275000D01*
G36*
X15800000Y43275000D02*
G01*
X15300000Y43275000D01*
X15800000Y43775000D01*
X15800000Y43275000D01*
G37*
%TO.C,TP6*%
X42450000Y21000000D02*
G75*
G02*
X40550000Y21000000I-950000J0D01*
G01*
X40550000Y21000000D02*
G75*
G02*
X42450000Y21000000I950000J0D01*
G01*
%TO.C,D1*%
X2815000Y11960000D02*
X2815000Y10040000D01*
X2815000Y10040000D02*
X5500000Y10040000D01*
X5500000Y11960000D02*
X2815000Y11960000D01*
%TO.C,U4*%
X45640000Y17750000D02*
X45640000Y16250000D01*
X47360000Y17750000D02*
X47360000Y16250000D01*
X47100000Y18200000D02*
X47100000Y18480000D01*
X47380000Y18200000D01*
X47100000Y18200000D01*
G36*
X47380000Y18200000D02*
G01*
X47100000Y18200000D01*
X47100000Y18480000D01*
X47380000Y18200000D01*
G37*
%TO.C,D2*%
X35815000Y17960000D02*
X35815000Y16040000D01*
X35815000Y16040000D02*
X38500000Y16040000D01*
X38500000Y17960000D02*
X35815000Y17960000D01*
%TO.C,TP3*%
X21950000Y19500000D02*
G75*
G02*
X20050000Y19500000I-950000J0D01*
G01*
X20050000Y19500000D02*
G75*
G02*
X21950000Y19500000I950000J0D01*
G01*
%TO.C,R4*%
X11772936Y34235000D02*
X12227064Y34235000D01*
X11772936Y32765000D02*
X12227064Y32765000D01*
%TO.C,SW1*%
X8750000Y6500000D02*
X8750000Y4500000D01*
X9750000Y7800000D02*
X10200000Y8250000D01*
X9750000Y3200000D02*
X10200000Y2750000D01*
X10200000Y8250000D02*
X12800000Y8250000D01*
X10200000Y2750000D02*
X12800000Y2750000D01*
X13250000Y7800000D02*
X12800000Y8250000D01*
X13250000Y3200000D02*
X12800000Y2750000D01*
X14250000Y6500000D02*
X14250000Y4500000D01*
%TO.C,D3*%
X16000000Y7790000D02*
X16000000Y11650000D01*
X16000000Y7790000D02*
X18000000Y7790000D01*
X18000000Y7790000D02*
X18000000Y11650000D01*
%TO.C,F1*%
X16090000Y14397936D02*
X16090000Y15602064D01*
X17910000Y14397936D02*
X17910000Y15602064D01*
%TO.C,TP4*%
X38450000Y29000000D02*
G75*
G02*
X36550000Y29000000I-950000J0D01*
G01*
X36550000Y29000000D02*
G75*
G02*
X38450000Y29000000I950000J0D01*
G01*
%TO.C,TP1*%
X14950000Y19500000D02*
G75*
G02*
X13050000Y19500000I-950000J0D01*
G01*
X13050000Y19500000D02*
G75*
G02*
X14950000Y19500000I950000J0D01*
G01*
%TO.C,C3*%
X12465000Y40738748D02*
X12465000Y41261252D01*
X13935000Y40738748D02*
X13935000Y41261252D01*
%TO.C,C6*%
X46238748Y14735000D02*
X46761252Y14735000D01*
X46238748Y13265000D02*
X46761252Y13265000D01*
%TO.C,R3*%
X4272936Y14235000D02*
X4727064Y14235000D01*
X4272936Y12765000D02*
X4727064Y12765000D01*
%TD*%
%LPC*%
D12*
%TO.C,R7*%
X40000000Y33587500D03*
X40000000Y35412500D03*
%TD*%
%TO.C,R8*%
X42200000Y33587500D03*
X42200000Y35412500D03*
%TD*%
D13*
%TO.C,C4*%
X13200000Y36450000D03*
X13200000Y38350000D03*
%TD*%
D14*
%TO.C,SW2*%
X35500000Y7375000D03*
X41500000Y7375000D03*
X35500000Y3625000D03*
X41500000Y3625000D03*
%TD*%
D13*
%TO.C,C2*%
X11000000Y15550000D03*
X11000000Y17450000D03*
%TD*%
D15*
%TO.C,U3*%
X24050000Y13062500D03*
X25950000Y13062500D03*
X25000000Y14937500D03*
%TD*%
D16*
%TO.C,J2*%
X44300000Y24500000D03*
X44300000Y25500000D03*
X44300000Y26500000D03*
X44300000Y27500000D03*
D17*
X48175000Y23200000D03*
X48175000Y28800000D03*
%TD*%
D18*
%TO.C,R2*%
X27587500Y11000000D03*
X29412500Y11000000D03*
%TD*%
D19*
%TO.C,TP2*%
X17500000Y19500000D03*
%TD*%
D20*
%TO.C,H4*%
X46000000Y4000000D03*
%TD*%
D21*
%TO.C,U2*%
X5200000Y20850000D03*
X7500000Y20850000D03*
D22*
X7500000Y27150000D03*
D21*
X9800000Y20850000D03*
%TD*%
D18*
%TO.C,R1*%
X20587500Y11000000D03*
X22412500Y11000000D03*
%TD*%
D23*
%TO.C,C5*%
X11050000Y31000000D03*
X12950000Y31000000D03*
%TD*%
D18*
%TO.C,R5*%
X37587500Y10500000D03*
X39412500Y10500000D03*
%TD*%
D19*
%TO.C,TP7*%
X44500000Y21000000D03*
%TD*%
%TO.C,TP5*%
X37500000Y25500000D03*
%TD*%
D24*
%TO.C,C1*%
X8450000Y18200000D03*
X6550000Y18200000D03*
%TD*%
D18*
%TO.C,R6*%
X36587500Y20000000D03*
X38412500Y20000000D03*
%TD*%
D25*
%TO.C,J1*%
X22110000Y6300000D03*
X27890000Y6300000D03*
D26*
X21750000Y7745000D03*
X22550000Y7745000D03*
D27*
X23750000Y7745000D03*
X24750000Y7745000D03*
X25250000Y7745000D03*
X26250000Y7745000D03*
D26*
X27450000Y7745000D03*
X28250000Y7745000D03*
X28250000Y7745000D03*
X27450000Y7745000D03*
D27*
X26750000Y7745000D03*
X25750000Y7745000D03*
X24250000Y7745000D03*
X23250000Y7745000D03*
D26*
X22550000Y7745000D03*
X21750000Y7745000D03*
D28*
X20680000Y6830000D03*
D29*
X20680000Y2650000D03*
D28*
X29320000Y6830000D03*
D29*
X29320000Y2650000D03*
%TD*%
D30*
%TO.C,U1*%
X16250000Y42510000D03*
X16250000Y41240000D03*
X16250000Y39970000D03*
X16250000Y38700000D03*
X16250000Y37430000D03*
X16250000Y36160000D03*
X16250000Y34890000D03*
X16250000Y33620000D03*
X16250000Y32350000D03*
X16250000Y31080000D03*
X16250000Y29810000D03*
X16250000Y28540000D03*
X16250000Y27270000D03*
X16250000Y26000000D03*
D31*
X18015000Y24750000D03*
X19285000Y24750000D03*
X20555000Y24750000D03*
X21825000Y24750000D03*
X23095000Y24750000D03*
X24365000Y24750000D03*
X25635000Y24750000D03*
X26905000Y24750000D03*
X28175000Y24750000D03*
X29445000Y24750000D03*
X30715000Y24750000D03*
X31985000Y24750000D03*
D30*
X33750000Y26000000D03*
X33750000Y27270000D03*
X33750000Y28540000D03*
X33750000Y29810000D03*
X33750000Y31080000D03*
X33750000Y32350000D03*
X33750000Y33620000D03*
X33750000Y34890000D03*
X33750000Y36160000D03*
X33750000Y37430000D03*
X33750000Y38700000D03*
X33750000Y39970000D03*
X33750000Y41240000D03*
X33750000Y42510000D03*
D32*
X22100000Y35490000D03*
X22100000Y34090000D03*
X22800000Y36190000D03*
X22800000Y34790000D03*
X22800000Y33390000D03*
X23500000Y35490000D03*
D33*
X23500000Y34790000D03*
D32*
X23500000Y34090000D03*
X24200000Y36190000D03*
X24200000Y34790000D03*
X24200000Y33390000D03*
X24900000Y35490000D03*
X24900000Y34090000D03*
%TD*%
D19*
%TO.C,TP6*%
X41500000Y21000000D03*
%TD*%
D34*
%TO.C,D1*%
X3562500Y11000000D03*
X5437500Y11000000D03*
%TD*%
D35*
%TO.C,U4*%
X46900000Y17700000D03*
X46100000Y17700000D03*
X46100000Y16300000D03*
X46900000Y16300000D03*
%TD*%
D34*
%TO.C,D2*%
X36562500Y17000000D03*
X38437500Y17000000D03*
%TD*%
D19*
%TO.C,TP3*%
X21000000Y19500000D03*
%TD*%
D20*
%TO.C,H1*%
X4000000Y40000000D03*
%TD*%
D18*
%TO.C,R4*%
X11087500Y33500000D03*
X12912500Y33500000D03*
%TD*%
D14*
%TO.C,SW1*%
X8500000Y7375000D03*
X14500000Y7375000D03*
X8500000Y3625000D03*
X14500000Y3625000D03*
%TD*%
D36*
%TO.C,D3*%
X17000000Y8600000D03*
X17000000Y11400000D03*
%TD*%
D20*
%TO.C,H2*%
X46000000Y40000000D03*
%TD*%
D37*
%TO.C,F1*%
X17000000Y13600000D03*
X17000000Y16400000D03*
%TD*%
D19*
%TO.C,TP4*%
X37500000Y29000000D03*
%TD*%
%TO.C,TP1*%
X14000000Y19500000D03*
%TD*%
D20*
%TO.C,H3*%
X4000000Y4000000D03*
%TD*%
D13*
%TO.C,C3*%
X13200000Y40050000D03*
X13200000Y41950000D03*
%TD*%
D23*
%TO.C,C6*%
X45550000Y14000000D03*
X47450000Y14000000D03*
%TD*%
D18*
%TO.C,R3*%
X3587500Y13500000D03*
X5412500Y13500000D03*
%TD*%
%LPD*%
M02*
