%TF.GenerationSoftware,KiCad,Pcbnew,10.0.6*%
%TF.CreationDate,2026-09-29T16:20:15+03:00*%
%TF.ProjectId,starter,73746172-7465-4722-9e6b-696361645f70,rev?*%
%TF.SameCoordinates,Original*%
%TF.FileFunction,Copper,L1,Top*%
%TF.FilePolarity,Positive*%
%FSLAX46Y46*%
G04 Gerber Fmt 4.6, Leading zero omitted, Abs format (unit mm)*
G04 Created by KiCad (PCBNEW 10.0.6) date 2026-09-29 16:20:15*
%MOMM*%
%LPD*%
G01*
G04 APERTURE LIST*
G04 Aperture macros list*
%AMRoundRect*
0 Rectangle with rounded corners*
0 $1 Rounding radius*
0 $2 $3 $4 $5 $6 $7 $8 $9 X,Y pos of 4 corners*
0 Add a 4 corners polygon primitive as box body*
4,1,4,$2,$3,$4,$5,$6,$7,$8,$9,$2,$3,0*
0 Add four circle primitives for the rounded corners*
1,1,$1+$1,$2,$3*
1,1,$1+$1,$4,$5*
1,1,$1+$1,$6,$7*
1,1,$1+$1,$8,$9*
0 Add four rect primitives between the rounded corners*
20,1,$1+$1,$2,$3,$4,$5,0*
20,1,$1+$1,$4,$5,$6,$7,0*
20,1,$1+$1,$6,$7,$8,$9,0*
20,1,$1+$1,$8,$9,$2,$3,0*%
G04 Aperture macros list end*
%TA.AperFunction,SMDPad,CuDef*%
%ADD10RoundRect,0.243750X-0.243750X-0.456250X0.243750X-0.456250X0.243750X0.456250X-0.243750X0.456250X0*%
%TD*%
%TA.AperFunction,SMDPad,CuDef*%
%ADD11C,1.500000*%
%TD*%
%TA.AperFunction,SMDPad,CuDef*%
%ADD12R,0.300000X0.500000*%
%TD*%
%TA.AperFunction,SMDPad,CuDef*%
%ADD13RoundRect,0.250000X0.450000X-0.262500X0.450000X0.262500X-0.450000X0.262500X-0.450000X-0.262500X0*%
%TD*%
%TA.AperFunction,SMDPad,CuDef*%
%ADD14RoundRect,0.150000X-0.150000X-0.575000X0.150000X-0.575000X0.150000X0.575000X-0.150000X0.575000X0*%
%TD*%
%TA.AperFunction,SMDPad,CuDef*%
%ADD15RoundRect,0.075000X-0.075000X-0.650000X0.075000X-0.650000X0.075000X0.650000X-0.075000X0.650000X0*%
%TD*%
%TA.AperFunction,ComponentPad*%
%ADD16O,1.000000X2.100000*%
%TD*%
%TA.AperFunction,ComponentPad*%
%ADD17O,1.000000X1.600000*%
%TD*%
%TA.AperFunction,SMDPad,CuDef*%
%ADD18R,1.000000X0.750000*%
%TD*%
%TA.AperFunction,SMDPad,CuDef*%
%ADD19RoundRect,0.250000X-0.250000X-0.475000X0.250000X-0.475000X0.250000X0.475000X-0.250000X0.475000X0*%
%TD*%
%TA.AperFunction,SMDPad,CuDef*%
%ADD20RoundRect,0.250000X0.475000X-0.250000X0.475000X0.250000X-0.475000X0.250000X-0.475000X-0.250000X0*%
%TD*%
%TA.AperFunction,SMDPad,CuDef*%
%ADD21RoundRect,0.250000X-0.262500X-0.450000X0.262500X-0.450000X0.262500X0.450000X-0.262500X0.450000X0*%
%TD*%
%TA.AperFunction,SMDPad,CuDef*%
%ADD22RoundRect,0.375000X0.375000X-0.625000X0.375000X0.625000X-0.375000X0.625000X-0.375000X-0.625000X0*%
%TD*%
%TA.AperFunction,SMDPad,CuDef*%
%ADD23RoundRect,0.500000X1.400000X-0.500000X1.400000X0.500000X-1.400000X0.500000X-1.400000X-0.500000X0*%
%TD*%
%TA.AperFunction,SMDPad,CuDef*%
%ADD24RoundRect,0.150000X0.625000X-0.150000X0.625000X0.150000X-0.625000X0.150000X-0.625000X-0.150000X0*%
%TD*%
%TA.AperFunction,SMDPad,CuDef*%
%ADD25RoundRect,0.250000X0.650000X-0.350000X0.650000X0.350000X-0.650000X0.350000X-0.650000X-0.350000X0*%
%TD*%
%TA.AperFunction,SMDPad,CuDef*%
%ADD26RoundRect,0.150000X0.150000X-0.587500X0.150000X0.587500X-0.150000X0.587500X-0.150000X-0.587500X0*%
%TD*%
%TA.AperFunction,SMDPad,CuDef*%
%ADD27RoundRect,0.250000X0.250000X0.475000X-0.250000X0.475000X-0.250000X-0.475000X0.250000X-0.475000X0*%
%TD*%
%TA.AperFunction,SMDPad,CuDef*%
%ADD28RoundRect,0.250000X0.300000X-0.300000X0.300000X0.300000X-0.300000X0.300000X-0.300000X-0.300000X0*%
%TD*%
%TA.AperFunction,SMDPad,CuDef*%
%ADD29RoundRect,0.250000X0.625000X-0.375000X0.625000X0.375000X-0.625000X0.375000X-0.625000X-0.375000X0*%
%TD*%
%TA.AperFunction,SMDPad,CuDef*%
%ADD30R,1.500000X0.900000*%
%TD*%
%TA.AperFunction,SMDPad,CuDef*%
%ADD31R,0.900000X1.500000*%
%TD*%
%TA.AperFunction,HeatsinkPad*%
%ADD32C,0.600000*%
%TD*%
%TA.AperFunction,HeatsinkPad*%
%ADD33R,3.900000X3.900000*%
%TD*%
%TA.AperFunction,ViaPad*%
%ADD34C,0.600000*%
%TD*%
%TA.AperFunction,ViaPad*%
%ADD35C,0.800000*%
%TD*%
%TA.AperFunction,Conductor*%
%ADD36C,0.300000*%
%TD*%
%TA.AperFunction,Conductor*%
%ADD37C,0.200000*%
%TD*%
G04 APERTURE END LIST*
D10*
%TO.P,D2,1*%
%TO.N,GND*%
X36562500Y17000000D03*
%TO.P,D2,2*%
%TO.N,/STATUS_LED*%
X38437500Y17000000D03*
%TD*%
D11*
%TO.P,TP7,1*%
%TO.N,/I2C_SCL*%
X44500000Y21000000D03*
%TD*%
D12*
%TO.P,U4,1*%
%TO.N,/I2C_SDA*%
X46900000Y17700000D03*
%TO.P,U4,2*%
%TO.N,/I2C_SCL*%
X46100000Y17700000D03*
%TO.P,U4,3*%
%TO.N,+3V3*%
X46100000Y16300000D03*
%TO.P,U4,4*%
%TO.N,GND*%
X46900000Y16300000D03*
%TD*%
D13*
%TO.P,R7,1*%
%TO.N,+3V3*%
X40000000Y33587500D03*
%TO.P,R7,2*%
%TO.N,/I2C_SDA*%
X40000000Y35412500D03*
%TD*%
D14*
%TO.P,J1,A1*%
%TO.N,GND*%
X21750000Y7745000D03*
%TO.P,J1,A4*%
%TO.N,VBUS*%
X22550000Y7745000D03*
D15*
%TO.P,J1,A5*%
%TO.N,/CC1*%
X23750000Y7745000D03*
%TO.P,J1,A6*%
%TO.N,/USB_D+*%
X24750000Y7745000D03*
%TO.P,J1,A7*%
%TO.N,/USB_D-*%
X25250000Y7745000D03*
%TO.P,J1,A8*%
%TO.N,unconnected-(J1-SBU1-PadA8)*%
X26250000Y7745000D03*
D14*
%TO.P,J1,A9*%
%TO.N,VBUS*%
X27450000Y7745000D03*
%TO.P,J1,A12*%
%TO.N,GND*%
X28250000Y7745000D03*
%TO.P,J1,B1*%
X28250000Y7745000D03*
%TO.P,J1,B4*%
%TO.N,VBUS*%
X27450000Y7745000D03*
D15*
%TO.P,J1,B5*%
%TO.N,/CC2*%
X26750000Y7745000D03*
%TO.P,J1,B6*%
%TO.N,/USB_D+*%
X25750000Y7745000D03*
%TO.P,J1,B7*%
%TO.N,/USB_D-*%
X24250000Y7745000D03*
%TO.P,J1,B8*%
%TO.N,unconnected-(J1-SBU2-PadB8)*%
X23250000Y7745000D03*
D14*
%TO.P,J1,B9*%
%TO.N,VBUS*%
X22550000Y7745000D03*
%TO.P,J1,B12*%
%TO.N,GND*%
X21750000Y7745000D03*
D16*
%TO.P,J1,SH*%
X20680000Y6830000D03*
D17*
X20680000Y2650000D03*
D16*
X29320000Y6830000D03*
D17*
X29320000Y2650000D03*
%TD*%
D18*
%TO.P,SW1,1*%
%TO.N,/EN*%
X8500000Y7375000D03*
X14500000Y7375000D03*
%TO.P,SW1,2*%
%TO.N,GND*%
X8500000Y3625000D03*
X14500000Y3625000D03*
%TD*%
D19*
%TO.P,C5,1*%
%TO.N,/EN*%
X11050000Y31000000D03*
%TO.P,C5,2*%
%TO.N,GND*%
X12950000Y31000000D03*
%TD*%
D20*
%TO.P,C2,1*%
%TO.N,+3V3*%
X11000000Y15550000D03*
%TO.P,C2,2*%
%TO.N,GND*%
X11000000Y17450000D03*
%TD*%
D18*
%TO.P,SW2,1*%
%TO.N,/BOOT*%
X35500000Y7375000D03*
X41500000Y7375000D03*
%TO.P,SW2,2*%
%TO.N,GND*%
X35500000Y3625000D03*
X41500000Y3625000D03*
%TD*%
D11*
%TO.P,TP2,1*%
%TO.N,+3V3*%
X17500000Y19500000D03*
%TD*%
D21*
%TO.P,R2,1*%
%TO.N,/CC2*%
X27587500Y11000000D03*
%TO.P,R2,2*%
%TO.N,GND*%
X29412500Y11000000D03*
%TD*%
D11*
%TO.P,TP6,1*%
%TO.N,/I2C_SDA*%
X41500000Y21000000D03*
%TD*%
D21*
%TO.P,R4,1*%
%TO.N,+3V3*%
X11087500Y33500000D03*
%TO.P,R4,2*%
%TO.N,/EN*%
X12912500Y33500000D03*
%TD*%
D11*
%TO.P,TP1,1*%
%TO.N,+5V*%
X14000000Y19500000D03*
%TD*%
%TO.P,TP3,1*%
%TO.N,GND*%
X21000000Y19500000D03*
%TD*%
D21*
%TO.P,R1,1*%
%TO.N,/CC1*%
X20587500Y11000000D03*
%TO.P,R1,2*%
%TO.N,GND*%
X22412500Y11000000D03*
%TD*%
D11*
%TO.P,TP4,1*%
%TO.N,/UART_TX*%
X37500000Y29000000D03*
%TD*%
D22*
%TO.P,U2,1*%
%TO.N,GND*%
X5200000Y20850000D03*
%TO.P,U2,2*%
%TO.N,+3V3*%
X7500000Y20850000D03*
D23*
X7500000Y27150000D03*
D22*
%TO.P,U2,3*%
%TO.N,+5V*%
X9800000Y20850000D03*
%TD*%
D24*
%TO.P,J2,1*%
%TO.N,GND*%
X44300000Y24500000D03*
%TO.P,J2,2*%
%TO.N,+3V3*%
X44300000Y25500000D03*
%TO.P,J2,3*%
%TO.N,/I2C_SDA*%
X44300000Y26500000D03*
%TO.P,J2,4*%
%TO.N,/I2C_SCL*%
X44300000Y27500000D03*
D25*
%TO.P,J2,MP*%
%TO.N,unconnected-(J2-MountPin-PadMP)*%
X48175000Y23200000D03*
X48175000Y28800000D03*
%TD*%
D21*
%TO.P,R5,1*%
%TO.N,+3V3*%
X37587500Y10500000D03*
%TO.P,R5,2*%
%TO.N,/BOOT*%
X39412500Y10500000D03*
%TD*%
D26*
%TO.P,U3,1*%
%TO.N,/USB_D+*%
X24050000Y13062500D03*
%TO.P,U3,2*%
%TO.N,/USB_D-*%
X25950000Y13062500D03*
%TO.P,U3,3*%
%TO.N,GND*%
X25000000Y14937500D03*
%TD*%
D10*
%TO.P,D1,1*%
%TO.N,GND*%
X3562500Y11000000D03*
%TO.P,D1,2*%
%TO.N,/PWR_LED*%
X5437500Y11000000D03*
%TD*%
D11*
%TO.P,TP5,1*%
%TO.N,/UART_RX*%
X37500000Y25500000D03*
%TD*%
D27*
%TO.P,C1,1*%
%TO.N,+5V*%
X8450000Y18200000D03*
%TO.P,C1,2*%
%TO.N,GND*%
X6550000Y18200000D03*
%TD*%
D28*
%TO.P,D3,1*%
%TO.N,+5V*%
X17000000Y8600000D03*
%TO.P,D3,2*%
%TO.N,GND*%
X17000000Y11400000D03*
%TD*%
D29*
%TO.P,F1,1*%
%TO.N,VBUS*%
X17000000Y13600000D03*
%TO.P,F1,2*%
%TO.N,+5V*%
X17000000Y16400000D03*
%TD*%
D21*
%TO.P,R6,1*%
%TO.N,/STATUS*%
X36587500Y20000000D03*
%TO.P,R6,2*%
%TO.N,/STATUS_LED*%
X38412500Y20000000D03*
%TD*%
D13*
%TO.P,R8,1*%
%TO.N,+3V3*%
X42200000Y33587500D03*
%TO.P,R8,2*%
%TO.N,/I2C_SCL*%
X42200000Y35412500D03*
%TD*%
D20*
%TO.P,C4,1*%
%TO.N,+3V3*%
X13200000Y36450000D03*
%TO.P,C4,2*%
%TO.N,GND*%
X13200000Y38350000D03*
%TD*%
D19*
%TO.P,C6,1*%
%TO.N,+3V3*%
X45550000Y14000000D03*
%TO.P,C6,2*%
%TO.N,GND*%
X47450000Y14000000D03*
%TD*%
D20*
%TO.P,C3,1*%
%TO.N,+3V3*%
X13200000Y40050000D03*
%TO.P,C3,2*%
%TO.N,GND*%
X13200000Y41950000D03*
%TD*%
D30*
%TO.P,U1,1*%
%TO.N,GND*%
X16250000Y42510000D03*
%TO.P,U1,2*%
%TO.N,+3V3*%
X16250000Y41240000D03*
%TO.P,U1,3*%
%TO.N,/EN*%
X16250000Y39970000D03*
%TO.P,U1,4*%
%TO.N,unconnected-(U1-IO4-Pad4)*%
X16250000Y38700000D03*
%TO.P,U1,5*%
%TO.N,unconnected-(U1-IO5-Pad5)*%
X16250000Y37430000D03*
%TO.P,U1,6*%
%TO.N,unconnected-(U1-IO6-Pad6)*%
X16250000Y36160000D03*
%TO.P,U1,7*%
%TO.N,unconnected-(U1-IO7-Pad7)*%
X16250000Y34890000D03*
%TO.P,U1,8*%
%TO.N,unconnected-(U1-IO15-Pad8)*%
X16250000Y33620000D03*
%TO.P,U1,9*%
%TO.N,unconnected-(U1-IO16-Pad9)*%
X16250000Y32350000D03*
%TO.P,U1,10*%
%TO.N,unconnected-(U1-IO17-Pad10)*%
X16250000Y31080000D03*
%TO.P,U1,11*%
%TO.N,unconnected-(U1-IO18-Pad11)*%
X16250000Y29810000D03*
%TO.P,U1,12*%
%TO.N,unconnected-(U1-IO8-Pad12)*%
X16250000Y28540000D03*
%TO.P,U1,13*%
%TO.N,/USB_D-*%
X16250000Y27270000D03*
%TO.P,U1,14*%
%TO.N,/USB_D+*%
X16250000Y26000000D03*
D31*
%TO.P,U1,15*%
%TO.N,unconnected-(U1-IO3-Pad15)*%
X18015000Y24750000D03*
%TO.P,U1,16*%
%TO.N,unconnected-(U1-IO46-Pad16)*%
X19285000Y24750000D03*
%TO.P,U1,17*%
%TO.N,unconnected-(U1-IO9-Pad17)*%
X20555000Y24750000D03*
%TO.P,U1,18*%
%TO.N,unconnected-(U1-IO10-Pad18)*%
X21825000Y24750000D03*
%TO.P,U1,19*%
%TO.N,unconnected-(U1-IO11-Pad19)*%
X23095000Y24750000D03*
%TO.P,U1,20*%
%TO.N,unconnected-(U1-IO12-Pad20)*%
X24365000Y24750000D03*
%TO.P,U1,21*%
%TO.N,unconnected-(U1-IO13-Pad21)*%
X25635000Y24750000D03*
%TO.P,U1,22*%
%TO.N,unconnected-(U1-IO14-Pad22)*%
X26905000Y24750000D03*
%TO.P,U1,23*%
%TO.N,unconnected-(U1-IO21-Pad23)*%
X28175000Y24750000D03*
%TO.P,U1,24*%
%TO.N,unconnected-(U1-IO47-Pad24)*%
X29445000Y24750000D03*
%TO.P,U1,25*%
%TO.N,/STATUS*%
X30715000Y24750000D03*
%TO.P,U1,26*%
%TO.N,unconnected-(U1-IO45-Pad26)*%
X31985000Y24750000D03*
D30*
%TO.P,U1,27*%
%TO.N,/BOOT*%
X33750000Y26000000D03*
%TO.P,U1,28*%
%TO.N,unconnected-(U1-IO35-Pad28)*%
X33750000Y27270000D03*
%TO.P,U1,29*%
%TO.N,unconnected-(U1-IO36-Pad29)*%
X33750000Y28540000D03*
%TO.P,U1,30*%
%TO.N,unconnected-(U1-IO37-Pad30)*%
X33750000Y29810000D03*
%TO.P,U1,31*%
%TO.N,unconnected-(U1-IO38-Pad31)*%
X33750000Y31080000D03*
%TO.P,U1,32*%
%TO.N,unconnected-(U1-IO39-Pad32)*%
X33750000Y32350000D03*
%TO.P,U1,33*%
%TO.N,unconnected-(U1-IO40-Pad33)*%
X33750000Y33620000D03*
%TO.P,U1,34*%
%TO.N,unconnected-(U1-IO41-Pad34)*%
X33750000Y34890000D03*
%TO.P,U1,35*%
%TO.N,unconnected-(U1-IO42-Pad35)*%
X33750000Y36160000D03*
%TO.P,U1,36*%
%TO.N,/UART_RX*%
X33750000Y37430000D03*
%TO.P,U1,37*%
%TO.N,/UART_TX*%
X33750000Y38700000D03*
%TO.P,U1,38*%
%TO.N,/I2C_SCL*%
X33750000Y39970000D03*
%TO.P,U1,39*%
%TO.N,/I2C_SDA*%
X33750000Y41240000D03*
%TO.P,U1,40*%
%TO.N,GND*%
X33750000Y42510000D03*
D32*
%TO.P,U1,41*%
X22100000Y35490000D03*
X22100000Y34090000D03*
X22800000Y36190000D03*
X22800000Y34790000D03*
X22800000Y33390000D03*
X23500000Y35490000D03*
D33*
X23500000Y34790000D03*
D32*
X23500000Y34090000D03*
X24200000Y36190000D03*
X24200000Y34790000D03*
X24200000Y33390000D03*
X24900000Y35490000D03*
X24900000Y34090000D03*
%TD*%
D21*
%TO.P,R3,1*%
%TO.N,+5V*%
X3587500Y13500000D03*
%TO.P,R3,2*%
%TO.N,/PWR_LED*%
X5412500Y13500000D03*
%TD*%
D34*
%TO.N,GND*%
X37450000Y39550000D03*
X25450000Y21550000D03*
X4450000Y15550000D03*
X46450000Y9550000D03*
X16450000Y6550000D03*
X46450000Y30550000D03*
X34450000Y6550000D03*
X1450000Y21550000D03*
X31450000Y18550000D03*
X19450000Y12550000D03*
X1450000Y18550000D03*
X43450000Y12550000D03*
X31450000Y21550000D03*
X28450000Y21550000D03*
X16450000Y3550000D03*
X31450000Y3550000D03*
X34450000Y18550000D03*
X1450000Y15550000D03*
X4450000Y18550000D03*
X43450000Y9550000D03*
X28450000Y18550000D03*
X22450000Y15550000D03*
X22450000Y21550000D03*
X31450000Y12550000D03*
X46450000Y12550000D03*
X31450000Y6550000D03*
X31450000Y15550000D03*
X19450000Y15550000D03*
X34450000Y3550000D03*
X34450000Y9550000D03*
X31450000Y9550000D03*
X16450000Y21550000D03*
X1450000Y9550000D03*
X46450000Y33550000D03*
X19450000Y18550000D03*
X46450000Y21550000D03*
X10450000Y42550000D03*
X34450000Y15550000D03*
X40450000Y42550000D03*
X34450000Y12550000D03*
X10450000Y39550000D03*
X1450000Y12550000D03*
X28450000Y15550000D03*
D35*
X18613200Y42935700D03*
D34*
X7450000Y42550000D03*
X25450000Y18550000D03*
X19450000Y9550000D03*
X28450000Y12550000D03*
%TO.N,/I2C_SCL*%
X42346000Y29371000D03*
X43797100Y22674500D03*
%TO.N,/I2C_SDA*%
X46265900Y19099000D03*
X42433200Y19829700D03*
X39762700Y36386600D03*
%TO.N,+3V3*%
X6950000Y35050000D03*
X10950000Y35050000D03*
X2950000Y27050000D03*
X8950000Y29050000D03*
X2950000Y29050000D03*
X2950000Y33050000D03*
X8950000Y35050000D03*
X2950000Y31050000D03*
X4950000Y35050000D03*
X10950000Y29050000D03*
X8950000Y31050000D03*
X4950000Y29050000D03*
X6950000Y33050000D03*
X8950000Y33050000D03*
X6950000Y29050000D03*
X4950000Y33050000D03*
X6950000Y31050000D03*
X4950000Y31050000D03*
X2950000Y25050000D03*
X2950000Y35050000D03*
D35*
%TO.N,VBUS*%
X21891300Y13600000D03*
X27991800Y9464500D03*
X24047900Y10271400D03*
D34*
%TO.N,/CC1*%
X19596900Y10836700D03*
X23657300Y8946100D03*
%TO.N,/USB_D+*%
X25928000Y11177900D03*
X24638200Y11982800D03*
%TO.N,/EN*%
X15045000Y39945000D03*
X12818500Y29748500D03*
X12818500Y7503200D03*
%TO.N,/UART_TX*%
X36812500Y30219000D03*
X36812500Y36859000D03*
%TO.N,/UART_RX*%
X35519100Y37004900D03*
X35519100Y26963500D03*
%TD*%
%TO.N,GND*%
D36*
X22800000Y36190000D02*
X29120000Y42510000D01*
X23500000Y35490000D02*
X23500000Y34790000D01*
X13760000Y42510000D02*
X16250000Y42510000D01*
X24200000Y36190000D02*
X24200000Y35490000D01*
X3562500Y9289200D02*
X8500000Y4351700D01*
X20695700Y9283200D02*
X19116800Y9283200D01*
X41500000Y4351700D02*
X47450000Y10301700D01*
X15528400Y3801700D02*
X20680000Y3801700D01*
X14500000Y3625000D02*
X8500000Y3625000D01*
X24200000Y33390000D02*
X24200000Y34090000D01*
X24900000Y34090000D02*
X24200000Y34090000D01*
X6550000Y19500000D02*
X5200000Y20850000D01*
X21255800Y3801700D02*
X29320000Y3801700D01*
X22100000Y34090000D02*
X23500000Y34090000D01*
D37*
X46900000Y16300000D02*
X46900000Y15550000D01*
D36*
X23500000Y34090000D02*
X23500000Y34790000D01*
X19369300Y21130700D02*
X13500200Y21130700D01*
X21000000Y18372600D02*
X24435100Y14937500D01*
X41500000Y3625000D02*
X35500000Y3625000D01*
X2713000Y11849500D02*
X3562500Y11000000D01*
X21263300Y8231700D02*
X21750000Y7745000D01*
X29320000Y6830000D02*
X29320000Y8231700D01*
X47450000Y10301700D02*
X47450000Y14000000D01*
X23500000Y34790000D02*
X22800000Y34790000D01*
X36562500Y17000000D02*
X30562500Y11000000D01*
X12950000Y31000000D02*
X14312200Y32362200D01*
X20680000Y3225900D02*
X20680000Y3801700D01*
X47450000Y14000000D02*
X47614800Y14164800D01*
X19116800Y9283200D02*
X17000000Y11400000D01*
X34471600Y3801700D02*
X29320000Y3801700D01*
X24200000Y34090000D02*
X23500000Y34090000D01*
X13500200Y21130700D02*
X13361500Y21130700D01*
X29320000Y2650000D02*
X29320000Y3801700D01*
X24435100Y14937500D02*
X25000000Y14937500D01*
X21000000Y19500000D02*
X21000000Y18372600D01*
X13200000Y41950000D02*
X13760000Y42510000D01*
X47614800Y14164800D02*
X47614800Y21185200D01*
X15351700Y3625000D02*
X15528400Y3801700D01*
X22412500Y11000000D02*
X22412500Y12914900D01*
X17777400Y42935700D02*
X17351700Y42510000D01*
X41500000Y3625000D02*
X41500000Y4351700D01*
X20680000Y3225900D02*
X21255800Y3801700D01*
X29120000Y42510000D02*
X33750000Y42510000D01*
X24200000Y35490000D02*
X23500000Y35490000D01*
X14312200Y37237800D02*
X13200000Y38350000D01*
X18613200Y42935700D02*
X17777400Y42935700D01*
X6550000Y18200000D02*
X2713000Y14363000D01*
X14312200Y32362200D02*
X14312200Y37237800D01*
X13500200Y30449800D02*
X13500200Y21130700D01*
X28736700Y8231700D02*
X28250000Y7745000D01*
X47614800Y21185200D02*
X44300000Y24500000D01*
X24200000Y34790000D02*
X23500000Y34790000D01*
X16250000Y42510000D02*
X17351700Y42510000D01*
X20695700Y8231700D02*
X21263300Y8231700D01*
X8500000Y3625000D02*
X8500000Y4351700D01*
X20680000Y2650000D02*
X20680000Y3225900D01*
X23500000Y35490000D02*
X22100000Y35490000D01*
X29412500Y11000000D02*
X29412500Y8324200D01*
X3562500Y11000000D02*
X3562500Y9289200D01*
X11738300Y19507500D02*
X11738300Y18188300D01*
X22412500Y11000000D02*
X20695700Y9283200D01*
X21000000Y19500000D02*
X19369300Y21130700D01*
X6550000Y18200000D02*
X6550000Y19500000D01*
X20695700Y9283200D02*
X20695700Y8231700D01*
X22800000Y33390000D02*
X24200000Y33390000D01*
X35500000Y3625000D02*
X34648300Y3625000D01*
X2713000Y14363000D02*
X2713000Y11849500D01*
X34648300Y3625000D02*
X34471600Y3801700D01*
X20680000Y8231700D02*
X20695700Y8231700D01*
X14500000Y3625000D02*
X15351700Y3625000D01*
X24900000Y35490000D02*
X24200000Y35490000D01*
X13361500Y21130700D02*
X11738300Y19507500D01*
X29320000Y8231700D02*
X28736700Y8231700D01*
X30562500Y11000000D02*
X29412500Y11000000D01*
X22412500Y12914900D02*
X24435100Y14937500D01*
X11738300Y18188300D02*
X11000000Y17450000D01*
X29412500Y8324200D02*
X29320000Y8231700D01*
X20680000Y6830000D02*
X20680000Y8231700D01*
X12950000Y31000000D02*
X13500200Y30449800D01*
%TO.N,/STATUS_LED*%
D37*
X38437500Y19975000D02*
X38437500Y17000000D01*
X38412500Y20000000D02*
X38437500Y19975000D01*
%TO.N,/I2C_SCL*%
X42387500Y29412500D02*
X42346000Y29371000D01*
X42387500Y29412500D02*
X38963600Y32836400D01*
X34751700Y39970000D02*
X38963500Y35758200D01*
X38963500Y34095200D02*
X38963600Y34095200D01*
X38963600Y32836400D02*
X38963600Y34095200D01*
X44500000Y20050000D02*
X46100000Y18450000D01*
X33750000Y39970000D02*
X34751700Y39970000D01*
X41302300Y34514800D02*
X42200000Y35412500D01*
X46100000Y17700000D02*
X46100000Y18450000D01*
X38963600Y34095200D02*
X39383200Y34514800D01*
X39383200Y34514800D02*
X41302300Y34514800D01*
X38963500Y35758200D02*
X38963500Y34095200D01*
X44300000Y27500000D02*
X42387500Y29412500D01*
X43797100Y22674500D02*
X44500000Y21971600D01*
X44500000Y21000000D02*
X44500000Y20050000D01*
X44500000Y21971600D02*
X44500000Y21000000D01*
%TO.N,/I2C_SDA*%
X43881400Y26500000D02*
X41500000Y24118600D01*
X46900000Y18450000D02*
X46900000Y18464900D01*
X46900000Y18464900D02*
X46265900Y19099000D01*
X40000000Y36149300D02*
X39762700Y36386600D01*
X44300000Y26500000D02*
X43881400Y26500000D01*
X41500000Y20762900D02*
X42433200Y19829700D01*
X33750000Y41240000D02*
X34751700Y41240000D01*
X34751700Y40660800D02*
X34751700Y41240000D01*
X41500000Y21000000D02*
X41500000Y20762900D01*
X41500000Y24118600D02*
X41500000Y21000000D01*
X40000000Y35412500D02*
X40000000Y36149300D01*
X40000000Y35412500D02*
X34751700Y40660800D01*
X46900000Y17700000D02*
X46900000Y18450000D01*
%TO.N,+3V3*%
D36*
X7500000Y29912500D02*
X7500000Y27150000D01*
X44300000Y25500000D02*
X43812600Y25500000D01*
X45550000Y14000000D02*
X43124100Y14000000D01*
X45426700Y26140900D02*
X44785800Y25500000D01*
X10909300Y21770600D02*
X10909300Y19084100D01*
X41087500Y14000000D02*
X37587500Y10500000D01*
X46100000Y14550000D02*
X45550000Y14000000D01*
X42200000Y33587500D02*
X45426700Y30360800D01*
X12656200Y19716000D02*
X13541900Y20601700D01*
X40000000Y33587500D02*
X42200000Y33587500D01*
X7500000Y22253400D02*
X7500000Y20850000D01*
X45426700Y30360800D02*
X45426700Y26140900D01*
X10426500Y22253400D02*
X10909300Y21770600D01*
X44785800Y25500000D02*
X44300000Y25500000D01*
X11087500Y33500000D02*
X7500000Y29912500D01*
X12100000Y36450000D02*
X12100000Y38950000D01*
X9895200Y16654800D02*
X11000000Y15550000D01*
X16398300Y20601700D02*
X17500000Y19500000D01*
X42200000Y33587500D02*
X43315700Y34703200D01*
X13200000Y40050000D02*
X14390000Y41240000D01*
X20339800Y43311700D02*
X18268100Y41240000D01*
X13541900Y20601700D02*
X16398300Y20601700D01*
X13200000Y36450000D02*
X12100000Y36450000D01*
X43315700Y34703200D02*
X43315700Y35901500D01*
X11087500Y33500000D02*
X11087500Y35437500D01*
X18268100Y41240000D02*
X16250000Y41240000D01*
X7500000Y27150000D02*
X7500000Y22253400D01*
X7500000Y22253400D02*
X10426500Y22253400D01*
X35905500Y43311700D02*
X20339800Y43311700D01*
X43812600Y25500000D02*
X43124100Y24811500D01*
X12656200Y17206200D02*
X12656200Y19716000D01*
X43315700Y35901500D02*
X35905500Y43311700D01*
X46100000Y15550000D02*
X46100000Y14550000D01*
X43124100Y14000000D02*
X41087500Y14000000D01*
X9895200Y18070000D02*
X9895200Y16654800D01*
X14390000Y41240000D02*
X16250000Y41240000D01*
X11000000Y15550000D02*
X12656200Y17206200D01*
X12100000Y38950000D02*
X13200000Y40050000D01*
X11087500Y35437500D02*
X12100000Y36450000D01*
X10909300Y19084100D02*
X9895200Y18070000D01*
D37*
X46100000Y16300000D02*
X46100000Y15550000D01*
D36*
X43124100Y24811500D02*
X43124100Y14000000D01*
%TO.N,VBUS*%
X22550000Y7745000D02*
X22550000Y8773500D01*
X27991800Y9464500D02*
X27450000Y8922700D01*
X22550000Y8773500D02*
X24047900Y10271400D01*
X27450000Y8922700D02*
X27450000Y7745000D01*
X17000000Y13600000D02*
X21891300Y13600000D01*
%TO.N,/CC1*%
D37*
X20424200Y10836700D02*
X20587500Y11000000D01*
X19596900Y10836700D02*
X20424200Y10836700D01*
X23750000Y8853400D02*
X23657300Y8946100D01*
X23750000Y7745000D02*
X23750000Y8853400D01*
%TO.N,/USB_D+*%
D36*
X16250000Y24863900D02*
X16250000Y26000000D01*
X24750000Y9910500D02*
X24799600Y9960100D01*
X24799600Y9960100D02*
X24799600Y11821400D01*
X25750100Y7745000D02*
X25750000Y7745000D01*
X26555100Y11805000D02*
X26555100Y16186400D01*
X17560800Y23553100D02*
X16250000Y24863900D01*
X19188400Y23553100D02*
X17560800Y23553100D01*
X25928000Y11177900D02*
X25750100Y11000000D01*
X24050000Y12571000D02*
X24638200Y11982800D01*
X25928000Y11177900D02*
X26555100Y11805000D01*
X24799600Y11821400D02*
X24638200Y11982800D01*
X25750100Y11000000D02*
X25750100Y7745000D01*
X24050000Y13062500D02*
X24050000Y12571000D01*
X26555100Y16186400D02*
X19188400Y23553100D01*
X24750000Y7745000D02*
X24750000Y9910500D01*
%TO.N,/USB_D-*%
X24982400Y6718300D02*
X24517600Y6718300D01*
X25251300Y12363800D02*
X25950000Y13062500D01*
X18692500Y21706900D02*
X20388100Y21706900D01*
X25250000Y7745000D02*
X25250000Y6985900D01*
X25251300Y7746300D02*
X25251300Y12363800D01*
X25250000Y7745000D02*
X25251300Y7746300D01*
X20388100Y21706900D02*
X25950000Y16145000D01*
X25250000Y6985900D02*
X24982400Y6718300D01*
X24250000Y6985900D02*
X24250000Y7745000D01*
X15198300Y25201100D02*
X18692500Y21706900D01*
X16250000Y27270000D02*
X15198300Y27270000D01*
X24517600Y6718300D02*
X24250000Y6985900D01*
X25950000Y16145000D02*
X25950000Y13062500D01*
X15198300Y27270000D02*
X15198300Y25201100D01*
%TO.N,/CC2*%
D37*
X26750000Y10162500D02*
X27587500Y11000000D01*
X26750000Y7745000D02*
X26750000Y10162500D01*
%TO.N,/EN*%
X11050000Y31000000D02*
X11050000Y31637500D01*
X16250000Y39970000D02*
X15248300Y39970000D01*
X8500000Y7375000D02*
X12818500Y7375000D01*
X12818500Y7375000D02*
X14500000Y7375000D01*
X12818500Y7375000D02*
X12818500Y7503200D01*
X11050000Y31637500D02*
X12912500Y33500000D01*
X15045000Y39945000D02*
X15223300Y39945000D01*
X12818500Y29748500D02*
X12301500Y29748500D01*
X15223300Y39945000D02*
X15248300Y39970000D01*
X12301500Y29748500D02*
X11050000Y31000000D01*
%TO.N,/BOOT*%
X39412500Y7375000D02*
X39412500Y9448500D01*
X36739300Y9846000D02*
X36739300Y14032100D01*
X37404900Y23346800D02*
X34751700Y26000000D01*
X37136800Y9448500D02*
X36739300Y9846000D01*
X37404900Y14697700D02*
X37404900Y23346800D01*
X36739300Y14032100D02*
X37404900Y14697700D01*
X33750000Y26000000D02*
X34751700Y26000000D01*
X39412500Y9448500D02*
X39412500Y10500000D01*
X39412500Y7375000D02*
X35500000Y7375000D01*
X41500000Y7375000D02*
X39412500Y7375000D01*
X39412500Y9448500D02*
X37136800Y9448500D01*
%TO.N,+5V*%
D36*
X6289100Y8600000D02*
X17000000Y8600000D01*
X4500000Y10389100D02*
X6289100Y8600000D01*
X3587500Y13500000D02*
X8287500Y18200000D01*
X3587500Y13500000D02*
X4500000Y12587500D01*
X17000000Y8600000D02*
X15745400Y9854600D01*
X4500000Y12587500D02*
X4500000Y10389100D01*
X17000000Y16400000D02*
X14000000Y19400000D01*
X8287500Y18200000D02*
X8450000Y18200000D01*
X8450000Y18200000D02*
X9800000Y19550000D01*
X9800000Y19550000D02*
X9800000Y20850000D01*
X15745400Y9854600D02*
X15745400Y15145400D01*
X15745400Y15145400D02*
X17000000Y16400000D01*
X14000000Y19400000D02*
X14000000Y19500000D01*
%TO.N,/UART_TX*%
D37*
X33750000Y38700000D02*
X34751700Y38700000D01*
X37500000Y29531500D02*
X36812500Y30219000D01*
X34751700Y38700000D02*
X36592700Y36859000D01*
X36592700Y36859000D02*
X36812500Y36859000D01*
X37500000Y29000000D02*
X37500000Y29531500D01*
%TO.N,unconnected-(J2-MountPin-PadMP)*%
X48175000Y28800000D02*
X48175000Y23200000D01*
%TO.N,/PWR_LED*%
X5437500Y13475000D02*
X5437500Y11000000D01*
X5412500Y13500000D02*
X5437500Y13475000D01*
%TO.N,/UART_RX*%
X33750000Y37430000D02*
X34751700Y37430000D01*
X34751700Y37430000D02*
X35176800Y37004900D01*
X35176800Y37004900D02*
X35519100Y37004900D01*
X36036500Y26963500D02*
X35519100Y26963500D01*
X37500000Y25500000D02*
X36036500Y26963500D01*
%TO.N,/STATUS*%
X32839200Y23748300D02*
X36587500Y20000000D01*
X30715000Y24750000D02*
X30715000Y23748300D01*
X30715000Y23748300D02*
X32839200Y23748300D01*
%TD*%
%TA.AperFunction,Conductor*%
%TO.N,+3V3*%
G36*
X12943039Y35980315D02*
G01*
X12988794Y35927511D01*
X13000000Y35876000D01*
X13000000Y34624500D01*
X12980315Y34557461D01*
X12927511Y34511706D01*
X12876000Y34500500D01*
X12606898Y34500500D01*
X12567853Y34495812D01*
X12518438Y34489878D01*
X12377656Y34434361D01*
X12257077Y34342923D01*
X12165639Y34222344D01*
X12110122Y34081562D01*
X12104188Y34032147D01*
X12099500Y33993102D01*
X12099500Y33993097D01*
X12099500Y33304755D01*
X12079815Y33237716D01*
X12063181Y33217074D01*
X10907926Y32061819D01*
X10846603Y32028334D01*
X10820245Y32025500D01*
X10756898Y32025500D01*
X10717853Y32020812D01*
X10668438Y32014878D01*
X10527656Y31959361D01*
X10407077Y31867923D01*
X10315639Y31747344D01*
X10260122Y31606562D01*
X10254188Y31557147D01*
X10249500Y31518102D01*
X10249500Y30481898D01*
X10251548Y30464846D01*
X10260122Y30393439D01*
X10315639Y30252657D01*
X10407077Y30132078D01*
X10527656Y30040640D01*
X10527657Y30040640D01*
X10527658Y30040639D01*
X10668436Y29985123D01*
X10756898Y29974500D01*
X10756903Y29974500D01*
X11343103Y29974500D01*
X11431464Y29985111D01*
X11500373Y29973560D01*
X11533930Y29949677D01*
X12055587Y29428020D01*
X12146912Y29375293D01*
X12248773Y29348000D01*
X12318402Y29348000D01*
X12385441Y29328315D01*
X12406083Y29311681D01*
X12449784Y29267980D01*
X12449786Y29267979D01*
X12449790Y29267976D01*
X12586709Y29188927D01*
X12586716Y29188923D01*
X12739443Y29148000D01*
X12739445Y29148000D01*
X12876000Y29148000D01*
X12943039Y29128315D01*
X12988794Y29075511D01*
X13000000Y29024000D01*
X13000000Y24124000D01*
X12980315Y24056961D01*
X12927511Y24011206D01*
X12876000Y24000000D01*
X1124000Y24000000D01*
X1056961Y24019685D01*
X1011206Y24072489D01*
X1000000Y24124000D01*
X1000000Y35876000D01*
X1019685Y35943039D01*
X1072489Y35988794D01*
X1124000Y36000000D01*
X12876000Y36000000D01*
X12943039Y35980315D01*
G37*
%TD.AperFunction*%
%TD*%
%TA.AperFunction,Conductor*%
%TO.N,GND*%
G36*
X49178686Y48893225D02*
G01*
X49181800Y48891803D01*
X49229544Y48853324D01*
X49253495Y48821329D01*
X49258544Y48814058D01*
X49263317Y48806631D01*
X49267833Y48799019D01*
X49357620Y48634587D01*
X49357856Y48633502D01*
X49361578Y48626681D01*
X49365256Y48618628D01*
X49368640Y48610458D01*
X49434111Y48434920D01*
X49436906Y48426522D01*
X49439398Y48418035D01*
X49441587Y48409458D01*
X49481407Y48226405D01*
X49482978Y48217703D01*
X49484238Y48208944D01*
X49485185Y48200135D01*
X49499026Y48006629D01*
X49499263Y48002209D01*
X49499421Y47997786D01*
X49499500Y47993359D01*
X49499500Y29558173D01*
X49494476Y29523235D01*
X49491289Y29512382D01*
X49453514Y29453605D01*
X49389957Y29424582D01*
X49320817Y29434519D01*
X49319236Y29435241D01*
X49317596Y29435990D01*
X49270290Y29473864D01*
X49224974Y29533623D01*
X49220351Y29541081D01*
X49220092Y29541277D01*
X49215816Y29544670D01*
X49211903Y29547918D01*
X49208751Y29549878D01*
X49097345Y29634360D01*
X49097343Y29634361D01*
X49007836Y29669658D01*
X48956559Y29689879D01*
X48917152Y29694611D01*
X48910926Y29695358D01*
X48910925Y29695359D01*
X48883220Y29698685D01*
X48868102Y29700500D01*
X48868098Y29700500D01*
X47481901Y29700500D01*
X47481898Y29700500D01*
X47471560Y29699259D01*
X47442853Y29695813D01*
X47442853Y29695812D01*
X47436920Y29695100D01*
X47393439Y29689879D01*
X47252653Y29634360D01*
X47132076Y29542924D01*
X47040640Y29422347D01*
X47040637Y29422341D01*
X46985123Y29281568D01*
X46985122Y29281564D01*
X46985122Y29281562D01*
X46983491Y29267976D01*
X46974500Y29193102D01*
X46974500Y28406898D01*
X46978236Y28375792D01*
X46978236Y28375790D01*
X46985121Y28318442D01*
X46985121Y28318440D01*
X46985122Y28318439D01*
X47028915Y28207386D01*
X47040640Y28177655D01*
X47132076Y28057078D01*
X47245904Y27970760D01*
X47249102Y27967971D01*
X47249107Y27967968D01*
X47252390Y27965651D01*
X47255596Y27964481D01*
X47393436Y27910123D01*
X47481898Y27899500D01*
X47632670Y27899500D01*
X47667606Y27894477D01*
X47682604Y27890073D01*
X47741355Y27852328D01*
X47742542Y27850959D01*
X47770018Y27796098D01*
X47771663Y27788540D01*
X47774500Y27762169D01*
X47774500Y24242330D01*
X47769475Y24207386D01*
X47765070Y24192388D01*
X47727327Y24133645D01*
X47725958Y24132458D01*
X47671097Y24104982D01*
X47663539Y24103337D01*
X47637168Y24100500D01*
X47481898Y24100500D01*
X47471560Y24099259D01*
X47442853Y24095813D01*
X47442853Y24095812D01*
X47436920Y24095100D01*
X47393439Y24089879D01*
X47252653Y24034360D01*
X47132076Y23942924D01*
X47040640Y23822347D01*
X46985121Y23681560D01*
X46983407Y23667280D01*
X46981102Y23648079D01*
X46974500Y23593102D01*
X46974500Y23593096D01*
X46974500Y22806896D01*
X46978163Y22776392D01*
X46978163Y22776390D01*
X46978164Y22776390D01*
X46985121Y22718442D01*
X46985121Y22718440D01*
X46985122Y22718439D01*
X47024050Y22619723D01*
X47040640Y22577655D01*
X47132076Y22457078D01*
X47245904Y22370760D01*
X47249102Y22367971D01*
X47249107Y22367968D01*
X47252390Y22365651D01*
X47255596Y22364481D01*
X47393436Y22310123D01*
X47481898Y22299500D01*
X47481903Y22299500D01*
X48868097Y22299500D01*
X48868102Y22299500D01*
X48956564Y22310123D01*
X49097342Y22365639D01*
X49217922Y22457078D01*
X49265927Y22520384D01*
X49291033Y22545179D01*
X49300134Y22551904D01*
X49365748Y22575911D01*
X49433927Y22560633D01*
X49483006Y22510952D01*
X49484684Y22507835D01*
X49499500Y22449057D01*
X49499500Y2006643D01*
X49499421Y2002216D01*
X49499263Y1997793D01*
X49499026Y1993373D01*
X49485185Y1799867D01*
X49484238Y1791058D01*
X49482978Y1782299D01*
X49481407Y1773597D01*
X49441587Y1590544D01*
X49439398Y1581967D01*
X49436906Y1573480D01*
X49434111Y1565082D01*
X49368640Y1389544D01*
X49365250Y1381359D01*
X49361580Y1373324D01*
X49357620Y1365415D01*
X49267835Y1200987D01*
X49263316Y1193370D01*
X49258529Y1185922D01*
X49253483Y1178656D01*
X49141219Y1028688D01*
X49135665Y1021796D01*
X49129869Y1015107D01*
X49123837Y1008628D01*
X48991372Y876163D01*
X48984893Y870131D01*
X48978204Y864335D01*
X48971312Y858781D01*
X48821344Y746517D01*
X48814078Y741471D01*
X48806630Y736684D01*
X48799013Y732165D01*
X48634585Y642380D01*
X48626676Y638420D01*
X48618641Y634750D01*
X48610456Y631360D01*
X48434918Y565889D01*
X48426520Y563094D01*
X48418033Y560602D01*
X48409456Y558413D01*
X48226403Y518593D01*
X48217699Y517022D01*
X48208939Y515762D01*
X48200132Y514815D01*
X48023779Y502201D01*
X48015674Y501622D01*
X48006618Y500974D01*
X48002234Y500739D01*
X47997929Y500585D01*
X47997810Y500580D01*
X47993356Y500500D01*
X2006643Y500500D01*
X2002218Y500579D01*
X1997792Y500738D01*
X1993374Y500974D01*
X1986118Y501493D01*
X1973622Y502387D01*
X1973621Y502388D01*
X1799866Y514815D01*
X1791059Y515762D01*
X1782299Y517022D01*
X1773595Y518593D01*
X1590542Y558413D01*
X1581965Y560602D01*
X1573478Y563094D01*
X1565080Y565889D01*
X1389542Y631360D01*
X1381372Y634744D01*
X1373317Y638423D01*
X1365413Y642380D01*
X1200985Y732165D01*
X1193368Y736684D01*
X1185920Y741471D01*
X1178654Y746517D01*
X1028686Y858781D01*
X1021794Y864335D01*
X1015105Y870131D01*
X1008626Y876163D01*
X876161Y1008628D01*
X870129Y1015107D01*
X864333Y1021796D01*
X858779Y1028688D01*
X746515Y1178656D01*
X741469Y1185922D01*
X736682Y1193370D01*
X732171Y1200972D01*
X642366Y1365436D01*
X638417Y1373328D01*
X634747Y1381365D01*
X631366Y1389526D01*
X565878Y1565104D01*
X563090Y1573483D01*
X560595Y1581983D01*
X558412Y1590540D01*
X547424Y1641053D01*
X518587Y1773615D01*
X517020Y1782299D01*
X515757Y1791083D01*
X514814Y1799853D01*
X511941Y1840027D01*
X500973Y1993376D01*
X500737Y1997794D01*
X500579Y2002220D01*
X500500Y2006644D01*
X500500Y4118013D01*
X2199500Y4118013D01*
X2199500Y3881989D01*
X2199503Y3881960D01*
X2228861Y3658957D01*
X2230306Y3647990D01*
X2280685Y3459974D01*
X2280684Y3459974D01*
X2291391Y3420016D01*
X2291397Y3419998D01*
X2381715Y3201952D01*
X2381719Y3201944D01*
X2420829Y3134205D01*
X2499730Y2997545D01*
X2499939Y2997230D01*
X2500947Y2995960D01*
X2643399Y2810311D01*
X2643403Y2810306D01*
X2643406Y2810303D01*
X2643412Y2810296D01*
X2643420Y2810288D01*
X2810281Y2643426D01*
X2810297Y2643411D01*
X2810305Y2643405D01*
X2997548Y2499728D01*
X2997550Y2499727D01*
X3083680Y2450000D01*
X3083681Y2449999D01*
X3198503Y2383706D01*
X3200241Y2382626D01*
X3201710Y2381811D01*
X3202427Y2381519D01*
X3420007Y2291394D01*
X3647986Y2230307D01*
X3881989Y2199500D01*
X3881996Y2199500D01*
X4118004Y2199500D01*
X4118011Y2199500D01*
X4352014Y2230307D01*
X4579993Y2291394D01*
X4798049Y2381716D01*
X5002450Y2499727D01*
X5189699Y2643408D01*
X5356592Y2810301D01*
X5500273Y2997550D01*
X5518316Y3028802D01*
X19880000Y3028802D01*
X19880000Y3028798D01*
X19880000Y2850000D01*
X20256000Y2850000D01*
X20323039Y2830315D01*
X20368794Y2777511D01*
X20380000Y2726000D01*
X20380000Y2574000D01*
X20360315Y2506961D01*
X20307511Y2461206D01*
X20256000Y2450000D01*
X19880000Y2450000D01*
X19880000Y2271200D01*
X19910735Y2116683D01*
X19910743Y2116648D01*
X19971043Y1971067D01*
X19971048Y1971057D01*
X20058599Y1840029D01*
X20058605Y1840022D01*
X20170020Y1728607D01*
X20170026Y1728602D01*
X20170027Y1728601D01*
X20301043Y1641058D01*
X20301048Y1641055D01*
X20301051Y1641053D01*
X20301061Y1641048D01*
X20446647Y1580744D01*
X20446653Y1580742D01*
X20479999Y1574110D01*
X20480000Y1574110D01*
X20480000Y1574111D01*
X20480000Y1931408D01*
X20499685Y1998447D01*
X20552489Y2044202D01*
X20621647Y2054146D01*
X20636084Y2051185D01*
X20640504Y2050000D01*
X20719493Y2050000D01*
X20719496Y2050000D01*
X20723903Y2051181D01*
X20793750Y2049522D01*
X20851615Y2010362D01*
X20879122Y1946135D01*
X20880000Y1931408D01*
X20880000Y1574111D01*
X20880000Y1574110D01*
X20913346Y1580742D01*
X20913352Y1580744D01*
X21058938Y1641048D01*
X21058948Y1641053D01*
X21189969Y1728599D01*
X21189973Y1728602D01*
X21301398Y1840027D01*
X21301401Y1840031D01*
X21388947Y1971052D01*
X21388952Y1971061D01*
X21388955Y1971067D01*
X21421649Y2050000D01*
X21449256Y2116649D01*
X21449258Y2116657D01*
X21478480Y2263568D01*
X21479203Y2266297D01*
X21480000Y2271205D01*
X21480000Y2450000D01*
X21104000Y2450000D01*
X21036961Y2469685D01*
X20991206Y2522489D01*
X20980000Y2574000D01*
X20980000Y2726000D01*
X20999685Y2793039D01*
X21052489Y2838794D01*
X21104000Y2850000D01*
X21480000Y2850000D01*
X21480000Y3026181D01*
X21480000Y3028794D01*
X21479999Y3028798D01*
X21479998Y3028802D01*
X28520000Y3028802D01*
X28520000Y3028798D01*
X28520000Y2850000D01*
X28896000Y2850000D01*
X28963039Y2830315D01*
X29008794Y2777511D01*
X29020000Y2726000D01*
X29020000Y2574000D01*
X29000315Y2506961D01*
X28947511Y2461206D01*
X28896000Y2450000D01*
X28520000Y2450000D01*
X28520000Y2271200D01*
X28550735Y2116683D01*
X28550743Y2116648D01*
X28611043Y1971067D01*
X28611048Y1971057D01*
X28698599Y1840029D01*
X28698605Y1840022D01*
X28810020Y1728607D01*
X28810026Y1728602D01*
X28810027Y1728601D01*
X28941043Y1641058D01*
X28941048Y1641055D01*
X28941051Y1641053D01*
X28941061Y1641048D01*
X29086647Y1580744D01*
X29086653Y1580742D01*
X29119999Y1574110D01*
X29120000Y1574110D01*
X29120000Y1574111D01*
X29120000Y1931408D01*
X29139685Y1998447D01*
X29192489Y2044202D01*
X29261647Y2054146D01*
X29276084Y2051185D01*
X29280504Y2050000D01*
X29359493Y2050000D01*
X29359496Y2050000D01*
X29363903Y2051181D01*
X29433750Y2049522D01*
X29491615Y2010362D01*
X29519122Y1946135D01*
X29520000Y1931408D01*
X29520000Y1574111D01*
X29520000Y1574110D01*
X29553346Y1580742D01*
X29553352Y1580744D01*
X29698938Y1641048D01*
X29698948Y1641053D01*
X29829969Y1728599D01*
X29829973Y1728602D01*
X29941398Y1840027D01*
X29941401Y1840031D01*
X30028947Y1971052D01*
X30028952Y1971061D01*
X30028955Y1971067D01*
X30061649Y2050000D01*
X30089256Y2116649D01*
X30089258Y2116657D01*
X30118480Y2263568D01*
X30119203Y2266297D01*
X30120000Y2271205D01*
X30120000Y2450000D01*
X29744000Y2450000D01*
X29676961Y2469685D01*
X29631206Y2522489D01*
X29620000Y2574000D01*
X29620000Y2726000D01*
X29639685Y2793039D01*
X29692489Y2838794D01*
X29744000Y2850000D01*
X30120000Y2850000D01*
X30120000Y3028796D01*
X30119909Y3029534D01*
X30119408Y3031769D01*
X30089263Y3183319D01*
X30089262Y3183320D01*
X30089258Y3183344D01*
X30089256Y3183352D01*
X30059248Y3255799D01*
X30028955Y3328935D01*
X30028950Y3328945D01*
X29985174Y3394460D01*
X29941401Y3459970D01*
X29941398Y3459974D01*
X29941393Y3459980D01*
X29829978Y3571395D01*
X29829972Y3571400D01*
X29829971Y3571401D01*
X29698942Y3658952D01*
X29698943Y3658952D01*
X29698933Y3658957D01*
X29553351Y3719257D01*
X29553331Y3719262D01*
X29520000Y3725893D01*
X29520000Y3368593D01*
X29500315Y3301554D01*
X29447511Y3255799D01*
X29378353Y3245855D01*
X29363918Y3248816D01*
X29359496Y3250000D01*
X29359494Y3250000D01*
X29280506Y3250000D01*
X29280504Y3250000D01*
X29276089Y3248818D01*
X29206241Y3250482D01*
X29148379Y3289646D01*
X29120877Y3353875D01*
X29120000Y3368593D01*
X29120000Y3725891D01*
X29119999Y3725893D01*
X29086674Y3719263D01*
X29086647Y3719257D01*
X28941065Y3658957D01*
X28941055Y3658952D01*
X28810027Y3571401D01*
X28810026Y3571400D01*
X28810020Y3571395D01*
X28698605Y3459980D01*
X28698600Y3459974D01*
X28611048Y3328945D01*
X28611043Y3328935D01*
X28550743Y3183354D01*
X28550735Y3183319D01*
X28520000Y3028802D01*
X21479998Y3028802D01*
X21449258Y3183344D01*
X21449256Y3183352D01*
X21419248Y3255799D01*
X21388955Y3328935D01*
X21388950Y3328945D01*
X21345174Y3394460D01*
X21301401Y3459970D01*
X21301398Y3459974D01*
X21301393Y3459980D01*
X21189978Y3571395D01*
X21189972Y3571400D01*
X21189971Y3571401D01*
X21058942Y3658952D01*
X21058943Y3658952D01*
X21058933Y3658957D01*
X20913351Y3719257D01*
X20913331Y3719262D01*
X20880000Y3725893D01*
X20880000Y3368593D01*
X20860315Y3301554D01*
X20807511Y3255799D01*
X20738353Y3245855D01*
X20723918Y3248816D01*
X20719496Y3250000D01*
X20719494Y3250000D01*
X20640506Y3250000D01*
X20640504Y3250000D01*
X20636089Y3248818D01*
X20566241Y3250482D01*
X20508379Y3289646D01*
X20480877Y3353875D01*
X20480000Y3368593D01*
X20480000Y3725891D01*
X20479999Y3725893D01*
X20446674Y3719263D01*
X20446647Y3719257D01*
X20301065Y3658957D01*
X20301055Y3658952D01*
X20170027Y3571401D01*
X20170026Y3571400D01*
X20170020Y3571395D01*
X20058605Y3459980D01*
X20058600Y3459974D01*
X19971048Y3328945D01*
X19971043Y3328935D01*
X19910743Y3183354D01*
X19910735Y3183319D01*
X19880000Y3028802D01*
X5518316Y3028802D01*
X5579171Y3134205D01*
X5618280Y3201944D01*
X5618280Y3201945D01*
X5618284Y3201951D01*
X5708606Y3420007D01*
X5769693Y3647986D01*
X5800500Y3881989D01*
X5800500Y4118011D01*
X5800500Y4118013D01*
X44199500Y4118013D01*
X44199500Y3881989D01*
X44199503Y3881960D01*
X44228861Y3658957D01*
X44230306Y3647990D01*
X44280685Y3459974D01*
X44280684Y3459974D01*
X44291391Y3420016D01*
X44291397Y3419998D01*
X44381715Y3201952D01*
X44381719Y3201944D01*
X44420829Y3134205D01*
X44499730Y2997545D01*
X44499939Y2997230D01*
X44500947Y2995960D01*
X44643399Y2810311D01*
X44643403Y2810306D01*
X44643406Y2810303D01*
X44643412Y2810296D01*
X44643420Y2810288D01*
X44810281Y2643426D01*
X44810297Y2643411D01*
X44810305Y2643405D01*
X44997548Y2499728D01*
X44997550Y2499727D01*
X45083680Y2450000D01*
X45083681Y2449999D01*
X45198503Y2383706D01*
X45200241Y2382626D01*
X45201710Y2381811D01*
X45202427Y2381519D01*
X45420007Y2291394D01*
X45647986Y2230307D01*
X45881989Y2199500D01*
X45881996Y2199500D01*
X46118004Y2199500D01*
X46118011Y2199500D01*
X46352014Y2230307D01*
X46579993Y2291394D01*
X46798049Y2381716D01*
X47002450Y2499727D01*
X47189699Y2643408D01*
X47356592Y2810301D01*
X47500273Y2997550D01*
X47618284Y3201951D01*
X47708606Y3420007D01*
X47769693Y3647986D01*
X47800500Y3881989D01*
X47800500Y4118011D01*
X47769693Y4352014D01*
X47708606Y4579993D01*
X47618489Y4797553D01*
X47618189Y4798292D01*
X47617382Y4799745D01*
X47616297Y4801491D01*
X47576118Y4871082D01*
X47500273Y5002450D01*
X47500272Y5002452D01*
X47356595Y5189695D01*
X47356589Y5189703D01*
X47356574Y5189719D01*
X47189712Y5356580D01*
X47189704Y5356588D01*
X47189697Y5356594D01*
X47189694Y5356597D01*
X47189689Y5356601D01*
X47004040Y5499053D01*
X47002776Y5500056D01*
X47002447Y5500275D01*
X47002445Y5500277D01*
X46920957Y5547323D01*
X46920955Y5547325D01*
X46798065Y5618276D01*
X46798048Y5618285D01*
X46579997Y5708605D01*
X46352006Y5769695D01*
X46119889Y5800253D01*
X46118208Y5800500D01*
X46118017Y5800500D01*
X46118011Y5800500D01*
X45881989Y5800500D01*
X45881983Y5800500D01*
X45881981Y5800500D01*
X45875861Y5799747D01*
X45874955Y5799575D01*
X45647992Y5769695D01*
X45420001Y5708605D01*
X45201950Y5618285D01*
X45201942Y5618281D01*
X44997545Y5500270D01*
X44997536Y5500264D01*
X44810309Y5356601D01*
X44810294Y5356587D01*
X44810286Y5356580D01*
X44643420Y5189714D01*
X44643413Y5189706D01*
X44643399Y5189691D01*
X44499736Y5002464D01*
X44499730Y5002455D01*
X44381719Y4798058D01*
X44381715Y4798050D01*
X44291395Y4579999D01*
X44230305Y4352008D01*
X44199503Y4118037D01*
X44199500Y4118013D01*
X5800500Y4118013D01*
X5769693Y4352014D01*
X5708606Y4579993D01*
X5618489Y4797553D01*
X5618189Y4798292D01*
X5617382Y4799745D01*
X5616297Y4801491D01*
X5576118Y4871082D01*
X5500273Y5002450D01*
X5500272Y5002452D01*
X5356595Y5189695D01*
X5356589Y5189703D01*
X5356574Y5189719D01*
X5189712Y5356580D01*
X5189704Y5356588D01*
X5189697Y5356594D01*
X5189694Y5356597D01*
X5189689Y5356601D01*
X5004040Y5499053D01*
X5002776Y5500056D01*
X5002447Y5500275D01*
X5002445Y5500277D01*
X4920957Y5547323D01*
X4920955Y5547325D01*
X4798065Y5618276D01*
X4798048Y5618285D01*
X4579997Y5708605D01*
X4352006Y5769695D01*
X4119889Y5800253D01*
X4118208Y5800500D01*
X4118017Y5800500D01*
X4118011Y5800500D01*
X3881989Y5800500D01*
X3881983Y5800500D01*
X3881981Y5800500D01*
X3875861Y5799747D01*
X3874955Y5799575D01*
X3647992Y5769695D01*
X3420001Y5708605D01*
X3201950Y5618285D01*
X3201942Y5618281D01*
X2997545Y5500270D01*
X2997536Y5500264D01*
X2810309Y5356601D01*
X2810294Y5356587D01*
X2810286Y5356580D01*
X2643420Y5189714D01*
X2643413Y5189706D01*
X2643399Y5189691D01*
X2499736Y5002464D01*
X2499730Y5002455D01*
X2381719Y4798058D01*
X2381715Y4798050D01*
X2291395Y4579999D01*
X2230305Y4352008D01*
X2199503Y4118037D01*
X2199500Y4118013D01*
X500500Y4118013D01*
X500500Y23893248D01*
X520185Y23960287D01*
X572989Y24006042D01*
X642147Y24015986D01*
X705703Y23986961D01*
X731538Y23955848D01*
X779484Y23873866D01*
X780325Y23872429D01*
X811900Y23835989D01*
X826081Y23819624D01*
X826091Y23819613D01*
X870807Y23777452D01*
X870809Y23777451D01*
X870813Y23777447D01*
X970889Y23726561D01*
X1037928Y23706876D01*
X1124000Y23694500D01*
X6925500Y23694500D01*
X6992539Y23674815D01*
X7038294Y23622011D01*
X7049500Y23570500D01*
X7049500Y22268081D01*
X7044475Y22233137D01*
X7040070Y22218139D01*
X7002299Y22159371D01*
X6994724Y22152807D01*
X6950411Y22128134D01*
X6847146Y22095955D01*
X6845865Y22095573D01*
X6845728Y22095513D01*
X6705351Y22010653D01*
X6705347Y22010650D01*
X6705344Y22010647D01*
X6589355Y21894659D01*
X6589350Y21894653D01*
X6589347Y21894649D01*
X6504488Y21754275D01*
X6504487Y21754273D01*
X6455687Y21597665D01*
X6455683Y21597649D01*
X6451626Y21552989D01*
X6449500Y21529594D01*
X6449500Y20170406D01*
X6449568Y20169658D01*
X6455683Y20102353D01*
X6455728Y20102129D01*
X6456216Y20100638D01*
X6466057Y20069058D01*
X6504487Y19945729D01*
X6504488Y19945727D01*
X6589342Y19805361D01*
X6589350Y19805349D01*
X6589355Y19805343D01*
X6705341Y19689357D01*
X6705347Y19689352D01*
X6705346Y19689352D01*
X6705351Y19689349D01*
X6845723Y19604491D01*
X6845724Y19604491D01*
X6845727Y19604489D01*
X6845736Y19604486D01*
X6849013Y19603465D01*
X6849023Y19603462D01*
X6849022Y19603462D01*
X6866817Y19597917D01*
X7002343Y19555685D01*
X7070406Y19549500D01*
X7070409Y19549500D01*
X7929591Y19549500D01*
X7929594Y19549500D01*
X7997657Y19555685D01*
X8154270Y19604488D01*
X8223314Y19646226D01*
X8294648Y19689349D01*
X8294647Y19689349D01*
X8294653Y19689352D01*
X8410648Y19805347D01*
X8495512Y19945730D01*
X8506858Y19982141D01*
X8526312Y20044572D01*
X8541495Y20076419D01*
X8547770Y20085839D01*
X8601318Y20130716D01*
X8670631Y20139520D01*
X8733698Y20109454D01*
X8733723Y20109432D01*
X8733726Y20109429D01*
X8735673Y20107684D01*
X8771298Y20052234D01*
X8804480Y19945749D01*
X8804483Y19945739D01*
X8804490Y19945724D01*
X8889341Y19805362D01*
X8889349Y19805350D01*
X9005349Y19689350D01*
X9039680Y19668597D01*
X9066979Y19646226D01*
X9076352Y19635991D01*
X9107111Y19573256D01*
X9099072Y19503854D01*
X9095487Y19495396D01*
X9069000Y19456106D01*
X8883407Y19270513D01*
X8855154Y19249362D01*
X8834526Y19238098D01*
X8780934Y19223067D01*
X8778663Y19222960D01*
X8758070Y19223704D01*
X8755413Y19224023D01*
X8754909Y19224083D01*
X8743102Y19225500D01*
X8743099Y19225500D01*
X8156901Y19225500D01*
X8156898Y19225500D01*
X8147903Y19224420D01*
X8117853Y19220813D01*
X8117853Y19220812D01*
X8111920Y19220100D01*
X8068439Y19214879D01*
X7927653Y19159360D01*
X7807076Y19067924D01*
X7715640Y18947347D01*
X7660121Y18806561D01*
X7654188Y18757146D01*
X7649500Y18718099D01*
X7649500Y18268296D01*
X7644476Y18233359D01*
X7637064Y18208118D01*
X7605769Y18155374D01*
X3999668Y14549274D01*
X3971415Y14528124D01*
X3949073Y14515924D01*
X3899242Y14501127D01*
X3895957Y14500872D01*
X3886360Y14500500D01*
X3281898Y14500500D01*
X3270983Y14499190D01*
X3245523Y14496133D01*
X3245524Y14496132D01*
X3193441Y14489879D01*
X3193438Y14489879D01*
X3193438Y14489878D01*
X3147859Y14471904D01*
X3052653Y14434360D01*
X2932076Y14342924D01*
X2840640Y14222347D01*
X2785121Y14081561D01*
X2779188Y14032146D01*
X2774500Y13993099D01*
X2774500Y13006897D01*
X2778390Y12974504D01*
X2778390Y12974500D01*
X2778391Y12974500D01*
X2784238Y12925802D01*
X2784603Y12919689D01*
X2784716Y12919417D01*
X2785508Y12917457D01*
X2802721Y12873809D01*
X2802721Y12873808D01*
X2840637Y12777661D01*
X2840640Y12777655D01*
X2932076Y12657078D01*
X3045904Y12570760D01*
X3049102Y12567971D01*
X3049107Y12567968D01*
X3052390Y12565651D01*
X3055596Y12564481D01*
X3193436Y12510123D01*
X3281898Y12499500D01*
X3281903Y12499500D01*
X3877619Y12499500D01*
X3905374Y12496354D01*
X3933832Y12489817D01*
X3993751Y12456646D01*
X4000573Y12449824D01*
X4021723Y12421572D01*
X4034331Y12398483D01*
X4049500Y12339054D01*
X4049500Y10329792D01*
X4065256Y10270989D01*
X4080201Y10215212D01*
X4091864Y10195013D01*
X4091865Y10195009D01*
X4091866Y10195009D01*
X4139511Y10112486D01*
X4139513Y10112484D01*
X6012486Y8239511D01*
X6013176Y8239013D01*
X6015693Y8237660D01*
X6064751Y8209337D01*
X6064777Y8209319D01*
X6106037Y8185499D01*
X6106036Y8185499D01*
X6106045Y8185495D01*
X6115214Y8180201D01*
X6229791Y8149500D01*
X7657337Y8149500D01*
X7692264Y8144479D01*
X7703117Y8141293D01*
X7761898Y8103523D01*
X7790927Y8039969D01*
X7780988Y7970810D01*
X7780984Y7970801D01*
X7777799Y7963827D01*
X7752686Y7927659D01*
X7747795Y7922769D01*
X7747792Y7922765D01*
X7702414Y7819996D01*
X7701844Y7817290D01*
X7701589Y7812876D01*
X7699500Y7794873D01*
X7699500Y6955151D01*
X7699502Y6955115D01*
X7700835Y6943624D01*
X7701900Y6934433D01*
X7702414Y6930007D01*
X7702546Y6929562D01*
X7703609Y6927304D01*
X7723408Y6882463D01*
X7747793Y6827236D01*
X7747794Y6827235D01*
X7827235Y6747794D01*
X7930009Y6702415D01*
X7955135Y6699500D01*
X9044864Y6699501D01*
X9044879Y6699501D01*
X9044978Y6699508D01*
X9045733Y6699602D01*
X9062893Y6701592D01*
X9068611Y6701922D01*
X9069225Y6702022D01*
X9071863Y6703242D01*
X9172765Y6747794D01*
X9252206Y6827235D01*
X9277394Y6884282D01*
X9296093Y6914201D01*
X9306185Y6926149D01*
X9364477Y6964659D01*
X9378698Y6969030D01*
X9415125Y6974500D01*
X12483685Y6974500D01*
X12515778Y6970275D01*
X12546240Y6962113D01*
X12576145Y6949726D01*
X12586716Y6943623D01*
X12739443Y6902700D01*
X12739445Y6902700D01*
X12897555Y6902700D01*
X12897557Y6902700D01*
X13050284Y6943623D01*
X13060852Y6949726D01*
X13090754Y6962112D01*
X13121227Y6970277D01*
X13153313Y6974500D01*
X13584142Y6974500D01*
X13619078Y6969477D01*
X13634076Y6965073D01*
X13692851Y6927300D01*
X13702590Y6916061D01*
X13722313Y6884944D01*
X13733137Y6860431D01*
X13747794Y6827235D01*
X13827235Y6747794D01*
X13930009Y6702415D01*
X13955135Y6699500D01*
X15044864Y6699501D01*
X15044879Y6699501D01*
X15044978Y6699508D01*
X15045733Y6699602D01*
X15062893Y6701592D01*
X15068611Y6701922D01*
X15069225Y6702022D01*
X15071863Y6703242D01*
X15172765Y6747794D01*
X15252206Y6827235D01*
X15297585Y6930009D01*
X15300500Y6955135D01*
X15300499Y7794864D01*
X15300498Y7794869D01*
X15299607Y7802557D01*
X15299607Y7802558D01*
X15298409Y7812884D01*
X15298078Y7818612D01*
X15297955Y7819369D01*
X15296406Y7822661D01*
X15252206Y7922765D01*
X15249759Y7925212D01*
X15228610Y7953462D01*
X15223188Y7963392D01*
X15208335Y8031662D01*
X15232749Y8097127D01*
X15288679Y8138999D01*
X15292558Y8140446D01*
X15295894Y8141689D01*
X15339208Y8149500D01*
X16065366Y8149500D01*
X16100302Y8144477D01*
X16115300Y8140073D01*
X16174075Y8102301D01*
X16182458Y8092627D01*
X16204101Y8056914D01*
X16215638Y8027658D01*
X16307076Y7907078D01*
X16420904Y7820760D01*
X16424102Y7817971D01*
X16424107Y7817968D01*
X16427390Y7815651D01*
X16430596Y7814481D01*
X16568436Y7760123D01*
X16656898Y7749500D01*
X16656903Y7749500D01*
X17343097Y7749500D01*
X17343102Y7749500D01*
X17431564Y7760123D01*
X17572342Y7815639D01*
X17692922Y7907078D01*
X17784361Y8027658D01*
X17839877Y8168436D01*
X17850500Y8256898D01*
X17850500Y8943102D01*
X17839877Y9031564D01*
X17785519Y9169404D01*
X17784349Y9172610D01*
X17782032Y9175893D01*
X17782029Y9175898D01*
X17779240Y9179096D01*
X17692922Y9292924D01*
X17572345Y9384360D01*
X17572343Y9384361D01*
X17461002Y9428268D01*
X17431559Y9439879D01*
X17392152Y9444611D01*
X17385926Y9445358D01*
X17385925Y9445359D01*
X17358220Y9448685D01*
X17343102Y9450500D01*
X17343098Y9450500D01*
X16855795Y9450500D01*
X16820859Y9455523D01*
X16795617Y9462935D01*
X16742872Y9494231D01*
X16244826Y9992277D01*
X16223674Y10020533D01*
X16211067Y10043622D01*
X16195900Y10103047D01*
X16195900Y10915757D01*
X18996400Y10915757D01*
X18996400Y10757643D01*
X19027417Y10641888D01*
X19027416Y10641888D01*
X19037322Y10604918D01*
X19037323Y10604917D01*
X19037326Y10604910D01*
X19056394Y10571882D01*
X19114529Y10471187D01*
X19115912Y10468616D01*
X19116298Y10468066D01*
X19228236Y10356128D01*
X19228752Y10355748D01*
X19231375Y10354337D01*
X19355205Y10282845D01*
X19365116Y10277123D01*
X19517843Y10236200D01*
X19517845Y10236200D01*
X19675954Y10236200D01*
X19675957Y10236200D01*
X19741217Y10253687D01*
X19776256Y10257876D01*
X19791882Y10257504D01*
X19858431Y10236230D01*
X19869477Y10228754D01*
X19898778Y10200989D01*
X19932077Y10157078D01*
X19990518Y10112761D01*
X20045905Y10070760D01*
X20049101Y10067972D01*
X20049117Y10067962D01*
X20052393Y10065650D01*
X20055598Y10064479D01*
X20157838Y10024161D01*
X20193436Y10010123D01*
X20281898Y9999500D01*
X20281903Y9999500D01*
X20893097Y9999500D01*
X20893102Y9999500D01*
X20981564Y10010123D01*
X21122342Y10065639D01*
X21242922Y10157078D01*
X21334361Y10277658D01*
X21389877Y10418436D01*
X21400500Y10506898D01*
X21400500Y11493102D01*
X21389877Y11581564D01*
X21335519Y11719404D01*
X21334349Y11722610D01*
X21332032Y11725893D01*
X21332029Y11725898D01*
X21329240Y11729096D01*
X21242922Y11842924D01*
X21122345Y11934360D01*
X21122339Y11934363D01*
X21000530Y11982399D01*
X21000527Y11982399D01*
X20982574Y11989479D01*
X20980613Y11990272D01*
X20980312Y11990397D01*
X20974199Y11990762D01*
X20968703Y11991422D01*
X20935926Y11995358D01*
X20935925Y11995359D01*
X20908220Y11998685D01*
X20893102Y12000500D01*
X20893098Y12000500D01*
X20281901Y12000500D01*
X20281898Y12000500D01*
X20271560Y11999259D01*
X20242853Y11995813D01*
X20242853Y11995812D01*
X20236920Y11995100D01*
X20193439Y11989879D01*
X20052653Y11934360D01*
X19932076Y11842924D01*
X19840640Y11722347D01*
X19785121Y11581561D01*
X19784095Y11573002D01*
X19784092Y11572978D01*
X19783026Y11564108D01*
X19773878Y11530039D01*
X19767717Y11515670D01*
X19723212Y11461816D01*
X19718468Y11458608D01*
X19668122Y11438810D01*
X19667304Y11438682D01*
X19648193Y11437200D01*
X19517843Y11437200D01*
X19365118Y11396278D01*
X19365111Y11396276D01*
X19365110Y11396275D01*
X19365100Y11396270D01*
X19228198Y11317230D01*
X19228194Y11317228D01*
X19228190Y11317225D01*
X19228182Y11317219D01*
X19228178Y11317216D01*
X19228176Y11317215D01*
X19116385Y11205424D01*
X19116384Y11205422D01*
X19116381Y11205419D01*
X19116381Y11205418D01*
X19116375Y11205410D01*
X19116372Y11205406D01*
X19116370Y11205402D01*
X19037330Y11068500D01*
X19037325Y11068490D01*
X19037324Y11068489D01*
X19037322Y11068482D01*
X19021590Y11009767D01*
X18996400Y10915757D01*
X16195900Y10915757D01*
X16195900Y12533222D01*
X16200922Y12568155D01*
X16203390Y12576559D01*
X16204964Y12581920D01*
X16242737Y12640697D01*
X16304916Y12669517D01*
X16327567Y12673034D01*
X16346585Y12674500D01*
X17668097Y12674500D01*
X17668102Y12674500D01*
X17756564Y12685123D01*
X17897342Y12740639D01*
X18017922Y12832078D01*
X18109361Y12952658D01*
X18130753Y13006904D01*
X18149487Y13054411D01*
X18166970Y13085057D01*
X18176573Y13097400D01*
X18233273Y13138220D01*
X18239469Y13140400D01*
X18245354Y13142470D01*
X18286511Y13149500D01*
X21281952Y13149500D01*
X21316884Y13144479D01*
X21342128Y13137066D01*
X21394874Y13105770D01*
X21417217Y13083427D01*
X21437859Y13062785D01*
X21444760Y13055884D01*
X21502914Y13017027D01*
X21559482Y12979229D01*
X21559495Y12979222D01*
X21681372Y12928740D01*
X21685794Y12926648D01*
X21686525Y12926507D01*
X21687179Y12926379D01*
X21727084Y12918441D01*
X21822302Y12899500D01*
X21960295Y12899500D01*
X21960296Y12899500D01*
X22055505Y12918439D01*
X22095628Y12926420D01*
X22211704Y12974500D01*
X22223104Y12979222D01*
X22223104Y12979223D01*
X22223111Y12979225D01*
X22337842Y13055886D01*
X22435414Y13153458D01*
X22512075Y13268189D01*
X22564880Y13395672D01*
X22571520Y13429056D01*
X22573754Y13440282D01*
X22573754Y13440283D01*
X22591800Y13531003D01*
X22591800Y13668999D01*
X22564641Y13805528D01*
X22562562Y13809922D01*
X22540627Y13862881D01*
X22512078Y13931805D01*
X22512071Y13931818D01*
X22435414Y14046542D01*
X22435411Y14046546D01*
X22435406Y14046552D01*
X22337850Y14144108D01*
X22337844Y14144113D01*
X22337843Y14144114D01*
X22223123Y14220768D01*
X22223122Y14220769D01*
X22223117Y14220772D01*
X22223104Y14220779D01*
X22223097Y14220783D01*
X22095654Y14273571D01*
X22095640Y14273576D01*
X22095632Y14273579D01*
X22095622Y14273582D01*
X22095619Y14273583D01*
X22095615Y14273584D01*
X21960298Y14300500D01*
X21960295Y14300500D01*
X21960293Y14300500D01*
X21822307Y14300500D01*
X21822305Y14300500D01*
X21822300Y14300500D01*
X21686983Y14273584D01*
X21686977Y14273582D01*
X21686967Y14273579D01*
X21686962Y14273578D01*
X21686944Y14273571D01*
X21559501Y14220783D01*
X21559492Y14220778D01*
X21559475Y14220768D01*
X21444760Y14144117D01*
X21444759Y14144116D01*
X21429654Y14129010D01*
X21429652Y14129008D01*
X21400066Y14099424D01*
X21371820Y14078279D01*
X21348733Y14065671D01*
X21289301Y14050500D01*
X18289210Y14050500D01*
X18254269Y14055525D01*
X18239270Y14059930D01*
X18180504Y14097695D01*
X18172818Y14106564D01*
X18172119Y14107371D01*
X18150474Y14143088D01*
X18150069Y14144114D01*
X18125219Y14207131D01*
X18109363Y14247338D01*
X18109360Y14247343D01*
X18017922Y14367924D01*
X17897345Y14459360D01*
X17897339Y14459363D01*
X17786223Y14503182D01*
X17786221Y14503182D01*
X17757542Y14514492D01*
X17755583Y14515284D01*
X17755311Y14515397D01*
X17749199Y14515762D01*
X17747850Y14515924D01*
X17710926Y14520358D01*
X17710925Y14520359D01*
X17683220Y14523685D01*
X17668102Y14525500D01*
X17668098Y14525500D01*
X16346966Y14525500D01*
X16345080Y14526054D01*
X16343179Y14525558D01*
X16326435Y14527212D01*
X16302902Y14531163D01*
X16240047Y14561675D01*
X16204052Y14619925D01*
X16200516Y14632514D01*
X16195900Y14666033D01*
X16195900Y14889606D01*
X16200922Y14924539D01*
X16208334Y14949784D01*
X16239628Y15002526D01*
X16662679Y15425577D01*
X16690929Y15446725D01*
X16714021Y15459333D01*
X16773446Y15474500D01*
X17668097Y15474500D01*
X17668102Y15474500D01*
X17756564Y15485123D01*
X17897342Y15540639D01*
X18017922Y15632078D01*
X18109361Y15752658D01*
X18164877Y15893436D01*
X18175500Y15981898D01*
X18175500Y16818102D01*
X18164877Y16906564D01*
X18110519Y17044404D01*
X18109349Y17047610D01*
X18107032Y17050893D01*
X18107029Y17050898D01*
X18104240Y17054096D01*
X18017922Y17167924D01*
X17897345Y17259360D01*
X17897343Y17259361D01*
X17826952Y17287120D01*
X17756559Y17314879D01*
X17717152Y17319611D01*
X17710926Y17320358D01*
X17710925Y17320359D01*
X17683220Y17323685D01*
X17668102Y17325500D01*
X17668098Y17325500D01*
X16780796Y17325500D01*
X16745860Y17330523D01*
X16720618Y17337935D01*
X16667873Y17369231D01*
X15853677Y18183427D01*
X15032523Y19004580D01*
X15011370Y19032838D01*
X15003880Y19046556D01*
X14989030Y19114822D01*
X14990001Y19128403D01*
X14999125Y19167015D01*
X15010130Y19193580D01*
X15050500Y19396535D01*
X15050500Y19603465D01*
X15010130Y19806420D01*
X14945156Y19963277D01*
X14936429Y19997470D01*
X14934945Y20011269D01*
X14947348Y20080029D01*
X14994953Y20131165D01*
X14999493Y20133859D01*
X15062740Y20151200D01*
X16142505Y20151200D01*
X16177437Y20146179D01*
X16202681Y20138766D01*
X16255427Y20107470D01*
X16441446Y19921451D01*
X16462595Y19893202D01*
X16472652Y19874782D01*
X16487816Y19816462D01*
X16487876Y19809742D01*
X16485498Y19784443D01*
X16449500Y19603473D01*
X16449500Y19603470D01*
X16449500Y19396531D01*
X16449500Y19396529D01*
X16449499Y19396529D01*
X16489864Y19193606D01*
X16489868Y19193588D01*
X16489870Y19193580D01*
X16558039Y19029005D01*
X16567910Y19005175D01*
X16569058Y19002403D01*
X16569063Y19002395D01*
X16570996Y18999501D01*
X16570997Y18999501D01*
X16684025Y18830341D01*
X16830336Y18684030D01*
X16830340Y18684027D01*
X16830342Y18684025D01*
X16830345Y18684023D01*
X16830349Y18684020D01*
X16830348Y18684020D01*
X16830411Y18683968D01*
X16830448Y18683954D01*
X17002402Y18569059D01*
X17193580Y18489870D01*
X17384540Y18451886D01*
X17393559Y18450092D01*
X17395794Y18449591D01*
X17396532Y18449500D01*
X17603466Y18449500D01*
X17607586Y18449500D01*
X17615435Y18451882D01*
X17806420Y18489870D01*
X17997598Y18569059D01*
X18169655Y18684023D01*
X18315977Y18830345D01*
X18430941Y19002402D01*
X18510130Y19193580D01*
X18550500Y19396535D01*
X18550500Y19603465D01*
X18510130Y19806420D01*
X18430941Y19997598D01*
X18316046Y20169551D01*
X18316036Y20169583D01*
X18315980Y20169652D01*
X18315980Y20169651D01*
X18315977Y20169655D01*
X18315975Y20169658D01*
X18315973Y20169660D01*
X18315970Y20169664D01*
X18169659Y20315975D01*
X18060001Y20389245D01*
X18059953Y20389277D01*
X17997598Y20430941D01*
X17997599Y20430941D01*
X17997597Y20430942D01*
X17845095Y20494110D01*
X17820708Y20504212D01*
X17806423Y20510129D01*
X17806421Y20510130D01*
X17806420Y20510130D01*
X17806412Y20510132D01*
X17806404Y20510134D01*
X17806394Y20510136D01*
X17603471Y20550500D01*
X17603469Y20550500D01*
X17603465Y20550500D01*
X17396535Y20550500D01*
X17396530Y20550500D01*
X17396527Y20550500D01*
X17220516Y20515489D01*
X17185274Y20513599D01*
X17164375Y20515469D01*
X17107454Y20535266D01*
X17101833Y20538950D01*
X17082124Y20554979D01*
X16674916Y20962187D01*
X16674914Y20962189D01*
X16674911Y20962191D01*
X16674907Y20962194D01*
X16619975Y20993909D01*
X16619972Y20993910D01*
X16617462Y20995359D01*
X16608558Y21000500D01*
X16572189Y21021499D01*
X16560077Y21024744D01*
X16560077Y21024745D01*
X16547975Y21027987D01*
X16547975Y21027988D01*
X16547970Y21027988D01*
X16515887Y21036585D01*
X16509775Y21038223D01*
X16509775Y21038224D01*
X16457614Y21052200D01*
X16457609Y21052200D01*
X13482591Y21052200D01*
X13444280Y21041935D01*
X13424316Y21036586D01*
X13424303Y21036585D01*
X13368044Y21021509D01*
X13368024Y21021504D01*
X13368016Y21021501D01*
X13368013Y21021500D01*
X13368010Y21021499D01*
X13368008Y21021498D01*
X13265296Y20962196D01*
X13265282Y20962187D01*
X13265277Y20962183D01*
X12295717Y19992623D01*
X12295709Y19992613D01*
X12295705Y19992607D01*
X12236400Y19889888D01*
X12236052Y19888963D01*
X12235367Y19886033D01*
X12205700Y19775311D01*
X12205700Y17461995D01*
X12200676Y17427058D01*
X12193264Y17401817D01*
X12161969Y17349073D01*
X11212323Y16399427D01*
X11184072Y16378278D01*
X11160984Y16365670D01*
X11101554Y16350500D01*
X10905795Y16350500D01*
X10870859Y16355523D01*
X10845617Y16362935D01*
X10792872Y16394231D01*
X10394626Y16792477D01*
X10373474Y16820733D01*
X10360867Y16843822D01*
X10345700Y16903247D01*
X10345700Y17814206D01*
X10350722Y17849139D01*
X10358134Y17874384D01*
X10389428Y17927126D01*
X10825700Y18363397D01*
X11269789Y18807486D01*
X11329099Y18910213D01*
X11353023Y18999500D01*
X11359800Y19024791D01*
X11359800Y21829909D01*
X11329099Y21944486D01*
X11290900Y22010648D01*
X11269789Y22047214D01*
X10703114Y22613889D01*
X10651750Y22643544D01*
X10640892Y22649813D01*
X10600389Y22673199D01*
X10588277Y22676444D01*
X10588277Y22676445D01*
X10588273Y22676445D01*
X10584935Y22677340D01*
X10577973Y22679205D01*
X10577973Y22679206D01*
X10577966Y22679207D01*
X10531135Y22691755D01*
X10492015Y22702237D01*
X10485809Y22703900D01*
X10485808Y22703900D01*
X8092330Y22703900D01*
X8057389Y22708925D01*
X8042390Y22713330D01*
X7983644Y22751073D01*
X7982457Y22752442D01*
X7954977Y22807317D01*
X7953332Y22814879D01*
X7950500Y22841232D01*
X7950500Y23570500D01*
X7970185Y23637539D01*
X8022989Y23683294D01*
X8074500Y23694500D01*
X12875990Y23694500D01*
X12876000Y23694500D01*
X12940941Y23701482D01*
X12992452Y23712688D01*
X13030658Y23723646D01*
X13127571Y23780325D01*
X13180375Y23826080D01*
X13180382Y23826088D01*
X13180387Y23826092D01*
X13222548Y23870808D01*
X13222553Y23870813D01*
X13273439Y23970889D01*
X13293124Y24037928D01*
X13305500Y24124000D01*
X13305500Y29024000D01*
X13298518Y29088941D01*
X13287312Y29140452D01*
X13276354Y29178658D01*
X13258812Y29208652D01*
X13241959Y29276457D01*
X13264440Y29342611D01*
X13278165Y29358931D01*
X13299020Y29379784D01*
X13378077Y29516716D01*
X13419000Y29669443D01*
X13419000Y29827557D01*
X13378077Y29980284D01*
X13360846Y30010130D01*
X13360845Y30010132D01*
X13360845Y30010133D01*
X13312291Y30094231D01*
X13299024Y30117210D01*
X13299018Y30117218D01*
X13299017Y30117219D01*
X13299013Y30117224D01*
X13187222Y30229015D01*
X13187220Y30229016D01*
X13187217Y30229019D01*
X13187209Y30229025D01*
X13147266Y30252086D01*
X13050307Y30308065D01*
X13050283Y30308078D01*
X12938479Y30338036D01*
X12897557Y30349000D01*
X12897556Y30349000D01*
X12739443Y30349000D01*
X12586716Y30308077D01*
X12586711Y30308075D01*
X12515168Y30266772D01*
X12508053Y30262663D01*
X12475285Y30249547D01*
X12467525Y30247664D01*
X12460097Y30245862D01*
X12390315Y30249186D01*
X12381935Y30252086D01*
X12334806Y30281587D01*
X11899426Y30716967D01*
X11878274Y30745223D01*
X11865667Y30768312D01*
X11850500Y30827737D01*
X11850500Y31518097D01*
X11850500Y31518102D01*
X11839877Y31606564D01*
X11804298Y31696786D01*
X11796155Y31731129D01*
X11794750Y31746699D01*
X11808326Y31815229D01*
X11815050Y31828108D01*
X11837285Y31858395D01*
X12436944Y32458054D01*
X12465194Y32479202D01*
X12485825Y32490467D01*
X12539358Y32505492D01*
X12541640Y32505600D01*
X12562305Y32504856D01*
X12588049Y32501764D01*
X12606897Y32499500D01*
X12606898Y32499500D01*
X13218097Y32499500D01*
X13218102Y32499500D01*
X13306564Y32510123D01*
X13447342Y32565639D01*
X13567922Y32657078D01*
X13659361Y32777658D01*
X13714877Y32918436D01*
X13725500Y33006898D01*
X13725500Y33993102D01*
X13714877Y34081564D01*
X13660519Y34219404D01*
X13659349Y34222610D01*
X13657032Y34225893D01*
X13657029Y34225898D01*
X13654240Y34229096D01*
X13567922Y34342924D01*
X13447345Y34434360D01*
X13447339Y34434363D01*
X13378439Y34461534D01*
X13323295Y34504440D01*
X13300102Y34570348D01*
X13301190Y34594530D01*
X13305500Y34624500D01*
X13305500Y35525500D01*
X13325185Y35592539D01*
X13377989Y35638294D01*
X13429500Y35649500D01*
X13718097Y35649500D01*
X13718102Y35649500D01*
X13806564Y35660123D01*
X13947342Y35715639D01*
X14067922Y35807078D01*
X14159361Y35927658D01*
X14214877Y36068436D01*
X14225500Y36156898D01*
X14225500Y36743102D01*
X14214877Y36831564D01*
X14160519Y36969404D01*
X14159349Y36972610D01*
X14157032Y36975893D01*
X14157029Y36975898D01*
X14154240Y36979096D01*
X14067922Y37092924D01*
X13947345Y37184360D01*
X13947343Y37184361D01*
X13876952Y37212120D01*
X13806559Y37239879D01*
X13767152Y37244611D01*
X13760926Y37245358D01*
X13760925Y37245359D01*
X13733220Y37248685D01*
X13718102Y37250500D01*
X13718098Y37250500D01*
X12695973Y37250500D01*
X12668211Y37253648D01*
X12655418Y37256587D01*
X12649392Y37257971D01*
X12588462Y37292167D01*
X12556832Y37348856D01*
X12554174Y37359525D01*
X12550500Y37389488D01*
X12550500Y38694206D01*
X12555522Y38729139D01*
X12562934Y38754384D01*
X12594228Y38807126D01*
X12987679Y39200577D01*
X13015929Y39221725D01*
X13039021Y39234333D01*
X13098446Y39249500D01*
X13718097Y39249500D01*
X13718102Y39249500D01*
X13806564Y39260123D01*
X13947342Y39315639D01*
X14067922Y39407078D01*
X14159361Y39527658D01*
X14214877Y39668436D01*
X14223588Y39740984D01*
X14224828Y39743874D01*
X14232739Y39775065D01*
X14236178Y39783084D01*
X14247532Y39796820D01*
X14251123Y39805194D01*
X14258672Y39810299D01*
X14280691Y39836937D01*
X14347254Y39858175D01*
X14414734Y39840056D01*
X14458977Y39793625D01*
X14461498Y39789007D01*
X14472434Y39761687D01*
X14475738Y39749357D01*
X14485421Y39713221D01*
X14485426Y39713210D01*
X14563988Y39577135D01*
X14564357Y39576425D01*
X14564398Y39576366D01*
X14676336Y39464428D01*
X14676855Y39464047D01*
X14679493Y39462627D01*
X14753310Y39420009D01*
X14753311Y39420009D01*
X14753314Y39420007D01*
X14813216Y39385423D01*
X14965943Y39344500D01*
X14965945Y39344500D01*
X15059812Y39344500D01*
X15094746Y39339477D01*
X15108604Y39335408D01*
X15167383Y39297634D01*
X15196154Y39235759D01*
X15198255Y39222443D01*
X15199440Y39198454D01*
X15199500Y39198454D01*
X15199500Y39197238D01*
X15199563Y39195962D01*
X15199500Y39194873D01*
X15199500Y38205151D01*
X15199502Y38205112D01*
X15202426Y38179896D01*
X15203288Y38178033D01*
X15223879Y38131397D01*
X15233395Y38097408D01*
X15236689Y38072247D01*
X15227172Y38006065D01*
X15202415Y37949997D01*
X15201844Y37947289D01*
X15201589Y37942876D01*
X15199500Y37924873D01*
X15199500Y36935151D01*
X15199502Y36935112D01*
X15202426Y36909896D01*
X15203288Y36908033D01*
X15223879Y36861397D01*
X15233395Y36827408D01*
X15236689Y36802247D01*
X15227172Y36736065D01*
X15202415Y36679997D01*
X15201844Y36677289D01*
X15201589Y36672876D01*
X15199500Y36654873D01*
X15199500Y35665151D01*
X15199502Y35665112D01*
X15202426Y35639896D01*
X15203288Y35638033D01*
X15223879Y35591397D01*
X15233395Y35557408D01*
X15236689Y35532247D01*
X15227172Y35466065D01*
X15202415Y35409997D01*
X15201844Y35407289D01*
X15201589Y35402876D01*
X15199500Y35384873D01*
X15199500Y34395151D01*
X15199502Y34395112D01*
X15202426Y34369896D01*
X15203288Y34368033D01*
X15223879Y34321397D01*
X15233395Y34287408D01*
X15236689Y34262247D01*
X15227172Y34196065D01*
X15202415Y34139997D01*
X15201844Y34137289D01*
X15201589Y34132876D01*
X15199500Y34114873D01*
X15199500Y33125151D01*
X15199502Y33125112D01*
X15202426Y33099896D01*
X15203283Y33098043D01*
X15215250Y33070939D01*
X15223879Y33051397D01*
X15233395Y33017408D01*
X15236689Y32992247D01*
X15227172Y32926065D01*
X15202415Y32869997D01*
X15201844Y32867289D01*
X15201589Y32862876D01*
X15199500Y32844873D01*
X15199500Y31855151D01*
X15199502Y31855112D01*
X15202426Y31829896D01*
X15203288Y31828033D01*
X15223879Y31781397D01*
X15233395Y31747408D01*
X15236689Y31722247D01*
X15227172Y31656065D01*
X15202415Y31599997D01*
X15201844Y31597289D01*
X15201589Y31592876D01*
X15199500Y31574873D01*
X15199500Y30585151D01*
X15199502Y30585112D01*
X15201589Y30567122D01*
X15201955Y30560781D01*
X15203783Y30556705D01*
X15210310Y30540947D01*
X15211774Y30538810D01*
X15219898Y30520412D01*
X15223877Y30511401D01*
X15233395Y30477408D01*
X15236689Y30452247D01*
X15227172Y30386065D01*
X15202415Y30329997D01*
X15201844Y30327289D01*
X15201589Y30322876D01*
X15199500Y30304873D01*
X15199500Y29315151D01*
X15199502Y29315112D01*
X15201589Y29297122D01*
X15201955Y29290781D01*
X15203783Y29286705D01*
X15210310Y29270947D01*
X15211774Y29268810D01*
X15219898Y29250412D01*
X15223877Y29241401D01*
X15233395Y29207408D01*
X15236689Y29182247D01*
X15227172Y29116065D01*
X15202415Y29059997D01*
X15201844Y29057289D01*
X15201589Y29052876D01*
X15199500Y29034873D01*
X15199500Y28045151D01*
X15199502Y28045112D01*
X15202506Y28019208D01*
X15203287Y28018034D01*
X15215242Y27990958D01*
X15223879Y27971397D01*
X15233395Y27937409D01*
X15236689Y27912249D01*
X15227172Y27846065D01*
X15207309Y27801080D01*
X15188606Y27771155D01*
X15173195Y27752909D01*
X15129317Y27719828D01*
X15127867Y27719176D01*
X15109110Y27712495D01*
X15040184Y27694025D01*
X15023568Y27691838D01*
X15010274Y27681636D01*
X14921686Y27630489D01*
X14921678Y27630483D01*
X14837817Y27546622D01*
X14837814Y27546618D01*
X14837795Y27546587D01*
X14828524Y27530528D01*
X14828523Y27530526D01*
X14778501Y27443887D01*
X14768267Y27405694D01*
X14747800Y27329309D01*
X14747800Y25141791D01*
X14762183Y25088114D01*
X14778501Y25027213D01*
X14837811Y24924486D01*
X18415886Y21346411D01*
X18518613Y21287101D01*
X18540890Y21281134D01*
X18544715Y21280042D01*
X18555383Y21276812D01*
X18558592Y21276389D01*
X18572932Y21272547D01*
X18572947Y21272543D01*
X18633191Y21256400D01*
X20132305Y21256400D01*
X20167237Y21251379D01*
X20192481Y21243966D01*
X20245227Y21212670D01*
X25450573Y16007324D01*
X25471723Y15979072D01*
X25484331Y15955983D01*
X25499500Y15896554D01*
X25499500Y14060119D01*
X25494476Y14025181D01*
X25485780Y13995568D01*
X25466574Y13956873D01*
X25402725Y13870360D01*
X25399687Y13866830D01*
X25397204Y13862878D01*
X25352353Y13734705D01*
X25351978Y13732501D01*
X25351812Y13728931D01*
X25349500Y13704267D01*
X25349500Y13168296D01*
X25344476Y13133359D01*
X25337064Y13108118D01*
X25305769Y13055374D01*
X24890810Y12640417D01*
X24887229Y12635749D01*
X24874419Y12621488D01*
X24863478Y12611057D01*
X24801373Y12579044D01*
X24731820Y12585690D01*
X24676901Y12628884D01*
X24666382Y12646612D01*
X24662965Y12653645D01*
X24650500Y12707830D01*
X24650500Y13704272D01*
X24648188Y13728921D01*
X24648020Y13732498D01*
X24647646Y13734700D01*
X24647646Y13734702D01*
X24602793Y13862881D01*
X24602792Y13862883D01*
X24600338Y13866208D01*
X24522150Y13972150D01*
X24412882Y14052793D01*
X24412880Y14052794D01*
X24391947Y14060119D01*
X24284704Y14097646D01*
X24284702Y14097647D01*
X24284700Y14097647D01*
X24254270Y14100500D01*
X24254266Y14100500D01*
X24254264Y14100500D01*
X23845734Y14100500D01*
X23845730Y14100500D01*
X23827074Y14098751D01*
X23821069Y14098188D01*
X23817499Y14098022D01*
X23815297Y14097647D01*
X23687118Y14052794D01*
X23577849Y13972151D01*
X23497206Y13862882D01*
X23452353Y13734703D01*
X23451978Y13732501D01*
X23451812Y13728931D01*
X23449500Y13704267D01*
X23449500Y12420735D01*
X23451812Y12396071D01*
X23451978Y12392501D01*
X23452353Y12390301D01*
X23452353Y12390299D01*
X23497206Y12262120D01*
X23497207Y12262118D01*
X23577850Y12152850D01*
X23687118Y12072207D01*
X23710944Y12063870D01*
X23785324Y12037843D01*
X23815299Y12027354D01*
X23815303Y12027353D01*
X23833742Y12025625D01*
X23845730Y12024500D01*
X23845734Y12024500D01*
X23890205Y12024500D01*
X23925136Y12019478D01*
X23936742Y12016071D01*
X23942681Y12014327D01*
X24001460Y11976555D01*
X24016583Y11954774D01*
X24024728Y11939857D01*
X24036397Y11908105D01*
X24036450Y11908119D01*
X24036650Y11907419D01*
X24037308Y11905628D01*
X24037724Y11903622D01*
X24037962Y11902763D01*
X24052775Y11847479D01*
X24071285Y11778400D01*
X24078623Y11751017D01*
X24078626Y11751010D01*
X24095174Y11722347D01*
X24155829Y11617287D01*
X24157212Y11614716D01*
X24157596Y11614169D01*
X24157679Y11614086D01*
X24157680Y11614084D01*
X24269484Y11502280D01*
X24271657Y11501026D01*
X24299401Y11479209D01*
X24312385Y11465592D01*
X24343145Y11409266D01*
X24345602Y11399142D01*
X24349100Y11369897D01*
X24349100Y11094636D01*
X24344075Y11059695D01*
X24340164Y11046378D01*
X24302387Y10987602D01*
X24238837Y10958581D01*
X24227939Y10957014D01*
X24186100Y10958135D01*
X24116900Y10971900D01*
X24116897Y10971900D01*
X24116893Y10971900D01*
X23978907Y10971900D01*
X23978905Y10971900D01*
X23978900Y10971900D01*
X23843583Y10944984D01*
X23843577Y10944982D01*
X23843567Y10944979D01*
X23843562Y10944978D01*
X23843544Y10944971D01*
X23716101Y10892183D01*
X23716092Y10892178D01*
X23716075Y10892168D01*
X23601355Y10815514D01*
X23601354Y10815513D01*
X23601348Y10815508D01*
X23503792Y10717952D01*
X23503787Y10717946D01*
X23503786Y10717945D01*
X23427132Y10603225D01*
X23427122Y10603208D01*
X23427117Y10603199D01*
X23374329Y10475756D01*
X23374316Y10475717D01*
X23347400Y10340400D01*
X23347400Y10277195D01*
X23342376Y10242258D01*
X23334964Y10217017D01*
X23303669Y10164273D01*
X22189515Y9050121D01*
X22189511Y9050116D01*
X22189505Y9050107D01*
X22130200Y8947388D01*
X22129852Y8946463D01*
X22129167Y8943533D01*
X22099500Y8832811D01*
X22099500Y8730119D01*
X22094476Y8695181D01*
X22085780Y8665568D01*
X22066574Y8626873D01*
X22002725Y8540360D01*
X21999687Y8536830D01*
X21997204Y8532878D01*
X21952353Y8404705D01*
X21951978Y8402501D01*
X21951812Y8398931D01*
X21949500Y8374267D01*
X21949500Y7115735D01*
X21951812Y7091071D01*
X21951978Y7087501D01*
X21952352Y7085299D01*
X21993025Y6969070D01*
X21999823Y6934433D01*
X22000600Y6919205D01*
X21984357Y6851249D01*
X21937668Y6804875D01*
X21926196Y6798406D01*
X21908824Y6790311D01*
X21907166Y6789690D01*
X21907150Y6789682D01*
X21787347Y6720515D01*
X21787337Y6720508D01*
X21787332Y6720504D01*
X21692676Y6625848D01*
X21678114Y6613382D01*
X21661985Y6601606D01*
X21596234Y6577973D01*
X21528789Y6593280D01*
X21517004Y6599807D01*
X21489400Y6620600D01*
X21480000Y6630000D01*
X21104000Y6630000D01*
X21036961Y6649685D01*
X20991206Y6702489D01*
X20980000Y6754000D01*
X20980000Y6906000D01*
X20999685Y6973039D01*
X21052489Y7018794D01*
X21104000Y7030000D01*
X21480000Y7030000D01*
X21480000Y7458796D01*
X21479909Y7459534D01*
X21479408Y7461769D01*
X21449263Y7613319D01*
X21449262Y7613320D01*
X21449258Y7613344D01*
X21449256Y7613352D01*
X21419248Y7685799D01*
X21388955Y7758935D01*
X21388950Y7758945D01*
X21301399Y7889973D01*
X21301398Y7889974D01*
X21301393Y7889980D01*
X21189978Y8001395D01*
X21189972Y8001400D01*
X21189971Y8001401D01*
X21058942Y8088952D01*
X21058943Y8088952D01*
X21058933Y8088957D01*
X20913351Y8149257D01*
X20913331Y8149262D01*
X20880000Y8155893D01*
X20880000Y7798593D01*
X20860315Y7731554D01*
X20807511Y7685799D01*
X20738353Y7675855D01*
X20723918Y7678816D01*
X20719496Y7680000D01*
X20719494Y7680000D01*
X20640506Y7680000D01*
X20640504Y7680000D01*
X20636089Y7678818D01*
X20566241Y7680482D01*
X20508379Y7719646D01*
X20480877Y7783875D01*
X20480000Y7798593D01*
X20480000Y8155891D01*
X20479999Y8155893D01*
X20446674Y8149263D01*
X20446647Y8149257D01*
X20301065Y8088957D01*
X20301055Y8088952D01*
X20170027Y8001401D01*
X20170026Y8001400D01*
X20170020Y8001395D01*
X20058605Y7889980D01*
X20058600Y7889974D01*
X20058599Y7889973D01*
X19971048Y7758945D01*
X19971043Y7758935D01*
X19910743Y7613354D01*
X19910735Y7613319D01*
X19880000Y7458802D01*
X19880000Y7458798D01*
X19880000Y7030000D01*
X20256000Y7030000D01*
X20323039Y7010315D01*
X20368794Y6957511D01*
X20380000Y6906000D01*
X20380000Y6754000D01*
X20360315Y6686961D01*
X20307511Y6641206D01*
X20256000Y6630000D01*
X19880000Y6630000D01*
X19880000Y6201200D01*
X19910735Y6046683D01*
X19910743Y6046648D01*
X19971043Y5901067D01*
X19971048Y5901057D01*
X20058599Y5770029D01*
X20058600Y5770028D01*
X20058605Y5770022D01*
X20170020Y5658607D01*
X20170026Y5658602D01*
X20170027Y5658601D01*
X20301043Y5571058D01*
X20301048Y5571055D01*
X20301051Y5571053D01*
X20301061Y5571048D01*
X20446647Y5510744D01*
X20446653Y5510742D01*
X20479999Y5504110D01*
X20480000Y5504110D01*
X20480000Y5504111D01*
X20480000Y5861408D01*
X20499685Y5928447D01*
X20552489Y5974202D01*
X20621647Y5984146D01*
X20636084Y5981185D01*
X20640504Y5980000D01*
X20719493Y5980000D01*
X20719496Y5980000D01*
X20723903Y5981181D01*
X20793750Y5979522D01*
X20851615Y5940362D01*
X20879122Y5876135D01*
X20880000Y5861408D01*
X20880000Y5504111D01*
X20880000Y5504110D01*
X20913346Y5510742D01*
X20913352Y5510744D01*
X21058938Y5571048D01*
X21058948Y5571053D01*
X21189969Y5658599D01*
X21189973Y5658602D01*
X21301398Y5770027D01*
X21301401Y5770031D01*
X21388947Y5901052D01*
X21388954Y5901065D01*
X21429850Y5999799D01*
X21447850Y6030139D01*
X21455682Y6039858D01*
X21513071Y6079707D01*
X21582896Y6082205D01*
X21640440Y6049210D01*
X21645615Y6043973D01*
X21647411Y6042155D01*
X21666593Y6017001D01*
X21689488Y5977345D01*
X21689492Y5977339D01*
X21689494Y5977336D01*
X21689495Y5977335D01*
X21787335Y5879495D01*
X21787336Y5879494D01*
X21787338Y5879493D01*
X21818663Y5861408D01*
X21907164Y5810312D01*
X22040817Y5774500D01*
X22040819Y5774500D01*
X22179181Y5774500D01*
X22179183Y5774500D01*
X22312836Y5810312D01*
X22432665Y5879495D01*
X22530505Y5977335D01*
X22599688Y6097164D01*
X22635500Y6230817D01*
X22635500Y6369183D01*
X22599688Y6502836D01*
X22590898Y6518059D01*
X22587812Y6530781D01*
X22577780Y6550827D01*
X22574508Y6564315D01*
X22575356Y6582120D01*
X22574425Y6585958D01*
X22575716Y6589692D01*
X22577833Y6634106D01*
X22618336Y6690998D01*
X22619614Y6692003D01*
X22672838Y6716314D01*
X22677765Y6717263D01*
X22701212Y6719500D01*
X22739637Y6719500D01*
X22754270Y6719500D01*
X22778612Y6721784D01*
X22784699Y6722354D01*
X22896817Y6761587D01*
X22901311Y6762790D01*
X22905828Y6762682D01*
X22927057Y6766849D01*
X22953204Y6768184D01*
X23013983Y6755747D01*
X23054462Y6735958D01*
X23066375Y6730134D01*
X23139364Y6719500D01*
X23139370Y6719500D01*
X23360630Y6719500D01*
X23360636Y6719500D01*
X23433625Y6730134D01*
X23433628Y6730136D01*
X23442828Y6732978D01*
X23442985Y6732468D01*
X23463107Y6738960D01*
X23486133Y6742891D01*
X23541957Y6739631D01*
X23544402Y6738913D01*
X23563904Y6731342D01*
X23566375Y6730134D01*
X23639364Y6719500D01*
X23639370Y6719500D01*
X23810105Y6719500D01*
X23845037Y6714479D01*
X23870281Y6707066D01*
X23923027Y6675770D01*
X24241039Y6357758D01*
X24241555Y6357378D01*
X24244178Y6355967D01*
X24343707Y6298505D01*
X24343714Y6298501D01*
X24458291Y6267800D01*
X24458294Y6267800D01*
X25041708Y6267800D01*
X25041709Y6267800D01*
X25132073Y6292014D01*
X25156287Y6298501D01*
X25259014Y6357811D01*
X25502603Y6601400D01*
X25535309Y6634106D01*
X25571779Y6670575D01*
X25600032Y6691726D01*
X25623122Y6704333D01*
X25682547Y6719500D01*
X25860630Y6719500D01*
X25860636Y6719500D01*
X25933625Y6730134D01*
X25933628Y6730136D01*
X25942828Y6732978D01*
X25942985Y6732468D01*
X25963107Y6738960D01*
X25986133Y6742891D01*
X26041957Y6739631D01*
X26044402Y6738913D01*
X26063904Y6731342D01*
X26066375Y6730134D01*
X26139364Y6719500D01*
X26139370Y6719500D01*
X26360630Y6719500D01*
X26360636Y6719500D01*
X26433625Y6730134D01*
X26433628Y6730136D01*
X26442828Y6732978D01*
X26442985Y6732468D01*
X26463107Y6738960D01*
X26486133Y6742891D01*
X26541957Y6739631D01*
X26544402Y6738913D01*
X26563904Y6731342D01*
X26566375Y6730134D01*
X26639364Y6719500D01*
X26639370Y6719500D01*
X26860630Y6719500D01*
X26860636Y6719500D01*
X26933625Y6730134D01*
X26979314Y6752472D01*
X27012898Y6763300D01*
X27038708Y6767706D01*
X27100527Y6762515D01*
X27215299Y6722354D01*
X27215303Y6722353D01*
X27233742Y6720625D01*
X27245730Y6719500D01*
X27245734Y6719500D01*
X27292799Y6719500D01*
X27327731Y6714479D01*
X27341050Y6710568D01*
X27399828Y6672794D01*
X27428854Y6609239D01*
X27428856Y6609222D01*
X27429087Y6607614D01*
X27423531Y6549436D01*
X27421893Y6544702D01*
X27412095Y6523247D01*
X27400317Y6502848D01*
X27400313Y6502840D01*
X27400309Y6502829D01*
X27364500Y6369183D01*
X27364500Y6230818D01*
X27383069Y6161515D01*
X27400308Y6097179D01*
X27400313Y6097162D01*
X27400317Y6097154D01*
X27469488Y5977345D01*
X27469492Y5977339D01*
X27469494Y5977336D01*
X27469495Y5977335D01*
X27567335Y5879495D01*
X27567336Y5879494D01*
X27567338Y5879493D01*
X27598663Y5861408D01*
X27687164Y5810312D01*
X27820817Y5774500D01*
X27820819Y5774500D01*
X27959181Y5774500D01*
X27959183Y5774500D01*
X28092836Y5810312D01*
X28212665Y5879495D01*
X28310505Y5977335D01*
X28332467Y6015378D01*
X28354279Y6043114D01*
X28363313Y6051728D01*
X28425414Y6083741D01*
X28494967Y6077099D01*
X28547705Y6036879D01*
X28552812Y6030141D01*
X28553697Y6028973D01*
X28569431Y6001531D01*
X28611049Y5901057D01*
X28611050Y5901055D01*
X28611056Y5901045D01*
X28698599Y5770029D01*
X28698600Y5770028D01*
X28698605Y5770022D01*
X28810020Y5658607D01*
X28810026Y5658602D01*
X28810027Y5658601D01*
X28941043Y5571058D01*
X28941048Y5571055D01*
X28941051Y5571053D01*
X28941061Y5571048D01*
X29086647Y5510744D01*
X29086653Y5510742D01*
X29119999Y5504110D01*
X29120000Y5504110D01*
X29120000Y5504111D01*
X29120000Y5861408D01*
X29139685Y5928447D01*
X29192489Y5974202D01*
X29261647Y5984146D01*
X29276084Y5981185D01*
X29280504Y5980000D01*
X29359493Y5980000D01*
X29359496Y5980000D01*
X29363903Y5981181D01*
X29433750Y5979522D01*
X29491615Y5940362D01*
X29519122Y5876135D01*
X29520000Y5861408D01*
X29520000Y5504111D01*
X29520000Y5504110D01*
X29553346Y5510742D01*
X29553352Y5510744D01*
X29698938Y5571048D01*
X29698948Y5571053D01*
X29829969Y5658599D01*
X29829973Y5658602D01*
X29941398Y5770027D01*
X29941401Y5770031D01*
X30028947Y5901052D01*
X30028952Y5901061D01*
X30028954Y5901065D01*
X30028955Y5901067D01*
X30061649Y5980000D01*
X30089256Y6046649D01*
X30089258Y6046657D01*
X30118480Y6193568D01*
X30119203Y6196297D01*
X30120000Y6201205D01*
X30120000Y6630000D01*
X29744000Y6630000D01*
X29676961Y6649685D01*
X29631206Y6702489D01*
X29620000Y6754000D01*
X29620000Y6906000D01*
X29639685Y6973039D01*
X29692489Y7018794D01*
X29744000Y7030000D01*
X30120000Y7030000D01*
X30120000Y7458796D01*
X30119909Y7459534D01*
X30119408Y7461769D01*
X30089263Y7613319D01*
X30089262Y7613320D01*
X30089258Y7613344D01*
X30089256Y7613352D01*
X30059248Y7685799D01*
X30028955Y7758935D01*
X30028950Y7758945D01*
X29941399Y7889973D01*
X29941398Y7889974D01*
X29941393Y7889980D01*
X29829978Y8001395D01*
X29829972Y8001400D01*
X29829971Y8001401D01*
X29698942Y8088952D01*
X29698943Y8088952D01*
X29698933Y8088957D01*
X29553351Y8149257D01*
X29553331Y8149262D01*
X29520000Y8155893D01*
X29520000Y7798593D01*
X29500315Y7731554D01*
X29447511Y7685799D01*
X29378353Y7675855D01*
X29363918Y7678816D01*
X29359496Y7680000D01*
X29359494Y7680000D01*
X29280506Y7680000D01*
X29280504Y7680000D01*
X29276089Y7678818D01*
X29206241Y7680482D01*
X29148379Y7719646D01*
X29120877Y7783875D01*
X29120000Y7798593D01*
X29120000Y8155891D01*
X29119999Y8155893D01*
X29086674Y8149263D01*
X29086647Y8149257D01*
X28941065Y8088957D01*
X28941055Y8088952D01*
X28810027Y8001401D01*
X28810026Y8001400D01*
X28810020Y8001395D01*
X28698605Y7889980D01*
X28698600Y7889974D01*
X28698599Y7889973D01*
X28611048Y7758945D01*
X28611043Y7758935D01*
X28550743Y7613354D01*
X28550735Y7613319D01*
X28520000Y7458802D01*
X28520000Y7458798D01*
X28520000Y7030000D01*
X28896000Y7030000D01*
X28963039Y7010315D01*
X29008794Y6957511D01*
X29020000Y6906000D01*
X29020000Y6754000D01*
X29000315Y6686961D01*
X28947511Y6641206D01*
X28896000Y6630000D01*
X28519999Y6630000D01*
X28510864Y6620865D01*
X28482608Y6599714D01*
X28470209Y6592944D01*
X28401936Y6578094D01*
X28337063Y6602073D01*
X28321599Y6613507D01*
X28307640Y6625531D01*
X28212674Y6720497D01*
X28212667Y6720503D01*
X28212661Y6720508D01*
X28212651Y6720515D01*
X28092870Y6789670D01*
X28092821Y6789696D01*
X28087238Y6792487D01*
X28087241Y6792495D01*
X28072922Y6799502D01*
X28057785Y6808729D01*
X28010788Y6860431D01*
X27998774Y6925138D01*
X27999753Y6936622D01*
X28006261Y6967032D01*
X28047646Y7085301D01*
X28050500Y7115734D01*
X28050500Y8374266D01*
X28047646Y8404699D01*
X28047646Y8404700D01*
X28047646Y8404702D01*
X28002793Y8532881D01*
X28002792Y8532883D01*
X27987922Y8553031D01*
X27971221Y8584118D01*
X27966459Y8597155D01*
X27961947Y8666879D01*
X27995848Y8727973D01*
X27996720Y8728834D01*
X28047646Y8759137D01*
X28055097Y8761405D01*
X28055096Y8761406D01*
X28063069Y8763832D01*
X28074971Y8766821D01*
X28156121Y8782963D01*
X28196128Y8790920D01*
X28323611Y8843725D01*
X28438342Y8920386D01*
X28535914Y9017958D01*
X28612575Y9132689D01*
X28665380Y9260172D01*
X28692300Y9395507D01*
X28692300Y9533493D01*
X28692300Y9533496D01*
X28692300Y9533499D01*
X28665141Y9670030D01*
X28663054Y9674443D01*
X28656026Y9691411D01*
X28635439Y9741114D01*
X28612581Y9796299D01*
X28612576Y9796308D01*
X28612571Y9796318D01*
X28535914Y9911042D01*
X28535911Y9911046D01*
X28535906Y9911052D01*
X28438350Y10008608D01*
X28438344Y10008613D01*
X28438334Y10008620D01*
X28358195Y10062169D01*
X28331940Y10085753D01*
X28321979Y10097672D01*
X28294093Y10161736D01*
X28303144Y10226016D01*
X28307471Y10236117D01*
X28322648Y10262214D01*
X28334361Y10277658D01*
X28389877Y10418436D01*
X28400500Y10506898D01*
X28400500Y11493102D01*
X28389877Y11581564D01*
X28335519Y11719404D01*
X28334349Y11722610D01*
X28332032Y11725893D01*
X28332029Y11725898D01*
X28329240Y11729096D01*
X28242922Y11842924D01*
X28122345Y11934360D01*
X28122339Y11934363D01*
X28000530Y11982399D01*
X28000527Y11982399D01*
X27982574Y11989479D01*
X27980613Y11990272D01*
X27980312Y11990397D01*
X27974199Y11990762D01*
X27968703Y11991422D01*
X27935926Y11995358D01*
X27935925Y11995359D01*
X27908220Y11998685D01*
X27893102Y12000500D01*
X27893098Y12000500D01*
X27281902Y12000500D01*
X27281898Y12000500D01*
X27248713Y11996515D01*
X27193437Y11989879D01*
X27193426Y11989876D01*
X27191660Y11989179D01*
X27157335Y11981041D01*
X27143516Y11979793D01*
X27074978Y11993368D01*
X27024659Y12041842D01*
X27024653Y12041853D01*
X27021890Y12046697D01*
X27005600Y12108134D01*
X27005600Y16245707D01*
X27005600Y16245709D01*
X26977521Y16350500D01*
X26974899Y16360287D01*
X26915589Y16463014D01*
X19874146Y23504457D01*
X19852993Y23532715D01*
X19848951Y23540118D01*
X19834101Y23608391D01*
X19858521Y23673855D01*
X19914456Y23715724D01*
X19979033Y23721706D01*
X19984361Y23720780D01*
X20013187Y23712051D01*
X20035009Y23702415D01*
X20060135Y23699500D01*
X21049864Y23699501D01*
X21049879Y23699501D01*
X21049978Y23699508D01*
X21050733Y23699602D01*
X21067893Y23701592D01*
X21073612Y23701922D01*
X21080683Y23703075D01*
X21086512Y23703751D01*
X21099594Y23713279D01*
X21123611Y23723884D01*
X21157588Y23733397D01*
X21182747Y23736691D01*
X21248928Y23727177D01*
X21301392Y23704012D01*
X21305009Y23702415D01*
X21330135Y23699500D01*
X22319864Y23699501D01*
X22319879Y23699501D01*
X22319978Y23699508D01*
X22320733Y23699602D01*
X22337893Y23701592D01*
X22343612Y23701922D01*
X22350683Y23703075D01*
X22356512Y23703751D01*
X22369594Y23713279D01*
X22393611Y23723884D01*
X22427588Y23733397D01*
X22452747Y23736691D01*
X22518928Y23727177D01*
X22571392Y23704012D01*
X22575009Y23702415D01*
X22600135Y23699500D01*
X23589864Y23699501D01*
X23589879Y23699501D01*
X23589978Y23699508D01*
X23590733Y23699602D01*
X23607893Y23701592D01*
X23613612Y23701922D01*
X23620683Y23703075D01*
X23626512Y23703751D01*
X23639594Y23713279D01*
X23663611Y23723884D01*
X23697588Y23733397D01*
X23722747Y23736691D01*
X23788928Y23727177D01*
X23841392Y23704012D01*
X23845009Y23702415D01*
X23870135Y23699500D01*
X24859864Y23699501D01*
X24859879Y23699501D01*
X24859978Y23699508D01*
X24860733Y23699602D01*
X24877893Y23701592D01*
X24883612Y23701922D01*
X24890683Y23703075D01*
X24896512Y23703751D01*
X24909594Y23713279D01*
X24933611Y23723884D01*
X24967588Y23733397D01*
X24992747Y23736691D01*
X25058928Y23727177D01*
X25111392Y23704012D01*
X25115009Y23702415D01*
X25140135Y23699500D01*
X26129864Y23699501D01*
X26129879Y23699501D01*
X26129978Y23699508D01*
X26130733Y23699602D01*
X26147893Y23701592D01*
X26153612Y23701922D01*
X26160683Y23703075D01*
X26166512Y23703751D01*
X26179594Y23713279D01*
X26203611Y23723884D01*
X26237588Y23733397D01*
X26262747Y23736691D01*
X26328928Y23727177D01*
X26381392Y23704012D01*
X26385009Y23702415D01*
X26410135Y23699500D01*
X27399864Y23699501D01*
X27399879Y23699501D01*
X27399978Y23699508D01*
X27400733Y23699602D01*
X27417893Y23701592D01*
X27423612Y23701922D01*
X27430683Y23703075D01*
X27436512Y23703751D01*
X27449594Y23713279D01*
X27473611Y23723884D01*
X27507588Y23733397D01*
X27532747Y23736691D01*
X27598928Y23727177D01*
X27651392Y23704012D01*
X27655009Y23702415D01*
X27680135Y23699500D01*
X28669864Y23699501D01*
X28669879Y23699501D01*
X28669978Y23699508D01*
X28670733Y23699602D01*
X28687893Y23701592D01*
X28693612Y23701922D01*
X28700683Y23703075D01*
X28706512Y23703751D01*
X28719594Y23713279D01*
X28743611Y23723884D01*
X28777588Y23733397D01*
X28802747Y23736691D01*
X28868928Y23727177D01*
X28921392Y23704012D01*
X28925009Y23702415D01*
X28950135Y23699500D01*
X29939864Y23699501D01*
X29939929Y23699501D01*
X29940752Y23699604D01*
X29957893Y23701592D01*
X29963612Y23701922D01*
X29970683Y23703075D01*
X29976512Y23703751D01*
X29989594Y23713279D01*
X30013611Y23723884D01*
X30047588Y23733397D01*
X30072747Y23736691D01*
X30138928Y23727177D01*
X30191392Y23704012D01*
X30195009Y23702415D01*
X30206522Y23701080D01*
X30227083Y23696907D01*
X30250338Y23690093D01*
X30309135Y23652355D01*
X30309138Y23652352D01*
X30314938Y23645666D01*
X30341042Y23596516D01*
X30341793Y23593712D01*
X30342149Y23593096D01*
X30342369Y23592715D01*
X30394520Y23502387D01*
X30469087Y23427820D01*
X30560413Y23375093D01*
X30662273Y23347800D01*
X32604115Y23347800D01*
X32639047Y23342779D01*
X32664291Y23335366D01*
X32717037Y23304070D01*
X35725573Y20295535D01*
X35746723Y20267283D01*
X35759331Y20244194D01*
X35774500Y20184765D01*
X35774500Y19506902D01*
X35776884Y19487046D01*
X35785121Y19418443D01*
X35785121Y19418442D01*
X35785122Y19418439D01*
X35814117Y19344913D01*
X35840640Y19277655D01*
X35932076Y19157078D01*
X36045904Y19070760D01*
X36049102Y19067971D01*
X36049107Y19067968D01*
X36052390Y19065651D01*
X36055596Y19064481D01*
X36193436Y19010123D01*
X36281898Y18999500D01*
X36281903Y18999500D01*
X36862570Y18999500D01*
X36897506Y18994477D01*
X36912504Y18990073D01*
X36971255Y18952328D01*
X36972442Y18950959D01*
X36999918Y18896098D01*
X37001563Y18888540D01*
X37004400Y18862169D01*
X37004400Y14932785D01*
X36999376Y14897848D01*
X36991964Y14872607D01*
X36960669Y14819863D01*
X36418824Y14278020D01*
X36418823Y14278018D01*
X36418821Y14278016D01*
X36366091Y14186689D01*
X36354410Y14143088D01*
X36344841Y14107368D01*
X36344627Y14106571D01*
X36344626Y14106569D01*
X36342736Y14099515D01*
X36342726Y14099477D01*
X36342236Y14097655D01*
X36342237Y14097654D01*
X36338800Y14084828D01*
X36338800Y9793273D01*
X36366093Y9691411D01*
X36379128Y9668835D01*
X36379129Y9668832D01*
X36416154Y9604704D01*
X36418820Y9600087D01*
X36890887Y9128020D01*
X36982212Y9075293D01*
X37084073Y9048000D01*
X38870170Y9048000D01*
X38905106Y9042977D01*
X38920104Y9038573D01*
X38978855Y9000828D01*
X38980042Y8999459D01*
X39007518Y8944598D01*
X39009163Y8937040D01*
X39012000Y8910669D01*
X39012000Y7917330D01*
X39006975Y7882386D01*
X39002570Y7867388D01*
X38964827Y7808645D01*
X38963458Y7807458D01*
X38908597Y7779982D01*
X38901039Y7778337D01*
X38874668Y7775500D01*
X36415858Y7775500D01*
X36380917Y7780525D01*
X36365918Y7784930D01*
X36307147Y7822701D01*
X36297409Y7833939D01*
X36277687Y7865055D01*
X36266686Y7889970D01*
X36266684Y7889974D01*
X36252208Y7922761D01*
X36252207Y7922763D01*
X36252206Y7922765D01*
X36172765Y8002206D01*
X36172760Y8002208D01*
X36159976Y8007853D01*
X36115122Y8027658D01*
X36115120Y8027659D01*
X36115119Y8027660D01*
X36069993Y8047585D01*
X36069994Y8047585D01*
X36044868Y8050500D01*
X36044865Y8050500D01*
X34955143Y8050500D01*
X34955127Y8050499D01*
X34955113Y8050498D01*
X34937255Y8048427D01*
X34930012Y8047587D01*
X34930011Y8047587D01*
X34930005Y8047586D01*
X34929559Y8047453D01*
X34927303Y8046391D01*
X34827236Y8002208D01*
X34747793Y7922766D01*
X34702414Y7819995D01*
X34701844Y7817290D01*
X34701589Y7812876D01*
X34699500Y7794873D01*
X34699500Y6955151D01*
X34699502Y6955115D01*
X34700835Y6943624D01*
X34701900Y6934433D01*
X34702414Y6930007D01*
X34702546Y6929562D01*
X34703609Y6927304D01*
X34723408Y6882463D01*
X34747793Y6827236D01*
X34747794Y6827235D01*
X34827235Y6747794D01*
X34930009Y6702415D01*
X34955135Y6699500D01*
X36044864Y6699501D01*
X36044879Y6699501D01*
X36044978Y6699508D01*
X36045733Y6699602D01*
X36062893Y6701592D01*
X36068611Y6701922D01*
X36069225Y6702022D01*
X36071863Y6703242D01*
X36172765Y6747794D01*
X36252206Y6827235D01*
X36277394Y6884282D01*
X36296093Y6914201D01*
X36306185Y6926149D01*
X36364477Y6964659D01*
X36378698Y6969030D01*
X36415125Y6974500D01*
X40584142Y6974500D01*
X40619078Y6969477D01*
X40634076Y6965073D01*
X40692851Y6927300D01*
X40702590Y6916061D01*
X40722313Y6884944D01*
X40733137Y6860431D01*
X40747794Y6827235D01*
X40827235Y6747794D01*
X40930009Y6702415D01*
X40955135Y6699500D01*
X42044864Y6699501D01*
X42044879Y6699501D01*
X42044978Y6699508D01*
X42045733Y6699602D01*
X42062893Y6701592D01*
X42068611Y6701922D01*
X42069225Y6702022D01*
X42071863Y6703242D01*
X42172765Y6747794D01*
X42252206Y6827235D01*
X42297585Y6930009D01*
X42300500Y6955135D01*
X42300499Y7794864D01*
X42300498Y7794869D01*
X42299607Y7802557D01*
X42299607Y7802558D01*
X42298409Y7812884D01*
X42298078Y7818612D01*
X42297955Y7819369D01*
X42296406Y7822661D01*
X42252206Y7922765D01*
X42172765Y8002206D01*
X42172760Y8002208D01*
X42159976Y8007853D01*
X42115122Y8027658D01*
X42115120Y8027659D01*
X42115119Y8027660D01*
X42069993Y8047585D01*
X42069994Y8047585D01*
X42044868Y8050500D01*
X42044865Y8050500D01*
X40955143Y8050500D01*
X40955127Y8050499D01*
X40955113Y8050498D01*
X40937255Y8048427D01*
X40930012Y8047587D01*
X40930011Y8047587D01*
X40930005Y8047586D01*
X40929559Y8047453D01*
X40927303Y8046391D01*
X40827236Y8002208D01*
X40827233Y8002206D01*
X40747795Y7922768D01*
X40747790Y7922760D01*
X40722605Y7865721D01*
X40703899Y7835791D01*
X40693815Y7823853D01*
X40635524Y7785343D01*
X40627223Y7782791D01*
X40621311Y7780974D01*
X40584875Y7775500D01*
X39954830Y7775500D01*
X39919889Y7780525D01*
X39904890Y7784930D01*
X39846144Y7822673D01*
X39844957Y7824042D01*
X39817477Y7878917D01*
X39815832Y7886479D01*
X39813000Y7912832D01*
X39813000Y9410439D01*
X39818023Y9445375D01*
X39822427Y9460373D01*
X39860198Y9519147D01*
X39869873Y9527531D01*
X39905592Y9549176D01*
X39947342Y9565639D01*
X40067922Y9657078D01*
X40159361Y9777658D01*
X40214877Y9918436D01*
X40225500Y10006898D01*
X40225500Y10993102D01*
X40214877Y11081564D01*
X40160519Y11219404D01*
X40159349Y11222610D01*
X40157032Y11225893D01*
X40157029Y11225898D01*
X40154240Y11229096D01*
X40067922Y11342924D01*
X39947345Y11434360D01*
X39947343Y11434361D01*
X39826024Y11482203D01*
X39806559Y11489879D01*
X39767152Y11494611D01*
X39760926Y11495358D01*
X39760925Y11495359D01*
X39731760Y11498860D01*
X39718102Y11500500D01*
X39718098Y11500500D01*
X39542295Y11500500D01*
X39507360Y11505523D01*
X39496506Y11508710D01*
X39437728Y11546484D01*
X39408703Y11610040D01*
X39418643Y11679189D01*
X39421833Y11686176D01*
X39446942Y11722340D01*
X41225179Y13500577D01*
X41253429Y13521725D01*
X41276521Y13534333D01*
X41335946Y13549500D01*
X44613552Y13549500D01*
X44648488Y13544477D01*
X44663486Y13540073D01*
X44722263Y13502299D01*
X44726015Y13497969D01*
X44751639Y13450452D01*
X44751863Y13449656D01*
X44755639Y13430767D01*
X44757318Y13416793D01*
X44757318Y13416792D01*
X44760121Y13393443D01*
X44760121Y13393442D01*
X44760122Y13393439D01*
X44815639Y13252658D01*
X44815640Y13252655D01*
X44907076Y13132078D01*
X45020904Y13045760D01*
X45024102Y13042971D01*
X45024107Y13042968D01*
X45027390Y13040651D01*
X45030596Y13039481D01*
X45168436Y12985123D01*
X45256898Y12974500D01*
X45256903Y12974500D01*
X45843097Y12974500D01*
X45843102Y12974500D01*
X45931564Y12985123D01*
X46072342Y13040639D01*
X46192922Y13132078D01*
X46284361Y13252658D01*
X46339877Y13393436D01*
X46350500Y13481898D01*
X46350500Y14094206D01*
X46355522Y14129139D01*
X46359618Y14143088D01*
X46362934Y14154384D01*
X46394231Y14207129D01*
X46409447Y14222344D01*
X46460489Y14273386D01*
X46500635Y14342922D01*
X46519799Y14376114D01*
X46550500Y14490691D01*
X46550500Y15609309D01*
X46519799Y15723886D01*
X46519793Y15723896D01*
X46518829Y15726226D01*
X46513617Y15741581D01*
X46507350Y15764973D01*
X46504724Y15774775D01*
X46500500Y15806863D01*
X46500500Y15834277D01*
X46503169Y15859867D01*
X46503299Y15860485D01*
X46508397Y15884650D01*
X46516291Y15909136D01*
X46524701Y15928181D01*
X46547585Y15980009D01*
X46550500Y16005135D01*
X46550500Y16108171D01*
X46555523Y16143107D01*
X46559927Y16158105D01*
X46597672Y16216856D01*
X46599041Y16218043D01*
X46653920Y16245523D01*
X46661479Y16247167D01*
X46687832Y16250000D01*
X46750000Y16250000D01*
X46750000Y16408171D01*
X46755023Y16443107D01*
X46759427Y16458105D01*
X46797172Y16516856D01*
X46798541Y16518043D01*
X46853420Y16545523D01*
X46860979Y16547167D01*
X46887332Y16550000D01*
X46908170Y16550000D01*
X46943106Y16544977D01*
X46958104Y16540573D01*
X47016855Y16502828D01*
X47018042Y16501459D01*
X47045518Y16446598D01*
X47047163Y16439040D01*
X47050000Y16412669D01*
X47050000Y16250000D01*
X47250000Y16250000D01*
X47250000Y17155838D01*
X47255022Y17190771D01*
X47255977Y17194022D01*
X47262434Y17216016D01*
X47293729Y17268759D01*
X47302206Y17277235D01*
X47347585Y17380009D01*
X47350500Y17405135D01*
X47350499Y17994864D01*
X47350497Y17994883D01*
X47348409Y18012885D01*
X47348078Y18018610D01*
X47347954Y18019373D01*
X47346397Y18022683D01*
X47328210Y18063870D01*
X47316287Y18090874D01*
X47308394Y18115358D01*
X47303168Y18140133D01*
X47300500Y18165720D01*
X47300500Y18517625D01*
X47300496Y18517639D01*
X47286719Y18569058D01*
X47286719Y18569059D01*
X47273207Y18619488D01*
X47220480Y18710813D01*
X46915326Y19015967D01*
X46894174Y19044223D01*
X46881567Y19067312D01*
X46866400Y19126737D01*
X46866400Y19178055D01*
X46866400Y19178057D01*
X46825477Y19330784D01*
X46817320Y19344913D01*
X46817320Y19344914D01*
X46774868Y19418443D01*
X46746424Y19467710D01*
X46746418Y19467718D01*
X46746417Y19467719D01*
X46746413Y19467724D01*
X46634622Y19579515D01*
X46634620Y19579516D01*
X46634617Y19579519D01*
X46634609Y19579525D01*
X46593143Y19603465D01*
X46497707Y19658565D01*
X46497683Y19658578D01*
X46382811Y19689357D01*
X46344957Y19699500D01*
X46344956Y19699500D01*
X46186843Y19699500D01*
X46034118Y19658578D01*
X46034111Y19658576D01*
X46034110Y19658575D01*
X46034100Y19658570D01*
X45897198Y19579530D01*
X45897180Y19579518D01*
X45817316Y19499653D01*
X45789058Y19478500D01*
X45775338Y19471009D01*
X45707085Y19456158D01*
X45705278Y19456287D01*
X45647072Y19475655D01*
X45640557Y19479842D01*
X45619921Y19496472D01*
X45146859Y19969534D01*
X45125710Y19997784D01*
X45119055Y20009972D01*
X45104204Y20078242D01*
X45128618Y20143703D01*
X45135222Y20152525D01*
X45165598Y20181313D01*
X45169655Y20184023D01*
X45315977Y20330345D01*
X45430941Y20502402D01*
X45510130Y20693580D01*
X45550500Y20896535D01*
X45550500Y21103465D01*
X45510130Y21306420D01*
X45430941Y21497598D01*
X45316046Y21669551D01*
X45316036Y21669583D01*
X45315980Y21669652D01*
X45315980Y21669651D01*
X45315977Y21669655D01*
X45315975Y21669658D01*
X45315973Y21669660D01*
X45315970Y21669664D01*
X45169658Y21815976D01*
X45169650Y21815982D01*
X44997611Y21930935D01*
X44997608Y21930936D01*
X44997601Y21930940D01*
X44989482Y21934303D01*
X44959133Y21952313D01*
X44941125Y21966826D01*
X44906453Y22011183D01*
X44905216Y22013849D01*
X44897925Y22033941D01*
X44873207Y22126187D01*
X44836134Y22190399D01*
X44820480Y22217513D01*
X44745913Y22292080D01*
X44745912Y22292081D01*
X44741582Y22296411D01*
X44740560Y22297433D01*
X44740517Y22297475D01*
X44446526Y22591467D01*
X44425374Y22619723D01*
X44412767Y22642812D01*
X44397600Y22702237D01*
X44397600Y22753555D01*
X44397600Y22753557D01*
X44356677Y22906284D01*
X44356673Y22906291D01*
X44277624Y23043210D01*
X44277618Y23043218D01*
X44277614Y23043222D01*
X44277613Y23043224D01*
X44165822Y23155015D01*
X44165820Y23155016D01*
X44165817Y23155019D01*
X44165809Y23155025D01*
X44085169Y23201582D01*
X44028907Y23234065D01*
X44028883Y23234078D01*
X43917079Y23264036D01*
X43876157Y23275000D01*
X43876156Y23275000D01*
X43721646Y23275000D01*
X43702533Y23276482D01*
X43692979Y23277973D01*
X43683200Y23279498D01*
X43619997Y23309283D01*
X43583132Y23367796D01*
X43581036Y23375095D01*
X43579414Y23380743D01*
X43574600Y23414962D01*
X43574600Y24555706D01*
X43579622Y24590639D01*
X43587034Y24615884D01*
X43618328Y24668626D01*
X43800279Y24850577D01*
X43828529Y24871725D01*
X43851621Y24884333D01*
X43911046Y24899500D01*
X44979271Y24899500D01*
X45003920Y24901812D01*
X45007498Y24901980D01*
X45009699Y24902354D01*
X45009701Y24902354D01*
X45073790Y24924781D01*
X45137882Y24947207D01*
X45247150Y25027850D01*
X45327793Y25137118D01*
X45355058Y25215038D01*
X45372646Y25265299D01*
X45372646Y25265301D01*
X45373020Y25267501D01*
X45373188Y25271081D01*
X45375500Y25295730D01*
X45375500Y25383406D01*
X45380522Y25418339D01*
X45387934Y25443584D01*
X45419228Y25496326D01*
X45595668Y25672765D01*
X45787189Y25864286D01*
X45836964Y25950499D01*
X45846499Y25967014D01*
X45877200Y26081591D01*
X45877200Y30420109D01*
X45846499Y30534686D01*
X45846499Y30534687D01*
X45787189Y30637414D01*
X43249272Y33175331D01*
X43228122Y33203584D01*
X43215928Y33225915D01*
X43201127Y33275802D01*
X43200868Y33279158D01*
X43200500Y33288699D01*
X43200500Y33877588D01*
X43203638Y33905306D01*
X43210170Y33933788D01*
X43243348Y33993748D01*
X43676189Y34426586D01*
X43735499Y34529313D01*
X43745738Y34567527D01*
X43766200Y34643891D01*
X43766200Y35960809D01*
X43735499Y36075386D01*
X43688438Y36156898D01*
X43676189Y36178114D01*
X39736290Y40118013D01*
X44199500Y40118013D01*
X44199500Y39881989D01*
X44199503Y39881960D01*
X44228360Y39662761D01*
X44228361Y39662761D01*
X44230307Y39647985D01*
X44291395Y39420003D01*
X44381714Y39201955D01*
X44381719Y39201944D01*
X44426786Y39123888D01*
X44440289Y39100500D01*
X44499723Y38997555D01*
X44499725Y38997553D01*
X44499944Y38997224D01*
X44500947Y38995960D01*
X44643399Y38810311D01*
X44643403Y38810306D01*
X44643406Y38810303D01*
X44643412Y38810296D01*
X44643420Y38810288D01*
X44810281Y38643426D01*
X44810297Y38643411D01*
X44810305Y38643405D01*
X44997548Y38499728D01*
X44997550Y38499727D01*
X45128918Y38423882D01*
X45198516Y38383699D01*
X45200255Y38382618D01*
X45201708Y38381811D01*
X45202447Y38381511D01*
X45420007Y38291394D01*
X45647986Y38230307D01*
X45881989Y38199500D01*
X45881996Y38199500D01*
X46118004Y38199500D01*
X46118011Y38199500D01*
X46352014Y38230307D01*
X46579993Y38291394D01*
X46798049Y38381716D01*
X47002450Y38499727D01*
X47189699Y38643408D01*
X47356592Y38810301D01*
X47500273Y38997550D01*
X47618284Y39201951D01*
X47708606Y39420007D01*
X47769693Y39647986D01*
X47800500Y39881989D01*
X47800500Y40118011D01*
X47769693Y40352014D01*
X47708606Y40579993D01*
X47618489Y40797553D01*
X47618189Y40798292D01*
X47617382Y40799745D01*
X47616297Y40801491D01*
X47613680Y40806023D01*
X47576118Y40871082D01*
X47500273Y41002450D01*
X47500272Y41002452D01*
X47356595Y41189695D01*
X47356589Y41189703D01*
X47356574Y41189719D01*
X47189712Y41356580D01*
X47189704Y41356588D01*
X47189697Y41356594D01*
X47189694Y41356597D01*
X47189689Y41356601D01*
X47004040Y41499053D01*
X47002776Y41500056D01*
X47002447Y41500275D01*
X47002445Y41500277D01*
X46920957Y41547323D01*
X46920955Y41547325D01*
X46798065Y41618276D01*
X46798048Y41618285D01*
X46579997Y41708605D01*
X46388211Y41759994D01*
X46388209Y41759995D01*
X46359863Y41767591D01*
X46352118Y41770220D01*
X46343951Y41770755D01*
X46119889Y41800253D01*
X46118208Y41800500D01*
X46118017Y41800500D01*
X46118011Y41800500D01*
X45881989Y41800500D01*
X45881983Y41800500D01*
X45881981Y41800500D01*
X45875861Y41799747D01*
X45874955Y41799575D01*
X45647992Y41769695D01*
X45420001Y41708605D01*
X45201950Y41618285D01*
X45201942Y41618281D01*
X44997545Y41500270D01*
X44997536Y41500264D01*
X44810309Y41356601D01*
X44810294Y41356587D01*
X44810286Y41356580D01*
X44643420Y41189714D01*
X44643413Y41189706D01*
X44643399Y41189691D01*
X44499736Y41002464D01*
X44499730Y41002455D01*
X44381719Y40798058D01*
X44381715Y40798050D01*
X44291395Y40579999D01*
X44230305Y40352008D01*
X44199503Y40118037D01*
X44199500Y40118013D01*
X39736290Y40118013D01*
X36182114Y43672189D01*
X36130750Y43701844D01*
X36119892Y43708113D01*
X36079389Y43731499D01*
X36067277Y43734744D01*
X36067277Y43734745D01*
X36055175Y43737987D01*
X36055171Y43737988D01*
X36055170Y43737988D01*
X36025853Y43745844D01*
X36025849Y43745846D01*
X36004322Y43751614D01*
X35971897Y43765497D01*
X35966683Y43768674D01*
X35919677Y43820367D01*
X35908080Y43889267D01*
X35935574Y43953500D01*
X35993431Y43992671D01*
X35993430Y43992671D01*
X35997954Y43994118D01*
X36035696Y44000000D01*
X49000000Y44000000D01*
X49000000Y48769573D01*
X49000006Y48769620D01*
X49000000Y48769642D01*
X49000019Y48769708D01*
X49005021Y48804500D01*
X49006681Y48810156D01*
X49008207Y48815355D01*
X49017878Y48830404D01*
X49019722Y48836671D01*
X49024640Y48840928D01*
X49045977Y48874134D01*
X49109531Y48903163D01*
X49178686Y48893225D01*
G37*
%TD.AperFunction*%
%TA.AperFunction,Conductor*%
G36*
X35684637Y42856179D02*
G01*
X35709881Y42848766D01*
X35762627Y42817470D01*
X42130308Y36449789D01*
X42151457Y36421539D01*
X42156878Y36411612D01*
X42171732Y36343339D01*
X42147318Y36277874D01*
X42091386Y36236001D01*
X42091382Y36235999D01*
X42084194Y36233318D01*
X42040860Y36225500D01*
X41706898Y36225500D01*
X41696560Y36224259D01*
X41667853Y36220813D01*
X41667853Y36220812D01*
X41661920Y36220100D01*
X41618439Y36214879D01*
X41477653Y36159360D01*
X41357076Y36067924D01*
X41288948Y35978082D01*
X41267210Y35949415D01*
X41265640Y35947345D01*
X41265638Y35947343D01*
X41257878Y35927661D01*
X41257876Y35927659D01*
X41257876Y35927657D01*
X41221893Y35836414D01*
X41204406Y35805760D01*
X41197462Y35796835D01*
X41140759Y35756012D01*
X41070987Y35752325D01*
X41010298Y35786945D01*
X41005868Y35791543D01*
X40979811Y35832087D01*
X40962494Y35876000D01*
X40935515Y35944416D01*
X40934349Y35947610D01*
X40933158Y35949298D01*
X40933016Y35949415D01*
X40932966Y35949569D01*
X40932032Y35950893D01*
X40932029Y35950898D01*
X40929240Y35954096D01*
X40842922Y36067924D01*
X40722345Y36159360D01*
X40722343Y36159361D01*
X40651952Y36187120D01*
X40581559Y36214879D01*
X40541597Y36219677D01*
X40535926Y36220358D01*
X40535925Y36220359D01*
X40495618Y36225198D01*
X40475464Y36229337D01*
X40456424Y36234928D01*
X40397663Y36272685D01*
X40395105Y36275636D01*
X40367183Y36332681D01*
X40365579Y36340748D01*
X40363200Y36364921D01*
X40363200Y36465655D01*
X40363200Y36465657D01*
X40322277Y36618384D01*
X40313102Y36634276D01*
X40312000Y36636184D01*
X40276016Y36698511D01*
X40243224Y36755310D01*
X40243218Y36755318D01*
X40243214Y36755322D01*
X40243213Y36755324D01*
X40131422Y36867115D01*
X40131420Y36867116D01*
X40131417Y36867119D01*
X40131409Y36867125D01*
X40061849Y36907285D01*
X39994507Y36946165D01*
X39994483Y36946178D01*
X39871628Y36979096D01*
X39841757Y36987100D01*
X39841756Y36987100D01*
X39683643Y36987100D01*
X39530918Y36946178D01*
X39530911Y36946176D01*
X39530910Y36946175D01*
X39530900Y36946170D01*
X39393998Y36867130D01*
X39393994Y36867128D01*
X39393990Y36867125D01*
X39393982Y36867119D01*
X39393978Y36867116D01*
X39393976Y36867115D01*
X39353166Y36826304D01*
X39324910Y36805152D01*
X39311189Y36797660D01*
X39242929Y36782808D01*
X39242255Y36782857D01*
X39241122Y36782938D01*
X39182912Y36802311D01*
X39176404Y36806494D01*
X39155769Y36823124D01*
X35201126Y40777767D01*
X35179974Y40806023D01*
X35167367Y40829112D01*
X35152200Y40888537D01*
X35152200Y41292725D01*
X35152200Y41292727D01*
X35124907Y41394587D01*
X35072180Y41485913D01*
X34997613Y41560480D01*
X34906287Y41613207D01*
X34906285Y41613208D01*
X34906283Y41613209D01*
X34898782Y41616316D01*
X34899006Y41616859D01*
X34877175Y41626210D01*
X34863825Y41634348D01*
X34816834Y41686046D01*
X34813294Y41693334D01*
X34812321Y41695338D01*
X34800290Y41739195D01*
X34798745Y41757689D01*
X34796406Y41762660D01*
X34752206Y41862765D01*
X34672765Y41942206D01*
X34672763Y41942207D01*
X34639879Y41956727D01*
X34569993Y41987585D01*
X34569994Y41987585D01*
X34544868Y41990500D01*
X34544865Y41990500D01*
X32955143Y41990500D01*
X32955127Y41990499D01*
X32955113Y41990498D01*
X32937255Y41988427D01*
X32930012Y41987587D01*
X32930011Y41987587D01*
X32930005Y41987586D01*
X32929559Y41987453D01*
X32927303Y41986391D01*
X32827236Y41942208D01*
X32747793Y41862766D01*
X32702414Y41759995D01*
X32701844Y41757290D01*
X32701589Y41752876D01*
X32699500Y41734873D01*
X32699500Y40745151D01*
X32699502Y40745112D01*
X32701589Y40727122D01*
X32701955Y40720781D01*
X32703783Y40716705D01*
X32710306Y40700957D01*
X32711772Y40698817D01*
X32714369Y40692937D01*
X32714372Y40692920D01*
X32714376Y40692921D01*
X32723880Y40671395D01*
X32733395Y40637408D01*
X32736689Y40612247D01*
X32727172Y40546065D01*
X32702415Y40489997D01*
X32701844Y40487289D01*
X32701589Y40482876D01*
X32699500Y40464873D01*
X32699500Y39475151D01*
X32699502Y39475112D01*
X32702426Y39449896D01*
X32703288Y39448033D01*
X32723879Y39401397D01*
X32733395Y39367408D01*
X32736689Y39342247D01*
X32727172Y39276065D01*
X32702415Y39219997D01*
X32701844Y39217289D01*
X32701589Y39212876D01*
X32699500Y39194873D01*
X32699500Y38205151D01*
X32699502Y38205112D01*
X32702426Y38179896D01*
X32703288Y38178033D01*
X32723879Y38131397D01*
X32733395Y38097408D01*
X32736689Y38072247D01*
X32727172Y38006065D01*
X32702415Y37949997D01*
X32701844Y37947289D01*
X32701589Y37942876D01*
X32699500Y37924873D01*
X32699500Y36935151D01*
X32699502Y36935112D01*
X32702426Y36909896D01*
X32703288Y36908033D01*
X32723879Y36861397D01*
X32733395Y36827408D01*
X32736689Y36802247D01*
X32727172Y36736065D01*
X32702415Y36679997D01*
X32701844Y36677289D01*
X32701589Y36672876D01*
X32699500Y36654873D01*
X32699500Y35665151D01*
X32699502Y35665112D01*
X32702426Y35639896D01*
X32703288Y35638033D01*
X32723879Y35591397D01*
X32733395Y35557408D01*
X32736689Y35532247D01*
X32727172Y35466065D01*
X32702415Y35409997D01*
X32701844Y35407289D01*
X32701589Y35402876D01*
X32699500Y35384873D01*
X32699500Y34395151D01*
X32699502Y34395112D01*
X32702426Y34369896D01*
X32703288Y34368033D01*
X32723879Y34321397D01*
X32733395Y34287408D01*
X32736689Y34262247D01*
X32727172Y34196065D01*
X32702415Y34139997D01*
X32701844Y34137289D01*
X32701589Y34132876D01*
X32699500Y34114873D01*
X32699500Y33125151D01*
X32699502Y33125112D01*
X32702426Y33099896D01*
X32703283Y33098043D01*
X32715250Y33070939D01*
X32723879Y33051397D01*
X32733395Y33017408D01*
X32736689Y32992247D01*
X32727172Y32926065D01*
X32702415Y32869997D01*
X32701844Y32867289D01*
X32701589Y32862876D01*
X32699500Y32844873D01*
X32699500Y31855151D01*
X32699502Y31855112D01*
X32702426Y31829896D01*
X32703288Y31828033D01*
X32723879Y31781397D01*
X32733395Y31747408D01*
X32736689Y31722247D01*
X32727172Y31656065D01*
X32702415Y31599997D01*
X32701844Y31597289D01*
X32701589Y31592876D01*
X32699500Y31574873D01*
X32699500Y30585151D01*
X32699502Y30585112D01*
X32701589Y30567122D01*
X32701955Y30560781D01*
X32703783Y30556705D01*
X32710310Y30540947D01*
X32711774Y30538810D01*
X32719898Y30520412D01*
X32723877Y30511401D01*
X32733395Y30477408D01*
X32736689Y30452247D01*
X32727172Y30386065D01*
X32702415Y30329997D01*
X32701844Y30327289D01*
X32701589Y30322876D01*
X32699500Y30304873D01*
X32699500Y29315151D01*
X32699502Y29315112D01*
X32701589Y29297122D01*
X32701955Y29290781D01*
X32703783Y29286705D01*
X32710310Y29270947D01*
X32711774Y29268810D01*
X32719898Y29250412D01*
X32723877Y29241401D01*
X32733395Y29207408D01*
X32736689Y29182247D01*
X32727172Y29116065D01*
X32702415Y29059997D01*
X32701844Y29057289D01*
X32701589Y29052876D01*
X32699500Y29034873D01*
X32699500Y28045151D01*
X32699502Y28045112D01*
X32702426Y28019896D01*
X32703283Y28018043D01*
X32715242Y27990958D01*
X32723879Y27971397D01*
X32733395Y27937408D01*
X32736689Y27912247D01*
X32727172Y27846065D01*
X32702415Y27789997D01*
X32701844Y27787289D01*
X32701589Y27782876D01*
X32699500Y27764873D01*
X32699500Y26775151D01*
X32699502Y26775112D01*
X32702426Y26749896D01*
X32703288Y26748033D01*
X32723879Y26701397D01*
X32733395Y26667408D01*
X32736689Y26642247D01*
X32727172Y26576065D01*
X32702415Y26519997D01*
X32701844Y26517289D01*
X32701589Y26512876D01*
X32699500Y26494873D01*
X32699500Y25919832D01*
X32694475Y25884891D01*
X32690564Y25871574D01*
X32652787Y25812798D01*
X32589230Y25783776D01*
X32584471Y25783092D01*
X32516743Y25792397D01*
X32504994Y25797585D01*
X32504995Y25797585D01*
X32479868Y25800500D01*
X32479865Y25800500D01*
X31490143Y25800500D01*
X31490127Y25800499D01*
X31490113Y25800498D01*
X31472255Y25798427D01*
X31465012Y25797587D01*
X31465011Y25797587D01*
X31465005Y25797586D01*
X31464556Y25797452D01*
X31462304Y25796392D01*
X31416394Y25776121D01*
X31382407Y25766605D01*
X31357250Y25763311D01*
X31291066Y25772827D01*
X31234993Y25797585D01*
X31234994Y25797585D01*
X31209868Y25800500D01*
X31209865Y25800500D01*
X30220143Y25800500D01*
X30220127Y25800499D01*
X30220113Y25800498D01*
X30202255Y25798427D01*
X30195012Y25797587D01*
X30195011Y25797587D01*
X30195005Y25797586D01*
X30194556Y25797452D01*
X30192304Y25796392D01*
X30146394Y25776121D01*
X30112407Y25766605D01*
X30087250Y25763311D01*
X30021066Y25772827D01*
X29964993Y25797585D01*
X29964994Y25797585D01*
X29939868Y25800500D01*
X29939865Y25800500D01*
X28950143Y25800500D01*
X28950127Y25800499D01*
X28950113Y25800498D01*
X28932255Y25798427D01*
X28925012Y25797587D01*
X28925011Y25797587D01*
X28925005Y25797586D01*
X28924556Y25797452D01*
X28922304Y25796392D01*
X28876394Y25776121D01*
X28842407Y25766605D01*
X28817250Y25763311D01*
X28751066Y25772827D01*
X28694993Y25797585D01*
X28694994Y25797585D01*
X28669868Y25800500D01*
X28669865Y25800500D01*
X27680143Y25800500D01*
X27680127Y25800499D01*
X27680113Y25800498D01*
X27662255Y25798427D01*
X27655012Y25797587D01*
X27655011Y25797587D01*
X27655005Y25797586D01*
X27654556Y25797452D01*
X27652304Y25796392D01*
X27606394Y25776121D01*
X27572407Y25766605D01*
X27547250Y25763311D01*
X27481066Y25772827D01*
X27424993Y25797585D01*
X27424994Y25797585D01*
X27399868Y25800500D01*
X27399865Y25800500D01*
X26410143Y25800500D01*
X26410127Y25800499D01*
X26410113Y25800498D01*
X26392255Y25798427D01*
X26385012Y25797587D01*
X26385011Y25797587D01*
X26385005Y25797586D01*
X26384556Y25797452D01*
X26382304Y25796392D01*
X26336394Y25776121D01*
X26302407Y25766605D01*
X26277250Y25763311D01*
X26211066Y25772827D01*
X26154993Y25797585D01*
X26154994Y25797585D01*
X26129868Y25800500D01*
X26129865Y25800500D01*
X25140143Y25800500D01*
X25140127Y25800499D01*
X25140113Y25800498D01*
X25122255Y25798427D01*
X25115012Y25797587D01*
X25115011Y25797587D01*
X25115005Y25797586D01*
X25114556Y25797452D01*
X25112304Y25796392D01*
X25066394Y25776121D01*
X25032407Y25766605D01*
X25007250Y25763311D01*
X24941066Y25772827D01*
X24884993Y25797585D01*
X24884994Y25797585D01*
X24859868Y25800500D01*
X24859865Y25800500D01*
X23870143Y25800500D01*
X23870127Y25800499D01*
X23870113Y25800498D01*
X23852255Y25798427D01*
X23845012Y25797587D01*
X23845011Y25797587D01*
X23845005Y25797586D01*
X23844556Y25797452D01*
X23842304Y25796392D01*
X23796394Y25776121D01*
X23762407Y25766605D01*
X23737250Y25763311D01*
X23671066Y25772827D01*
X23614993Y25797585D01*
X23614994Y25797585D01*
X23589868Y25800500D01*
X23589865Y25800500D01*
X22600143Y25800500D01*
X22600127Y25800499D01*
X22600113Y25800498D01*
X22582255Y25798427D01*
X22575012Y25797587D01*
X22575011Y25797587D01*
X22575005Y25797586D01*
X22574556Y25797452D01*
X22572304Y25796392D01*
X22526394Y25776121D01*
X22492407Y25766605D01*
X22467250Y25763311D01*
X22401066Y25772827D01*
X22344993Y25797585D01*
X22344994Y25797585D01*
X22319868Y25800500D01*
X22319865Y25800500D01*
X21330143Y25800500D01*
X21330127Y25800499D01*
X21330113Y25800498D01*
X21312255Y25798427D01*
X21305012Y25797587D01*
X21305011Y25797587D01*
X21305005Y25797586D01*
X21304556Y25797452D01*
X21302304Y25796392D01*
X21256394Y25776121D01*
X21222407Y25766605D01*
X21197250Y25763311D01*
X21131066Y25772827D01*
X21074993Y25797585D01*
X21074994Y25797585D01*
X21049868Y25800500D01*
X21049865Y25800500D01*
X20060143Y25800500D01*
X20060127Y25800499D01*
X20060113Y25800498D01*
X20042255Y25798427D01*
X20035012Y25797587D01*
X20035011Y25797587D01*
X20035005Y25797586D01*
X20034556Y25797452D01*
X20032304Y25796392D01*
X19986394Y25776121D01*
X19952407Y25766605D01*
X19927250Y25763311D01*
X19861066Y25772827D01*
X19804993Y25797585D01*
X19804994Y25797585D01*
X19779868Y25800500D01*
X19779865Y25800500D01*
X18790143Y25800500D01*
X18790127Y25800499D01*
X18790113Y25800498D01*
X18772255Y25798427D01*
X18765012Y25797587D01*
X18765011Y25797587D01*
X18765005Y25797586D01*
X18764556Y25797452D01*
X18762304Y25796392D01*
X18716394Y25776121D01*
X18682407Y25766605D01*
X18657250Y25763311D01*
X18591066Y25772827D01*
X18534993Y25797585D01*
X18534994Y25797585D01*
X18509868Y25800500D01*
X18509865Y25800500D01*
X17520143Y25800500D01*
X17520127Y25800499D01*
X17520113Y25800498D01*
X17506941Y25798971D01*
X17495012Y25797587D01*
X17495010Y25797587D01*
X17495007Y25797586D01*
X17495005Y25797586D01*
X17490882Y25795765D01*
X17456900Y25786252D01*
X17443142Y25784451D01*
X17374115Y25795267D01*
X17321894Y25841684D01*
X17319346Y25845761D01*
X17300499Y25911479D01*
X17300499Y26494865D01*
X17298927Y26508423D01*
X17298729Y26510130D01*
X17298409Y26512883D01*
X17298079Y26518610D01*
X17297954Y26519371D01*
X17296394Y26522689D01*
X17276119Y26568607D01*
X17266604Y26602587D01*
X17263309Y26627751D01*
X17272829Y26693943D01*
X17277388Y26704266D01*
X17297585Y26750009D01*
X17300500Y26775135D01*
X17300499Y27764864D01*
X17300498Y27764869D01*
X17299266Y27775499D01*
X17299266Y27775500D01*
X17298409Y27782884D01*
X17298079Y27788611D01*
X17297954Y27789371D01*
X17296394Y27792689D01*
X17276119Y27838607D01*
X17266604Y27872589D01*
X17263309Y27897752D01*
X17272823Y27963930D01*
X17296414Y28017359D01*
X17297451Y28019562D01*
X17297584Y28020007D01*
X17297585Y28020009D01*
X17300500Y28045135D01*
X17300499Y29034864D01*
X17300497Y29034883D01*
X17298409Y29052887D01*
X17298078Y29058610D01*
X17297954Y29059372D01*
X17296394Y29062689D01*
X17283863Y29091068D01*
X17276118Y29108609D01*
X17266604Y29142587D01*
X17263309Y29167751D01*
X17272826Y29233937D01*
X17287857Y29267976D01*
X17288226Y29268810D01*
X17291210Y29275571D01*
X17297585Y29290009D01*
X17300500Y29315135D01*
X17300499Y30304864D01*
X17300127Y30308075D01*
X17298409Y30322887D01*
X17298078Y30328612D01*
X17297954Y30329374D01*
X17296394Y30332691D01*
X17276689Y30377319D01*
X17276688Y30377318D01*
X17276686Y30377323D01*
X17276120Y30378604D01*
X17266605Y30412585D01*
X17263309Y30437749D01*
X17272826Y30503937D01*
X17286403Y30534683D01*
X17286406Y30534689D01*
X17296126Y30556705D01*
X17297585Y30560009D01*
X17300500Y30585135D01*
X17300499Y31574864D01*
X17300497Y31574883D01*
X17298409Y31592887D01*
X17298078Y31598610D01*
X17297954Y31599372D01*
X17296394Y31602689D01*
X17276119Y31648607D01*
X17266604Y31682588D01*
X17263309Y31707753D01*
X17272828Y31773939D01*
X17275683Y31780404D01*
X17291059Y31815229D01*
X17297585Y31830009D01*
X17300500Y31855135D01*
X17300499Y32844864D01*
X17300497Y32844883D01*
X17298409Y32862887D01*
X17298078Y32868610D01*
X17297954Y32869372D01*
X17296394Y32872689D01*
X17276119Y32918607D01*
X17266604Y32952587D01*
X17263309Y32977751D01*
X17272830Y33043946D01*
X17276677Y33052656D01*
X17278830Y33057531D01*
X17284481Y33070331D01*
X17297585Y33100009D01*
X17300500Y33125135D01*
X17300499Y34114864D01*
X17300497Y34114883D01*
X17298409Y34132887D01*
X17298078Y34138610D01*
X17297954Y34139372D01*
X17296394Y34142689D01*
X17276119Y34188607D01*
X17266604Y34222589D01*
X17263309Y34247752D01*
X17272823Y34313930D01*
X17296414Y34367359D01*
X17297451Y34369562D01*
X17297584Y34370007D01*
X17297585Y34370009D01*
X17300500Y34395135D01*
X17300499Y35384864D01*
X17300497Y35384883D01*
X17298409Y35402887D01*
X17298078Y35408610D01*
X17297954Y35409372D01*
X17296394Y35412689D01*
X17276119Y35458607D01*
X17266604Y35492589D01*
X17263309Y35517752D01*
X17272823Y35583930D01*
X17296414Y35637359D01*
X17297451Y35639562D01*
X17297584Y35640007D01*
X17297585Y35640009D01*
X17300500Y35665135D01*
X17300499Y36654864D01*
X17300498Y36654869D01*
X17299015Y36667663D01*
X17299015Y36667664D01*
X17298409Y36672885D01*
X17298079Y36678610D01*
X17297954Y36679371D01*
X17296394Y36682689D01*
X17276119Y36728607D01*
X17266604Y36762589D01*
X17263309Y36787752D01*
X17272823Y36853930D01*
X17296414Y36907359D01*
X17297451Y36909562D01*
X17297584Y36910007D01*
X17297585Y36910009D01*
X17300500Y36935135D01*
X17300499Y37924864D01*
X17300497Y37924883D01*
X17298409Y37942887D01*
X17298078Y37948610D01*
X17297954Y37949372D01*
X17296394Y37952689D01*
X17276119Y37998607D01*
X17266604Y38032589D01*
X17263309Y38057752D01*
X17272823Y38123930D01*
X17296414Y38177359D01*
X17297451Y38179562D01*
X17297584Y38180007D01*
X17297585Y38180009D01*
X17300500Y38205135D01*
X17300499Y39194864D01*
X17299677Y39201955D01*
X17298409Y39212886D01*
X17298078Y39218613D01*
X17297955Y39219371D01*
X17296394Y39222689D01*
X17276119Y39268607D01*
X17266604Y39302588D01*
X17263309Y39327753D01*
X17272825Y39393932D01*
X17284336Y39420003D01*
X17297585Y39450009D01*
X17300500Y39475135D01*
X17300499Y40464864D01*
X17300497Y40464883D01*
X17298409Y40482887D01*
X17298078Y40488610D01*
X17297954Y40489375D01*
X17296394Y40492691D01*
X17276689Y40537319D01*
X17276688Y40537318D01*
X17276686Y40537323D01*
X17276120Y40538604D01*
X17266605Y40572585D01*
X17263309Y40597749D01*
X17272825Y40663934D01*
X17288433Y40699282D01*
X17307131Y40729201D01*
X17317227Y40741153D01*
X17375523Y40779660D01*
X17375523Y40779661D01*
X17389741Y40784031D01*
X17426165Y40789500D01*
X18327407Y40789500D01*
X18327409Y40789500D01*
X18424024Y40815388D01*
X18441987Y40820201D01*
X18544714Y40879511D01*
X20477479Y42812277D01*
X20505729Y42833425D01*
X20528821Y42846033D01*
X20588246Y42861200D01*
X35649705Y42861200D01*
X35684637Y42856179D01*
G37*
%TD.AperFunction*%
%TA.AperFunction,Conductor*%
G36*
X885870Y48899167D02*
G01*
X890971Y48900014D01*
X900157Y48896058D01*
X933804Y48888736D01*
X946390Y48876149D01*
X955144Y48872379D01*
X965444Y48857094D01*
X983200Y48839336D01*
X984656Y48836671D01*
X984833Y48836347D01*
X988130Y48823427D01*
X994188Y48814437D01*
X994538Y48798318D01*
X1000000Y48776921D01*
X1000000Y44000000D01*
X20208269Y44000000D01*
X20243186Y43994982D01*
X20246134Y43994117D01*
X20249047Y43993262D01*
X20307831Y43955497D01*
X20336865Y43891945D01*
X20326932Y43822785D01*
X20281185Y43769975D01*
X20281173Y43769967D01*
X20277207Y43767418D01*
X20242255Y43751956D01*
X20222216Y43746587D01*
X20222210Y43746587D01*
X20165944Y43731509D01*
X20165924Y43731504D01*
X20165916Y43731501D01*
X20165913Y43731500D01*
X20165910Y43731499D01*
X20165908Y43731498D01*
X20063196Y43672196D01*
X20063181Y43672186D01*
X20063179Y43672185D01*
X18130423Y41739427D01*
X18102172Y41718278D01*
X18079084Y41705670D01*
X18019654Y41690500D01*
X17426896Y41690500D01*
X17391955Y41695525D01*
X17376956Y41699930D01*
X17318189Y41737697D01*
X17308451Y41748934D01*
X17288725Y41780055D01*
X17252206Y41862765D01*
X17172765Y41942206D01*
X17172763Y41942207D01*
X17139879Y41956727D01*
X17069993Y41987585D01*
X17069994Y41987585D01*
X17044868Y41990500D01*
X17044865Y41990500D01*
X15455143Y41990500D01*
X15455127Y41990499D01*
X15455113Y41990498D01*
X15437255Y41988427D01*
X15430012Y41987587D01*
X15430011Y41987587D01*
X15430005Y41987586D01*
X15429559Y41987453D01*
X15427303Y41986391D01*
X15327236Y41942208D01*
X15327233Y41942206D01*
X15247794Y41862767D01*
X15211568Y41780723D01*
X15192864Y41750796D01*
X15182778Y41738855D01*
X15124485Y41700343D01*
X15112783Y41696746D01*
X15110272Y41695974D01*
X15073836Y41690500D01*
X14330691Y41690500D01*
X14292380Y41680235D01*
X14272416Y41674886D01*
X14272403Y41674885D01*
X14216144Y41659809D01*
X14216124Y41659804D01*
X14216116Y41659801D01*
X14216113Y41659800D01*
X14216110Y41659799D01*
X14216108Y41659798D01*
X14113396Y41600496D01*
X14113381Y41600486D01*
X14113379Y41600485D01*
X13412323Y40899427D01*
X13384072Y40878278D01*
X13360984Y40865670D01*
X13301554Y40850500D01*
X12681898Y40850500D01*
X12671560Y40849259D01*
X12642853Y40845813D01*
X12642853Y40845812D01*
X12636920Y40845100D01*
X12593439Y40839879D01*
X12452653Y40784360D01*
X12332076Y40692924D01*
X12240640Y40572347D01*
X12185121Y40431561D01*
X12179900Y40388080D01*
X12179188Y40382147D01*
X12175570Y40352008D01*
X12174500Y40343099D01*
X12174500Y39756899D01*
X12175405Y39749357D01*
X12174581Y39714080D01*
X12170695Y39690901D01*
X12149423Y39639496D01*
X12148104Y39637643D01*
X12134764Y39621870D01*
X11739517Y39226623D01*
X11739509Y39226613D01*
X11739505Y39226607D01*
X11680200Y39123888D01*
X11679852Y39122963D01*
X11679167Y39120033D01*
X11649500Y39009311D01*
X11649500Y36705795D01*
X11644476Y36670858D01*
X11637064Y36645617D01*
X11605769Y36592873D01*
X11354716Y36341819D01*
X11293393Y36308334D01*
X11267035Y36305500D01*
X1124000Y36305500D01*
X1123991Y36305500D01*
X1123990Y36305499D01*
X1059064Y36298519D01*
X1059052Y36298517D01*
X1007546Y36287312D01*
X969345Y36276356D01*
X969341Y36276354D01*
X872431Y36219677D01*
X872428Y36219675D01*
X819623Y36173919D01*
X819612Y36173909D01*
X777451Y36129193D01*
X777447Y36129187D01*
X746297Y36067924D01*
X735032Y36045770D01*
X687100Y35994934D01*
X619293Y35978082D01*
X553139Y36000565D01*
X509642Y36055244D01*
X500500Y36101973D01*
X500500Y40118013D01*
X2199500Y40118013D01*
X2199500Y39881989D01*
X2199503Y39881960D01*
X2228360Y39662761D01*
X2228361Y39662761D01*
X2230307Y39647985D01*
X2291395Y39420003D01*
X2381714Y39201955D01*
X2381719Y39201944D01*
X2426786Y39123888D01*
X2440289Y39100500D01*
X2499723Y38997555D01*
X2499725Y38997553D01*
X2499944Y38997224D01*
X2500947Y38995960D01*
X2643399Y38810311D01*
X2643403Y38810306D01*
X2643406Y38810303D01*
X2643412Y38810296D01*
X2643420Y38810288D01*
X2810281Y38643426D01*
X2810297Y38643411D01*
X2810305Y38643405D01*
X2997548Y38499728D01*
X2997550Y38499727D01*
X3128918Y38423882D01*
X3198516Y38383699D01*
X3200255Y38382618D01*
X3201708Y38381811D01*
X3202447Y38381511D01*
X3420007Y38291394D01*
X3647986Y38230307D01*
X3881989Y38199500D01*
X3881996Y38199500D01*
X4118004Y38199500D01*
X4118011Y38199500D01*
X4352014Y38230307D01*
X4579993Y38291394D01*
X4798049Y38381716D01*
X5002450Y38499727D01*
X5189699Y38643408D01*
X5356592Y38810301D01*
X5500273Y38997550D01*
X5618284Y39201951D01*
X5708606Y39420007D01*
X5769693Y39647986D01*
X5800500Y39881989D01*
X5800500Y40118011D01*
X5769693Y40352014D01*
X5708606Y40579993D01*
X5618489Y40797553D01*
X5618189Y40798292D01*
X5617382Y40799745D01*
X5616297Y40801491D01*
X5613680Y40806023D01*
X5576118Y40871082D01*
X5500273Y41002450D01*
X5500272Y41002452D01*
X5356595Y41189695D01*
X5356589Y41189703D01*
X5356574Y41189719D01*
X5189712Y41356580D01*
X5189704Y41356588D01*
X5189697Y41356594D01*
X5189694Y41356597D01*
X5189689Y41356601D01*
X5004040Y41499053D01*
X5002776Y41500056D01*
X5002447Y41500275D01*
X5002445Y41500277D01*
X4920957Y41547323D01*
X4920955Y41547325D01*
X4798065Y41618276D01*
X4798048Y41618285D01*
X4579997Y41708605D01*
X4388211Y41759994D01*
X4388209Y41759995D01*
X4359863Y41767591D01*
X4352118Y41770220D01*
X4343951Y41770755D01*
X4119889Y41800253D01*
X4118208Y41800500D01*
X4118017Y41800500D01*
X4118011Y41800500D01*
X3881989Y41800500D01*
X3881983Y41800500D01*
X3881981Y41800500D01*
X3875861Y41799747D01*
X3874955Y41799575D01*
X3647992Y41769695D01*
X3420001Y41708605D01*
X3201950Y41618285D01*
X3201942Y41618281D01*
X2997545Y41500270D01*
X2997536Y41500264D01*
X2810309Y41356601D01*
X2810294Y41356587D01*
X2810286Y41356580D01*
X2643420Y41189714D01*
X2643413Y41189706D01*
X2643399Y41189691D01*
X2499736Y41002464D01*
X2499730Y41002455D01*
X2381719Y40798058D01*
X2381715Y40798050D01*
X2291395Y40579999D01*
X2230305Y40352008D01*
X2199503Y40118037D01*
X2199500Y40118013D01*
X500500Y40118013D01*
X500500Y47993358D01*
X500579Y47997782D01*
X500737Y48002208D01*
X500974Y48006629D01*
X514069Y48189729D01*
X519274Y48216681D01*
X519629Y48231182D01*
X558415Y48409479D01*
X560602Y48418044D01*
X563089Y48426514D01*
X565884Y48434912D01*
X631359Y48610458D01*
X631366Y48610478D01*
X633054Y48613944D01*
X634751Y48618648D01*
X638419Y48626678D01*
X642373Y48634577D01*
X732175Y48799039D01*
X736681Y48806631D01*
X741469Y48814082D01*
X746502Y48821329D01*
X766053Y48847447D01*
X791009Y48872401D01*
X800066Y48879180D01*
X819808Y48886543D01*
X822045Y48888567D01*
X827802Y48889524D01*
X865532Y48903593D01*
X885870Y48899167D01*
G37*
%TD.AperFunction*%
%TD*%
M02*
