%TF.GenerationSoftware,KiCad,Pcbnew,10.0.6*%
%TF.CreationDate,2026-09-29T16:20:15+03:00*%
%TF.ProjectId,starter,73746172-7465-4722-9e6b-696361645f70,rev?*%
%TF.SameCoordinates,Original*%
%TF.FileFunction,Paste,Top*%
%TF.FilePolarity,Positive*%
%FSLAX46Y46*%
G04 Gerber Fmt 4.6, Leading zero omitted, Abs format (unit mm)*
G04 Created by KiCad (PCBNEW 10.0.6) date 2026-09-29 16:20:15*
%MOMM*%
%LPD*%
G01*
G04 APERTURE LIST*
G04 Aperture macros list*
%AMRoundRect*
0 Rectangle with rounded corners*
0 $1 Rounding radius*
0 $2 $3 $4 $5 $6 $7 $8 $9 X,Y pos of 4 corners*
0 Add a 4 corners polygon primitive as box body*
4,1,4,$2,$3,$4,$5,$6,$7,$8,$9,$2,$3,0*
0 Add four circle primitives for the rounded corners*
1,1,$1+$1,$2,$3*
1,1,$1+$1,$4,$5*
1,1,$1+$1,$6,$7*
1,1,$1+$1,$8,$9*
0 Add four rect primitives between the rounded corners*
20,1,$1+$1,$2,$3,$4,$5,0*
20,1,$1+$1,$4,$5,$6,$7,0*
20,1,$1+$1,$6,$7,$8,$9,0*
20,1,$1+$1,$8,$9,$2,$3,0*%
G04 Aperture macros list end*
%ADD10RoundRect,0.243750X-0.243750X-0.456250X0.243750X-0.456250X0.243750X0.456250X-0.243750X0.456250X0*%
%ADD11R,0.300000X0.500000*%
%ADD12RoundRect,0.250000X0.450000X-0.262500X0.450000X0.262500X-0.450000X0.262500X-0.450000X-0.262500X0*%
%ADD13RoundRect,0.150000X-0.150000X-0.575000X0.150000X-0.575000X0.150000X0.575000X-0.150000X0.575000X0*%
%ADD14RoundRect,0.075000X-0.075000X-0.650000X0.075000X-0.650000X0.075000X0.650000X-0.075000X0.650000X0*%
%ADD15R,1.000000X0.750000*%
%ADD16RoundRect,0.250000X-0.250000X-0.475000X0.250000X-0.475000X0.250000X0.475000X-0.250000X0.475000X0*%
%ADD17RoundRect,0.250000X0.475000X-0.250000X0.475000X0.250000X-0.475000X0.250000X-0.475000X-0.250000X0*%
%ADD18RoundRect,0.250000X-0.262500X-0.450000X0.262500X-0.450000X0.262500X0.450000X-0.262500X0.450000X0*%
%ADD19RoundRect,0.375000X0.375000X-0.625000X0.375000X0.625000X-0.375000X0.625000X-0.375000X-0.625000X0*%
%ADD20RoundRect,0.500000X1.400000X-0.500000X1.400000X0.500000X-1.400000X0.500000X-1.400000X-0.500000X0*%
%ADD21RoundRect,0.150000X0.625000X-0.150000X0.625000X0.150000X-0.625000X0.150000X-0.625000X-0.150000X0*%
%ADD22RoundRect,0.250000X0.650000X-0.350000X0.650000X0.350000X-0.650000X0.350000X-0.650000X-0.350000X0*%
%ADD23RoundRect,0.150000X0.150000X-0.587500X0.150000X0.587500X-0.150000X0.587500X-0.150000X-0.587500X0*%
%ADD24RoundRect,0.250000X0.250000X0.475000X-0.250000X0.475000X-0.250000X-0.475000X0.250000X-0.475000X0*%
%ADD25RoundRect,0.250000X0.300000X-0.300000X0.300000X0.300000X-0.300000X0.300000X-0.300000X-0.300000X0*%
%ADD26RoundRect,0.250000X0.625000X-0.375000X0.625000X0.375000X-0.625000X0.375000X-0.625000X-0.375000X0*%
%ADD27R,0.900000X0.900000*%
%ADD28R,1.500000X0.900000*%
%ADD29R,0.900000X1.500000*%
G04 APERTURE END LIST*
D10*
%TO.C,D2*%
X36562500Y17000000D03*
X38437500Y17000000D03*
%TD*%
D11*
%TO.C,U4*%
X46900000Y17700000D03*
X46100000Y17700000D03*
X46100000Y16300000D03*
X46900000Y16300000D03*
%TD*%
D12*
%TO.C,R7*%
X40000000Y33587500D03*
X40000000Y35412500D03*
%TD*%
D13*
%TO.C,J1*%
X21750000Y7745000D03*
X22550000Y7745000D03*
D14*
X23750000Y7745000D03*
X24750000Y7745000D03*
X25250000Y7745000D03*
X26250000Y7745000D03*
D13*
X27450000Y7745000D03*
X28250000Y7745000D03*
X28250000Y7745000D03*
X27450000Y7745000D03*
D14*
X26750000Y7745000D03*
X25750000Y7745000D03*
X24250000Y7745000D03*
X23250000Y7745000D03*
D13*
X22550000Y7745000D03*
X21750000Y7745000D03*
%TD*%
D15*
%TO.C,SW1*%
X8500000Y7375000D03*
X14500000Y7375000D03*
X8500000Y3625000D03*
X14500000Y3625000D03*
%TD*%
D16*
%TO.C,C5*%
X11050000Y31000000D03*
X12950000Y31000000D03*
%TD*%
D17*
%TO.C,C2*%
X11000000Y15550000D03*
X11000000Y17450000D03*
%TD*%
D15*
%TO.C,SW2*%
X35500000Y7375000D03*
X41500000Y7375000D03*
X35500000Y3625000D03*
X41500000Y3625000D03*
%TD*%
D18*
%TO.C,R2*%
X27587500Y11000000D03*
X29412500Y11000000D03*
%TD*%
%TO.C,R4*%
X11087500Y33500000D03*
X12912500Y33500000D03*
%TD*%
%TO.C,R1*%
X20587500Y11000000D03*
X22412500Y11000000D03*
%TD*%
D19*
%TO.C,U2*%
X5200000Y20850000D03*
X7500000Y20850000D03*
D20*
X7500000Y27150000D03*
D19*
X9800000Y20850000D03*
%TD*%
D21*
%TO.C,J2*%
X44300000Y24500000D03*
X44300000Y25500000D03*
X44300000Y26500000D03*
X44300000Y27500000D03*
D22*
X48175000Y23200000D03*
X48175000Y28800000D03*
%TD*%
D18*
%TO.C,R5*%
X37587500Y10500000D03*
X39412500Y10500000D03*
%TD*%
D23*
%TO.C,U3*%
X24050000Y13062500D03*
X25950000Y13062500D03*
X25000000Y14937500D03*
%TD*%
D10*
%TO.C,D1*%
X3562500Y11000000D03*
X5437500Y11000000D03*
%TD*%
D24*
%TO.C,C1*%
X8450000Y18200000D03*
X6550000Y18200000D03*
%TD*%
D25*
%TO.C,D3*%
X17000000Y8600000D03*
X17000000Y11400000D03*
%TD*%
D26*
%TO.C,F1*%
X17000000Y13600000D03*
X17000000Y16400000D03*
%TD*%
D18*
%TO.C,R6*%
X36587500Y20000000D03*
X38412500Y20000000D03*
%TD*%
D12*
%TO.C,R8*%
X42200000Y33587500D03*
X42200000Y35412500D03*
%TD*%
D17*
%TO.C,C4*%
X13200000Y36450000D03*
X13200000Y38350000D03*
%TD*%
D16*
%TO.C,C6*%
X45550000Y14000000D03*
X47450000Y14000000D03*
%TD*%
D17*
%TO.C,C3*%
X13200000Y40050000D03*
X13200000Y41950000D03*
%TD*%
D27*
%TO.C,U1*%
X22100000Y36190000D03*
X22100000Y34790000D03*
X22100000Y33390000D03*
X23500000Y36190000D03*
X23500000Y34790000D03*
X23500000Y33390000D03*
X24900000Y36190000D03*
X24900000Y34790000D03*
X24900000Y33390000D03*
D28*
X16250000Y42510000D03*
X16250000Y41240000D03*
X16250000Y39970000D03*
X16250000Y38700000D03*
X16250000Y37430000D03*
X16250000Y36160000D03*
X16250000Y34890000D03*
X16250000Y33620000D03*
X16250000Y32350000D03*
X16250000Y31080000D03*
X16250000Y29810000D03*
X16250000Y28540000D03*
X16250000Y27270000D03*
X16250000Y26000000D03*
D29*
X18015000Y24750000D03*
X19285000Y24750000D03*
X20555000Y24750000D03*
X21825000Y24750000D03*
X23095000Y24750000D03*
X24365000Y24750000D03*
X25635000Y24750000D03*
X26905000Y24750000D03*
X28175000Y24750000D03*
X29445000Y24750000D03*
X30715000Y24750000D03*
X31985000Y24750000D03*
D28*
X33750000Y26000000D03*
X33750000Y27270000D03*
X33750000Y28540000D03*
X33750000Y29810000D03*
X33750000Y31080000D03*
X33750000Y32350000D03*
X33750000Y33620000D03*
X33750000Y34890000D03*
X33750000Y36160000D03*
X33750000Y37430000D03*
X33750000Y38700000D03*
X33750000Y39970000D03*
X33750000Y41240000D03*
X33750000Y42510000D03*
%TD*%
D18*
%TO.C,R3*%
X3587500Y13500000D03*
X5412500Y13500000D03*
%TD*%
M02*
