%TF.GenerationSoftware,KiCad,Pcbnew,10.0.6*%
%TF.CreationDate,2026-09-29T15:18:22+03:00*%
%TF.ProjectId,starter,73746172-7465-4722-9e6b-696361645f70,rev?*%
%TF.SameCoordinates,Original*%
%TF.FileFunction,Copper,L2,Bot*%
%TF.FilePolarity,Positive*%
%FSLAX46Y46*%
G04 Gerber Fmt 4.6, Leading zero omitted, Abs format (unit mm)*
G04 Created by KiCad (PCBNEW 10.0.6) date 2026-09-29 15:18:22*
%MOMM*%
%LPD*%
G01*
G04 APERTURE LIST*
%TA.AperFunction,ComponentPad*%
%ADD10O,1.000000X2.100000*%
%TD*%
%TA.AperFunction,ComponentPad*%
%ADD11O,1.000000X1.600000*%
%TD*%
%TA.AperFunction,HeatsinkPad*%
%ADD12C,0.600000*%
%TD*%
%TA.AperFunction,ViaPad*%
%ADD13C,0.600000*%
%TD*%
%TA.AperFunction,ViaPad*%
%ADD14C,0.800000*%
%TD*%
%TA.AperFunction,Conductor*%
%ADD15C,0.300000*%
%TD*%
%TA.AperFunction,Conductor*%
%ADD16C,0.200000*%
%TD*%
G04 APERTURE END LIST*
D10*
%TO.P,J1,SH*%
%TO.N,GND*%
X20680000Y6830000D03*
D11*
X20680000Y2650000D03*
D10*
X29320000Y6830000D03*
D11*
X29320000Y2650000D03*
%TD*%
D12*
%TO.P,U1,41*%
%TO.N,GND*%
X22100000Y35490000D03*
X22100000Y34090000D03*
X22800000Y36190000D03*
X22800000Y34790000D03*
X22800000Y33390000D03*
X23500000Y35490000D03*
X23500000Y34090000D03*
X24200000Y36190000D03*
X24200000Y34790000D03*
X24200000Y33390000D03*
X24900000Y35490000D03*
X24900000Y34090000D03*
%TD*%
D13*
%TO.N,GND*%
X34450000Y18550000D03*
X19450000Y18550000D03*
X4450000Y9550000D03*
X37450000Y30550000D03*
X37450000Y12550000D03*
X10450000Y42550000D03*
X40450000Y30550000D03*
X37450000Y42550000D03*
X31450000Y3550000D03*
X46450000Y12550000D03*
X1450000Y21550000D03*
X25450000Y21550000D03*
X46450000Y21550000D03*
X37450000Y18550000D03*
X40450000Y27550000D03*
X40450000Y39550000D03*
X10450000Y9550000D03*
X1450000Y18550000D03*
X37450000Y21550000D03*
X34450000Y9550000D03*
X22450000Y12550000D03*
X19450000Y9550000D03*
X10450000Y39550000D03*
X31450000Y21550000D03*
X31450000Y18550000D03*
X1450000Y15550000D03*
X46450000Y30550000D03*
X4450000Y18550000D03*
X34450000Y6550000D03*
X22450000Y21550000D03*
X19450000Y21550000D03*
X37450000Y15550000D03*
X16450000Y3550000D03*
X28450000Y21550000D03*
X46450000Y9550000D03*
X37450000Y33550000D03*
X28450000Y12550000D03*
X25450000Y18550000D03*
X10450000Y12550000D03*
X40450000Y42550000D03*
X34450000Y21550000D03*
X31450000Y6550000D03*
X28450000Y15550000D03*
X46450000Y33550000D03*
X7450000Y9550000D03*
X1450000Y9550000D03*
X34450000Y3550000D03*
X43450000Y9550000D03*
X10450000Y18550000D03*
X37450000Y36550000D03*
X7450000Y15550000D03*
X31450000Y12550000D03*
X34450000Y15550000D03*
X43450000Y36550000D03*
X31450000Y9550000D03*
X7450000Y12550000D03*
D14*
X31798000Y17033000D03*
D13*
X40450000Y24550000D03*
X14999200Y31000000D03*
X1450000Y12550000D03*
X22450000Y18550000D03*
X7450000Y42550000D03*
X19450000Y15550000D03*
X16450000Y6550000D03*
X22450000Y15550000D03*
%TO.N,/I2C_SDA*%
X44147200Y22911100D03*
X46900000Y18450000D03*
X39125000Y41008500D03*
X39125000Y36287500D03*
%TO.N,+3V3*%
X6950000Y35050000D03*
X10950000Y35050000D03*
X2950000Y27050000D03*
X8950000Y29050000D03*
X2950000Y29050000D03*
X2950000Y33050000D03*
X8950000Y35050000D03*
X2950000Y31050000D03*
X4950000Y35050000D03*
X10950000Y29050000D03*
X8950000Y31050000D03*
X4950000Y29050000D03*
X6950000Y33050000D03*
X8950000Y33050000D03*
X6950000Y29050000D03*
X4950000Y33050000D03*
X6950000Y31050000D03*
X4950000Y31050000D03*
X2950000Y25050000D03*
D14*
X43489800Y12624600D03*
D13*
X2950000Y35050000D03*
D14*
X42200000Y30906500D03*
%TO.N,VBUS*%
X21134200Y9380700D03*
X18483400Y13159600D03*
X27619300Y9092000D03*
D13*
%TO.N,/USB_D+*%
X23568400Y26000000D03*
X25498400Y8922600D03*
X23568400Y14222200D03*
%TO.N,/USB_D-*%
X17459100Y27270000D03*
X23726700Y9303400D03*
%TO.N,/EN*%
X10235500Y7375000D03*
X17456200Y39970000D03*
X13912900Y33234600D03*
%TO.N,/BOOT*%
X34967900Y26000000D03*
X40280100Y11367600D03*
D14*
%TO.N,+5V*%
X4445600Y14623300D03*
X11407800Y8600000D03*
X11407800Y19500000D03*
D13*
%TO.N,/UART_TX*%
X36649700Y29850300D03*
X36649700Y38468500D03*
%TO.N,/PWR_LED*%
X6359600Y10235500D03*
X5412500Y14664200D03*
%TO.N,/UART_RX*%
X36636000Y26364000D03*
X34956600Y37430000D03*
%TD*%
%TO.N,GND*%
D15*
X29320000Y14555000D02*
X31798000Y17033000D01*
X20680000Y6830000D02*
X20680000Y2650000D01*
X22100000Y34090000D02*
X19010000Y31000000D01*
X16801600Y31000000D02*
X16801600Y12110100D01*
X22800000Y34790000D02*
X22800000Y33390000D01*
X19010000Y31000000D02*
X16801600Y31000000D01*
X23500000Y35490000D02*
X23500000Y34090000D01*
X16801600Y31000000D02*
X14999200Y31000000D01*
X29320000Y2650000D02*
X29320000Y6830000D01*
X16801600Y12110100D02*
X20680000Y8231700D01*
X29320000Y6830000D02*
X29320000Y14555000D01*
X20680000Y6830000D02*
X20680000Y8231700D01*
%TO.N,/I2C_SDA*%
D16*
X44205800Y31206700D02*
X39125000Y36287500D01*
X44147200Y21202800D02*
X44147200Y22911100D01*
X44147200Y22911100D02*
X44205800Y22969700D01*
X44205800Y22969700D02*
X44205800Y31206700D01*
X46900000Y18450000D02*
X44147200Y21202800D01*
X39125000Y36287500D02*
X39125000Y41008500D01*
%TO.N,+3V3*%
D15*
X43701100Y23918500D02*
X43489800Y23707200D01*
X43701100Y29405400D02*
X43701100Y23918500D01*
X42200000Y30906500D02*
X43701100Y29405400D01*
X43489800Y23707200D02*
X43489800Y12624600D01*
%TO.N,VBUS*%
X26789300Y8262000D02*
X27619300Y9092000D01*
X22252900Y8262000D02*
X26789300Y8262000D01*
X21134200Y9380700D02*
X22252900Y8262000D01*
X21134200Y10508800D02*
X21134200Y9380700D01*
X18483400Y13159600D02*
X21134200Y10508800D01*
%TO.N,/USB_D+*%
X25498400Y12292200D02*
X25498400Y8922600D01*
X23568400Y14222200D02*
X25498400Y12292200D01*
X23568400Y14222200D02*
X23568400Y26000000D01*
%TO.N,/USB_D-*%
X23726700Y9303400D02*
X17459100Y15571000D01*
X17459100Y15571000D02*
X17459100Y27270000D01*
%TO.N,/EN*%
D16*
X13912900Y33234600D02*
X17456200Y36777900D01*
X13912900Y10107800D02*
X11180100Y7375000D01*
X11180100Y7375000D02*
X10235500Y7375000D01*
X13912900Y33234600D02*
X13912900Y10107800D01*
X17456200Y36777900D02*
X17456200Y39970000D01*
%TO.N,/BOOT*%
X40280100Y20687800D02*
X34967900Y26000000D01*
X40280100Y11367600D02*
X40280100Y20687800D01*
%TO.N,+5V*%
D15*
X11407800Y13926500D02*
X11407800Y8600000D01*
X5142400Y13926500D02*
X4445600Y14623300D01*
X11407800Y13926500D02*
X5142400Y13926500D01*
X11407800Y19500000D02*
X11407800Y13926500D01*
%TO.N,/UART_TX*%
D16*
X36649700Y29850300D02*
X36649700Y38468500D01*
%TO.N,/PWR_LED*%
X5412500Y14664200D02*
X4751600Y15325100D01*
X3697100Y14896600D02*
X3697100Y12898000D01*
X4125600Y15325100D02*
X3697100Y14896600D01*
X4751600Y15325100D02*
X4125600Y15325100D01*
X3697100Y12898000D02*
X6359600Y10235500D01*
%TO.N,/UART_RX*%
X34956600Y28043400D02*
X34956600Y37430000D01*
X36636000Y26364000D02*
X34956600Y28043400D01*
%TD*%
%TA.AperFunction,Conductor*%
%TO.N,GND*%
G36*
X885870Y48899167D02*
G01*
X890971Y48900014D01*
X900157Y48896058D01*
X933804Y48888736D01*
X946390Y48876149D01*
X955144Y48872379D01*
X965444Y48857094D01*
X983200Y48839336D01*
X984656Y48836671D01*
X984833Y48836347D01*
X988130Y48823427D01*
X994188Y48814437D01*
X994538Y48798318D01*
X1000000Y48776921D01*
X1000000Y44000000D01*
X49000000Y44000000D01*
X49000000Y48769573D01*
X49000006Y48769620D01*
X49000000Y48769642D01*
X49000019Y48769708D01*
X49005021Y48804500D01*
X49006681Y48810156D01*
X49008207Y48815355D01*
X49017878Y48830404D01*
X49019722Y48836671D01*
X49024640Y48840928D01*
X49045977Y48874134D01*
X49109531Y48903163D01*
X49178686Y48893225D01*
X49181800Y48891803D01*
X49229544Y48853324D01*
X49253495Y48821329D01*
X49258544Y48814058D01*
X49263317Y48806631D01*
X49267833Y48799019D01*
X49357620Y48634587D01*
X49357856Y48633502D01*
X49361578Y48626681D01*
X49365256Y48618628D01*
X49368640Y48610458D01*
X49434111Y48434920D01*
X49436906Y48426522D01*
X49439398Y48418035D01*
X49441587Y48409458D01*
X49481407Y48226405D01*
X49482978Y48217703D01*
X49484238Y48208944D01*
X49485185Y48200135D01*
X49499026Y48006629D01*
X49499263Y48002209D01*
X49499421Y47997786D01*
X49499500Y47993359D01*
X49499500Y2006643D01*
X49499421Y2002216D01*
X49499263Y1997793D01*
X49499026Y1993373D01*
X49485185Y1799867D01*
X49484238Y1791058D01*
X49482978Y1782299D01*
X49481407Y1773597D01*
X49441587Y1590544D01*
X49439398Y1581967D01*
X49436906Y1573480D01*
X49434111Y1565082D01*
X49368640Y1389544D01*
X49365250Y1381359D01*
X49361580Y1373324D01*
X49357620Y1365415D01*
X49267835Y1200987D01*
X49263316Y1193370D01*
X49258529Y1185922D01*
X49253483Y1178656D01*
X49141219Y1028688D01*
X49135665Y1021796D01*
X49129869Y1015107D01*
X49123837Y1008628D01*
X48991372Y876163D01*
X48984893Y870131D01*
X48978204Y864335D01*
X48971312Y858781D01*
X48821344Y746517D01*
X48814078Y741471D01*
X48806630Y736684D01*
X48799013Y732165D01*
X48634585Y642380D01*
X48626676Y638420D01*
X48618641Y634750D01*
X48610456Y631360D01*
X48434918Y565889D01*
X48426520Y563094D01*
X48418033Y560602D01*
X48409456Y558413D01*
X48226403Y518593D01*
X48217699Y517022D01*
X48208939Y515762D01*
X48200132Y514815D01*
X48023779Y502201D01*
X48015674Y501622D01*
X48006618Y500974D01*
X48002234Y500739D01*
X47997929Y500585D01*
X47997810Y500580D01*
X47993356Y500500D01*
X2006643Y500500D01*
X2002218Y500579D01*
X1997792Y500738D01*
X1993374Y500974D01*
X1986118Y501493D01*
X1973622Y502387D01*
X1973621Y502388D01*
X1799866Y514815D01*
X1791059Y515762D01*
X1782299Y517022D01*
X1773595Y518593D01*
X1590542Y558413D01*
X1581965Y560602D01*
X1573478Y563094D01*
X1565080Y565889D01*
X1389542Y631360D01*
X1381372Y634744D01*
X1373317Y638423D01*
X1365413Y642380D01*
X1200985Y732165D01*
X1193368Y736684D01*
X1185920Y741471D01*
X1178654Y746517D01*
X1028686Y858781D01*
X1021794Y864335D01*
X1015105Y870131D01*
X1008626Y876163D01*
X876161Y1008628D01*
X870129Y1015107D01*
X864333Y1021796D01*
X858779Y1028688D01*
X746515Y1178656D01*
X741469Y1185922D01*
X736682Y1193370D01*
X732171Y1200972D01*
X642366Y1365436D01*
X638417Y1373328D01*
X634747Y1381365D01*
X631366Y1389526D01*
X565878Y1565104D01*
X563090Y1573483D01*
X560595Y1581983D01*
X558412Y1590540D01*
X547424Y1641053D01*
X518587Y1773615D01*
X517020Y1782299D01*
X515757Y1791083D01*
X514814Y1799853D01*
X511941Y1840027D01*
X500973Y1993376D01*
X500737Y1997794D01*
X500579Y2002220D01*
X500500Y2006644D01*
X500500Y4118013D01*
X2199500Y4118013D01*
X2199500Y3881989D01*
X2199503Y3881960D01*
X2228861Y3658957D01*
X2230306Y3647990D01*
X2280685Y3459974D01*
X2280684Y3459974D01*
X2291391Y3420016D01*
X2291397Y3419998D01*
X2381715Y3201952D01*
X2381719Y3201944D01*
X2420829Y3134205D01*
X2499730Y2997545D01*
X2499939Y2997230D01*
X2500947Y2995960D01*
X2643399Y2810311D01*
X2643403Y2810306D01*
X2643406Y2810303D01*
X2643412Y2810296D01*
X2643420Y2810288D01*
X2810281Y2643426D01*
X2810297Y2643411D01*
X2810305Y2643405D01*
X2997548Y2499728D01*
X2997550Y2499727D01*
X3083680Y2450000D01*
X3083681Y2449999D01*
X3198503Y2383706D01*
X3200241Y2382626D01*
X3201710Y2381811D01*
X3202427Y2381519D01*
X3420007Y2291394D01*
X3647986Y2230307D01*
X3881989Y2199500D01*
X3881996Y2199500D01*
X4118004Y2199500D01*
X4118011Y2199500D01*
X4352014Y2230307D01*
X4579993Y2291394D01*
X4798049Y2381716D01*
X5002450Y2499727D01*
X5189699Y2643408D01*
X5356592Y2810301D01*
X5500273Y2997550D01*
X5518316Y3028802D01*
X19880000Y3028802D01*
X19880000Y3028798D01*
X19880000Y2850000D01*
X20256000Y2850000D01*
X20323039Y2830315D01*
X20368794Y2777511D01*
X20380000Y2726000D01*
X20380000Y2574000D01*
X20360315Y2506961D01*
X20307511Y2461206D01*
X20256000Y2450000D01*
X19880000Y2450000D01*
X19880000Y2271200D01*
X19910735Y2116683D01*
X19910743Y2116648D01*
X19971043Y1971067D01*
X19971048Y1971057D01*
X20058599Y1840029D01*
X20058605Y1840022D01*
X20170020Y1728607D01*
X20170026Y1728602D01*
X20170027Y1728601D01*
X20301043Y1641058D01*
X20301048Y1641055D01*
X20301051Y1641053D01*
X20301061Y1641048D01*
X20446647Y1580744D01*
X20446653Y1580742D01*
X20479999Y1574110D01*
X20480000Y1574110D01*
X20480000Y1574111D01*
X20480000Y1931408D01*
X20499685Y1998447D01*
X20552489Y2044202D01*
X20621647Y2054146D01*
X20636084Y2051185D01*
X20640504Y2050000D01*
X20719493Y2050000D01*
X20719496Y2050000D01*
X20723903Y2051181D01*
X20793750Y2049522D01*
X20851615Y2010362D01*
X20879122Y1946135D01*
X20880000Y1931408D01*
X20880000Y1574111D01*
X20880000Y1574110D01*
X20913346Y1580742D01*
X20913352Y1580744D01*
X21058938Y1641048D01*
X21058948Y1641053D01*
X21189969Y1728599D01*
X21189973Y1728602D01*
X21301398Y1840027D01*
X21301401Y1840031D01*
X21388947Y1971052D01*
X21388952Y1971061D01*
X21388955Y1971067D01*
X21421649Y2050000D01*
X21449256Y2116649D01*
X21449258Y2116657D01*
X21478480Y2263568D01*
X21479203Y2266297D01*
X21480000Y2271205D01*
X21480000Y2450000D01*
X21104000Y2450000D01*
X21036961Y2469685D01*
X20991206Y2522489D01*
X20980000Y2574000D01*
X20980000Y2726000D01*
X20999685Y2793039D01*
X21052489Y2838794D01*
X21104000Y2850000D01*
X21480000Y2850000D01*
X21480000Y3026181D01*
X21480000Y3028794D01*
X21479999Y3028798D01*
X21479998Y3028802D01*
X28520000Y3028802D01*
X28520000Y3028798D01*
X28520000Y2850000D01*
X28896000Y2850000D01*
X28963039Y2830315D01*
X29008794Y2777511D01*
X29020000Y2726000D01*
X29020000Y2574000D01*
X29000315Y2506961D01*
X28947511Y2461206D01*
X28896000Y2450000D01*
X28520000Y2450000D01*
X28520000Y2271200D01*
X28550735Y2116683D01*
X28550743Y2116648D01*
X28611043Y1971067D01*
X28611048Y1971057D01*
X28698599Y1840029D01*
X28698605Y1840022D01*
X28810020Y1728607D01*
X28810026Y1728602D01*
X28810027Y1728601D01*
X28941043Y1641058D01*
X28941048Y1641055D01*
X28941051Y1641053D01*
X28941061Y1641048D01*
X29086647Y1580744D01*
X29086653Y1580742D01*
X29119999Y1574110D01*
X29120000Y1574110D01*
X29120000Y1574111D01*
X29120000Y1931408D01*
X29139685Y1998447D01*
X29192489Y2044202D01*
X29261647Y2054146D01*
X29276084Y2051185D01*
X29280504Y2050000D01*
X29359493Y2050000D01*
X29359496Y2050000D01*
X29363903Y2051181D01*
X29433750Y2049522D01*
X29491615Y2010362D01*
X29519122Y1946135D01*
X29520000Y1931408D01*
X29520000Y1574111D01*
X29520000Y1574110D01*
X29553346Y1580742D01*
X29553352Y1580744D01*
X29698938Y1641048D01*
X29698948Y1641053D01*
X29829969Y1728599D01*
X29829973Y1728602D01*
X29941398Y1840027D01*
X29941401Y1840031D01*
X30028947Y1971052D01*
X30028952Y1971061D01*
X30028955Y1971067D01*
X30061649Y2050000D01*
X30089256Y2116649D01*
X30089258Y2116657D01*
X30118480Y2263568D01*
X30119203Y2266297D01*
X30120000Y2271205D01*
X30120000Y2450000D01*
X29744000Y2450000D01*
X29676961Y2469685D01*
X29631206Y2522489D01*
X29620000Y2574000D01*
X29620000Y2726000D01*
X29639685Y2793039D01*
X29692489Y2838794D01*
X29744000Y2850000D01*
X30120000Y2850000D01*
X30120000Y3028796D01*
X30119909Y3029534D01*
X30119408Y3031769D01*
X30089263Y3183319D01*
X30089262Y3183320D01*
X30089258Y3183344D01*
X30089256Y3183352D01*
X30059248Y3255799D01*
X30028955Y3328935D01*
X30028950Y3328945D01*
X29985174Y3394460D01*
X29941401Y3459970D01*
X29941398Y3459974D01*
X29941393Y3459980D01*
X29829978Y3571395D01*
X29829972Y3571400D01*
X29829971Y3571401D01*
X29698942Y3658952D01*
X29698943Y3658952D01*
X29698933Y3658957D01*
X29553351Y3719257D01*
X29553331Y3719262D01*
X29520000Y3725893D01*
X29520000Y3368593D01*
X29500315Y3301554D01*
X29447511Y3255799D01*
X29378353Y3245855D01*
X29363918Y3248816D01*
X29359496Y3250000D01*
X29359494Y3250000D01*
X29280506Y3250000D01*
X29280504Y3250000D01*
X29276089Y3248818D01*
X29206241Y3250482D01*
X29148379Y3289646D01*
X29120877Y3353875D01*
X29120000Y3368593D01*
X29120000Y3725891D01*
X29119999Y3725893D01*
X29086674Y3719263D01*
X29086647Y3719257D01*
X28941065Y3658957D01*
X28941055Y3658952D01*
X28810027Y3571401D01*
X28810026Y3571400D01*
X28810020Y3571395D01*
X28698605Y3459980D01*
X28698600Y3459974D01*
X28611048Y3328945D01*
X28611043Y3328935D01*
X28550743Y3183354D01*
X28550735Y3183319D01*
X28520000Y3028802D01*
X21479998Y3028802D01*
X21449258Y3183344D01*
X21449256Y3183352D01*
X21419248Y3255799D01*
X21388955Y3328935D01*
X21388950Y3328945D01*
X21345174Y3394460D01*
X21301401Y3459970D01*
X21301398Y3459974D01*
X21301393Y3459980D01*
X21189978Y3571395D01*
X21189972Y3571400D01*
X21189971Y3571401D01*
X21058942Y3658952D01*
X21058943Y3658952D01*
X21058933Y3658957D01*
X20913351Y3719257D01*
X20913331Y3719262D01*
X20880000Y3725893D01*
X20880000Y3368593D01*
X20860315Y3301554D01*
X20807511Y3255799D01*
X20738353Y3245855D01*
X20723918Y3248816D01*
X20719496Y3250000D01*
X20719494Y3250000D01*
X20640506Y3250000D01*
X20640504Y3250000D01*
X20636089Y3248818D01*
X20566241Y3250482D01*
X20508379Y3289646D01*
X20480877Y3353875D01*
X20480000Y3368593D01*
X20480000Y3725891D01*
X20479999Y3725893D01*
X20446674Y3719263D01*
X20446647Y3719257D01*
X20301065Y3658957D01*
X20301055Y3658952D01*
X20170027Y3571401D01*
X20170026Y3571400D01*
X20170020Y3571395D01*
X20058605Y3459980D01*
X20058600Y3459974D01*
X19971048Y3328945D01*
X19971043Y3328935D01*
X19910743Y3183354D01*
X19910735Y3183319D01*
X19880000Y3028802D01*
X5518316Y3028802D01*
X5579171Y3134205D01*
X5618280Y3201944D01*
X5618280Y3201945D01*
X5618284Y3201951D01*
X5708606Y3420007D01*
X5769693Y3647986D01*
X5800500Y3881989D01*
X5800500Y4118011D01*
X5800500Y4118013D01*
X44199500Y4118013D01*
X44199500Y3881989D01*
X44199503Y3881960D01*
X44228861Y3658957D01*
X44230306Y3647990D01*
X44280685Y3459974D01*
X44280684Y3459974D01*
X44291391Y3420016D01*
X44291397Y3419998D01*
X44381715Y3201952D01*
X44381719Y3201944D01*
X44420829Y3134205D01*
X44499730Y2997545D01*
X44499939Y2997230D01*
X44500947Y2995960D01*
X44643399Y2810311D01*
X44643403Y2810306D01*
X44643406Y2810303D01*
X44643412Y2810296D01*
X44643420Y2810288D01*
X44810281Y2643426D01*
X44810297Y2643411D01*
X44810305Y2643405D01*
X44997548Y2499728D01*
X44997550Y2499727D01*
X45083680Y2450000D01*
X45083681Y2449999D01*
X45198503Y2383706D01*
X45200241Y2382626D01*
X45201710Y2381811D01*
X45202427Y2381519D01*
X45420007Y2291394D01*
X45647986Y2230307D01*
X45881989Y2199500D01*
X45881996Y2199500D01*
X46118004Y2199500D01*
X46118011Y2199500D01*
X46352014Y2230307D01*
X46579993Y2291394D01*
X46798049Y2381716D01*
X47002450Y2499727D01*
X47189699Y2643408D01*
X47356592Y2810301D01*
X47500273Y2997550D01*
X47618284Y3201951D01*
X47708606Y3420007D01*
X47769693Y3647986D01*
X47800500Y3881989D01*
X47800500Y4118011D01*
X47769693Y4352014D01*
X47708606Y4579993D01*
X47618489Y4797553D01*
X47618189Y4798292D01*
X47617382Y4799745D01*
X47616297Y4801491D01*
X47576118Y4871082D01*
X47500273Y5002450D01*
X47500272Y5002452D01*
X47356595Y5189695D01*
X47356589Y5189703D01*
X47356574Y5189719D01*
X47189712Y5356580D01*
X47189704Y5356588D01*
X47189697Y5356594D01*
X47189694Y5356597D01*
X47189689Y5356601D01*
X47004040Y5499053D01*
X47002776Y5500056D01*
X47002447Y5500275D01*
X47002445Y5500277D01*
X46920957Y5547323D01*
X46920955Y5547325D01*
X46798065Y5618276D01*
X46798048Y5618285D01*
X46579997Y5708605D01*
X46352006Y5769695D01*
X46119889Y5800253D01*
X46118208Y5800500D01*
X46118017Y5800500D01*
X46118011Y5800500D01*
X45881989Y5800500D01*
X45881983Y5800500D01*
X45881981Y5800500D01*
X45875861Y5799747D01*
X45874955Y5799575D01*
X45647992Y5769695D01*
X45420001Y5708605D01*
X45201950Y5618285D01*
X45201942Y5618281D01*
X44997545Y5500270D01*
X44997536Y5500264D01*
X44810309Y5356601D01*
X44810294Y5356587D01*
X44810286Y5356580D01*
X44643420Y5189714D01*
X44643413Y5189706D01*
X44643399Y5189691D01*
X44499736Y5002464D01*
X44499730Y5002455D01*
X44381719Y4798058D01*
X44381715Y4798050D01*
X44291395Y4579999D01*
X44230305Y4352008D01*
X44199503Y4118037D01*
X44199500Y4118013D01*
X5800500Y4118013D01*
X5769693Y4352014D01*
X5708606Y4579993D01*
X5618489Y4797553D01*
X5618189Y4798292D01*
X5617382Y4799745D01*
X5616297Y4801491D01*
X5576118Y4871082D01*
X5500273Y5002450D01*
X5500272Y5002452D01*
X5356595Y5189695D01*
X5356589Y5189703D01*
X5356574Y5189719D01*
X5189712Y5356580D01*
X5189704Y5356588D01*
X5189697Y5356594D01*
X5189694Y5356597D01*
X5189689Y5356601D01*
X5004040Y5499053D01*
X5002776Y5500056D01*
X5002447Y5500275D01*
X5002445Y5500277D01*
X4920957Y5547323D01*
X4920955Y5547325D01*
X4798065Y5618276D01*
X4798048Y5618285D01*
X4579997Y5708605D01*
X4352006Y5769695D01*
X4119889Y5800253D01*
X4118208Y5800500D01*
X4118017Y5800500D01*
X4118011Y5800500D01*
X3881989Y5800500D01*
X3881983Y5800500D01*
X3881981Y5800500D01*
X3875861Y5799747D01*
X3874955Y5799575D01*
X3647992Y5769695D01*
X3420001Y5708605D01*
X3201950Y5618285D01*
X3201942Y5618281D01*
X2997545Y5500270D01*
X2997536Y5500264D01*
X2810309Y5356601D01*
X2810294Y5356587D01*
X2810286Y5356580D01*
X2643420Y5189714D01*
X2643413Y5189706D01*
X2643399Y5189691D01*
X2499736Y5002464D01*
X2499730Y5002455D01*
X2381719Y4798058D01*
X2381715Y4798050D01*
X2291395Y4579999D01*
X2230305Y4352008D01*
X2199503Y4118037D01*
X2199500Y4118013D01*
X500500Y4118013D01*
X500500Y23893248D01*
X520185Y23960287D01*
X572989Y24006042D01*
X642147Y24015986D01*
X705703Y23986961D01*
X731538Y23955848D01*
X780320Y23872437D01*
X780325Y23872429D01*
X826081Y23819624D01*
X826091Y23819613D01*
X870807Y23777452D01*
X870809Y23777451D01*
X870813Y23777447D01*
X970889Y23726561D01*
X1037928Y23706876D01*
X1124000Y23694500D01*
X12875990Y23694500D01*
X12876000Y23694500D01*
X12940941Y23701482D01*
X12992452Y23712688D01*
X13030658Y23723646D01*
X13127571Y23780325D01*
X13180375Y23826080D01*
X13180382Y23826088D01*
X13180387Y23826092D01*
X13222548Y23870808D01*
X13222553Y23870813D01*
X13273439Y23970889D01*
X13273439Y23970891D01*
X13276037Y23975999D01*
X13277234Y23975391D01*
X13316190Y24025214D01*
X13382153Y24048251D01*
X13450099Y24031968D01*
X13498456Y23981537D01*
X13512400Y23924408D01*
X13512400Y10342886D01*
X13507376Y10307949D01*
X13499964Y10282708D01*
X13468669Y10229964D01*
X12204876Y8966172D01*
X12176623Y8945021D01*
X12164441Y8938369D01*
X12096168Y8923517D01*
X12030705Y8947933D01*
X12021885Y8954535D01*
X11993098Y8984907D01*
X11951914Y9046542D01*
X11951911Y9046546D01*
X11951907Y9046551D01*
X11907226Y9091231D01*
X11886072Y9119490D01*
X11883347Y9124480D01*
X11882038Y9126879D01*
X11873466Y9142578D01*
X11858300Y9202001D01*
X11858300Y18890653D01*
X11863323Y18925588D01*
X11870735Y18950831D01*
X11902028Y19003574D01*
X11951914Y19053458D01*
X12028575Y19168189D01*
X12081380Y19295672D01*
X12108300Y19431007D01*
X12108300Y19568993D01*
X12108300Y19568996D01*
X12108300Y19568999D01*
X12081440Y19704025D01*
X12081293Y19704775D01*
X12081152Y19705506D01*
X12079060Y19709928D01*
X12028578Y19831805D01*
X12028571Y19831818D01*
X11951914Y19946542D01*
X11951911Y19946546D01*
X11951906Y19946552D01*
X11854350Y20044108D01*
X11854344Y20044113D01*
X11854343Y20044114D01*
X11739623Y20120768D01*
X11739622Y20120769D01*
X11739617Y20120772D01*
X11739604Y20120779D01*
X11739597Y20120783D01*
X11612154Y20173571D01*
X11612140Y20173576D01*
X11612132Y20173579D01*
X11612122Y20173582D01*
X11612119Y20173583D01*
X11612115Y20173584D01*
X11476798Y20200500D01*
X11476795Y20200500D01*
X11476793Y20200500D01*
X11338807Y20200500D01*
X11338805Y20200500D01*
X11338800Y20200500D01*
X11203483Y20173584D01*
X11203477Y20173582D01*
X11203467Y20173579D01*
X11203462Y20173578D01*
X11203444Y20173571D01*
X11076001Y20120783D01*
X11075992Y20120778D01*
X11075975Y20120768D01*
X10961255Y20044114D01*
X10961254Y20044113D01*
X10961248Y20044108D01*
X10863692Y19946552D01*
X10863687Y19946546D01*
X10863686Y19946545D01*
X10787032Y19831825D01*
X10787022Y19831808D01*
X10787017Y19831799D01*
X10734229Y19704356D01*
X10734216Y19704317D01*
X10707300Y19569000D01*
X10707300Y19475374D01*
X10702037Y19457454D01*
X10734216Y19295685D01*
X10734217Y19295681D01*
X10734218Y19295678D01*
X10734221Y19295668D01*
X10734224Y19295660D01*
X10734229Y19295646D01*
X10787017Y19168203D01*
X10787022Y19168194D01*
X10787032Y19168177D01*
X10863683Y19053461D01*
X10908374Y19008770D01*
X10929524Y18980518D01*
X10942131Y18957431D01*
X10957300Y18898002D01*
X10957300Y14518830D01*
X10952275Y14483886D01*
X10947870Y14468888D01*
X10910127Y14410145D01*
X10908758Y14408958D01*
X10853897Y14381482D01*
X10846339Y14379837D01*
X10819968Y14377000D01*
X6136658Y14377000D01*
X6101719Y14382024D01*
X6088401Y14385935D01*
X6029624Y14423711D01*
X6000603Y14487260D01*
X5999392Y14495681D01*
X6002355Y14545420D01*
X6013000Y14585143D01*
X6013000Y14743257D01*
X5972077Y14895984D01*
X5965563Y14907267D01*
X5941280Y14949328D01*
X5893027Y15032904D01*
X5893024Y15032910D01*
X5893018Y15032918D01*
X5893017Y15032919D01*
X5893013Y15032924D01*
X5781222Y15144715D01*
X5781220Y15144716D01*
X5781217Y15144719D01*
X5781209Y15144725D01*
X5754647Y15160060D01*
X5644307Y15223765D01*
X5644283Y15223778D01*
X5532479Y15253736D01*
X5491557Y15264700D01*
X5491556Y15264700D01*
X5447584Y15264700D01*
X5412648Y15269723D01*
X5387406Y15277135D01*
X5334661Y15308431D01*
X4997515Y15645578D01*
X4997514Y15645579D01*
X4997513Y15645580D01*
X4986719Y15651812D01*
X4951850Y15671945D01*
X4951850Y15671944D01*
X4906189Y15698307D01*
X4855257Y15711954D01*
X4855256Y15711955D01*
X4804330Y15725600D01*
X4804327Y15725600D01*
X4804326Y15725600D01*
X4187890Y15725600D01*
X4187827Y15725601D01*
X4185923Y15725601D01*
X4178327Y15725601D01*
X4072874Y15725601D01*
X3986780Y15702532D01*
X3970167Y15700345D01*
X3956872Y15690143D01*
X3879684Y15645578D01*
X3879681Y15645576D01*
X3376626Y15142522D01*
X3376622Y15142517D01*
X3376613Y15142503D01*
X3323892Y15051191D01*
X3323892Y15051189D01*
X3305835Y14983793D01*
X3305834Y14983788D01*
X3296600Y14949330D01*
X3296600Y12845270D01*
X3306834Y12807076D01*
X3310246Y12794343D01*
X3323893Y12743411D01*
X3323894Y12743410D01*
X3341416Y12713060D01*
X3376619Y12652088D01*
X3376622Y12652085D01*
X5710173Y10318535D01*
X5731323Y10290283D01*
X5743931Y10267194D01*
X5759100Y10207765D01*
X5759100Y10156443D01*
X5786262Y10055075D01*
X5800023Y10003717D01*
X5800024Y10003713D01*
X5800025Y10003712D01*
X5800028Y10003707D01*
X5877229Y9869987D01*
X5878612Y9867416D01*
X5878998Y9866866D01*
X5990936Y9754928D01*
X5991452Y9754548D01*
X5994075Y9753137D01*
X6127809Y9675927D01*
X6127816Y9675923D01*
X6280543Y9635000D01*
X6280545Y9635000D01*
X6438655Y9635000D01*
X6438657Y9635000D01*
X6591384Y9675923D01*
X6728316Y9754980D01*
X6840120Y9866784D01*
X6919177Y10003716D01*
X6960100Y10156443D01*
X6960100Y10314557D01*
X6919177Y10467284D01*
X6895130Y10508935D01*
X6840124Y10604210D01*
X6840118Y10604218D01*
X6840113Y10604224D01*
X6728322Y10716015D01*
X6728320Y10716016D01*
X6728317Y10716019D01*
X6728309Y10716025D01*
X6701747Y10731360D01*
X6591407Y10795065D01*
X6591383Y10795078D01*
X6479579Y10825036D01*
X6438657Y10836000D01*
X6438656Y10836000D01*
X6394684Y10836000D01*
X6359748Y10841023D01*
X6334506Y10848435D01*
X6281761Y10879731D01*
X4146526Y13014967D01*
X4125374Y13043223D01*
X4112767Y13066312D01*
X4097600Y13125737D01*
X4097600Y13809375D01*
X4101435Y13822437D01*
X4100496Y13836017D01*
X4102622Y13844308D01*
X4106533Y13857627D01*
X4116173Y13872628D01*
X4117285Y13876414D01*
X4120267Y13878999D01*
X4144306Y13916404D01*
X4207858Y13945429D01*
X4218764Y13946997D01*
X4260596Y13945877D01*
X4353324Y13927431D01*
X4376603Y13922800D01*
X4376604Y13922800D01*
X4376607Y13922800D01*
X4439805Y13922800D01*
X4474737Y13917779D01*
X4499981Y13910366D01*
X4522977Y13896722D01*
X4539589Y13890481D01*
X4544416Y13884002D01*
X4552727Y13879070D01*
X4865786Y13566011D01*
X4968513Y13506701D01*
X4990790Y13500734D01*
X4994615Y13499642D01*
X5005283Y13496412D01*
X5008492Y13495989D01*
X5022832Y13492147D01*
X5022847Y13492143D01*
X5083091Y13476000D01*
X10815470Y13476000D01*
X10850406Y13470977D01*
X10865404Y13466573D01*
X10924155Y13428828D01*
X10925342Y13427459D01*
X10952818Y13372598D01*
X10954463Y13365040D01*
X10957300Y13338669D01*
X10957300Y9209349D01*
X10952276Y9174412D01*
X10944864Y9149171D01*
X10913569Y9096427D01*
X10863693Y9046552D01*
X10863685Y9046543D01*
X10863682Y9046538D01*
X10787032Y8931825D01*
X10787022Y8931808D01*
X10787017Y8931799D01*
X10734229Y8804356D01*
X10734216Y8804317D01*
X10707300Y8669000D01*
X10707300Y8575374D01*
X10702037Y8557454D01*
X10734216Y8395685D01*
X10734217Y8395681D01*
X10734218Y8395678D01*
X10734221Y8395668D01*
X10734224Y8395660D01*
X10734229Y8395646D01*
X10787017Y8268203D01*
X10787022Y8268194D01*
X10787032Y8268177D01*
X10863686Y8153457D01*
X10863687Y8153456D01*
X10863692Y8153450D01*
X10961251Y8055891D01*
X10961254Y8055889D01*
X10961258Y8055886D01*
X11020624Y8016218D01*
X11046877Y7992635D01*
X11054890Y7983047D01*
X11082776Y7918984D01*
X11071600Y7850014D01*
X11024910Y7798035D01*
X11019191Y7794710D01*
X11011812Y7790679D01*
X10952366Y7775500D01*
X10753428Y7775500D01*
X10718492Y7780523D01*
X10693250Y7787935D01*
X10640504Y7819232D01*
X10604221Y7855516D01*
X10604217Y7855519D01*
X10604209Y7855525D01*
X10544548Y7889970D01*
X10467307Y7934565D01*
X10467283Y7934578D01*
X10355479Y7964536D01*
X10314557Y7975500D01*
X10314556Y7975500D01*
X10156443Y7975500D01*
X10003718Y7934578D01*
X10003711Y7934576D01*
X10003710Y7934575D01*
X10003700Y7934570D01*
X9866798Y7855530D01*
X9866794Y7855528D01*
X9866790Y7855525D01*
X9866782Y7855519D01*
X9866778Y7855516D01*
X9866776Y7855515D01*
X9754985Y7743724D01*
X9754984Y7743722D01*
X9754981Y7743719D01*
X9754981Y7743718D01*
X9754975Y7743710D01*
X9754972Y7743706D01*
X9754970Y7743702D01*
X9675930Y7606800D01*
X9675925Y7606790D01*
X9675924Y7606789D01*
X9675922Y7606782D01*
X9635000Y7454057D01*
X9635000Y7295945D01*
X9675922Y7143220D01*
X9675924Y7143213D01*
X9675925Y7143212D01*
X9675928Y7143207D01*
X9753129Y7009487D01*
X9754512Y7006916D01*
X9754898Y7006366D01*
X9866836Y6894428D01*
X9867352Y6894048D01*
X9869975Y6892637D01*
X9986262Y6825500D01*
X10003716Y6815423D01*
X10156443Y6774500D01*
X10156445Y6774500D01*
X10314554Y6774500D01*
X10314555Y6774500D01*
X10314557Y6774500D01*
X10467284Y6815423D01*
X10604216Y6894480D01*
X10635311Y6925576D01*
X10663562Y6946725D01*
X10686654Y6959333D01*
X10746079Y6974500D01*
X11232825Y6974500D01*
X11232827Y6974500D01*
X11334688Y7001793D01*
X11426013Y7054520D01*
X11830295Y7458802D01*
X19880000Y7458802D01*
X19880000Y7458798D01*
X19880000Y7030000D01*
X20256000Y7030000D01*
X20323039Y7010315D01*
X20368794Y6957511D01*
X20380000Y6906000D01*
X20380000Y6754000D01*
X20360315Y6686961D01*
X20307511Y6641206D01*
X20256000Y6630000D01*
X19880000Y6630000D01*
X19880000Y6201200D01*
X19910735Y6046683D01*
X19910743Y6046648D01*
X19971043Y5901067D01*
X19971048Y5901057D01*
X20058599Y5770029D01*
X20058600Y5770028D01*
X20058605Y5770022D01*
X20170020Y5658607D01*
X20170026Y5658602D01*
X20170027Y5658601D01*
X20301043Y5571058D01*
X20301048Y5571055D01*
X20301051Y5571053D01*
X20301061Y5571048D01*
X20446647Y5510744D01*
X20446653Y5510742D01*
X20479999Y5504110D01*
X20480000Y5504110D01*
X20480000Y5504111D01*
X20480000Y5861408D01*
X20499685Y5928447D01*
X20552489Y5974202D01*
X20621647Y5984146D01*
X20636084Y5981185D01*
X20640504Y5980000D01*
X20719493Y5980000D01*
X20719496Y5980000D01*
X20723903Y5981181D01*
X20793750Y5979522D01*
X20851615Y5940362D01*
X20879122Y5876135D01*
X20880000Y5861408D01*
X20880000Y5504111D01*
X20880000Y5504110D01*
X20913346Y5510742D01*
X20913352Y5510744D01*
X21058938Y5571048D01*
X21058948Y5571053D01*
X21189969Y5658599D01*
X21189973Y5658602D01*
X21301398Y5770027D01*
X21301401Y5770031D01*
X21388947Y5901052D01*
X21388954Y5901065D01*
X21429850Y5999799D01*
X21447850Y6030139D01*
X21455682Y6039858D01*
X21513071Y6079707D01*
X21582896Y6082205D01*
X21640440Y6049210D01*
X21645615Y6043973D01*
X21647411Y6042155D01*
X21666593Y6017001D01*
X21689488Y5977345D01*
X21689492Y5977339D01*
X21689494Y5977336D01*
X21689495Y5977335D01*
X21787335Y5879495D01*
X21787336Y5879494D01*
X21787338Y5879493D01*
X21818663Y5861408D01*
X21907164Y5810312D01*
X22040817Y5774500D01*
X22040819Y5774500D01*
X22179181Y5774500D01*
X22179183Y5774500D01*
X22312836Y5810312D01*
X22432665Y5879495D01*
X22530505Y5977335D01*
X22599688Y6097164D01*
X22635500Y6230817D01*
X22635500Y6369183D01*
X27364500Y6369183D01*
X27364500Y6230818D01*
X27383069Y6161515D01*
X27400308Y6097179D01*
X27400313Y6097162D01*
X27400317Y6097154D01*
X27469488Y5977345D01*
X27469492Y5977339D01*
X27469494Y5977336D01*
X27469495Y5977335D01*
X27567335Y5879495D01*
X27567336Y5879494D01*
X27567338Y5879493D01*
X27598663Y5861408D01*
X27687164Y5810312D01*
X27820817Y5774500D01*
X27820819Y5774500D01*
X27959181Y5774500D01*
X27959183Y5774500D01*
X28092836Y5810312D01*
X28212665Y5879495D01*
X28310505Y5977335D01*
X28332467Y6015378D01*
X28354279Y6043114D01*
X28363313Y6051728D01*
X28425414Y6083741D01*
X28494967Y6077099D01*
X28547705Y6036879D01*
X28552812Y6030141D01*
X28553697Y6028973D01*
X28569431Y6001531D01*
X28611049Y5901057D01*
X28611050Y5901055D01*
X28611056Y5901045D01*
X28698599Y5770029D01*
X28698600Y5770028D01*
X28698605Y5770022D01*
X28810020Y5658607D01*
X28810026Y5658602D01*
X28810027Y5658601D01*
X28941043Y5571058D01*
X28941048Y5571055D01*
X28941051Y5571053D01*
X28941061Y5571048D01*
X29086647Y5510744D01*
X29086653Y5510742D01*
X29119999Y5504110D01*
X29120000Y5504110D01*
X29120000Y5504111D01*
X29120000Y5861408D01*
X29139685Y5928447D01*
X29192489Y5974202D01*
X29261647Y5984146D01*
X29276084Y5981185D01*
X29280504Y5980000D01*
X29359493Y5980000D01*
X29359496Y5980000D01*
X29363903Y5981181D01*
X29433750Y5979522D01*
X29491615Y5940362D01*
X29519122Y5876135D01*
X29520000Y5861408D01*
X29520000Y5504111D01*
X29520000Y5504110D01*
X29553346Y5510742D01*
X29553352Y5510744D01*
X29698938Y5571048D01*
X29698948Y5571053D01*
X29829969Y5658599D01*
X29829973Y5658602D01*
X29941398Y5770027D01*
X29941401Y5770031D01*
X30028947Y5901052D01*
X30028952Y5901061D01*
X30028954Y5901065D01*
X30028955Y5901067D01*
X30061649Y5980000D01*
X30089256Y6046649D01*
X30089258Y6046657D01*
X30118480Y6193568D01*
X30119203Y6196297D01*
X30120000Y6201205D01*
X30120000Y6630000D01*
X29744000Y6630000D01*
X29676961Y6649685D01*
X29631206Y6702489D01*
X29620000Y6754000D01*
X29620000Y6906000D01*
X29639685Y6973039D01*
X29692489Y7018794D01*
X29744000Y7030000D01*
X30120000Y7030000D01*
X30120000Y7458796D01*
X30119909Y7459534D01*
X30119408Y7461769D01*
X30089263Y7613319D01*
X30089262Y7613320D01*
X30089258Y7613344D01*
X30089256Y7613352D01*
X30059248Y7685799D01*
X30028955Y7758935D01*
X30028950Y7758945D01*
X29941399Y7889973D01*
X29941398Y7889974D01*
X29941393Y7889980D01*
X29829978Y8001395D01*
X29829972Y8001400D01*
X29829971Y8001401D01*
X29698942Y8088952D01*
X29698943Y8088952D01*
X29698933Y8088957D01*
X29553351Y8149257D01*
X29553331Y8149262D01*
X29520000Y8155893D01*
X29520000Y7798593D01*
X29500315Y7731554D01*
X29447511Y7685799D01*
X29378353Y7675855D01*
X29363918Y7678816D01*
X29359496Y7680000D01*
X29359494Y7680000D01*
X29280506Y7680000D01*
X29280504Y7680000D01*
X29276089Y7678818D01*
X29206241Y7680482D01*
X29148379Y7719646D01*
X29120877Y7783875D01*
X29120000Y7798593D01*
X29120000Y8155891D01*
X29119999Y8155893D01*
X29086674Y8149263D01*
X29086647Y8149257D01*
X28941065Y8088957D01*
X28941055Y8088952D01*
X28810027Y8001401D01*
X28810026Y8001400D01*
X28810020Y8001395D01*
X28698605Y7889980D01*
X28698600Y7889974D01*
X28698599Y7889973D01*
X28611048Y7758945D01*
X28611043Y7758935D01*
X28550743Y7613354D01*
X28550735Y7613319D01*
X28520000Y7458802D01*
X28520000Y7458798D01*
X28520000Y7030000D01*
X28896000Y7030000D01*
X28963039Y7010315D01*
X29008794Y6957511D01*
X29020000Y6906000D01*
X29020000Y6754000D01*
X29000315Y6686961D01*
X28947511Y6641206D01*
X28896000Y6630000D01*
X28519999Y6630000D01*
X28510864Y6620865D01*
X28482608Y6599714D01*
X28470209Y6592944D01*
X28401936Y6578094D01*
X28337063Y6602073D01*
X28321599Y6613507D01*
X28307640Y6625531D01*
X28212674Y6720497D01*
X28212667Y6720503D01*
X28212661Y6720508D01*
X28212660Y6720509D01*
X28154650Y6754000D01*
X28106973Y6781527D01*
X28100442Y6786538D01*
X28085230Y6792839D01*
X28077068Y6793913D01*
X28076059Y6794184D01*
X27959183Y6825500D01*
X27959182Y6825500D01*
X27820817Y6825500D01*
X27687177Y6789692D01*
X27687160Y6789687D01*
X27687148Y6789681D01*
X27567347Y6720515D01*
X27567337Y6720508D01*
X27567331Y6720503D01*
X27567324Y6720497D01*
X27469503Y6622676D01*
X27469497Y6622669D01*
X27469492Y6622663D01*
X27469485Y6622653D01*
X27400319Y6502852D01*
X27400313Y6502840D01*
X27400308Y6502823D01*
X27364500Y6369183D01*
X22635500Y6369183D01*
X22599688Y6502836D01*
X22532622Y6618998D01*
X22530507Y6622662D01*
X22530503Y6622667D01*
X22530501Y6622669D01*
X22530495Y6622676D01*
X22432674Y6720497D01*
X22432667Y6720503D01*
X22432661Y6720508D01*
X22432660Y6720509D01*
X22374650Y6754000D01*
X22326973Y6781527D01*
X22320442Y6786538D01*
X22305230Y6792839D01*
X22297068Y6793913D01*
X22296059Y6794184D01*
X22179183Y6825500D01*
X22179182Y6825500D01*
X22040817Y6825500D01*
X21907177Y6789692D01*
X21907160Y6789687D01*
X21907148Y6789681D01*
X21787347Y6720515D01*
X21787337Y6720508D01*
X21787332Y6720504D01*
X21692676Y6625848D01*
X21678114Y6613382D01*
X21661985Y6601606D01*
X21596234Y6577973D01*
X21528789Y6593280D01*
X21517004Y6599807D01*
X21489400Y6620600D01*
X21480000Y6630000D01*
X21104000Y6630000D01*
X21036961Y6649685D01*
X20991206Y6702489D01*
X20980000Y6754000D01*
X20980000Y6906000D01*
X20999685Y6973039D01*
X21052489Y7018794D01*
X21104000Y7030000D01*
X21480000Y7030000D01*
X21480000Y7458796D01*
X21479909Y7459534D01*
X21479408Y7461769D01*
X21449263Y7613319D01*
X21449262Y7613320D01*
X21449258Y7613344D01*
X21449256Y7613352D01*
X21419248Y7685799D01*
X21388955Y7758935D01*
X21388950Y7758945D01*
X21301399Y7889973D01*
X21301398Y7889974D01*
X21301393Y7889980D01*
X21189978Y8001395D01*
X21189972Y8001400D01*
X21189971Y8001401D01*
X21058942Y8088952D01*
X21058943Y8088952D01*
X21058933Y8088957D01*
X20913351Y8149257D01*
X20913331Y8149262D01*
X20880000Y8155893D01*
X20880000Y7798593D01*
X20860315Y7731554D01*
X20807511Y7685799D01*
X20738353Y7675855D01*
X20723918Y7678816D01*
X20719496Y7680000D01*
X20719494Y7680000D01*
X20640506Y7680000D01*
X20640504Y7680000D01*
X20636089Y7678818D01*
X20566241Y7680482D01*
X20508379Y7719646D01*
X20480877Y7783875D01*
X20480000Y7798593D01*
X20480000Y8155891D01*
X20479999Y8155893D01*
X20446674Y8149263D01*
X20446647Y8149257D01*
X20301065Y8088957D01*
X20301055Y8088952D01*
X20170027Y8001401D01*
X20170026Y8001400D01*
X20170020Y8001395D01*
X20058605Y7889980D01*
X20058600Y7889974D01*
X20058599Y7889973D01*
X19971048Y7758945D01*
X19971043Y7758935D01*
X19910743Y7613354D01*
X19910735Y7613319D01*
X19880000Y7458802D01*
X11830295Y7458802D01*
X14233380Y9861887D01*
X14286107Y9953212D01*
X14313400Y10055073D01*
X14313400Y10160527D01*
X14313400Y27349057D01*
X16858600Y27349057D01*
X16858600Y27190941D01*
X16875182Y27129060D01*
X16875182Y27129057D01*
X16875183Y27129057D01*
X16899522Y27038220D01*
X16899524Y27038213D01*
X16979572Y26899564D01*
X16979412Y26899472D01*
X16988543Y26881152D01*
X17000256Y26850859D01*
X17008600Y26806142D01*
X17008600Y15511691D01*
X17032811Y15421331D01*
X17035074Y15412886D01*
X17036148Y15404722D01*
X17042450Y15389508D01*
X17047463Y15382976D01*
X17098608Y15294390D01*
X17098613Y15294384D01*
X18336590Y14056407D01*
X18357741Y14028154D01*
X18364268Y14016201D01*
X18379120Y13947928D01*
X18354704Y13882464D01*
X18305944Y13843526D01*
X18297314Y13839677D01*
X18280893Y13833701D01*
X18279068Y13833180D01*
X18279055Y13833175D01*
X18151601Y13780383D01*
X18151592Y13780378D01*
X18151575Y13780368D01*
X18036855Y13703714D01*
X18036852Y13703711D01*
X17939292Y13606152D01*
X17939287Y13606146D01*
X17939286Y13606145D01*
X17862632Y13491425D01*
X17862622Y13491408D01*
X17862617Y13491399D01*
X17809829Y13363956D01*
X17809816Y13363917D01*
X17782900Y13228600D01*
X17782900Y13134974D01*
X17777637Y13117054D01*
X17809816Y12955285D01*
X17809817Y12955281D01*
X17809818Y12955278D01*
X17809821Y12955268D01*
X17809824Y12955260D01*
X17809829Y12955246D01*
X17862617Y12827803D01*
X17862622Y12827794D01*
X17862632Y12827777D01*
X17939284Y12713060D01*
X17939287Y12713056D01*
X17939292Y12713050D01*
X18036848Y12615494D01*
X18036854Y12615489D01*
X18036858Y12615486D01*
X18151582Y12538829D01*
X18151595Y12538822D01*
X18273472Y12488340D01*
X18277894Y12486248D01*
X18278625Y12486107D01*
X18279279Y12485979D01*
X18334872Y12474921D01*
X18414402Y12459100D01*
X18414404Y12459100D01*
X18414407Y12459100D01*
X18477605Y12459100D01*
X18512537Y12454079D01*
X18537781Y12446666D01*
X18590527Y12415370D01*
X20634773Y10371124D01*
X20655923Y10342872D01*
X20668531Y10319783D01*
X20683700Y10260354D01*
X20683700Y9990049D01*
X20678676Y9955112D01*
X20671264Y9929871D01*
X20639969Y9877127D01*
X20590093Y9827252D01*
X20590085Y9827243D01*
X20590082Y9827238D01*
X20513432Y9712525D01*
X20513422Y9712508D01*
X20513417Y9712499D01*
X20460629Y9585056D01*
X20460616Y9585017D01*
X20433700Y9449700D01*
X20433700Y9356074D01*
X20428437Y9338154D01*
X20460616Y9176385D01*
X20460617Y9176381D01*
X20460618Y9176378D01*
X20460621Y9176368D01*
X20460624Y9176360D01*
X20460629Y9176346D01*
X20513417Y9048903D01*
X20513422Y9048894D01*
X20513432Y9048877D01*
X20590086Y8934157D01*
X20590087Y8934156D01*
X20590092Y8934150D01*
X20687648Y8836594D01*
X20687654Y8836589D01*
X20687658Y8836586D01*
X20802382Y8759929D01*
X20802395Y8759922D01*
X20802397Y8759922D01*
X20802401Y8759919D01*
X20880259Y8727670D01*
X20916120Y8712816D01*
X20916881Y8712501D01*
X20916883Y8712500D01*
X20924263Y8709443D01*
X20928671Y8707359D01*
X21065201Y8680200D01*
X21065204Y8680200D01*
X21065207Y8680200D01*
X21128405Y8680200D01*
X21163337Y8675179D01*
X21188581Y8667766D01*
X21241326Y8636471D01*
X21976286Y7901510D01*
X21976287Y7901509D01*
X21976289Y7901508D01*
X21996267Y7889974D01*
X22079013Y7842201D01*
X22101290Y7836234D01*
X22105115Y7835142D01*
X22115783Y7831912D01*
X22118992Y7831489D01*
X22133332Y7827647D01*
X22133347Y7827643D01*
X22193591Y7811500D01*
X22193593Y7811500D01*
X26848608Y7811500D01*
X26848609Y7811500D01*
X26924784Y7831912D01*
X26938966Y7835712D01*
X26938967Y7835713D01*
X26938973Y7835714D01*
X26963187Y7842201D01*
X27065914Y7901511D01*
X27506979Y8342577D01*
X27535229Y8363725D01*
X27558321Y8376333D01*
X27617746Y8391500D01*
X27688296Y8391500D01*
X27733818Y8400556D01*
X27779341Y8409611D01*
X27823628Y8418420D01*
X27951111Y8471225D01*
X28065842Y8547886D01*
X28163414Y8645458D01*
X28240075Y8760189D01*
X28250348Y8784989D01*
X28271684Y8836500D01*
X28292880Y8887672D01*
X28292880Y8887675D01*
X28292882Y8887679D01*
X28308647Y8966934D01*
X28308647Y8966935D01*
X28315553Y9001655D01*
X28319800Y9023005D01*
X28319800Y9160996D01*
X28319800Y9160999D01*
X28292641Y9297530D01*
X28290551Y9301950D01*
X28286510Y9311707D01*
X28240081Y9423799D01*
X28240076Y9423808D01*
X28240071Y9423818D01*
X28163414Y9538542D01*
X28163411Y9538546D01*
X28163406Y9538552D01*
X28065850Y9636108D01*
X28065844Y9636113D01*
X28065843Y9636114D01*
X27951123Y9712768D01*
X27951122Y9712769D01*
X27951117Y9712772D01*
X27951104Y9712779D01*
X27951097Y9712783D01*
X27823654Y9765571D01*
X27823640Y9765576D01*
X27823632Y9765579D01*
X27823622Y9765582D01*
X27823619Y9765583D01*
X27823615Y9765584D01*
X27688298Y9792500D01*
X27688295Y9792500D01*
X27688293Y9792500D01*
X27550307Y9792500D01*
X27550305Y9792500D01*
X27550300Y9792500D01*
X27414983Y9765584D01*
X27414977Y9765582D01*
X27414967Y9765579D01*
X27414962Y9765578D01*
X27414944Y9765571D01*
X27287501Y9712783D01*
X27287492Y9712778D01*
X27287475Y9712768D01*
X27172755Y9636114D01*
X27172754Y9636113D01*
X27172748Y9636108D01*
X27075192Y9538552D01*
X27075187Y9538546D01*
X27075186Y9538545D01*
X26998532Y9423825D01*
X26998522Y9423808D01*
X26998517Y9423799D01*
X26945729Y9296356D01*
X26945716Y9296317D01*
X26918800Y9161000D01*
X26918800Y9097795D01*
X26913776Y9062858D01*
X26906364Y9037617D01*
X26875069Y8984873D01*
X26651623Y8761427D01*
X26623372Y8740278D01*
X26600284Y8727670D01*
X26540854Y8712500D01*
X26240730Y8712500D01*
X26205789Y8717525D01*
X26190790Y8721930D01*
X26132044Y8759673D01*
X26130857Y8761042D01*
X26103377Y8815917D01*
X26101732Y8823479D01*
X26098900Y8849832D01*
X26098900Y9001655D01*
X26098900Y9001657D01*
X26057977Y9154384D01*
X26017586Y9224344D01*
X26017586Y9224345D01*
X25985197Y9280445D01*
X25984019Y9283065D01*
X25979912Y9289710D01*
X25978020Y9292876D01*
X25977135Y9294408D01*
X25968856Y9311707D01*
X25957240Y9341751D01*
X25948900Y9386459D01*
X25948900Y12351507D01*
X25948900Y12351509D01*
X25918199Y12466086D01*
X25918199Y12466087D01*
X25858889Y12568814D01*
X24217707Y14209996D01*
X24196556Y14238249D01*
X24182129Y14264670D01*
X24172613Y14293839D01*
X24171003Y14293407D01*
X24168900Y14301257D01*
X24127977Y14453984D01*
X24082304Y14533093D01*
X24082304Y14533094D01*
X24055197Y14580044D01*
X24054018Y14582666D01*
X24049915Y14589304D01*
X24048002Y14592505D01*
X24047117Y14594038D01*
X24038856Y14611306D01*
X24027240Y14641351D01*
X24018900Y14686059D01*
X24018900Y25532241D01*
X24023923Y25567176D01*
X24032193Y25595341D01*
X24046018Y25621180D01*
X24043819Y25622449D01*
X24050769Y25634487D01*
X24127977Y25768216D01*
X24168900Y25920943D01*
X24168900Y26079057D01*
X34367400Y26079057D01*
X34367400Y25920943D01*
X34393501Y25823534D01*
X34398616Y25804445D01*
X34398622Y25804424D01*
X34408324Y25768213D01*
X34408325Y25768212D01*
X34408326Y25768210D01*
X34427394Y25735182D01*
X34485529Y25634487D01*
X34486912Y25631916D01*
X34487298Y25631366D01*
X34599236Y25519428D01*
X34599752Y25519048D01*
X34602375Y25517637D01*
X34736109Y25440427D01*
X34736116Y25440423D01*
X34888843Y25399500D01*
X34932815Y25399500D01*
X34967747Y25394479D01*
X34992991Y25387066D01*
X35045737Y25355770D01*
X39830673Y20570834D01*
X39851823Y20542582D01*
X39864431Y20519493D01*
X39879600Y20460064D01*
X39879600Y11885528D01*
X39874576Y11850591D01*
X39867164Y11825350D01*
X39835869Y11772606D01*
X39799586Y11736324D01*
X39799580Y11736318D01*
X39799570Y11736302D01*
X39720530Y11599400D01*
X39720525Y11599390D01*
X39720524Y11599389D01*
X39720523Y11599385D01*
X39720523Y11599384D01*
X39679600Y11446657D01*
X39679600Y11288544D01*
X39703226Y11200370D01*
X39720522Y11135820D01*
X39720524Y11135813D01*
X39720525Y11135812D01*
X39720528Y11135807D01*
X39797729Y11002087D01*
X39799112Y10999516D01*
X39799498Y10998966D01*
X39911436Y10887028D01*
X39911955Y10886647D01*
X39914593Y10885227D01*
X39965758Y10855687D01*
X39965759Y10855687D01*
X39965762Y10855685D01*
X40048316Y10808023D01*
X40201043Y10767100D01*
X40201045Y10767100D01*
X40359155Y10767100D01*
X40359157Y10767100D01*
X40511884Y10808023D01*
X40648816Y10887080D01*
X40760620Y10998884D01*
X40839677Y11135816D01*
X40880600Y11288543D01*
X40880600Y11446657D01*
X40839677Y11599384D01*
X40839673Y11599391D01*
X40760624Y11736310D01*
X40760618Y11736318D01*
X40729523Y11767413D01*
X40708372Y11795669D01*
X40705647Y11800659D01*
X40704338Y11803058D01*
X40695766Y11818757D01*
X40680600Y11878180D01*
X40680600Y20740525D01*
X40680600Y20740527D01*
X40653307Y20842387D01*
X40653307Y20842388D01*
X40600580Y20933713D01*
X35617326Y25916967D01*
X35596174Y25945223D01*
X35583567Y25968312D01*
X35568400Y26027737D01*
X35568400Y26079055D01*
X35568400Y26079057D01*
X35527477Y26231784D01*
X35496786Y26284943D01*
X35448424Y26368710D01*
X35448418Y26368718D01*
X35448413Y26368724D01*
X35336622Y26480515D01*
X35336620Y26480516D01*
X35336617Y26480519D01*
X35336609Y26480525D01*
X35310047Y26495860D01*
X35199707Y26559565D01*
X35199683Y26559578D01*
X35064546Y26595787D01*
X35046957Y26600500D01*
X35046956Y26600500D01*
X34888843Y26600500D01*
X34736118Y26559578D01*
X34736111Y26559576D01*
X34736110Y26559575D01*
X34736100Y26559570D01*
X34599198Y26480530D01*
X34599194Y26480528D01*
X34599190Y26480525D01*
X34599182Y26480519D01*
X34599178Y26480516D01*
X34599176Y26480515D01*
X34487385Y26368724D01*
X34487384Y26368722D01*
X34487381Y26368719D01*
X34487381Y26368718D01*
X34487375Y26368710D01*
X34487372Y26368706D01*
X34487370Y26368702D01*
X34408330Y26231800D01*
X34408325Y26231790D01*
X34408324Y26231789D01*
X34408323Y26231784D01*
X34367400Y26079057D01*
X24168900Y26079057D01*
X24127977Y26231784D01*
X24097286Y26284943D01*
X24048924Y26368710D01*
X24048918Y26368718D01*
X24048913Y26368724D01*
X23937122Y26480515D01*
X23937120Y26480516D01*
X23937117Y26480519D01*
X23937109Y26480525D01*
X23910547Y26495860D01*
X23800207Y26559565D01*
X23800183Y26559578D01*
X23665046Y26595787D01*
X23647457Y26600500D01*
X23647456Y26600500D01*
X23489343Y26600500D01*
X23336618Y26559578D01*
X23336611Y26559576D01*
X23336610Y26559575D01*
X23336600Y26559570D01*
X23199698Y26480530D01*
X23199694Y26480528D01*
X23199690Y26480525D01*
X23199682Y26480519D01*
X23199678Y26480516D01*
X23199676Y26480515D01*
X23087885Y26368724D01*
X23087884Y26368722D01*
X23087881Y26368719D01*
X23087881Y26368718D01*
X23087875Y26368710D01*
X23087872Y26368706D01*
X23087870Y26368702D01*
X23008830Y26231800D01*
X23008825Y26231790D01*
X23008824Y26231789D01*
X23008823Y26231784D01*
X22967900Y26079057D01*
X22967900Y25920943D01*
X22994001Y25823534D01*
X22999116Y25804445D01*
X22999122Y25804424D01*
X23008824Y25768213D01*
X23011545Y25763500D01*
X23087831Y25631366D01*
X23088872Y25629564D01*
X23088712Y25629472D01*
X23097843Y25611152D01*
X23109556Y25580859D01*
X23117900Y25536142D01*
X23117900Y14689961D01*
X23112876Y14655023D01*
X23104232Y14625587D01*
X23089717Y14594538D01*
X23089906Y14594429D01*
X23088646Y14592249D01*
X23088364Y14591643D01*
X23087874Y14590911D01*
X23008834Y14454008D01*
X23008825Y14453990D01*
X23008824Y14453989D01*
X23008822Y14453982D01*
X23000711Y14423711D01*
X22967900Y14301257D01*
X22967900Y14143143D01*
X23005578Y14002529D01*
X23005578Y14002527D01*
X23008821Y13990423D01*
X23008824Y13990414D01*
X23008828Y13990407D01*
X23086029Y13856687D01*
X23087412Y13854116D01*
X23087798Y13853566D01*
X23199736Y13741628D01*
X23200255Y13741247D01*
X23202893Y13739827D01*
X23265443Y13703714D01*
X23265444Y13703714D01*
X23265447Y13703712D01*
X23336616Y13662623D01*
X23489343Y13621700D01*
X23489344Y13621700D01*
X23492804Y13620773D01*
X23510872Y13614399D01*
X23540327Y13601370D01*
X23577847Y13575650D01*
X24998973Y12154524D01*
X25020123Y12126272D01*
X25032731Y12103183D01*
X25047900Y12043754D01*
X25047900Y9390361D01*
X25042876Y9355423D01*
X25034232Y9325987D01*
X25019717Y9294938D01*
X25019906Y9294829D01*
X25018646Y9292649D01*
X25018364Y9292043D01*
X25017874Y9291311D01*
X24938834Y9154408D01*
X24938825Y9154390D01*
X24938824Y9154389D01*
X24938822Y9154382D01*
X24897900Y9001657D01*
X24897900Y8854330D01*
X24892875Y8819386D01*
X24888470Y8804388D01*
X24850727Y8745645D01*
X24849358Y8744458D01*
X24794497Y8716982D01*
X24786939Y8715337D01*
X24760568Y8712500D01*
X24302228Y8712500D01*
X24267293Y8717523D01*
X24256439Y8720710D01*
X24197661Y8758484D01*
X24168636Y8822040D01*
X24178576Y8891189D01*
X24181766Y8898176D01*
X24202513Y8928055D01*
X24202274Y8928239D01*
X24206139Y8933277D01*
X24206882Y8934347D01*
X24207220Y8934684D01*
X24286277Y9071616D01*
X24327200Y9224343D01*
X24327200Y9382457D01*
X24286277Y9535184D01*
X24228649Y9635000D01*
X24207224Y9672110D01*
X24207218Y9672118D01*
X24207213Y9672124D01*
X24095422Y9783915D01*
X24095420Y9783916D01*
X24095417Y9783919D01*
X24095409Y9783925D01*
X24020379Y9827243D01*
X23958507Y9862965D01*
X23958484Y9862977D01*
X23806722Y9903642D01*
X23804769Y9904183D01*
X23801372Y9905153D01*
X23801513Y9905648D01*
X23784222Y9911203D01*
X23754761Y9924237D01*
X23717249Y9949954D01*
X17958526Y15708677D01*
X17937374Y15736933D01*
X17924767Y15760022D01*
X17909600Y15819447D01*
X17909600Y26802241D01*
X17914623Y26837176D01*
X17922893Y26865341D01*
X17936718Y26891180D01*
X17934519Y26892449D01*
X17952490Y26923576D01*
X18018677Y27038216D01*
X18059600Y27190943D01*
X18059600Y27349057D01*
X18018677Y27501784D01*
X18002087Y27530519D01*
X17939624Y27638710D01*
X17939618Y27638718D01*
X17939614Y27638722D01*
X17939613Y27638724D01*
X17827822Y27750515D01*
X17827820Y27750516D01*
X17827817Y27750519D01*
X17827809Y27750525D01*
X17746471Y27797485D01*
X17690907Y27829565D01*
X17690883Y27829578D01*
X17579079Y27859536D01*
X17538157Y27870500D01*
X17538156Y27870500D01*
X17380043Y27870500D01*
X17227318Y27829578D01*
X17227311Y27829576D01*
X17227310Y27829575D01*
X17227300Y27829570D01*
X17090398Y27750530D01*
X17090394Y27750528D01*
X17090390Y27750525D01*
X17090382Y27750519D01*
X17090378Y27750516D01*
X17090376Y27750515D01*
X16978585Y27638724D01*
X16978584Y27638722D01*
X16978581Y27638719D01*
X16978581Y27638718D01*
X16978575Y27638710D01*
X16978572Y27638706D01*
X16978570Y27638702D01*
X16899530Y27501800D01*
X16899525Y27501790D01*
X16899524Y27501789D01*
X16899522Y27501782D01*
X16858600Y27349057D01*
X14313400Y27349057D01*
X14313400Y32716673D01*
X14318422Y32751606D01*
X14325834Y32776851D01*
X14357129Y32829594D01*
X14393420Y32865884D01*
X14472477Y33002816D01*
X14513400Y33155543D01*
X14513400Y33199516D01*
X14518422Y33234449D01*
X14525834Y33259694D01*
X14557128Y33312436D01*
X16062910Y34818217D01*
X17776680Y36531987D01*
X17829407Y36623312D01*
X17856700Y36725173D01*
X17856700Y36830627D01*
X17856700Y37509057D01*
X34356100Y37509057D01*
X34356100Y37350944D01*
X34379726Y37262770D01*
X34397022Y37198220D01*
X34397024Y37198213D01*
X34397025Y37198212D01*
X34397030Y37198202D01*
X34457050Y37094244D01*
X34476075Y37061291D01*
X34476081Y37061283D01*
X34507175Y37030189D01*
X34528325Y37001936D01*
X34540932Y36978848D01*
X34556100Y36919421D01*
X34556100Y27990671D01*
X34583391Y27888814D01*
X34609755Y27843151D01*
X34617599Y27829565D01*
X34636120Y27797487D01*
X34636122Y27797485D01*
X35986573Y26447034D01*
X36007723Y26418782D01*
X36020331Y26395693D01*
X36035500Y26336264D01*
X36035500Y26284944D01*
X36035501Y26284942D01*
X36076422Y26132220D01*
X36076424Y26132213D01*
X36076425Y26132212D01*
X36076428Y26132207D01*
X36153629Y25998487D01*
X36155012Y25995916D01*
X36155398Y25995366D01*
X36267336Y25883428D01*
X36267852Y25883048D01*
X36270475Y25881637D01*
X36404209Y25804427D01*
X36404216Y25804423D01*
X36556943Y25763500D01*
X36556945Y25763500D01*
X36715055Y25763500D01*
X36715057Y25763500D01*
X36867784Y25804423D01*
X37004716Y25883480D01*
X37116520Y25995284D01*
X37195577Y26132216D01*
X37236500Y26284943D01*
X37236500Y26443057D01*
X37195577Y26595784D01*
X37146210Y26681291D01*
X37146209Y26681293D01*
X37116528Y26732704D01*
X37116520Y26732716D01*
X37116513Y26732724D01*
X37004722Y26844515D01*
X37004720Y26844516D01*
X37004717Y26844519D01*
X37004709Y26844525D01*
X36968654Y26865341D01*
X36867807Y26923565D01*
X36867783Y26923578D01*
X36755979Y26953536D01*
X36715057Y26964500D01*
X36715056Y26964500D01*
X36671085Y26964500D01*
X36636149Y26969523D01*
X36610907Y26976935D01*
X36558162Y27008231D01*
X35406026Y28160367D01*
X35384874Y28188623D01*
X35372267Y28211712D01*
X35357100Y28271137D01*
X35357100Y36912073D01*
X35362122Y36947006D01*
X35369534Y36972251D01*
X35400829Y37024994D01*
X35437120Y37061284D01*
X35516177Y37198216D01*
X35557100Y37350943D01*
X35557100Y37509057D01*
X35516177Y37661784D01*
X35516173Y37661791D01*
X35437124Y37798710D01*
X35437118Y37798718D01*
X35437114Y37798722D01*
X35437113Y37798724D01*
X35325322Y37910515D01*
X35325320Y37910516D01*
X35325317Y37910519D01*
X35325309Y37910525D01*
X35255943Y37950573D01*
X35188407Y37989565D01*
X35188383Y37989578D01*
X35076579Y38019536D01*
X35035657Y38030500D01*
X35035656Y38030500D01*
X34877543Y38030500D01*
X34724818Y37989578D01*
X34724811Y37989576D01*
X34724810Y37989575D01*
X34724800Y37989570D01*
X34587898Y37910530D01*
X34587894Y37910528D01*
X34587890Y37910525D01*
X34587882Y37910519D01*
X34587878Y37910516D01*
X34587876Y37910515D01*
X34476085Y37798724D01*
X34476084Y37798722D01*
X34476081Y37798719D01*
X34476081Y37798718D01*
X34476075Y37798710D01*
X34476072Y37798706D01*
X34476070Y37798702D01*
X34397030Y37661800D01*
X34397025Y37661790D01*
X34397024Y37661789D01*
X34397023Y37661785D01*
X34397023Y37661784D01*
X34356100Y37509057D01*
X17856700Y37509057D01*
X17856700Y38547557D01*
X36049200Y38547557D01*
X36049200Y38389443D01*
X36051271Y38381716D01*
X36054998Y38367804D01*
X36054999Y38367799D01*
X36090123Y38236716D01*
X36090124Y38236713D01*
X36090125Y38236712D01*
X36090130Y38236702D01*
X36150150Y38132744D01*
X36169175Y38099791D01*
X36169181Y38099783D01*
X36200275Y38068689D01*
X36221425Y38040436D01*
X36234032Y38017348D01*
X36249200Y37957921D01*
X36249200Y30368228D01*
X36244176Y30333291D01*
X36236764Y30308050D01*
X36205469Y30255306D01*
X36169186Y30219024D01*
X36169180Y30219018D01*
X36169170Y30219002D01*
X36090130Y30082100D01*
X36090125Y30082090D01*
X36090124Y30082089D01*
X36090123Y30082085D01*
X36090123Y30082084D01*
X36049200Y29929357D01*
X36049200Y29771244D01*
X36072826Y29683070D01*
X36090122Y29618520D01*
X36090124Y29618513D01*
X36090125Y29618512D01*
X36090128Y29618507D01*
X36167329Y29484787D01*
X36168712Y29482216D01*
X36169098Y29481666D01*
X36281036Y29369728D01*
X36281552Y29369348D01*
X36284175Y29367937D01*
X36417909Y29290727D01*
X36417916Y29290723D01*
X36570643Y29249800D01*
X36570645Y29249800D01*
X36728755Y29249800D01*
X36728757Y29249800D01*
X36881484Y29290723D01*
X37018416Y29369780D01*
X37130220Y29481584D01*
X37209277Y29618516D01*
X37250200Y29771243D01*
X37250200Y29929357D01*
X37209277Y30082084D01*
X37173558Y30143952D01*
X37173558Y30143953D01*
X37144913Y30193567D01*
X37130224Y30219010D01*
X37130218Y30219018D01*
X37099123Y30250113D01*
X37077972Y30278369D01*
X37075247Y30283359D01*
X37073938Y30285758D01*
X37065366Y30301457D01*
X37050200Y30360880D01*
X37050200Y37950573D01*
X37055222Y37985506D01*
X37056414Y37989565D01*
X37062634Y38010751D01*
X37093929Y38063494D01*
X37130220Y38099784D01*
X37209277Y38236716D01*
X37250200Y38389443D01*
X37250200Y38547557D01*
X37209277Y38700284D01*
X37209273Y38700291D01*
X37130224Y38837210D01*
X37130218Y38837218D01*
X37130214Y38837222D01*
X37130213Y38837224D01*
X37018422Y38949015D01*
X37018420Y38949016D01*
X37018417Y38949019D01*
X37018409Y38949025D01*
X36991847Y38964360D01*
X36881507Y39028065D01*
X36881483Y39028078D01*
X36769679Y39058036D01*
X36728757Y39069000D01*
X36728756Y39069000D01*
X36570643Y39069000D01*
X36417918Y39028078D01*
X36417911Y39028076D01*
X36417910Y39028075D01*
X36417900Y39028070D01*
X36280998Y38949030D01*
X36280994Y38949028D01*
X36280990Y38949025D01*
X36280982Y38949019D01*
X36280978Y38949016D01*
X36280976Y38949015D01*
X36169185Y38837224D01*
X36169184Y38837222D01*
X36169181Y38837219D01*
X36169181Y38837218D01*
X36169175Y38837210D01*
X36169172Y38837206D01*
X36169170Y38837202D01*
X36090130Y38700300D01*
X36090125Y38700290D01*
X36090124Y38700289D01*
X36090122Y38700282D01*
X36049474Y38548582D01*
X36049474Y38548580D01*
X36049200Y38547557D01*
X17856700Y38547557D01*
X17856700Y39452073D01*
X17861722Y39487006D01*
X17869134Y39512251D01*
X17900429Y39564994D01*
X17936720Y39601284D01*
X17963684Y39647987D01*
X18015775Y39738211D01*
X18015775Y39738214D01*
X18015777Y39738216D01*
X18056700Y39890943D01*
X18056700Y40049057D01*
X18015777Y40201784D01*
X18015773Y40201791D01*
X17936724Y40338710D01*
X17936718Y40338718D01*
X17936714Y40338722D01*
X17936713Y40338724D01*
X17824922Y40450515D01*
X17824920Y40450516D01*
X17824917Y40450519D01*
X17824909Y40450525D01*
X17755543Y40490573D01*
X17688007Y40529565D01*
X17687983Y40529578D01*
X17576179Y40559536D01*
X17535257Y40570500D01*
X17535256Y40570500D01*
X17377143Y40570500D01*
X17224418Y40529578D01*
X17224411Y40529576D01*
X17224410Y40529575D01*
X17224400Y40529570D01*
X17087498Y40450530D01*
X17087494Y40450528D01*
X17087490Y40450525D01*
X17087482Y40450519D01*
X17087478Y40450516D01*
X17087476Y40450515D01*
X16975685Y40338724D01*
X16975684Y40338722D01*
X16975681Y40338719D01*
X16975681Y40338718D01*
X16975675Y40338710D01*
X16975672Y40338706D01*
X16975670Y40338702D01*
X16896630Y40201800D01*
X16896625Y40201790D01*
X16896624Y40201789D01*
X16896622Y40201782D01*
X16855700Y40049057D01*
X16855700Y39890944D01*
X16858099Y39881991D01*
X16858100Y39881988D01*
X16896623Y39738216D01*
X16896624Y39738213D01*
X16896625Y39738212D01*
X16896626Y39738210D01*
X16975675Y39601291D01*
X16975681Y39601283D01*
X17006775Y39570189D01*
X17027925Y39541936D01*
X17040532Y39518848D01*
X17055700Y39459421D01*
X17055700Y37012985D01*
X17050676Y36978048D01*
X17043264Y36952807D01*
X17011969Y36900063D01*
X13995933Y33884027D01*
X13967682Y33862878D01*
X13944594Y33850270D01*
X13885164Y33835100D01*
X13833843Y33835100D01*
X13681118Y33794178D01*
X13681111Y33794176D01*
X13681110Y33794175D01*
X13681100Y33794170D01*
X13544198Y33715130D01*
X13544194Y33715128D01*
X13544190Y33715125D01*
X13544182Y33715119D01*
X13544178Y33715116D01*
X13544176Y33715115D01*
X13517181Y33688119D01*
X13455858Y33654634D01*
X13386166Y33659618D01*
X13330233Y33701490D01*
X13305816Y33766954D01*
X13305500Y33775800D01*
X13305500Y35875990D01*
X13305500Y35876000D01*
X13298518Y35940941D01*
X13287312Y35992452D01*
X13276354Y36030658D01*
X13219675Y36127571D01*
X13173920Y36180375D01*
X13173918Y36180377D01*
X13173908Y36180388D01*
X13129192Y36222549D01*
X13129189Y36222551D01*
X13129187Y36222553D01*
X13029111Y36273439D01*
X13029110Y36273440D01*
X13029109Y36273440D01*
X12962078Y36293123D01*
X12962072Y36293124D01*
X12876000Y36305500D01*
X12875997Y36305500D01*
X1124010Y36305500D01*
X1124000Y36305500D01*
X1123991Y36305500D01*
X1123990Y36305499D01*
X1059064Y36298519D01*
X1059052Y36298517D01*
X1007546Y36287312D01*
X969345Y36276356D01*
X969341Y36276354D01*
X872431Y36219677D01*
X872428Y36219675D01*
X819623Y36173919D01*
X819612Y36173909D01*
X777451Y36129193D01*
X777446Y36129186D01*
X776625Y36127571D01*
X740085Y36055707D01*
X735032Y36045770D01*
X687100Y35994934D01*
X619293Y35978082D01*
X553139Y36000565D01*
X509642Y36055244D01*
X500500Y36101973D01*
X500500Y40118005D01*
X2199500Y40118005D01*
X2199500Y39881996D01*
X2199501Y39881980D01*
X2218428Y39738210D01*
X2230306Y39647990D01*
X2230307Y39647987D01*
X2260062Y39536941D01*
X2291395Y39420005D01*
X2291397Y39419998D01*
X2381715Y39201952D01*
X2381724Y39201935D01*
X2452675Y39079046D01*
X2452677Y39079043D01*
X2499723Y38997555D01*
X2499725Y38997553D01*
X2499944Y38997224D01*
X2500947Y38995960D01*
X2643399Y38810311D01*
X2643403Y38810306D01*
X2643406Y38810303D01*
X2643412Y38810296D01*
X2643420Y38810288D01*
X2810281Y38643426D01*
X2810297Y38643411D01*
X2810305Y38643405D01*
X2997548Y38499728D01*
X2997550Y38499727D01*
X3128918Y38423882D01*
X3198516Y38383699D01*
X3200255Y38382618D01*
X3201708Y38381811D01*
X3202447Y38381511D01*
X3420007Y38291394D01*
X3647986Y38230307D01*
X3881989Y38199500D01*
X3881996Y38199500D01*
X4118004Y38199500D01*
X4118011Y38199500D01*
X4352014Y38230307D01*
X4579993Y38291394D01*
X4798049Y38381716D01*
X5002450Y38499727D01*
X5189699Y38643408D01*
X5356592Y38810301D01*
X5500273Y38997550D01*
X5618284Y39201951D01*
X5708606Y39420007D01*
X5769693Y39647986D01*
X5800500Y39881989D01*
X5800500Y40118011D01*
X5769693Y40352014D01*
X5708606Y40579993D01*
X5618481Y40797573D01*
X5618189Y40798290D01*
X5617374Y40799759D01*
X5616294Y40801497D01*
X5563273Y40893331D01*
X5563267Y40893341D01*
X5562510Y40894652D01*
X5500273Y41002450D01*
X5434968Y41087557D01*
X38524500Y41087557D01*
X38524500Y40929444D01*
X38540138Y40871082D01*
X38565422Y40776720D01*
X38565424Y40776713D01*
X38565425Y40776712D01*
X38565430Y40776702D01*
X38625450Y40672744D01*
X38644475Y40639791D01*
X38644481Y40639783D01*
X38675575Y40608689D01*
X38696725Y40580436D01*
X38709332Y40557348D01*
X38724500Y40497921D01*
X38724500Y36805428D01*
X38719476Y36770491D01*
X38712064Y36745250D01*
X38680769Y36692506D01*
X38644486Y36656224D01*
X38644480Y36656218D01*
X38644470Y36656202D01*
X38565430Y36519300D01*
X38565425Y36519290D01*
X38565424Y36519289D01*
X38565422Y36519282D01*
X38524500Y36366557D01*
X38524500Y36208445D01*
X38565422Y36055720D01*
X38565424Y36055713D01*
X38565425Y36055712D01*
X38565428Y36055707D01*
X38642629Y35921987D01*
X38644012Y35919416D01*
X38644398Y35918866D01*
X38756336Y35806928D01*
X38756852Y35806548D01*
X38759475Y35805137D01*
X38893209Y35727927D01*
X38893216Y35727923D01*
X39045943Y35687000D01*
X39089915Y35687000D01*
X39124847Y35681979D01*
X39150091Y35674566D01*
X39202837Y35643270D01*
X43756373Y31089734D01*
X43777523Y31061482D01*
X43790131Y31038393D01*
X43805300Y30978964D01*
X43805300Y30255495D01*
X43800276Y30220557D01*
X43797089Y30209704D01*
X43759314Y30150927D01*
X43695757Y30121904D01*
X43626607Y30131845D01*
X43619629Y30135032D01*
X43583457Y30160146D01*
X42949426Y30794177D01*
X42928274Y30822433D01*
X42915667Y30845522D01*
X42900500Y30904947D01*
X42900500Y30975499D01*
X42873341Y31112030D01*
X42871253Y31116445D01*
X42866029Y31129056D01*
X42866029Y31129057D01*
X42820778Y31238305D01*
X42820771Y31238318D01*
X42744114Y31353042D01*
X42744111Y31353046D01*
X42744106Y31353052D01*
X42646550Y31450608D01*
X42646544Y31450613D01*
X42646543Y31450614D01*
X42531823Y31527268D01*
X42531822Y31527269D01*
X42531817Y31527272D01*
X42531804Y31527279D01*
X42531797Y31527283D01*
X42404354Y31580071D01*
X42404340Y31580076D01*
X42404332Y31580079D01*
X42404322Y31580082D01*
X42404319Y31580083D01*
X42404315Y31580084D01*
X42268998Y31607000D01*
X42268995Y31607000D01*
X42268993Y31607000D01*
X42131007Y31607000D01*
X42131005Y31607000D01*
X42131000Y31607000D01*
X41995683Y31580084D01*
X41995677Y31580082D01*
X41995667Y31580079D01*
X41995662Y31580078D01*
X41995644Y31580071D01*
X41868201Y31527283D01*
X41868192Y31527278D01*
X41868175Y31527268D01*
X41753455Y31450614D01*
X41753454Y31450613D01*
X41753448Y31450608D01*
X41655892Y31353052D01*
X41655887Y31353046D01*
X41655886Y31353045D01*
X41579232Y31238325D01*
X41579222Y31238308D01*
X41579217Y31238299D01*
X41526429Y31110856D01*
X41526416Y31110817D01*
X41499500Y30975500D01*
X41499500Y30881874D01*
X41494237Y30863954D01*
X41526416Y30702185D01*
X41526417Y30702181D01*
X41526418Y30702178D01*
X41526421Y30702168D01*
X41526424Y30702160D01*
X41526429Y30702146D01*
X41579217Y30574703D01*
X41579222Y30574694D01*
X41579232Y30574677D01*
X41655886Y30459957D01*
X41655887Y30459956D01*
X41655892Y30459950D01*
X41753448Y30362394D01*
X41753454Y30362389D01*
X41753458Y30362386D01*
X41868182Y30285729D01*
X41868195Y30285722D01*
X41990072Y30235240D01*
X41994494Y30233148D01*
X41995225Y30233007D01*
X41995879Y30232879D01*
X42051472Y30221821D01*
X42131002Y30206000D01*
X42131004Y30206000D01*
X42131007Y30206000D01*
X42194205Y30206000D01*
X42229137Y30200979D01*
X42254381Y30193566D01*
X42307127Y30162270D01*
X43201673Y29267724D01*
X43222823Y29239472D01*
X43235431Y29216383D01*
X43250600Y29156954D01*
X43250600Y24174295D01*
X43245576Y24139356D01*
X43238164Y24114116D01*
X43206870Y24061374D01*
X43129309Y23983813D01*
X43129305Y23983807D01*
X43070000Y23881088D01*
X43069652Y23880163D01*
X43068967Y23877233D01*
X43039300Y23766511D01*
X43039300Y13233949D01*
X43034276Y13199012D01*
X43026864Y13173771D01*
X42995569Y13121027D01*
X42945693Y13071152D01*
X42945685Y13071143D01*
X42945682Y13071138D01*
X42869032Y12956425D01*
X42869022Y12956408D01*
X42869017Y12956399D01*
X42816229Y12828956D01*
X42816216Y12828917D01*
X42789300Y12693600D01*
X42789300Y12599974D01*
X42784037Y12582054D01*
X42816216Y12420285D01*
X42816217Y12420281D01*
X42816218Y12420278D01*
X42816221Y12420268D01*
X42816224Y12420260D01*
X42816229Y12420246D01*
X42869017Y12292803D01*
X42869022Y12292794D01*
X42869032Y12292777D01*
X42945686Y12178057D01*
X42945687Y12178056D01*
X42945692Y12178050D01*
X43043248Y12080494D01*
X43043254Y12080489D01*
X43043258Y12080486D01*
X43157982Y12003829D01*
X43157995Y12003822D01*
X43279872Y11953340D01*
X43284294Y11951248D01*
X43285025Y11951107D01*
X43285679Y11950979D01*
X43329757Y11942211D01*
X43420802Y11924100D01*
X43558795Y11924100D01*
X43558796Y11924100D01*
X43604318Y11933156D01*
X43649841Y11942211D01*
X43694128Y11951020D01*
X43821611Y12003825D01*
X43936342Y12080486D01*
X44033914Y12178058D01*
X44110575Y12292789D01*
X44163380Y12420272D01*
X44163380Y12420275D01*
X44163382Y12420279D01*
X44176459Y12486021D01*
X44176459Y12486022D01*
X44190300Y12555603D01*
X44190300Y12693599D01*
X44163142Y12830126D01*
X44161063Y12834520D01*
X44156609Y12845274D01*
X44110578Y12956405D01*
X44110571Y12956418D01*
X44033914Y13071142D01*
X44033911Y13071146D01*
X44033907Y13071151D01*
X43989226Y13115831D01*
X43968072Y13144090D01*
X43965347Y13149080D01*
X43964038Y13151479D01*
X43955466Y13167178D01*
X43940300Y13226601D01*
X43940300Y20526116D01*
X43945321Y20561043D01*
X43946981Y20566699D01*
X43948507Y20571898D01*
X43986277Y20630677D01*
X44049831Y20659706D01*
X44118986Y20649768D01*
X44125972Y20646578D01*
X44162142Y20621465D01*
X46250573Y18533034D01*
X46271723Y18504782D01*
X46284331Y18481693D01*
X46299500Y18422264D01*
X46299500Y18370944D01*
X46323126Y18282770D01*
X46340422Y18218220D01*
X46340424Y18218213D01*
X46340425Y18218212D01*
X46340428Y18218207D01*
X46417629Y18084487D01*
X46419012Y18081916D01*
X46419398Y18081366D01*
X46531336Y17969428D01*
X46531852Y17969048D01*
X46534475Y17967637D01*
X46668209Y17890427D01*
X46668216Y17890423D01*
X46820943Y17849500D01*
X46820945Y17849500D01*
X46979055Y17849500D01*
X46979057Y17849500D01*
X47131784Y17890423D01*
X47268716Y17969480D01*
X47380520Y18081284D01*
X47459577Y18218216D01*
X47500500Y18370943D01*
X47500500Y18529057D01*
X47459577Y18681784D01*
X47459573Y18681791D01*
X47380524Y18818710D01*
X47380518Y18818718D01*
X47380514Y18818722D01*
X47380513Y18818724D01*
X47268722Y18930515D01*
X47268720Y18930516D01*
X47268717Y18930519D01*
X47268709Y18930525D01*
X47242147Y18945860D01*
X47131807Y19009565D01*
X47131783Y19009578D01*
X47019979Y19039536D01*
X46979057Y19050500D01*
X46979056Y19050500D01*
X46935085Y19050500D01*
X46900149Y19055523D01*
X46874907Y19062935D01*
X46822162Y19094231D01*
X44596626Y21319767D01*
X44575474Y21348023D01*
X44562867Y21371112D01*
X44547700Y21430537D01*
X44547700Y22393173D01*
X44552722Y22428106D01*
X44560134Y22453351D01*
X44591429Y22506094D01*
X44627720Y22542384D01*
X44706777Y22679316D01*
X44747700Y22832043D01*
X44747700Y22990157D01*
X44706777Y23142884D01*
X44706773Y23142891D01*
X44638811Y23260607D01*
X44630533Y23277916D01*
X44614632Y23319075D01*
X44606300Y23363761D01*
X44606300Y31259425D01*
X44606300Y31259427D01*
X44579007Y31361287D01*
X44579007Y31361288D01*
X44526280Y31452613D01*
X39774426Y36204467D01*
X39753274Y36232723D01*
X39740667Y36255812D01*
X39725500Y36315237D01*
X39725500Y36366555D01*
X39725500Y36366557D01*
X39684577Y36519284D01*
X39624517Y36623312D01*
X39605524Y36656210D01*
X39605518Y36656218D01*
X39574423Y36687313D01*
X39553272Y36715569D01*
X39550547Y36720559D01*
X39548027Y36725175D01*
X39540666Y36738657D01*
X39525500Y36798080D01*
X39525500Y40118005D01*
X44199500Y40118005D01*
X44199500Y39881996D01*
X44199501Y39881980D01*
X44218428Y39738210D01*
X44230306Y39647990D01*
X44230307Y39647987D01*
X44260062Y39536941D01*
X44291395Y39420005D01*
X44291397Y39419998D01*
X44381715Y39201952D01*
X44381724Y39201935D01*
X44452675Y39079046D01*
X44452677Y39079043D01*
X44499723Y38997555D01*
X44499725Y38997553D01*
X44499944Y38997224D01*
X44500947Y38995960D01*
X44643399Y38810311D01*
X44643403Y38810306D01*
X44643406Y38810303D01*
X44643412Y38810296D01*
X44643420Y38810288D01*
X44810281Y38643426D01*
X44810297Y38643411D01*
X44810305Y38643405D01*
X44997548Y38499728D01*
X44997550Y38499727D01*
X45128918Y38423882D01*
X45198516Y38383699D01*
X45200255Y38382618D01*
X45201708Y38381811D01*
X45202447Y38381511D01*
X45420007Y38291394D01*
X45647986Y38230307D01*
X45881989Y38199500D01*
X45881996Y38199500D01*
X46118004Y38199500D01*
X46118011Y38199500D01*
X46352014Y38230307D01*
X46579993Y38291394D01*
X46798049Y38381716D01*
X47002450Y38499727D01*
X47189699Y38643408D01*
X47356592Y38810301D01*
X47500273Y38997550D01*
X47618284Y39201951D01*
X47708606Y39420007D01*
X47769693Y39647986D01*
X47800500Y39881989D01*
X47800500Y40118011D01*
X47769693Y40352014D01*
X47708606Y40579993D01*
X47618489Y40797553D01*
X47618189Y40798292D01*
X47617382Y40799745D01*
X47616297Y40801491D01*
X47576118Y40871082D01*
X47500273Y41002450D01*
X47500272Y41002452D01*
X47356595Y41189695D01*
X47356589Y41189703D01*
X47356574Y41189719D01*
X47189712Y41356580D01*
X47189704Y41356588D01*
X47189697Y41356594D01*
X47189694Y41356597D01*
X47189689Y41356601D01*
X47004040Y41499053D01*
X47002776Y41500056D01*
X47002447Y41500275D01*
X47002445Y41500277D01*
X46920957Y41547323D01*
X46920955Y41547325D01*
X46798065Y41618276D01*
X46798048Y41618285D01*
X46579997Y41708605D01*
X46352006Y41769695D01*
X46119889Y41800253D01*
X46118208Y41800500D01*
X46118017Y41800500D01*
X46118011Y41800500D01*
X45881989Y41800500D01*
X45881983Y41800500D01*
X45881981Y41800500D01*
X45875861Y41799747D01*
X45874955Y41799575D01*
X45647992Y41769695D01*
X45420001Y41708605D01*
X45201950Y41618285D01*
X45201942Y41618281D01*
X44997545Y41500270D01*
X44997536Y41500264D01*
X44810309Y41356601D01*
X44810294Y41356587D01*
X44810286Y41356580D01*
X44643420Y41189714D01*
X44643413Y41189706D01*
X44643399Y41189691D01*
X44499736Y41002464D01*
X44499730Y41002455D01*
X44381719Y40798058D01*
X44381715Y40798050D01*
X44291395Y40579999D01*
X44230305Y40352008D01*
X44210528Y40201784D01*
X44199501Y40118021D01*
X44199500Y40118005D01*
X39525500Y40118005D01*
X39525500Y40490573D01*
X39530522Y40525506D01*
X39531714Y40529565D01*
X39537934Y40550751D01*
X39569229Y40603494D01*
X39605520Y40639784D01*
X39684577Y40776716D01*
X39725500Y40929443D01*
X39725500Y41087557D01*
X39684577Y41240284D01*
X39684573Y41240291D01*
X39605524Y41377210D01*
X39605518Y41377218D01*
X39605514Y41377222D01*
X39605513Y41377224D01*
X39493722Y41489015D01*
X39493720Y41489016D01*
X39493717Y41489019D01*
X39493709Y41489025D01*
X39467147Y41504360D01*
X39356807Y41568065D01*
X39356783Y41568078D01*
X39244979Y41598036D01*
X39204057Y41609000D01*
X39204056Y41609000D01*
X39045943Y41609000D01*
X38893218Y41568078D01*
X38893211Y41568076D01*
X38893210Y41568075D01*
X38893200Y41568070D01*
X38756298Y41489030D01*
X38756294Y41489028D01*
X38756290Y41489025D01*
X38756282Y41489019D01*
X38756278Y41489016D01*
X38756276Y41489015D01*
X38644485Y41377224D01*
X38644484Y41377222D01*
X38644481Y41377219D01*
X38644481Y41377218D01*
X38644475Y41377210D01*
X38644472Y41377206D01*
X38644470Y41377202D01*
X38565430Y41240300D01*
X38565425Y41240290D01*
X38565424Y41240289D01*
X38565422Y41240282D01*
X38524500Y41087557D01*
X5434968Y41087557D01*
X5356592Y41189699D01*
X5356587Y41189705D01*
X5356586Y41189706D01*
X5356574Y41189719D01*
X5189712Y41356580D01*
X5189704Y41356588D01*
X5189697Y41356594D01*
X5189694Y41356597D01*
X5189689Y41356601D01*
X5004040Y41499053D01*
X5002776Y41500056D01*
X5002447Y41500275D01*
X5002445Y41500277D01*
X4920957Y41547323D01*
X4920955Y41547325D01*
X4798065Y41618276D01*
X4798048Y41618285D01*
X4579997Y41708605D01*
X4352006Y41769695D01*
X4119889Y41800253D01*
X4118208Y41800500D01*
X4118017Y41800500D01*
X4118011Y41800500D01*
X3881989Y41800500D01*
X3881983Y41800500D01*
X3881981Y41800500D01*
X3875861Y41799747D01*
X3874955Y41799575D01*
X3647992Y41769695D01*
X3420001Y41708605D01*
X3201950Y41618285D01*
X3201942Y41618281D01*
X2997545Y41500270D01*
X2997536Y41500264D01*
X2810309Y41356601D01*
X2810294Y41356587D01*
X2810286Y41356580D01*
X2643420Y41189714D01*
X2643413Y41189706D01*
X2643399Y41189691D01*
X2499736Y41002464D01*
X2499730Y41002455D01*
X2381719Y40798058D01*
X2381715Y40798050D01*
X2291395Y40579999D01*
X2230305Y40352008D01*
X2210528Y40201784D01*
X2199501Y40118021D01*
X2199500Y40118005D01*
X500500Y40118005D01*
X500500Y47993358D01*
X500579Y47997782D01*
X500737Y48002208D01*
X500974Y48006629D01*
X514069Y48189729D01*
X519274Y48216681D01*
X519629Y48231182D01*
X558415Y48409479D01*
X560602Y48418044D01*
X563089Y48426514D01*
X565884Y48434912D01*
X631359Y48610458D01*
X631366Y48610478D01*
X633054Y48613944D01*
X634751Y48618648D01*
X638419Y48626678D01*
X642373Y48634577D01*
X732175Y48799039D01*
X736681Y48806631D01*
X741469Y48814082D01*
X746502Y48821329D01*
X766053Y48847447D01*
X791009Y48872401D01*
X800066Y48879180D01*
X819808Y48886543D01*
X822045Y48888567D01*
X827802Y48889524D01*
X865532Y48903593D01*
X885870Y48899167D01*
G37*
%TD.AperFunction*%
%TD*%
%TA.AperFunction,Conductor*%
%TO.N,+3V3*%
G36*
X12943039Y35980315D02*
G01*
X12988794Y35927511D01*
X13000000Y35876000D01*
X13000000Y24124000D01*
X12980315Y24056961D01*
X12927511Y24011206D01*
X12876000Y24000000D01*
X1124000Y24000000D01*
X1056961Y24019685D01*
X1011206Y24072489D01*
X1000000Y24124000D01*
X1000000Y35876000D01*
X1019685Y35943039D01*
X1072489Y35988794D01*
X1124000Y36000000D01*
X12876000Y36000000D01*
X12943039Y35980315D01*
G37*
%TD.AperFunction*%
%TD*%
M02*
