M48
; DRILL file KiCad 10.0.6 date 2026-09-29T14:37:00
; FORMAT={-:-/ absolute / metric / decimal}
; #@! TF.CreationDate,2026-09-29T14:37:00+03:00
; #@! TF.GenerationSoftware,Kicad,Pcbnew,10.0.6
; #@! TF.FileFunction,MixedPlating,1,2
FMAT,2
METRIC
; #@! TA.AperFunction,Plated,PTH,ViaDrill
T1C0.300
; #@! TA.AperFunction,Plated,PTH,ComponentDrill
T2C0.300
; #@! TA.AperFunction,Plated,PTH,ViaDrill
T3C0.400
; #@! TA.AperFunction,Plated,PTH,ComponentDrill
T4C0.600
; #@! TA.AperFunction,NonPlated,NPTH,ComponentDrill
T5C0.650
; #@! TA.AperFunction,NonPlated,NPTH,ComponentDrill
T6C3.200
%
G90
G05
T1
X1.45Y21.55
X1.45Y18.55
X1.45Y15.55
X1.45Y12.55
X1.45Y9.55
X2.95Y35.05
X2.95Y33.05
X2.95Y31.05
X2.95Y29.05
X2.95Y27.05
X2.95Y25.05
X4.45Y18.55
X4.45Y15.55
X4.45Y9.55
X4.95Y35.05
X4.95Y33.05
X4.95Y31.05
X4.95Y29.05
X6.95Y35.05
X6.95Y33.05
X6.95Y31.05
X6.95Y29.05
X7.45Y42.55
X7.45Y15.55
X7.45Y12.55
X7.45Y9.55
X7.45Y6.55
X8.95Y35.05
X8.95Y33.05
X8.95Y31.05
X8.95Y29.05
X10.45Y42.55
X10.45Y39.55
X10.45Y18.55
X10.45Y12.55
X10.45Y9.55
X10.95Y35.05
X10.95Y29.05
X13.116Y28.934
X13.116Y8.002
X16.45Y6.55
X16.45Y3.55
X16.7Y24.742
X19.45Y9.55
X19.778Y26.752
X19.778Y16.033
X22.45Y21.55
X22.613Y13.062
X25.45Y21.55
X25.476Y9.211
X28.45Y21.55
X28.45Y15.55
X28.45Y12.55
X31.45Y21.55
X31.45Y18.55
X31.45Y12.55
X31.45Y9.55
X31.45Y6.55
X31.45Y3.55
X33.654Y25.087
X33.654Y7.282
X34.45Y18.55
X34.45Y15.55
X34.45Y9.55
X34.45Y3.55
X35.222Y37.43
X35.222Y26.963
X36.402Y38.7
X36.402Y30.25
X37.45Y42.55
X37.45Y36.55
X37.45Y33.55
X37.45Y30.55
X37.45Y21.55
X37.45Y18.55
X37.45Y15.55
X37.45Y12.55
X40.45Y42.55
X40.45Y30.55
X40.45Y27.55
X40.45Y24.55
X43.45Y12.55
X43.45Y9.55
X44.829Y22.739
X46.235Y29.09
X46.45Y12.55
X46.45Y9.55
T2
X22.1Y35.49
X22.1Y34.09
X22.8Y36.19
X22.8Y34.79
X22.8Y33.39
X23.5Y35.49
X23.5Y34.09
X24.2Y36.19
X24.2Y34.79
X24.2Y33.39
X24.9Y35.49
X24.9Y34.09
T3
X15.223Y16.842
X15.445Y24.662
X19.256Y13.6
X21.052Y9.295
X27.619Y9.091
X42.904Y25.971
X42.979Y23.215
T5
X22.11Y6.3
X27.89Y6.3
T6
X4.0Y40.0
X4.0Y4.0
X46.0Y40.0
X46.0Y4.0
T4
X20.68Y7.38G85X20.68Y6.28
G05
X20.68Y2.95G85X20.68Y2.35
G05
X29.32Y7.38G85X29.32Y6.28
G05
X29.32Y2.95G85X29.32Y2.35
G05
M30
