%TF.GenerationSoftware,KiCad,Pcbnew,10.0.6*%
%TF.CreationDate,2026-09-29T14:36:59+03:00*%
%TF.ProjectId,starter,73746172-7465-4722-9e6b-696361645f70,rev?*%
%TF.SameCoordinates,Original*%
%TF.FileFunction,Copper,L1,Top*%
%TF.FilePolarity,Positive*%
%FSLAX46Y46*%
G04 Gerber Fmt 4.6, Leading zero omitted, Abs format (unit mm)*
G04 Created by KiCad (PCBNEW 10.0.6) date 2026-09-29 14:36:59*
%MOMM*%
%LPD*%
G01*
G04 APERTURE LIST*
G04 Aperture macros list*
%AMRoundRect*
0 Rectangle with rounded corners*
0 $1 Rounding radius*
0 $2 $3 $4 $5 $6 $7 $8 $9 X,Y pos of 4 corners*
0 Add a 4 corners polygon primitive as box body*
4,1,4,$2,$3,$4,$5,$6,$7,$8,$9,$2,$3,0*
0 Add four circle primitives for the rounded corners*
1,1,$1+$1,$2,$3*
1,1,$1+$1,$4,$5*
1,1,$1+$1,$6,$7*
1,1,$1+$1,$8,$9*
0 Add four rect primitives between the rounded corners*
20,1,$1+$1,$2,$3,$4,$5,0*
20,1,$1+$1,$4,$5,$6,$7,0*
20,1,$1+$1,$6,$7,$8,$9,0*
20,1,$1+$1,$8,$9,$2,$3,0*%
G04 Aperture macros list end*
%TA.AperFunction,SMDPad,CuDef*%
%ADD10R,1.000000X0.750000*%
%TD*%
%TA.AperFunction,SMDPad,CuDef*%
%ADD11C,1.500000*%
%TD*%
%TA.AperFunction,SMDPad,CuDef*%
%ADD12RoundRect,0.250000X-0.262500X-0.450000X0.262500X-0.450000X0.262500X0.450000X-0.262500X0.450000X0*%
%TD*%
%TA.AperFunction,SMDPad,CuDef*%
%ADD13RoundRect,0.250000X0.475000X-0.250000X0.475000X0.250000X-0.475000X0.250000X-0.475000X-0.250000X0*%
%TD*%
%TA.AperFunction,SMDPad,CuDef*%
%ADD14RoundRect,0.250000X-0.250000X-0.475000X0.250000X-0.475000X0.250000X0.475000X-0.250000X0.475000X0*%
%TD*%
%TA.AperFunction,SMDPad,CuDef*%
%ADD15R,1.500000X0.900000*%
%TD*%
%TA.AperFunction,SMDPad,CuDef*%
%ADD16R,0.900000X1.500000*%
%TD*%
%TA.AperFunction,HeatsinkPad*%
%ADD17C,0.600000*%
%TD*%
%TA.AperFunction,HeatsinkPad*%
%ADD18R,3.900000X3.900000*%
%TD*%
%TA.AperFunction,SMDPad,CuDef*%
%ADD19RoundRect,0.150000X-0.150000X-0.575000X0.150000X-0.575000X0.150000X0.575000X-0.150000X0.575000X0*%
%TD*%
%TA.AperFunction,SMDPad,CuDef*%
%ADD20RoundRect,0.075000X-0.075000X-0.650000X0.075000X-0.650000X0.075000X0.650000X-0.075000X0.650000X0*%
%TD*%
%TA.AperFunction,ComponentPad*%
%ADD21O,1.000000X2.100000*%
%TD*%
%TA.AperFunction,ComponentPad*%
%ADD22O,1.000000X1.600000*%
%TD*%
%TA.AperFunction,SMDPad,CuDef*%
%ADD23RoundRect,0.250000X0.300000X-0.300000X0.300000X0.300000X-0.300000X0.300000X-0.300000X-0.300000X0*%
%TD*%
%TA.AperFunction,SMDPad,CuDef*%
%ADD24RoundRect,0.250000X0.450000X-0.262500X0.450000X0.262500X-0.450000X0.262500X-0.450000X-0.262500X0*%
%TD*%
%TA.AperFunction,SMDPad,CuDef*%
%ADD25RoundRect,0.150000X0.150000X-0.587500X0.150000X0.587500X-0.150000X0.587500X-0.150000X-0.587500X0*%
%TD*%
%TA.AperFunction,SMDPad,CuDef*%
%ADD26R,0.300000X0.500000*%
%TD*%
%TA.AperFunction,SMDPad,CuDef*%
%ADD27RoundRect,0.250000X0.250000X0.475000X-0.250000X0.475000X-0.250000X-0.475000X0.250000X-0.475000X0*%
%TD*%
%TA.AperFunction,SMDPad,CuDef*%
%ADD28RoundRect,0.243750X-0.243750X-0.456250X0.243750X-0.456250X0.243750X0.456250X-0.243750X0.456250X0*%
%TD*%
%TA.AperFunction,SMDPad,CuDef*%
%ADD29RoundRect,0.150000X0.625000X-0.150000X0.625000X0.150000X-0.625000X0.150000X-0.625000X-0.150000X0*%
%TD*%
%TA.AperFunction,SMDPad,CuDef*%
%ADD30RoundRect,0.250000X0.650000X-0.350000X0.650000X0.350000X-0.650000X0.350000X-0.650000X-0.350000X0*%
%TD*%
%TA.AperFunction,SMDPad,CuDef*%
%ADD31RoundRect,0.250000X0.625000X-0.375000X0.625000X0.375000X-0.625000X0.375000X-0.625000X-0.375000X0*%
%TD*%
%TA.AperFunction,SMDPad,CuDef*%
%ADD32RoundRect,0.375000X0.375000X-0.625000X0.375000X0.625000X-0.375000X0.625000X-0.375000X-0.625000X0*%
%TD*%
%TA.AperFunction,SMDPad,CuDef*%
%ADD33RoundRect,0.500000X1.400000X-0.500000X1.400000X0.500000X-1.400000X0.500000X-1.400000X-0.500000X0*%
%TD*%
%TA.AperFunction,ViaPad*%
%ADD34C,0.600000*%
%TD*%
%TA.AperFunction,ViaPad*%
%ADD35C,0.800000*%
%TD*%
%TA.AperFunction,Conductor*%
%ADD36C,0.200000*%
%TD*%
%TA.AperFunction,Conductor*%
%ADD37C,0.300000*%
%TD*%
G04 APERTURE END LIST*
D10*
%TO.P,SW2,1*%
%TO.N,/BOOT*%
X35500000Y7375000D03*
X41500000Y7375000D03*
%TO.P,SW2,2*%
%TO.N,GND*%
X35500000Y3625000D03*
X41500000Y3625000D03*
%TD*%
D11*
%TO.P,TP3,1*%
%TO.N,GND*%
X21000000Y19500000D03*
%TD*%
D12*
%TO.P,R3,1*%
%TO.N,+5V*%
X3587500Y13500000D03*
%TO.P,R3,2*%
%TO.N,/PWR_LED*%
X5412500Y13500000D03*
%TD*%
D13*
%TO.P,C3,1*%
%TO.N,+3V3*%
X13200000Y40050000D03*
%TO.P,C3,2*%
%TO.N,GND*%
X13200000Y41950000D03*
%TD*%
D14*
%TO.P,C5,1*%
%TO.N,/EN*%
X11050000Y31000000D03*
%TO.P,C5,2*%
%TO.N,GND*%
X12950000Y31000000D03*
%TD*%
D15*
%TO.P,U1,1*%
%TO.N,GND*%
X16250000Y42510000D03*
%TO.P,U1,2*%
%TO.N,+3V3*%
X16250000Y41240000D03*
%TO.P,U1,3*%
%TO.N,/EN*%
X16250000Y39970000D03*
%TO.P,U1,4*%
%TO.N,unconnected-(U1-IO4-Pad4)*%
X16250000Y38700000D03*
%TO.P,U1,5*%
%TO.N,unconnected-(U1-IO5-Pad5)*%
X16250000Y37430000D03*
%TO.P,U1,6*%
%TO.N,unconnected-(U1-IO6-Pad6)*%
X16250000Y36160000D03*
%TO.P,U1,7*%
%TO.N,unconnected-(U1-IO7-Pad7)*%
X16250000Y34890000D03*
%TO.P,U1,8*%
%TO.N,unconnected-(U1-IO15-Pad8)*%
X16250000Y33620000D03*
%TO.P,U1,9*%
%TO.N,unconnected-(U1-IO16-Pad9)*%
X16250000Y32350000D03*
%TO.P,U1,10*%
%TO.N,unconnected-(U1-IO17-Pad10)*%
X16250000Y31080000D03*
%TO.P,U1,11*%
%TO.N,unconnected-(U1-IO18-Pad11)*%
X16250000Y29810000D03*
%TO.P,U1,12*%
%TO.N,unconnected-(U1-IO8-Pad12)*%
X16250000Y28540000D03*
%TO.P,U1,13*%
%TO.N,/USB_D-*%
X16250000Y27270000D03*
%TO.P,U1,14*%
%TO.N,/USB_D+*%
X16250000Y26000000D03*
D16*
%TO.P,U1,15*%
%TO.N,unconnected-(U1-IO3-Pad15)*%
X18015000Y24750000D03*
%TO.P,U1,16*%
%TO.N,unconnected-(U1-IO46-Pad16)*%
X19285000Y24750000D03*
%TO.P,U1,17*%
%TO.N,unconnected-(U1-IO9-Pad17)*%
X20555000Y24750000D03*
%TO.P,U1,18*%
%TO.N,unconnected-(U1-IO10-Pad18)*%
X21825000Y24750000D03*
%TO.P,U1,19*%
%TO.N,unconnected-(U1-IO11-Pad19)*%
X23095000Y24750000D03*
%TO.P,U1,20*%
%TO.N,unconnected-(U1-IO12-Pad20)*%
X24365000Y24750000D03*
%TO.P,U1,21*%
%TO.N,unconnected-(U1-IO13-Pad21)*%
X25635000Y24750000D03*
%TO.P,U1,22*%
%TO.N,unconnected-(U1-IO14-Pad22)*%
X26905000Y24750000D03*
%TO.P,U1,23*%
%TO.N,unconnected-(U1-IO21-Pad23)*%
X28175000Y24750000D03*
%TO.P,U1,24*%
%TO.N,unconnected-(U1-IO47-Pad24)*%
X29445000Y24750000D03*
%TO.P,U1,25*%
%TO.N,/STATUS*%
X30715000Y24750000D03*
%TO.P,U1,26*%
%TO.N,unconnected-(U1-IO45-Pad26)*%
X31985000Y24750000D03*
D15*
%TO.P,U1,27*%
%TO.N,/BOOT*%
X33750000Y26000000D03*
%TO.P,U1,28*%
%TO.N,unconnected-(U1-IO35-Pad28)*%
X33750000Y27270000D03*
%TO.P,U1,29*%
%TO.N,unconnected-(U1-IO36-Pad29)*%
X33750000Y28540000D03*
%TO.P,U1,30*%
%TO.N,unconnected-(U1-IO37-Pad30)*%
X33750000Y29810000D03*
%TO.P,U1,31*%
%TO.N,unconnected-(U1-IO38-Pad31)*%
X33750000Y31080000D03*
%TO.P,U1,32*%
%TO.N,unconnected-(U1-IO39-Pad32)*%
X33750000Y32350000D03*
%TO.P,U1,33*%
%TO.N,unconnected-(U1-IO40-Pad33)*%
X33750000Y33620000D03*
%TO.P,U1,34*%
%TO.N,unconnected-(U1-IO41-Pad34)*%
X33750000Y34890000D03*
%TO.P,U1,35*%
%TO.N,unconnected-(U1-IO42-Pad35)*%
X33750000Y36160000D03*
%TO.P,U1,36*%
%TO.N,/UART_RX*%
X33750000Y37430000D03*
%TO.P,U1,37*%
%TO.N,/UART_TX*%
X33750000Y38700000D03*
%TO.P,U1,38*%
%TO.N,/I2C_SCL*%
X33750000Y39970000D03*
%TO.P,U1,39*%
%TO.N,/I2C_SDA*%
X33750000Y41240000D03*
%TO.P,U1,40*%
%TO.N,GND*%
X33750000Y42510000D03*
D17*
%TO.P,U1,41*%
X22100000Y35490000D03*
X22100000Y34090000D03*
X22800000Y36190000D03*
X22800000Y34790000D03*
X22800000Y33390000D03*
X23500000Y35490000D03*
D18*
X23500000Y34790000D03*
D17*
X23500000Y34090000D03*
X24200000Y36190000D03*
X24200000Y34790000D03*
X24200000Y33390000D03*
X24900000Y35490000D03*
X24900000Y34090000D03*
%TD*%
D19*
%TO.P,J1,A1*%
%TO.N,GND*%
X21750000Y7745000D03*
%TO.P,J1,A4*%
%TO.N,VBUS*%
X22550000Y7745000D03*
D20*
%TO.P,J1,A5*%
%TO.N,/CC1*%
X23750000Y7745000D03*
%TO.P,J1,A6*%
%TO.N,/USB_D+*%
X24750000Y7745000D03*
%TO.P,J1,A7*%
%TO.N,/USB_D-*%
X25250000Y7745000D03*
%TO.P,J1,A8*%
%TO.N,unconnected-(J1-SBU1-PadA8)*%
X26250000Y7745000D03*
D19*
%TO.P,J1,A9*%
%TO.N,VBUS*%
X27450000Y7745000D03*
%TO.P,J1,A12*%
%TO.N,GND*%
X28250000Y7745000D03*
%TO.P,J1,B1*%
X28250000Y7745000D03*
%TO.P,J1,B4*%
%TO.N,VBUS*%
X27450000Y7745000D03*
D20*
%TO.P,J1,B5*%
%TO.N,/CC2*%
X26750000Y7745000D03*
%TO.P,J1,B6*%
%TO.N,/USB_D+*%
X25750000Y7745000D03*
%TO.P,J1,B7*%
%TO.N,/USB_D-*%
X24250000Y7745000D03*
%TO.P,J1,B8*%
%TO.N,unconnected-(J1-SBU2-PadB8)*%
X23250000Y7745000D03*
D19*
%TO.P,J1,B9*%
%TO.N,VBUS*%
X22550000Y7745000D03*
%TO.P,J1,B12*%
%TO.N,GND*%
X21750000Y7745000D03*
D21*
%TO.P,J1,SH*%
X20680000Y6830000D03*
D22*
X20680000Y2650000D03*
D21*
X29320000Y6830000D03*
D22*
X29320000Y2650000D03*
%TD*%
D13*
%TO.P,C2,1*%
%TO.N,+3V3*%
X11000000Y15550000D03*
%TO.P,C2,2*%
%TO.N,GND*%
X11000000Y17450000D03*
%TD*%
D23*
%TO.P,D3,1*%
%TO.N,+5V*%
X17000000Y8600000D03*
%TO.P,D3,2*%
%TO.N,GND*%
X17000000Y11400000D03*
%TD*%
D11*
%TO.P,TP4,1*%
%TO.N,/UART_TX*%
X37500000Y29000000D03*
%TD*%
D24*
%TO.P,R8,1*%
%TO.N,+3V3*%
X42200000Y33587500D03*
%TO.P,R8,2*%
%TO.N,/I2C_SCL*%
X42200000Y35412500D03*
%TD*%
D11*
%TO.P,TP2,1*%
%TO.N,+3V3*%
X17500000Y19500000D03*
%TD*%
D13*
%TO.P,C4,1*%
%TO.N,+3V3*%
X13200000Y36450000D03*
%TO.P,C4,2*%
%TO.N,GND*%
X13200000Y38350000D03*
%TD*%
D10*
%TO.P,SW1,1*%
%TO.N,/EN*%
X8500000Y7375000D03*
X14500000Y7375000D03*
%TO.P,SW1,2*%
%TO.N,GND*%
X8500000Y3625000D03*
X14500000Y3625000D03*
%TD*%
D25*
%TO.P,U3,1*%
%TO.N,/USB_D+*%
X24050000Y13062500D03*
%TO.P,U3,2*%
%TO.N,/USB_D-*%
X25950000Y13062500D03*
%TO.P,U3,3*%
%TO.N,GND*%
X25000000Y14937500D03*
%TD*%
D11*
%TO.P,TP7,1*%
%TO.N,/I2C_SCL*%
X44500000Y21000000D03*
%TD*%
D26*
%TO.P,U4,1*%
%TO.N,/I2C_SDA*%
X46900000Y17700000D03*
%TO.P,U4,2*%
%TO.N,/I2C_SCL*%
X46100000Y17700000D03*
%TO.P,U4,3*%
%TO.N,+3V3*%
X46100000Y16300000D03*
%TO.P,U4,4*%
%TO.N,GND*%
X46900000Y16300000D03*
%TD*%
D11*
%TO.P,TP1,1*%
%TO.N,+5V*%
X14000000Y19500000D03*
%TD*%
D12*
%TO.P,R6,1*%
%TO.N,/STATUS*%
X36587500Y20000000D03*
%TO.P,R6,2*%
%TO.N,/STATUS_LED*%
X38412500Y20000000D03*
%TD*%
D27*
%TO.P,C1,1*%
%TO.N,+5V*%
X8450000Y18200000D03*
%TO.P,C1,2*%
%TO.N,GND*%
X6550000Y18200000D03*
%TD*%
D14*
%TO.P,C6,1*%
%TO.N,+3V3*%
X45550000Y14000000D03*
%TO.P,C6,2*%
%TO.N,GND*%
X47450000Y14000000D03*
%TD*%
D28*
%TO.P,D2,1*%
%TO.N,GND*%
X36562500Y17000000D03*
%TO.P,D2,2*%
%TO.N,/STATUS_LED*%
X38437500Y17000000D03*
%TD*%
D29*
%TO.P,J2,1*%
%TO.N,GND*%
X44300000Y24500000D03*
%TO.P,J2,2*%
%TO.N,+3V3*%
X44300000Y25500000D03*
%TO.P,J2,3*%
%TO.N,/I2C_SDA*%
X44300000Y26500000D03*
%TO.P,J2,4*%
%TO.N,/I2C_SCL*%
X44300000Y27500000D03*
D30*
%TO.P,J2,MP*%
%TO.N,unconnected-(J2-MountPin-PadMP)*%
X48175000Y23200000D03*
X48175000Y28800000D03*
%TD*%
D11*
%TO.P,TP5,1*%
%TO.N,/UART_RX*%
X37500000Y25500000D03*
%TD*%
D12*
%TO.P,R2,1*%
%TO.N,/CC2*%
X27587500Y11000000D03*
%TO.P,R2,2*%
%TO.N,GND*%
X29412500Y11000000D03*
%TD*%
D31*
%TO.P,F1,1*%
%TO.N,VBUS*%
X17000000Y13600000D03*
%TO.P,F1,2*%
%TO.N,+5V*%
X17000000Y16400000D03*
%TD*%
D28*
%TO.P,D1,1*%
%TO.N,GND*%
X3562500Y11000000D03*
%TO.P,D1,2*%
%TO.N,/PWR_LED*%
X5437500Y11000000D03*
%TD*%
D32*
%TO.P,U2,1*%
%TO.N,GND*%
X5200000Y20850000D03*
%TO.P,U2,2*%
%TO.N,+3V3*%
X7500000Y20850000D03*
D33*
X7500000Y27150000D03*
D32*
%TO.P,U2,3*%
%TO.N,+5V*%
X9800000Y20850000D03*
%TD*%
D12*
%TO.P,R4,1*%
%TO.N,+3V3*%
X11087500Y33500000D03*
%TO.P,R4,2*%
%TO.N,/EN*%
X12912500Y33500000D03*
%TD*%
%TO.P,R5,1*%
%TO.N,+3V3*%
X37587500Y10500000D03*
%TO.P,R5,2*%
%TO.N,/BOOT*%
X39412500Y10500000D03*
%TD*%
%TO.P,R1,1*%
%TO.N,/CC1*%
X20587500Y11000000D03*
%TO.P,R1,2*%
%TO.N,GND*%
X22412500Y11000000D03*
%TD*%
D24*
%TO.P,R7,1*%
%TO.N,+3V3*%
X40000000Y33587500D03*
%TO.P,R7,2*%
%TO.N,/I2C_SDA*%
X40000000Y35412500D03*
%TD*%
D11*
%TO.P,TP6,1*%
%TO.N,/I2C_SDA*%
X41500000Y21000000D03*
%TD*%
D34*
%TO.N,/BOOT*%
X33654000Y7282500D03*
X33654000Y25086900D03*
%TO.N,GND*%
X37450000Y36550000D03*
X7450000Y6550000D03*
X43450000Y12550000D03*
X4450000Y18550000D03*
X10450000Y9550000D03*
X40450000Y30550000D03*
X40450000Y27550000D03*
X31450000Y3550000D03*
X40450000Y24550000D03*
X31450000Y21550000D03*
X46450000Y12550000D03*
X37450000Y21550000D03*
X31450000Y18550000D03*
X37450000Y15550000D03*
X7450000Y9550000D03*
X10450000Y18550000D03*
X37450000Y42550000D03*
X28450000Y21550000D03*
X37450000Y12550000D03*
X34450000Y15550000D03*
D35*
X15445000Y24661800D03*
D34*
X46450000Y9550000D03*
X7450000Y15550000D03*
X34450000Y9550000D03*
X7450000Y42550000D03*
X10450000Y39550000D03*
X1450000Y9550000D03*
D35*
X15222500Y16842100D03*
D34*
X10450000Y12550000D03*
X43450000Y9550000D03*
X1450000Y12550000D03*
X16450000Y3550000D03*
X22450000Y21550000D03*
X16450000Y6550000D03*
X31450000Y9550000D03*
X19450000Y9550000D03*
X1450000Y21550000D03*
X10450000Y42550000D03*
X1450000Y18550000D03*
X28450000Y12550000D03*
X40450000Y42550000D03*
X7450000Y12550000D03*
X37450000Y18550000D03*
X37450000Y30550000D03*
X31450000Y6550000D03*
X4450000Y9550000D03*
X1450000Y15550000D03*
X28450000Y15550000D03*
X31450000Y12550000D03*
X34450000Y18550000D03*
X37450000Y33550000D03*
X34450000Y3550000D03*
X25450000Y21550000D03*
X4450000Y15550000D03*
%TO.N,+3V3*%
X6950000Y29050000D03*
X8950000Y29050000D03*
X4950000Y35050000D03*
X4950000Y31050000D03*
X2950000Y33050000D03*
D35*
X42904300Y25971400D03*
X42979300Y23215400D03*
D34*
X4950000Y33050000D03*
X8950000Y35050000D03*
X2950000Y31050000D03*
X10950000Y29050000D03*
X6950000Y33050000D03*
X8950000Y33050000D03*
X10950000Y35050000D03*
X6950000Y35050000D03*
X2950000Y35050000D03*
X2950000Y27050000D03*
X2950000Y29050000D03*
X6950000Y31050000D03*
X8950000Y31050000D03*
X4950000Y29050000D03*
X2950000Y25050000D03*
%TO.N,/EN*%
X13116100Y8001700D03*
X13116100Y28933900D03*
%TO.N,/USB_D-*%
X19778500Y26752500D03*
X19778500Y16033400D03*
%TO.N,/USB_D+*%
X22612600Y13062500D03*
X25476000Y9210800D03*
X16700000Y24742000D03*
%TO.N,/UART_RX*%
X35222100Y37430000D03*
X35222100Y26963500D03*
%TO.N,/UART_TX*%
X36401800Y30249600D03*
X36401800Y38700000D03*
%TO.N,/I2C_SDA*%
X44828600Y22738600D03*
X46235200Y29090200D03*
D35*
%TO.N,VBUS*%
X21051700Y9295000D03*
X27619500Y9091300D03*
X19256300Y13600000D03*
%TD*%
%TO.N,/BOOT*%
D36*
X33654000Y7282500D02*
X34655800Y7282500D01*
X33750000Y26000000D02*
X34751700Y26000000D01*
X39412500Y7375000D02*
X41500000Y7375000D01*
X39412500Y10500000D02*
X39412500Y7375000D01*
X35500000Y7375000D02*
X39412500Y7375000D01*
X34751700Y25397600D02*
X34441000Y25086900D01*
X34441000Y25086900D02*
X33654000Y25086900D01*
X34751700Y26000000D02*
X34751700Y25397600D01*
X34655800Y7282500D02*
X34748300Y7375000D01*
X35500000Y7375000D02*
X34748300Y7375000D01*
%TO.N,GND*%
D37*
X41500000Y3625000D02*
X41500000Y4351700D01*
X20680000Y8231700D02*
X21263300Y8231700D01*
X2693700Y11868800D02*
X2693700Y14343700D01*
X15641600Y24858400D02*
X14365900Y26134100D01*
X46900000Y14550000D02*
X47450000Y14000000D01*
X14365900Y26134100D02*
X14365900Y29584100D01*
X46900000Y15550000D02*
X46900000Y14550000D01*
X14365900Y29584100D02*
X12950000Y31000000D01*
X29320000Y10907500D02*
X29412500Y11000000D01*
X5200000Y20850000D02*
X5200000Y19550000D01*
X29320000Y8231700D02*
X28736700Y8231700D01*
X20680000Y3225900D02*
X20680000Y3801700D01*
X37500000Y19327500D02*
X35867500Y17695000D01*
X22100000Y35490000D02*
X23500000Y35490000D01*
X13760000Y42510000D02*
X13200000Y41950000D01*
X21000000Y19500000D02*
X15641600Y24858400D01*
X24200000Y33390000D02*
X22800000Y33390000D01*
X3562500Y9289200D02*
X3562500Y11000000D01*
X15528400Y3801700D02*
X20680000Y3801700D01*
X22800000Y37061700D02*
X17351700Y42510000D01*
X44300000Y24500000D02*
X41342000Y24500000D01*
X25000000Y14937500D02*
X23518900Y14937500D01*
D36*
X46900000Y16300000D02*
X46900000Y15550000D01*
D37*
X23500000Y35490000D02*
X24900000Y35490000D01*
X41342000Y24500000D02*
X37500000Y20658000D01*
X5200000Y19550000D02*
X6550000Y18200000D01*
X22100000Y34090000D02*
X23500000Y34090000D01*
X13200000Y41950000D02*
X12113100Y40863100D01*
X20680000Y2650000D02*
X20680000Y3225900D01*
X29320000Y6830000D02*
X29320000Y8231700D01*
X34062500Y19500000D02*
X35867500Y17695000D01*
X37500000Y20658000D02*
X37500000Y19327500D01*
X21000000Y19500000D02*
X34062500Y19500000D01*
X22800000Y36190000D02*
X24200000Y36190000D01*
X23518900Y14937500D02*
X21300600Y12719200D01*
X33750000Y42510000D02*
X28248300Y42510000D01*
X15351700Y3625000D02*
X15528400Y3801700D01*
X22800000Y36190000D02*
X22800000Y37061700D01*
X28248300Y42510000D02*
X22800000Y37061700D01*
X17000000Y11400000D02*
X20168300Y8231700D01*
X47450000Y10301700D02*
X41500000Y4351700D01*
X34471600Y3801700D02*
X29320000Y3801700D01*
X20680000Y6830000D02*
X20680000Y8231700D01*
X21263300Y8231700D02*
X21750000Y7745000D01*
X34648300Y3625000D02*
X34471600Y3801700D01*
X35500000Y3625000D02*
X34648300Y3625000D01*
X8500000Y4351700D02*
X3562500Y9289200D01*
X16250000Y42510000D02*
X13760000Y42510000D01*
X47450000Y14000000D02*
X47450000Y10301700D01*
X41500000Y3625000D02*
X35500000Y3625000D01*
X16250000Y42510000D02*
X17351700Y42510000D01*
X23500000Y34790000D02*
X24200000Y34790000D01*
X21255800Y3801700D02*
X29320000Y3801700D01*
X21300600Y12719200D02*
X21300600Y12111900D01*
X2693700Y14343700D02*
X6550000Y18200000D01*
X20680000Y3225900D02*
X21255800Y3801700D01*
X3562500Y11000000D02*
X2693700Y11868800D01*
X14500000Y3625000D02*
X15351700Y3625000D01*
X21300600Y12111900D02*
X22412500Y11000000D01*
X28736700Y8231700D02*
X28250000Y7745000D01*
X14500000Y3625000D02*
X8500000Y3625000D01*
X35867500Y17695000D02*
X36562500Y17000000D01*
X12113100Y40863100D02*
X12113100Y39436900D01*
X15222500Y16842100D02*
X11607900Y16842100D01*
X15641600Y24858400D02*
X15445000Y24661800D01*
X11607900Y16842100D02*
X11000000Y17450000D01*
X17000000Y11400000D02*
X17711900Y12111900D01*
X22800000Y34790000D02*
X23500000Y34790000D01*
X17711900Y12111900D02*
X21300600Y12111900D01*
X29320000Y2650000D02*
X29320000Y3801700D01*
X23500000Y34090000D02*
X24900000Y34090000D01*
X29320000Y8231700D02*
X29320000Y10907500D01*
X8500000Y3625000D02*
X8500000Y4351700D01*
X20168300Y8231700D02*
X20680000Y8231700D01*
X12113100Y39436900D02*
X13200000Y38350000D01*
%TO.N,+5V*%
X17000000Y16500000D02*
X17000000Y16400000D01*
X14000000Y19500000D02*
X17000000Y16500000D01*
X8450000Y18200000D02*
X7576100Y17326100D01*
X17000000Y16400000D02*
X15772300Y15172300D01*
X12650000Y20850000D02*
X14000000Y19500000D01*
X15772300Y9827700D02*
X17000000Y8600000D01*
X3750000Y13500000D02*
X3587500Y13500000D01*
X15772300Y15172300D02*
X15772300Y14650700D01*
X7576100Y17326100D02*
X3750000Y13500000D01*
X9800000Y20850000D02*
X12650000Y20850000D01*
X15772300Y14650700D02*
X15772300Y9827700D01*
X7576100Y17326100D02*
X10251400Y14650700D01*
X10251400Y14650700D02*
X15772300Y14650700D01*
%TO.N,/PWR_LED*%
D36*
X5412500Y11025000D02*
X5412500Y13500000D01*
X5437500Y11000000D02*
X5412500Y11025000D01*
%TO.N,+3V3*%
D37*
X43092800Y26159900D02*
X42200000Y27052600D01*
X9509600Y17040400D02*
X11000000Y15550000D01*
X19056400Y17943600D02*
X30143900Y17943600D01*
X40000000Y33587500D02*
X42200000Y33587500D01*
X42133000Y23215400D02*
X42979300Y23215400D01*
X17500000Y19500000D02*
X19056400Y17943600D01*
X43639100Y25613500D02*
X43092800Y26159900D01*
X9509600Y18870000D02*
X9509600Y17040400D01*
X17500000Y19500000D02*
X14787700Y22212300D01*
X30143900Y17943600D02*
X37587500Y10500000D01*
X41087500Y14000000D02*
X40398300Y14689200D01*
X14301800Y38948200D02*
X13200000Y40050000D01*
X44300000Y25500000D02*
X44186500Y25613500D01*
X7500000Y29912500D02*
X11087500Y33500000D01*
X43092800Y26159900D02*
X42904300Y25971400D01*
X11087500Y34337500D02*
X13200000Y36450000D01*
X7624100Y20755500D02*
X9509600Y18870000D01*
X13200000Y40050000D02*
X14390000Y41240000D01*
D36*
X46100000Y16300000D02*
X46100000Y15550000D01*
D37*
X40398300Y21480700D02*
X42133000Y23215400D01*
X7500000Y27150000D02*
X7500000Y29912500D01*
X41087500Y14000000D02*
X37587500Y10500000D01*
X7500000Y23793200D02*
X9080900Y22212300D01*
X40398300Y14689200D02*
X40398300Y21480700D01*
X44186500Y25613500D02*
X43639100Y25613500D01*
X11087500Y33500000D02*
X11087500Y34337500D01*
X14390000Y41240000D02*
X16250000Y41240000D01*
X13200000Y36450000D02*
X14301800Y37551800D01*
X46100000Y14550000D02*
X45550000Y14000000D01*
X7594500Y20755500D02*
X7624100Y20755500D01*
X14301800Y37551800D02*
X14301800Y38948200D01*
X7500000Y20850000D02*
X7594500Y20755500D01*
X45550000Y14000000D02*
X41087500Y14000000D01*
X46100000Y15550000D02*
X46100000Y14550000D01*
X14787700Y22212300D02*
X9080900Y22212300D01*
X9080900Y22212300D02*
X7624100Y20755500D01*
X42200000Y27052600D02*
X42200000Y33587500D01*
X7500000Y27150000D02*
X7500000Y23793200D01*
%TO.N,/EN*%
D36*
X14500000Y8001700D02*
X13116100Y8001700D01*
X11050000Y31000000D02*
X13116100Y28933900D01*
X16250000Y39970000D02*
X15248300Y39970000D01*
X15248300Y39970000D02*
X15248300Y35835800D01*
X12912500Y33500000D02*
X12912500Y32862500D01*
X14500000Y7375000D02*
X8500000Y7375000D01*
X12912500Y32862500D02*
X11050000Y31000000D01*
X15248300Y35835800D02*
X12912500Y33500000D01*
X14500000Y7375000D02*
X14500000Y8001700D01*
%TO.N,/USB_D-*%
D37*
X24513500Y6713700D02*
X25055800Y6713700D01*
X25250000Y6907900D02*
X25250000Y7745000D01*
X16250000Y27270000D02*
X17301700Y27270000D01*
X24250000Y11362500D02*
X24250000Y7745000D01*
X17819200Y26752500D02*
X17301700Y27270000D01*
X25055800Y6713700D02*
X25250000Y6907900D01*
X24250000Y6977200D02*
X24513500Y6713700D01*
X19778500Y26752500D02*
X17819200Y26752500D01*
X24250000Y7745000D02*
X24250000Y6977200D01*
X25950000Y13062500D02*
X24250000Y11362500D01*
X25386600Y16033400D02*
X19778500Y16033400D01*
X25950000Y13062500D02*
X25950000Y15470000D01*
X25950000Y15470000D02*
X25386600Y16033400D01*
%TO.N,/USB_D+*%
X25750000Y8936800D02*
X25476000Y9210800D01*
X25476000Y9210800D02*
X25390400Y9210800D01*
X24050000Y13062500D02*
X22612600Y13062500D01*
X16700000Y24742000D02*
X16250000Y25192000D01*
X24750000Y8570400D02*
X24750000Y7745000D01*
X16250000Y25192000D02*
X16250000Y26000000D01*
X25390400Y9210800D02*
X24750000Y8570400D01*
X25750000Y7745000D02*
X25750000Y8936800D01*
%TO.N,/STATUS*%
D36*
X30715000Y23748300D02*
X32839200Y23748300D01*
X32839200Y23748300D02*
X36587500Y20000000D01*
X30715000Y24750000D02*
X30715000Y23748300D01*
%TO.N,/UART_RX*%
X33750000Y37430000D02*
X35222100Y37430000D01*
X37500000Y25500000D02*
X36036500Y26963500D01*
X36036500Y26963500D02*
X35222100Y26963500D01*
%TO.N,/UART_TX*%
X37500000Y29151400D02*
X36401800Y30249600D01*
X37500000Y29000000D02*
X37500000Y29151400D01*
X33750000Y38700000D02*
X36401800Y38700000D01*
%TO.N,/I2C_SCL*%
X44500000Y21000000D02*
X45765300Y22265300D01*
X45765300Y26405200D02*
X44670500Y27500000D01*
X46100000Y19400000D02*
X46100000Y18450000D01*
X46100000Y17700000D02*
X46100000Y18450000D01*
X33750000Y39970000D02*
X37642500Y39970000D01*
X44500000Y21000000D02*
X46100000Y19400000D01*
X37642500Y39970000D02*
X42200000Y35412500D01*
X44670500Y27500000D02*
X44300000Y27500000D01*
X45765300Y22265300D02*
X45765300Y26405200D01*
X42473400Y35412500D02*
X44300000Y33585900D01*
X42200000Y35412500D02*
X42473400Y35412500D01*
X44300000Y33585900D02*
X44300000Y27500000D01*
%TO.N,/I2C_SDA*%
X46900000Y17700000D02*
X46900000Y18450000D01*
X43224300Y27152200D02*
X43876500Y26500000D01*
X45413600Y25814900D02*
X44728500Y26500000D01*
X44828600Y22738600D02*
X43990400Y22738600D01*
X43876500Y26500000D02*
X44300000Y26500000D01*
X37846200Y41240000D02*
X33750000Y41240000D01*
X44828600Y22738600D02*
X45413600Y23323600D01*
X40889000Y34523500D02*
X42841500Y34523500D01*
X42251800Y21000000D02*
X41500000Y21000000D01*
X44728500Y26500000D02*
X44300000Y26500000D01*
X42841500Y34523500D02*
X43224300Y34140700D01*
X43224300Y34140700D02*
X43224300Y27152200D01*
X45413600Y23323600D02*
X45413600Y25814900D01*
X46235200Y29090200D02*
X46235200Y32851000D01*
X46900000Y28425400D02*
X46235200Y29090200D01*
X43990400Y22738600D02*
X42251800Y21000000D01*
X46235200Y32851000D02*
X37846200Y41240000D01*
X40000000Y35412500D02*
X40889000Y34523500D01*
X46900000Y18450000D02*
X46900000Y28425400D01*
%TO.N,VBUS*%
D37*
X21691500Y9295000D02*
X22550000Y8436500D01*
X22550000Y8436500D02*
X22550000Y7745000D01*
X21051700Y9295000D02*
X21691500Y9295000D01*
X27450000Y8921800D02*
X27450000Y7745000D01*
X27619500Y9091300D02*
X27450000Y8921800D01*
X17000000Y13600000D02*
X19256300Y13600000D01*
%TO.N,/CC1*%
D36*
X22453500Y9745200D02*
X21883600Y9745200D01*
X20628800Y11000000D02*
X20587500Y11000000D01*
X21883600Y9745200D02*
X20628800Y11000000D01*
X23750000Y8448700D02*
X22453500Y9745200D01*
X23750000Y7745000D02*
X23750000Y8448700D01*
%TO.N,/CC2*%
X26750000Y10162500D02*
X27587500Y11000000D01*
X26750000Y7745000D02*
X26750000Y10162500D01*
%TO.N,/STATUS_LED*%
X38437500Y17000000D02*
X38412500Y17025000D01*
X38412500Y17025000D02*
X38412500Y20000000D01*
%TO.N,unconnected-(J2-MountPin-PadMP)*%
X48175000Y28800000D02*
X48175000Y23200000D01*
%TD*%
%TA.AperFunction,Conductor*%
%TO.N,GND*%
G36*
X705703Y23986961D02*
G01*
X731538Y23955848D01*
X770650Y23888971D01*
X780325Y23872429D01*
X811900Y23835989D01*
X826081Y23819624D01*
X826091Y23819613D01*
X870807Y23777452D01*
X870809Y23777451D01*
X870813Y23777447D01*
X970889Y23726561D01*
X1037928Y23706876D01*
X1124000Y23694500D01*
X6966203Y23694500D01*
X7033242Y23674815D01*
X7075537Y23626004D01*
X7076138Y23626350D01*
X7077936Y23623235D01*
X7078997Y23622011D01*
X7080082Y23619518D01*
X7094981Y23593713D01*
X7094981Y23593710D01*
X7139506Y23516593D01*
X7139513Y23516584D01*
X8343507Y22312590D01*
X8345868Y22308266D01*
X8364659Y22284334D01*
X8372151Y22270613D01*
X8375941Y22253191D01*
X8376992Y22251267D01*
X8376835Y22249082D01*
X8387003Y22202353D01*
X8386874Y22200547D01*
X8367508Y22142348D01*
X8363326Y22135840D01*
X8346676Y22115180D01*
X8343217Y22111722D01*
X8314982Y22090588D01*
X8301258Y22083093D01*
X8232987Y22068237D01*
X8226920Y22068671D01*
X8224645Y22068833D01*
X8169340Y22086403D01*
X8154273Y22095512D01*
X8154274Y22095512D01*
X8154272Y22095513D01*
X8024855Y22135840D01*
X7999362Y22143784D01*
X7997871Y22144272D01*
X7997647Y22144317D01*
X7929594Y22150500D01*
X7070406Y22150500D01*
X7061905Y22149728D01*
X7002351Y22144317D01*
X7002335Y22144313D01*
X6845727Y22095513D01*
X6845725Y22095512D01*
X6705351Y22010653D01*
X6705347Y22010650D01*
X6705341Y22010645D01*
X6589355Y21894659D01*
X6589350Y21894653D01*
X6589347Y21894649D01*
X6504488Y21754275D01*
X6504487Y21754273D01*
X6455687Y21597665D01*
X6455683Y21597649D01*
X6450446Y21540009D01*
X6449500Y21529594D01*
X6449500Y20170406D01*
X6449568Y20169658D01*
X6455683Y20102353D01*
X6455728Y20102129D01*
X6456216Y20100638D01*
X6468360Y20061666D01*
X6504487Y19945729D01*
X6504488Y19945727D01*
X6589347Y19805353D01*
X6589350Y19805349D01*
X6589355Y19805343D01*
X6705341Y19689357D01*
X6705347Y19689352D01*
X6705346Y19689352D01*
X6705351Y19689349D01*
X6845725Y19604490D01*
X6845729Y19604488D01*
X6845741Y19604484D01*
X6867925Y19597572D01*
X6877751Y19594510D01*
X7002343Y19555685D01*
X7070406Y19549500D01*
X7070409Y19549500D01*
X7929591Y19549500D01*
X7929594Y19549500D01*
X7997657Y19555685D01*
X8053287Y19573022D01*
X8088131Y19578619D01*
X8105598Y19578907D01*
X8170033Y19562084D01*
X8180967Y19555718D01*
X8206257Y19536239D01*
X8292707Y19449789D01*
X8313856Y19421539D01*
X8319277Y19411612D01*
X8334131Y19343339D01*
X8309717Y19277874D01*
X8253785Y19236001D01*
X8253781Y19235999D01*
X8246593Y19233318D01*
X8203259Y19225500D01*
X8156898Y19225500D01*
X8146560Y19224259D01*
X8117853Y19220813D01*
X8117853Y19220812D01*
X8111920Y19220100D01*
X8068439Y19214879D01*
X7927653Y19159360D01*
X7807076Y19067924D01*
X7715640Y18947347D01*
X7660121Y18806561D01*
X7654188Y18757146D01*
X7649500Y18718099D01*
X7649500Y18105795D01*
X7644476Y18070858D01*
X7637064Y18045617D01*
X7605769Y17992873D01*
X7299485Y17686589D01*
X7243570Y17630680D01*
X7243566Y17630672D01*
X7212506Y17599611D01*
X7212504Y17599610D01*
X4138610Y14525716D01*
X4110354Y14504564D01*
X4096633Y14497072D01*
X4028364Y14482221D01*
X4013876Y14483257D01*
X3989488Y14488797D01*
X3989269Y14487930D01*
X3981562Y14489878D01*
X3974787Y14490692D01*
X3974777Y14490692D01*
X3893102Y14500500D01*
X3893097Y14500500D01*
X3281901Y14500500D01*
X3281898Y14500500D01*
X3271560Y14499259D01*
X3242853Y14495813D01*
X3242853Y14495812D01*
X3240280Y14495503D01*
X3193439Y14489879D01*
X3052653Y14434360D01*
X2932076Y14342924D01*
X2840640Y14222347D01*
X2831716Y14199716D01*
X2785122Y14081562D01*
X2779445Y14034285D01*
X2777057Y14014392D01*
X2774500Y13993099D01*
X2774500Y13006897D01*
X2778390Y12974504D01*
X2778390Y12974500D01*
X2778391Y12974500D01*
X2784238Y12925802D01*
X2784603Y12919689D01*
X2784716Y12919417D01*
X2785508Y12917457D01*
X2802721Y12873809D01*
X2802721Y12873808D01*
X2840637Y12777661D01*
X2840640Y12777655D01*
X2932076Y12657078D01*
X3045904Y12570760D01*
X3049102Y12567971D01*
X3049107Y12567968D01*
X3052390Y12565651D01*
X3055596Y12564481D01*
X3193436Y12510123D01*
X3281898Y12499500D01*
X3281903Y12499500D01*
X3893097Y12499500D01*
X3893102Y12499500D01*
X3981564Y12510123D01*
X4122342Y12565639D01*
X4242922Y12657078D01*
X4334361Y12777658D01*
X4378107Y12888593D01*
X4395595Y12919246D01*
X4402542Y12928175D01*
X4459248Y12968994D01*
X4529020Y12972676D01*
X4589706Y12938053D01*
X4589710Y12938048D01*
X4589711Y12938047D01*
X4594139Y12933450D01*
X4620186Y12892916D01*
X4644714Y12830718D01*
X4665638Y12777659D01*
X4665640Y12777655D01*
X4757073Y12657083D01*
X4757077Y12657078D01*
X4860962Y12578300D01*
X4860963Y12578299D01*
X4875062Y12567607D01*
X4877658Y12565639D01*
X4916906Y12550162D01*
X4947560Y12532675D01*
X4959896Y12523077D01*
X5000717Y12466379D01*
X5004966Y12454307D01*
X5012000Y12413138D01*
X5012000Y12071841D01*
X5006975Y12036899D01*
X5005853Y12033080D01*
X5002570Y12021899D01*
X4964803Y11963135D01*
X4955132Y11954754D01*
X4931309Y11940316D01*
X4931897Y11939271D01*
X4924500Y11935112D01*
X4805288Y11844712D01*
X4714888Y11725501D01*
X4714885Y11725496D01*
X4660004Y11586327D01*
X4660003Y11586324D01*
X4660003Y11586323D01*
X4658402Y11572989D01*
X4649500Y11498860D01*
X4649500Y10501140D01*
X4654435Y10460046D01*
X4658690Y10424613D01*
X4658690Y10424597D01*
X4660001Y10413681D01*
X4660002Y10413679D01*
X4714885Y10274506D01*
X4714887Y10274503D01*
X4714888Y10274501D01*
X4805288Y10155289D01*
X4924500Y10064889D01*
X4924502Y10064888D01*
X4924504Y10064887D01*
X4989370Y10039307D01*
X5063679Y10010003D01*
X5151140Y9999500D01*
X5151146Y9999500D01*
X5723854Y9999500D01*
X5723860Y9999500D01*
X5811321Y10010003D01*
X5950500Y10064889D01*
X6069711Y10155289D01*
X6160111Y10274500D01*
X6214997Y10413679D01*
X6225500Y10501140D01*
X6225500Y11498860D01*
X6214997Y11586321D01*
X6167918Y11705703D01*
X6160112Y11725498D01*
X6160111Y11725500D01*
X6069711Y11844712D01*
X5950499Y11935112D01*
X5937303Y11940316D01*
X5908092Y11951836D01*
X5877440Y11969322D01*
X5873641Y11972278D01*
X5865104Y11978921D01*
X5824281Y12035622D01*
X5820029Y12047705D01*
X5813000Y12088862D01*
X5813000Y12410439D01*
X5818023Y12445375D01*
X5822427Y12460373D01*
X5860198Y12519147D01*
X5869873Y12527531D01*
X5905592Y12549176D01*
X5947342Y12565639D01*
X6067922Y12657078D01*
X6159361Y12777658D01*
X6214877Y12918436D01*
X6225500Y13006898D01*
X6225500Y13993102D01*
X6214877Y14081564D01*
X6160519Y14219404D01*
X6159349Y14222610D01*
X6157032Y14225893D01*
X6157029Y14225898D01*
X6154240Y14229096D01*
X6067922Y14342924D01*
X5947345Y14434360D01*
X5947339Y14434363D01*
X5832566Y14479624D01*
X5832565Y14479624D01*
X5807595Y14489471D01*
X5805634Y14490263D01*
X5805311Y14490397D01*
X5799199Y14490762D01*
X5759714Y14495503D01*
X5718102Y14500500D01*
X5718097Y14500500D01*
X5704795Y14500500D01*
X5669860Y14505523D01*
X5659006Y14508710D01*
X5600228Y14546484D01*
X5571203Y14610040D01*
X5581143Y14679189D01*
X5584333Y14686176D01*
X5609442Y14722340D01*
X6060792Y15173689D01*
X7475806Y16588706D01*
X7504060Y16609855D01*
X7517780Y16617346D01*
X7586036Y16632197D01*
X7587846Y16632068D01*
X7646050Y16612697D01*
X7652554Y16608517D01*
X7673196Y16591883D01*
X9552829Y14712181D01*
X9746901Y14518102D01*
X9974779Y14290216D01*
X9974786Y14290212D01*
X9974787Y14290211D01*
X9998339Y14276613D01*
X10049036Y14247342D01*
X10077535Y14230887D01*
X10078495Y14230639D01*
X10168504Y14206521D01*
X10192082Y14200202D01*
X10192083Y14200202D01*
X10192091Y14200200D01*
X10310701Y14200200D01*
X15179970Y14200200D01*
X15214906Y14195177D01*
X15229904Y14190773D01*
X15288655Y14153028D01*
X15289842Y14151659D01*
X15317318Y14096798D01*
X15318963Y14089240D01*
X15321800Y14062869D01*
X15321800Y9768387D01*
X15347052Y9674143D01*
X15347053Y9674142D01*
X15352499Y9653817D01*
X15352500Y9653815D01*
X15352501Y9653812D01*
X15363124Y9635413D01*
X15368094Y9626805D01*
X15368094Y9626802D01*
X15403410Y9565637D01*
X15411811Y9551086D01*
X15411813Y9551084D01*
X16100573Y8862324D01*
X16121723Y8834072D01*
X16134331Y8810983D01*
X16149500Y8751554D01*
X16149500Y8256898D01*
X16152310Y8233500D01*
X16152311Y8233492D01*
X16152311Y8233491D01*
X16159238Y8175803D01*
X16159603Y8169687D01*
X16159724Y8169396D01*
X16160515Y8167439D01*
X16167684Y8149262D01*
X16167686Y8149257D01*
X16208251Y8046391D01*
X16215639Y8027657D01*
X16307076Y7907078D01*
X16420904Y7820760D01*
X16424102Y7817971D01*
X16424107Y7817968D01*
X16427390Y7815651D01*
X16430596Y7814481D01*
X16568436Y7760123D01*
X16656898Y7749500D01*
X16656903Y7749500D01*
X17343097Y7749500D01*
X17343102Y7749500D01*
X17431564Y7760123D01*
X17572342Y7815639D01*
X17692922Y7907078D01*
X17784361Y8027658D01*
X17839877Y8168436D01*
X17850500Y8256898D01*
X17850500Y8943102D01*
X17839877Y9031564D01*
X17785519Y9169404D01*
X17784349Y9172610D01*
X17782032Y9175893D01*
X17782029Y9175898D01*
X17779240Y9179096D01*
X17692922Y9292924D01*
X17572345Y9384360D01*
X17572339Y9384363D01*
X17461002Y9428269D01*
X17461001Y9428269D01*
X17432595Y9439471D01*
X17430634Y9440263D01*
X17430311Y9440397D01*
X17424199Y9440762D01*
X17385926Y9445358D01*
X17385925Y9445359D01*
X17358220Y9448685D01*
X17343102Y9450500D01*
X17343098Y9450500D01*
X16855795Y9450500D01*
X16820859Y9455523D01*
X16795617Y9462935D01*
X16742872Y9494231D01*
X16271726Y9965377D01*
X16250574Y9993633D01*
X16237967Y10016722D01*
X16222800Y10076147D01*
X16222800Y12532671D01*
X16227823Y12567607D01*
X16231500Y12580127D01*
X16232227Y12582606D01*
X16269972Y12641356D01*
X16271341Y12642543D01*
X16326220Y12670023D01*
X16333779Y12671667D01*
X16360132Y12674500D01*
X17668097Y12674500D01*
X17668102Y12674500D01*
X17756564Y12685123D01*
X17897342Y12740639D01*
X18017922Y12832078D01*
X18109361Y12952658D01*
X18130753Y13006904D01*
X18149487Y13054411D01*
X18166970Y13085057D01*
X18176573Y13097400D01*
X18233273Y13138220D01*
X18242759Y13141557D01*
X18245354Y13142470D01*
X18286511Y13149500D01*
X18646952Y13149500D01*
X18681884Y13144479D01*
X18707128Y13137066D01*
X18759874Y13105770D01*
X18782217Y13083427D01*
X18802859Y13062785D01*
X18809760Y13055884D01*
X18867914Y13017027D01*
X18924482Y12979229D01*
X18924495Y12979222D01*
X19046372Y12928740D01*
X19050794Y12926648D01*
X19051525Y12926507D01*
X19052179Y12926379D01*
X19088022Y12919249D01*
X19187302Y12899500D01*
X19325295Y12899500D01*
X19325296Y12899500D01*
X19420505Y12918439D01*
X19460628Y12926420D01*
X19576704Y12974500D01*
X19588104Y12979222D01*
X19588104Y12979223D01*
X19588111Y12979225D01*
X19702842Y13055886D01*
X19800414Y13153458D01*
X19877075Y13268189D01*
X19887891Y13294300D01*
X19889040Y13297076D01*
X19929880Y13395672D01*
X19938754Y13440283D01*
X19954218Y13518024D01*
X19956800Y13531003D01*
X19956800Y13668999D01*
X19929641Y13805528D01*
X19927562Y13809922D01*
X19905627Y13862881D01*
X19877078Y13931805D01*
X19877071Y13931818D01*
X19800414Y14046542D01*
X19800411Y14046546D01*
X19800406Y14046552D01*
X19702850Y14144108D01*
X19702844Y14144113D01*
X19702843Y14144114D01*
X19588123Y14220768D01*
X19588122Y14220769D01*
X19588117Y14220772D01*
X19588104Y14220779D01*
X19588097Y14220783D01*
X19460654Y14273571D01*
X19460640Y14273576D01*
X19460632Y14273579D01*
X19460622Y14273582D01*
X19460619Y14273583D01*
X19460615Y14273584D01*
X19325298Y14300500D01*
X19325295Y14300500D01*
X19325293Y14300500D01*
X19187307Y14300500D01*
X19187305Y14300500D01*
X19187300Y14300500D01*
X19051983Y14273584D01*
X19051977Y14273582D01*
X19051967Y14273579D01*
X19051962Y14273578D01*
X19051944Y14273571D01*
X18924501Y14220783D01*
X18924492Y14220778D01*
X18924475Y14220768D01*
X18809760Y14144117D01*
X18809759Y14144116D01*
X18794654Y14129010D01*
X18794652Y14129008D01*
X18765066Y14099424D01*
X18736820Y14078279D01*
X18713733Y14065671D01*
X18654301Y14050500D01*
X18289210Y14050500D01*
X18254269Y14055525D01*
X18239270Y14059930D01*
X18180504Y14097695D01*
X18176659Y14102132D01*
X18172119Y14107371D01*
X18150474Y14143088D01*
X18150069Y14144114D01*
X18109362Y14247340D01*
X18109361Y14247342D01*
X18069050Y14300500D01*
X18017922Y14367924D01*
X17897345Y14459360D01*
X17897339Y14459363D01*
X17777198Y14506741D01*
X17777196Y14506741D01*
X17757542Y14514492D01*
X17755583Y14515284D01*
X17755311Y14515397D01*
X17749199Y14515762D01*
X17710926Y14520358D01*
X17710925Y14520359D01*
X17683220Y14523685D01*
X17668102Y14525500D01*
X17668098Y14525500D01*
X16364630Y14525500D01*
X16329689Y14530525D01*
X16314690Y14534930D01*
X16255944Y14572673D01*
X16254757Y14574042D01*
X16227277Y14628917D01*
X16225632Y14636479D01*
X16222800Y14662832D01*
X16222800Y14916506D01*
X16227822Y14951439D01*
X16230148Y14959360D01*
X16235234Y14976684D01*
X16266528Y15029426D01*
X16662679Y15425577D01*
X16690929Y15446725D01*
X16714021Y15459333D01*
X16773446Y15474500D01*
X17668097Y15474500D01*
X17668102Y15474500D01*
X17756564Y15485123D01*
X17897342Y15540639D01*
X18017922Y15632078D01*
X18109361Y15752658D01*
X18164877Y15893436D01*
X18175500Y15981898D01*
X18175500Y16112457D01*
X19178000Y16112457D01*
X19178000Y15954343D01*
X19206533Y15847859D01*
X19206532Y15847859D01*
X19206533Y15847857D01*
X19218919Y15801628D01*
X19218925Y15801612D01*
X19218928Y15801607D01*
X19296129Y15667887D01*
X19297512Y15665316D01*
X19297898Y15664766D01*
X19409836Y15552828D01*
X19410356Y15552446D01*
X19412995Y15551026D01*
X19430984Y15540640D01*
X19545535Y15474504D01*
X19545536Y15474504D01*
X19545543Y15474500D01*
X19546716Y15473823D01*
X19699443Y15432900D01*
X19699445Y15432900D01*
X19857555Y15432900D01*
X19857557Y15432900D01*
X20010284Y15473823D01*
X20147216Y15552880D01*
X20147217Y15552883D01*
X20150330Y15554679D01*
X20167596Y15562941D01*
X20197651Y15574560D01*
X20242358Y15582900D01*
X25130805Y15582900D01*
X25165737Y15577879D01*
X25190981Y15570466D01*
X25243727Y15539170D01*
X25450573Y15332324D01*
X25471723Y15304072D01*
X25484331Y15280983D01*
X25499500Y15221554D01*
X25499500Y14060119D01*
X25494476Y14025181D01*
X25485780Y13995568D01*
X25466574Y13956873D01*
X25402725Y13870360D01*
X25399687Y13866830D01*
X25397204Y13862878D01*
X25352353Y13734705D01*
X25351978Y13732501D01*
X25351812Y13728931D01*
X25349500Y13704267D01*
X25349500Y13168296D01*
X25344476Y13133359D01*
X25337064Y13108118D01*
X25305769Y13055374D01*
X24874788Y12624393D01*
X24846538Y12603244D01*
X24836611Y12597823D01*
X24768338Y12582969D01*
X24702873Y12607383D01*
X24661000Y12663315D01*
X24659383Y12667649D01*
X24658313Y12670521D01*
X24650500Y12713841D01*
X24650500Y13704272D01*
X24648188Y13728921D01*
X24648020Y13732498D01*
X24647646Y13734700D01*
X24647646Y13734702D01*
X24602793Y13862881D01*
X24602792Y13862883D01*
X24566306Y13912320D01*
X24522150Y13972150D01*
X24412882Y14052793D01*
X24412880Y14052794D01*
X24384088Y14062869D01*
X24284704Y14097646D01*
X24284702Y14097647D01*
X24284700Y14097647D01*
X24254270Y14100500D01*
X24254266Y14100500D01*
X24254264Y14100500D01*
X23845734Y14100500D01*
X23845730Y14100500D01*
X23827074Y14098751D01*
X23821069Y14098188D01*
X23817499Y14098022D01*
X23815297Y14097647D01*
X23687118Y14052794D01*
X23577849Y13972151D01*
X23497206Y13862882D01*
X23452353Y13734703D01*
X23451978Y13732501D01*
X23451812Y13728931D01*
X23449500Y13704267D01*
X23449500Y13654830D01*
X23448234Y13650522D01*
X23449195Y13646133D01*
X23444475Y13619886D01*
X23440070Y13604888D01*
X23430429Y13589884D01*
X23429815Y13587791D01*
X23428168Y13586364D01*
X23402327Y13546145D01*
X23400958Y13544958D01*
X23346097Y13517482D01*
X23338539Y13515837D01*
X23312168Y13513000D01*
X23080361Y13513000D01*
X23045423Y13518024D01*
X23015984Y13526669D01*
X22984934Y13541185D01*
X22984825Y13540995D01*
X22982633Y13542261D01*
X22982035Y13542540D01*
X22981310Y13543025D01*
X22844397Y13622070D01*
X22844383Y13622078D01*
X22722148Y13654830D01*
X22691657Y13663000D01*
X22691656Y13663000D01*
X22533543Y13663000D01*
X22380818Y13622078D01*
X22380811Y13622076D01*
X22380810Y13622075D01*
X22380800Y13622070D01*
X22243898Y13543030D01*
X22243894Y13543028D01*
X22243890Y13543025D01*
X22243882Y13543019D01*
X22243878Y13543016D01*
X22243876Y13543015D01*
X22132085Y13431224D01*
X22132084Y13431222D01*
X22132081Y13431219D01*
X22132081Y13431218D01*
X22132075Y13431210D01*
X22132072Y13431206D01*
X22132070Y13431202D01*
X22053030Y13294300D01*
X22053025Y13294290D01*
X22053024Y13294289D01*
X22053022Y13294282D01*
X22019265Y13168296D01*
X22012100Y13141557D01*
X22012100Y12983443D01*
X22034593Y12899500D01*
X22052658Y12832078D01*
X22053023Y12830718D01*
X22053025Y12830712D01*
X22053028Y12830707D01*
X22130229Y12696987D01*
X22131612Y12694416D01*
X22131998Y12693866D01*
X22243936Y12581928D01*
X22244455Y12581547D01*
X22247087Y12580130D01*
X22275963Y12563459D01*
X22317439Y12539513D01*
X22317440Y12539513D01*
X22317443Y12539511D01*
X22380816Y12502923D01*
X22533543Y12462000D01*
X22533545Y12462000D01*
X22691655Y12462000D01*
X22691657Y12462000D01*
X22844384Y12502923D01*
X22981316Y12581980D01*
X22981317Y12581983D01*
X22984430Y12583779D01*
X23001696Y12592041D01*
X23031751Y12603660D01*
X23041986Y12605288D01*
X23047933Y12608674D01*
X23076458Y12612000D01*
X23307670Y12612000D01*
X23342606Y12606977D01*
X23357604Y12602573D01*
X23416355Y12564828D01*
X23417542Y12563459D01*
X23436332Y12525940D01*
X23440887Y12520078D01*
X23441239Y12516143D01*
X23445018Y12508598D01*
X23446663Y12501040D01*
X23449500Y12474669D01*
X23449500Y12420735D01*
X23451812Y12396071D01*
X23451978Y12392501D01*
X23452353Y12390301D01*
X23452353Y12390299D01*
X23497206Y12262120D01*
X23497207Y12262118D01*
X23577850Y12152850D01*
X23687118Y12072207D01*
X23701459Y12067189D01*
X23790528Y12036022D01*
X23815299Y12027354D01*
X23815303Y12027353D01*
X23833742Y12025625D01*
X23845730Y12024500D01*
X23957705Y12024500D01*
X23992632Y12019479D01*
X24003485Y12016293D01*
X24062266Y11978523D01*
X24091295Y11914969D01*
X24081356Y11845810D01*
X24081355Y11845808D01*
X24078170Y11838833D01*
X24053054Y11802657D01*
X23889511Y11639116D01*
X23889505Y11639107D01*
X23830200Y11536388D01*
X23829852Y11535463D01*
X23829167Y11532533D01*
X23799500Y11421811D01*
X23799500Y9282785D01*
X23794476Y9247847D01*
X23791289Y9236994D01*
X23753514Y9178217D01*
X23689957Y9149194D01*
X23620807Y9159135D01*
X23613829Y9162322D01*
X23577657Y9187436D01*
X22699415Y10065678D01*
X22699413Y10065680D01*
X22681284Y10076147D01*
X22653750Y10092045D01*
X22653750Y10092044D01*
X22608089Y10118407D01*
X22557157Y10132054D01*
X22557156Y10132055D01*
X22506230Y10145700D01*
X22506227Y10145700D01*
X22506226Y10145700D01*
X22118685Y10145700D01*
X22083749Y10150723D01*
X22058507Y10158135D01*
X22005762Y10189431D01*
X21449426Y10745767D01*
X21428274Y10774023D01*
X21415667Y10797112D01*
X21400500Y10856537D01*
X21400500Y11493097D01*
X21400500Y11493102D01*
X21389877Y11581564D01*
X21335519Y11719404D01*
X21334349Y11722610D01*
X21332032Y11725893D01*
X21332029Y11725898D01*
X21329240Y11729096D01*
X21242922Y11842924D01*
X21122345Y11934360D01*
X21122339Y11934363D01*
X21026192Y11972279D01*
X21026191Y11972279D01*
X20982543Y11989492D01*
X20980583Y11990284D01*
X20980311Y11990397D01*
X20974199Y11990762D01*
X20935926Y11995358D01*
X20935925Y11995359D01*
X20908220Y11998685D01*
X20893102Y12000500D01*
X20893098Y12000500D01*
X20281901Y12000500D01*
X20281898Y12000500D01*
X20271560Y11999259D01*
X20242853Y11995813D01*
X20242853Y11995812D01*
X20236920Y11995100D01*
X20193439Y11989879D01*
X20052653Y11934360D01*
X19932076Y11842924D01*
X19840640Y11722347D01*
X19785120Y11581559D01*
X19785120Y11581558D01*
X19784093Y11572995D01*
X19784093Y11572990D01*
X19784093Y11572989D01*
X19774500Y11493102D01*
X19774500Y10506898D01*
X19780126Y10460046D01*
X19784238Y10425803D01*
X19784603Y10419689D01*
X19784726Y10419393D01*
X19785515Y10417440D01*
X19789072Y10408422D01*
X19789073Y10408413D01*
X19789075Y10408413D01*
X19840637Y10277661D01*
X19840640Y10277655D01*
X19932076Y10157078D01*
X20045904Y10070760D01*
X20049102Y10067971D01*
X20049107Y10067968D01*
X20052390Y10065651D01*
X20055596Y10064481D01*
X20193436Y10010123D01*
X20281898Y9999500D01*
X20281903Y9999500D01*
X20448351Y9999500D01*
X20483278Y9994479D01*
X20494131Y9991293D01*
X20552912Y9953523D01*
X20581941Y9889969D01*
X20572002Y9820810D01*
X20572001Y9820808D01*
X20568816Y9813833D01*
X20543700Y9777658D01*
X20507593Y9741552D01*
X20507585Y9741543D01*
X20507582Y9741538D01*
X20430932Y9626825D01*
X20430922Y9626808D01*
X20430921Y9626805D01*
X20430918Y9626800D01*
X20378129Y9499356D01*
X20378116Y9499317D01*
X20351200Y9364000D01*
X20351200Y9270374D01*
X20345937Y9252454D01*
X20378116Y9090685D01*
X20378117Y9090681D01*
X20378118Y9090678D01*
X20378121Y9090668D01*
X20378124Y9090660D01*
X20378129Y9090646D01*
X20430917Y8963203D01*
X20430922Y8963194D01*
X20430932Y8963177D01*
X20507586Y8848457D01*
X20507587Y8848456D01*
X20507592Y8848450D01*
X20605148Y8750894D01*
X20605154Y8750889D01*
X20605158Y8750886D01*
X20719882Y8674229D01*
X20719895Y8674222D01*
X20841772Y8623740D01*
X20846194Y8621648D01*
X20846925Y8621507D01*
X20847579Y8621379D01*
X20891657Y8612611D01*
X20982702Y8594500D01*
X21120695Y8594500D01*
X21120696Y8594500D01*
X21166218Y8603556D01*
X21211741Y8612611D01*
X21256028Y8621420D01*
X21383511Y8674225D01*
X21458912Y8724608D01*
X21490743Y8739838D01*
X21505670Y8744512D01*
X21575523Y8745757D01*
X21580066Y8744511D01*
X21582614Y8743812D01*
X21637484Y8711913D01*
X21900573Y8448824D01*
X21921723Y8420572D01*
X21933543Y8398925D01*
X21934331Y8397483D01*
X21949500Y8338054D01*
X21949500Y7115735D01*
X21951812Y7091071D01*
X21951978Y7087501D01*
X21952352Y7085299D01*
X21993025Y6969070D01*
X21999823Y6934433D01*
X22000600Y6919205D01*
X21984357Y6851249D01*
X21937668Y6804875D01*
X21926196Y6798406D01*
X21908824Y6790311D01*
X21907166Y6789690D01*
X21907150Y6789682D01*
X21787347Y6720515D01*
X21787337Y6720508D01*
X21787332Y6720504D01*
X21692676Y6625848D01*
X21678114Y6613382D01*
X21661985Y6601606D01*
X21596234Y6577973D01*
X21528789Y6593280D01*
X21517004Y6599807D01*
X21489400Y6620600D01*
X21480000Y6630000D01*
X21104000Y6630000D01*
X21036961Y6649685D01*
X20991206Y6702489D01*
X20980000Y6754000D01*
X20980000Y6906000D01*
X20999685Y6973039D01*
X21052489Y7018794D01*
X21104000Y7030000D01*
X21480000Y7030000D01*
X21480000Y7458796D01*
X21479909Y7459534D01*
X21479408Y7461769D01*
X21449263Y7613319D01*
X21449262Y7613320D01*
X21449258Y7613344D01*
X21449256Y7613352D01*
X21418327Y7688023D01*
X21388955Y7758935D01*
X21388950Y7758945D01*
X21301399Y7889973D01*
X21301398Y7889974D01*
X21301393Y7889980D01*
X21189978Y8001395D01*
X21189972Y8001400D01*
X21189971Y8001401D01*
X21058942Y8088952D01*
X21058943Y8088952D01*
X21058933Y8088957D01*
X20913351Y8149257D01*
X20913331Y8149262D01*
X20880000Y8155893D01*
X20880000Y7798593D01*
X20860315Y7731554D01*
X20807511Y7685799D01*
X20738353Y7675855D01*
X20723918Y7678816D01*
X20719496Y7680000D01*
X20719494Y7680000D01*
X20640506Y7680000D01*
X20640504Y7680000D01*
X20636089Y7678818D01*
X20566241Y7680482D01*
X20508379Y7719646D01*
X20480877Y7783875D01*
X20480000Y7798593D01*
X20480000Y8155891D01*
X20479999Y8155893D01*
X20446674Y8149263D01*
X20446647Y8149257D01*
X20301065Y8088957D01*
X20301055Y8088952D01*
X20170027Y8001401D01*
X20170026Y8001400D01*
X20170020Y8001395D01*
X20058605Y7889980D01*
X20058600Y7889974D01*
X20058599Y7889973D01*
X19971048Y7758945D01*
X19971043Y7758935D01*
X19910743Y7613354D01*
X19910735Y7613319D01*
X19880000Y7458802D01*
X19880000Y7458798D01*
X19880000Y7030000D01*
X20256000Y7030000D01*
X20323039Y7010315D01*
X20368794Y6957511D01*
X20380000Y6906000D01*
X20380000Y6754000D01*
X20360315Y6686961D01*
X20307511Y6641206D01*
X20256000Y6630000D01*
X19880000Y6630000D01*
X19880000Y6201200D01*
X19910735Y6046683D01*
X19910743Y6046648D01*
X19971043Y5901067D01*
X19971048Y5901057D01*
X20058599Y5770029D01*
X20058600Y5770028D01*
X20058605Y5770022D01*
X20170020Y5658607D01*
X20170026Y5658602D01*
X20170027Y5658601D01*
X20301043Y5571058D01*
X20301048Y5571055D01*
X20301051Y5571053D01*
X20301061Y5571048D01*
X20446647Y5510744D01*
X20446653Y5510742D01*
X20479999Y5504110D01*
X20480000Y5504110D01*
X20480000Y5504111D01*
X20480000Y5861408D01*
X20499685Y5928447D01*
X20552489Y5974202D01*
X20621647Y5984146D01*
X20636084Y5981185D01*
X20640504Y5980000D01*
X20719493Y5980000D01*
X20719496Y5980000D01*
X20723903Y5981181D01*
X20793750Y5979522D01*
X20851615Y5940362D01*
X20879122Y5876135D01*
X20880000Y5861408D01*
X20880000Y5504111D01*
X20880000Y5504110D01*
X20913346Y5510742D01*
X20913352Y5510744D01*
X21058938Y5571048D01*
X21058948Y5571053D01*
X21189969Y5658599D01*
X21189973Y5658602D01*
X21301398Y5770027D01*
X21301401Y5770031D01*
X21388947Y5901052D01*
X21388954Y5901065D01*
X21429850Y5999799D01*
X21447850Y6030139D01*
X21455682Y6039858D01*
X21513071Y6079707D01*
X21582896Y6082205D01*
X21640440Y6049210D01*
X21645615Y6043973D01*
X21647411Y6042155D01*
X21666593Y6017001D01*
X21689488Y5977345D01*
X21689492Y5977339D01*
X21689494Y5977336D01*
X21689495Y5977335D01*
X21787335Y5879495D01*
X21787336Y5879494D01*
X21787338Y5879493D01*
X21818663Y5861408D01*
X21907164Y5810312D01*
X22040817Y5774500D01*
X22040819Y5774500D01*
X22179181Y5774500D01*
X22179183Y5774500D01*
X22312836Y5810312D01*
X22432665Y5879495D01*
X22530505Y5977335D01*
X22599688Y6097164D01*
X22635500Y6230817D01*
X22635500Y6369183D01*
X22599688Y6502836D01*
X22590898Y6518059D01*
X22587812Y6530781D01*
X22577780Y6550827D01*
X22574508Y6564315D01*
X22575356Y6582120D01*
X22574425Y6585958D01*
X22575716Y6589692D01*
X22577833Y6634106D01*
X22618336Y6690998D01*
X22619614Y6692003D01*
X22672838Y6716314D01*
X22677765Y6717263D01*
X22701212Y6719500D01*
X22739635Y6719500D01*
X22754270Y6719500D01*
X22779996Y6721913D01*
X22784699Y6722354D01*
X22896824Y6761590D01*
X22901309Y6762790D01*
X22905827Y6762682D01*
X22927055Y6766849D01*
X22953204Y6768184D01*
X23013983Y6755747D01*
X23054462Y6735958D01*
X23066375Y6730134D01*
X23139364Y6719500D01*
X23139370Y6719500D01*
X23360630Y6719500D01*
X23360636Y6719500D01*
X23433625Y6730134D01*
X23433628Y6730136D01*
X23442828Y6732978D01*
X23442985Y6732468D01*
X23463107Y6738960D01*
X23486133Y6742891D01*
X23541957Y6739631D01*
X23544402Y6738913D01*
X23563904Y6731342D01*
X23566375Y6730134D01*
X23639364Y6719500D01*
X23639370Y6719500D01*
X23801404Y6719500D01*
X23836336Y6714479D01*
X23861580Y6707066D01*
X23914326Y6675770D01*
X24087258Y6502839D01*
X24236886Y6353211D01*
X24237576Y6352713D01*
X24240093Y6351360D01*
X24289151Y6323037D01*
X24289177Y6323019D01*
X24330437Y6299199D01*
X24330436Y6299199D01*
X24330445Y6299195D01*
X24339614Y6293901D01*
X24454191Y6263200D01*
X24454194Y6263200D01*
X25115108Y6263200D01*
X25115109Y6263200D01*
X25205473Y6287414D01*
X25229687Y6293901D01*
X25332414Y6353211D01*
X25610489Y6631286D01*
X25616709Y6642060D01*
X25638522Y6669799D01*
X25652145Y6682789D01*
X25708486Y6713551D01*
X25718612Y6716008D01*
X25747837Y6719500D01*
X25860630Y6719500D01*
X25860636Y6719500D01*
X25933625Y6730134D01*
X25933628Y6730136D01*
X25942828Y6732978D01*
X25942985Y6732468D01*
X25963107Y6738960D01*
X25986133Y6742891D01*
X26041957Y6739631D01*
X26044402Y6738913D01*
X26063904Y6731342D01*
X26066375Y6730134D01*
X26139364Y6719500D01*
X26139370Y6719500D01*
X26360630Y6719500D01*
X26360636Y6719500D01*
X26433625Y6730134D01*
X26433628Y6730136D01*
X26442828Y6732978D01*
X26442985Y6732468D01*
X26463107Y6738960D01*
X26486133Y6742891D01*
X26541957Y6739631D01*
X26544402Y6738913D01*
X26563904Y6731342D01*
X26566375Y6730134D01*
X26639364Y6719500D01*
X26639370Y6719500D01*
X26860630Y6719500D01*
X26860636Y6719500D01*
X26933625Y6730134D01*
X26979314Y6752472D01*
X27012898Y6763300D01*
X27038708Y6767706D01*
X27100527Y6762515D01*
X27215299Y6722354D01*
X27215303Y6722353D01*
X27233742Y6720625D01*
X27245730Y6719500D01*
X27245734Y6719500D01*
X27292799Y6719500D01*
X27327731Y6714479D01*
X27341050Y6710568D01*
X27399828Y6672794D01*
X27428854Y6609239D01*
X27428856Y6609222D01*
X27429087Y6607614D01*
X27423531Y6549436D01*
X27421893Y6544702D01*
X27412095Y6523247D01*
X27400317Y6502848D01*
X27400313Y6502840D01*
X27400313Y6502839D01*
X27400312Y6502836D01*
X27364500Y6369183D01*
X27364500Y6230818D01*
X27383069Y6161515D01*
X27400308Y6097179D01*
X27400313Y6097162D01*
X27400317Y6097154D01*
X27469488Y5977345D01*
X27469492Y5977339D01*
X27469494Y5977336D01*
X27469495Y5977335D01*
X27567335Y5879495D01*
X27567336Y5879494D01*
X27567338Y5879493D01*
X27598663Y5861408D01*
X27687164Y5810312D01*
X27820817Y5774500D01*
X27820819Y5774500D01*
X27959181Y5774500D01*
X27959183Y5774500D01*
X28092836Y5810312D01*
X28212665Y5879495D01*
X28310505Y5977335D01*
X28332467Y6015378D01*
X28354279Y6043114D01*
X28363313Y6051728D01*
X28425414Y6083741D01*
X28494967Y6077099D01*
X28547705Y6036879D01*
X28552812Y6030141D01*
X28553697Y6028973D01*
X28569431Y6001531D01*
X28611049Y5901057D01*
X28611050Y5901055D01*
X28611056Y5901045D01*
X28698599Y5770029D01*
X28698600Y5770028D01*
X28698605Y5770022D01*
X28810020Y5658607D01*
X28810026Y5658602D01*
X28810027Y5658601D01*
X28941043Y5571058D01*
X28941048Y5571055D01*
X28941051Y5571053D01*
X28941061Y5571048D01*
X29086647Y5510744D01*
X29086653Y5510742D01*
X29119999Y5504110D01*
X29120000Y5504110D01*
X29120000Y5504111D01*
X29120000Y5861408D01*
X29139685Y5928447D01*
X29192489Y5974202D01*
X29261647Y5984146D01*
X29276084Y5981185D01*
X29280504Y5980000D01*
X29359493Y5980000D01*
X29359496Y5980000D01*
X29363903Y5981181D01*
X29433750Y5979522D01*
X29491615Y5940362D01*
X29519122Y5876135D01*
X29520000Y5861408D01*
X29520000Y5504111D01*
X29520000Y5504110D01*
X29553346Y5510742D01*
X29553352Y5510744D01*
X29698938Y5571048D01*
X29698948Y5571053D01*
X29829969Y5658599D01*
X29829973Y5658602D01*
X29941398Y5770027D01*
X29941401Y5770031D01*
X30028947Y5901052D01*
X30028952Y5901061D01*
X30028954Y5901065D01*
X30028955Y5901067D01*
X30061649Y5980000D01*
X30089256Y6046649D01*
X30089258Y6046657D01*
X30118480Y6193568D01*
X30119203Y6196297D01*
X30120000Y6201205D01*
X30120000Y6630000D01*
X29744000Y6630000D01*
X29676961Y6649685D01*
X29631206Y6702489D01*
X29620000Y6754000D01*
X29620000Y6906000D01*
X29639685Y6973039D01*
X29692489Y7018794D01*
X29744000Y7030000D01*
X30120000Y7030000D01*
X30120000Y7458796D01*
X30119909Y7459534D01*
X30119408Y7461769D01*
X30089263Y7613319D01*
X30089262Y7613320D01*
X30089258Y7613344D01*
X30089256Y7613352D01*
X30058327Y7688023D01*
X30028955Y7758935D01*
X30028950Y7758945D01*
X29941399Y7889973D01*
X29941398Y7889974D01*
X29941393Y7889980D01*
X29829978Y8001395D01*
X29829972Y8001400D01*
X29829971Y8001401D01*
X29698942Y8088952D01*
X29698943Y8088952D01*
X29698933Y8088957D01*
X29553351Y8149257D01*
X29553331Y8149262D01*
X29520000Y8155893D01*
X29520000Y7798593D01*
X29500315Y7731554D01*
X29447511Y7685799D01*
X29378353Y7675855D01*
X29363918Y7678816D01*
X29359496Y7680000D01*
X29359494Y7680000D01*
X29280506Y7680000D01*
X29280504Y7680000D01*
X29276089Y7678818D01*
X29206241Y7680482D01*
X29148379Y7719646D01*
X29120877Y7783875D01*
X29120000Y7798593D01*
X29120000Y8155891D01*
X29119999Y8155893D01*
X29086674Y8149263D01*
X29086647Y8149257D01*
X28941065Y8088957D01*
X28941055Y8088952D01*
X28810027Y8001401D01*
X28810026Y8001400D01*
X28810020Y8001395D01*
X28698605Y7889980D01*
X28698600Y7889974D01*
X28698599Y7889973D01*
X28611048Y7758945D01*
X28611043Y7758935D01*
X28550743Y7613354D01*
X28550735Y7613319D01*
X28520000Y7458802D01*
X28520000Y7458798D01*
X28520000Y7030000D01*
X28896000Y7030000D01*
X28963039Y7010315D01*
X29008794Y6957511D01*
X29020000Y6906000D01*
X29020000Y6754000D01*
X29000315Y6686961D01*
X28947511Y6641206D01*
X28896000Y6630000D01*
X28519999Y6630000D01*
X28510864Y6620865D01*
X28482608Y6599714D01*
X28470209Y6592944D01*
X28401936Y6578094D01*
X28337063Y6602073D01*
X28321599Y6613507D01*
X28307640Y6625531D01*
X28212674Y6720497D01*
X28212667Y6720503D01*
X28212661Y6720508D01*
X28212651Y6720515D01*
X28092870Y6789670D01*
X28092821Y6789696D01*
X28087238Y6792487D01*
X28087241Y6792495D01*
X28072922Y6799502D01*
X28057785Y6808729D01*
X28010788Y6860431D01*
X27998774Y6925138D01*
X27999753Y6936622D01*
X28006261Y6967032D01*
X28047646Y7085301D01*
X28050500Y7115734D01*
X28050500Y8374266D01*
X28050500Y8374273D01*
X28050440Y8374911D01*
X28050442Y8374912D01*
X28050437Y8374930D01*
X28048186Y8398938D01*
X28047969Y8403569D01*
X28047868Y8404343D01*
X28046649Y8408178D01*
X28044856Y8414445D01*
X28040234Y8442234D01*
X28040045Y8445932D01*
X28039471Y8457187D01*
X28055089Y8524037D01*
X28062182Y8536718D01*
X28082718Y8563864D01*
X28163614Y8644758D01*
X28240275Y8759489D01*
X28293080Y8886972D01*
X28304245Y8943102D01*
X28320000Y9022305D01*
X28320000Y9160296D01*
X28320000Y9160299D01*
X28292841Y9296830D01*
X28290755Y9301241D01*
X28271057Y9348797D01*
X28255100Y9387320D01*
X28240278Y9423105D01*
X28240271Y9423118D01*
X28163614Y9537842D01*
X28163611Y9537846D01*
X28163606Y9537852D01*
X28066050Y9635408D01*
X28066044Y9635413D01*
X28066043Y9635414D01*
X27951323Y9712068D01*
X27951322Y9712069D01*
X27951317Y9712072D01*
X27951304Y9712079D01*
X27944737Y9714799D01*
X27849816Y9754116D01*
X27819468Y9772120D01*
X27812599Y9777655D01*
X27812460Y9777767D01*
X27772610Y9835155D01*
X27770112Y9904980D01*
X27805760Y9965071D01*
X27861756Y9995001D01*
X27866743Y9996179D01*
X27889424Y9998822D01*
X27889397Y9999278D01*
X27893088Y9999500D01*
X27893097Y9999500D01*
X27893102Y9999500D01*
X27981564Y10010123D01*
X28122342Y10065639D01*
X28242922Y10157078D01*
X28334361Y10277658D01*
X28389877Y10418436D01*
X28400500Y10506898D01*
X28400500Y11493102D01*
X28389877Y11581564D01*
X28335519Y11719404D01*
X28334349Y11722610D01*
X28332032Y11725893D01*
X28332029Y11725898D01*
X28329240Y11729096D01*
X28242922Y11842924D01*
X28122345Y11934360D01*
X28122339Y11934363D01*
X28026192Y11972279D01*
X28026191Y11972279D01*
X27982543Y11989492D01*
X27980583Y11990284D01*
X27980311Y11990397D01*
X27974199Y11990762D01*
X27935926Y11995358D01*
X27935925Y11995359D01*
X27908220Y11998685D01*
X27893102Y12000500D01*
X27893098Y12000500D01*
X27281901Y12000500D01*
X27281898Y12000500D01*
X27271560Y11999259D01*
X27242853Y11995813D01*
X27242853Y11995812D01*
X27236920Y11995100D01*
X27193439Y11989879D01*
X27052653Y11934360D01*
X26932076Y11842924D01*
X26840640Y11722347D01*
X26785120Y11581559D01*
X26785120Y11581558D01*
X26784093Y11572995D01*
X26784093Y11572990D01*
X26784093Y11572989D01*
X26774500Y11493102D01*
X26774500Y11493097D01*
X26774500Y11493096D01*
X26774500Y10822585D01*
X26769476Y10787648D01*
X26762064Y10762407D01*
X26730769Y10709663D01*
X26429527Y10408422D01*
X26429522Y10408418D01*
X26429511Y10408400D01*
X26371353Y10307669D01*
X26370409Y10293263D01*
X26349500Y10215229D01*
X26349500Y9280040D01*
X26344474Y9245096D01*
X26341289Y9234252D01*
X26303510Y9175477D01*
X26239953Y9146457D01*
X26170795Y9156406D01*
X26117994Y9202165D01*
X26113483Y9209770D01*
X26089731Y9253269D01*
X26080213Y9282439D01*
X26078603Y9282007D01*
X26074955Y9295623D01*
X26035577Y9442584D01*
X25995118Y9512662D01*
X25956524Y9579510D01*
X25956518Y9579518D01*
X25956513Y9579524D01*
X25844722Y9691315D01*
X25844720Y9691316D01*
X25844717Y9691319D01*
X25844709Y9691325D01*
X25808765Y9712077D01*
X25707807Y9770365D01*
X25707783Y9770378D01*
X25579390Y9804780D01*
X25555057Y9811300D01*
X25555056Y9811300D01*
X25396943Y9811300D01*
X25244218Y9770378D01*
X25244211Y9770376D01*
X25244210Y9770375D01*
X25244200Y9770370D01*
X25107298Y9691330D01*
X25107294Y9691328D01*
X25107290Y9691325D01*
X25107282Y9691319D01*
X25107278Y9691316D01*
X25107276Y9691315D01*
X24995485Y9579524D01*
X24995478Y9579516D01*
X24995471Y9579505D01*
X24940799Y9484809D01*
X24918985Y9457069D01*
X24910801Y9449265D01*
X24848700Y9417247D01*
X24779146Y9423886D01*
X24724225Y9467073D01*
X24723792Y9467681D01*
X24702584Y9518974D01*
X24702210Y9521196D01*
X24700500Y9541722D01*
X24700500Y11106707D01*
X24705522Y11141640D01*
X24712934Y11166885D01*
X24744228Y11219627D01*
X25526599Y12001999D01*
X25554849Y12023146D01*
X25569173Y12030968D01*
X25636180Y12045902D01*
X25650693Y12045013D01*
X25684046Y12038291D01*
X25690521Y12036026D01*
X25690528Y12036021D01*
X25690529Y12036022D01*
X25715298Y12027355D01*
X25715301Y12027354D01*
X25721387Y12026784D01*
X25745730Y12024500D01*
X25745734Y12024500D01*
X26154270Y12024500D01*
X26154271Y12024500D01*
X26178600Y12026782D01*
X26178920Y12026813D01*
X26182498Y12026980D01*
X26184699Y12027354D01*
X26184701Y12027354D01*
X26248790Y12049781D01*
X26312882Y12072207D01*
X26422150Y12152850D01*
X26502793Y12262118D01*
X26525219Y12326210D01*
X26547646Y12390299D01*
X26547646Y12390301D01*
X26548020Y12392501D01*
X26548188Y12396081D01*
X26550500Y12420730D01*
X26550500Y13704272D01*
X26548188Y13728921D01*
X26548020Y13732498D01*
X26547646Y13734703D01*
X26523284Y13804323D01*
X26503166Y13861813D01*
X26502813Y13862855D01*
X26458027Y13923538D01*
X26435314Y13954314D01*
X26418611Y13985406D01*
X26417573Y13988247D01*
X26408025Y14014392D01*
X26400500Y14056930D01*
X26400500Y15529307D01*
X26400500Y15529309D01*
X26369799Y15643886D01*
X26369799Y15643887D01*
X26310489Y15746614D01*
X25663214Y16393889D01*
X25663211Y16393891D01*
X25663207Y16393894D01*
X25607597Y16426001D01*
X25607597Y16426000D01*
X25560488Y16453199D01*
X25548377Y16456444D01*
X25548377Y16456445D01*
X25536275Y16459687D01*
X25536275Y16459688D01*
X25536270Y16459688D01*
X25508306Y16467182D01*
X25498075Y16469923D01*
X25498075Y16469924D01*
X25445914Y16483900D01*
X25445909Y16483900D01*
X25445908Y16483900D01*
X20246261Y16483900D01*
X20211323Y16488924D01*
X20181884Y16497569D01*
X20150834Y16512085D01*
X20150725Y16511895D01*
X20148533Y16513161D01*
X20147935Y16513440D01*
X20147210Y16513925D01*
X20010297Y16592970D01*
X20010283Y16592978D01*
X19898479Y16622936D01*
X19857557Y16633900D01*
X19857556Y16633900D01*
X19699443Y16633900D01*
X19546718Y16592978D01*
X19546711Y16592976D01*
X19546710Y16592975D01*
X19546700Y16592970D01*
X19409798Y16513930D01*
X19409794Y16513928D01*
X19409790Y16513925D01*
X19409782Y16513919D01*
X19409778Y16513916D01*
X19409776Y16513915D01*
X19297985Y16402124D01*
X19297984Y16402122D01*
X19297981Y16402119D01*
X19297981Y16402118D01*
X19297975Y16402110D01*
X19297972Y16402106D01*
X19297970Y16402102D01*
X19218930Y16265200D01*
X19218925Y16265190D01*
X19218924Y16265189D01*
X19218922Y16265182D01*
X19199592Y16193039D01*
X19178000Y16112457D01*
X18175500Y16112457D01*
X18175500Y16818102D01*
X18164877Y16906564D01*
X18110519Y17044404D01*
X18109349Y17047610D01*
X18107032Y17050893D01*
X18107029Y17050898D01*
X18104240Y17054096D01*
X18017922Y17167924D01*
X17897345Y17259360D01*
X17897343Y17259361D01*
X17822571Y17288847D01*
X17756559Y17314879D01*
X17717152Y17319611D01*
X17710926Y17320358D01*
X17710925Y17320359D01*
X17683220Y17323685D01*
X17668102Y17325500D01*
X17668098Y17325500D01*
X16880796Y17325500D01*
X16845860Y17330523D01*
X16820618Y17337935D01*
X16767873Y17369231D01*
X15058553Y19078551D01*
X15037404Y19106801D01*
X15027345Y19125222D01*
X15012183Y19183537D01*
X15012123Y19190270D01*
X15014500Y19215549D01*
X15050066Y19394357D01*
X15050500Y19396353D01*
X15050500Y19603468D01*
X15050409Y19604206D01*
X15049908Y19606441D01*
X15020664Y19753461D01*
X15010130Y19806420D01*
X14930941Y19997598D01*
X14816046Y20169551D01*
X14816036Y20169583D01*
X14815980Y20169652D01*
X14815980Y20169651D01*
X14815977Y20169655D01*
X14815975Y20169658D01*
X14815973Y20169660D01*
X14815970Y20169664D01*
X14669659Y20315975D01*
X14544652Y20399501D01*
X14544650Y20399502D01*
X14497606Y20430937D01*
X14497595Y20430943D01*
X14374010Y20482133D01*
X14306420Y20510130D01*
X14306412Y20510132D01*
X14306404Y20510134D01*
X14306394Y20510136D01*
X14103471Y20550500D01*
X14103469Y20550500D01*
X14103465Y20550500D01*
X13896535Y20550500D01*
X13896530Y20550500D01*
X13896527Y20550500D01*
X13720516Y20515489D01*
X13685274Y20513599D01*
X13664375Y20515469D01*
X13607454Y20535266D01*
X13601833Y20538950D01*
X13582124Y20554979D01*
X12926616Y21210487D01*
X12926614Y21210489D01*
X12868923Y21243797D01*
X12840368Y21260284D01*
X12823887Y21269800D01*
X12811777Y21273044D01*
X12811777Y21273045D01*
X12799675Y21276287D01*
X12799675Y21276288D01*
X12799670Y21276288D01*
X12771706Y21283782D01*
X12761475Y21286523D01*
X12761475Y21286524D01*
X12709314Y21300500D01*
X12709309Y21300500D01*
X12709308Y21300500D01*
X10992330Y21300500D01*
X10957389Y21305525D01*
X10942390Y21309930D01*
X10883644Y21347673D01*
X10882457Y21349042D01*
X10854977Y21403917D01*
X10853332Y21411479D01*
X10850500Y21437832D01*
X10850500Y21529593D01*
X10843720Y21604208D01*
X10844138Y21604247D01*
X10843083Y21614113D01*
X10843055Y21615805D01*
X10842778Y21632615D01*
X10861355Y21699967D01*
X10913392Y21746583D01*
X10920019Y21749742D01*
X10973359Y21761800D01*
X14531905Y21761800D01*
X14566837Y21756779D01*
X14592081Y21749366D01*
X14644827Y21718070D01*
X16441446Y19921451D01*
X16462595Y19893202D01*
X16472652Y19874782D01*
X16487816Y19816462D01*
X16487876Y19809742D01*
X16485498Y19784443D01*
X16449500Y19603473D01*
X16449500Y19603470D01*
X16449500Y19396531D01*
X16449500Y19396529D01*
X16449499Y19396529D01*
X16489864Y19193606D01*
X16489870Y19193579D01*
X16551982Y19043625D01*
X16551983Y19043625D01*
X16569061Y19002397D01*
X16570996Y18999501D01*
X16570997Y18999501D01*
X16684025Y18830341D01*
X16830336Y18684030D01*
X16830340Y18684027D01*
X16830342Y18684025D01*
X16830345Y18684023D01*
X16830349Y18684020D01*
X16830348Y18684020D01*
X16830411Y18683968D01*
X16830448Y18683954D01*
X17002402Y18569059D01*
X17193580Y18489870D01*
X17384545Y18451885D01*
X17393559Y18450092D01*
X17395794Y18449591D01*
X17396532Y18449500D01*
X17603466Y18449500D01*
X17607587Y18449500D01*
X17615440Y18451883D01*
X17660490Y18460844D01*
X17660491Y18460844D01*
X17727327Y18474138D01*
X17779485Y18484513D01*
X17814721Y18486402D01*
X17835627Y18484532D01*
X17892545Y18464735D01*
X17898166Y18461051D01*
X17917875Y18445022D01*
X18779786Y17583111D01*
X18882513Y17523801D01*
X18904790Y17517834D01*
X18908615Y17516742D01*
X18919283Y17513512D01*
X18922492Y17513089D01*
X18936832Y17509247D01*
X18936847Y17509243D01*
X18997091Y17493100D01*
X29888105Y17493100D01*
X29923037Y17488079D01*
X29948281Y17480666D01*
X30001027Y17449370D01*
X36725573Y10724824D01*
X36746723Y10696572D01*
X36759331Y10673483D01*
X36774500Y10614054D01*
X36774500Y10006897D01*
X36779244Y9967392D01*
X36779244Y9967388D01*
X36779245Y9967388D01*
X36784238Y9925802D01*
X36784603Y9919689D01*
X36784716Y9919417D01*
X36785507Y9917459D01*
X36790352Y9905174D01*
X36790353Y9905171D01*
X36840637Y9777661D01*
X36840640Y9777655D01*
X36932076Y9657078D01*
X37045904Y9570760D01*
X37049102Y9567971D01*
X37049107Y9567968D01*
X37052390Y9565651D01*
X37055596Y9564481D01*
X37193436Y9510123D01*
X37281898Y9499500D01*
X37281903Y9499500D01*
X37893097Y9499500D01*
X37893102Y9499500D01*
X37981564Y9510123D01*
X38122342Y9565639D01*
X38242922Y9657078D01*
X38334361Y9777658D01*
X38378107Y9888593D01*
X38395595Y9919246D01*
X38402542Y9928175D01*
X38459248Y9968994D01*
X38529020Y9972676D01*
X38589706Y9938053D01*
X38589710Y9938048D01*
X38589711Y9938047D01*
X38594139Y9933450D01*
X38620186Y9892917D01*
X38634013Y9857855D01*
X38634013Y9857853D01*
X38665637Y9777661D01*
X38665640Y9777655D01*
X38757076Y9657078D01*
X38859358Y9579516D01*
X38877658Y9565639D01*
X38916906Y9550162D01*
X38947559Y9532676D01*
X38949238Y9531369D01*
X38959896Y9523077D01*
X39000717Y9466379D01*
X39004966Y9454307D01*
X39012000Y9413138D01*
X39012000Y7917330D01*
X39006975Y7882386D01*
X39002570Y7867388D01*
X38964827Y7808645D01*
X38963458Y7807458D01*
X38908597Y7779982D01*
X38901039Y7778337D01*
X38874668Y7775500D01*
X36415858Y7775500D01*
X36380917Y7780525D01*
X36365918Y7784930D01*
X36307147Y7822701D01*
X36297409Y7833939D01*
X36277687Y7865055D01*
X36271566Y7878918D01*
X36266686Y7889970D01*
X36266684Y7889974D01*
X36252208Y7922761D01*
X36252207Y7922763D01*
X36252206Y7922765D01*
X36172765Y8002206D01*
X36172760Y8002208D01*
X36166729Y8004871D01*
X36115122Y8027658D01*
X36115120Y8027659D01*
X36115119Y8027660D01*
X36069993Y8047585D01*
X36069994Y8047585D01*
X36044868Y8050500D01*
X36044865Y8050500D01*
X34955143Y8050500D01*
X34955127Y8050499D01*
X34955113Y8050498D01*
X34937255Y8048427D01*
X34930012Y8047587D01*
X34930011Y8047587D01*
X34930005Y8047586D01*
X34929559Y8047453D01*
X34927303Y8046391D01*
X34827236Y8002208D01*
X34747794Y7922767D01*
X34712238Y7842241D01*
X34693530Y7812309D01*
X34678116Y7794062D01*
X34634295Y7761012D01*
X34632849Y7760361D01*
X34614041Y7753656D01*
X34593723Y7748212D01*
X34593705Y7748206D01*
X34546631Y7721025D01*
X34546621Y7721019D01*
X34523678Y7707774D01*
X34493778Y7695389D01*
X34463316Y7687226D01*
X34431220Y7683000D01*
X34171928Y7683000D01*
X34136992Y7688023D01*
X34111750Y7695435D01*
X34059004Y7726732D01*
X34022721Y7763016D01*
X34022717Y7763019D01*
X34022709Y7763025D01*
X33986595Y7783875D01*
X33885807Y7842065D01*
X33885783Y7842078D01*
X33735348Y7882386D01*
X33733057Y7883000D01*
X33733056Y7883000D01*
X33574943Y7883000D01*
X33422218Y7842078D01*
X33422211Y7842076D01*
X33422210Y7842075D01*
X33422200Y7842070D01*
X33285298Y7763030D01*
X33285294Y7763028D01*
X33285290Y7763025D01*
X33285282Y7763019D01*
X33285278Y7763016D01*
X33285276Y7763015D01*
X33173485Y7651224D01*
X33173484Y7651222D01*
X33173481Y7651219D01*
X33173481Y7651218D01*
X33173475Y7651210D01*
X33173472Y7651206D01*
X33173470Y7651202D01*
X33094430Y7514300D01*
X33094425Y7514290D01*
X33094424Y7514289D01*
X33094422Y7514282D01*
X33053500Y7361557D01*
X33053500Y7203443D01*
X33077002Y7115735D01*
X33077003Y7115731D01*
X33094423Y7050716D01*
X33094424Y7050713D01*
X33094425Y7050712D01*
X33094428Y7050707D01*
X33171629Y6916987D01*
X33173012Y6914416D01*
X33173398Y6913866D01*
X33285336Y6801928D01*
X33285852Y6801548D01*
X33288475Y6800137D01*
X33365364Y6755746D01*
X33409720Y6730137D01*
X33413584Y6727907D01*
X33422216Y6722923D01*
X33574943Y6682000D01*
X33574945Y6682000D01*
X33733055Y6682000D01*
X33733057Y6682000D01*
X33885784Y6722923D01*
X34022716Y6801980D01*
X34053811Y6833076D01*
X34082062Y6854225D01*
X34105154Y6866833D01*
X34164579Y6882000D01*
X34627087Y6882000D01*
X34662023Y6876977D01*
X34682521Y6870958D01*
X34733963Y6840946D01*
X34741805Y6833332D01*
X34743701Y6831282D01*
X34743724Y6831304D01*
X34747782Y6827247D01*
X34747791Y6827238D01*
X34747793Y6827236D01*
X34747794Y6827235D01*
X34827235Y6747794D01*
X34930009Y6702415D01*
X34955135Y6699500D01*
X36044864Y6699501D01*
X36044879Y6699501D01*
X36044978Y6699508D01*
X36045733Y6699602D01*
X36062893Y6701592D01*
X36068611Y6701922D01*
X36069225Y6702022D01*
X36071863Y6703242D01*
X36172765Y6747794D01*
X36252206Y6827235D01*
X36277394Y6884282D01*
X36296093Y6914201D01*
X36306185Y6926149D01*
X36364477Y6964659D01*
X36378698Y6969030D01*
X36415125Y6974500D01*
X40584142Y6974500D01*
X40619078Y6969477D01*
X40634076Y6965073D01*
X40692851Y6927300D01*
X40702590Y6916061D01*
X40722313Y6884944D01*
X40723613Y6882000D01*
X40747794Y6827235D01*
X40827235Y6747794D01*
X40930009Y6702415D01*
X40955135Y6699500D01*
X42044864Y6699501D01*
X42044879Y6699501D01*
X42044978Y6699508D01*
X42045733Y6699602D01*
X42062893Y6701592D01*
X42068611Y6701922D01*
X42069225Y6702022D01*
X42071863Y6703242D01*
X42172765Y6747794D01*
X42252206Y6827235D01*
X42297585Y6930009D01*
X42300500Y6955135D01*
X42300499Y7794864D01*
X42298410Y7812882D01*
X42298079Y7818610D01*
X42297955Y7819370D01*
X42296393Y7822691D01*
X42252206Y7922765D01*
X42172767Y8002204D01*
X42172765Y8002206D01*
X42172760Y8002208D01*
X42166729Y8004871D01*
X42115122Y8027658D01*
X42115120Y8027659D01*
X42115119Y8027660D01*
X42069993Y8047585D01*
X42069994Y8047585D01*
X42044868Y8050500D01*
X42044865Y8050500D01*
X40955143Y8050500D01*
X40955127Y8050499D01*
X40955113Y8050498D01*
X40937255Y8048427D01*
X40930012Y8047587D01*
X40930011Y8047587D01*
X40930005Y8047586D01*
X40929559Y8047453D01*
X40927303Y8046391D01*
X40827236Y8002208D01*
X40827233Y8002206D01*
X40747795Y7922768D01*
X40747790Y7922760D01*
X40722605Y7865721D01*
X40703899Y7835791D01*
X40693815Y7823853D01*
X40635524Y7785343D01*
X40623822Y7781746D01*
X40621311Y7780974D01*
X40584875Y7775500D01*
X39954830Y7775500D01*
X39919889Y7780525D01*
X39904890Y7784930D01*
X39846144Y7822673D01*
X39844957Y7824042D01*
X39817477Y7878917D01*
X39815832Y7886479D01*
X39813000Y7912832D01*
X39813000Y9410439D01*
X39818023Y9445375D01*
X39822427Y9460373D01*
X39860198Y9519147D01*
X39869873Y9527531D01*
X39905592Y9549176D01*
X39947342Y9565639D01*
X40067922Y9657078D01*
X40159361Y9777658D01*
X40214877Y9918436D01*
X40225500Y10006898D01*
X40225500Y10993102D01*
X40214877Y11081564D01*
X40160519Y11219404D01*
X40159349Y11222610D01*
X40157032Y11225893D01*
X40157029Y11225898D01*
X40154240Y11229096D01*
X40067922Y11342924D01*
X39947345Y11434360D01*
X39947343Y11434361D01*
X39876952Y11462120D01*
X39806559Y11489879D01*
X39767152Y11494611D01*
X39760926Y11495358D01*
X39760925Y11495359D01*
X39731760Y11498860D01*
X39718102Y11500500D01*
X39718098Y11500500D01*
X39542295Y11500500D01*
X39507360Y11505523D01*
X39496506Y11508710D01*
X39437728Y11546484D01*
X39408703Y11610040D01*
X39418643Y11679189D01*
X39421833Y11686176D01*
X39446942Y11722340D01*
X41225179Y13500577D01*
X41253429Y13521725D01*
X41276521Y13534333D01*
X41335946Y13549500D01*
X44613552Y13549500D01*
X44648488Y13544477D01*
X44663486Y13540073D01*
X44722263Y13502299D01*
X44726015Y13497969D01*
X44751661Y13450373D01*
X44751884Y13449581D01*
X44755641Y13430758D01*
X44760122Y13393439D01*
X44815639Y13252658D01*
X44815640Y13252655D01*
X44907076Y13132078D01*
X45020904Y13045760D01*
X45024102Y13042971D01*
X45024107Y13042968D01*
X45027390Y13040651D01*
X45030596Y13039481D01*
X45168436Y12985123D01*
X45256898Y12974500D01*
X45256903Y12974500D01*
X45843097Y12974500D01*
X45843102Y12974500D01*
X45931564Y12985123D01*
X46072342Y13040639D01*
X46192922Y13132078D01*
X46284361Y13252658D01*
X46339877Y13393436D01*
X46350500Y13481898D01*
X46350500Y14094206D01*
X46355522Y14129139D01*
X46359618Y14143088D01*
X46362934Y14154384D01*
X46394230Y14207128D01*
X46418008Y14230905D01*
X46460489Y14273386D01*
X46515069Y14367922D01*
X46519799Y14376114D01*
X46550500Y14490691D01*
X46550500Y15609309D01*
X46519799Y15723886D01*
X46519793Y15723896D01*
X46518829Y15726226D01*
X46513617Y15741581D01*
X46506860Y15766802D01*
X46504724Y15774775D01*
X46500500Y15806863D01*
X46500500Y15834277D01*
X46503169Y15859867D01*
X46503299Y15860485D01*
X46508397Y15884650D01*
X46516291Y15909136D01*
X46524701Y15928181D01*
X46547585Y15980009D01*
X46550500Y16005135D01*
X46550500Y16108171D01*
X46555523Y16143107D01*
X46559101Y16155290D01*
X46559927Y16158106D01*
X46597672Y16216856D01*
X46599041Y16218043D01*
X46653920Y16245523D01*
X46661479Y16247167D01*
X46687832Y16250000D01*
X46750000Y16250000D01*
X46750000Y16408171D01*
X46755023Y16443107D01*
X46757987Y16453199D01*
X46759427Y16458106D01*
X46797172Y16516856D01*
X46798541Y16518043D01*
X46853420Y16545523D01*
X46860979Y16547167D01*
X46887332Y16550000D01*
X46908170Y16550000D01*
X46943106Y16544977D01*
X46958104Y16540573D01*
X47016855Y16502828D01*
X47018042Y16501459D01*
X47045518Y16446598D01*
X47047163Y16439040D01*
X47050000Y16412669D01*
X47050000Y16250000D01*
X47250000Y16250000D01*
X47250000Y17155838D01*
X47255022Y17190771D01*
X47262434Y17216016D01*
X47293729Y17268759D01*
X47302206Y17277235D01*
X47347585Y17380009D01*
X47350500Y17405135D01*
X47350499Y17994864D01*
X47350497Y17994883D01*
X47348409Y18012885D01*
X47348078Y18018610D01*
X47347954Y18019373D01*
X47346397Y18022683D01*
X47326745Y18067189D01*
X47316287Y18090874D01*
X47308394Y18115358D01*
X47303168Y18140133D01*
X47300500Y18165720D01*
X47300500Y22163673D01*
X47305523Y22198609D01*
X47306623Y22202353D01*
X47309569Y22212389D01*
X47347344Y22271166D01*
X47409462Y22299975D01*
X47410056Y22300068D01*
X47422390Y22301989D01*
X47456251Y22302580D01*
X47481898Y22299500D01*
X47481905Y22299500D01*
X48868097Y22299500D01*
X48868102Y22299500D01*
X48956564Y22310123D01*
X49097342Y22365639D01*
X49217922Y22457078D01*
X49265927Y22520384D01*
X49291033Y22545179D01*
X49300134Y22551904D01*
X49365748Y22575911D01*
X49433927Y22560633D01*
X49483006Y22510952D01*
X49484684Y22507835D01*
X49499500Y22449057D01*
X49499500Y2006643D01*
X49499421Y2002216D01*
X49499263Y1997793D01*
X49499026Y1993373D01*
X49485185Y1799868D01*
X49484238Y1791059D01*
X49482978Y1782300D01*
X49481407Y1773598D01*
X49441586Y1590546D01*
X49439398Y1581973D01*
X49436906Y1573485D01*
X49434110Y1565083D01*
X49368639Y1389545D01*
X49365249Y1381360D01*
X49361579Y1373325D01*
X49357619Y1365416D01*
X49267834Y1200988D01*
X49263315Y1193371D01*
X49258528Y1185923D01*
X49253482Y1178657D01*
X49141218Y1028689D01*
X49135664Y1021797D01*
X49129868Y1015108D01*
X49123836Y1008629D01*
X48991371Y876164D01*
X48984892Y870132D01*
X48978203Y864336D01*
X48971311Y858782D01*
X48821343Y746518D01*
X48814077Y741472D01*
X48806629Y736685D01*
X48799012Y732166D01*
X48634584Y642381D01*
X48626675Y638421D01*
X48618640Y634751D01*
X48610455Y631361D01*
X48434917Y565890D01*
X48426515Y563094D01*
X48418027Y560602D01*
X48409454Y558414D01*
X48226402Y518593D01*
X48217698Y517022D01*
X48208938Y515762D01*
X48200130Y514815D01*
X48021728Y502056D01*
X48021729Y502055D01*
X48006616Y500974D01*
X48002206Y500738D01*
X47997773Y500579D01*
X47993356Y500500D01*
X2006643Y500500D01*
X2002218Y500579D01*
X1997792Y500738D01*
X1993374Y500974D01*
X1986118Y501493D01*
X1973622Y502387D01*
X1973621Y502388D01*
X1799866Y514815D01*
X1791059Y515762D01*
X1782299Y517022D01*
X1773596Y518593D01*
X1590537Y558414D01*
X1581965Y560601D01*
X1573497Y563087D01*
X1565092Y565884D01*
X1389539Y631363D01*
X1381358Y634752D01*
X1373316Y638425D01*
X1365405Y642386D01*
X1200987Y732164D01*
X1193375Y736680D01*
X1185937Y741460D01*
X1178664Y746509D01*
X1028675Y858790D01*
X1021782Y864346D01*
X1015106Y870131D01*
X1008629Y876161D01*
X876159Y1008631D01*
X870129Y1015108D01*
X864344Y1021784D01*
X858788Y1028677D01*
X856702Y1031463D01*
X746489Y1178689D01*
X741459Y1185935D01*
X736663Y1193400D01*
X732163Y1200987D01*
X642376Y1365422D01*
X638424Y1373317D01*
X634750Y1381361D01*
X631360Y1389543D01*
X565880Y1565100D01*
X563087Y1573491D01*
X560594Y1581987D01*
X558414Y1590532D01*
X518589Y1773607D01*
X517017Y1782319D01*
X515760Y1791062D01*
X514814Y1799861D01*
X514813Y1799868D01*
X511941Y1840027D01*
X500973Y1993376D01*
X500737Y1997794D01*
X500579Y2002220D01*
X500500Y2006644D01*
X500500Y4118013D01*
X2199500Y4118013D01*
X2199500Y3881989D01*
X2199503Y3881960D01*
X2228861Y3658957D01*
X2230306Y3647990D01*
X2280685Y3459974D01*
X2280684Y3459974D01*
X2291391Y3420016D01*
X2291397Y3419998D01*
X2381715Y3201952D01*
X2381719Y3201944D01*
X2420829Y3134205D01*
X2499730Y2997545D01*
X2499939Y2997230D01*
X2500947Y2995960D01*
X2643399Y2810311D01*
X2643403Y2810306D01*
X2643406Y2810303D01*
X2643412Y2810296D01*
X2643420Y2810288D01*
X2810281Y2643426D01*
X2810297Y2643411D01*
X2810305Y2643405D01*
X2997548Y2499728D01*
X2997550Y2499727D01*
X3083680Y2450000D01*
X3083681Y2449999D01*
X3198503Y2383706D01*
X3200241Y2382626D01*
X3201710Y2381811D01*
X3202427Y2381519D01*
X3420007Y2291394D01*
X3647986Y2230307D01*
X3881989Y2199500D01*
X3881996Y2199500D01*
X4118004Y2199500D01*
X4118011Y2199500D01*
X4352014Y2230307D01*
X4579993Y2291394D01*
X4798049Y2381716D01*
X5002450Y2499727D01*
X5189699Y2643408D01*
X5356592Y2810301D01*
X5500273Y2997550D01*
X5518316Y3028802D01*
X19880000Y3028802D01*
X19880000Y3028798D01*
X19880000Y2850000D01*
X20256000Y2850000D01*
X20323039Y2830315D01*
X20368794Y2777511D01*
X20380000Y2726000D01*
X20380000Y2574000D01*
X20360315Y2506961D01*
X20307511Y2461206D01*
X20256000Y2450000D01*
X19880000Y2450000D01*
X19880000Y2271200D01*
X19910735Y2116683D01*
X19910743Y2116648D01*
X19971043Y1971067D01*
X19971048Y1971057D01*
X20058599Y1840029D01*
X20058600Y1840028D01*
X20058605Y1840022D01*
X20170020Y1728607D01*
X20170026Y1728602D01*
X20170027Y1728601D01*
X20301043Y1641058D01*
X20301048Y1641055D01*
X20301051Y1641053D01*
X20301061Y1641048D01*
X20446647Y1580744D01*
X20446653Y1580742D01*
X20479999Y1574110D01*
X20480000Y1574110D01*
X20480000Y1574111D01*
X20480000Y1931408D01*
X20499685Y1998447D01*
X20552489Y2044202D01*
X20621647Y2054146D01*
X20636084Y2051185D01*
X20640504Y2050000D01*
X20719493Y2050000D01*
X20719496Y2050000D01*
X20723903Y2051181D01*
X20793750Y2049522D01*
X20851615Y2010362D01*
X20879122Y1946135D01*
X20880000Y1931408D01*
X20880000Y1574111D01*
X20880000Y1574110D01*
X20913346Y1580742D01*
X20913352Y1580744D01*
X21058938Y1641048D01*
X21058948Y1641053D01*
X21189969Y1728599D01*
X21189973Y1728602D01*
X21301398Y1840027D01*
X21301401Y1840031D01*
X21388947Y1971052D01*
X21388952Y1971061D01*
X21388955Y1971067D01*
X21421649Y2050000D01*
X21449256Y2116649D01*
X21449258Y2116657D01*
X21478480Y2263568D01*
X21479203Y2266297D01*
X21480000Y2271205D01*
X21480000Y2450000D01*
X21104000Y2450000D01*
X21036961Y2469685D01*
X20991206Y2522489D01*
X20980000Y2574000D01*
X20980000Y2726000D01*
X20999685Y2793039D01*
X21052489Y2838794D01*
X21104000Y2850000D01*
X21480000Y2850000D01*
X21480000Y3026181D01*
X21480000Y3028794D01*
X21479999Y3028798D01*
X21479998Y3028802D01*
X28520000Y3028802D01*
X28520000Y3028798D01*
X28520000Y2850000D01*
X28896000Y2850000D01*
X28963039Y2830315D01*
X29008794Y2777511D01*
X29020000Y2726000D01*
X29020000Y2574000D01*
X29000315Y2506961D01*
X28947511Y2461206D01*
X28896000Y2450000D01*
X28520000Y2450000D01*
X28520000Y2271200D01*
X28550735Y2116683D01*
X28550743Y2116648D01*
X28611043Y1971067D01*
X28611048Y1971057D01*
X28698599Y1840029D01*
X28698600Y1840028D01*
X28698605Y1840022D01*
X28810020Y1728607D01*
X28810026Y1728602D01*
X28810027Y1728601D01*
X28941043Y1641058D01*
X28941048Y1641055D01*
X28941051Y1641053D01*
X28941061Y1641048D01*
X29086647Y1580744D01*
X29086653Y1580742D01*
X29119999Y1574110D01*
X29120000Y1574110D01*
X29120000Y1574111D01*
X29120000Y1931408D01*
X29139685Y1998447D01*
X29192489Y2044202D01*
X29261647Y2054146D01*
X29276084Y2051185D01*
X29280504Y2050000D01*
X29359493Y2050000D01*
X29359496Y2050000D01*
X29363903Y2051181D01*
X29433750Y2049522D01*
X29491615Y2010362D01*
X29519122Y1946135D01*
X29520000Y1931408D01*
X29520000Y1574111D01*
X29520000Y1574110D01*
X29553346Y1580742D01*
X29553352Y1580744D01*
X29698938Y1641048D01*
X29698948Y1641053D01*
X29829969Y1728599D01*
X29829973Y1728602D01*
X29941398Y1840027D01*
X29941401Y1840031D01*
X30028947Y1971052D01*
X30028952Y1971061D01*
X30028955Y1971067D01*
X30061649Y2050000D01*
X30089256Y2116649D01*
X30089258Y2116657D01*
X30118480Y2263568D01*
X30119203Y2266297D01*
X30120000Y2271205D01*
X30120000Y2450000D01*
X29744000Y2450000D01*
X29676961Y2469685D01*
X29631206Y2522489D01*
X29620000Y2574000D01*
X29620000Y2726000D01*
X29639685Y2793039D01*
X29692489Y2838794D01*
X29744000Y2850000D01*
X30120000Y2850000D01*
X30120000Y3028796D01*
X30119909Y3029534D01*
X30119408Y3031769D01*
X30089263Y3183319D01*
X30089262Y3183320D01*
X30089258Y3183344D01*
X30089256Y3183352D01*
X30059248Y3255799D01*
X30028955Y3328935D01*
X30028950Y3328945D01*
X29985174Y3394460D01*
X29941401Y3459970D01*
X29941398Y3459974D01*
X29941393Y3459980D01*
X29829978Y3571395D01*
X29829972Y3571400D01*
X29829971Y3571401D01*
X29698942Y3658952D01*
X29698943Y3658952D01*
X29698933Y3658957D01*
X29553351Y3719257D01*
X29553331Y3719262D01*
X29520000Y3725893D01*
X29520000Y3368593D01*
X29500315Y3301554D01*
X29447511Y3255799D01*
X29378353Y3245855D01*
X29363918Y3248816D01*
X29359496Y3250000D01*
X29359494Y3250000D01*
X29280506Y3250000D01*
X29280504Y3250000D01*
X29276089Y3248818D01*
X29206241Y3250482D01*
X29148379Y3289646D01*
X29120877Y3353875D01*
X29120000Y3368593D01*
X29120000Y3725891D01*
X29119999Y3725893D01*
X29086674Y3719263D01*
X29086647Y3719257D01*
X28941065Y3658957D01*
X28941055Y3658952D01*
X28810027Y3571401D01*
X28810026Y3571400D01*
X28810020Y3571395D01*
X28698605Y3459980D01*
X28698600Y3459974D01*
X28611048Y3328945D01*
X28611043Y3328935D01*
X28550743Y3183354D01*
X28550735Y3183319D01*
X28520000Y3028802D01*
X21479998Y3028802D01*
X21449258Y3183344D01*
X21449256Y3183352D01*
X21419248Y3255799D01*
X21388955Y3328935D01*
X21388950Y3328945D01*
X21345174Y3394460D01*
X21301401Y3459970D01*
X21301398Y3459974D01*
X21301393Y3459980D01*
X21189978Y3571395D01*
X21189972Y3571400D01*
X21189971Y3571401D01*
X21058942Y3658952D01*
X21058943Y3658952D01*
X21058933Y3658957D01*
X20913351Y3719257D01*
X20913331Y3719262D01*
X20880000Y3725893D01*
X20880000Y3368593D01*
X20860315Y3301554D01*
X20807511Y3255799D01*
X20738353Y3245855D01*
X20723918Y3248816D01*
X20719496Y3250000D01*
X20719494Y3250000D01*
X20640506Y3250000D01*
X20640504Y3250000D01*
X20636089Y3248818D01*
X20566241Y3250482D01*
X20508379Y3289646D01*
X20480877Y3353875D01*
X20480000Y3368593D01*
X20480000Y3725891D01*
X20479999Y3725893D01*
X20446674Y3719263D01*
X20446647Y3719257D01*
X20301065Y3658957D01*
X20301055Y3658952D01*
X20170027Y3571401D01*
X20170026Y3571400D01*
X20170020Y3571395D01*
X20058605Y3459980D01*
X20058600Y3459974D01*
X19971048Y3328945D01*
X19971043Y3328935D01*
X19910743Y3183354D01*
X19910735Y3183319D01*
X19880000Y3028802D01*
X5518316Y3028802D01*
X5579171Y3134205D01*
X5618280Y3201944D01*
X5618280Y3201945D01*
X5618284Y3201951D01*
X5708606Y3420007D01*
X5769693Y3647986D01*
X5800500Y3881989D01*
X5800500Y4118011D01*
X5800500Y4118013D01*
X44199500Y4118013D01*
X44199500Y3881989D01*
X44199503Y3881960D01*
X44228861Y3658957D01*
X44230306Y3647990D01*
X44280685Y3459974D01*
X44280684Y3459974D01*
X44291391Y3420016D01*
X44291397Y3419998D01*
X44381715Y3201952D01*
X44381719Y3201944D01*
X44420829Y3134205D01*
X44499730Y2997545D01*
X44499939Y2997230D01*
X44500947Y2995960D01*
X44643399Y2810311D01*
X44643403Y2810306D01*
X44643406Y2810303D01*
X44643412Y2810296D01*
X44643420Y2810288D01*
X44810281Y2643426D01*
X44810297Y2643411D01*
X44810305Y2643405D01*
X44997548Y2499728D01*
X44997550Y2499727D01*
X45083680Y2450000D01*
X45083681Y2449999D01*
X45198503Y2383706D01*
X45200241Y2382626D01*
X45201710Y2381811D01*
X45202427Y2381519D01*
X45420007Y2291394D01*
X45647986Y2230307D01*
X45881989Y2199500D01*
X45881996Y2199500D01*
X46118004Y2199500D01*
X46118011Y2199500D01*
X46352014Y2230307D01*
X46579993Y2291394D01*
X46798049Y2381716D01*
X47002450Y2499727D01*
X47189699Y2643408D01*
X47356592Y2810301D01*
X47500273Y2997550D01*
X47618284Y3201951D01*
X47708606Y3420007D01*
X47769693Y3647986D01*
X47800500Y3881989D01*
X47800500Y4118011D01*
X47769693Y4352014D01*
X47708606Y4579993D01*
X47618489Y4797553D01*
X47618189Y4798292D01*
X47617382Y4799745D01*
X47616297Y4801491D01*
X47576118Y4871082D01*
X47500273Y5002450D01*
X47500272Y5002452D01*
X47356595Y5189695D01*
X47356589Y5189703D01*
X47356574Y5189719D01*
X47189712Y5356580D01*
X47189704Y5356588D01*
X47189697Y5356594D01*
X47189694Y5356597D01*
X47189689Y5356601D01*
X47004040Y5499053D01*
X47002776Y5500056D01*
X47002447Y5500275D01*
X47002445Y5500277D01*
X46920957Y5547323D01*
X46920955Y5547325D01*
X46798065Y5618276D01*
X46798048Y5618285D01*
X46579997Y5708605D01*
X46352006Y5769695D01*
X46119889Y5800253D01*
X46118208Y5800500D01*
X46118017Y5800500D01*
X46118011Y5800500D01*
X45881989Y5800500D01*
X45881983Y5800500D01*
X45881981Y5800500D01*
X45875861Y5799747D01*
X45874955Y5799575D01*
X45647992Y5769695D01*
X45420001Y5708605D01*
X45201950Y5618285D01*
X45201942Y5618281D01*
X44997545Y5500270D01*
X44997536Y5500264D01*
X44810309Y5356601D01*
X44810294Y5356587D01*
X44810286Y5356580D01*
X44643420Y5189714D01*
X44643413Y5189706D01*
X44643399Y5189691D01*
X44499736Y5002464D01*
X44499730Y5002455D01*
X44381719Y4798058D01*
X44381715Y4798050D01*
X44291395Y4579999D01*
X44230305Y4352008D01*
X44199503Y4118037D01*
X44199500Y4118013D01*
X5800500Y4118013D01*
X5769693Y4352014D01*
X5708606Y4579993D01*
X5618489Y4797553D01*
X5618189Y4798292D01*
X5617382Y4799745D01*
X5616297Y4801491D01*
X5576118Y4871082D01*
X5500273Y5002450D01*
X5500272Y5002452D01*
X5356595Y5189695D01*
X5356589Y5189703D01*
X5356574Y5189719D01*
X5189712Y5356580D01*
X5189704Y5356588D01*
X5189697Y5356594D01*
X5189694Y5356597D01*
X5189689Y5356601D01*
X5004040Y5499053D01*
X5002776Y5500056D01*
X5002447Y5500275D01*
X5002445Y5500277D01*
X4920957Y5547323D01*
X4920955Y5547325D01*
X4798065Y5618276D01*
X4798048Y5618285D01*
X4579997Y5708605D01*
X4352006Y5769695D01*
X4119889Y5800253D01*
X4118208Y5800500D01*
X4118017Y5800500D01*
X4118011Y5800500D01*
X3881989Y5800500D01*
X3881983Y5800500D01*
X3881981Y5800500D01*
X3875861Y5799747D01*
X3874955Y5799575D01*
X3647992Y5769695D01*
X3420001Y5708605D01*
X3201950Y5618285D01*
X3201942Y5618281D01*
X2997545Y5500270D01*
X2997536Y5500264D01*
X2810309Y5356601D01*
X2810294Y5356587D01*
X2810286Y5356580D01*
X2643420Y5189714D01*
X2643413Y5189706D01*
X2643399Y5189691D01*
X2499736Y5002464D01*
X2499730Y5002455D01*
X2381719Y4798058D01*
X2381715Y4798050D01*
X2291395Y4579999D01*
X2230305Y4352008D01*
X2199503Y4118037D01*
X2199500Y4118013D01*
X500500Y4118013D01*
X500500Y7794869D01*
X7699500Y7794869D01*
X7699500Y7792172D01*
X7699500Y6955151D01*
X7699502Y6955115D01*
X7701055Y6941723D01*
X7701900Y6934433D01*
X7702414Y6930007D01*
X7702546Y6929562D01*
X7703609Y6927304D01*
X7747421Y6828079D01*
X7747793Y6827236D01*
X7747794Y6827235D01*
X7827235Y6747794D01*
X7930009Y6702415D01*
X7955135Y6699500D01*
X9044864Y6699501D01*
X9044879Y6699501D01*
X9044978Y6699508D01*
X9045733Y6699602D01*
X9062893Y6701592D01*
X9068611Y6701922D01*
X9069225Y6702022D01*
X9071863Y6703242D01*
X9172765Y6747794D01*
X9252206Y6827235D01*
X9277394Y6884282D01*
X9296093Y6914201D01*
X9306185Y6926149D01*
X9364477Y6964659D01*
X9378698Y6969030D01*
X9415125Y6974500D01*
X13584142Y6974500D01*
X13619078Y6969477D01*
X13634076Y6965073D01*
X13692851Y6927300D01*
X13702590Y6916061D01*
X13722313Y6884944D01*
X13723613Y6882000D01*
X13747794Y6827235D01*
X13827235Y6747794D01*
X13930009Y6702415D01*
X13955135Y6699500D01*
X15044864Y6699501D01*
X15044879Y6699501D01*
X15044978Y6699508D01*
X15045733Y6699602D01*
X15062893Y6701592D01*
X15068611Y6701922D01*
X15069225Y6702022D01*
X15071863Y6703242D01*
X15172765Y6747794D01*
X15252206Y6827235D01*
X15297585Y6930009D01*
X15300500Y6955135D01*
X15300499Y7794864D01*
X15298410Y7812882D01*
X15298079Y7818610D01*
X15297955Y7819370D01*
X15296393Y7822691D01*
X15252206Y7922765D01*
X15172767Y8002204D01*
X15172765Y8002206D01*
X15172760Y8002208D01*
X15166729Y8004871D01*
X15115122Y8027658D01*
X15069992Y8047585D01*
X15069975Y8047587D01*
X15044869Y8050500D01*
X15044868Y8050500D01*
X15044865Y8050500D01*
X15014531Y8050500D01*
X14979590Y8055525D01*
X14964591Y8059930D01*
X14905830Y8097690D01*
X14900022Y8104391D01*
X14876439Y8148828D01*
X14876318Y8148777D01*
X14875792Y8150047D01*
X14873947Y8153522D01*
X14873207Y8156287D01*
X14820480Y8247613D01*
X14745913Y8322180D01*
X14745912Y8322181D01*
X14745909Y8322183D01*
X14668726Y8366744D01*
X14662194Y8371757D01*
X14646981Y8378058D01*
X14638819Y8379132D01*
X14570331Y8397483D01*
X14552727Y8402200D01*
X14552726Y8402200D01*
X13634028Y8402200D01*
X13599092Y8407223D01*
X13573850Y8414635D01*
X13521104Y8445932D01*
X13484821Y8482216D01*
X13484817Y8482219D01*
X13484809Y8482225D01*
X13458247Y8497560D01*
X13347907Y8561265D01*
X13347883Y8561278D01*
X13223894Y8594500D01*
X13195157Y8602200D01*
X13195156Y8602200D01*
X13037043Y8602200D01*
X12884318Y8561278D01*
X12884311Y8561276D01*
X12884310Y8561275D01*
X12884300Y8561270D01*
X12747398Y8482230D01*
X12747394Y8482228D01*
X12747390Y8482225D01*
X12747382Y8482219D01*
X12747378Y8482216D01*
X12747376Y8482215D01*
X12635585Y8370424D01*
X12635584Y8370422D01*
X12635581Y8370419D01*
X12635581Y8370418D01*
X12635575Y8370410D01*
X12635572Y8370406D01*
X12635570Y8370402D01*
X12556530Y8233500D01*
X12556527Y8233492D01*
X12556526Y8233491D01*
X12556522Y8233482D01*
X12515600Y8080757D01*
X12515600Y7919420D01*
X12514118Y7900309D01*
X12511591Y7884109D01*
X12481810Y7820904D01*
X12423309Y7784040D01*
X12410359Y7780320D01*
X12376123Y7775500D01*
X9415858Y7775500D01*
X9380917Y7780525D01*
X9365918Y7784930D01*
X9307147Y7822701D01*
X9297409Y7833939D01*
X9277687Y7865055D01*
X9271566Y7878918D01*
X9266686Y7889970D01*
X9266684Y7889974D01*
X9252208Y7922761D01*
X9252207Y7922763D01*
X9252206Y7922765D01*
X9172765Y8002206D01*
X9172760Y8002208D01*
X9166729Y8004871D01*
X9115122Y8027658D01*
X9115120Y8027659D01*
X9115119Y8027660D01*
X9069993Y8047585D01*
X9069994Y8047585D01*
X9044868Y8050500D01*
X9044865Y8050500D01*
X7955143Y8050500D01*
X7955127Y8050499D01*
X7955113Y8050498D01*
X7937255Y8048427D01*
X7930012Y8047587D01*
X7930011Y8047587D01*
X7930005Y8047586D01*
X7929559Y8047453D01*
X7927303Y8046391D01*
X7827236Y8002208D01*
X7747793Y7922766D01*
X7702414Y7819995D01*
X7701844Y7817290D01*
X7701743Y7815546D01*
X7701781Y7814640D01*
X7701689Y7813744D01*
X7699500Y7794869D01*
X500500Y7794869D01*
X500500Y23893248D01*
X520185Y23960287D01*
X572989Y24006042D01*
X642147Y24015986D01*
X705703Y23986961D01*
G37*
%TD.AperFunction*%
%TA.AperFunction,Conductor*%
G36*
X37442347Y39564479D02*
G01*
X37467591Y39557066D01*
X37520337Y39525770D01*
X40599146Y36446961D01*
X40620295Y36418711D01*
X40625716Y36408784D01*
X40640570Y36340511D01*
X40616156Y36275046D01*
X40560224Y36233173D01*
X40560215Y36233169D01*
X40556528Y36231794D01*
X40498422Y36224862D01*
X40493107Y36225500D01*
X40493102Y36225500D01*
X39506898Y36225500D01*
X39496560Y36224259D01*
X39467853Y36220813D01*
X39467853Y36220812D01*
X39461920Y36220100D01*
X39418439Y36214879D01*
X39277653Y36159360D01*
X39157076Y36067924D01*
X39065640Y35947347D01*
X39010121Y35806561D01*
X39004900Y35763080D01*
X39004188Y35757147D01*
X38999500Y35718102D01*
X38999500Y35106898D01*
X39005126Y35060046D01*
X39009238Y35025803D01*
X39009603Y35019687D01*
X39009724Y35019396D01*
X39010516Y35017438D01*
X39019144Y34995560D01*
X39019145Y34995558D01*
X39065639Y34877656D01*
X39157076Y34757078D01*
X39270904Y34670760D01*
X39274102Y34667971D01*
X39274107Y34667968D01*
X39277391Y34665650D01*
X39280609Y34664475D01*
X39388584Y34621895D01*
X39419240Y34604407D01*
X39428166Y34597462D01*
X39468989Y34540759D01*
X39472674Y34470986D01*
X39438054Y34410298D01*
X39433458Y34405870D01*
X39392912Y34379813D01*
X39353663Y34364337D01*
X39353664Y34364336D01*
X39277656Y34334362D01*
X39157076Y34242924D01*
X39065643Y34122350D01*
X39065640Y34122347D01*
X39010121Y33981561D01*
X39004188Y33932146D01*
X38999500Y33893099D01*
X38999500Y33281894D01*
X38999506Y33281784D01*
X38999514Y33281784D01*
X39009238Y33200802D01*
X39009603Y33194689D01*
X39009721Y33194405D01*
X39010512Y33192449D01*
X39018779Y33171488D01*
X39018780Y33171482D01*
X39065637Y33052661D01*
X39065640Y33052655D01*
X39157076Y32932078D01*
X39270904Y32845760D01*
X39274102Y32842971D01*
X39274107Y32842968D01*
X39277390Y32840651D01*
X39280596Y32839481D01*
X39418436Y32785123D01*
X39506898Y32774500D01*
X39506903Y32774500D01*
X40493097Y32774500D01*
X40493102Y32774500D01*
X40581564Y32785123D01*
X40722342Y32840639D01*
X40842922Y32932078D01*
X40934361Y33052658D01*
X40934363Y33052664D01*
X40935655Y33054960D01*
X40945874Y33070331D01*
X40957205Y33084895D01*
X41013906Y33125719D01*
X41025985Y33129969D01*
X41067145Y33137000D01*
X41130155Y33137000D01*
X41165091Y33131977D01*
X41180089Y33127573D01*
X41238865Y33089800D01*
X41248039Y33079213D01*
X41262546Y33057493D01*
X41262609Y33057531D01*
X41263801Y33055614D01*
X41265232Y33053471D01*
X41265638Y33052660D01*
X41265640Y33052656D01*
X41278963Y33035087D01*
X41357076Y32932078D01*
X41420435Y32884032D01*
X41477656Y32840640D01*
X41477657Y32840640D01*
X41477658Y32840639D01*
X41618436Y32785123D01*
X41628070Y32783967D01*
X41633449Y32781707D01*
X41656669Y32775473D01*
X41671036Y32769312D01*
X41724884Y32724810D01*
X41727171Y32721427D01*
X41728092Y32720066D01*
X41747894Y32669697D01*
X41748021Y32668882D01*
X41749088Y32655108D01*
X41749314Y32654417D01*
X41749181Y32653907D01*
X41749500Y32649790D01*
X41749500Y27121353D01*
X41749498Y27121216D01*
X41749500Y27072344D01*
X41749500Y26993280D01*
X41761067Y26950122D01*
X41761072Y26950102D01*
X41780205Y26878699D01*
X41780290Y26878552D01*
X41797217Y26849238D01*
X41805296Y26827807D01*
X41818723Y26811991D01*
X41839518Y26775975D01*
X41839524Y26775969D01*
X41839526Y26775966D01*
X41889818Y26725680D01*
X41889823Y26725675D01*
X41930980Y26684518D01*
X41931083Y26684419D01*
X42158053Y26457475D01*
X42158054Y26457473D01*
X42220762Y26394771D01*
X42241910Y26366525D01*
X42249401Y26352810D01*
X42264261Y26284539D01*
X42264260Y26284530D01*
X42263289Y26270946D01*
X42254166Y26232335D01*
X42230740Y26175780D01*
X42230718Y26175725D01*
X42230716Y26175718D01*
X42203800Y26040401D01*
X42203800Y25946774D01*
X42198537Y25928854D01*
X42230716Y25767085D01*
X42230717Y25767081D01*
X42230718Y25767078D01*
X42230721Y25767068D01*
X42230724Y25767060D01*
X42230729Y25767046D01*
X42283517Y25639603D01*
X42283522Y25639594D01*
X42283532Y25639577D01*
X42360186Y25524857D01*
X42360187Y25524856D01*
X42360192Y25524850D01*
X42457748Y25427294D01*
X42457754Y25427289D01*
X42457758Y25427286D01*
X42572482Y25350629D01*
X42572495Y25350622D01*
X42694372Y25300140D01*
X42698794Y25298048D01*
X42699525Y25297907D01*
X42700179Y25297779D01*
X42736570Y25290540D01*
X42835302Y25270900D01*
X42973295Y25270900D01*
X42973296Y25270900D01*
X42994363Y25275091D01*
X43085850Y25293290D01*
X43121083Y25295179D01*
X43136660Y25293785D01*
X43201675Y25268207D01*
X43203345Y25266910D01*
X43206663Y25264332D01*
X43247523Y25207655D01*
X43247623Y25207372D01*
X43252449Y25193581D01*
X43272207Y25137118D01*
X43352850Y25027850D01*
X43429957Y24970943D01*
X43462118Y24947207D01*
X43590299Y24902354D01*
X43590303Y24902353D01*
X43608742Y24900625D01*
X43620730Y24899500D01*
X44871270Y24899500D01*
X44906206Y24894477D01*
X44921204Y24890073D01*
X44979955Y24852328D01*
X44981142Y24850959D01*
X45008618Y24796098D01*
X45010263Y24788540D01*
X45013100Y24762169D01*
X45013100Y23558685D01*
X45008076Y23523748D01*
X45000664Y23498507D01*
X44969369Y23445763D01*
X44911633Y23388027D01*
X44883382Y23366878D01*
X44860294Y23354270D01*
X44800864Y23339100D01*
X44749543Y23339100D01*
X44596818Y23298178D01*
X44596811Y23298176D01*
X44596810Y23298175D01*
X44596800Y23298170D01*
X44459898Y23219130D01*
X44459882Y23219120D01*
X44459876Y23219114D01*
X44428789Y23188026D01*
X44400537Y23166876D01*
X44377450Y23154269D01*
X44318021Y23139100D01*
X44043131Y23139100D01*
X44043127Y23139101D01*
X43937673Y23139101D01*
X43848827Y23115294D01*
X43847778Y23115013D01*
X43835477Y23115306D01*
X43823931Y23111063D01*
X43796090Y23112346D01*
X43792929Y23112852D01*
X43792926Y23112853D01*
X43788803Y23113512D01*
X43789088Y23115294D01*
X43786087Y23116482D01*
X43777928Y23116676D01*
X43767118Y23123993D01*
X43730995Y23138294D01*
X43704322Y23175451D01*
X43695226Y23184468D01*
X43694245Y23188884D01*
X43692912Y23188312D01*
X43689812Y23195551D01*
X43679800Y23244365D01*
X43679800Y23277696D01*
X43679800Y23284396D01*
X43652881Y23419723D01*
X43652880Y23419724D01*
X43652880Y23419728D01*
X43642096Y23445763D01*
X43630476Y23473817D01*
X43612761Y23516584D01*
X43600078Y23547205D01*
X43600071Y23547218D01*
X43523414Y23661942D01*
X43523411Y23661946D01*
X43523406Y23661952D01*
X43425850Y23759508D01*
X43425844Y23759513D01*
X43425843Y23759514D01*
X43311123Y23836168D01*
X43311122Y23836169D01*
X43311117Y23836172D01*
X43311104Y23836179D01*
X43311097Y23836183D01*
X43183654Y23888971D01*
X43183640Y23888976D01*
X43183632Y23888979D01*
X43183622Y23888982D01*
X43183619Y23888983D01*
X43183615Y23888984D01*
X43048298Y23915900D01*
X43048295Y23915900D01*
X43048293Y23915900D01*
X42910307Y23915900D01*
X42910305Y23915900D01*
X42910300Y23915900D01*
X42774983Y23888984D01*
X42774977Y23888982D01*
X42774967Y23888979D01*
X42774962Y23888978D01*
X42774944Y23888971D01*
X42647501Y23836183D01*
X42647492Y23836178D01*
X42647475Y23836168D01*
X42532757Y23759515D01*
X42532755Y23759514D01*
X42513396Y23740153D01*
X42513393Y23740149D01*
X42488068Y23714825D01*
X42459820Y23693679D01*
X42436733Y23681071D01*
X42377301Y23665900D01*
X42073691Y23665900D01*
X42035380Y23655635D01*
X42015416Y23650286D01*
X42015403Y23650285D01*
X41959144Y23635209D01*
X41959124Y23635204D01*
X41959116Y23635201D01*
X41959113Y23635200D01*
X41959110Y23635199D01*
X41959108Y23635198D01*
X41856396Y23575896D01*
X41856382Y23575887D01*
X41856377Y23575883D01*
X40037817Y21757323D01*
X40037809Y21757313D01*
X40037805Y21757307D01*
X39978500Y21654588D01*
X39978152Y21653663D01*
X39977467Y21650733D01*
X39947800Y21540011D01*
X39947800Y14629890D01*
X39953892Y14607157D01*
X39958118Y14575060D01*
X39958118Y14574186D01*
X39966717Y14559291D01*
X39978501Y14515313D01*
X40037811Y14412586D01*
X40037813Y14412584D01*
X40350107Y14100290D01*
X40371259Y14072034D01*
X40378751Y14058313D01*
X40393603Y13990053D01*
X40393474Y13988247D01*
X40374106Y13930044D01*
X40369925Y13923538D01*
X40353289Y13902895D01*
X37999668Y11549274D01*
X37971415Y11528124D01*
X37949073Y11515924D01*
X37899242Y11501127D01*
X37895957Y11500872D01*
X37886360Y11500500D01*
X37297385Y11500500D01*
X37269622Y11503648D01*
X37241161Y11510187D01*
X37181246Y11543357D01*
X30420516Y18304087D01*
X30420514Y18304089D01*
X30378822Y18328160D01*
X30317785Y18363401D01*
X30278647Y18373887D01*
X30278645Y18373888D01*
X30278645Y18373887D01*
X30240926Y18383994D01*
X30240926Y18383995D01*
X30203213Y18394100D01*
X30203209Y18394100D01*
X30203208Y18394100D01*
X19312195Y18394100D01*
X19277259Y18399123D01*
X19252017Y18406535D01*
X19199272Y18437831D01*
X18558553Y19078550D01*
X18537405Y19106798D01*
X18527345Y19125221D01*
X18512183Y19183536D01*
X18512123Y19190269D01*
X18514500Y19215548D01*
X18548981Y19388901D01*
X18549703Y19391627D01*
X18550500Y19396533D01*
X18550500Y19603468D01*
X18550409Y19604206D01*
X18549908Y19606441D01*
X18520664Y19753461D01*
X18510130Y19806420D01*
X18430941Y19997598D01*
X18316046Y20169551D01*
X18316036Y20169583D01*
X18315980Y20169652D01*
X18315980Y20169651D01*
X18315977Y20169655D01*
X18315975Y20169658D01*
X18315973Y20169660D01*
X18315970Y20169664D01*
X18169659Y20315975D01*
X18044652Y20399501D01*
X18044650Y20399502D01*
X17997606Y20430937D01*
X17997595Y20430943D01*
X17874010Y20482133D01*
X17806420Y20510130D01*
X17806412Y20510132D01*
X17806404Y20510134D01*
X17806394Y20510136D01*
X17603471Y20550500D01*
X17603469Y20550500D01*
X17603465Y20550500D01*
X17396535Y20550500D01*
X17396530Y20550500D01*
X17396527Y20550500D01*
X17220516Y20515489D01*
X17185274Y20513599D01*
X17164375Y20515469D01*
X17107454Y20535266D01*
X17101833Y20538950D01*
X17082124Y20554979D01*
X15064316Y22572787D01*
X15064314Y22572789D01*
X15012950Y22602444D01*
X15002092Y22608713D01*
X14961589Y22632099D01*
X14949477Y22635344D01*
X14949477Y22635345D01*
X14937375Y22638587D01*
X14937375Y22638588D01*
X14937370Y22638588D01*
X14909406Y22646082D01*
X14899175Y22648823D01*
X14899175Y22648824D01*
X14847014Y22662800D01*
X14847009Y22662800D01*
X14847008Y22662800D01*
X9336695Y22662800D01*
X9301759Y22667823D01*
X9276517Y22675235D01*
X9223772Y22706531D01*
X8447484Y23482819D01*
X8413999Y23544142D01*
X8418983Y23613834D01*
X8460855Y23669767D01*
X8526319Y23694184D01*
X8535165Y23694500D01*
X12875990Y23694500D01*
X12876000Y23694500D01*
X12940941Y23701482D01*
X12992452Y23712688D01*
X13030658Y23723646D01*
X13127571Y23780325D01*
X13180375Y23826080D01*
X13180382Y23826088D01*
X13180387Y23826092D01*
X13222548Y23870808D01*
X13222553Y23870813D01*
X13273439Y23970889D01*
X13293124Y24037928D01*
X13305500Y24124000D01*
X13305500Y28248178D01*
X13304488Y28272456D01*
X13321365Y28340255D01*
X13366378Y28385001D01*
X13484816Y28453380D01*
X13596620Y28565184D01*
X13675677Y28702116D01*
X13716600Y28854843D01*
X13716600Y29012957D01*
X13675677Y29165684D01*
X13673619Y29169248D01*
X13673617Y29169258D01*
X13673615Y29169256D01*
X13631965Y29241397D01*
X13596624Y29302610D01*
X13596618Y29302618D01*
X13596614Y29302622D01*
X13596613Y29302624D01*
X13484822Y29414415D01*
X13484820Y29414416D01*
X13484817Y29414419D01*
X13484809Y29414425D01*
X13450005Y29434519D01*
X13347907Y29493465D01*
X13347883Y29493478D01*
X13236079Y29523436D01*
X13195157Y29534400D01*
X13195156Y29534400D01*
X13151184Y29534400D01*
X13116248Y29539423D01*
X13091006Y29546835D01*
X13038261Y29578131D01*
X11899426Y30716967D01*
X11878274Y30745223D01*
X11865667Y30768312D01*
X11850500Y30827737D01*
X11850500Y31164917D01*
X11855522Y31199850D01*
X11862934Y31225095D01*
X11894228Y31277837D01*
X13066968Y32450577D01*
X13095218Y32471725D01*
X13118310Y32484333D01*
X13177735Y32499500D01*
X13218097Y32499500D01*
X13218102Y32499500D01*
X13306564Y32510123D01*
X13447342Y32565639D01*
X13567922Y32657078D01*
X13659361Y32777658D01*
X13714877Y32918436D01*
X13725500Y33006898D01*
X13725500Y33677417D01*
X13730522Y33712350D01*
X13737934Y33737595D01*
X13769228Y33790337D01*
X14975216Y34996326D01*
X15003464Y35017472D01*
X15013393Y35022894D01*
X15081665Y35037745D01*
X15147129Y35013328D01*
X15189001Y34957395D01*
X15191682Y34950207D01*
X15199500Y34906873D01*
X15199500Y34395151D01*
X15199502Y34395112D01*
X15202426Y34369896D01*
X15203288Y34368033D01*
X15223879Y34321397D01*
X15233395Y34287408D01*
X15236689Y34262247D01*
X15227172Y34196065D01*
X15202415Y34139997D01*
X15201844Y34137289D01*
X15201589Y34132876D01*
X15199500Y34114873D01*
X15199500Y33125151D01*
X15199502Y33125112D01*
X15201589Y33107122D01*
X15201955Y33100781D01*
X15203783Y33096705D01*
X15210309Y33080950D01*
X15211776Y33078808D01*
X15218087Y33064516D01*
X15218088Y33064509D01*
X15218090Y33064509D01*
X15223880Y33051395D01*
X15233395Y33017408D01*
X15236689Y32992247D01*
X15227172Y32926065D01*
X15202415Y32869997D01*
X15201844Y32867289D01*
X15201589Y32862876D01*
X15199500Y32844873D01*
X15199500Y31855151D01*
X15199502Y31855112D01*
X15202426Y31829896D01*
X15203288Y31828033D01*
X15223879Y31781397D01*
X15233395Y31747408D01*
X15236689Y31722247D01*
X15227172Y31656065D01*
X15202415Y31599997D01*
X15201844Y31597289D01*
X15201589Y31592876D01*
X15199500Y31574873D01*
X15199500Y30585151D01*
X15199502Y30585112D01*
X15202426Y30559896D01*
X15203288Y30558033D01*
X15223879Y30511397D01*
X15233395Y30477408D01*
X15236689Y30452247D01*
X15227172Y30386065D01*
X15202415Y30329997D01*
X15201844Y30327289D01*
X15201589Y30322876D01*
X15199500Y30304873D01*
X15199500Y29315151D01*
X15199502Y29315112D01*
X15202426Y29289896D01*
X15203283Y29288043D01*
X15211077Y29270392D01*
X15223879Y29241397D01*
X15233395Y29207408D01*
X15236689Y29182247D01*
X15227172Y29116065D01*
X15202415Y29059997D01*
X15201844Y29057289D01*
X15201589Y29052876D01*
X15199500Y29034873D01*
X15199500Y28045151D01*
X15199502Y28045112D01*
X15202426Y28019896D01*
X15203288Y28018033D01*
X15223879Y27971397D01*
X15233395Y27937408D01*
X15236689Y27912247D01*
X15227172Y27846065D01*
X15202415Y27789997D01*
X15201844Y27787289D01*
X15201589Y27782876D01*
X15199500Y27764873D01*
X15199500Y26775151D01*
X15199502Y26775112D01*
X15201589Y26757122D01*
X15201955Y26750781D01*
X15203783Y26746705D01*
X15210310Y26730947D01*
X15211774Y26728810D01*
X15219898Y26710412D01*
X15223877Y26701401D01*
X15233395Y26667408D01*
X15236689Y26642247D01*
X15227172Y26576065D01*
X15202415Y26519997D01*
X15201844Y26517289D01*
X15201589Y26512876D01*
X15199500Y26494873D01*
X15199500Y25505151D01*
X15199502Y25505115D01*
X15202414Y25480007D01*
X15202546Y25479562D01*
X15203609Y25477304D01*
X15239274Y25396529D01*
X15247793Y25377236D01*
X15247794Y25377235D01*
X15327235Y25297794D01*
X15430009Y25252415D01*
X15455135Y25249500D01*
X15657672Y25249501D01*
X15692606Y25244479D01*
X15707603Y25240075D01*
X15766355Y25202330D01*
X15767542Y25200961D01*
X15795021Y25146088D01*
X15802099Y25113549D01*
X15804410Y25110645D01*
X15809331Y25096000D01*
X15819686Y25057355D01*
X15819688Y25057348D01*
X15830198Y25018118D01*
X15830199Y25018117D01*
X15830200Y25018115D01*
X15830201Y25018113D01*
X15839271Y25002404D01*
X15889508Y24915390D01*
X15889513Y24915384D01*
X16050691Y24754206D01*
X16071841Y24725954D01*
X16083066Y24705397D01*
X16086545Y24699027D01*
X16098232Y24666815D01*
X16098447Y24666872D01*
X16099110Y24664397D01*
X16099330Y24663791D01*
X16099495Y24662960D01*
X16140423Y24510217D01*
X16140424Y24510213D01*
X16140425Y24510212D01*
X16140426Y24510210D01*
X16159494Y24477182D01*
X16217629Y24376487D01*
X16219012Y24373916D01*
X16219398Y24373366D01*
X16331336Y24261428D01*
X16331852Y24261048D01*
X16334475Y24259637D01*
X16468209Y24182427D01*
X16468216Y24182423D01*
X16620943Y24141500D01*
X16620945Y24141500D01*
X16779055Y24141500D01*
X16779057Y24141500D01*
X16931784Y24182423D01*
X16999103Y24221289D01*
X17052983Y24252397D01*
X17070244Y24260656D01*
X17093251Y24269556D01*
X17162877Y24275385D01*
X17224601Y24242645D01*
X17257945Y24185311D01*
X17260458Y24175708D01*
X17264500Y24144312D01*
X17264500Y23955151D01*
X17264502Y23955115D01*
X17267414Y23930007D01*
X17267546Y23929562D01*
X17268609Y23927304D01*
X17308844Y23836179D01*
X17312793Y23827236D01*
X17312794Y23827235D01*
X17392235Y23747794D01*
X17495009Y23702415D01*
X17520135Y23699500D01*
X18509864Y23699501D01*
X18509879Y23699501D01*
X18509978Y23699508D01*
X18510733Y23699602D01*
X18527893Y23701592D01*
X18533612Y23701922D01*
X18540683Y23703075D01*
X18546512Y23703751D01*
X18559594Y23713279D01*
X18583611Y23723884D01*
X18617588Y23733397D01*
X18642747Y23736691D01*
X18708931Y23727176D01*
X18765004Y23702417D01*
X18765009Y23702415D01*
X18790135Y23699500D01*
X19779864Y23699501D01*
X19779879Y23699501D01*
X19779978Y23699508D01*
X19780733Y23699602D01*
X19797893Y23701592D01*
X19803612Y23701922D01*
X19810683Y23703075D01*
X19816512Y23703751D01*
X19829594Y23713279D01*
X19853611Y23723884D01*
X19887588Y23733397D01*
X19912747Y23736691D01*
X19978931Y23727176D01*
X20035004Y23702417D01*
X20035009Y23702415D01*
X20060135Y23699500D01*
X21049864Y23699501D01*
X21049879Y23699501D01*
X21049978Y23699508D01*
X21050733Y23699602D01*
X21067893Y23701592D01*
X21073612Y23701922D01*
X21080683Y23703075D01*
X21086512Y23703751D01*
X21099594Y23713279D01*
X21123611Y23723884D01*
X21157588Y23733397D01*
X21182747Y23736691D01*
X21248931Y23727176D01*
X21305004Y23702417D01*
X21305009Y23702415D01*
X21330135Y23699500D01*
X22319864Y23699501D01*
X22319879Y23699501D01*
X22319978Y23699508D01*
X22320733Y23699602D01*
X22337893Y23701592D01*
X22343612Y23701922D01*
X22350683Y23703075D01*
X22356512Y23703751D01*
X22369594Y23713279D01*
X22393611Y23723884D01*
X22427588Y23733397D01*
X22452747Y23736691D01*
X22518931Y23727176D01*
X22575004Y23702417D01*
X22575009Y23702415D01*
X22600135Y23699500D01*
X23589864Y23699501D01*
X23589879Y23699501D01*
X23589978Y23699508D01*
X23590733Y23699602D01*
X23607893Y23701592D01*
X23613612Y23701922D01*
X23620683Y23703075D01*
X23626512Y23703751D01*
X23639594Y23713279D01*
X23663611Y23723884D01*
X23697588Y23733397D01*
X23722747Y23736691D01*
X23788931Y23727176D01*
X23845004Y23702417D01*
X23845009Y23702415D01*
X23870135Y23699500D01*
X24859864Y23699501D01*
X24859879Y23699501D01*
X24859978Y23699508D01*
X24860733Y23699602D01*
X24877893Y23701592D01*
X24883612Y23701922D01*
X24890683Y23703075D01*
X24896512Y23703751D01*
X24909594Y23713279D01*
X24933611Y23723884D01*
X24967588Y23733397D01*
X24992747Y23736691D01*
X25058931Y23727176D01*
X25115004Y23702417D01*
X25115009Y23702415D01*
X25140135Y23699500D01*
X26129864Y23699501D01*
X26129879Y23699501D01*
X26129978Y23699508D01*
X26130733Y23699602D01*
X26147893Y23701592D01*
X26153612Y23701922D01*
X26160683Y23703075D01*
X26166512Y23703751D01*
X26179594Y23713279D01*
X26203611Y23723884D01*
X26237588Y23733397D01*
X26262747Y23736691D01*
X26328931Y23727176D01*
X26385004Y23702417D01*
X26385009Y23702415D01*
X26410135Y23699500D01*
X27399864Y23699501D01*
X27399879Y23699501D01*
X27399978Y23699508D01*
X27400733Y23699602D01*
X27417893Y23701592D01*
X27423612Y23701922D01*
X27430683Y23703075D01*
X27436512Y23703751D01*
X27449594Y23713279D01*
X27473611Y23723884D01*
X27507588Y23733397D01*
X27532747Y23736691D01*
X27598931Y23727176D01*
X27655004Y23702417D01*
X27655009Y23702415D01*
X27680135Y23699500D01*
X28669864Y23699501D01*
X28669879Y23699501D01*
X28669978Y23699508D01*
X28670733Y23699602D01*
X28687893Y23701592D01*
X28693612Y23701922D01*
X28700683Y23703075D01*
X28706512Y23703751D01*
X28719594Y23713279D01*
X28743611Y23723884D01*
X28777588Y23733397D01*
X28802747Y23736691D01*
X28868931Y23727176D01*
X28925004Y23702417D01*
X28925009Y23702415D01*
X28950135Y23699500D01*
X29939864Y23699501D01*
X29939929Y23699501D01*
X29940752Y23699604D01*
X29957893Y23701592D01*
X29963612Y23701922D01*
X29970683Y23703075D01*
X29976512Y23703751D01*
X29989594Y23713279D01*
X30013611Y23723884D01*
X30047588Y23733397D01*
X30072747Y23736691D01*
X30138931Y23727176D01*
X30195004Y23702417D01*
X30195009Y23702415D01*
X30195007Y23702415D01*
X30206516Y23701080D01*
X30227090Y23696905D01*
X30250337Y23690093D01*
X30309136Y23652354D01*
X30309138Y23652351D01*
X30314937Y23645666D01*
X30338567Y23601176D01*
X30338682Y23601223D01*
X30339177Y23600026D01*
X30341040Y23596520D01*
X30341791Y23593717D01*
X30341792Y23593716D01*
X30341793Y23593713D01*
X30394520Y23502387D01*
X30469087Y23427820D01*
X30560413Y23375093D01*
X30662273Y23347800D01*
X30767727Y23347800D01*
X32604115Y23347800D01*
X32639047Y23342779D01*
X32664291Y23335366D01*
X32717037Y23304070D01*
X35725573Y20295535D01*
X35746723Y20267283D01*
X35759331Y20244194D01*
X35774500Y20184765D01*
X35774500Y19506898D01*
X35775674Y19497123D01*
X35777309Y19483509D01*
X35777309Y19483508D01*
X35785121Y19418443D01*
X35785121Y19418442D01*
X35785122Y19418439D01*
X35840639Y19277658D01*
X35840640Y19277655D01*
X35932076Y19157078D01*
X36045904Y19070760D01*
X36049102Y19067971D01*
X36049107Y19067968D01*
X36052390Y19065651D01*
X36055596Y19064481D01*
X36193436Y19010123D01*
X36281898Y18999500D01*
X36281903Y18999500D01*
X36893097Y18999500D01*
X36893102Y18999500D01*
X36981564Y19010123D01*
X37122342Y19065639D01*
X37242922Y19157078D01*
X37334361Y19277658D01*
X37378107Y19388593D01*
X37395595Y19419246D01*
X37402542Y19428175D01*
X37459248Y19468994D01*
X37529020Y19472676D01*
X37589706Y19438053D01*
X37594139Y19433451D01*
X37620185Y19392918D01*
X37626913Y19375858D01*
X37650652Y19315661D01*
X37663518Y19283035D01*
X37665639Y19277657D01*
X37757077Y19157077D01*
X37823376Y19106802D01*
X37874646Y19067923D01*
X37877658Y19065639D01*
X37916906Y19050162D01*
X37947560Y19032675D01*
X37959896Y19023077D01*
X38000717Y18966379D01*
X38004966Y18954307D01*
X38012000Y18913138D01*
X38012000Y18071841D01*
X38006975Y18036899D01*
X38005853Y18033080D01*
X38002570Y18021899D01*
X37964803Y17963135D01*
X37955132Y17954754D01*
X37931309Y17940316D01*
X37931897Y17939271D01*
X37924500Y17935112D01*
X37805288Y17844712D01*
X37714888Y17725501D01*
X37714885Y17725496D01*
X37660003Y17586326D01*
X37659864Y17585168D01*
X37659617Y17583110D01*
X37649500Y17498860D01*
X37649500Y17498854D01*
X37649500Y16501138D01*
X37652337Y16477513D01*
X37652337Y16477511D01*
X37652338Y16477511D01*
X37660003Y16413677D01*
X37714885Y16274506D01*
X37714887Y16274503D01*
X37714888Y16274501D01*
X37805288Y16155289D01*
X37924500Y16064889D01*
X37924502Y16064888D01*
X37924504Y16064887D01*
X37994089Y16037446D01*
X38063679Y16010003D01*
X38151140Y15999500D01*
X38151146Y15999500D01*
X38723854Y15999500D01*
X38723860Y15999500D01*
X38811321Y16010003D01*
X38950500Y16064889D01*
X39069711Y16155289D01*
X39160111Y16274500D01*
X39214997Y16413679D01*
X39225500Y16501140D01*
X39225500Y17498860D01*
X39214997Y17586321D01*
X39160111Y17725500D01*
X39069711Y17844712D01*
X38950499Y17935112D01*
X38937303Y17940316D01*
X38908092Y17951836D01*
X38877440Y17969322D01*
X38875529Y17970809D01*
X38865104Y17978921D01*
X38824281Y18035622D01*
X38820029Y18047705D01*
X38813000Y18088862D01*
X38813000Y18910439D01*
X38818023Y18945375D01*
X38822427Y18960373D01*
X38860198Y19019147D01*
X38869873Y19027531D01*
X38905592Y19049176D01*
X38947342Y19065639D01*
X39067922Y19157078D01*
X39159361Y19277658D01*
X39214877Y19418436D01*
X39225500Y19506898D01*
X39225500Y20493102D01*
X39214877Y20581564D01*
X39160519Y20719404D01*
X39159349Y20722610D01*
X39157032Y20725893D01*
X39157029Y20725898D01*
X39154240Y20729096D01*
X39067922Y20842924D01*
X38947345Y20934360D01*
X38947343Y20934361D01*
X38876952Y20962120D01*
X38806559Y20989879D01*
X38767152Y20994611D01*
X38760926Y20995358D01*
X38760925Y20995359D01*
X38733220Y20998685D01*
X38718102Y21000500D01*
X38718098Y21000500D01*
X38106901Y21000500D01*
X38106898Y21000500D01*
X38096560Y20999259D01*
X38067853Y20995813D01*
X38067853Y20995812D01*
X38061920Y20995100D01*
X38018439Y20989879D01*
X37877653Y20934360D01*
X37757076Y20842924D01*
X37665640Y20722347D01*
X37665639Y20722345D01*
X37663473Y20716852D01*
X37646194Y20673034D01*
X37639755Y20656706D01*
X37621893Y20611413D01*
X37604406Y20580760D01*
X37597462Y20571835D01*
X37540759Y20531012D01*
X37470987Y20527325D01*
X37410298Y20561945D01*
X37405868Y20566543D01*
X37379811Y20607087D01*
X37355431Y20668911D01*
X37335515Y20719416D01*
X37334349Y20722610D01*
X37332032Y20725893D01*
X37332029Y20725898D01*
X37329240Y20729096D01*
X37242922Y20842924D01*
X37122345Y20934360D01*
X37122343Y20934361D01*
X37051952Y20962120D01*
X36981559Y20989879D01*
X36942152Y20994611D01*
X36935926Y20995358D01*
X36935925Y20995359D01*
X36908220Y20998685D01*
X36893102Y21000500D01*
X36893098Y21000500D01*
X36281899Y21000500D01*
X36281898Y21000500D01*
X36278446Y21000086D01*
X36244709Y20996036D01*
X36209432Y20996858D01*
X36186255Y21000743D01*
X36134855Y21022009D01*
X36132996Y21023332D01*
X36117214Y21036679D01*
X33085115Y24068778D01*
X33085113Y24068780D01*
X33085110Y24068782D01*
X33085106Y24068785D01*
X33030174Y24100500D01*
X33030171Y24100501D01*
X32993790Y24121507D01*
X32968323Y24128331D01*
X32942857Y24135154D01*
X32942856Y24135155D01*
X32891930Y24148800D01*
X32891927Y24148800D01*
X32891926Y24148800D01*
X32877330Y24148800D01*
X32842389Y24153825D01*
X32827390Y24158230D01*
X32768644Y24195973D01*
X32767457Y24197342D01*
X32739977Y24252217D01*
X32738332Y24259779D01*
X32735500Y24286132D01*
X32735500Y24705397D01*
X32735499Y25130173D01*
X32740521Y25165105D01*
X32740730Y25165816D01*
X32744431Y25178422D01*
X32782203Y25237198D01*
X32845757Y25266224D01*
X32848550Y25266626D01*
X32850531Y25266910D01*
X32918257Y25257604D01*
X32930006Y25252416D01*
X32930007Y25252416D01*
X32930009Y25252415D01*
X32930010Y25252415D01*
X32939008Y25249967D01*
X32938877Y25249489D01*
X32960200Y25243857D01*
X32974590Y25237755D01*
X33028623Y25193463D01*
X33031776Y25188840D01*
X33051807Y25138371D01*
X33051973Y25137323D01*
X33053500Y25117924D01*
X33053500Y25007843D01*
X33082531Y24899500D01*
X33094423Y24855117D01*
X33094424Y24855113D01*
X33094425Y24855112D01*
X33094428Y24855107D01*
X33171629Y24721387D01*
X33173012Y24718816D01*
X33173398Y24718266D01*
X33285336Y24606328D01*
X33285855Y24605947D01*
X33288493Y24604527D01*
X33349193Y24569482D01*
X33349194Y24569482D01*
X33349197Y24569480D01*
X33422216Y24527323D01*
X33574943Y24486400D01*
X33574945Y24486400D01*
X33733055Y24486400D01*
X33733057Y24486400D01*
X33885784Y24527323D01*
X34022716Y24606380D01*
X34053811Y24637476D01*
X34082062Y24658625D01*
X34105154Y24671233D01*
X34164579Y24686400D01*
X34493725Y24686400D01*
X34493727Y24686400D01*
X34595588Y24713693D01*
X34686913Y24766420D01*
X35072180Y25151687D01*
X35124907Y25243012D01*
X35152200Y25344873D01*
X35152200Y25450327D01*
X35152200Y26052727D01*
X35124907Y26154587D01*
X35120881Y26161560D01*
X35107764Y26194322D01*
X35104491Y26207816D01*
X35107815Y26277604D01*
X35148340Y26334515D01*
X35149628Y26335528D01*
X35202825Y26359815D01*
X35207754Y26360765D01*
X35231192Y26363000D01*
X35301155Y26363000D01*
X35301157Y26363000D01*
X35453884Y26403923D01*
X35590816Y26482980D01*
X35621911Y26514076D01*
X35650162Y26535225D01*
X35673254Y26547833D01*
X35732679Y26563000D01*
X35801415Y26563000D01*
X35836347Y26557979D01*
X35861591Y26550566D01*
X35914337Y26519270D01*
X36458894Y25974713D01*
X36480046Y25946457D01*
X36487538Y25932736D01*
X36502389Y25864469D01*
X36501418Y25850887D01*
X36492290Y25812263D01*
X36491545Y25810465D01*
X36490383Y25807920D01*
X36489866Y25806411D01*
X36459522Y25653859D01*
X36449500Y25603470D01*
X36449500Y25396531D01*
X36449500Y25396529D01*
X36449499Y25396529D01*
X36487126Y25207372D01*
X36489868Y25193588D01*
X36489870Y25193580D01*
X36515091Y25132692D01*
X36562549Y25018117D01*
X36569057Y25002404D01*
X36569059Y25002402D01*
X36590078Y24970944D01*
X36684025Y24830341D01*
X36830336Y24684030D01*
X36830340Y24684027D01*
X36830342Y24684025D01*
X36830345Y24684023D01*
X36830349Y24684020D01*
X36830348Y24684020D01*
X36830411Y24683968D01*
X36830448Y24683954D01*
X37002402Y24569059D01*
X37193580Y24489870D01*
X37384540Y24451886D01*
X37393559Y24450092D01*
X37395794Y24449591D01*
X37396532Y24449500D01*
X37603466Y24449500D01*
X37607586Y24449500D01*
X37615435Y24451882D01*
X37806420Y24489870D01*
X37997598Y24569059D01*
X38169655Y24684023D01*
X38315977Y24830345D01*
X38430941Y25002402D01*
X38510130Y25193580D01*
X38550500Y25396535D01*
X38550500Y25603465D01*
X38510130Y25806420D01*
X38430941Y25997598D01*
X38316046Y26169551D01*
X38316036Y26169583D01*
X38315980Y26169652D01*
X38315980Y26169651D01*
X38315977Y26169655D01*
X38315975Y26169658D01*
X38315973Y26169660D01*
X38315970Y26169664D01*
X38169662Y26315972D01*
X38169655Y26315978D01*
X38041248Y26401776D01*
X38041247Y26401776D01*
X37997604Y26430938D01*
X37997591Y26430945D01*
X37952791Y26449501D01*
X37952790Y26449501D01*
X37806420Y26510130D01*
X37806412Y26510132D01*
X37806404Y26510134D01*
X37806394Y26510136D01*
X37603471Y26550500D01*
X37603469Y26550500D01*
X37603465Y26550500D01*
X37396535Y26550500D01*
X37396530Y26550500D01*
X37342465Y26539746D01*
X37205552Y26512513D01*
X37197390Y26511710D01*
X37197170Y26511618D01*
X37193049Y26510061D01*
X37189486Y26508435D01*
X37189457Y26508423D01*
X37186081Y26507563D01*
X37185763Y26507453D01*
X37185754Y26507479D01*
X37155294Y26499711D01*
X37139754Y26498041D01*
X37070996Y26510449D01*
X37058818Y26516546D01*
X37026647Y26539746D01*
X36282415Y27283978D01*
X36282413Y27283980D01*
X36277633Y27286740D01*
X36211238Y27325074D01*
X36211235Y27325075D01*
X36191089Y27336707D01*
X36130280Y27353000D01*
X36130279Y27353001D01*
X36089228Y27364000D01*
X36089227Y27364000D01*
X36089226Y27364000D01*
X35740028Y27364000D01*
X35705092Y27369023D01*
X35679850Y27376435D01*
X35627104Y27407732D01*
X35590821Y27444016D01*
X35590817Y27444019D01*
X35590809Y27444025D01*
X35564247Y27459360D01*
X35453907Y27523065D01*
X35453883Y27523078D01*
X35342079Y27553036D01*
X35301157Y27564000D01*
X35301156Y27564000D01*
X35143043Y27564000D01*
X34990308Y27523075D01*
X34986822Y27521915D01*
X34986805Y27521964D01*
X34973594Y27517743D01*
X34955680Y27513398D01*
X34885890Y27516726D01*
X34828988Y27557244D01*
X34827982Y27558523D01*
X34803682Y27611739D01*
X34802735Y27616660D01*
X34800499Y27640102D01*
X34800499Y27764867D01*
X34799266Y27775499D01*
X34799266Y27775500D01*
X34798409Y27782884D01*
X34798079Y27788611D01*
X34797954Y27789371D01*
X34796394Y27792689D01*
X34776119Y27838607D01*
X34766604Y27872589D01*
X34763309Y27897752D01*
X34772823Y27963930D01*
X34796414Y28017359D01*
X34797451Y28019562D01*
X34797584Y28020007D01*
X34797585Y28020009D01*
X34800500Y28045135D01*
X34800499Y29034864D01*
X34800497Y29034883D01*
X34798409Y29052887D01*
X34798078Y29058610D01*
X34797954Y29059372D01*
X34796394Y29062689D01*
X34783863Y29091068D01*
X34776118Y29108609D01*
X34766604Y29142589D01*
X34763309Y29167752D01*
X34772823Y29233930D01*
X34796414Y29287359D01*
X34797451Y29289562D01*
X34797584Y29290007D01*
X34797585Y29290009D01*
X34800500Y29315135D01*
X34800499Y30304864D01*
X34797740Y30328657D01*
X35801300Y30328657D01*
X35801300Y30170543D01*
X35822487Y30091471D01*
X35836104Y30040653D01*
X35836109Y30040637D01*
X35842222Y30017819D01*
X35842225Y30017812D01*
X35842228Y30017807D01*
X35919429Y29884087D01*
X35920812Y29881516D01*
X35921198Y29880966D01*
X36033136Y29769028D01*
X36033652Y29768648D01*
X36036275Y29767237D01*
X36105250Y29727416D01*
X36139811Y29707461D01*
X36139812Y29707461D01*
X36170016Y29690023D01*
X36322743Y29649100D01*
X36366715Y29649100D01*
X36401647Y29644079D01*
X36426891Y29636666D01*
X36479637Y29605370D01*
X36503238Y29581769D01*
X36524390Y29553513D01*
X36531882Y29539792D01*
X36546733Y29471523D01*
X36545762Y29457944D01*
X36536639Y29419336D01*
X36489871Y29306427D01*
X36489864Y29306396D01*
X36449500Y29103473D01*
X36449500Y28896532D01*
X36449499Y28896529D01*
X36489864Y28693606D01*
X36489868Y28693588D01*
X36489870Y28693580D01*
X36560531Y28522989D01*
X36569059Y28502402D01*
X36590700Y28470015D01*
X36603738Y28450502D01*
X36603739Y28450499D01*
X36684022Y28330345D01*
X36684028Y28330338D01*
X36830336Y28184030D01*
X36830340Y28184027D01*
X36830342Y28184025D01*
X36830345Y28184023D01*
X36830349Y28184020D01*
X36830348Y28184020D01*
X36830411Y28183968D01*
X36830448Y28183954D01*
X37002402Y28069059D01*
X37193580Y27989870D01*
X37323960Y27963936D01*
X37368447Y27955087D01*
X37393559Y27950092D01*
X37395794Y27949591D01*
X37396532Y27949500D01*
X37603466Y27949500D01*
X37607586Y27949500D01*
X37615435Y27951882D01*
X37806420Y27989870D01*
X37997598Y28069059D01*
X38169655Y28184023D01*
X38315977Y28330345D01*
X38430941Y28502402D01*
X38510130Y28693580D01*
X38550499Y28896531D01*
X38550500Y28896534D01*
X38550500Y29103466D01*
X38550499Y29103470D01*
X38537713Y29167749D01*
X38510130Y29306420D01*
X38430941Y29497598D01*
X38316046Y29669551D01*
X38316036Y29669583D01*
X38315980Y29669652D01*
X38315980Y29669651D01*
X38315977Y29669655D01*
X38315975Y29669658D01*
X38315973Y29669660D01*
X38315970Y29669664D01*
X38169660Y29815974D01*
X38169652Y29815980D01*
X38072504Y29880892D01*
X38072504Y29880891D01*
X37997598Y29930941D01*
X37806420Y30010130D01*
X37806412Y30010132D01*
X37806404Y30010134D01*
X37806394Y30010136D01*
X37603471Y30050500D01*
X37603469Y30050500D01*
X37603465Y30050500D01*
X37396535Y30050500D01*
X37331023Y30037470D01*
X37331022Y30037471D01*
X37287817Y30028876D01*
X37252572Y30026987D01*
X37231676Y30028857D01*
X37174753Y30048656D01*
X37169131Y30052341D01*
X37149426Y30068367D01*
X37051226Y30166567D01*
X37030074Y30194823D01*
X37017467Y30217912D01*
X37002300Y30277337D01*
X37002300Y30328655D01*
X37002300Y30328657D01*
X36961377Y30481384D01*
X36953466Y30495087D01*
X36882324Y30618310D01*
X36882318Y30618318D01*
X36882317Y30618319D01*
X36882313Y30618324D01*
X36770522Y30730115D01*
X36770520Y30730116D01*
X36770517Y30730119D01*
X36770509Y30730125D01*
X36743947Y30745460D01*
X36633607Y30809165D01*
X36633583Y30809178D01*
X36521779Y30839136D01*
X36480857Y30850100D01*
X36480856Y30850100D01*
X36322743Y30850100D01*
X36170018Y30809178D01*
X36170011Y30809176D01*
X36170010Y30809175D01*
X36170000Y30809170D01*
X36033098Y30730130D01*
X36033094Y30730128D01*
X36033090Y30730125D01*
X36033082Y30730119D01*
X36033078Y30730116D01*
X36033076Y30730115D01*
X35921285Y30618324D01*
X35921284Y30618322D01*
X35921281Y30618319D01*
X35921281Y30618318D01*
X35921275Y30618310D01*
X35921272Y30618306D01*
X35921270Y30618302D01*
X35842230Y30481400D01*
X35842225Y30481390D01*
X35842224Y30481389D01*
X35842222Y30481382D01*
X35819791Y30397668D01*
X35801300Y30328657D01*
X34797740Y30328657D01*
X34797585Y30329991D01*
X34772840Y30386030D01*
X34771248Y30390556D01*
X34770872Y30397668D01*
X34764459Y30423966D01*
X34763859Y30433548D01*
X34763310Y30437742D01*
X34772823Y30503930D01*
X34796414Y30557359D01*
X34797451Y30559562D01*
X34797584Y30560007D01*
X34797585Y30560009D01*
X34800500Y30585135D01*
X34800499Y31574864D01*
X34800497Y31574883D01*
X34798409Y31592887D01*
X34798078Y31598610D01*
X34797954Y31599372D01*
X34796394Y31602689D01*
X34776119Y31648607D01*
X34766604Y31682589D01*
X34763309Y31707752D01*
X34772823Y31773930D01*
X34796414Y31827359D01*
X34797451Y31829562D01*
X34797584Y31830007D01*
X34797585Y31830009D01*
X34800500Y31855135D01*
X34800499Y32844864D01*
X34800497Y32844883D01*
X34798409Y32862887D01*
X34798078Y32868610D01*
X34797954Y32869372D01*
X34796394Y32872689D01*
X34782689Y32903727D01*
X34776118Y32918609D01*
X34766604Y32952587D01*
X34763309Y32977751D01*
X34772830Y33043946D01*
X34776677Y33052656D01*
X34776683Y33052669D01*
X34779877Y33059904D01*
X34797585Y33100009D01*
X34800500Y33125135D01*
X34800499Y34114864D01*
X34799632Y34122344D01*
X34798409Y34132886D01*
X34798078Y34138611D01*
X34797954Y34139371D01*
X34796394Y34142689D01*
X34776119Y34188607D01*
X34766604Y34222587D01*
X34763309Y34247751D01*
X34772828Y34313942D01*
X34779662Y34329416D01*
X34797585Y34370009D01*
X34800500Y34395135D01*
X34800499Y35384864D01*
X34800497Y35384883D01*
X34798409Y35402887D01*
X34798078Y35408610D01*
X34797954Y35409372D01*
X34796394Y35412689D01*
X34776119Y35458607D01*
X34766604Y35492589D01*
X34763309Y35517752D01*
X34772823Y35583930D01*
X34796414Y35637359D01*
X34797451Y35639562D01*
X34797584Y35640007D01*
X34797585Y35640009D01*
X34800500Y35665135D01*
X34800499Y36654864D01*
X34800497Y36654883D01*
X34797586Y36679988D01*
X34797585Y36679992D01*
X34797584Y36679994D01*
X34790295Y36696502D01*
X34779334Y36721325D01*
X34769821Y36755300D01*
X34768350Y36766529D01*
X34779165Y36835551D01*
X34825582Y36887773D01*
X34892828Y36906612D01*
X34895997Y36906572D01*
X34956459Y36889970D01*
X34990316Y36870423D01*
X35143043Y36829500D01*
X35143045Y36829500D01*
X35301155Y36829500D01*
X35301157Y36829500D01*
X35453884Y36870423D01*
X35590816Y36949480D01*
X35702620Y37061284D01*
X35781677Y37198216D01*
X35822600Y37350943D01*
X35822600Y37509057D01*
X35781677Y37661784D01*
X35758410Y37702084D01*
X35702624Y37798710D01*
X35702618Y37798718D01*
X35702613Y37798724D01*
X35590822Y37910515D01*
X35590820Y37910516D01*
X35590817Y37910519D01*
X35590809Y37910525D01*
X35524843Y37948610D01*
X35453907Y37989565D01*
X35453883Y37989578D01*
X35317201Y38026201D01*
X35301157Y38030500D01*
X35301156Y38030500D01*
X35143043Y38030500D01*
X34990316Y37989577D01*
X34990312Y37989576D01*
X34963004Y37973810D01*
X34930241Y37960695D01*
X34919251Y37958029D01*
X34849460Y37961354D01*
X34792546Y38001884D01*
X34766579Y38066749D01*
X34766578Y38066767D01*
X34766278Y38069914D01*
X34776284Y38131768D01*
X34778522Y38136839D01*
X34797585Y38180009D01*
X34797585Y38180015D01*
X34800035Y38189012D01*
X34801065Y38188732D01*
X34805678Y38206201D01*
X34811784Y38220597D01*
X34856075Y38274625D01*
X34860715Y38277789D01*
X34911264Y38297823D01*
X34912311Y38297988D01*
X34931614Y38299500D01*
X35883872Y38299500D01*
X35918804Y38294479D01*
X35944048Y38287066D01*
X35996794Y38255770D01*
X36033136Y38219428D01*
X36033652Y38219048D01*
X36036275Y38217637D01*
X36170009Y38140427D01*
X36170016Y38140423D01*
X36322743Y38099500D01*
X36322745Y38099500D01*
X36480855Y38099500D01*
X36480857Y38099500D01*
X36633584Y38140423D01*
X36770516Y38219480D01*
X36882320Y38331284D01*
X36961377Y38468216D01*
X37002300Y38620943D01*
X37002300Y38779057D01*
X36961377Y38931784D01*
X36923410Y38997546D01*
X36923410Y38997547D01*
X36903579Y39031894D01*
X36882324Y39068710D01*
X36882318Y39068718D01*
X36882314Y39068722D01*
X36882313Y39068724D01*
X36770522Y39180515D01*
X36770520Y39180516D01*
X36770517Y39180519D01*
X36770509Y39180525D01*
X36714471Y39212878D01*
X36633607Y39259565D01*
X36633583Y39259578D01*
X36521779Y39289536D01*
X36480857Y39300500D01*
X36480856Y39300500D01*
X36322743Y39300500D01*
X36170018Y39259578D01*
X36170011Y39259576D01*
X36170010Y39259575D01*
X36170000Y39259570D01*
X36033098Y39180530D01*
X36033082Y39180520D01*
X36033076Y39180514D01*
X36001989Y39149426D01*
X35973737Y39128276D01*
X35950650Y39115669D01*
X35891221Y39100500D01*
X34939723Y39100500D01*
X34933526Y39102320D01*
X34927176Y39101136D01*
X34904782Y39105525D01*
X34889783Y39109930D01*
X34874784Y39119569D01*
X34872684Y39120185D01*
X34871250Y39121840D01*
X34831020Y39147692D01*
X34827353Y39151923D01*
X34801602Y39199874D01*
X34801316Y39200898D01*
X34797598Y39219877D01*
X34797585Y39219991D01*
X34783900Y39250984D01*
X34783484Y39251927D01*
X34776119Y39268608D01*
X34766605Y39302585D01*
X34763309Y39327750D01*
X34772823Y39393930D01*
X34796414Y39447359D01*
X34797451Y39449562D01*
X34797584Y39450007D01*
X34797585Y39450009D01*
X34797585Y39450014D01*
X34800674Y39460378D01*
X34801439Y39460150D01*
X34805678Y39476201D01*
X34811784Y39490597D01*
X34822479Y39503642D01*
X34823564Y39507996D01*
X34834464Y39518263D01*
X34856075Y39544625D01*
X34860715Y39547789D01*
X34869520Y39551279D01*
X34874427Y39555899D01*
X34887171Y39558274D01*
X34911264Y39567823D01*
X34912311Y39567988D01*
X34931614Y39569500D01*
X37407415Y39569500D01*
X37442347Y39564479D01*
G37*
%TD.AperFunction*%
%TA.AperFunction,Conductor*%
G36*
X12429137Y20394479D02*
G01*
X12454381Y20387066D01*
X12507127Y20355770D01*
X12941446Y19921451D01*
X12962595Y19893202D01*
X12972652Y19874782D01*
X12987816Y19816462D01*
X12987876Y19809742D01*
X12985498Y19784443D01*
X12949500Y19603473D01*
X12949500Y19603470D01*
X12949500Y19396531D01*
X12949500Y19396529D01*
X12949499Y19396529D01*
X12989864Y19193606D01*
X12989870Y19193579D01*
X13051982Y19043625D01*
X13051983Y19043625D01*
X13069061Y19002397D01*
X13070996Y18999501D01*
X13070997Y18999501D01*
X13184025Y18830341D01*
X13330336Y18684030D01*
X13330340Y18684027D01*
X13330342Y18684025D01*
X13330345Y18684023D01*
X13330349Y18684020D01*
X13330348Y18684020D01*
X13330411Y18683968D01*
X13330448Y18683954D01*
X13502402Y18569059D01*
X13693580Y18489870D01*
X13884545Y18451885D01*
X13893559Y18450092D01*
X13895794Y18449591D01*
X13896532Y18449500D01*
X14103466Y18449500D01*
X14125574Y18449500D01*
X14138185Y18456387D01*
X14140303Y18456829D01*
X14215991Y18471883D01*
X14279490Y18484514D01*
X14314727Y18486401D01*
X14335624Y18484531D01*
X14392544Y18464735D01*
X14398165Y18461051D01*
X14417874Y18445022D01*
X15799284Y17063612D01*
X15820436Y17035356D01*
X15827928Y17021635D01*
X15842779Y16953366D01*
X15841743Y16938878D01*
X15837020Y16918091D01*
X15837303Y16918037D01*
X15834475Y16903156D01*
X15834238Y16899195D01*
X15832299Y16883053D01*
X15824500Y16818103D01*
X15824500Y15981897D01*
X15826297Y15966930D01*
X15826297Y15966927D01*
X15828084Y15952040D01*
X15827261Y15916755D01*
X15823375Y15893580D01*
X15802124Y15842208D01*
X15800803Y15840351D01*
X15787442Y15824548D01*
X15411817Y15448923D01*
X15411809Y15448913D01*
X15411805Y15448907D01*
X15352500Y15346188D01*
X15352152Y15345263D01*
X15351467Y15342333D01*
X15321799Y15231606D01*
X15321524Y15229517D01*
X15317562Y15210768D01*
X15312371Y15193092D01*
X15274627Y15134345D01*
X15273258Y15133158D01*
X15218397Y15105682D01*
X15210839Y15104037D01*
X15184468Y15101200D01*
X12164414Y15101200D01*
X12129473Y15106225D01*
X12115693Y15110272D01*
X12056917Y15148049D01*
X12028110Y15210174D01*
X12026098Y15223099D01*
X12025572Y15253187D01*
X12025279Y15253204D01*
X12025500Y15256896D01*
X12025500Y15843097D01*
X12025500Y15843102D01*
X12014877Y15931564D01*
X11960519Y16069404D01*
X11959349Y16072610D01*
X11957032Y16075893D01*
X11957029Y16075898D01*
X11954240Y16079096D01*
X11867922Y16192924D01*
X11747345Y16284360D01*
X11747343Y16284361D01*
X11676952Y16312120D01*
X11606559Y16339879D01*
X11567152Y16344611D01*
X11560926Y16345358D01*
X11560925Y16345359D01*
X11533220Y16348685D01*
X11518102Y16350500D01*
X11518098Y16350500D01*
X10905795Y16350500D01*
X10870859Y16355523D01*
X10845617Y16362935D01*
X10792872Y16394231D01*
X10009026Y17178077D01*
X9987874Y17206333D01*
X9975267Y17229422D01*
X9960100Y17288847D01*
X9960100Y18929307D01*
X9960100Y18929309D01*
X9930156Y19041062D01*
X9930156Y19041063D01*
X9930156Y19041064D01*
X9929561Y19043284D01*
X9929555Y19043304D01*
X9929399Y19043887D01*
X9929399Y19043888D01*
X9893076Y19106802D01*
X9870093Y19146610D01*
X9870091Y19146613D01*
X9870086Y19146618D01*
X9870080Y19146625D01*
X9691492Y19325213D01*
X9670345Y19353459D01*
X9669713Y19354617D01*
X9664923Y19363388D01*
X9650067Y19431657D01*
X9674479Y19497123D01*
X9730407Y19538997D01*
X9734291Y19540446D01*
X9737627Y19541689D01*
X9780941Y19549500D01*
X10229591Y19549500D01*
X10229594Y19549500D01*
X10297657Y19555685D01*
X10454270Y19604488D01*
X10454274Y19604490D01*
X10594648Y19689349D01*
X10594647Y19689349D01*
X10594653Y19689352D01*
X10710648Y19805347D01*
X10747468Y19866255D01*
X10795511Y19945728D01*
X10795514Y19945737D01*
X10804502Y19974580D01*
X10844315Y20102343D01*
X10850500Y20170406D01*
X10850500Y20257671D01*
X10855523Y20292607D01*
X10859927Y20307605D01*
X10897672Y20366356D01*
X10899041Y20367543D01*
X10953920Y20395023D01*
X10961479Y20396667D01*
X10987832Y20399500D01*
X12394205Y20399500D01*
X12429137Y20394479D01*
G37*
%TD.AperFunction*%
%TA.AperFunction,Conductor*%
G36*
X885870Y48899168D02*
G01*
X890971Y48900014D01*
X900158Y48896058D01*
X933805Y48888735D01*
X946390Y48876149D01*
X955144Y48872379D01*
X965444Y48857094D01*
X983200Y48839336D01*
X984833Y48836347D01*
X988130Y48823427D01*
X994188Y48814437D01*
X994538Y48798318D01*
X1000000Y48776921D01*
X1000000Y44000000D01*
X49000000Y44000000D01*
X49000000Y48769571D01*
X49000006Y48769618D01*
X49000000Y48769640D01*
X49000019Y48769706D01*
X49005021Y48804498D01*
X49008207Y48815351D01*
X49017878Y48830403D01*
X49019722Y48836668D01*
X49024638Y48840924D01*
X49045977Y48874132D01*
X49109531Y48903161D01*
X49178686Y48893223D01*
X49181793Y48891804D01*
X49229547Y48853322D01*
X49253485Y48821345D01*
X49258533Y48814074D01*
X49263319Y48806627D01*
X49267836Y48799013D01*
X49357614Y48634595D01*
X49357850Y48633510D01*
X49361575Y48626684D01*
X49365248Y48618642D01*
X49368637Y48610461D01*
X49434116Y48434908D01*
X49436913Y48426503D01*
X49439399Y48418035D01*
X49441586Y48409463D01*
X49481407Y48226404D01*
X49482978Y48217703D01*
X49484238Y48208944D01*
X49485185Y48200135D01*
X49499026Y48006629D01*
X49499263Y48002209D01*
X49499421Y47997786D01*
X49499500Y47993359D01*
X49499500Y29558173D01*
X49494476Y29523235D01*
X49491289Y29512382D01*
X49453514Y29453605D01*
X49389957Y29424582D01*
X49320817Y29434519D01*
X49319236Y29435241D01*
X49317596Y29435990D01*
X49270290Y29473864D01*
X49224974Y29533623D01*
X49220351Y29541081D01*
X49220092Y29541277D01*
X49215816Y29544670D01*
X49211903Y29547918D01*
X49208751Y29549878D01*
X49097345Y29634360D01*
X49097343Y29634361D01*
X49007836Y29669658D01*
X48956559Y29689879D01*
X48917152Y29694611D01*
X48910926Y29695358D01*
X48910925Y29695359D01*
X48883220Y29698685D01*
X48868102Y29700500D01*
X48868098Y29700500D01*
X47481901Y29700500D01*
X47481898Y29700500D01*
X47471560Y29699259D01*
X47442853Y29695813D01*
X47442853Y29695812D01*
X47436920Y29695100D01*
X47393439Y29689879D01*
X47252653Y29634360D01*
X47132076Y29542924D01*
X47040642Y29422350D01*
X47040637Y29422340D01*
X47018150Y29365316D01*
X47013419Y29359236D01*
X47011804Y29351703D01*
X47000659Y29334656D01*
X46993196Y29325065D01*
X46978730Y29314652D01*
X46975245Y29310172D01*
X46969889Y29308288D01*
X46936491Y29284245D01*
X46866719Y29280562D01*
X46807880Y29313306D01*
X46800558Y29320590D01*
X46780624Y29346499D01*
X46779337Y29348729D01*
X46715724Y29458910D01*
X46715718Y29458918D01*
X46684623Y29490013D01*
X46663472Y29518269D01*
X46660747Y29523259D01*
X46659438Y29525658D01*
X46650866Y29541357D01*
X46642283Y29574986D01*
X46636043Y29591566D01*
X46636960Y29595843D01*
X46635700Y29600780D01*
X46635700Y32785879D01*
X46635701Y32785930D01*
X46635701Y32903727D01*
X46632126Y32917066D01*
X46632126Y32917072D01*
X46632125Y32917071D01*
X46608407Y33005587D01*
X46583054Y33049500D01*
X46555680Y33096913D01*
X46481113Y33171480D01*
X46481112Y33171481D01*
X46476782Y33175811D01*
X46475760Y33176833D01*
X46475717Y33176875D01*
X39620334Y40032259D01*
X39534580Y40118013D01*
X44199500Y40118013D01*
X44199500Y39881989D01*
X44199503Y39881964D01*
X44227613Y39668438D01*
X44227614Y39668438D01*
X44230306Y39647988D01*
X44291395Y39420003D01*
X44377190Y39212876D01*
X44381714Y39201955D01*
X44381719Y39201944D01*
X44437388Y39105525D01*
X44440289Y39100500D01*
X44499723Y38997555D01*
X44499725Y38997553D01*
X44499944Y38997224D01*
X44500947Y38995960D01*
X44643399Y38810311D01*
X44643403Y38810306D01*
X44643406Y38810303D01*
X44643412Y38810296D01*
X44810295Y38643413D01*
X44810302Y38643407D01*
X44839575Y38620945D01*
X44839577Y38620944D01*
X44839578Y38620943D01*
X44997548Y38499728D01*
X44997550Y38499727D01*
X45128918Y38423882D01*
X45198516Y38383699D01*
X45200255Y38382618D01*
X45201708Y38381811D01*
X45202447Y38381511D01*
X45420007Y38291394D01*
X45647986Y38230307D01*
X45881989Y38199500D01*
X45881996Y38199500D01*
X46118004Y38199500D01*
X46118011Y38199500D01*
X46352014Y38230307D01*
X46579993Y38291394D01*
X46798049Y38381716D01*
X47002450Y38499727D01*
X47189699Y38643408D01*
X47356592Y38810301D01*
X47500273Y38997550D01*
X47618284Y39201951D01*
X47708606Y39420007D01*
X47769693Y39647986D01*
X47800500Y39881989D01*
X47800500Y40118011D01*
X47769693Y40352014D01*
X47708606Y40579993D01*
X47618489Y40797553D01*
X47618189Y40798292D01*
X47617382Y40799745D01*
X47616297Y40801491D01*
X47615321Y40803181D01*
X47576118Y40871082D01*
X47500273Y41002450D01*
X47500272Y41002452D01*
X47356595Y41189695D01*
X47356589Y41189703D01*
X47356574Y41189719D01*
X47189712Y41356580D01*
X47189704Y41356588D01*
X47189697Y41356594D01*
X47189694Y41356597D01*
X47189689Y41356601D01*
X47004040Y41499053D01*
X47002776Y41500056D01*
X47002447Y41500275D01*
X47002444Y41500277D01*
X46898172Y41560478D01*
X46898170Y41560480D01*
X46798065Y41618276D01*
X46798048Y41618285D01*
X46579997Y41708605D01*
X46435458Y41747334D01*
X46352010Y41769694D01*
X46352009Y41769695D01*
X46352006Y41769695D01*
X46119889Y41800253D01*
X46118208Y41800500D01*
X46118017Y41800500D01*
X46118011Y41800500D01*
X45881989Y41800500D01*
X45881983Y41800500D01*
X45881981Y41800500D01*
X45875861Y41799747D01*
X45874955Y41799575D01*
X45647992Y41769695D01*
X45420001Y41708605D01*
X45201950Y41618285D01*
X45201942Y41618281D01*
X44997545Y41500270D01*
X44997536Y41500264D01*
X44810309Y41356601D01*
X44810294Y41356587D01*
X44810286Y41356580D01*
X44643420Y41189714D01*
X44643413Y41189706D01*
X44643399Y41189691D01*
X44499736Y41002464D01*
X44499730Y41002455D01*
X44381719Y40798058D01*
X44381715Y40798050D01*
X44291395Y40579999D01*
X44230305Y40352008D01*
X44199503Y40118037D01*
X44199500Y40118013D01*
X39534580Y40118013D01*
X38092115Y41560478D01*
X38092114Y41560479D01*
X38092113Y41560480D01*
X38081319Y41566712D01*
X38046450Y41586845D01*
X38046450Y41586844D01*
X38000789Y41613207D01*
X37949857Y41626854D01*
X37949856Y41626855D01*
X37898930Y41640500D01*
X37898927Y41640500D01*
X37898926Y41640500D01*
X34939723Y41640500D01*
X34904782Y41645525D01*
X34889783Y41649930D01*
X34831018Y41687695D01*
X34827879Y41691317D01*
X34802112Y41747726D01*
X34800255Y41747334D01*
X34797585Y41759992D01*
X34777547Y41805371D01*
X34752206Y41862765D01*
X34672765Y41942206D01*
X34672763Y41942207D01*
X34639879Y41956727D01*
X34569993Y41987585D01*
X34569994Y41987585D01*
X34544868Y41990500D01*
X34544865Y41990500D01*
X32955143Y41990500D01*
X32955127Y41990499D01*
X32955113Y41990498D01*
X32937255Y41988427D01*
X32930012Y41987587D01*
X32930011Y41987587D01*
X32930005Y41987586D01*
X32929559Y41987453D01*
X32927303Y41986391D01*
X32827236Y41942208D01*
X32747793Y41862766D01*
X32702414Y41759995D01*
X32701844Y41757290D01*
X32701589Y41752876D01*
X32699500Y41734873D01*
X32699500Y40745151D01*
X32699502Y40745112D01*
X32700945Y40732666D01*
X32701370Y40729004D01*
X32701589Y40727122D01*
X32701955Y40720781D01*
X32703783Y40716705D01*
X32710306Y40700957D01*
X32711772Y40698817D01*
X32714369Y40692937D01*
X32714372Y40692920D01*
X32714376Y40692921D01*
X32723880Y40671395D01*
X32733395Y40637408D01*
X32736689Y40612247D01*
X32727172Y40546065D01*
X32702415Y40489997D01*
X32701844Y40487289D01*
X32701589Y40482876D01*
X32699500Y40464873D01*
X32699500Y39475151D01*
X32699502Y39475112D01*
X32702426Y39449896D01*
X32703288Y39448033D01*
X32723879Y39401397D01*
X32733395Y39367408D01*
X32736689Y39342247D01*
X32727172Y39276065D01*
X32702415Y39219997D01*
X32701844Y39217289D01*
X32701589Y39212876D01*
X32699500Y39194873D01*
X32699500Y38205151D01*
X32699502Y38205112D01*
X32702426Y38179896D01*
X32703288Y38178033D01*
X32723879Y38131397D01*
X32733395Y38097408D01*
X32736689Y38072247D01*
X32727172Y38006065D01*
X32702415Y37949997D01*
X32701844Y37947289D01*
X32701589Y37942876D01*
X32699500Y37924873D01*
X32699500Y36935151D01*
X32699502Y36935112D01*
X32701589Y36917122D01*
X32701955Y36910781D01*
X32703783Y36906705D01*
X32710310Y36890947D01*
X32711778Y36888804D01*
X32723879Y36861397D01*
X32733395Y36827408D01*
X32736689Y36802247D01*
X32727172Y36736065D01*
X32702415Y36679997D01*
X32701844Y36677289D01*
X32701589Y36672876D01*
X32699500Y36654873D01*
X32699500Y35665151D01*
X32699502Y35665112D01*
X32702426Y35639896D01*
X32703288Y35638033D01*
X32723879Y35591397D01*
X32733395Y35557408D01*
X32736689Y35532247D01*
X32727172Y35466065D01*
X32702415Y35409997D01*
X32701844Y35407289D01*
X32701589Y35402876D01*
X32699500Y35384873D01*
X32699500Y34395151D01*
X32699502Y34395112D01*
X32702426Y34369896D01*
X32703288Y34368033D01*
X32723879Y34321397D01*
X32733395Y34287408D01*
X32736689Y34262247D01*
X32727172Y34196065D01*
X32702415Y34139997D01*
X32701844Y34137289D01*
X32701589Y34132876D01*
X32699500Y34114873D01*
X32699500Y33125151D01*
X32699502Y33125112D01*
X32701589Y33107122D01*
X32701955Y33100781D01*
X32703783Y33096705D01*
X32710309Y33080950D01*
X32711776Y33078808D01*
X32718087Y33064516D01*
X32718088Y33064509D01*
X32718090Y33064509D01*
X32723880Y33051395D01*
X32733395Y33017408D01*
X32736689Y32992247D01*
X32727172Y32926065D01*
X32702415Y32869997D01*
X32701844Y32867289D01*
X32701589Y32862876D01*
X32699500Y32844873D01*
X32699500Y31855151D01*
X32699502Y31855112D01*
X32702426Y31829896D01*
X32703288Y31828033D01*
X32723879Y31781397D01*
X32733395Y31747408D01*
X32736689Y31722247D01*
X32727172Y31656065D01*
X32702415Y31599997D01*
X32701844Y31597289D01*
X32701589Y31592876D01*
X32699500Y31574873D01*
X32699500Y30585151D01*
X32699502Y30585112D01*
X32702426Y30559896D01*
X32703288Y30558033D01*
X32723879Y30511397D01*
X32733395Y30477408D01*
X32736689Y30452247D01*
X32727172Y30386065D01*
X32702415Y30329997D01*
X32701844Y30327289D01*
X32701589Y30322876D01*
X32699500Y30304873D01*
X32699500Y29315151D01*
X32699502Y29315112D01*
X32702426Y29289896D01*
X32703283Y29288043D01*
X32711077Y29270392D01*
X32723879Y29241397D01*
X32733395Y29207408D01*
X32736689Y29182247D01*
X32727172Y29116065D01*
X32702415Y29059997D01*
X32701844Y29057289D01*
X32701589Y29052876D01*
X32699500Y29034873D01*
X32699500Y28045151D01*
X32699502Y28045112D01*
X32702426Y28019896D01*
X32703288Y28018033D01*
X32723879Y27971397D01*
X32733395Y27937408D01*
X32736689Y27912247D01*
X32727172Y27846065D01*
X32702415Y27789997D01*
X32701844Y27787289D01*
X32701589Y27782876D01*
X32699500Y27764873D01*
X32699500Y26775151D01*
X32699502Y26775112D01*
X32701589Y26757122D01*
X32701955Y26750781D01*
X32703783Y26746705D01*
X32710310Y26730947D01*
X32711774Y26728810D01*
X32719898Y26710412D01*
X32723877Y26701401D01*
X32733395Y26667408D01*
X32736689Y26642247D01*
X32727172Y26576065D01*
X32702415Y26519997D01*
X32701844Y26517289D01*
X32701589Y26512876D01*
X32699500Y26494873D01*
X32699500Y25919832D01*
X32694475Y25884891D01*
X32690564Y25871574D01*
X32652787Y25812798D01*
X32589230Y25783776D01*
X32584471Y25783092D01*
X32516743Y25792397D01*
X32504994Y25797585D01*
X32504995Y25797585D01*
X32479868Y25800500D01*
X32479865Y25800500D01*
X31490143Y25800500D01*
X31490127Y25800499D01*
X31490113Y25800498D01*
X31472255Y25798427D01*
X31465012Y25797587D01*
X31465011Y25797587D01*
X31465005Y25797586D01*
X31464556Y25797452D01*
X31462304Y25796392D01*
X31416394Y25776121D01*
X31382407Y25766605D01*
X31357250Y25763311D01*
X31291066Y25772827D01*
X31234993Y25797585D01*
X31234994Y25797585D01*
X31209868Y25800500D01*
X31209865Y25800500D01*
X30220143Y25800500D01*
X30220127Y25800499D01*
X30220113Y25800498D01*
X30202255Y25798427D01*
X30195012Y25797587D01*
X30195011Y25797587D01*
X30195005Y25797586D01*
X30194556Y25797452D01*
X30192304Y25796392D01*
X30146394Y25776121D01*
X30112407Y25766605D01*
X30087250Y25763311D01*
X30021066Y25772827D01*
X29964993Y25797585D01*
X29964994Y25797585D01*
X29939868Y25800500D01*
X29939865Y25800500D01*
X28950143Y25800500D01*
X28950127Y25800499D01*
X28950113Y25800498D01*
X28932255Y25798427D01*
X28925012Y25797587D01*
X28925011Y25797587D01*
X28925005Y25797586D01*
X28924556Y25797452D01*
X28922304Y25796392D01*
X28876394Y25776121D01*
X28842407Y25766605D01*
X28817250Y25763311D01*
X28751066Y25772827D01*
X28694993Y25797585D01*
X28694994Y25797585D01*
X28669868Y25800500D01*
X28669865Y25800500D01*
X27680143Y25800500D01*
X27680127Y25800499D01*
X27680113Y25800498D01*
X27662255Y25798427D01*
X27655012Y25797587D01*
X27655011Y25797587D01*
X27655005Y25797586D01*
X27654556Y25797452D01*
X27652304Y25796392D01*
X27606394Y25776121D01*
X27572407Y25766605D01*
X27547250Y25763311D01*
X27481066Y25772827D01*
X27424993Y25797585D01*
X27424994Y25797585D01*
X27399868Y25800500D01*
X27399865Y25800500D01*
X26410143Y25800500D01*
X26410127Y25800499D01*
X26410113Y25800498D01*
X26392255Y25798427D01*
X26385012Y25797587D01*
X26385011Y25797587D01*
X26385005Y25797586D01*
X26384556Y25797452D01*
X26382304Y25796392D01*
X26336394Y25776121D01*
X26302407Y25766605D01*
X26277250Y25763311D01*
X26211066Y25772827D01*
X26154993Y25797585D01*
X26154994Y25797585D01*
X26129868Y25800500D01*
X26129865Y25800500D01*
X25140143Y25800500D01*
X25140127Y25800499D01*
X25140113Y25800498D01*
X25122255Y25798427D01*
X25115012Y25797587D01*
X25115011Y25797587D01*
X25115005Y25797586D01*
X25114556Y25797452D01*
X25112304Y25796392D01*
X25066394Y25776121D01*
X25032407Y25766605D01*
X25007250Y25763311D01*
X24941066Y25772827D01*
X24884993Y25797585D01*
X24884994Y25797585D01*
X24859868Y25800500D01*
X24859865Y25800500D01*
X23870143Y25800500D01*
X23870127Y25800499D01*
X23870113Y25800498D01*
X23852255Y25798427D01*
X23845012Y25797587D01*
X23845011Y25797587D01*
X23845005Y25797586D01*
X23844556Y25797452D01*
X23842304Y25796392D01*
X23796394Y25776121D01*
X23762407Y25766605D01*
X23737250Y25763311D01*
X23671066Y25772827D01*
X23614993Y25797585D01*
X23614994Y25797585D01*
X23589868Y25800500D01*
X23589865Y25800500D01*
X22600143Y25800500D01*
X22600127Y25800499D01*
X22600113Y25800498D01*
X22582255Y25798427D01*
X22575012Y25797587D01*
X22575011Y25797587D01*
X22575005Y25797586D01*
X22574556Y25797452D01*
X22572304Y25796392D01*
X22526394Y25776121D01*
X22492407Y25766605D01*
X22467250Y25763311D01*
X22401066Y25772827D01*
X22344993Y25797585D01*
X22344994Y25797585D01*
X22319868Y25800500D01*
X22319865Y25800500D01*
X21330143Y25800500D01*
X21330127Y25800499D01*
X21330113Y25800498D01*
X21312255Y25798427D01*
X21305012Y25797587D01*
X21305011Y25797587D01*
X21305005Y25797586D01*
X21304556Y25797452D01*
X21302304Y25796392D01*
X21256394Y25776121D01*
X21222407Y25766605D01*
X21197250Y25763311D01*
X21131066Y25772827D01*
X21074993Y25797585D01*
X21074994Y25797585D01*
X21049868Y25800500D01*
X21049865Y25800500D01*
X20060143Y25800500D01*
X20060127Y25800499D01*
X20060113Y25800498D01*
X20042255Y25798427D01*
X20035012Y25797587D01*
X20035011Y25797587D01*
X20035005Y25797586D01*
X20034556Y25797452D01*
X20032304Y25796392D01*
X19986394Y25776121D01*
X19952407Y25766605D01*
X19927250Y25763311D01*
X19861066Y25772827D01*
X19804993Y25797585D01*
X19804994Y25797585D01*
X19779868Y25800500D01*
X19779865Y25800500D01*
X18790143Y25800500D01*
X18790127Y25800499D01*
X18790113Y25800498D01*
X18772255Y25798427D01*
X18765012Y25797587D01*
X18765011Y25797587D01*
X18765005Y25797586D01*
X18764556Y25797452D01*
X18762304Y25796392D01*
X18716394Y25776121D01*
X18682407Y25766605D01*
X18657250Y25763311D01*
X18591066Y25772827D01*
X18534993Y25797585D01*
X18534994Y25797585D01*
X18509868Y25800500D01*
X18509865Y25800500D01*
X17520143Y25800500D01*
X17520127Y25800499D01*
X17520113Y25800498D01*
X17506941Y25798971D01*
X17495012Y25797587D01*
X17495010Y25797587D01*
X17495007Y25797586D01*
X17495005Y25797586D01*
X17490882Y25795765D01*
X17456900Y25786252D01*
X17443142Y25784451D01*
X17374115Y25795267D01*
X17321894Y25841684D01*
X17319346Y25845761D01*
X17300499Y25911479D01*
X17300499Y26316907D01*
X17305520Y26351834D01*
X17307180Y26357490D01*
X17308706Y26362689D01*
X17346476Y26421468D01*
X17410030Y26450497D01*
X17479185Y26440559D01*
X17486171Y26437369D01*
X17522341Y26412256D01*
X17542639Y26391958D01*
X17543155Y26391579D01*
X17545772Y26390171D01*
X17608217Y26354118D01*
X17618554Y26348150D01*
X17618561Y26348147D01*
X17645314Y26332701D01*
X17759891Y26302000D01*
X19310739Y26302000D01*
X19345675Y26296977D01*
X19374558Y26288496D01*
X19401915Y26274599D01*
X19402748Y26276041D01*
X19408194Y26272897D01*
X19411390Y26270988D01*
X19418032Y26266883D01*
X19420652Y26265705D01*
X19546709Y26192927D01*
X19546716Y26192923D01*
X19699443Y26152000D01*
X19699445Y26152000D01*
X19857555Y26152000D01*
X19857557Y26152000D01*
X20010284Y26192923D01*
X20147216Y26271980D01*
X20259020Y26383784D01*
X20338077Y26520716D01*
X20379000Y26673443D01*
X20379000Y26831557D01*
X20338077Y26984284D01*
X20287236Y27072344D01*
X20260031Y27119466D01*
X20259028Y27121204D01*
X20259020Y27121216D01*
X20259013Y27121224D01*
X20147222Y27233015D01*
X20147220Y27233016D01*
X20147217Y27233019D01*
X20147209Y27233025D01*
X20120647Y27248360D01*
X20010307Y27312065D01*
X20010283Y27312078D01*
X19898479Y27342036D01*
X19857557Y27353000D01*
X19857556Y27353000D01*
X19699443Y27353000D01*
X19546718Y27312078D01*
X19546711Y27312076D01*
X19546710Y27312075D01*
X19546705Y27312072D01*
X19406661Y27231219D01*
X19389380Y27222951D01*
X19380707Y27219598D01*
X19359356Y27211344D01*
X19314642Y27203000D01*
X18074995Y27203000D01*
X18040059Y27208023D01*
X18014817Y27215435D01*
X17962072Y27246731D01*
X17578316Y27630487D01*
X17578314Y27630489D01*
X17526950Y27660144D01*
X17516092Y27666413D01*
X17475589Y27689799D01*
X17463477Y27693044D01*
X17463477Y27693046D01*
X17463470Y27693046D01*
X17457442Y27694662D01*
X17457421Y27694667D01*
X17398450Y27710468D01*
X17366004Y27724363D01*
X17345610Y27736794D01*
X17306251Y27774993D01*
X17305921Y27775500D01*
X17305380Y27776331D01*
X17295855Y27793908D01*
X17276116Y27838612D01*
X17266603Y27872591D01*
X17263308Y27897755D01*
X17266357Y27918959D01*
X17264654Y27938104D01*
X17270797Y27949834D01*
X17272824Y27963932D01*
X17296399Y28017325D01*
X17297450Y28019559D01*
X17297584Y28020007D01*
X17297585Y28020009D01*
X17300500Y28045135D01*
X17300499Y29034864D01*
X17300497Y29034883D01*
X17298409Y29052887D01*
X17298078Y29058610D01*
X17297954Y29059372D01*
X17296394Y29062689D01*
X17283863Y29091068D01*
X17276118Y29108609D01*
X17266604Y29142589D01*
X17263309Y29167752D01*
X17272823Y29233930D01*
X17296414Y29287359D01*
X17297451Y29289562D01*
X17297584Y29290007D01*
X17297585Y29290009D01*
X17300500Y29315135D01*
X17300499Y30304864D01*
X17300124Y30308101D01*
X17298409Y30322886D01*
X17298078Y30328614D01*
X17297954Y30329373D01*
X17296394Y30332691D01*
X17276689Y30377319D01*
X17276688Y30377318D01*
X17276686Y30377323D01*
X17276120Y30378604D01*
X17266604Y30412589D01*
X17263309Y30437750D01*
X17272823Y30503930D01*
X17296414Y30557359D01*
X17297451Y30559562D01*
X17297584Y30560007D01*
X17297585Y30560009D01*
X17300500Y30585135D01*
X17300499Y31574864D01*
X17300497Y31574883D01*
X17298409Y31592887D01*
X17298078Y31598610D01*
X17297954Y31599372D01*
X17296394Y31602689D01*
X17276119Y31648607D01*
X17266604Y31682589D01*
X17263309Y31707752D01*
X17272823Y31773930D01*
X17296414Y31827359D01*
X17297451Y31829562D01*
X17297584Y31830007D01*
X17297585Y31830009D01*
X17300500Y31855135D01*
X17300499Y32844864D01*
X17300497Y32844883D01*
X17298409Y32862887D01*
X17298078Y32868610D01*
X17297954Y32869372D01*
X17296394Y32872689D01*
X17282689Y32903727D01*
X17276118Y32918609D01*
X17266604Y32952587D01*
X17263309Y32977751D01*
X17272830Y33043946D01*
X17276677Y33052656D01*
X17276683Y33052669D01*
X17279877Y33059904D01*
X17297585Y33100009D01*
X17300500Y33125135D01*
X17300499Y34114864D01*
X17299632Y34122344D01*
X17298409Y34132886D01*
X17298078Y34138611D01*
X17297954Y34139371D01*
X17296394Y34142689D01*
X17276119Y34188607D01*
X17266604Y34222587D01*
X17263309Y34247751D01*
X17272828Y34313942D01*
X17279662Y34329416D01*
X17297585Y34370009D01*
X17300500Y34395135D01*
X17300499Y35384864D01*
X17300497Y35384883D01*
X17298409Y35402887D01*
X17298078Y35408610D01*
X17297954Y35409372D01*
X17296394Y35412689D01*
X17276119Y35458607D01*
X17266604Y35492589D01*
X17263309Y35517752D01*
X17272823Y35583930D01*
X17296414Y35637359D01*
X17297451Y35639562D01*
X17297584Y35640007D01*
X17297585Y35640009D01*
X17300500Y35665135D01*
X17300499Y36654864D01*
X17300497Y36654883D01*
X17298409Y36672887D01*
X17298078Y36678610D01*
X17297954Y36679372D01*
X17296394Y36682689D01*
X17276119Y36728607D01*
X17266604Y36762587D01*
X17263309Y36787751D01*
X17272827Y36853939D01*
X17280107Y36870424D01*
X17297585Y36910009D01*
X17300500Y36935135D01*
X17300499Y37924864D01*
X17300497Y37924883D01*
X17298409Y37942887D01*
X17298078Y37948610D01*
X17297954Y37949372D01*
X17296394Y37952689D01*
X17283863Y37981068D01*
X17276118Y37998609D01*
X17266604Y38032587D01*
X17263309Y38057751D01*
X17272827Y38123939D01*
X17280107Y38140424D01*
X17297585Y38180009D01*
X17300500Y38205135D01*
X17300499Y39194864D01*
X17299677Y39201955D01*
X17298409Y39212886D01*
X17298078Y39218613D01*
X17297955Y39219371D01*
X17296394Y39222689D01*
X17283484Y39251927D01*
X17276118Y39268609D01*
X17266604Y39302589D01*
X17263309Y39327752D01*
X17272823Y39393930D01*
X17296414Y39447359D01*
X17297451Y39449562D01*
X17297584Y39450007D01*
X17297585Y39450009D01*
X17300500Y39475135D01*
X17300499Y40464864D01*
X17300497Y40464883D01*
X17298409Y40482887D01*
X17298078Y40488610D01*
X17297954Y40489372D01*
X17296394Y40492689D01*
X17276119Y40538607D01*
X17266604Y40572589D01*
X17263309Y40597752D01*
X17272825Y40663935D01*
X17295632Y40715585D01*
X17297585Y40720009D01*
X17300500Y40745135D01*
X17300499Y41734864D01*
X17300497Y41734883D01*
X17298409Y41752887D01*
X17298078Y41758610D01*
X17297955Y41759370D01*
X17296406Y41762661D01*
X17252206Y41862765D01*
X17172765Y41942206D01*
X17172763Y41942207D01*
X17139879Y41956727D01*
X17069993Y41987585D01*
X17069994Y41987585D01*
X17044868Y41990500D01*
X17044865Y41990500D01*
X15455143Y41990500D01*
X15455127Y41990499D01*
X15455113Y41990498D01*
X15437255Y41988427D01*
X15430012Y41987587D01*
X15430011Y41987587D01*
X15430005Y41987586D01*
X15429559Y41987453D01*
X15427303Y41986391D01*
X15327236Y41942208D01*
X15327233Y41942206D01*
X15247794Y41862767D01*
X15211568Y41780723D01*
X15192864Y41750796D01*
X15182778Y41738855D01*
X15124485Y41700343D01*
X15112783Y41696746D01*
X15110272Y41695974D01*
X15073836Y41690500D01*
X14330691Y41690500D01*
X14292380Y41680235D01*
X14272416Y41674886D01*
X14272403Y41674885D01*
X14216144Y41659809D01*
X14216124Y41659804D01*
X14216116Y41659801D01*
X14216113Y41659800D01*
X14216110Y41659799D01*
X14216108Y41659798D01*
X14113396Y41600496D01*
X14113381Y41600486D01*
X14113379Y41600485D01*
X13412323Y40899427D01*
X13384072Y40878278D01*
X13360984Y40865670D01*
X13301554Y40850500D01*
X12681898Y40850500D01*
X12671560Y40849259D01*
X12642853Y40845813D01*
X12642853Y40845812D01*
X12636920Y40845100D01*
X12593439Y40839879D01*
X12452653Y40784360D01*
X12332076Y40692924D01*
X12240640Y40572347D01*
X12185121Y40431560D01*
X12181514Y40401508D01*
X12181292Y40399662D01*
X12174500Y40343102D01*
X12174500Y40343097D01*
X12174500Y39756897D01*
X12177529Y39731675D01*
X12177529Y39731670D01*
X12177530Y39731670D01*
X12184238Y39675802D01*
X12184603Y39669688D01*
X12184728Y39669387D01*
X12185521Y39667426D01*
X12200595Y39629202D01*
X12200595Y39629200D01*
X12240637Y39527661D01*
X12240640Y39527655D01*
X12332076Y39407078D01*
X12445904Y39320760D01*
X12449102Y39317971D01*
X12449107Y39317968D01*
X12452390Y39315651D01*
X12455596Y39314481D01*
X12593436Y39260123D01*
X12681898Y39249500D01*
X13294205Y39249500D01*
X13329137Y39244479D01*
X13354381Y39237066D01*
X13407127Y39205770D01*
X13802373Y38810524D01*
X13823523Y38782272D01*
X13836131Y38759183D01*
X13851300Y38699754D01*
X13851300Y37807595D01*
X13846276Y37772658D01*
X13838864Y37747417D01*
X13807569Y37694673D01*
X13412323Y37299427D01*
X13384072Y37278278D01*
X13360984Y37265670D01*
X13301554Y37250500D01*
X12681898Y37250500D01*
X12671560Y37249259D01*
X12642853Y37245813D01*
X12642853Y37245812D01*
X12636920Y37245100D01*
X12593439Y37239879D01*
X12452653Y37184360D01*
X12332076Y37092924D01*
X12240640Y36972347D01*
X12185121Y36831560D01*
X12184874Y36829500D01*
X12182201Y36807235D01*
X12174500Y36743102D01*
X12174500Y36743099D01*
X12174500Y36743097D01*
X12174500Y36429500D01*
X12154815Y36362461D01*
X12102011Y36316706D01*
X12050500Y36305500D01*
X1124000Y36305500D01*
X1123991Y36305500D01*
X1123990Y36305499D01*
X1059064Y36298519D01*
X1059052Y36298517D01*
X1007546Y36287312D01*
X969345Y36276356D01*
X969341Y36276354D01*
X872431Y36219677D01*
X872428Y36219675D01*
X819623Y36173919D01*
X819612Y36173909D01*
X777451Y36129193D01*
X777447Y36129187D01*
X738737Y36053056D01*
X735032Y36045770D01*
X687100Y35994934D01*
X619293Y35978082D01*
X553139Y36000565D01*
X509642Y36055244D01*
X500500Y36101973D01*
X500500Y40118013D01*
X2199500Y40118013D01*
X2199500Y39881989D01*
X2199503Y39881964D01*
X2227613Y39668438D01*
X2227614Y39668438D01*
X2230306Y39647988D01*
X2291395Y39420003D01*
X2377190Y39212876D01*
X2381714Y39201955D01*
X2381719Y39201944D01*
X2437388Y39105525D01*
X2440289Y39100500D01*
X2499723Y38997555D01*
X2499725Y38997553D01*
X2499944Y38997224D01*
X2500947Y38995960D01*
X2643399Y38810311D01*
X2643403Y38810306D01*
X2643406Y38810303D01*
X2643412Y38810296D01*
X2810295Y38643413D01*
X2810302Y38643407D01*
X2839575Y38620945D01*
X2839577Y38620944D01*
X2839578Y38620943D01*
X2997548Y38499728D01*
X2997550Y38499727D01*
X3128918Y38423882D01*
X3198516Y38383699D01*
X3200255Y38382618D01*
X3201708Y38381811D01*
X3202447Y38381511D01*
X3420007Y38291394D01*
X3647986Y38230307D01*
X3881989Y38199500D01*
X3881996Y38199500D01*
X4118004Y38199500D01*
X4118011Y38199500D01*
X4352014Y38230307D01*
X4579993Y38291394D01*
X4798049Y38381716D01*
X5002450Y38499727D01*
X5189699Y38643408D01*
X5356592Y38810301D01*
X5500273Y38997550D01*
X5618284Y39201951D01*
X5708606Y39420007D01*
X5769693Y39647986D01*
X5800500Y39881989D01*
X5800500Y40118011D01*
X5769693Y40352014D01*
X5708606Y40579993D01*
X5618489Y40797553D01*
X5618189Y40798292D01*
X5617382Y40799745D01*
X5616297Y40801491D01*
X5615321Y40803181D01*
X5576118Y40871082D01*
X5500273Y41002450D01*
X5500272Y41002452D01*
X5356595Y41189695D01*
X5356589Y41189703D01*
X5356574Y41189719D01*
X5189712Y41356580D01*
X5189704Y41356588D01*
X5189697Y41356594D01*
X5189694Y41356597D01*
X5189689Y41356601D01*
X5004040Y41499053D01*
X5002776Y41500056D01*
X5002447Y41500275D01*
X5002444Y41500277D01*
X4898172Y41560478D01*
X4898170Y41560480D01*
X4798065Y41618276D01*
X4798048Y41618285D01*
X4579997Y41708605D01*
X4435458Y41747334D01*
X4352010Y41769694D01*
X4352009Y41769695D01*
X4352006Y41769695D01*
X4119889Y41800253D01*
X4118208Y41800500D01*
X4118017Y41800500D01*
X4118011Y41800500D01*
X3881989Y41800500D01*
X3881983Y41800500D01*
X3881981Y41800500D01*
X3875861Y41799747D01*
X3874955Y41799575D01*
X3647992Y41769695D01*
X3420001Y41708605D01*
X3201950Y41618285D01*
X3201942Y41618281D01*
X2997545Y41500270D01*
X2997536Y41500264D01*
X2810309Y41356601D01*
X2810294Y41356587D01*
X2810286Y41356580D01*
X2643420Y41189714D01*
X2643413Y41189706D01*
X2643399Y41189691D01*
X2499736Y41002464D01*
X2499730Y41002455D01*
X2381719Y40798058D01*
X2381715Y40798050D01*
X2291395Y40579999D01*
X2230305Y40352008D01*
X2199503Y40118037D01*
X2199500Y40118013D01*
X500500Y40118013D01*
X500500Y47993358D01*
X500579Y47997782D01*
X500737Y48002208D01*
X500974Y48006629D01*
X514069Y48189729D01*
X519274Y48216681D01*
X519629Y48231182D01*
X558415Y48409479D01*
X560602Y48418044D01*
X563089Y48426514D01*
X565884Y48434912D01*
X631366Y48610478D01*
X633054Y48613944D01*
X634751Y48618648D01*
X638415Y48626672D01*
X642373Y48634577D01*
X716086Y48769571D01*
X732171Y48799030D01*
X736691Y48806646D01*
X741465Y48814073D01*
X746491Y48821314D01*
X766054Y48847448D01*
X791005Y48872398D01*
X800070Y48879184D01*
X819810Y48886544D01*
X822045Y48888567D01*
X827799Y48889523D01*
X865534Y48903593D01*
X885870Y48899168D01*
G37*
%TD.AperFunction*%
%TD*%
%TA.AperFunction,Conductor*%
%TO.N,+3V3*%
G36*
X12943039Y35980315D02*
G01*
X12988794Y35927511D01*
X13000000Y35876000D01*
X13000000Y34624500D01*
X12980315Y34557461D01*
X12927511Y34511706D01*
X12876000Y34500500D01*
X12606898Y34500500D01*
X12567853Y34495812D01*
X12518438Y34489878D01*
X12377656Y34434361D01*
X12257077Y34342923D01*
X12165639Y34222344D01*
X12110122Y34081562D01*
X12104188Y34032147D01*
X12099500Y33993102D01*
X12099500Y33006898D01*
X12105126Y32960046D01*
X12110122Y32918439D01*
X12162847Y32784738D01*
X12169128Y32715151D01*
X12136791Y32653215D01*
X12135173Y32651567D01*
X11533929Y32050324D01*
X11472606Y32016839D01*
X11431465Y32014889D01*
X11417620Y32016552D01*
X11343102Y32025500D01*
X10756898Y32025500D01*
X10717853Y32020812D01*
X10668438Y32014878D01*
X10527656Y31959361D01*
X10407077Y31867923D01*
X10315639Y31747344D01*
X10260122Y31606562D01*
X10254188Y31557147D01*
X10249500Y31518102D01*
X10249500Y30481898D01*
X10251548Y30464845D01*
X10260122Y30393439D01*
X10315639Y30252657D01*
X10407077Y30132078D01*
X10527656Y30040640D01*
X10527657Y30040640D01*
X10527658Y30040639D01*
X10668436Y29985123D01*
X10756898Y29974500D01*
X10756903Y29974500D01*
X11343103Y29974500D01*
X11431464Y29985111D01*
X11500373Y29973560D01*
X11533930Y29949677D01*
X12479281Y29004327D01*
X12512766Y28943004D01*
X12515600Y28916646D01*
X12515600Y28854844D01*
X12556523Y28702117D01*
X12556526Y28702110D01*
X12635575Y28565191D01*
X12635579Y28565186D01*
X12635580Y28565184D01*
X12747384Y28453380D01*
X12747386Y28453379D01*
X12747390Y28453376D01*
X12884309Y28374327D01*
X12884316Y28374323D01*
X12908092Y28367953D01*
X12967752Y28331590D01*
X12998283Y28268743D01*
X13000000Y28248178D01*
X13000000Y24124000D01*
X12980315Y24056961D01*
X12927511Y24011206D01*
X12876000Y24000000D01*
X1124000Y24000000D01*
X1056961Y24019685D01*
X1011206Y24072489D01*
X1000000Y24124000D01*
X1000000Y35876000D01*
X1019685Y35943039D01*
X1072489Y35988794D01*
X1124000Y36000000D01*
X12876000Y36000000D01*
X12943039Y35980315D01*
G37*
%TD.AperFunction*%
%TD*%
M02*
